  0
SECTION
  2
HEADER
  9
$ACADVER
  1
AC1009
  9
$EXTMIN
 10
0.0
 20
0.0
 30
0.0
  9
$EXTMAX
 10
1000.0
 20
1000.0
 30
0.0
  9
$FILLMODE
 70
 0
  9
$SPLFRAME
 70
 1
  0
ENDSEC
  0
SECTION
  2
TABLES
  0
TABLE
  2
LAYER
 70
1
  0
LAYER
  2
0
 70
     0
 62
     7
  6
CONTINUOUS
  0
ENDTAB
  0
ENDSEC
  0
SECTION
  2
ENTITIES
  0
LINE
  8
0
 62
     0
 10
19.8079
 20
28.6301
 30
0.0
 11
18.2563
 21
29.0339
 31
0.0
  0
LINE
  8
0
 62
     0
 10
18.2563
 20
29.0339
 30
0.0
 11
16.8879
 21
29.4955
 31
0.0
  0
LINE
  8
0
 62
     0
 10
16.8879
 20
29.4955
 30
0.0
 11
16.0211
 21
30.0688
 31
0.0
  0
LINE
  8
0
 62
     0
 10
16.0211
 20
30.0688
 30
0.0
 11
15.6008
 21
30.813
 31
0.0
  0
LINE
  8
0
 62
     0
 10
15.6008
 20
30.813
 30
0.0
 11
15.5732
 21
31.7776
 31
0.0
  0
LINE
  8
0
 62
     0
 10
15.5732
 20
31.7776
 30
0.0
 11
15.6008
 21
32.4845
 31
0.0
  0
LINE
  8
0
 62
     0
 10
15.6008
 20
32.4845
 30
0.0
 11
15.4988
 21
33.1184
 31
0.0
  0
LINE
  8
0
 62
     0
 10
15.4988
 20
33.1184
 30
0.0
 11
15.2852
 21
33.6586
 31
0.0
  0
LINE
  8
0
 62
     0
 10
15.2852
 20
33.6586
 30
0.0
 11
14.9834
 21
34.0816
 31
0.0
  0
LINE
  8
0
 62
     0
 10
14.9834
 20
34.0816
 30
0.0
 11
14.6127
 21
34.3683
 31
0.0
  0
LINE
  8
0
 62
     0
 10
14.6127
 20
34.3683
 30
0.0
 11
14.1952
 21
34.4951
 31
0.0
  0
LINE
  8
0
 62
     0
 10
14.1952
 20
34.4951
 30
0.0
 11
13.7515
 21
34.4386
 31
0.0
  0
LINE
  8
0
 62
     0
 10
13.7515
 20
34.4386
 30
0.0
 11
13.3022
 21
34.1781
 31
0.0
  0
LINE
  8
0
 62
     0
 10
13.3022
 20
34.1781
 30
0.0
 11
13.0211
 21
33.6917
 31
0.0
  0
LINE
  8
0
 62
     0
 10
13.0211
 20
33.6917
 30
0.0
 11
12.9053
 21
32.9751
 31
0.0
  0
LINE
  8
0
 62
     0
 10
12.9053
 20
32.9751
 30
0.0
 11
12.9632
 21
32.2502
 31
0.0
  0
LINE
  8
0
 62
     0
 10
12.9632
 20
32.2502
 30
0.0
 11
13.2044
 21
31.7348
 31
0.0
  0
LINE
  8
0
 62
     0
 10
13.2044
 20
31.7348
 30
0.0
 11
13.3532
 21
31.36
 31
0.0
  0
LINE
  8
0
 62
     0
 10
13.3532
 20
31.36
 30
0.0
 11
13.3242
 21
30.8612
 31
0.0
  0
LINE
  8
0
 62
     0
 10
13.3242
 20
30.8612
 30
0.0
 11
13.1575
 21
30.4257
 31
0.0
  0
LINE
  8
0
 62
     0
 10
13.1575
 20
30.4257
 30
0.0
 11
12.8916
 21
30.2383
 31
0.0
  0
LINE
  8
0
 62
     0
 10
12.8916
 20
30.2383
 30
0.0
 11
12.638
 21
30.4657
 31
0.0
  0
LINE
  8
0
 62
     0
 10
12.638
 20
30.4657
 30
0.0
 11
12.1336
 21
31.083
 31
0.0
  0
LINE
  8
0
 62
     0
 10
12.1336
 20
31.083
 30
0.0
 11
11.4487
 21
31.9953
 31
0.0
  0
LINE
  8
0
 62
     0
 10
11.4487
 20
31.9953
 30
0.0
 11
10.6577
 21
33.1088
 31
0.0
  0
LINE
  8
0
 62
     0
 10
10.6577
 20
33.1088
 30
0.0
 11
9.21494
 21
35.2915
 31
0.0
  0
LINE
  8
0
 62
     0
 10
9.21494
 20
35.2915
 30
0.0
 11
7.99814
 21
36.9658
 31
0.0
  0
LINE
  8
0
 62
     0
 10
7.99814
 20
36.9658
 30
0.0
 11
7.04455
 21
38.2556
 31
0.0
  0
LINE
  8
0
 62
     0
 10
7.04455
 20
38.2556
 30
0.0
 11
6.39272
 21
39.285
 31
0.0
  0
LINE
  8
0
 62
     0
 10
6.39272
 20
39.285
 30
0.0
 11
5.73264
 21
40.2967
 31
0.0
  0
LINE
  8
0
 62
     0
 10
5.73264
 20
40.2967
 30
0.0
 11
5.21727
 21
41.1498
 31
0.0
  0
LINE
  8
0
 62
     0
 10
5.21727
 20
41.1498
 30
0.0
 11
4.89754
 21
41.753
 31
0.0
  0
LINE
  8
0
 62
     0
 10
4.89754
 20
41.753
 30
0.0
 11
4.82452
 21
42.019
 31
0.0
  0
LINE
  8
0
 62
     0
 10
4.82452
 20
42.019
 30
0.0
 11
5.67475
 21
41.771
 31
0.0
  0
LINE
  8
0
 62
     0
 10
5.67475
 20
41.771
 30
0.0
 11
7.9623
 21
40.7942
 31
0.0
  0
LINE
  8
0
 62
     0
 10
7.9623
 20
40.7942
 30
0.0
 11
11.6499
 21
39.1072
 31
0.0
  0
LINE
  8
0
 62
     0
 10
11.6499
 20
39.1072
 30
0.0
 11
16.7032
 21
36.7249
 31
0.0
  0
LINE
  8
0
 62
     0
 10
16.7032
 20
36.7249
 30
0.0
 11
19.0032
 21
35.6334
 31
0.0
  0
LINE
  8
0
 62
     0
 10
19.0032
 20
35.6334
 30
0.0
 11
20.8676
 21
34.7527
 31
0.0
  0
LINE
  8
0
 62
     0
 10
20.8676
 20
34.7527
 30
0.0
 11
22.3366
 21
34.0665
 31
0.0
  0
LINE
  8
0
 62
     0
 10
22.3366
 20
34.0665
 30
0.0
 11
23.4515
 21
33.5539
 31
0.0
  0
LINE
  8
0
 62
     0
 10
23.4515
 20
33.5539
 30
0.0
 11
24.2562
 21
33.197
 31
0.0
  0
LINE
  8
0
 62
     0
 10
24.2562
 20
33.197
 30
0.0
 11
24.7895
 21
32.9778
 31
0.0
  0
LINE
  8
0
 62
     0
 10
24.7895
 20
32.9778
 30
0.0
 11
25.0954
 21
32.8745
 31
0.0
  0
LINE
  8
0
 62
     0
 10
25.0954
 20
32.8745
 30
0.0
 11
25.2154
 21
32.8704
 31
0.0
  0
LINE
  8
0
 62
     0
 10
31.8423
 20
31.3628
 30
0.0
 11
32.5782
 21
32.7877
 31
0.0
  0
LINE
  8
0
 62
     0
 10
32.5782
 20
32.7877
 30
0.0
 11
33.332
 21
34.0183
 31
0.0
  0
LINE
  8
0
 62
     0
 10
33.332
 20
34.0183
 30
0.0
 11
34.0844
 21
34.7362
 31
0.0
  0
LINE
  8
0
 62
     0
 10
34.0844
 20
34.7362
 30
0.0
 11
34.903
 21
34.9815
 31
0.0
  0
LINE
  8
0
 62
     0
 10
34.903
 20
34.9815
 30
0.0
 11
35.851
 21
34.7941
 31
0.0
  0
LINE
  8
0
 62
     0
 10
35.851
 20
34.7941
 30
0.0
 11
36.5319
 21
34.6094
 31
0.0
  0
LINE
  8
0
 62
     0
 10
36.5319
 20
34.6094
 30
0.0
 11
37.1725
 21
34.5681
 31
0.0
  0
LINE
  8
0
 62
     0
 10
37.1725
 20
34.5681
 30
0.0
 11
37.7472
 21
34.6563
 31
0.0
  0
LINE
  8
0
 62
     0
 10
37.7472
 20
34.6563
 30
0.0
 11
38.2281
 21
34.8561
 31
0.0
  0
LINE
  8
0
 62
     0
 10
38.2281
 20
34.8561
 30
0.0
 11
38.5893
 21
35.1537
 31
0.0
  0
LINE
  8
0
 62
     0
 10
38.5893
 20
35.1537
 30
0.0
 11
38.8041
 21
35.5328
 31
0.0
  0
LINE
  8
0
 62
     0
 10
38.8041
 20
35.5328
 30
0.0
 11
38.8482
 21
35.9777
 31
0.0
  0
LINE
  8
0
 62
     0
 10
38.8482
 20
35.9777
 30
0.0
 11
38.6955
 21
36.474
 31
0.0
  0
LINE
  8
0
 62
     0
 10
38.6955
 20
36.474
 30
0.0
 11
38.2834
 21
36.8572
 31
0.0
  0
LINE
  8
0
 62
     0
 10
38.2834
 20
36.8572
 30
0.0
 11
37.6107
 21
37.1285
 31
0.0
  0
LINE
  8
0
 62
     0
 10
37.6107
 20
37.1285
 30
0.0
 11
36.89
 21
37.2332
 31
0.0
  0
LINE
  8
0
 62
     0
 10
36.89
 20
37.2332
 30
0.0
 11
36.3361
 21
37.1119
 31
0.0
  0
LINE
  8
0
 62
     0
 10
36.3361
 20
37.1119
 30
0.0
 11
35.9364
 21
37.0498
 31
0.0
  0
LINE
  8
0
 62
     0
 10
35.9364
 20
37.0498
 30
0.0
 11
35.457
 21
37.1891
 31
0.0
  0
LINE
  8
0
 62
     0
 10
35.457
 20
37.1891
 30
0.0
 11
35.0697
 21
37.4481
 31
0.0
  0
LINE
  8
0
 62
     0
 10
35.0697
 20
37.4481
 30
0.0
 11
34.947
 21
37.75
 31
0.0
  0
LINE
  8
0
 62
     0
 10
34.947
 20
37.75
 30
0.0
 11
35.2241
 21
37.9469
 31
0.0
  0
LINE
  8
0
 62
     0
 10
35.2241
 20
37.9469
 30
0.0
 11
35.9378
 21
38.3025
 31
0.0
  0
LINE
  8
0
 62
     0
 10
35.9378
 20
38.3025
 30
0.0
 11
36.9796
 21
38.7671
 31
0.0
  0
LINE
  8
0
 62
     0
 10
36.9796
 20
38.7671
 30
0.0
 11
38.2432
 21
39.292
 31
0.0
  0
LINE
  8
0
 62
     0
 10
38.2432
 20
39.292
 30
0.0
 11
40.6894
 21
40.211
 31
0.0
  0
LINE
  8
0
 62
     0
 10
40.6894
 20
40.211
 30
0.0
 11
42.5909
 21
41.0256
 31
0.0
  0
LINE
  8
0
 62
     0
 10
42.5909
 20
41.0256
 30
0.0
 11
44.0602
 21
41.6691
 31
0.0
  0
LINE
  8
0
 62
     0
 10
44.0602
 20
41.6691
 30
0.0
 11
45.2106
 21
42.0758
 31
0.0
  0
LINE
  8
0
 62
     0
 10
45.2106
 20
42.0758
 30
0.0
 11
46.3434
 21
42.4946
 31
0.0
  0
LINE
  8
0
 62
     0
 10
46.3434
 20
42.4946
 30
0.0
 11
47.2888
 21
42.8075
 31
0.0
  0
LINE
  8
0
 62
     0
 10
47.2888
 20
42.8075
 30
0.0
 11
47.9488
 21
42.9853
 31
0.0
  0
LINE
  8
0
 62
     0
 10
47.9488
 20
42.9853
 30
0.0
 11
48.2258
 21
42.9976
 31
0.0
  0
LINE
  8
0
 62
     0
 10
48.2258
 20
42.9976
 30
0.0
 11
47.7933
 21
42.2243
 31
0.0
  0
LINE
  8
0
 62
     0
 10
47.7933
 20
42.2243
 30
0.0
 11
46.3338
 21
40.2096
 31
0.0
  0
LINE
  8
0
 62
     0
 10
46.3338
 20
40.2096
 30
0.0
 11
43.8686
 21
36.988
 31
0.0
  0
LINE
  8
0
 62
     0
 10
43.8686
 20
36.988
 30
0.0
 11
40.4248
 21
32.5906
 31
0.0
  0
LINE
  8
0
 62
     0
 10
40.4248
 20
32.5906
 30
0.0
 11
38.8468
 21
30.5911
 31
0.0
  0
LINE
  8
0
 62
     0
 10
38.8468
 20
30.5911
 30
0.0
 11
37.5751
 21
28.9691
 31
0.0
  0
LINE
  8
0
 62
     0
 10
37.5751
 20
28.9691
 30
0.0
 11
36.5788
 21
27.6903
 31
0.0
  0
LINE
  8
0
 62
     0
 10
36.5788
 20
27.6903
 30
0.0
 11
35.8302
 21
26.716
 31
0.0
  0
LINE
  8
0
 62
     0
 10
35.8302
 20
26.716
 30
0.0
 11
35.3039
 21
26.0119
 31
0.0
  0
LINE
  8
0
 62
     0
 10
35.3039
 20
26.0119
 30
0.0
 11
34.9718
 21
25.5405
 31
0.0
  0
LINE
  8
0
 62
     0
 10
34.9718
 20
25.5405
 30
0.0
 11
34.8038
 21
25.265
 31
0.0
  0
LINE
  8
0
 62
     0
 10
34.8038
 20
25.265
 30
0.0
 11
34.7748
 21
25.1492
 31
0.0
  0
LINE
  8
0
 62
     0
 10
25.0541
 20
17.5879
 30
0.0
 11
25.0086
 21
15.9852
 31
0.0
  0
LINE
  8
0
 62
     0
 10
25.0086
 20
15.9852
 30
0.0
 11
24.8612
 21
14.5493
 31
0.0
  0
LINE
  8
0
 62
     0
 10
24.8612
 20
14.5493
 30
0.0
 11
24.4933
 21
13.5764
 31
0.0
  0
LINE
  8
0
 62
     0
 10
24.4933
 20
13.5764
 30
0.0
 11
23.8621
 21
13.0018
 31
0.0
  0
LINE
  8
0
 62
     0
 10
23.8621
 20
13.0018
 30
0.0
 11
22.9264
 21
12.7606
 31
0.0
  0
LINE
  8
0
 62
     0
 10
22.9264
 20
12.7606
 30
0.0
 11
22.2319
 21
12.6325
 31
0.0
  0
LINE
  8
0
 62
     0
 10
22.2319
 20
12.6325
 30
0.0
 11
21.6379
 21
12.3899
 31
0.0
  0
LINE
  8
0
 62
     0
 10
21.6379
 20
12.3899
 30
0.0
 11
21.1584
 21
12.0633
 31
0.0
  0
LINE
  8
0
 62
     0
 10
21.1584
 20
12.0633
 30
0.0
 11
20.8125
 21
11.6733
 31
0.0
  0
LINE
  8
0
 62
     0
 10
20.8125
 20
11.6733
 30
0.0
 11
20.6155
 21
11.2489
 31
0.0
  0
LINE
  8
0
 62
     0
 10
20.6155
 20
11.2489
 30
0.0
 11
20.5851
 21
10.8135
 31
0.0
  0
LINE
  8
0
 62
     0
 10
20.5851
 20
10.8135
 30
0.0
 11
20.7381
 21
10.3932
 31
0.0
  0
LINE
  8
0
 62
     0
 10
20.7381
 20
10.3932
 30
0.0
 11
21.0923
 21
10.0128
 31
0.0
  0
LINE
  8
0
 62
     0
 10
21.0923
 20
10.0128
 30
0.0
 11
21.6283
 21
9.84747
 31
0.0
  0
LINE
  8
0
 62
     0
 10
21.6283
 20
9.84747
 30
0.0
 11
22.3532
 21
9.89295
 31
0.0
  0
LINE
  8
0
 62
     0
 10
22.3532
 20
9.89295
 30
0.0
 11
23.0477
 21
10.1107
 31
0.0
  0
LINE
  8
0
 62
     0
 10
23.0477
 20
10.1107
 30
0.0
 11
23.4956
 21
10.4579
 31
0.0
  0
LINE
  8
0
 62
     0
 10
23.4956
 20
10.4579
 30
0.0
 11
23.8277
 21
10.6881
 31
0.0
  0
LINE
  8
0
 62
     0
 10
23.8277
 20
10.6881
 30
0.0
 11
24.3196
 21
10.7708
 31
0.0
  0
LINE
  8
0
 62
     0
 10
24.3196
 20
10.7708
 30
0.0
 11
24.7826
 21
10.706
 31
0.0
  0
LINE
  8
0
 62
     0
 10
24.7826
 20
10.706
 30
0.0
 11
25.0238
 21
10.4869
 31
0.0
  0
LINE
  8
0
 62
     0
 10
25.0238
 20
10.4869
 30
0.0
 11
24.8584
 21
10.1906
 31
0.0
  0
LINE
  8
0
 62
     0
 10
24.8584
 20
10.1906
 30
0.0
 11
24.3692
 21
9.56084
 31
0.0
  0
LINE
  8
0
 62
     0
 10
24.3692
 20
9.56084
 30
0.0
 11
23.632
 21
8.6899
 31
0.0
  0
LINE
  8
0
 62
     0
 10
23.632
 20
8.6899
 30
0.0
 11
22.7211
 21
7.67017
 31
0.0
  0
LINE
  8
0
 62
     0
 10
22.7211
 20
7.67017
 30
0.0
 11
20.9145
 21
5.78086
 31
0.0
  0
LINE
  8
0
 62
     0
 10
20.9145
 20
5.78086
 30
0.0
 11
19.553
 21
4.22233
 31
0.0
  0
LINE
  8
0
 62
     0
 10
19.553
 20
4.22233
 30
0.0
 11
18.507
 21
3.0055
 31
0.0
  0
LINE
  8
0
 62
     0
 10
18.507
 20
3.0055
 30
0.0
 11
17.6485
 21
2.14009
 31
0.0
  0
LINE
  8
0
 62
     0
 10
17.6485
 20
2.14009
 30
0.0
 11
16.8079
 21
1.27331
 31
0.0
  0
LINE
  8
0
 62
     0
 10
16.8079
 20
1.27331
 30
0.0
 11
16.09
 21
0.581533
 31
0.0
  0
LINE
  8
0
 62
     0
 10
16.09
 20
0.581533
 30
0.0
 11
15.5732
 21
0.13367
 31
0.0
  0
LINE
  8
0
 62
     0
 10
15.5732
 20
0.13367
 30
0.0
 11
15.3307
 21
0.00275608
 31
0.0
  0
LINE
  8
0
 62
     0
 10
15.3307
 20
0.00275608
 30
0.0
 11
15.3844
 21
0.887458
 31
0.0
  0
LINE
  8
0
 62
     0
 10
15.3844
 20
0.887458
 30
0.0
 11
15.8268
 21
3.33623
 31
0.0
  0
LINE
  8
0
 62
     0
 10
15.8268
 20
3.33623
 30
0.0
 11
16.6522
 21
7.30772
 31
0.0
  0
LINE
  8
0
 62
     0
 10
16.6522
 20
7.30772
 30
0.0
 11
17.8525
 21
12.762
 31
0.0
  0
LINE
  8
0
 62
     0
 10
17.8525
 20
12.762
 30
0.0
 11
18.8502
 21
17.2613
 31
0.0
  0
LINE
  8
0
 62
     0
 10
18.8502
 20
17.2613
 30
0.0
 11
19.4455
 21
20.0477
 31
0.0
  0
LINE
  8
0
 62
     0
 10
19.4455
 20
20.0477
 30
0.0
 11
19.7101
 21
21.4795
 31
0.0
  0
LINE
  8
0
 62
     0
 10
19.7101
 20
21.4795
 30
0.0
 11
19.7183
 21
21.9177
 31
0.0
  0
LINE
  8
0
 62
     0
 10
25.1988
 20
32.8952
 30
0.0
 11
24.5456
 21
34.3586
 31
0.0
  0
LINE
  8
0
 62
     0
 10
24.5456
 20
34.3586
 30
0.0
 11
24.0523
 21
35.7159
 31
0.0
  0
LINE
  8
0
 62
     0
 10
24.0523
 20
35.7159
 30
0.0
 11
23.9613
 21
36.7524
 31
0.0
  0
LINE
  8
0
 62
     0
 10
23.9613
 20
36.7524
 30
0.0
 11
24.2796
 21
37.5447
 31
0.0
  0
LINE
  8
0
 62
     0
 10
24.2796
 20
37.5447
 30
0.0
 11
25.0183
 21
38.1674
 31
0.0
  0
LINE
  8
0
 62
     0
 10
25.0183
 20
38.1674
 30
0.0
 11
26.0187
 21
39.062
 31
0.0
  0
LINE
  8
0
 62
     0
 10
26.0187
 20
39.062
 30
0.0
 11
26.4515
 21
40.065
 31
0.0
  0
LINE
  8
0
 62
     0
 10
26.4515
 20
40.065
 30
0.0
 11
26.2819
 21
40.9388
 31
0.0
  0
LINE
  8
0
 62
     0
 10
26.2819
 20
40.9388
 30
0.0
 11
25.4772
 21
41.4405
 31
0.0
  0
LINE
  8
0
 62
     0
 10
25.4772
 20
41.4405
 30
0.0
 11
24.9218
 21
41.3561
 31
0.0
  0
LINE
  8
0
 62
     0
 10
24.9218
 20
41.3561
 30
0.0
 11
24.2893
 21
41.0009
 31
0.0
  0
LINE
  8
0
 62
     0
 10
24.2893
 20
41.0009
 30
0.0
 11
23.7588
 21
40.5021
 31
0.0
  0
LINE
  8
0
 62
     0
 10
23.7588
 20
40.5021
 30
0.0
 11
23.5079
 21
39.9934
 31
0.0
  0
LINE
  8
0
 62
     0
 10
23.5079
 20
39.9934
 30
0.0
 11
23.3068
 21
39.6434
 31
0.0
  0
LINE
  8
0
 62
     0
 10
23.3068
 20
39.6434
 30
0.0
 11
22.9003
 21
39.3555
 31
0.0
  0
LINE
  8
0
 62
     0
 10
22.9003
 20
39.3555
 30
0.0
 11
22.4551
 21
39.2134
 31
0.0
  0
LINE
  8
0
 62
     0
 10
22.4551
 20
39.2134
 30
0.0
 11
22.1437
 21
39.3044
 31
0.0
  0
LINE
  8
0
 62
     0
 10
22.1437
 20
39.3044
 30
0.0
 11
22.1616
 21
39.6434
 31
0.0
  0
LINE
  8
0
 62
     0
 10
22.1616
 20
39.6434
 30
0.0
 11
22.3284
 21
40.4234
 31
0.0
  0
LINE
  8
0
 62
     0
 10
22.3284
 20
40.4234
 30
0.0
 11
22.615
 21
41.5286
 31
0.0
  0
LINE
  8
0
 62
     0
 10
22.615
 20
41.5286
 30
0.0
 11
22.994
 21
42.8417
 31
0.0
  0
LINE
  8
0
 62
     0
 10
22.994
 20
42.8417
 30
0.0
 11
23.7987
 21
45.3291
 31
0.0
  0
LINE
  8
0
 62
     0
 10
23.7987
 20
45.3291
 30
0.0
 11
24.3485
 21
47.3244
 31
0.0
  0
LINE
  8
0
 62
     0
 10
24.3485
 20
47.3244
 30
0.0
 11
24.762
 21
48.8749
 31
0.0
  0
LINE
  8
0
 62
     0
 10
24.762
 20
48.8749
 30
0.0
 11
25.1616
 21
50.0271
 31
0.0
  0
LINE
  8
0
 62
     0
 10
25.1616
 20
50.0271
 30
0.0
 11
25.5405
 21
51.1736
 31
0.0
  0
LINE
  8
0
 62
     0
 10
25.5405
 20
51.1736
 30
0.0
 11
25.8864
 21
52.1092
 31
0.0
  0
LINE
  8
0
 62
     0
 10
25.8864
 20
52.1092
 30
0.0
 11
26.1579
 21
52.7346
 31
0.0
  0
LINE
  8
0
 62
     0
 10
26.1579
 20
52.7346
 30
0.0
 11
26.3205
 21
52.9579
 31
0.0
  0
LINE
  8
0
 62
     0
 10
26.3205
 20
52.9579
 30
0.0
 11
26.6568
 21
52.1395
 31
0.0
  0
LINE
  8
0
 62
     0
 10
26.6568
 20
52.1395
 30
0.0
 11
27.3196
 21
49.7417
 31
0.0
  0
LINE
  8
0
 62
     0
 10
27.3196
 20
49.7417
 30
0.0
 11
28.3022
 21
45.8061
 31
0.0
  0
LINE
  8
0
 62
     0
 10
28.3022
 20
45.8061
 30
0.0
 11
29.592
 21
40.3698
 31
0.0
  0
LINE
  8
0
 62
     0
 10
29.592
 20
40.3698
 30
0.0
 11
30.6448
 21
35.8842
 31
0.0
  0
LINE
  8
0
 62
     0
 10
30.6448
 20
35.8842
 30
0.0
 11
31.3187
 21
33.117
 31
0.0
  0
LINE
  8
0
 62
     0
 10
31.3187
 20
33.117
 30
0.0
 11
31.7018
 21
31.7114
 31
0.0
  0
LINE
  8
0
 62
     0
 10
31.7018
 20
31.7114
 30
0.0
 11
31.885
 21
31.3132
 31
0.0
  0
LINE
  8
0
 62
     0
 10
19.8107
 20
21.8998
 30
0.0
 11
18.5291
 21
20.9365
 31
0.0
  0
LINE
  8
0
 62
     0
 10
18.5291
 20
20.9365
 30
0.0
 11
17.315
 21
20.1566
 31
0.0
  0
LINE
  8
0
 62
     0
 10
17.315
 20
20.1566
 30
0.0
 11
16.3242
 21
19.8369
 31
0.0
  0
LINE
  8
0
 62
     0
 10
16.3242
 20
19.8369
 30
0.0
 11
15.4809
 21
19.9719
 31
0.0
  0
LINE
  8
0
 62
     0
 10
15.4809
 20
19.9719
 30
0.0
 11
14.7092
 21
20.5521
 31
0.0
  0
LINE
  8
0
 62
     0
 10
14.7092
 20
20.5521
 30
0.0
 11
13.615
 21
21.3293
 31
0.0
  0
LINE
  8
0
 62
     0
 10
13.615
 20
21.3293
 30
0.0
 11
12.5402
 21
21.5277
 31
0.0
  0
LINE
  8
0
 62
     0
 10
12.5402
 20
21.5277
 30
0.0
 11
11.7271
 21
21.1694
 31
0.0
  0
LINE
  8
0
 62
     0
 10
11.7271
 20
21.1694
 30
0.0
 11
11.4171
 21
20.2723
 31
0.0
  0
LINE
  8
0
 62
     0
 10
11.4171
 20
20.2723
 30
0.0
 11
11.6224
 21
19.7501
 31
0.0
  0
LINE
  8
0
 62
     0
 10
11.6224
 20
19.7501
 30
0.0
 11
12.1102
 21
19.2126
 31
0.0
  0
LINE
  8
0
 62
     0
 10
12.1102
 20
19.2126
 30
0.0
 11
12.7124
 21
18.8061
 31
0.0
  0
LINE
  8
0
 62
     0
 10
12.7124
 20
18.8061
 30
0.0
 11
13.265
 21
18.6724
 31
0.0
  0
LINE
  8
0
 62
     0
 10
13.265
 20
18.6724
 30
0.0
 11
13.6508
 21
18.5567
 31
0.0
  0
LINE
  8
0
 62
     0
 10
13.6508
 20
18.5567
 30
0.0
 11
14.0229
 21
18.2232
 31
0.0
  0
LINE
  8
0
 62
     0
 10
14.0229
 20
18.2232
 30
0.0
 11
14.2599
 21
17.8208
 31
0.0
  0
LINE
  8
0
 62
     0
 10
14.2599
 20
17.8208
 30
0.0
 11
14.2407
 21
17.4956
 31
0.0
  0
LINE
  8
0
 62
     0
 10
14.2407
 20
17.4956
 30
0.0
 11
13.9044
 21
17.4418
 31
0.0
  0
LINE
  8
0
 62
     0
 10
13.9044
 20
17.4418
 30
0.0
 11
13.1079
 21
17.4308
 31
0.0
  0
LINE
  8
0
 62
     0
 10
13.1079
 20
17.4308
 30
0.0
 11
11.9669
 21
17.4639
 31
0.0
  0
LINE
  8
0
 62
     0
 10
11.9669
 20
17.4639
 30
0.0
 11
10.6026
 21
17.5397
 31
0.0
  0
LINE
  8
0
 62
     0
 10
10.6026
 20
17.5397
 30
0.0
 11
7.99814
 21
17.7739
 31
0.0
  0
LINE
  8
0
 62
     0
 10
7.99814
 20
17.7739
 30
0.0
 11
5.93108
 21
17.8663
 31
0.0
  0
LINE
  8
0
 62
     0
 10
5.93108
 20
17.8663
 30
0.0
 11
4.32703
 21
17.9255
 31
0.0
  0
LINE
  8
0
 62
     0
 10
4.32703
 20
17.9255
 30
0.0
 11
3.11574
 21
18.0564
 31
0.0
  0
LINE
  8
0
 62
     0
 10
3.11574
 20
18.0564
 30
0.0
 11
1.91272
 21
18.1736
 31
0.0
  0
LINE
  8
0
 62
     0
 10
1.91272
 20
18.1736
 30
0.0
 11
0.924662
 21
18.3017
 31
0.0
  0
LINE
  8
0
 62
     0
 10
0.924662
 20
18.3017
 30
0.0
 11
0.253559
 21
18.4285
 31
0.0
  0
LINE
  8
0
 62
     0
 10
0.253559
 20
18.4285
 30
0.0
 11
0
 21
18.5374
 31
0.0
  0
LINE
  8
0
 62
     0
 10
0
 20
18.5374
 30
0.0
 11
0.724849
 21
19.0472
 31
0.0
  0
LINE
  8
0
 62
     0
 10
0.724849
 20
19.0472
 30
0.0
 11
2.91455
 21
20.2255
 31
0.0
  0
LINE
  8
0
 62
     0
 10
2.91455
 20
20.2255
 30
0.0
 11
6.53327
 21
22.0569
 31
0.0
  0
LINE
  8
0
 62
     0
 10
6.53327
 20
22.0569
 30
0.0
 11
11.5466
 21
24.5208
 31
0.0
  0
LINE
  8
0
 62
     0
 10
11.5466
 20
24.5208
 30
0.0
 11
13.8355
 21
25.6398
 31
0.0
  0
LINE
  8
0
 62
     0
 10
13.8355
 20
25.6398
 30
0.0
 11
15.6862
 21
26.5479
 31
0.0
  0
LINE
  8
0
 62
     0
 10
15.6862
 20
26.5479
 30
0.0
 11
17.1387
 21
27.2673
 31
0.0
  0
LINE
  8
0
 62
     0
 10
17.1387
 20
27.2673
 30
0.0
 11
18.2342
 21
27.8198
 31
0.0
  0
LINE
  8
0
 62
     0
 10
18.2342
 20
27.8198
 30
0.0
 11
19.0142
 21
28.2264
 31
0.0
  0
LINE
  8
0
 62
     0
 10
19.0142
 20
28.2264
 30
0.0
 11
19.5199
 21
28.5061
 31
0.0
  0
LINE
  8
0
 62
     0
 10
19.5199
 20
28.5061
 30
0.0
 11
19.79
 21
28.6811
 31
0.0
  0
LINE
  8
0
 62
     0
 10
19.79
 20
28.6811
 30
0.0
 11
19.8672
 21
28.7707
 31
0.0
  0
LINE
  8
0
 62
     0
 10
34.7638
 20
25.1547
 30
0.0
 11
36.3361
 21
25.4648
 31
0.0
  0
LINE
  8
0
 62
     0
 10
36.3361
 20
25.4648
 30
0.0
 11
37.768
 21
25.6425
 31
0.0
  0
LINE
  8
0
 62
     0
 10
37.768
 20
25.6425
 30
0.0
 11
38.7985
 21
25.5006
 31
0.0
  0
LINE
  8
0
 62
     0
 10
38.7985
 20
25.5006
 30
0.0
 11
39.4988
 21
25.0128
 31
0.0
  0
LINE
  8
0
 62
     0
 10
39.4988
 20
25.0128
 30
0.0
 11
39.944
 21
24.1529
 31
0.0
  0
LINE
  8
0
 62
     0
 10
39.944
 20
24.1529
 30
0.0
 11
40.5903
 21
22.9788
 31
0.0
  0
LINE
  8
0
 62
     0
 10
40.5903
 20
22.9788
 30
0.0
 11
41.4722
 21
22.3339
 31
0.0
  0
LINE
  8
0
 62
     0
 10
41.4722
 20
22.3339
 30
0.0
 11
42.3609
 21
22.3049
 31
0.0
  0
LINE
  8
0
 62
     0
 10
42.3609
 20
22.3049
 30
0.0
 11
43.0308
 21
22.9774
 31
0.0
  0
LINE
  8
0
 62
     0
 10
43.0308
 20
22.9774
 30
0.0
 11
43.0721
 21
23.5369
 31
0.0
  0
LINE
  8
0
 62
     0
 10
43.0721
 20
23.5369
 30
0.0
 11
42.8653
 21
24.2328
 31
0.0
  0
LINE
  8
0
 62
     0
 10
42.8653
 20
24.2328
 30
0.0
 11
42.4988
 21
24.8598
 31
0.0
  0
LINE
  8
0
 62
     0
 10
42.4988
 20
24.8598
 30
0.0
 11
42.0606
 21
25.2181
 31
0.0
  0
LINE
  8
0
 62
     0
 10
42.0606
 20
25.2181
 30
0.0
 11
41.7629
 21
25.4923
 31
0.0
  0
LINE
  8
0
 62
     0
 10
41.7629
 20
25.4923
 30
0.0
 11
41.5727
 21
25.954
 31
0.0
  0
LINE
  8
0
 62
     0
 10
41.5727
 20
25.954
 30
0.0
 11
41.5339
 21
26.4197
 31
0.0
  0
LINE
  8
0
 62
     0
 10
41.5339
 20
26.4197
 30
0.0
 11
41.6941
 21
26.7022
 31
0.0
  0
LINE
  8
0
 62
     0
 10
41.6941
 20
26.7022
 30
0.0
 11
42.019
 21
26.6085
 31
0.0
  0
LINE
  8
0
 62
     0
 10
42.019
 20
26.6085
 30
0.0
 11
42.7411
 21
26.2723
 31
0.0
  0
LINE
  8
0
 62
     0
 10
42.7411
 20
26.2723
 30
0.0
 11
43.754
 21
25.7459
 31
0.0
  0
LINE
  8
0
 62
     0
 10
43.754
 20
25.7459
 30
0.0
 11
44.9516
 21
25.0831
 31
0.0
  0
LINE
  8
0
 62
     0
 10
44.9516
 20
25.0831
 30
0.0
 11
47.195
 21
23.7422
 31
0.0
  0
LINE
  8
0
 62
     0
 10
47.195
 20
23.7422
 30
0.0
 11
49.0167
 21
22.7624
 31
0.0
  0
LINE
  8
0
 62
     0
 10
49.0167
 20
22.7624
 30
0.0
 11
50.4363
 21
22.0128
 31
0.0
  0
LINE
  8
0
 62
     0
 10
50.4363
 20
22.0128
 30
0.0
 11
51.471
 21
21.3665
 31
0.0
  0
LINE
  8
0
 62
     0
 10
51.471
 20
21.3665
 30
0.0
 11
52.5032
 21
20.7409
 31
0.0
  0
LINE
  8
0
 62
     0
 10
52.5032
 20
20.7409
 30
0.0
 11
53.3368
 21
20.1952
 31
0.0
  0
LINE
  8
0
 62
     0
 10
53.3368
 20
20.1952
 30
0.0
 11
53.8868
 21
19.79
 31
0.0
  0
LINE
  8
0
 62
     0
 10
53.8868
 20
19.79
 30
0.0
 11
54.0688
 21
19.5819
 31
0.0
  0
LINE
  8
0
 62
     0
 10
54.0688
 20
19.5819
 30
0.0
 11
53.1936
 21
19.4386
 31
0.0
  0
LINE
  8
0
 62
     0
 10
53.1936
 20
19.4386
 30
0.0
 11
50.709
 21
19.327
 31
0.0
  0
LINE
  8
0
 62
     0
 10
50.709
 20
19.327
 30
0.0
 11
46.6549
 21
19.2484
 31
0.0
  0
LINE
  8
0
 62
     0
 10
46.6549
 20
19.2484
 30
0.0
 11
41.0697
 21
19.2043
 31
0.0
  0
LINE
  8
0
 62
     0
 10
41.0697
 20
19.2043
 30
0.0
 11
36.4603
 21
19.1782
 31
0.0
  0
LINE
  8
0
 62
     0
 10
36.4603
 20
19.1782
 30
0.0
 11
33.6117
 21
19.1396
 31
0.0
  0
LINE
  8
0
 62
     0
 10
33.6117
 20
19.1396
 30
0.0
 11
32.1551
 21
19.0803
 31
0.0
  0
LINE
  8
0
 62
     0
 10
32.1551
 20
19.0803
 30
0.0
 11
31.728
 21
18.9907
 31
0.0
  0
LINE
  8
0
 62
     0
 10
31.7486
 20
19.0417
 30
0.0
 11
32.9723
 21
18.0082
 31
0.0
  0
LINE
  8
0
 62
     0
 10
32.9723
 20
18.0082
 30
0.0
 11
34.0031
 21
16.9995
 31
0.0
  0
LINE
  8
0
 62
     0
 10
34.0031
 20
16.9995
 30
0.0
 11
34.535
 21
16.1037
 31
0.0
  0
LINE
  8
0
 62
     0
 10
34.535
 20
16.1037
 30
0.0
 11
34.5901
 21
15.2521
 31
0.0
  0
LINE
  8
0
 62
     0
 10
34.5901
 20
15.2521
 30
0.0
 11
34.196
 21
14.3688
 31
0.0
  0
LINE
  8
0
 62
     0
 10
34.196
 20
14.3688
 30
0.0
 11
33.8639
 21
13.7459
 31
0.0
  0
LINE
  8
0
 62
     0
 10
33.8639
 20
13.7459
 30
0.0
 11
33.6806
 21
13.1313
 31
0.0
  0
LINE
  8
0
 62
     0
 10
33.6806
 20
13.1313
 30
0.0
 11
33.6379
 21
12.5525
 31
0.0
  0
LINE
  8
0
 62
     0
 10
33.6379
 20
12.5525
 30
0.0
 11
33.7261
 21
12.0385
 31
0.0
  0
LINE
  8
0
 62
     0
 10
33.7261
 20
12.0385
 30
0.0
 11
33.9356
 21
11.6196
 31
0.0
  0
LINE
  8
0
 62
     0
 10
33.9356
 20
11.6196
 30
0.0
 11
34.258
 21
11.3247
 31
0.0
  0
LINE
  8
0
 62
     0
 10
34.258
 20
11.3247
 30
0.0
 11
34.6825
 21
11.1814
 31
0.0
  0
LINE
  8
0
 62
     0
 10
34.6825
 20
11.1814
 30
0.0
 11
35.2006
 21
11.22
 31
0.0
  0
LINE
  8
0
 62
     0
 10
35.2006
 20
11.22
 30
0.0
 11
35.6637
 21
11.5369
 31
0.0
  0
LINE
  8
0
 62
     0
 10
35.6637
 20
11.5369
 30
0.0
 11
36.0796
 21
12.1322
 31
0.0
  0
LINE
  8
0
 62
     0
 10
36.0796
 20
12.1322
 30
0.0
 11
36.3432
 21
12.8116
 31
0.0
  0
LINE
  8
0
 62
     0
 10
36.3432
 20
12.8116
 30
0.0
 11
36.3499
 21
13.3794
 31
0.0
  0
LINE
  8
0
 62
     0
 10
36.3499
 20
13.3794
 30
0.0
 11
36.3774
 21
13.7818
 31
0.0
  0
LINE
  8
0
 62
     0
 10
36.3774
 20
13.7818
 30
0.0
 11
36.6187
 21
14.2186
 31
0.0
  0
LINE
  8
0
 62
     0
 10
36.6187
 20
14.2186
 30
0.0
 11
36.9591
 21
14.5383
 31
0.0
  0
LINE
  8
0
 62
     0
 10
36.9591
 20
14.5383
 30
0.0
 11
37.2801
 21
14.5893
 31
0.0
  0
LINE
  8
0
 62
     0
 10
37.2801
 20
14.5893
 30
0.0
 11
37.4082
 21
14.2765
 31
0.0
  0
LINE
  8
0
 62
     0
 10
37.4082
 20
14.2765
 30
0.0
 11
37.5969
 21
13.502
 31
0.0
  0
LINE
  8
0
 62
     0
 10
37.5969
 20
13.502
 30
0.0
 11
37.8174
 21
12.3817
 31
0.0
  0
LINE
  8
0
 62
     0
 10
37.8174
 20
12.3817
 30
0.0
 11
38.0464
 21
11.0339
 31
0.0
  0
LINE
  8
0
 62
     0
 10
38.0464
 20
11.0339
 30
0.0
 11
38.3977
 21
8.44462
 31
0.0
  0
LINE
  8
0
 62
     0
 10
38.3977
 20
8.44462
 30
0.0
 11
38.7671
 21
6.40789
 31
0.0
  0
LINE
  8
0
 62
     0
 10
38.7671
 20
6.40789
 30
0.0
 11
39.0645
 21
4.8314
 31
0.0
  0
LINE
  8
0
 62
     0
 10
39.0645
 20
4.8314
 30
0.0
 11
39.2067
 21
3.61872
 31
0.0
  0
LINE
  8
0
 62
     0
 10
39.2067
 20
3.61872
 30
0.0
 11
39.3594
 21
2.42259
 31
0.0
  0
LINE
  8
0
 62
     0
 10
39.3594
 20
2.42259
 30
0.0
 11
39.4533
 21
1.4304
 31
0.0
  0
LINE
  8
0
 62
     0
 10
39.4533
 20
1.4304
 30
0.0
 11
39.4794
 21
0.746898
 31
0.0
  0
LINE
  8
0
 62
     0
 10
39.4794
 20
0.746898
 30
0.0
 11
39.431
 21
0.475424
 31
0.0
  0
LINE
  8
0
 62
     0
 10
39.431
 20
0.475424
 30
0.0
 11
38.7724
 21
1.06936
 31
0.0
  0
LINE
  8
0
 62
     0
 10
38.7724
 20
1.06936
 30
0.0
 11
37.1355
 21
2.94211
 31
0.0
  0
LINE
  8
0
 62
     0
 10
37.1355
 20
2.94211
 30
0.0
 11
34.546
 21
6.06337
 31
0.0
  0
LINE
  8
0
 62
     0
 10
34.546
 20
6.06337
 30
0.0
 11
31.0293
 21
10.4028
 31
0.0
  0
LINE
  8
0
 62
     0
 10
31.0293
 20
10.4028
 30
0.0
 11
29.4308
 21
12.3872
 31
0.0
  0
LINE
  8
0
 62
     0
 10
29.4308
 20
12.3872
 30
0.0
 11
28.134
 21
13.9899
 31
0.0
  0
LINE
  8
0
 62
     0
 10
28.134
 20
13.9899
 30
0.0
 11
27.1102
 21
15.2466
 31
0.0
  0
LINE
  8
0
 62
     0
 10
27.1102
 20
15.2466
 30
0.0
 11
26.3274
 21
16.1919
 31
0.0
  0
LINE
  8
0
 62
     0
 10
26.3274
 20
16.1919
 30
0.0
 11
25.7583
 21
16.8631
 31
0.0
  0
LINE
  8
0
 62
     0
 10
25.7583
 20
16.8631
 30
0.0
 11
25.3738
 21
17.293
 31
0.0
  0
LINE
  8
0
 62
     0
 10
25.3738
 20
17.293
 30
0.0
 11
25.1423
 21
17.5176
 31
0.0
  0
LINE
  8
0
 62
     0
 10
25.1423
 20
17.5176
 30
0.0
 11
25.0376
 21
17.5714
 31
0.0
  0
ENDSEC
  0
EOF
