  0
SECTION
  2
HEADER
  9
$ACADVER
  1
AC1009
  9
$EXTMIN
 10
0.0
 20
0.0
 30
0.0
  9
$EXTMAX
 10
1000.0
 20
1000.0
 30
0.0
  9
$FILLMODE
 70
 0
  9
$SPLFRAME
 70
 1
  0
ENDSEC
  0
SECTION
  2
TABLES
  0
TABLE
  2
LAYER
 70
1
  0
LAYER
  2
0
 70
     0
 62
     7
  6
CONTINUOUS
  0
ENDTAB
  0
ENDSEC
  0
SECTION
  2
ENTITIES
  0
LINE
  8
0
 62
     0
 10
0.00551215
 20
0.272852
 30
0.0
 11
0.574643
 21
0.465776
 31
0.0
  0
LINE
  8
0
 62
     0
 10
0.574643
 20
0.465776
 30
0.0
 11
1.70877
 21
0.544326
 31
0.0
  0
LINE
  8
0
 62
     0
 10
1.70877
 20
0.544326
 30
0.0
 11
2.80293
 21
0.628385
 31
0.0
  0
LINE
  8
0
 62
     0
 10
2.80293
 20
0.628385
 30
0.0
 11
3.27973
 21
0.826823
 31
0.0
  0
LINE
  8
0
 62
     0
 10
3.27973
 20
0.826823
 30
0.0
 11
3.35001
 21
1.36839
 31
0.0
  0
LINE
  8
0
 62
     0
 10
3.35001
 20
1.36839
 30
0.0
 11
3.59805
 21
1.8383
 31
0.0
  0
LINE
  8
0
 62
     0
 10
3.59805
 20
1.8383
 30
0.0
 11
3.74689
 21
2.18419
 31
0.0
  0
LINE
  8
0
 62
     0
 10
3.74689
 20
2.18419
 30
0.0
 11
3.80891
 21
2.71473
 31
0.0
  0
LINE
  8
0
 62
     0
 10
3.80891
 20
2.71473
 30
0.0
 11
4.12859
 21
3.53882
 31
0.0
  0
LINE
  8
0
 62
     0
 10
4.12859
 20
3.53882
 30
0.0
 11
4.93751
 21
4.60403
 31
0.0
  0
LINE
  8
0
 62
     0
 10
4.93751
 20
4.60403
 30
0.0
 11
5.37573
 21
5.10565
 31
0.0
  0
LINE
  8
0
 62
     0
 10
5.37573
 20
5.10565
 30
0.0
 11
5.73539
 21
5.56588
 31
0.0
  0
LINE
  8
0
 62
     0
 10
5.73539
 20
5.56588
 30
0.0
 11
5.97792
 21
5.93245
 31
0.0
  0
LINE
  8
0
 62
     0
 10
5.97792
 20
5.93245
 30
0.0
 11
6.0675
 21
6.15431
 31
0.0
  0
LINE
  8
0
 62
     0
 10
6.0675
 20
6.15431
 30
0.0
 11
6.13914
 21
6.52914
 31
0.0
  0
LINE
  8
0
 62
     0
 10
6.13914
 20
6.52914
 30
0.0
 11
6.31416
 21
6.96874
 31
0.0
  0
LINE
  8
0
 62
     0
 10
6.31416
 20
6.96874
 30
0.0
 11
6.627
 21
7.60677
 31
0.0
  0
LINE
  8
0
 62
     0
 10
6.627
 20
7.60677
 30
0.0
 11
7.03488
 21
8.44737
 31
0.0
  0
LINE
  8
0
 62
     0
 10
7.03488
 20
8.44737
 30
0.0
 11
7.66466
 21
9.71518
 31
0.0
  0
LINE
  8
0
 62
     0
 10
7.66466
 20
9.71518
 30
0.0
 11
8.14557
 21
10.5324
 31
0.0
  0
LINE
  8
0
 62
     0
 10
8.14557
 20
10.5324
 30
0.0
 11
8.53832
 21
10.994
 31
0.0
  0
LINE
  8
0
 62
     0
 10
8.53832
 20
10.994
 30
0.0
 11
8.90901
 21
11.1924
 31
0.0
  0
LINE
  8
0
 62
     0
 10
8.90901
 20
11.1924
 30
0.0
 11
9.36516
 21
11.5507
 31
0.0
  0
LINE
  8
0
 62
     0
 10
9.36516
 20
11.5507
 30
0.0
 11
9.73448
 21
12.2163
 31
0.0
  0
LINE
  8
0
 62
     0
 10
9.73448
 20
12.2163
 30
0.0
 11
10.276
 21
13.0762
 31
0.0
  0
LINE
  8
0
 62
     0
 10
10.276
 20
13.0762
 30
0.0
 11
11.1773
 21
13.892
 31
0.0
  0
LINE
  8
0
 62
     0
 10
11.1773
 20
13.892
 30
0.0
 11
11.9462
 21
14.548
 31
0.0
  0
LINE
  8
0
 62
     0
 10
11.9462
 20
14.548
 30
0.0
 11
12.2011
 21
15.0206
 31
0.0
  0
LINE
  8
0
 62
     0
 10
12.2011
 20
15.0206
 30
0.0
 11
12.3541
 21
15.361
 31
0.0
  0
LINE
  8
0
 62
     0
 10
12.3541
 20
15.361
 30
0.0
 11
12.886
 21
15.7014
 31
0.0
  0
LINE
  8
0
 62
     0
 10
12.886
 20
15.7014
 30
0.0
 11
13.553
 21
16.1727
 31
0.0
  0
LINE
  8
0
 62
     0
 10
13.553
 20
16.1727
 30
0.0
 11
14.0325
 21
16.83
 31
0.0
  0
LINE
  8
0
 62
     0
 10
14.0325
 20
16.83
 30
0.0
 11
14.4308
 21
17.5341
 31
0.0
  0
LINE
  8
0
 62
     0
 10
14.4308
 20
17.5341
 30
0.0
 11
14.9255
 21
18.0978
 31
0.0
  0
LINE
  8
0
 62
     0
 10
14.9255
 20
18.0978
 30
0.0
 11
15.463
 21
18.4726
 31
0.0
  0
LINE
  8
0
 62
     0
 10
15.463
 20
18.4726
 30
0.0
 11
15.988
 21
18.6077
 31
0.0
  0
LINE
  8
0
 62
     0
 10
15.988
 20
18.6077
 30
0.0
 11
16.3559
 21
18.6958
 31
0.0
  0
LINE
  8
0
 62
     0
 10
16.3559
 20
18.6958
 30
0.0
 11
16.5089
 21
18.9067
 31
0.0
  0
LINE
  8
0
 62
     0
 10
16.5089
 20
18.9067
 30
0.0
 11
16.411
 21
19.0583
 31
0.0
  0
LINE
  8
0
 62
     0
 10
16.411
 20
19.0583
 30
0.0
 11
16.1796
 21
19.0004
 31
0.0
  0
LINE
  8
0
 62
     0
 10
16.1796
 20
19.0004
 30
0.0
 11
15.9756
 21
18.9673
 31
0.0
  0
LINE
  8
0
 62
     0
 10
15.9756
 20
18.9673
 30
0.0
 11
16.0376
 21
19.2898
 31
0.0
  0
LINE
  8
0
 62
     0
 10
16.0376
 20
19.2898
 30
0.0
 11
16.1713
 21
19.7005
 31
0.0
  0
LINE
  8
0
 62
     0
 10
16.1713
 20
19.7005
 30
0.0
 11
16.2264
 21
19.9967
 31
0.0
  0
LINE
  8
0
 62
     0
 10
16.2264
 20
19.9967
 30
0.0
 11
16.5571
 21
20.2572
 31
0.0
  0
LINE
  8
0
 62
     0
 10
16.5571
 20
20.2572
 30
0.0
 11
17.355
 21
20.5824
 31
0.0
  0
LINE
  8
0
 62
     0
 10
17.355
 20
20.5824
 30
0.0
 11
18.4244
 21
21.168
 31
0.0
  0
LINE
  8
0
 62
     0
 10
18.4244
 20
21.168
 30
0.0
 11
19.3463
 21
22.298
 31
0.0
  0
LINE
  8
0
 62
     0
 10
19.3463
 20
22.298
 30
0.0
 11
20.1566
 21
23.3798
 31
0.0
  0
LINE
  8
0
 62
     0
 10
20.1566
 20
23.3798
 30
0.0
 11
20.898
 21
24.0936
 31
0.0
  0
LINE
  8
0
 62
     0
 10
20.898
 20
24.0936
 30
0.0
 11
21.3858
 21
24.5732
 31
0.0
  0
LINE
  8
0
 62
     0
 10
21.3858
 20
24.5732
 30
0.0
 11
21.5897
 21
25.0886
 31
0.0
  0
LINE
  8
0
 62
     0
 10
21.5897
 20
25.0886
 30
0.0
 11
21.7606
 21
25.5916
 31
0.0
  0
LINE
  8
0
 62
     0
 10
21.7606
 20
25.5916
 30
0.0
 11
22.1713
 21
26.0394
 31
0.0
  0
LINE
  8
0
 62
     0
 10
22.1713
 20
26.0394
 30
0.0
 11
22.7417
 21
26.2764
 31
0.0
  0
LINE
  8
0
 62
     0
 10
22.7417
 20
26.2764
 30
0.0
 11
23.3109
 21
26.3054
 31
0.0
  0
LINE
  8
0
 62
     0
 10
23.3109
 20
26.3054
 30
0.0
 11
23.6637
 21
26.1538
 31
0.0
  0
LINE
  8
0
 62
     0
 10
23.6637
 20
26.1538
 30
0.0
 11
23.5838
 21
25.8506
 31
0.0
  0
LINE
  8
0
 62
     0
 10
23.5838
 20
25.8506
 30
0.0
 11
23.3702
 21
25.502
 31
0.0
  0
LINE
  8
0
 62
     0
 10
23.3702
 20
25.502
 30
0.0
 11
23.282
 21
25.0831
 31
0.0
  0
LINE
  8
0
 62
     0
 10
23.282
 20
25.0831
 30
0.0
 11
23.0229
 21
24.558
 31
0.0
  0
LINE
  8
0
 62
     0
 10
23.0229
 20
24.558
 30
0.0
 11
22.4124
 21
23.9076
 31
0.0
  0
LINE
  8
0
 62
     0
 10
22.4124
 20
23.9076
 30
0.0
 11
21.6931
 21
23.3564
 31
0.0
  0
LINE
  8
0
 62
     0
 10
21.6931
 20
23.3564
 30
0.0
 11
21.1116
 21
23.1221
 31
0.0
  0
LINE
  8
0
 62
     0
 10
21.1116
 20
23.1221
 30
0.0
 11
20.8607
 21
23.0601
 31
0.0
  0
LINE
  8
0
 62
     0
 10
20.8607
 20
23.0601
 30
0.0
 11
20.7753
 21
22.9113
 31
0.0
  0
LINE
  8
0
 62
     0
 10
20.7753
 20
22.9113
 30
0.0
 11
20.6651
 21
22.1161
 31
0.0
  0
LINE
  8
0
 62
     0
 10
20.6651
 20
22.1161
 30
0.0
 11
19.9237
 21
21.1763
 31
0.0
  0
LINE
  8
0
 62
     0
 10
19.9237
 20
21.1763
 30
0.0
 11
19.3987
 21
20.5245
 31
0.0
  0
LINE
  8
0
 62
     0
 10
19.3987
 20
20.5245
 30
0.0
 11
19.2884
 21
20.1331
 31
0.0
  0
LINE
  8
0
 62
     0
 10
19.2884
 20
20.1331
 30
0.0
 11
19.3215
 21
20.0436
 31
0.0
  0
LINE
  8
0
 62
     0
 10
19.3215
 20
20.0436
 30
0.0
 11
19.1451
 21
20.1152
 31
0.0
  0
LINE
  8
0
 62
     0
 10
19.1451
 20
20.1152
 30
0.0
 11
18.7702
 21
20.2007
 31
0.0
  0
LINE
  8
0
 62
     0
 10
18.7702
 20
20.2007
 30
0.0
 11
18.3761
 21
20.1263
 31
0.0
  0
LINE
  8
0
 62
     0
 10
18.3761
 20
20.1263
 30
0.0
 11
18.0992
 21
19.9457
 31
0.0
  0
LINE
  8
0
 62
     0
 10
18.0992
 20
19.9457
 30
0.0
 11
18.0771
 21
19.7101
 31
0.0
  0
LINE
  8
0
 62
     0
 10
18.0771
 20
19.7101
 30
0.0
 11
18.0785
 21
19.575
 31
0.0
  0
LINE
  8
0
 62
     0
 10
18.0785
 20
19.575
 30
0.0
 11
17.8649
 21
19.5985
 31
0.0
  0
LINE
  8
0
 62
     0
 10
17.8649
 20
19.5985
 30
0.0
 11
17.4639
 21
19.451
 31
0.0
  0
LINE
  8
0
 62
     0
 10
17.4639
 20
19.451
 30
0.0
 11
17.016
 21
18.8902
 31
0.0
  0
LINE
  8
0
 62
     0
 10
17.016
 20
18.8902
 30
0.0
 11
16.5158
 21
18.2852
 31
0.0
  0
LINE
  8
0
 62
     0
 10
16.5158
 20
18.2852
 30
0.0
 11
15.9907
 21
18.0426
 31
0.0
  0
LINE
  8
0
 62
     0
 10
15.9907
 20
18.0426
 30
0.0
 11
15.4685
 21
17.836
 31
0.0
  0
LINE
  8
0
 62
     0
 10
15.4685
 20
17.836
 30
0.0
 11
14.9834
 21
17.3371
 31
0.0
  0
LINE
  8
0
 62
     0
 10
14.9834
 20
17.3371
 30
0.0
 11
14.7395
 21
16.8396
 31
0.0
  0
LINE
  8
0
 62
     0
 10
14.7395
 20
16.8396
 30
0.0
 11
14.8042
 21
16.6315
 31
0.0
  0
LINE
  8
0
 62
     0
 10
14.8042
 20
16.6315
 30
0.0
 11
14.8318
 21
16.3008
 31
0.0
  0
LINE
  8
0
 62
     0
 10
14.8318
 20
16.3008
 30
0.0
 11
14.5011
 21
15.5029
 31
0.0
  0
LINE
  8
0
 62
     0
 10
14.5011
 20
15.5029
 30
0.0
 11
13.9292
 21
14.6761
 31
0.0
  0
LINE
  8
0
 62
     0
 10
13.9292
 20
14.6761
 30
0.0
 11
13.389
 21
14.3743
 31
0.0
  0
LINE
  8
0
 62
     0
 10
13.389
 20
14.3743
 30
0.0
 11
12.7909
 21
14.1648
 31
0.0
  0
LINE
  8
0
 62
     0
 10
12.7909
 20
14.1648
 30
0.0
 11
12.1157
 21
13.6026
 31
0.0
  0
LINE
  8
0
 62
     0
 10
12.1157
 20
13.6026
 30
0.0
 11
11.4667
 21
12.7951
 31
0.0
  0
LINE
  8
0
 62
     0
 10
11.4667
 20
12.7951
 30
0.0
 11
10.943
 21
11.8456
 31
0.0
  0
LINE
  8
0
 62
     0
 10
10.943
 20
11.8456
 30
0.0
 11
10.4635
 21
10.9968
 31
0.0
  0
LINE
  8
0
 62
     0
 10
10.4635
 20
10.9968
 30
0.0
 11
9.96047
 21
10.4524
 31
0.0
  0
LINE
  8
0
 62
     0
 10
9.96047
 20
10.4524
 30
0.0
 11
9.67796
 21
10.294
 31
0.0
  0
LINE
  8
0
 62
     0
 10
9.67796
 20
10.294
 30
0.0
 11
9.5746
 21
10.3215
 31
0.0
  0
LINE
  8
0
 62
     0
 10
9.5746
 20
10.3215
 30
0.0
 11
9.6435
 21
10.5971
 31
0.0
  0
LINE
  8
0
 62
     0
 10
9.6435
 20
10.5971
 30
0.0
 11
9.87915
 21
11.1773
 31
0.0
  0
LINE
  8
0
 62
     0
 10
9.87915
 20
11.1773
 30
0.0
 11
10.0528
 21
11.6003
 31
0.0
  0
LINE
  8
0
 62
     0
 10
10.0528
 20
11.6003
 30
0.0
 11
10.1603
 21
11.8842
 31
0.0
  0
LINE
  8
0
 62
     0
 10
10.1603
 20
11.8842
 30
0.0
 11
10.1878
 21
12.0179
 31
0.0
  0
LINE
  8
0
 62
     0
 10
10.1878
 20
12.0179
 30
0.0
 11
10.1258
 21
11.9903
 31
0.0
  0
LINE
  8
0
 62
     0
 10
10.1258
 20
11.9903
 30
0.0
 11
9.95909
 21
11.7864
 31
0.0
  0
LINE
  8
0
 62
     0
 10
9.95909
 20
11.7864
 30
0.0
 11
9.67796
 21
11.3964
 31
0.0
  0
LINE
  8
0
 62
     0
 10
9.67796
 20
11.3964
 30
0.0
 11
9.2673
 21
10.8052
 31
0.0
  0
LINE
  8
0
 62
     0
 10
9.2673
 20
10.8052
 30
0.0
 11
8.71746
 21
10.0018
 31
0.0
  0
LINE
  8
0
 62
     0
 10
8.71746
 20
10.0018
 30
0.0
 11
7.68533
 21
8.26548
 31
0.0
  0
LINE
  8
0
 62
     0
 10
7.68533
 20
8.26548
 30
0.0
 11
7.31876
 21
7.01971
 31
0.0
  0
LINE
  8
0
 62
     0
 10
7.31876
 20
7.01971
 30
0.0
 11
7.10791
 21
6.12814
 31
0.0
  0
LINE
  8
0
 62
     0
 10
7.10791
 20
6.12814
 30
0.0
 11
6.64076
 21
5.06155
 31
0.0
  0
LINE
  8
0
 62
     0
 10
6.64076
 20
5.06155
 30
0.0
 11
6.05924
 21
4.09691
 31
0.0
  0
LINE
  8
0
 62
     0
 10
6.05924
 20
4.09691
 30
0.0
 11
5.5094
 21
3.51262
 31
0.0
  0
LINE
  8
0
 62
     0
 10
5.5094
 20
3.51262
 30
0.0
 11
5.34539
 21
3.30591
 31
0.0
  0
LINE
  8
0
 62
     0
 10
5.34539
 20
3.30591
 30
0.0
 11
5.37298
 21
3.06614
 31
0.0
  0
LINE
  8
0
 62
     0
 10
5.37298
 20
3.06614
 30
0.0
 11
5.35369
 21
2.88148
 31
0.0
  0
LINE
  8
0
 62
     0
 10
5.35369
 20
2.88148
 30
0.0
 11
5.07944
 21
2.80293
 31
0.0
  0
LINE
  8
0
 62
     0
 10
5.07944
 20
2.80293
 30
0.0
 11
4.79697
 21
2.71336
 31
0.0
  0
LINE
  8
0
 62
     0
 10
4.79697
 20
2.71336
 30
0.0
 11
4.85069
 21
2.45015
 31
0.0
  0
LINE
  8
0
 62
     0
 10
4.85069
 20
2.45015
 30
0.0
 11
5.01191
 21
2.03536
 31
0.0
  0
LINE
  8
0
 62
     0
 10
5.01191
 20
2.03536
 30
0.0
 11
5.07944
 21
1.53238
 31
0.0
  0
LINE
  8
0
 62
     0
 10
5.07944
 20
1.53238
 30
0.0
 11
5.20072
 21
1.12861
 31
0.0
  0
LINE
  8
0
 62
     0
 10
5.20072
 20
1.12861
 30
0.0
 11
5.5728
 21
1.05144
 31
0.0
  0
LINE
  8
0
 62
     0
 10
5.5728
 20
1.05144
 30
0.0
 11
5.92145
 21
1.02388
 31
0.0
  0
LINE
  8
0
 62
     0
 10
5.92145
 20
1.02388
 30
0.0
 11
6.0675
 21
0.839227
 31
0.0
  0
LINE
  8
0
 62
     0
 10
6.0675
 20
0.839227
 30
0.0
 11
6.2122
 21
0.631141
 31
0.0
  0
LINE
  8
0
 62
     0
 10
6.2122
 20
0.631141
 30
0.0
 11
6.56086
 21
0.540191
 31
0.0
  0
LINE
  8
0
 62
     0
 10
6.56086
 20
0.540191
 30
0.0
 11
7.03351
 21
0.458886
 31
0.0
  0
LINE
  8
0
 62
     0
 10
7.03351
 20
0.458886
 30
0.0
 11
7.47861
 21
0.26734
 31
0.0
  0
LINE
  8
0
 62
     0
 10
7.47861
 20
0.26734
 30
0.0
 11
7.40558
 21
0.151584
 31
0.0
  0
LINE
  8
0
 62
     0
 10
7.40558
 20
0.151584
 30
0.0
 11
6.7758
 21
0.0675238
 31
0.0
  0
LINE
  8
0
 62
     0
 10
6.7758
 20
0.0675238
 30
0.0
 11
5.59484
 21
0.0165365
 31
0.0
  0
LINE
  8
0
 62
     0
 10
5.59484
 20
0.0165365
 30
0.0
 11
3.86955
 21
-0
 31
0.0
  0
LINE
  8
0
 62
     0
 10
3.86955
 20
-0
 30
0.0
 11
2.18833
 21
0.0192925
 31
0.0
  0
LINE
  8
0
 62
     0
 10
2.18833
 20
0.0192925
 30
0.0
 11
0.953604
 21
0.0730359
 31
0.0
  0
LINE
  8
0
 62
     0
 10
0.953604
 20
0.0730359
 30
0.0
 11
0.21084
 21
0.159852
 31
0.0
  0
LINE
  8
0
 62
     0
 10
0.21084
 20
0.159852
 30
0.0
 11
0.00551215
 21
0.272852
 31
0.0
  0
ENDSEC
  0
EOF
