  0
SECTION
  2
HEADER
  9
$ACADVER
  1
AC1009
  9
$EXTMIN
 10
0.0
 20
0.0
 30
0.0
  9
$EXTMAX
 10
1000.0
 20
1000.0
 30
0.0
  9
$FILLMODE
 70
 0
  9
$SPLFRAME
 70
 1
  0
ENDSEC
  0
SECTION
  2
TABLES
  0
TABLE
  2
LAYER
 70
1
  0
LAYER
  2
0
 70
     0
 62
     7
  6
CONTINUOUS
  0
ENDTAB
  0
ENDSEC
  0
SECTION
  2
ENTITIES
  0
LINE
  8
0
 62
     0
 10
1.66329
 20
1.43454
 30
0.0
 11
2.59209
 21
2.10289
 31
0.0
  0
LINE
  8
0
 62
     0
 10
2.59209
 20
2.10289
 30
0.0
 11
3.53328
 21
2.85943
 31
0.0
  0
LINE
  8
0
 62
     0
 10
3.53328
 20
2.85943
 30
0.0
 11
4.37388
 21
3.61184
 31
0.0
  0
LINE
  8
0
 62
     0
 10
4.37388
 20
3.61184
 30
0.0
 11
5.00779
 21
4.2678
 31
0.0
  0
LINE
  8
0
 62
     0
 10
5.00779
 20
4.2678
 30
0.0
 11
5.6279
 21
4.94026
 31
0.0
  0
LINE
  8
0
 62
     0
 10
5.6279
 20
4.94026
 30
0.0
 11
6.0675
 21
5.2572
 31
0.0
  0
LINE
  8
0
 62
     0
 10
6.0675
 20
5.2572
 30
0.0
 11
6.40098
 21
5.24757
 31
0.0
  0
LINE
  8
0
 62
     0
 10
6.40098
 20
5.24757
 30
0.0
 11
6.70003
 21
4.94026
 31
0.0
  0
LINE
  8
0
 62
     0
 10
6.70003
 20
4.94026
 30
0.0
 11
7.0666
 21
4.23333
 31
0.0
  0
LINE
  8
0
 62
     0
 10
7.0666
 20
4.23333
 30
0.0
 11
7.18647
 21
3.60218
 31
0.0
  0
LINE
  8
0
 62
     0
 10
7.18647
 20
3.60218
 30
0.0
 11
7.06244
 21
3.1502
 31
0.0
  0
LINE
  8
0
 62
     0
 10
7.06244
 20
3.1502
 30
0.0
 11
6.69315
 21
2.97656
 31
0.0
  0
LINE
  8
0
 62
     0
 10
6.69315
 20
2.97656
 30
0.0
 11
6.42303
 21
3.2315
 31
0.0
  0
LINE
  8
0
 62
     0
 10
6.42303
 20
3.2315
 30
0.0
 11
6.50709
 21
3.84334
 31
0.0
  0
LINE
  8
0
 62
     0
 10
6.50709
 20
3.84334
 30
0.0
 11
6.54569
 21
4.13135
 31
0.0
  0
LINE
  8
0
 62
     0
 10
6.54569
 20
4.13135
 30
0.0
 11
6.33208
 21
4.12859
 31
0.0
  0
LINE
  8
0
 62
     0
 10
6.33208
 20
4.12859
 30
0.0
 11
5.86493
 21
3.83921
 31
0.0
  0
LINE
  8
0
 62
     0
 10
5.86493
 20
3.83921
 30
0.0
 11
5.14974
 21
3.26044
 31
0.0
  0
LINE
  8
0
 62
     0
 10
5.14974
 20
3.26044
 30
0.0
 11
4.51309
 21
2.67753
 31
0.0
  0
LINE
  8
0
 62
     0
 10
4.51309
 20
2.67753
 30
0.0
 11
4.03352
 21
2.16076
 31
0.0
  0
LINE
  8
0
 62
     0
 10
4.03352
 20
2.16076
 30
0.0
 11
3.75652
 21
1.7694
 31
0.0
  0
LINE
  8
0
 62
     0
 10
3.75652
 20
1.7694
 30
0.0
 11
3.72897
 21
1.55718
 31
0.0
  0
LINE
  8
0
 62
     0
 10
3.72897
 20
1.55718
 30
0.0
 11
3.69316
 21
1.41387
 31
0.0
  0
LINE
  8
0
 62
     0
 10
3.69316
 20
1.41387
 30
0.0
 11
3.41064
 21
1.20027
 31
0.0
  0
LINE
  8
0
 62
     0
 10
3.41064
 20
1.20027
 30
0.0
 11
2.94349
 21
0.946711
 31
0.0
  0
LINE
  8
0
 62
     0
 10
2.94349
 20
0.946711
 30
0.0
 11
2.35645
 21
0.677997
 31
0.0
  0
LINE
  8
0
 62
     0
 10
2.35645
 20
0.677997
 30
0.0
 11
1.71152
 21
0.421679
 31
0.0
  0
LINE
  8
0
 62
     0
 10
1.71152
 20
0.421679
 30
0.0
 11
1.07349
 21
0.205328
 31
0.0
  0
LINE
  8
0
 62
     0
 10
1.07349
 20
0.205328
 30
0.0
 11
0.504363
 21
0.0564995
 31
0.0
  0
LINE
  8
0
 62
     0
 10
0.504363
 20
0.0564995
 30
0.0
 11
0.07028
 21
-0
 31
0.0
  0
LINE
  8
0
 62
     0
 10
0.07028
 20
-0
 30
0.0
 11
0.0234267
 21
0.114377
 31
0.0
  0
LINE
  8
0
 62
     0
 10
0.0234267
 20
0.114377
 30
0.0
 11
0.308681
 21
0.421679
 31
0.0
  0
LINE
  8
0
 62
     0
 10
0.308681
 20
0.421679
 30
0.0
 11
0.8723
 21
0.87781
 31
0.0
  0
LINE
  8
0
 62
     0
 10
0.8723
 20
0.87781
 30
0.0
 11
1.66329
 21
1.43454
 31
0.0
  0
ENDSEC
  0
EOF
