  0
SECTION
  2
HEADER
  9
$ACADVER
  1
AC1009
  9
$EXTMIN
 10
0.0
 20
0.0
 30
0.0
  9
$EXTMAX
 10
1000.0
 20
1000.0
 30
0.0
  9
$FILLMODE
 70
 0
  9
$SPLFRAME
 70
 1
  0
ENDSEC
  0
SECTION
  2
TABLES
  0
TABLE
  2
LAYER
 70
1
  0
LAYER
  2
0
 70
     0
 62
     7
  6
CONTINUOUS
  0
ENDTAB
  0
ENDSEC
  0
SECTION
  2
ENTITIES
  0
LINE
  8
0
 62
     0
 10
18.2824
 20
1.05144
 30
0.0
 11
18.9508
 21
1.87138
 31
0.0
  0
LINE
  8
0
 62
     0
 10
18.9508
 20
1.87138
 30
0.0
 11
18.999
 21
2.36747
 31
0.0
  0
LINE
  8
0
 62
     0
 10
18.999
 20
2.36747
 30
0.0
 11
18.4754
 21
2.47496
 31
0.0
  0
LINE
  8
0
 62
     0
 10
18.4754
 20
2.47496
 30
0.0
 11
17.4336
 21
2.12631
 31
0.0
  0
LINE
  8
0
 62
     0
 10
17.4336
 20
2.12631
 30
0.0
 11
16.7611
 21
1.84106
 31
0.0
  0
LINE
  8
0
 62
     0
 10
16.7611
 20
1.84106
 30
0.0
 11
16.4593
 21
1.83692
 31
0.0
  0
LINE
  8
0
 62
     0
 10
16.4593
 20
1.83692
 30
0.0
 11
16.4799
 21
2.17041
 31
0.0
  0
LINE
  8
0
 62
     0
 10
16.4799
 20
2.17041
 30
0.0
 11
16.7749
 21
2.89801
 31
0.0
  0
LINE
  8
0
 62
     0
 10
16.7749
 20
2.89801
 30
0.0
 11
17.0188
 21
3.62977
 31
0.0
  0
LINE
  8
0
 62
     0
 10
17.0188
 20
3.62977
 30
0.0
 11
16.9926
 21
4.22092
 31
0.0
  0
LINE
  8
0
 62
     0
 10
16.9926
 20
4.22092
 30
0.0
 11
16.6632
 21
4.7873
 31
0.0
  0
LINE
  8
0
 62
     0
 10
16.6632
 20
4.7873
 30
0.0
 11
15.9949
 21
5.44326
 31
0.0
  0
LINE
  8
0
 62
     0
 10
15.9949
 20
5.44326
 30
0.0
 11
15.4079
 21
5.89111
 31
0.0
  0
LINE
  8
0
 62
     0
 10
15.4079
 20
5.89111
 30
0.0
 11
14.8249
 21
6.22734
 31
0.0
  0
LINE
  8
0
 62
     0
 10
14.8249
 20
6.22734
 30
0.0
 11
14.3123
 21
6.42027
 31
0.0
  0
LINE
  8
0
 62
     0
 10
14.3123
 20
6.42027
 30
0.0
 11
13.9402
 21
6.43682
 31
0.0
  0
LINE
  8
0
 62
     0
 10
13.9402
 20
6.43682
 30
0.0
 11
13.3422
 21
6.46024
 31
0.0
  0
LINE
  8
0
 62
     0
 10
13.3422
 20
6.46024
 30
0.0
 11
12.8654
 21
6.79235
 31
0.0
  0
LINE
  8
0
 62
     0
 10
12.8654
 20
6.79235
 30
0.0
 11
12.9081
 21
7.19889
 31
0.0
  0
LINE
  8
0
 62
     0
 10
12.9081
 20
7.19889
 30
0.0
 11
13.5654
 21
7.39733
 31
0.0
  0
LINE
  8
0
 62
     0
 10
13.5654
 20
7.39733
 30
0.0
 11
13.9554
 21
7.4428
 31
0.0
  0
LINE
  8
0
 62
     0
 10
13.9554
 20
7.4428
 30
0.0
 11
14.0174
 21
7.52683
 31
0.0
  0
LINE
  8
0
 62
     0
 10
14.0174
 20
7.52683
 30
0.0
 11
13.7473
 21
7.65087
 31
0.0
  0
LINE
  8
0
 62
     0
 10
13.7473
 20
7.65087
 30
0.0
 11
13.1479
 21
7.81484
 31
0.0
  0
LINE
  8
0
 62
     0
 10
13.1479
 20
7.81484
 30
0.0
 11
12.4092
 21
8.05878
 31
0.0
  0
LINE
  8
0
 62
     0
 10
12.4092
 20
8.05878
 30
0.0
 11
11.9779
 21
8.39364
 31
0.0
  0
LINE
  8
0
 62
     0
 10
11.9779
 20
8.39364
 30
0.0
 11
11.8029
 21
8.88697
 31
0.0
  0
LINE
  8
0
 62
     0
 10
11.8029
 20
8.88697
 30
0.0
 11
11.8346
 21
9.60769
 31
0.0
  0
LINE
  8
0
 62
     0
 10
11.8346
 20
9.60769
 30
0.0
 11
11.5741
 21
11.1015
 31
0.0
  0
LINE
  8
0
 62
     0
 10
11.5741
 20
11.1015
 30
0.0
 11
10.3849
 21
12.7289
 31
0.0
  0
LINE
  8
0
 62
     0
 10
10.3849
 20
12.7289
 30
0.0
 11
9.68347
 21
13.513
 31
0.0
  0
LINE
  8
0
 62
     0
 10
9.68347
 20
13.513
 30
0.0
 11
8.99171
 21
14.3895
 31
0.0
  0
LINE
  8
0
 62
     0
 10
8.99171
 20
14.3895
 30
0.0
 11
8.38673
 21
15.2549
 31
0.0
  0
LINE
  8
0
 62
     0
 10
8.38673
 20
15.2549
 30
0.0
 11
7.94992
 21
15.999
 31
0.0
  0
LINE
  8
0
 62
     0
 10
7.94992
 20
15.999
 30
0.0
 11
7.53237
 21
16.7886
 31
0.0
  0
LINE
  8
0
 62
     0
 10
7.53237
 20
16.7886
 30
0.0
 11
7.28984
 21
17.1015
 31
0.0
  0
LINE
  8
0
 62
     0
 10
7.28984
 20
17.1015
 30
0.0
 11
7.17268
 21
16.9623
 31
0.0
  0
LINE
  8
0
 62
     0
 10
7.17268
 20
16.9623
 30
0.0
 11
7.1355
 21
16.3932
 31
0.0
  0
LINE
  8
0
 62
     0
 10
7.1355
 20
16.3932
 30
0.0
 11
6.95773
 21
15.5594
 31
0.0
  0
LINE
  8
0
 62
     0
 10
6.95773
 20
15.5594
 30
0.0
 11
6.56498
 21
15.2122
 31
0.0
  0
LINE
  8
0
 62
     0
 10
6.56498
 20
15.2122
 30
0.0
 11
6.26181
 21
14.8663
 31
0.0
  0
LINE
  8
0
 62
     0
 10
6.26181
 20
14.8663
 30
0.0
 11
6.30728
 21
14.0312
 31
0.0
  0
LINE
  8
0
 62
     0
 10
6.30728
 20
14.0312
 30
0.0
 11
6.37342
 21
13.6136
 31
0.0
  0
LINE
  8
0
 62
     0
 10
6.37342
 20
13.6136
 30
0.0
 11
6.27422
 21
13.5599
 31
0.0
  0
LINE
  8
0
 62
     0
 10
6.27422
 20
13.5599
 30
0.0
 11
6.00826
 21
13.8727
 31
0.0
  0
LINE
  8
0
 62
     0
 10
6.00826
 20
13.8727
 30
0.0
 11
5.5728
 21
14.5562
 31
0.0
  0
LINE
  8
0
 62
     0
 10
5.5728
 20
14.5562
 30
0.0
 11
5.10427
 21
15.423
 31
0.0
  0
LINE
  8
0
 62
     0
 10
5.10427
 20
15.423
 30
0.0
 11
4.90583
 21
16.0666
 31
0.0
  0
LINE
  8
0
 62
     0
 10
4.90583
 20
16.0666
 30
0.0
 11
4.96231
 21
16.5695
 31
0.0
  0
LINE
  8
0
 62
     0
 10
4.96231
 20
16.5695
 30
0.0
 11
5.26824
 21
17.0133
 31
0.0
  0
LINE
  8
0
 62
     0
 10
5.26824
 20
17.0133
 30
0.0
 11
5.63344
 21
17.8704
 31
0.0
  0
LINE
  8
0
 62
     0
 10
5.63344
 20
17.8704
 30
0.0
 11
5.33026
 21
18.8323
 31
0.0
  0
LINE
  8
0
 62
     0
 10
5.33026
 20
18.8323
 30
0.0
 11
4.44003
 21
19.7735
 31
0.0
  0
LINE
  8
0
 62
     0
 10
4.44003
 20
19.7735
 30
0.0
 11
3.03995
 21
20.5672
 31
0.0
  0
LINE
  8
0
 62
     0
 10
3.03995
 20
20.5672
 30
0.0
 11
2.38401
 21
20.9159
 31
0.0
  0
LINE
  8
0
 62
     0
 10
2.38401
 20
20.9159
 30
0.0
 11
1.81901
 21
21.3582
 31
0.0
  0
LINE
  8
0
 62
     0
 10
1.81901
 20
21.3582
 30
0.0
 11
1.4056
 21
21.8378
 31
0.0
  0
LINE
  8
0
 62
     0
 10
1.4056
 20
21.8378
 30
0.0
 11
1.20303
 21
22.298
 31
0.0
  0
LINE
  8
0
 62
     0
 10
1.20303
 20
22.298
 30
0.0
 11
0.869541
 21
23.3839
 31
0.0
  0
LINE
  8
0
 62
     0
 10
0.869541
 20
23.3839
 30
0.0
 11
0.338998
 21
24.5236
 31
0.0
  0
LINE
  8
0
 62
     0
 10
0.338998
 20
24.5236
 30
0.0
 11
0.101975
 21
25.0403
 31
0.0
  0
LINE
  8
0
 62
     0
 10
0.101975
 20
25.0403
 30
0.0
 11
0.00413413
 21
25.4827
 31
0.0
  0
LINE
  8
0
 62
     0
 10
0.00413413
 20
25.4827
 30
0.0
 11
0.0275608
 21
25.8327
 31
0.0
  0
LINE
  8
0
 62
     0
 10
0.0275608
 20
25.8327
 30
0.0
 11
0.151584
 21
26.0711
 31
0.0
  0
LINE
  8
0
 62
     0
 10
0.151584
 20
26.0711
 30
0.0
 11
0.359668
 21
26.1772
 31
0.0
  0
LINE
  8
0
 62
     0
 10
0.359668
 20
26.1772
 30
0.0
 11
0.631141
 21
26.1331
 31
0.0
  0
LINE
  8
0
 62
     0
 10
0.631141
 20
26.1331
 30
0.0
 11
0.94947
 21
25.9195
 31
0.0
  0
LINE
  8
0
 62
     0
 10
0.94947
 20
25.9195
 30
0.0
 11
1.29673
 21
25.5157
 31
0.0
  0
LINE
  8
0
 62
     0
 10
1.29673
 20
25.5157
 30
0.0
 11
2.38263
 21
24.0881
 31
0.0
  0
LINE
  8
0
 62
     0
 10
2.38263
 20
24.0881
 30
0.0
 11
3.36655
 21
23.0174
 31
0.0
  0
LINE
  8
0
 62
     0
 10
3.36655
 20
23.0174
 30
0.0
 11
4.16031
 21
22.3876
 31
0.0
  0
LINE
  8
0
 62
     0
 10
4.16031
 20
22.3876
 30
0.0
 11
4.67706
 21
22.2829
 31
0.0
  0
LINE
  8
0
 62
     0
 10
4.67706
 20
22.2829
 30
0.0
 11
4.99678
 21
22.2222
 31
0.0
  0
LINE
  8
0
 62
     0
 10
4.99678
 20
22.2222
 30
0.0
 11
5.08222
 21
21.7041
 31
0.0
  0
LINE
  8
0
 62
     0
 10
5.08222
 20
21.7041
 30
0.0
 11
5.1277
 21
21.2411
 31
0.0
  0
LINE
  8
0
 62
     0
 10
5.1277
 20
21.2411
 30
0.0
 11
5.33714
 21
20.8277
 31
0.0
  0
LINE
  8
0
 62
     0
 10
5.33714
 20
20.8277
 30
0.0
 11
5.66924
 21
20.4832
 31
0.0
  0
LINE
  8
0
 62
     0
 10
5.66924
 20
20.4832
 30
0.0
 11
6.08404
 21
20.2282
 31
0.0
  0
LINE
  8
0
 62
     0
 10
6.08404
 20
20.2282
 30
0.0
 11
6.54156
 21
20.0794
 31
0.0
  0
LINE
  8
0
 62
     0
 10
6.54156
 20
20.0794
 30
0.0
 11
7.00183
 21
20.056
 31
0.0
  0
LINE
  8
0
 62
     0
 10
7.00183
 20
20.056
 30
0.0
 11
7.42488
 21
20.1759
 31
0.0
  0
LINE
  8
0
 62
     0
 10
7.42488
 20
20.1759
 30
0.0
 11
7.77215
 21
20.457
 31
0.0
  0
LINE
  8
0
 62
     0
 10
7.77215
 20
20.457
 30
0.0
 11
8.06429
 21
20.7973
 31
0.0
  0
LINE
  8
0
 62
     0
 10
8.06429
 20
20.7973
 30
0.0
 11
8.20208
 21
20.869
 31
0.0
  0
LINE
  8
0
 62
     0
 10
8.20208
 20
20.869
 30
0.0
 11
8.19383
 21
20.6595
 31
0.0
  0
LINE
  8
0
 62
     0
 10
8.19383
 20
20.6595
 30
0.0
 11
8.05049
 21
20.1579
 31
0.0
  0
LINE
  8
0
 62
     0
 10
8.05049
 20
20.1579
 30
0.0
 11
8.02019
 21
19.5323
 31
0.0
  0
LINE
  8
0
 62
     0
 10
8.02019
 20
19.5323
 30
0.0
 11
8.33162
 21
18.8006
 31
0.0
  0
LINE
  8
0
 62
     0
 10
8.33162
 20
18.8006
 30
0.0
 11
9.02201
 21
17.9062
 31
0.0
  0
LINE
  8
0
 62
     0
 10
9.02201
 20
17.9062
 30
0.0
 11
10.1231
 21
16.7928
 31
0.0
  0
LINE
  8
0
 62
     0
 10
10.1231
 20
16.7928
 30
0.0
 11
11.0629
 21
15.8309
 31
0.0
  0
LINE
  8
0
 62
     0
 10
11.0629
 20
15.8309
 30
0.0
 11
11.8318
 21
14.8966
 31
0.0
  0
LINE
  8
0
 62
     0
 10
11.8318
 20
14.8966
 30
0.0
 11
12.3527
 21
14.0946
 31
0.0
  0
LINE
  8
0
 62
     0
 10
12.3527
 20
14.0946
 30
0.0
 11
12.5443
 21
13.5323
 31
0.0
  0
LINE
  8
0
 62
     0
 10
12.5443
 20
13.5323
 30
0.0
 11
12.7813
 21
12.6959
 31
0.0
  0
LINE
  8
0
 62
     0
 10
12.7813
 20
12.6959
 30
0.0
 11
13.4166
 21
11.6017
 31
0.0
  0
LINE
  8
0
 62
     0
 10
13.4166
 20
11.6017
 30
0.0
 11
14.3343
 21
10.3753
 31
0.0
  0
LINE
  8
0
 62
     0
 10
14.3343
 20
10.3753
 30
0.0
 11
15.4202
 21
9.13776
 31
0.0
  0
LINE
  8
0
 62
     0
 10
15.4202
 20
9.13776
 30
0.0
 11
16.5571
 21
8.0119
 31
0.0
  0
LINE
  8
0
 62
     0
 10
16.5571
 20
8.0119
 30
0.0
 11
17.6334
 21
7.12033
 31
0.0
  0
LINE
  8
0
 62
     0
 10
17.6334
 20
7.12033
 30
0.0
 11
18.5291
 21
6.58703
 31
0.0
  0
LINE
  8
0
 62
     0
 10
18.5291
 20
6.58703
 30
0.0
 11
19.1341
 21
6.53052
 31
0.0
  0
LINE
  8
0
 62
     0
 10
19.1341
 20
6.53052
 30
0.0
 11
19.3959
 21
6.46712
 31
0.0
  0
LINE
  8
0
 62
     0
 10
19.3959
 20
6.46712
 30
0.0
 11
19.7528
 21
6.10059
 31
0.0
  0
LINE
  8
0
 62
     0
 10
19.7528
 20
6.10059
 30
0.0
 11
20.1566
 21
5.49286
 31
0.0
  0
LINE
  8
0
 62
     0
 10
20.1566
 20
5.49286
 30
0.0
 11
20.5617
 21
4.70186
 31
0.0
  0
LINE
  8
0
 62
     0
 10
20.5617
 20
4.70186
 30
0.0
 11
21.0578
 21
3.53053
 31
0.0
  0
LINE
  8
0
 62
     0
 10
21.0578
 20
3.53053
 30
0.0
 11
21.1983
 21
2.84014
 31
0.0
  0
LINE
  8
0
 62
     0
 10
21.1983
 20
2.84014
 30
0.0
 11
20.9669
 21
2.42535
 31
0.0
  0
LINE
  8
0
 62
     0
 10
20.9669
 20
2.42535
 30
0.0
 11
20.344
 21
2.0767
 31
0.0
  0
LINE
  8
0
 62
     0
 10
20.344
 20
2.0767
 30
0.0
 11
19.5241
 21
1.47037
 31
0.0
  0
LINE
  8
0
 62
     0
 10
19.5241
 20
1.47037
 30
0.0
 11
19.1837
 21
0.768946
 31
0.0
  0
LINE
  8
0
 62
     0
 10
19.1837
 20
0.768946
 30
0.0
 11
18.8902
 21
0.225998
 31
0.0
  0
LINE
  8
0
 62
     0
 10
18.8902
 20
0.225998
 30
0.0
 11
18.1846
 21
0.00137804
 31
0.0
  0
LINE
  8
0
 62
     0
 10
18.1846
 20
0.00137804
 30
0.0
 11
17.6816
 21
0.0330729
 31
0.0
  0
LINE
  8
0
 62
     0
 10
17.6816
 20
0.0330729
 30
0.0
 11
17.5273
 21
0.173633
 31
0.0
  0
LINE
  8
0
 62
     0
 10
17.5273
 20
0.173633
 30
0.0
 11
17.7243
 21
0.489204
 31
0.0
  0
LINE
  8
0
 62
     0
 10
17.7243
 20
0.489204
 30
0.0
 11
18.2824
 21
1.05144
 31
0.0
  0
ENDSEC
  0
EOF
