  0
SECTION
  2
HEADER
  9
$ACADVER
  1
AC1009
  9
$EXTMIN
 10
0.0
 20
0.0
 30
0.0
  9
$EXTMAX
 10
1000.0
 20
1000.0
 30
0.0
  9
$FILLMODE
 70
 0
  9
$SPLFRAME
 70
 1
  0
ENDSEC
  0
SECTION
  2
TABLES
  0
TABLE
  2
LAYER
 70
1
  0
LAYER
  2
0
 70
     0
 62
     7
  6
CONTINUOUS
  0
ENDTAB
  0
ENDSEC
  0
SECTION
  2
ENTITIES
  0
LINE
  8
0
 62
     0
 10
26.807
 20
0.547081
 30
0.0
 11
26.7229
 21
0.945335
 31
0.0
  0
LINE
  8
0
 62
     0
 10
26.7229
 20
0.945335
 30
0.0
 11
26.5245
 21
1.1107
 31
0.0
  0
LINE
  8
0
 62
     0
 10
26.5245
 20
1.1107
 30
0.0
 11
26.3247
 21
1.24161
 31
0.0
  0
LINE
  8
0
 62
     0
 10
26.3247
 20
1.24161
 30
0.0
 11
26.242
 21
1.55305
 31
0.0
  0
LINE
  8
0
 62
     0
 10
26.242
 20
1.55305
 30
0.0
 11
26.1056
 21
1.85346
 31
0.0
  0
LINE
  8
0
 62
     0
 10
26.1056
 20
1.85346
 30
0.0
 11
25.6425
 21
1.80523
 31
0.0
  0
LINE
  8
0
 62
     0
 10
25.6425
 20
1.80523
 30
0.0
 11
25.2388
 21
1.74046
 31
0.0
  0
LINE
  8
0
 62
     0
 10
25.2388
 20
1.74046
 30
0.0
 11
25.236
 21
1.92925
 31
0.0
  0
LINE
  8
0
 62
     0
 10
25.236
 20
1.92925
 30
0.0
 11
25.2843
 21
2.14974
 31
0.0
  0
LINE
  8
0
 62
     0
 10
25.2843
 20
2.14974
 30
0.0
 11
25.1299
 21
2.24069
 31
0.0
  0
LINE
  8
0
 62
     0
 10
25.1299
 20
2.24069
 30
0.0
 11
24.9177
 21
2.41157
 31
0.0
  0
LINE
  8
0
 62
     0
 10
24.9177
 20
2.41157
 30
0.0
 11
24.8309
 21
2.82084
 31
0.0
  0
LINE
  8
0
 62
     0
 10
24.8309
 20
2.82084
 30
0.0
 11
24.7551
 21
3.23012
 31
0.0
  0
LINE
  8
0
 62
     0
 10
24.7551
 20
3.23012
 30
0.0
 11
24.5718
 21
3.22048
 31
0.0
  0
LINE
  8
0
 62
     0
 10
24.5718
 20
3.22048
 30
0.0
 11
24.343
 21
2.84978
 31
0.0
  0
LINE
  8
0
 62
     0
 10
24.343
 20
2.84978
 30
0.0
 11
24.1363
 21
2.1773
 31
0.0
  0
LINE
  8
0
 62
     0
 10
24.1363
 20
2.1773
 30
0.0
 11
23.9503
 21
1.62884
 31
0.0
  0
LINE
  8
0
 62
     0
 10
23.9503
 20
1.62884
 30
0.0
 11
23.7932
 21
1.60679
 31
0.0
  0
LINE
  8
0
 62
     0
 10
23.7932
 20
1.60679
 30
0.0
 11
23.6182
 21
1.81074
 31
0.0
  0
LINE
  8
0
 62
     0
 10
23.6182
 20
1.81074
 30
0.0
 11
23.3963
 21
1.80248
 31
0.0
  0
LINE
  8
0
 62
     0
 10
23.3963
 20
1.80248
 30
0.0
 11
23.2131
 21
1.77767
 31
0.0
  0
LINE
  8
0
 62
     0
 10
23.2131
 20
1.77767
 30
0.0
 11
23.1372
 21
1.94303
 31
0.0
  0
LINE
  8
0
 62
     0
 10
23.1372
 20
1.94303
 30
0.0
 11
23.2613
 21
2.15387
 31
0.0
  0
LINE
  8
0
 62
     0
 10
23.2613
 20
2.15387
 30
0.0
 11
23.5617
 21
2.24069
 31
0.0
  0
LINE
  8
0
 62
     0
 10
23.5617
 20
2.24069
 30
0.0
 11
23.8593
 21
2.37023
 31
0.0
  0
LINE
  8
0
 62
     0
 10
23.8593
 20
2.37023
 30
0.0
 11
23.9848
 21
2.68029
 31
0.0
  0
LINE
  8
0
 62
     0
 10
23.9848
 20
2.68029
 30
0.0
 11
23.9131
 21
2.94762
 31
0.0
  0
LINE
  8
0
 62
     0
 10
23.9131
 20
2.94762
 30
0.0
 11
23.7436
 21
2.97243
 31
0.0
  0
LINE
  8
0
 62
     0
 10
23.7436
 20
2.97243
 30
0.0
 11
23.6099
 21
3.06062
 31
0.0
  0
LINE
  8
0
 62
     0
 10
23.6099
 20
3.06062
 30
0.0
 11
23.6292
 21
3.48644
 31
0.0
  0
LINE
  8
0
 62
     0
 10
23.6292
 20
3.48644
 30
0.0
 11
23.6265
 21
4.01147
 31
0.0
  0
LINE
  8
0
 62
     0
 10
23.6265
 20
4.01147
 30
0.0
 11
23.4473
 21
4.34082
 31
0.0
  0
LINE
  8
0
 62
     0
 10
23.4473
 20
4.34082
 30
0.0
 11
23.2227
 21
4.32978
 31
0.0
  0
LINE
  8
0
 62
     0
 10
23.2227
 20
4.32978
 30
0.0
 11
23.1372
 21
3.99768
 31
0.0
  0
LINE
  8
0
 62
     0
 10
23.1372
 20
3.99768
 30
0.0
 11
22.9319
 21
3.46301
 31
0.0
  0
LINE
  8
0
 62
     0
 10
22.9319
 20
3.46301
 30
0.0
 11
22.4386
 21
3.07303
 31
0.0
  0
LINE
  8
0
 62
     0
 10
22.4386
 20
3.07303
 30
0.0
 11
21.8378
 21
2.91731
 31
0.0
  0
LINE
  8
0
 62
     0
 10
21.8378
 20
2.91731
 30
0.0
 11
21.3072
 21
3.08405
 31
0.0
  0
LINE
  8
0
 62
     0
 10
21.3072
 20
3.08405
 30
0.0
 11
21.0082
 21
3.49884
 31
0.0
  0
LINE
  8
0
 62
     0
 10
21.0082
 20
3.49884
 30
0.0
 11
21.3072
 21
4.11896
 31
0.0
  0
LINE
  8
0
 62
     0
 10
21.3072
 20
4.11896
 30
0.0
 11
21.6035
 21
4.70877
 31
0.0
  0
LINE
  8
0
 62
     0
 10
21.6035
 20
4.70877
 30
0.0
 11
21.3128
 21
4.95681
 31
0.0
  0
LINE
  8
0
 62
     0
 10
21.3128
 20
4.95681
 30
0.0
 11
20.8869
 21
5.02846
 31
0.0
  0
LINE
  8
0
 62
     0
 10
20.8869
 20
5.02846
 30
0.0
 11
20.4707
 21
4.96644
 31
0.0
  0
LINE
  8
0
 62
     0
 10
20.4707
 20
4.96644
 30
0.0
 11
20.2103
 21
4.94577
 31
0.0
  0
LINE
  8
0
 62
     0
 10
20.2103
 20
4.94577
 30
0.0
 11
20.191
 21
5.14837
 31
0.0
  0
LINE
  8
0
 62
     0
 10
20.191
 20
5.14837
 30
0.0
 11
20.067
 21
5.40466
 31
0.0
  0
LINE
  8
0
 62
     0
 10
20.067
 20
5.40466
 30
0.0
 11
19.4923
 21
5.5149
 31
0.0
  0
LINE
  8
0
 62
     0
 10
19.4923
 20
5.5149
 30
0.0
 11
18.7606
 21
5.68304
 31
0.0
  0
LINE
  8
0
 62
     0
 10
18.7606
 20
5.68304
 30
0.0
 11
18.1626
 21
6.04545
 31
0.0
  0
LINE
  8
0
 62
     0
 10
18.1626
 20
6.04545
 30
0.0
 11
17.8938
 21
6.3252
 31
0.0
  0
LINE
  8
0
 62
     0
 10
17.8938
 20
6.3252
 30
0.0
 11
17.818
 21
6.45061
 31
0.0
  0
LINE
  8
0
 62
     0
 10
17.818
 20
6.45061
 30
0.0
 11
17.9448
 21
6.45199
 31
0.0
  0
LINE
  8
0
 62
     0
 10
17.9448
 20
6.45199
 30
0.0
 11
18.2824
 21
6.35138
 31
0.0
  0
LINE
  8
0
 62
     0
 10
18.2824
 20
6.35138
 30
0.0
 11
18.7661
 21
6.29627
 31
0.0
  0
LINE
  8
0
 62
     0
 10
18.7661
 20
6.29627
 30
0.0
 11
18.9053
 21
6.59529
 31
0.0
  0
LINE
  8
0
 62
     0
 10
18.9053
 20
6.59529
 30
0.0
 11
18.7758
 21
6.90809
 31
0.0
  0
LINE
  8
0
 62
     0
 10
18.7758
 20
6.90809
 30
0.0
 11
18.4643
 21
7.03763
 31
0.0
  0
LINE
  8
0
 62
     0
 10
18.4643
 20
7.03763
 30
0.0
 11
18.2053
 21
7.12308
 31
0.0
  0
LINE
  8
0
 62
     0
 10
18.2053
 20
7.12308
 30
0.0
 11
18.2025
 21
7.32427
 31
0.0
  0
LINE
  8
0
 62
     0
 10
18.2025
 20
7.32427
 30
0.0
 11
18.4037
 21
7.47998
 31
0.0
  0
LINE
  8
0
 62
     0
 10
18.4037
 20
7.47998
 30
0.0
 11
18.6421
 21
7.44968
 31
0.0
  0
LINE
  8
0
 62
     0
 10
18.6421
 20
7.44968
 30
0.0
 11
18.8268
 21
7.45518
 31
0.0
  0
LINE
  8
0
 62
     0
 10
18.8268
 20
7.45518
 30
0.0
 11
18.9053
 21
7.69497
 31
0.0
  0
LINE
  8
0
 62
     0
 10
18.9053
 20
7.69497
 30
0.0
 11
18.6655
 21
8.01328
 31
0.0
  0
LINE
  8
0
 62
     0
 10
18.6655
 20
8.01328
 30
0.0
 11
18.0937
 21
8.2145
 31
0.0
  0
LINE
  8
0
 62
     0
 10
18.0937
 20
8.2145
 30
0.0
 11
17.4005
 21
8.2586
 31
0.0
  0
LINE
  8
0
 62
     0
 10
17.4005
 20
8.2586
 30
0.0
 11
16.8024
 21
8.10288
 31
0.0
  0
LINE
  8
0
 62
     0
 10
16.8024
 20
8.10288
 30
0.0
 11
16.4524
 21
7.82451
 31
0.0
  0
LINE
  8
0
 62
     0
 10
16.4524
 20
7.82451
 30
0.0
 11
16.3904
 21
7.5723
 31
0.0
  0
LINE
  8
0
 62
     0
 10
16.3904
 20
7.5723
 30
0.0
 11
16.5999
 21
7.39179
 31
0.0
  0
LINE
  8
0
 62
     0
 10
16.5999
 20
7.39179
 30
0.0
 11
17.0698
 21
7.32151
 31
0.0
  0
LINE
  8
0
 62
     0
 10
17.0698
 20
7.32151
 30
0.0
 11
17.5672
 21
7.23882
 31
0.0
  0
LINE
  8
0
 62
     0
 10
17.5672
 20
7.23882
 30
0.0
 11
17.7753
 21
7.03763
 31
0.0
  0
LINE
  8
0
 62
     0
 10
17.7753
 20
7.03763
 30
0.0
 11
17.6802
 21
6.8392
 31
0.0
  0
LINE
  8
0
 62
     0
 10
17.6802
 20
6.8392
 30
0.0
 11
17.4542
 21
6.75513
 31
0.0
  0
LINE
  8
0
 62
     0
 10
17.4542
 20
6.75513
 30
0.0
 11
17.1097
 21
6.61046
 31
0.0
  0
LINE
  8
0
 62
     0
 10
17.1097
 20
6.61046
 30
0.0
 11
16.7335
 21
6.26318
 31
0.0
  0
LINE
  8
0
 62
     0
 10
16.7335
 20
6.26318
 30
0.0
 11
16.4235
 21
5.94349
 31
0.0
  0
LINE
  8
0
 62
     0
 10
16.4235
 20
5.94349
 30
0.0
 11
16.5103
 21
6.40235
 31
0.0
  0
LINE
  8
0
 62
     0
 10
16.5103
 20
6.40235
 30
0.0
 11
16.5447
 21
6.89434
 31
0.0
  0
LINE
  8
0
 62
     0
 10
16.5447
 20
6.89434
 30
0.0
 11
16.2429
 21
7.03763
 31
0.0
  0
LINE
  8
0
 62
     0
 10
16.2429
 20
7.03763
 30
0.0
 11
15.9177
 21
7.10516
 31
0.0
  0
LINE
  8
0
 62
     0
 10
15.9177
 20
7.10516
 30
0.0
 11
15.8254
 21
7.31326
 31
0.0
  0
LINE
  8
0
 62
     0
 10
15.8254
 20
7.31326
 30
0.0
 11
15.9646
 21
7.67704
 31
0.0
  0
LINE
  8
0
 62
     0
 10
15.9646
 20
7.67704
 30
0.0
 11
16.3366
 21
8.20759
 31
0.0
  0
LINE
  8
0
 62
     0
 10
16.3366
 20
8.20759
 30
0.0
 11
16.7101
 21
8.86492
 31
0.0
  0
LINE
  8
0
 62
     0
 10
16.7101
 20
8.86492
 30
0.0
 11
16.4772
 21
9.42855
 31
0.0
  0
LINE
  8
0
 62
     0
 10
16.4772
 20
9.42855
 30
0.0
 11
16.2347
 21
9.90395
 31
0.0
  0
LINE
  8
0
 62
     0
 10
16.2347
 20
9.90395
 30
0.0
 11
16.4358
 21
10.192
 31
0.0
  0
LINE
  8
0
 62
     0
 10
16.4358
 20
10.192
 30
0.0
 11
16.491
 21
10.3601
 31
0.0
  0
LINE
  8
0
 62
     0
 10
16.491
 20
10.3601
 30
0.0
 11
16.0114
 21
10.4207
 31
0.0
  0
LINE
  8
0
 62
     0
 10
16.0114
 20
10.4207
 30
0.0
 11
15.3996
 21
10.5503
 31
0.0
  0
LINE
  8
0
 62
     0
 10
15.3996
 20
10.5503
 30
0.0
 11
15.2011
 21
10.9885
 31
0.0
  0
LINE
  8
0
 62
     0
 10
15.2011
 20
10.9885
 30
0.0
 11
15.1501
 21
11.6114
 31
0.0
  0
LINE
  8
0
 62
     0
 10
15.1501
 20
11.6114
 30
0.0
 11
15.0757
 21
11.9834
 31
0.0
  0
LINE
  8
0
 62
     0
 10
15.0757
 20
11.9834
 30
0.0
 11
14.9407
 21
12.2053
 31
0.0
  0
LINE
  8
0
 62
     0
 10
14.9407
 20
12.2053
 30
0.0
 11
14.7119
 21
12.3748
 31
0.0
  0
LINE
  8
0
 62
     0
 10
14.7119
 20
12.3748
 30
0.0
 11
14.4832
 21
12.7014
 31
0.0
  0
LINE
  8
0
 62
     0
 10
14.4832
 20
12.7014
 30
0.0
 11
14.5066
 21
13.1727
 31
0.0
  0
LINE
  8
0
 62
     0
 10
14.5066
 20
13.1727
 30
0.0
 11
14.5176
 21
13.7308
 31
0.0
  0
LINE
  8
0
 62
     0
 10
14.5176
 20
13.7308
 30
0.0
 11
14.2393
 21
14.1318
 31
0.0
  0
LINE
  8
0
 62
     0
 10
14.2393
 20
14.1318
 30
0.0
 11
13.7763
 21
14.2985
 31
0.0
  0
LINE
  8
0
 62
     0
 10
13.7763
 20
14.2985
 30
0.0
 11
13.2374
 21
14.1442
 31
0.0
  0
LINE
  8
0
 62
     0
 10
13.2374
 20
14.1442
 30
0.0
 11
12.7978
 21
13.9568
 31
0.0
  0
LINE
  8
0
 62
     0
 10
12.7978
 20
13.9568
 30
0.0
 11
12.6959
 21
14.2599
 31
0.0
  0
LINE
  8
0
 62
     0
 10
12.6959
 20
14.2599
 30
0.0
 11
12.5402
 21
14.9076
 31
0.0
  0
LINE
  8
0
 62
     0
 10
12.5402
 20
14.9076
 30
0.0
 11
12.1598
 21
15.5911
 31
0.0
  0
LINE
  8
0
 62
     0
 10
12.1598
 20
15.5911
 30
0.0
 11
11.6789
 21
16.1327
 31
0.0
  0
LINE
  8
0
 62
     0
 10
11.6789
 20
16.1327
 30
0.0
 11
11.2241
 21
16.3518
 31
0.0
  0
LINE
  8
0
 62
     0
 10
11.2241
 20
16.3518
 30
0.0
 11
10.8645
 21
16.4565
 31
0.0
  0
LINE
  8
0
 62
     0
 10
10.8645
 20
16.4565
 30
0.0
 11
10.7115
 21
16.7046
 31
0.0
  0
LINE
  8
0
 62
     0
 10
10.7115
 20
16.7046
 30
0.0
 11
10.5847
 21
16.7983
 31
0.0
  0
LINE
  8
0
 62
     0
 10
10.5847
 20
16.7983
 30
0.0
 11
10.2884
 21
16.5103
 31
0.0
  0
LINE
  8
0
 62
     0
 10
10.2884
 20
16.5103
 30
0.0
 11
10.0211
 21
16.2016
 31
0.0
  0
LINE
  8
0
 62
     0
 10
10.0211
 20
16.2016
 30
0.0
 11
9.88053
 21
16.2168
 31
0.0
  0
LINE
  8
0
 62
     0
 10
9.88053
 20
16.2168
 30
0.0
 11
9.83643
 21
16.6205
 31
0.0
  0
LINE
  8
0
 62
     0
 10
9.83643
 20
16.6205
 30
0.0
 11
9.85986
 21
17.4804
 31
0.0
  0
LINE
  8
0
 62
     0
 10
9.85986
 20
17.4804
 30
0.0
 11
9.76066
 21
18.3251
 31
0.0
  0
LINE
  8
0
 62
     0
 10
9.76066
 20
18.3251
 30
0.0
 11
9.32244
 21
18.8226
 31
0.0
  0
LINE
  8
0
 62
     0
 10
9.32244
 20
18.8226
 30
0.0
 11
8.84287
 21
19.0224
 31
0.0
  0
LINE
  8
0
 62
     0
 10
8.84287
 20
19.0224
 30
0.0
 11
8.74504
 21
18.6118
 31
0.0
  0
LINE
  8
0
 62
     0
 10
8.74504
 20
18.6118
 30
0.0
 11
8.62101
 21
18.2108
 31
0.0
  0
LINE
  8
0
 62
     0
 10
8.62101
 20
18.2108
 30
0.0
 11
8.32196
 21
18.044
 31
0.0
  0
LINE
  8
0
 62
     0
 10
8.32196
 20
18.044
 30
0.0
 11
8.0312
 21
18.1198
 31
0.0
  0
LINE
  8
0
 62
     0
 10
8.0312
 20
18.1198
 30
0.0
 11
7.90857
 21
18.299
 31
0.0
  0
LINE
  8
0
 62
     0
 10
7.90857
 20
18.299
 30
0.0
 11
7.96643
 21
18.5057
 31
0.0
  0
LINE
  8
0
 62
     0
 10
7.96643
 20
18.5057
 30
0.0
 11
8.21863
 21
18.6697
 31
0.0
  0
LINE
  8
0
 62
     0
 10
8.21863
 20
18.6697
 30
0.0
 11
8.21863
 21
18.8929
 31
0.0
  0
LINE
  8
0
 62
     0
 10
8.21863
 20
18.8929
 30
0.0
 11
7.77074
 21
19.2787
 31
0.0
  0
LINE
  8
0
 62
     0
 10
7.77074
 20
19.2787
 30
0.0
 11
7.26641
 21
19.5943
 31
0.0
  0
LINE
  8
0
 62
     0
 10
7.26641
 20
19.5943
 30
0.0
 11
6.98115
 21
19.6591
 31
0.0
  0
LINE
  8
0
 62
     0
 10
6.98115
 20
19.6591
 30
0.0
 11
6.80477
 21
19.4386
 31
0.0
  0
LINE
  8
0
 62
     0
 10
6.80477
 20
19.4386
 30
0.0
 11
6.62563
 21
18.8915
 31
0.0
  0
LINE
  8
0
 62
     0
 10
6.62563
 20
18.8915
 30
0.0
 11
6.51122
 21
18.4947
 31
0.0
  0
LINE
  8
0
 62
     0
 10
6.51122
 20
18.4947
 30
0.0
 11
6.51538
 21
18.3431
 31
0.0
  0
LINE
  8
0
 62
     0
 10
6.51538
 20
18.3431
 30
0.0
 11
6.66972
 21
18.4258
 31
0.0
  0
LINE
  8
0
 62
     0
 10
6.66972
 20
18.4258
 30
0.0
 11
7.01421
 21
18.7234
 31
0.0
  0
LINE
  8
0
 62
     0
 10
7.01421
 20
18.7234
 30
0.0
 11
7.43864
 21
19.0431
 31
0.0
  0
LINE
  8
0
 62
     0
 10
7.43864
 20
19.0431
 30
0.0
 11
7.6164
 21
19.0555
 31
0.0
  0
LINE
  8
0
 62
     0
 10
7.6164
 20
19.0555
 30
0.0
 11
7.52546
 21
18.8323
 31
0.0
  0
LINE
  8
0
 62
     0
 10
7.52546
 20
18.8323
 30
0.0
 11
7.2843
 21
18.5511
 31
0.0
  0
LINE
  8
0
 62
     0
 10
7.2843
 20
18.5511
 30
0.0
 11
6.93981
 21
18.2438
 31
0.0
  0
LINE
  8
0
 62
     0
 10
6.93981
 20
18.2438
 30
0.0
 11
6.53464
 21
17.9407
 31
0.0
  0
LINE
  8
0
 62
     0
 10
6.53464
 20
17.9407
 30
0.0
 11
6.1171
 21
17.6761
 31
0.0
  0
LINE
  8
0
 62
     0
 10
6.1171
 20
17.6761
 30
0.0
 11
5.72989
 21
17.479
 31
0.0
  0
LINE
  8
0
 62
     0
 10
5.72989
 20
17.479
 30
0.0
 11
5.42121
 21
17.3798
 31
0.0
  0
LINE
  8
0
 62
     0
 10
5.42121
 20
17.3798
 30
0.0
 11
5.23656
 21
17.4129
 31
0.0
  0
LINE
  8
0
 62
     0
 10
5.23656
 20
17.4129
 30
0.0
 11
5.29442
 21
17.6995
 31
0.0
  0
LINE
  8
0
 62
     0
 10
5.29442
 20
17.6995
 30
0.0
 11
5.69817
 21
18.1267
 31
0.0
  0
LINE
  8
0
 62
     0
 10
5.69817
 20
18.1267
 30
0.0
 11
6.10059
 21
18.5581
 31
0.0
  0
LINE
  8
0
 62
     0
 10
6.10059
 20
18.5581
 30
0.0
 11
5.99309
 21
18.795
 31
0.0
  0
LINE
  8
0
 62
     0
 10
5.99309
 20
18.795
 30
0.0
 11
5.72022
 21
19.0293
 31
0.0
  0
LINE
  8
0
 62
     0
 10
5.72022
 20
19.0293
 30
0.0
 11
5.64995
 21
19.3435
 31
0.0
  0
LINE
  8
0
 62
     0
 10
5.64995
 20
19.3435
 30
0.0
 11
5.77398
 21
19.6205
 31
0.0
  0
LINE
  8
0
 62
     0
 10
5.77398
 20
19.6205
 30
0.0
 11
6.07991
 21
19.7376
 31
0.0
  0
LINE
  8
0
 62
     0
 10
6.07991
 20
19.7376
 30
0.0
 11
6.33899
 21
19.8217
 31
0.0
  0
LINE
  8
0
 62
     0
 10
6.33899
 20
19.8217
 30
0.0
 11
6.34587
 21
20.0229
 31
0.0
  0
LINE
  8
0
 62
     0
 10
6.34587
 20
20.0229
 30
0.0
 11
6.07025
 21
20.1566
 31
0.0
  0
LINE
  8
0
 62
     0
 10
6.07025
 20
20.1566
 30
0.0
 11
5.60172
 21
19.9995
 31
0.0
  0
LINE
  8
0
 62
     0
 10
5.60172
 20
19.9995
 30
0.0
 11
5.08081
 21
19.83
 31
0.0
  0
LINE
  8
0
 62
     0
 10
5.08081
 20
19.83
 30
0.0
 11
4.63021
 21
19.8479
 31
0.0
  0
LINE
  8
0
 62
     0
 10
4.63021
 20
19.8479
 30
0.0
 11
4.33257
 21
20.0945
 31
0.0
  0
LINE
  8
0
 62
     0
 10
4.33257
 20
20.0945
 30
0.0
 11
4.23884
 21
20.4349
 31
0.0
  0
LINE
  8
0
 62
     0
 10
4.23884
 20
20.4349
 30
0.0
 11
4.34633
 21
20.7367
 31
0.0
  0
LINE
  8
0
 62
     0
 10
4.34633
 20
20.7367
 30
0.0
 11
4.65226
 21
20.8662
 31
0.0
  0
LINE
  8
0
 62
     0
 10
4.65226
 20
20.8662
 30
0.0
 11
4.93476
 21
20.9558
 31
0.0
  0
LINE
  8
0
 62
     0
 10
4.93476
 20
20.9558
 30
0.0
 11
5.05464
 21
21.1998
 31
0.0
  0
LINE
  8
0
 62
     0
 10
5.05464
 20
21.1998
 30
0.0
 11
5.00641
 21
21.5594
 31
0.0
  0
LINE
  8
0
 62
     0
 10
5.00641
 20
21.5594
 30
0.0
 11
4.78868
 21
21.9963
 31
0.0
  0
LINE
  8
0
 62
     0
 10
4.78868
 20
21.9963
 30
0.0
 11
4.51033
 21
22.2801
 31
0.0
  0
LINE
  8
0
 62
     0
 10
4.51033
 20
22.2801
 30
0.0
 11
4.23333
 21
21.9963
 31
0.0
  0
LINE
  8
0
 62
     0
 10
4.23333
 20
21.9963
 30
0.0
 11
4.03352
 21
21.7813
 31
0.0
  0
LINE
  8
0
 62
     0
 10
4.03352
 20
21.7813
 30
0.0
 11
3.9467
 21
21.8543
 31
0.0
  0
LINE
  8
0
 62
     0
 10
3.9467
 20
21.8543
 30
0.0
 11
3.83371
 21
21.8474
 31
0.0
  0
LINE
  8
0
 62
     0
 10
3.83371
 20
21.8474
 30
0.0
 11
3.576
 21
21.4326
 31
0.0
  0
LINE
  8
0
 62
     0
 10
3.576
 20
21.4326
 30
0.0
 11
3.3693
 21
20.756
 31
0.0
  0
LINE
  8
0
 62
     0
 10
3.3693
 20
20.756
 30
0.0
 11
3.3321
 21
20.0697
 31
0.0
  0
LINE
  8
0
 62
     0
 10
3.3321
 20
20.0697
 30
0.0
 11
3.44372
 21
19.6508
 31
0.0
  0
LINE
  8
0
 62
     0
 10
3.44372
 20
19.6508
 30
0.0
 11
3.68762
 21
19.7749
 31
0.0
  0
LINE
  8
0
 62
     0
 10
3.68762
 20
19.7749
 30
0.0
 11
3.93569
 21
20.0326
 31
0.0
  0
LINE
  8
0
 62
     0
 10
3.93569
 20
20.0326
 30
0.0
 11
4.09141
 21
19.9526
 31
0.0
  0
LINE
  8
0
 62
     0
 10
4.09141
 20
19.9526
 30
0.0
 11
4.10792
 21
19.6343
 31
0.0
  0
LINE
  8
0
 62
     0
 10
4.10792
 20
19.6343
 30
0.0
 11
3.9467
 21
19.174
 31
0.0
  0
LINE
  8
0
 62
     0
 10
3.9467
 20
19.174
 30
0.0
 11
3.76343
 21
18.6931
 31
0.0
  0
LINE
  8
0
 62
     0
 10
3.76343
 20
18.6931
 30
0.0
 11
3.78273
 21
18.3968
 31
0.0
  0
LINE
  8
0
 62
     0
 10
3.78273
 20
18.3968
 30
0.0
 11
3.89848
 21
18.3775
 31
0.0
  0
LINE
  8
0
 62
     0
 10
3.89848
 20
18.3775
 30
0.0
 11
3.9467
 21
18.5622
 31
0.0
  0
LINE
  8
0
 62
     0
 10
3.9467
 20
18.5622
 30
0.0
 11
4.02664
 21
18.795
 31
0.0
  0
LINE
  8
0
 62
     0
 10
4.02664
 20
18.795
 30
0.0
 11
4.21954
 21
18.8915
 31
0.0
  0
LINE
  8
0
 62
     0
 10
4.21954
 20
18.8915
 30
0.0
 11
4.36563
 21
18.7675
 31
0.0
  0
LINE
  8
0
 62
     0
 10
4.36563
 20
18.7675
 30
0.0
 11
4.33116
 21
18.4685
 31
0.0
  0
LINE
  8
0
 62
     0
 10
4.33116
 20
18.4685
 30
0.0
 11
4.1093
 21
18.1929
 31
0.0
  0
LINE
  8
0
 62
     0
 10
4.1093
 20
18.1929
 30
0.0
 11
3.79099
 21
18.0551
 31
0.0
  0
LINE
  8
0
 62
     0
 10
3.79099
 20
18.0551
 30
0.0
 11
3.50573
 21
18.0812
 31
0.0
  0
LINE
  8
0
 62
     0
 10
3.50573
 20
18.0812
 30
0.0
 11
3.38308
 21
18.2935
 31
0.0
  0
LINE
  8
0
 62
     0
 10
3.38308
 20
18.2935
 30
0.0
 11
3.21634
 21
18.514
 31
0.0
  0
LINE
  8
0
 62
     0
 10
3.21634
 20
18.514
 30
0.0
 11
2.81809
 21
18.6903
 31
0.0
  0
LINE
  8
0
 62
     0
 10
2.81809
 20
18.6903
 30
0.0
 11
2.43086
 21
18.8832
 31
0.0
  0
LINE
  8
0
 62
     0
 10
2.43086
 20
18.8832
 30
0.0
 11
2.26687
 21
19.1382
 31
0.0
  0
LINE
  8
0
 62
     0
 10
2.26687
 20
19.1382
 30
0.0
 11
2.34267
 21
19.3601
 31
0.0
  0
LINE
  8
0
 62
     0
 10
2.34267
 20
19.3601
 30
0.0
 11
2.67753
 21
19.4551
 31
0.0
  0
LINE
  8
0
 62
     0
 10
2.67753
 20
19.4551
 30
0.0
 11
2.97656
 21
19.6205
 31
0.0
  0
LINE
  8
0
 62
     0
 10
2.97656
 20
19.6205
 30
0.0
 11
3.10058
 21
20.0215
 31
0.0
  0
LINE
  8
0
 62
     0
 10
3.10058
 20
20.0215
 30
0.0
 11
3.01653
 21
20.4198
 31
0.0
  0
LINE
  8
0
 62
     0
 10
3.01653
 20
20.4198
 30
0.0
 11
2.81809
 21
20.5851
 31
0.0
  0
LINE
  8
0
 62
     0
 10
2.81809
 20
20.5851
 30
0.0
 11
2.61827
 21
20.5025
 31
0.0
  0
LINE
  8
0
 62
     0
 10
2.61827
 20
20.5025
 30
0.0
 11
2.53559
 21
20.3026
 31
0.0
  0
LINE
  8
0
 62
     0
 10
2.53559
 20
20.3026
 30
0.0
 11
2.44326
 21
20.1042
 31
0.0
  0
LINE
  8
0
 62
     0
 10
2.44326
 20
20.1042
 30
0.0
 11
2.22278
 21
20.0215
 31
0.0
  0
LINE
  8
0
 62
     0
 10
2.22278
 20
20.0215
 30
0.0
 11
2.04088
 21
20.2076
 31
0.0
  0
LINE
  8
0
 62
     0
 10
2.04088
 20
20.2076
 30
0.0
 11
2.08221
 21
20.7078
 31
0.0
  0
LINE
  8
0
 62
     0
 10
2.08221
 20
20.7078
 30
0.0
 11
2.11942
 21
21.248
 31
0.0
  0
LINE
  8
0
 62
     0
 10
2.11942
 20
21.248
 30
0.0
 11
1.96784
 21
21.5746
 31
0.0
  0
LINE
  8
0
 62
     0
 10
1.96784
 20
21.5746
 30
0.0
 11
1.82039
 21
21.7923
 31
0.0
  0
LINE
  8
0
 62
     0
 10
1.82039
 20
21.7923
 30
0.0
 11
1.87275
 21
22.0652
 31
0.0
  0
LINE
  8
0
 62
     0
 10
1.87275
 20
22.0652
 30
0.0
 11
2.07808
 21
22.1093
 31
0.0
  0
LINE
  8
0
 62
     0
 10
2.07808
 20
22.1093
 30
0.0
 11
2.30821
 21
21.7138
 31
0.0
  0
LINE
  8
0
 62
     0
 10
2.30821
 20
21.7138
 30
0.0
 11
2.57418
 21
21.2976
 31
0.0
  0
LINE
  8
0
 62
     0
 10
2.57418
 20
21.2976
 30
0.0
 11
2.85254
 21
21.3637
 31
0.0
  0
LINE
  8
0
 62
     0
 10
2.85254
 20
21.3637
 30
0.0
 11
3.1061
 21
21.875
 31
0.0
  0
LINE
  8
0
 62
     0
 10
3.1061
 20
21.875
 30
0.0
 11
3.29902
 21
22.7914
 31
0.0
  0
LINE
  8
0
 62
     0
 10
3.29902
 20
22.7914
 30
0.0
 11
3.36379
 21
23.4018
 31
0.0
  0
LINE
  8
0
 62
     0
 10
3.36379
 20
23.4018
 30
0.0
 11
3.33761
 21
23.7284
 31
0.0
  0
LINE
  8
0
 62
     0
 10
3.33761
 20
23.7284
 30
0.0
 11
3.19154
 21
23.8373
 31
0.0
  0
LINE
  8
0
 62
     0
 10
3.19154
 20
23.8373
 30
0.0
 11
2.90353
 21
23.7932
 31
0.0
  0
LINE
  8
0
 62
     0
 10
2.90353
 20
23.7932
 30
0.0
 11
2.6169
 21
23.7574
 31
0.0
  0
LINE
  8
0
 62
     0
 10
2.6169
 20
23.7574
 30
0.0
 11
2.45153
 21
23.8718
 31
0.0
  0
LINE
  8
0
 62
     0
 10
2.45153
 20
23.8718
 30
0.0
 11
2.37712
 21
24.1915
 31
0.0
  0
LINE
  8
0
 62
     0
 10
2.37712
 20
24.1915
 30
0.0
 11
2.36196
 21
24.7716
 31
0.0
  0
LINE
  8
0
 62
     0
 10
2.36196
 20
24.7716
 30
0.0
 11
2.27239
 21
25.6963
 31
0.0
  0
LINE
  8
0
 62
     0
 10
2.27239
 20
25.6963
 30
0.0
 11
2.01194
 21
26.3164
 31
0.0
  0
LINE
  8
0
 62
     0
 10
2.01194
 20
26.3164
 30
0.0
 11
1.60817
 21
26.5948
 31
0.0
  0
LINE
  8
0
 62
     0
 10
1.60817
 20
26.5948
 30
0.0
 11
1.08865
 21
26.4928
 31
0.0
  0
LINE
  8
0
 62
     0
 10
1.08865
 20
26.4928
 30
0.0
 11
0.644924
 21
26.3385
 31
0.0
  0
LINE
  8
0
 62
     0
 10
0.644924
 20
26.3385
 30
0.0
 11
0.300412
 21
26.3812
 31
0.0
  0
LINE
  8
0
 62
     0
 10
0.300412
 20
26.3812
 30
0.0
 11
0.0757922
 21
26.614
 31
0.0
  0
LINE
  8
0
 62
     0
 10
0.0757922
 20
26.614
 30
0.0
 11
0
 21
27.022
 31
0.0
  0
LINE
  8
0
 62
     0
 10
0
 20
27.022
 30
0.0
 11
0.0509873
 21
27.3334
 31
0.0
  0
LINE
  8
0
 62
     0
 10
0.0509873
 20
27.3334
 30
0.0
 11
0.260449
 21
27.0936
 31
0.0
  0
LINE
  8
0
 62
     0
 10
0.260449
 20
27.0936
 30
0.0
 11
0.556729
 21
26.8304
 31
0.0
  0
LINE
  8
0
 62
     0
 10
0.556729
 20
26.8304
 30
0.0
 11
1.00735
 21
27.0936
 31
0.0
  0
LINE
  8
0
 62
     0
 10
1.00735
 20
27.0936
 30
0.0
 11
1.58612
 21
27.3995
 31
0.0
  0
LINE
  8
0
 62
     0
 10
1.58612
 20
27.3995
 30
0.0
 11
2.25447
 21
27.4808
 31
0.0
  0
LINE
  8
0
 62
     0
 10
2.25447
 20
27.4808
 30
0.0
 11
2.91042
 21
27.3458
 31
0.0
  0
LINE
  8
0
 62
     0
 10
2.91042
 20
27.3458
 30
0.0
 11
3.45888
 21
26.9944
 31
0.0
  0
LINE
  8
0
 62
     0
 10
3.45888
 20
26.9944
 30
0.0
 11
3.88606
 21
26.6816
 31
0.0
  0
LINE
  8
0
 62
     0
 10
3.88606
 20
26.6816
 30
0.0
 11
4.19887
 21
26.6333
 31
0.0
  0
LINE
  8
0
 62
     0
 10
4.19887
 20
26.6333
 30
0.0
 11
4.32153
 21
26.53
 31
0.0
  0
LINE
  8
0
 62
     0
 10
4.32153
 20
26.53
 30
0.0
 11
4.29673
 21
26.0794
 31
0.0
  0
LINE
  8
0
 62
     0
 10
4.29673
 20
26.0794
 30
0.0
 11
4.29535
 21
25.5405
 31
0.0
  0
LINE
  8
0
 62
     0
 10
4.29535
 20
25.5405
 30
0.0
 11
4.62195
 21
25.3821
 31
0.0
  0
LINE
  8
0
 62
     0
 10
4.62195
 20
25.3821
 30
0.0
 11
5.12078
 21
25.1795
 31
0.0
  0
LINE
  8
0
 62
     0
 10
5.12078
 20
25.1795
 30
0.0
 11
5.68304
 21
24.6889
 31
0.0
  0
LINE
  8
0
 62
     0
 10
5.68304
 20
24.6889
 30
0.0
 11
6.27144
 21
24.1915
 31
0.0
  0
LINE
  8
0
 62
     0
 10
6.27144
 20
24.1915
 30
0.0
 11
6.82265
 21
24.2824
 31
0.0
  0
LINE
  8
0
 62
     0
 10
6.82265
 20
24.2824
 30
0.0
 11
7.17268
 21
24.6228
 31
0.0
  0
LINE
  8
0
 62
     0
 10
7.17268
 20
24.6228
 30
0.0
 11
7.21265
 21
25.0486
 31
0.0
  0
LINE
  8
0
 62
     0
 10
7.21265
 20
25.0486
 30
0.0
 11
7.19473
 21
25.5089
 31
0.0
  0
LINE
  8
0
 62
     0
 10
7.19473
 20
25.5089
 30
0.0
 11
7.36148
 21
25.9471
 31
0.0
  0
LINE
  8
0
 62
     0
 10
7.36148
 20
25.9471
 30
0.0
 11
7.58747
 21
26.2296
 31
0.0
  0
LINE
  8
0
 62
     0
 10
7.58747
 20
26.2296
 30
0.0
 11
7.53375
 21
25.9471
 31
0.0
  0
LINE
  8
0
 62
     0
 10
7.53375
 20
25.9471
 30
0.0
 11
7.52133
 21
25.5034
 31
0.0
  0
LINE
  8
0
 62
     0
 10
7.52133
 20
25.5034
 30
0.0
 11
7.66604
 21
25.0252
 31
0.0
  0
LINE
  8
0
 62
     0
 10
7.66604
 20
25.0252
 30
0.0
 11
7.76249
 21
24.6035
 31
0.0
  0
LINE
  8
0
 62
     0
 10
7.76249
 20
24.6035
 30
0.0
 11
7.4869
 21
24.3596
 31
0.0
  0
LINE
  8
0
 62
     0
 10
7.4869
 20
24.3596
 30
0.0
 11
7.09277
 21
23.9352
 31
0.0
  0
LINE
  8
0
 62
     0
 10
7.09277
 20
23.9352
 30
0.0
 11
7.89753
 21
23.4074
 31
0.0
  0
LINE
  8
0
 62
     0
 10
7.89753
 20
23.4074
 30
0.0
 11
8.49559
 21
23.0876
 31
0.0
  0
LINE
  8
0
 62
     0
 10
8.49559
 20
23.0876
 30
0.0
 11
8.74504
 21
22.8079
 31
0.0
  0
LINE
  8
0
 62
     0
 10
8.74504
 20
22.8079
 30
0.0
 11
8.85941
 21
22.6329
 31
0.0
  0
LINE
  8
0
 62
     0
 10
8.85941
 20
22.6329
 30
0.0
 11
9.13776
 21
22.5599
 31
0.0
  0
LINE
  8
0
 62
     0
 10
9.13776
 20
22.5599
 30
0.0
 11
9.69176
 21
22.0913
 31
0.0
  0
LINE
  8
0
 62
     0
 10
9.69176
 20
22.0913
 30
0.0
 11
9.87365
 21
20.6499
 31
0.0
  0
LINE
  8
0
 62
     0
 10
9.87365
 20
20.6499
 30
0.0
 11
10.039
 21
19.6219
 31
0.0
  0
LINE
  8
0
 62
     0
 10
10.039
 20
19.6219
 30
0.0
 11
10.4414
 21
18.4892
 31
0.0
  0
LINE
  8
0
 62
     0
 10
10.4414
 20
18.4892
 30
0.0
 11
10.9402
 21
17.5755
 31
0.0
  0
LINE
  8
0
 62
     0
 10
10.9402
 20
17.5755
 30
0.0
 11
11.395
 21
17.1993
 31
0.0
  0
LINE
  8
0
 62
     0
 10
11.395
 20
17.1993
 30
0.0
 11
11.9187
 21
16.9085
 31
0.0
  0
LINE
  8
0
 62
     0
 10
11.9187
 20
16.9085
 30
0.0
 11
12.6959
 21
16.2099
 31
0.0
  0
LINE
  8
0
 62
     0
 10
12.6959
 20
16.2099
 30
0.0
 11
13.6302
 21
15.4533
 31
0.0
  0
LINE
  8
0
 62
     0
 10
13.6302
 20
15.4533
 30
0.0
 11
14.5149
 21
15.2149
 31
0.0
  0
LINE
  8
0
 62
     0
 10
14.5149
 20
15.2149
 30
0.0
 11
15.2687
 21
15.0992
 31
0.0
  0
LINE
  8
0
 62
     0
 10
15.2687
 20
15.0992
 30
0.0
 11
16.1506
 21
14.796
 31
0.0
  0
LINE
  8
0
 62
     0
 10
16.1506
 20
14.796
 30
0.0
 11
17.0835
 21
14.3564
 31
0.0
  0
LINE
  8
0
 62
     0
 10
17.0835
 20
14.3564
 30
0.0
 11
17.9944
 21
13.8259
 31
0.0
  0
LINE
  8
0
 62
     0
 10
17.9944
 20
13.8259
 30
0.0
 11
18.8047
 21
13.2553
 31
0.0
  0
LINE
  8
0
 62
     0
 10
18.8047
 20
13.2553
 30
0.0
 11
19.44
 21
12.6904
 31
0.0
  0
LINE
  8
0
 62
     0
 10
19.44
 20
12.6904
 30
0.0
 11
19.8258
 21
12.1833
 31
0.0
  0
LINE
  8
0
 62
     0
 10
19.8258
 20
12.1833
 30
0.0
 11
19.8851
 21
11.7781
 31
0.0
  0
LINE
  8
0
 62
     0
 10
19.8851
 20
11.7781
 30
0.0
 11
19.8493
 21
11.2241
 31
0.0
  0
LINE
  8
0
 62
     0
 10
19.8493
 20
11.2241
 30
0.0
 11
20.0353
 21
10.593
 31
0.0
  0
LINE
  8
0
 62
     0
 10
20.0353
 20
10.593
 30
0.0
 11
20.3564
 21
10.0748
 31
0.0
  0
LINE
  8
0
 62
     0
 10
20.3564
 20
10.0748
 30
0.0
 11
20.7326
 21
9.85986
 31
0.0
  0
LINE
  8
0
 62
     0
 10
20.7326
 20
9.85986
 30
0.0
 11
21.0358
 21
9.70414
 31
0.0
  0
LINE
  8
0
 62
     0
 10
21.0358
 20
9.70414
 30
0.0
 11
21.1625
 21
9.32794
 31
0.0
  0
LINE
  8
0
 62
     0
 10
21.1625
 20
9.32794
 30
0.0
 11
21.3265
 21
8.91039
 31
0.0
  0
LINE
  8
0
 62
     0
 10
21.3265
 20
8.91039
 30
0.0
 11
21.7275
 21
8.64994
 31
0.0
  0
LINE
  8
0
 62
     0
 10
21.7275
 20
8.64994
 30
0.0
 11
22.1492
 21
8.64306
 31
0.0
  0
LINE
  8
0
 62
     0
 10
22.1492
 20
8.64306
 30
0.0
 11
22.2911
 21
8.91589
 31
0.0
  0
LINE
  8
0
 62
     0
 10
22.2911
 20
8.91589
 30
0.0
 11
22.3738
 21
9.15705
 31
0.0
  0
LINE
  8
0
 62
     0
 10
22.3738
 20
9.15705
 30
0.0
 11
22.5737
 21
9.1543
 31
0.0
  0
LINE
  8
0
 62
     0
 10
22.5737
 20
9.1543
 30
0.0
 11
22.7721
 21
8.67336
 31
0.0
  0
LINE
  8
0
 62
     0
 10
22.7721
 20
8.67336
 30
0.0
 11
22.8562
 21
7.75836
 31
0.0
  0
LINE
  8
0
 62
     0
 10
22.8562
 20
7.75836
 30
0.0
 11
22.7183
 21
6.73446
 31
0.0
  0
LINE
  8
0
 62
     0
 10
22.7183
 20
6.73446
 30
0.0
 11
22.3655
 21
5.92007
 31
0.0
  0
LINE
  8
0
 62
     0
 10
22.3655
 20
5.92007
 30
0.0
 11
21.8929
 21
5.4598
 31
0.0
  0
LINE
  8
0
 62
     0
 10
21.8929
 20
5.4598
 30
0.0
 11
21.3927
 21
5.49423
 31
0.0
  0
LINE
  8
0
 62
     0
 10
21.3927
 20
5.49423
 30
0.0
 11
21.2604
 21
5.55212
 31
0.0
  0
LINE
  8
0
 62
     0
 10
21.2604
 20
5.55212
 30
0.0
 11
21.5015
 21
5.29992
 31
0.0
  0
LINE
  8
0
 62
     0
 10
21.5015
 20
5.29992
 30
0.0
 11
21.8598
 21
4.87962
 31
0.0
  0
LINE
  8
0
 62
     0
 10
21.8598
 20
4.87962
 30
0.0
 11
22.0086
 21
4.52272
 31
0.0
  0
LINE
  8
0
 62
     0
 10
22.0086
 20
4.52272
 30
0.0
 11
22.0913
 21
4.30636
 31
0.0
  0
LINE
  8
0
 62
     0
 10
22.0913
 20
4.30636
 30
0.0
 11
22.2911
 21
4.21541
 31
0.0
  0
LINE
  8
0
 62
     0
 10
22.2911
 20
4.21541
 30
0.0
 11
22.5737
 21
4.44419
 31
0.0
  0
LINE
  8
0
 62
     0
 10
22.5737
 20
4.44419
 30
0.0
 11
22.7032
 21
4.76663
 31
0.0
  0
LINE
  8
0
 62
     0
 10
22.7032
 20
4.76663
 30
0.0
 11
23.0174
 21
5.22139
 31
0.0
  0
LINE
  8
0
 62
     0
 10
23.0174
 20
5.22139
 30
0.0
 11
23.282
 21
5.51078
 31
0.0
  0
LINE
  8
0
 62
     0
 10
23.282
 20
5.51078
 30
0.0
 11
23.2958
 21
5.435
 31
0.0
  0
LINE
  8
0
 62
     0
 10
23.2958
 20
5.435
 30
0.0
 11
23.2682
 21
5.14421
 31
0.0
  0
LINE
  8
0
 62
     0
 10
23.2682
 20
5.14421
 30
0.0
 11
23.4404
 21
4.90859
 31
0.0
  0
LINE
  8
0
 62
     0
 10
23.4404
 20
4.90859
 30
0.0
 11
23.6513
 21
5.02708
 31
0.0
  0
LINE
  8
0
 62
     0
 10
23.6513
 20
5.02708
 30
0.0
 11
23.6595
 21
5.78362
 31
0.0
  0
LINE
  8
0
 62
     0
 10
23.6595
 20
5.78362
 30
0.0
 11
23.6843
 21
6.60217
 31
0.0
  0
LINE
  8
0
 62
     0
 10
23.6843
 20
6.60217
 30
0.0
 11
23.9172
 21
6.97011
 31
0.0
  0
LINE
  8
0
 62
     0
 10
23.9172
 20
6.97011
 30
0.0
 11
24.1653
 21
6.89846
 31
0.0
  0
LINE
  8
0
 62
     0
 10
24.1653
 20
6.89846
 30
0.0
 11
24.2673
 21
6.55394
 31
0.0
  0
LINE
  8
0
 62
     0
 10
24.2673
 20
6.55394
 30
0.0
 11
24.3499
 21
6.13777
 31
0.0
  0
LINE
  8
0
 62
     0
 10
24.3499
 20
6.13777
 30
0.0
 11
24.5649
 21
5.74781
 31
0.0
  0
LINE
  8
0
 62
     0
 10
24.5649
 20
5.74781
 30
0.0
 11
24.8529
 21
5.45842
 31
0.0
  0
LINE
  8
0
 62
     0
 10
24.8529
 20
5.45842
 30
0.0
 11
25.1616
 21
5.34402
 31
0.0
  0
LINE
  8
0
 62
     0
 10
25.1616
 20
5.34402
 30
0.0
 11
25.2622
 21
5.4791
 31
0.0
  0
LINE
  8
0
 62
     0
 10
25.2622
 20
5.4791
 30
0.0
 11
25.2029
 21
5.80016
 31
0.0
  0
LINE
  8
0
 62
     0
 10
25.2029
 20
5.80016
 30
0.0
 11
25.1685
 21
6.1171
 31
0.0
  0
LINE
  8
0
 62
     0
 10
25.1685
 20
6.1171
 30
0.0
 11
25.6357
 21
5.93245
 31
0.0
  0
LINE
  8
0
 62
     0
 10
25.6357
 20
5.93245
 30
0.0
 11
26.0573
 21
5.6031
 31
0.0
  0
LINE
  8
0
 62
     0
 10
26.0573
 20
5.6031
 30
0.0
 11
26.2199
 21
5.26549
 31
0.0
  0
LINE
  8
0
 62
     0
 10
26.2199
 20
5.26549
 30
0.0
 11
26.1703
 21
5.07531
 31
0.0
  0
LINE
  8
0
 62
     0
 10
26.1703
 20
5.07531
 30
0.0
 11
26.0546
 21
5.27512
 31
0.0
  0
LINE
  8
0
 62
     0
 10
26.0546
 20
5.27512
 30
0.0
 11
25.8575
 21
5.51353
 31
0.0
  0
LINE
  8
0
 62
     0
 10
25.8575
 20
5.51353
 30
0.0
 11
25.6425
 21
5.44463
 31
0.0
  0
LINE
  8
0
 62
     0
 10
25.6425
 20
5.44463
 30
0.0
 11
25.4675
 21
5.13182
 31
0.0
  0
LINE
  8
0
 62
     0
 10
25.4675
 20
5.13182
 30
0.0
 11
25.3959
 21
4.63296
 31
0.0
  0
LINE
  8
0
 62
     0
 10
25.3959
 20
4.63296
 30
0.0
 11
25.4937
 21
4.16581
 31
0.0
  0
LINE
  8
0
 62
     0
 10
25.4937
 20
4.16581
 30
0.0
 11
25.7486
 21
4.03765
 31
0.0
  0
LINE
  8
0
 62
     0
 10
25.7486
 20
4.03765
 30
0.0
 11
25.9347
 21
4.06382
 31
0.0
  0
LINE
  8
0
 62
     0
 10
25.9347
 20
4.06382
 30
0.0
 11
25.8892
 21
4.00459
 31
0.0
  0
LINE
  8
0
 62
     0
 10
25.8892
 20
4.00459
 30
0.0
 11
25.7059
 21
3.61872
 31
0.0
  0
LINE
  8
0
 62
     0
 10
25.7059
 20
3.61872
 30
0.0
 11
26.1717
 21
2.91731
 31
0.0
  0
LINE
  8
0
 62
     0
 10
26.1717
 20
2.91731
 30
0.0
 11
27.0109
 21
1.94717
 31
0.0
  0
LINE
  8
0
 62
     0
 10
27.0109
 20
1.94717
 30
0.0
 11
27.4491
 21
1.34772
 31
0.0
  0
LINE
  8
0
 62
     0
 10
27.4491
 20
1.34772
 30
0.0
 11
27.5856
 21
0.945335
 31
0.0
  0
LINE
  8
0
 62
     0
 10
27.5856
 20
0.945335
 30
0.0
 11
27.5194
 21
0.566374
 31
0.0
  0
LINE
  8
0
 62
     0
 10
27.5194
 20
0.566374
 30
0.0
 11
27.3072
 21
0.146072
 31
0.0
  0
LINE
  8
0
 62
     0
 10
27.3072
 20
0.146072
 30
0.0
 11
27.0743
 21
-0
 31
0.0
  0
LINE
  8
0
 62
     0
 10
27.0743
 20
-0
 30
0.0
 11
26.8841
 21
0.13367
 31
0.0
  0
LINE
  8
0
 62
     0
 10
26.8841
 20
0.13367
 30
0.0
 11
26.807
 21
0.547081
 31
0.0
  0
ENDSEC
  0
EOF
