  0
SECTION
  2
HEADER
  9
$ACADVER
  1
AC1009
  9
$EXTMIN
 10
0.0
 20
0.0
 30
0.0
  9
$EXTMAX
 10
1000.0
 20
1000.0
 30
0.0
  9
$FILLMODE
 70
 0
  9
$SPLFRAME
 70
 1
  0
ENDSEC
  0
SECTION
  2
TABLES
  0
TABLE
  2
LAYER
 70
1
  0
LAYER
  2
0
 70
     0
 62
     7
  6
CONTINUOUS
  0
ENDTAB
  0
ENDSEC
  0
SECTION
  2
ENTITIES
  0
LINE
  8
0
 62
     0
 10
0.12678
 20
0.545705
 30
0.0
 11
0.39274
 21
1.20716
 31
0.0
  0
LINE
  8
0
 62
     0
 10
0.39274
 20
1.20716
 30
0.0
 11
0.728984
 21
1.80799
 31
0.0
  0
LINE
  8
0
 62
     0
 10
0.728984
 20
1.80799
 30
0.0
 11
1.00597
 21
2.2655
 31
0.0
  0
LINE
  8
0
 62
     0
 10
1.00597
 20
2.2655
 30
0.0
 11
1.09692
 21
2.56039
 31
0.0
  0
LINE
  8
0
 62
     0
 10
1.09692
 20
2.56039
 30
0.0
 11
0.999077
 21
2.6858
 31
0.0
  0
LINE
  8
0
 62
     0
 10
0.999077
 20
2.6858
 30
0.0
 11
0.71658
 21
2.63205
 31
0.0
  0
LINE
  8
0
 62
     0
 10
0.71658
 20
2.63205
 30
0.0
 11
0.533301
 21
2.59623
 31
0.0
  0
LINE
  8
0
 62
     0
 10
0.533301
 20
2.59623
 30
0.0
 11
0.479559
 21
2.69958
 31
0.0
  0
LINE
  8
0
 62
     0
 10
0.479559
 20
2.69958
 30
0.0
 11
0.556729
 21
2.97794
 31
0.0
  0
LINE
  8
0
 62
     0
 10
0.556729
 20
2.97794
 30
0.0
 11
0.766191
 21
3.46852
 31
0.0
  0
LINE
  8
0
 62
     0
 10
0.766191
 20
3.46852
 30
0.0
 11
1.21267
 21
4.18236
 31
0.0
  0
LINE
  8
0
 62
     0
 10
1.21267
 20
4.18236
 30
0.0
 11
1.69636
 21
4.57923
 31
0.0
  0
LINE
  8
0
 62
     0
 10
1.69636
 20
4.57923
 30
0.0
 11
2.08359
 21
4.59715
 31
0.0
  0
LINE
  8
0
 62
     0
 10
2.08359
 20
4.59715
 30
0.0
 11
2.24345
 21
4.17131
 31
0.0
  0
LINE
  8
0
 62
     0
 10
2.24345
 20
4.17131
 30
0.0
 11
2.32062
 21
3.82683
 31
0.0
  0
LINE
  8
0
 62
     0
 10
2.32062
 20
3.82683
 30
0.0
 11
2.50665
 21
3.77857
 31
0.0
  0
LINE
  8
0
 62
     0
 10
2.50665
 20
3.77857
 30
0.0
 11
2.68442
 21
4.14651
 31
0.0
  0
LINE
  8
0
 62
     0
 10
2.68442
 20
4.14651
 30
0.0
 11
2.74505
 21
4.80109
 31
0.0
  0
LINE
  8
0
 62
     0
 10
2.74505
 20
4.80109
 30
0.0
 11
2.66788
 21
5.35231
 31
0.0
  0
LINE
  8
0
 62
     0
 10
2.66788
 20
5.35231
 30
0.0
 11
2.48598
 21
5.28891
 31
0.0
  0
LINE
  8
0
 62
     0
 10
2.48598
 20
5.28891
 30
0.0
 11
2.30132
 21
5.1084
 31
0.0
  0
LINE
  8
0
 62
     0
 10
2.30132
 20
5.1084
 30
0.0
 11
2.24758
 21
5.41295
 31
0.0
  0
LINE
  8
0
 62
     0
 10
2.24758
 20
5.41295
 30
0.0
 11
2.32613
 21
5.76294
 31
0.0
  0
LINE
  8
0
 62
     0
 10
2.32613
 20
5.76294
 30
0.0
 11
2.52595
 21
5.90765
 31
0.0
  0
LINE
  8
0
 62
     0
 10
2.52595
 20
5.90765
 30
0.0
 11
2.80844
 21
6.14056
 31
0.0
  0
LINE
  8
0
 62
     0
 10
2.80844
 20
6.14056
 30
0.0
 11
2.57969
 21
6.29073
 31
0.0
  0
LINE
  8
0
 62
     0
 10
2.57969
 20
6.29073
 30
0.0
 11
2.03123
 21
6.3197
 31
0.0
  0
LINE
  8
0
 62
     0
 10
2.03123
 20
6.3197
 30
0.0
 11
1.62333
 21
6.31694
 31
0.0
  0
LINE
  8
0
 62
     0
 10
1.62333
 20
6.31694
 30
0.0
 11
1.7322
 21
6.38584
 31
0.0
  0
LINE
  8
0
 62
     0
 10
1.7322
 20
6.38584
 30
0.0
 11
2.1084
 21
6.71795
 31
0.0
  0
LINE
  8
0
 62
     0
 10
2.1084
 20
6.71795
 30
0.0
 11
2.31097
 21
7.40696
 31
0.0
  0
LINE
  8
0
 62
     0
 10
2.31097
 20
7.40696
 30
0.0
 11
2.41019
 21
8.30682
 31
0.0
  0
LINE
  8
0
 62
     0
 10
2.41019
 20
8.30682
 30
0.0
 11
2.74367
 21
7.52962
 31
0.0
  0
LINE
  8
0
 62
     0
 10
2.74367
 20
7.52962
 30
0.0
 11
3.0055
 21
6.98253
 31
0.0
  0
LINE
  8
0
 62
     0
 10
3.0055
 20
6.98253
 30
0.0
 11
3.16949
 21
6.75375
 31
0.0
  0
LINE
  8
0
 62
     0
 10
3.16949
 20
6.75375
 30
0.0
 11
3.23564
 21
7.16855
 31
0.0
  0
LINE
  8
0
 62
     0
 10
3.23564
 20
7.16855
 30
0.0
 11
3.26319
 21
8.16487
 31
0.0
  0
LINE
  8
0
 62
     0
 10
3.26319
 20
8.16487
 30
0.0
 11
3.23701
 21
9.02339
 31
0.0
  0
LINE
  8
0
 62
     0
 10
3.23701
 20
9.02339
 30
0.0
 11
3.13917
 21
9.46023
 31
0.0
  0
LINE
  8
0
 62
     0
 10
3.13917
 20
9.46023
 30
0.0
 11
2.94211
 21
9.52775
 31
0.0
  0
LINE
  8
0
 62
     0
 10
2.94211
 20
9.52775
 30
0.0
 11
2.6169
 21
9.27283
 31
0.0
  0
LINE
  8
0
 62
     0
 10
2.6169
 20
9.27283
 30
0.0
 11
2.32751
 21
9.29901
 31
0.0
  0
LINE
  8
0
 62
     0
 10
2.32751
 20
9.29901
 30
0.0
 11
2.17868
 21
9.84747
 31
0.0
  0
LINE
  8
0
 62
     0
 10
2.17868
 20
9.84747
 30
0.0
 11
2.19797
 21
10.5944
 31
0.0
  0
LINE
  8
0
 62
     0
 10
2.19797
 20
10.5944
 30
0.0
 11
2.42259
 21
11.2103
 31
0.0
  0
LINE
  8
0
 62
     0
 10
2.42259
 20
11.2103
 30
0.0
 11
2.71336
 21
11.5052
 31
0.0
  0
LINE
  8
0
 62
     0
 10
2.71336
 20
11.5052
 30
0.0
 11
2.79879
 21
11.2916
 31
0.0
  0
LINE
  8
0
 62
     0
 10
2.79879
 20
11.2916
 30
0.0
 11
2.93798
 21
10.8617
 31
0.0
  0
LINE
  8
0
 62
     0
 10
2.93798
 20
10.8617
 30
0.0
 11
3.26182
 21
10.389
 31
0.0
  0
LINE
  8
0
 62
     0
 10
3.26182
 20
10.389
 30
0.0
 11
3.53328
 21
10.1217
 31
0.0
  0
LINE
  8
0
 62
     0
 10
3.53328
 20
10.1217
 30
0.0
 11
3.76619
 21
10.0445
 31
0.0
  0
LINE
  8
0
 62
     0
 10
3.76619
 20
10.0445
 30
0.0
 11
4.0652
 21
10.1644
 31
0.0
  0
LINE
  8
0
 62
     0
 10
4.0652
 20
10.1644
 30
0.0
 11
4.53238
 21
10.491
 31
0.0
  0
LINE
  8
0
 62
     0
 10
4.53238
 20
10.491
 30
0.0
 11
5.04363
 21
10.9747
 31
0.0
  0
LINE
  8
0
 62
     0
 10
5.04363
 20
10.9747
 30
0.0
 11
5.29855
 21
11.4901
 31
0.0
  0
LINE
  8
0
 62
     0
 10
5.29855
 20
11.4901
 30
0.0
 11
5.29992
 21
12.0592
 31
0.0
  0
LINE
  8
0
 62
     0
 10
5.29992
 20
12.0592
 30
0.0
 11
5.05601
 21
12.7
 31
0.0
  0
LINE
  8
0
 62
     0
 10
5.05601
 20
12.7
 30
0.0
 11
4.51997
 21
13.2126
 31
0.0
  0
LINE
  8
0
 62
     0
 10
4.51997
 20
13.2126
 30
0.0
 11
3.98805
 21
12.5402
 31
0.0
  0
LINE
  8
0
 62
     0
 10
3.98805
 20
12.5402
 30
0.0
 11
3.65869
 21
12.0427
 31
0.0
  0
LINE
  8
0
 62
     0
 10
3.65869
 20
12.0427
 30
0.0
 11
3.32245
 21
11.8346
 31
0.0
  0
LINE
  8
0
 62
     0
 10
3.32245
 20
11.8346
 30
0.0
 11
3.1185
 21
11.9049
 31
0.0
  0
LINE
  8
0
 62
     0
 10
3.1185
 20
11.9049
 30
0.0
 11
3.31556
 21
12.1722
 31
0.0
  0
LINE
  8
0
 62
     0
 10
3.31556
 20
12.1722
 30
0.0
 11
3.55395
 21
12.5581
 31
0.0
  0
LINE
  8
0
 62
     0
 10
3.55395
 20
12.5581
 30
0.0
 11
3.65457
 21
13.0073
 31
0.0
  0
LINE
  8
0
 62
     0
 10
3.65457
 20
13.0073
 30
0.0
 11
3.86126
 21
13.564
 31
0.0
  0
LINE
  8
0
 62
     0
 10
3.86126
 20
13.564
 30
0.0
 11
4.36012
 21
14.2076
 31
0.0
  0
LINE
  8
0
 62
     0
 10
4.36012
 20
14.2076
 30
0.0
 11
4.79418
 21
14.7491
 31
0.0
  0
LINE
  8
0
 62
     0
 10
4.79418
 20
14.7491
 30
0.0
 11
5.03259
 21
15.259
 31
0.0
  0
LINE
  8
0
 62
     0
 10
5.03259
 20
15.259
 30
0.0
 11
5.045
 21
15.638
 31
0.0
  0
LINE
  8
0
 62
     0
 10
5.045
 20
15.638
 30
0.0
 11
4.80522
 21
15.7854
 31
0.0
  0
LINE
  8
0
 62
     0
 10
4.80522
 20
15.7854
 30
0.0
 11
4.56681
 21
16.0348
 31
0.0
  0
LINE
  8
0
 62
     0
 10
4.56681
 20
16.0348
 30
0.0
 11
4.36012
 21
16.6315
 31
0.0
  0
LINE
  8
0
 62
     0
 10
4.36012
 20
16.6315
 30
0.0
 11
4.17823
 21
17.1359
 31
0.0
  0
LINE
  8
0
 62
     0
 10
4.17823
 20
17.1359
 30
0.0
 11
3.94257
 21
17.4487
 31
0.0
  0
LINE
  8
0
 62
     0
 10
3.94257
 20
17.4487
 30
0.0
 11
3.74001
 21
17.4997
 31
0.0
  0
LINE
  8
0
 62
     0
 10
3.74001
 20
17.4997
 30
0.0
 11
3.65457
 21
17.2158
 31
0.0
  0
LINE
  8
0
 62
     0
 10
3.65457
 20
17.2158
 30
0.0
 11
3.36379
 21
17.0463
 31
0.0
  0
LINE
  8
0
 62
     0
 10
3.36379
 20
17.0463
 30
0.0
 11
2.66788
 21
17.005
 31
0.0
  0
LINE
  8
0
 62
     0
 10
2.66788
 20
17.005
 30
0.0
 11
1.89067
 21
17.1566
 31
0.0
  0
LINE
  8
0
 62
     0
 10
1.89067
 20
17.1566
 30
0.0
 11
1.67983
 21
17.5796
 31
0.0
  0
LINE
  8
0
 62
     0
 10
1.67983
 20
17.5796
 30
0.0
 11
1.57234
 21
17.9324
 31
0.0
  0
LINE
  8
0
 62
     0
 10
1.57234
 20
17.9324
 30
0.0
 11
1.25539
 21
17.9407
 31
0.0
  0
LINE
  8
0
 62
     0
 10
1.25539
 20
17.9407
 30
0.0
 11
0.943956
 21
17.9379
 31
0.0
  0
LINE
  8
0
 62
     0
 10
0.943956
 20
17.9379
 30
0.0
 11
0.832337
 21
18.2122
 31
0.0
  0
LINE
  8
0
 62
     0
 10
0.832337
 20
18.2122
 30
0.0
 11
0.964629
 21
18.5015
 31
0.0
  0
LINE
  8
0
 62
     0
 10
0.964629
 20
18.5015
 30
0.0
 11
1.39733
 21
18.4657
 31
0.0
  0
LINE
  8
0
 62
     0
 10
1.39733
 20
18.4657
 30
0.0
 11
1.75975
 21
18.4106
 31
0.0
  0
LINE
  8
0
 62
     0
 10
1.75975
 20
18.4106
 30
0.0
 11
1.95406
 21
18.6256
 31
0.0
  0
LINE
  8
0
 62
     0
 10
1.95406
 20
18.6256
 30
0.0
 11
2.02572
 21
19.2512
 31
0.0
  0
LINE
  8
0
 62
     0
 10
2.02572
 20
19.2512
 30
0.0
 11
2.01745
 21
20.4239
 31
0.0
  0
LINE
  8
0
 62
     0
 10
2.01745
 20
20.4239
 30
0.0
 11
2.08221
 21
21.3389
 31
0.0
  0
LINE
  8
0
 62
     0
 10
2.08221
 20
21.3389
 30
0.0
 11
2.27652
 21
21.977
 31
0.0
  0
LINE
  8
0
 62
     0
 10
2.27652
 20
21.977
 30
0.0
 11
2.47633
 21
22.1671
 31
0.0
  0
LINE
  8
0
 62
     0
 10
2.47633
 20
22.1671
 30
0.0
 11
2.44326
 21
21.6559
 31
0.0
  0
LINE
  8
0
 62
     0
 10
2.44326
 20
21.6559
 30
0.0
 11
2.47633
 21
20.9489
 31
0.0
  0
LINE
  8
0
 62
     0
 10
2.47633
 20
20.9489
 30
0.0
 11
2.81533
 21
20.7078
 31
0.0
  0
LINE
  8
0
 62
     0
 10
2.81533
 20
20.7078
 30
0.0
 11
3.3886
 21
20.9338
 31
0.0
  0
LINE
  8
0
 62
     0
 10
3.3886
 20
20.9338
 30
0.0
 11
4.12584
 21
21.6269
 31
0.0
  0
LINE
  8
0
 62
     0
 10
4.12584
 20
21.6269
 30
0.0
 11
4.77767
 21
22.5309
 31
0.0
  0
LINE
  8
0
 62
     0
 10
4.77767
 20
22.5309
 30
0.0
 11
5.05464
 21
23.1938
 31
0.0
  0
LINE
  8
0
 62
     0
 10
5.05464
 20
23.1938
 30
0.0
 11
5.14974
 21
23.5341
 31
0.0
  0
LINE
  8
0
 62
     0
 10
5.14974
 20
23.5341
 30
0.0
 11
5.34681
 21
23.6788
 31
0.0
  0
LINE
  8
0
 62
     0
 10
5.34681
 20
23.6788
 30
0.0
 11
5.54108
 21
23.6113
 31
0.0
  0
LINE
  8
0
 62
     0
 10
5.54108
 20
23.6113
 30
0.0
 11
5.63065
 21
23.3068
 31
0.0
  0
LINE
  8
0
 62
     0
 10
5.63065
 20
23.3068
 30
0.0
 11
5.86218
 21
23.0243
 31
0.0
  0
LINE
  8
0
 62
     0
 10
5.86218
 20
23.0243
 30
0.0
 11
6.47679
 21
22.903
 31
0.0
  0
LINE
  8
0
 62
     0
 10
6.47679
 20
22.903
 30
0.0
 11
6.90809
 21
22.9168
 31
0.0
  0
LINE
  8
0
 62
     0
 10
6.90809
 20
22.9168
 30
0.0
 11
7.1658
 21
23.0077
 31
0.0
  0
LINE
  8
0
 62
     0
 10
7.1658
 20
23.0077
 30
0.0
 11
7.28984
 21
23.2089
 31
0.0
  0
LINE
  8
0
 62
     0
 10
7.28984
 20
23.2089
 30
0.0
 11
7.32289
 21
23.5479
 31
0.0
  0
LINE
  8
0
 62
     0
 10
7.32289
 20
23.5479
 30
0.0
 11
7.40008
 21
24.0702
 31
0.0
  0
LINE
  8
0
 62
     0
 10
7.40008
 20
24.0702
 30
0.0
 11
7.58747
 21
24.3816
 31
0.0
  0
LINE
  8
0
 62
     0
 10
7.58747
 20
24.3816
 30
0.0
 11
7.76524
 21
24.2466
 31
0.0
  0
LINE
  8
0
 62
     0
 10
7.76524
 20
24.2466
 30
0.0
 11
7.82588
 21
23.6885
 31
0.0
  0
LINE
  8
0
 62
     0
 10
7.82588
 20
23.6885
 30
0.0
 11
7.85206
 21
23.0532
 31
0.0
  0
LINE
  8
0
 62
     0
 10
7.85206
 20
23.0532
 30
0.0
 11
7.97885
 21
22.6963
 31
0.0
  0
LINE
  8
0
 62
     0
 10
7.97885
 20
22.6963
 30
0.0
 11
8.20759
 21
22.6122
 31
0.0
  0
LINE
  8
0
 62
     0
 10
8.20759
 20
22.6122
 30
0.0
 11
8.54244
 21
22.7983
 31
0.0
  0
LINE
  8
0
 62
     0
 10
8.54244
 20
22.7983
 30
0.0
 11
8.86629
 21
22.9719
 31
0.0
  0
LINE
  8
0
 62
     0
 10
8.86629
 20
22.9719
 30
0.0
 11
9.10608
 21
22.9388
 31
0.0
  0
LINE
  8
0
 62
     0
 10
9.10608
 20
22.9388
 30
0.0
 11
9.39684
 21
23.0119
 31
0.0
  0
LINE
  8
0
 62
     0
 10
9.39684
 20
23.0119
 30
0.0
 11
9.84747
 21
23.4363
 31
0.0
  0
LINE
  8
0
 62
     0
 10
9.84747
 20
23.4363
 30
0.0
 11
10.4097
 21
24.1102
 31
0.0
  0
LINE
  8
0
 62
     0
 10
10.4097
 20
24.1102
 30
0.0
 11
10.418
 21
23.457
 31
0.0
  0
LINE
  8
0
 62
     0
 10
10.418
 20
23.457
 30
0.0
 11
10.2154
 21
22.7225
 31
0.0
  0
LINE
  8
0
 62
     0
 10
10.2154
 20
22.7225
 30
0.0
 11
9.71656
 21
21.8708
 31
0.0
  0
LINE
  8
0
 62
     0
 10
9.71656
 20
21.8708
 30
0.0
 11
9.25904
 21
21.0826
 31
0.0
  0
LINE
  8
0
 62
     0
 10
9.25904
 20
21.0826
 30
0.0
 11
9.17497
 21
20.5011
 31
0.0
  0
LINE
  8
0
 62
     0
 10
9.17497
 20
20.5011
 30
0.0
 11
9.14742
 21
20.1001
 31
0.0
  0
LINE
  8
0
 62
     0
 10
9.14742
 20
20.1001
 30
0.0
 11
8.78498
 21
19.7624
 31
0.0
  0
LINE
  8
0
 62
     0
 10
8.78498
 20
19.7624
 30
0.0
 11
8.47217
 21
19.5626
 31
0.0
  0
LINE
  8
0
 62
     0
 10
8.47217
 20
19.5626
 30
0.0
 11
8.36605
 21
19.2815
 31
0.0
  0
LINE
  8
0
 62
     0
 10
8.36605
 20
19.2815
 30
0.0
 11
8.46392
 21
18.7358
 31
0.0
  0
LINE
  8
0
 62
     0
 10
8.46392
 20
18.7358
 30
0.0
 11
8.76293
 21
17.7409
 31
0.0
  0
LINE
  8
0
 62
     0
 10
8.76293
 20
17.7409
 30
0.0
 11
9.135
 21
16.3862
 31
0.0
  0
LINE
  8
0
 62
     0
 10
9.135
 20
16.3862
 30
0.0
 11
9.26867
 21
15.3775
 31
0.0
  0
LINE
  8
0
 62
     0
 10
9.26867
 20
15.3775
 30
0.0
 11
9.16809
 21
14.548
 31
0.0
  0
LINE
  8
0
 62
     0
 10
9.16809
 20
14.548
 30
0.0
 11
8.83461
 21
13.7294
 31
0.0
  0
LINE
  8
0
 62
     0
 10
8.83461
 20
13.7294
 30
0.0
 11
8.64443
 21
13.225
 31
0.0
  0
LINE
  8
0
 62
     0
 10
8.64443
 20
13.225
 30
0.0
 11
8.47492
 21
12.514
 31
0.0
  0
LINE
  8
0
 62
     0
 10
8.47492
 20
12.514
 30
0.0
 11
8.34263
 21
11.6913
 31
0.0
  0
LINE
  8
0
 62
     0
 10
8.34263
 20
11.6913
 30
0.0
 11
8.26548
 21
10.8507
 31
0.0
  0
LINE
  8
0
 62
     0
 10
8.26548
 20
10.8507
 30
0.0
 11
8.14282
 21
9.14192
 31
0.0
  0
LINE
  8
0
 62
     0
 10
8.14282
 20
9.14192
 30
0.0
 11
7.99402
 21
7.81209
 31
0.0
  0
LINE
  8
0
 62
     0
 10
7.99402
 20
7.81209
 30
0.0
 11
7.92508
 21
7.26362
 31
0.0
  0
LINE
  8
0
 62
     0
 10
7.92508
 20
7.26362
 30
0.0
 11
7.95129
 21
6.94256
 31
0.0
  0
LINE
  8
0
 62
     0
 10
7.95129
 20
6.94256
 30
0.0
 11
8.08771
 21
6.79235
 31
0.0
  0
LINE
  8
0
 62
     0
 10
8.08771
 20
6.79235
 30
0.0
 11
8.35918
 21
6.75375
 31
0.0
  0
LINE
  8
0
 62
     0
 10
8.35918
 20
6.75375
 30
0.0
 11
8.88284
 21
6.92739
 31
0.0
  0
LINE
  8
0
 62
     0
 10
8.88284
 20
6.92739
 30
0.0
 11
9.39821
 21
7.34494
 31
0.0
  0
LINE
  8
0
 62
     0
 10
9.39821
 20
7.34494
 30
0.0
 11
9.80475
 21
7.71289
 31
0.0
  0
LINE
  8
0
 62
     0
 10
9.80475
 20
7.71289
 30
0.0
 11
10.0762
 21
7.76386
 31
0.0
  0
LINE
  8
0
 62
     0
 10
10.0762
 20
7.76386
 30
0.0
 11
10.0996
 21
7.54475
 31
0.0
  0
LINE
  8
0
 62
     0
 10
10.0996
 20
7.54475
 30
0.0
 11
9.915
 21
7.25674
 31
0.0
  0
LINE
  8
0
 62
     0
 10
9.915
 20
7.25674
 30
0.0
 11
9.67934
 21
6.87229
 31
0.0
  0
LINE
  8
0
 62
     0
 10
9.67934
 20
6.87229
 30
0.0
 11
9.58152
 21
6.41615
 31
0.0
  0
LINE
  8
0
 62
     0
 10
9.58152
 20
6.41615
 30
0.0
 11
9.45748
 21
6.05786
 31
0.0
  0
LINE
  8
0
 62
     0
 10
9.45748
 20
6.05786
 30
0.0
 11
9.16259
 21
5.90765
 31
0.0
  0
LINE
  8
0
 62
     0
 10
9.16259
 20
5.90765
 30
0.0
 11
8.81532
 21
5.70096
 31
0.0
  0
LINE
  8
0
 62
     0
 10
8.81532
 20
5.70096
 30
0.0
 11
8.56865
 21
5.20347
 31
0.0
  0
LINE
  8
0
 62
     0
 10
8.56865
 20
5.20347
 30
0.0
 11
8.35642
 21
4.75975
 31
0.0
  0
LINE
  8
0
 62
     0
 10
8.35642
 20
4.75975
 30
0.0
 11
8.09597
 21
4.68256
 31
0.0
  0
LINE
  8
0
 62
     0
 10
8.09597
 20
4.68256
 30
0.0
 11
7.94025
 21
4.72253
 31
0.0
  0
LINE
  8
0
 62
     0
 10
7.94025
 20
4.72253
 30
0.0
 11
8.00365
 21
4.53789
 31
0.0
  0
LINE
  8
0
 62
     0
 10
8.00365
 20
4.53789
 30
0.0
 11
8.11251
 21
4.10379
 31
0.0
  0
LINE
  8
0
 62
     0
 10
8.11251
 20
4.10379
 30
0.0
 11
8.00365
 21
3.62423
 31
0.0
  0
LINE
  8
0
 62
     0
 10
8.00365
 20
3.62423
 30
0.0
 11
7.71977
 21
3.20118
 31
0.0
  0
LINE
  8
0
 62
     0
 10
7.71977
 20
3.20118
 30
0.0
 11
7.30913
 21
2.93936
 31
0.0
  0
LINE
  8
0
 62
     0
 10
7.30913
 20
2.93936
 30
0.0
 11
6.92051
 21
2.70233
 31
0.0
  0
LINE
  8
0
 62
     0
 10
6.92051
 20
2.70233
 30
0.0
 11
6.75929
 21
2.37436
 31
0.0
  0
LINE
  8
0
 62
     0
 10
6.75929
 20
2.37436
 30
0.0
 11
6.61458
 21
2.01883
 31
0.0
  0
LINE
  8
0
 62
     0
 10
6.61458
 20
2.01883
 30
0.0
 11
6.27144
 21
1.71152
 31
0.0
  0
LINE
  8
0
 62
     0
 10
6.27144
 20
1.71152
 30
0.0
 11
5.98897
 21
1.62333
 31
0.0
  0
LINE
  8
0
 62
     0
 10
5.98897
 20
1.62333
 30
0.0
 11
5.68717
 21
1.69636
 31
0.0
  0
LINE
  8
0
 62
     0
 10
5.68717
 20
1.69636
 30
0.0
 11
5.31784
 21
1.95268
 31
0.0
  0
LINE
  8
0
 62
     0
 10
5.31784
 20
1.95268
 30
0.0
 11
4.83415
 21
2.4157
 31
0.0
  0
LINE
  8
0
 62
     0
 10
4.83415
 20
2.4157
 30
0.0
 11
4.3477
 21
2.88423
 31
0.0
  0
LINE
  8
0
 62
     0
 10
4.3477
 20
2.88423
 30
0.0
 11
3.99493
 21
3.1309
 31
0.0
  0
LINE
  8
0
 62
     0
 10
3.99493
 20
3.1309
 30
0.0
 11
3.72484
 21
3.18327
 31
0.0
  0
LINE
  8
0
 62
     0
 10
3.72484
 20
3.18327
 30
0.0
 11
3.48782
 21
3.06338
 31
0.0
  0
LINE
  8
0
 62
     0
 10
3.48782
 20
3.06338
 30
0.0
 11
3.17087
 21
2.89388
 31
0.0
  0
LINE
  8
0
 62
     0
 10
3.17087
 20
2.89388
 30
0.0
 11
3.08956
 21
3.18327
 31
0.0
  0
LINE
  8
0
 62
     0
 10
3.08956
 20
3.18327
 30
0.0
 11
2.97794
 21
3.47128
 31
0.0
  0
LINE
  8
0
 62
     0
 10
2.97794
 20
3.47128
 30
0.0
 11
2.66926
 21
3.4699
 31
0.0
  0
LINE
  8
0
 62
     0
 10
2.66926
 20
3.4699
 30
0.0
 11
2.31786
 21
3.48506
 31
0.0
  0
LINE
  8
0
 62
     0
 10
2.31786
 20
3.48506
 30
0.0
 11
2.07395
 21
3.76206
 31
0.0
  0
LINE
  8
0
 62
     0
 10
2.07395
 20
3.76206
 30
0.0
 11
1.66054
 21
4.19474
 31
0.0
  0
LINE
  8
0
 62
     0
 10
1.66054
 20
4.19474
 30
0.0
 11
1.2678
 21
3.689
 31
0.0
  0
LINE
  8
0
 62
     0
 10
1.2678
 20
3.689
 30
0.0
 11
1.19614
 21
3.17224
 31
0.0
  0
LINE
  8
0
 62
     0
 10
1.19614
 20
3.17224
 30
0.0
 11
1.29122
 21
2.70647
 31
0.0
  0
LINE
  8
0
 62
     0
 10
1.29122
 20
2.70647
 30
0.0
 11
1.51997
 21
2.36885
 31
0.0
  0
LINE
  8
0
 62
     0
 10
1.51997
 20
2.36885
 30
0.0
 11
1.8507
 21
2.23793
 31
0.0
  0
LINE
  8
0
 62
     0
 10
1.8507
 20
2.23793
 30
0.0
 11
2.12769
 21
2.11667
 31
0.0
  0
LINE
  8
0
 62
     0
 10
2.12769
 20
2.11667
 30
0.0
 11
2.24345
 21
1.82452
 31
0.0
  0
LINE
  8
0
 62
     0
 10
2.24345
 20
1.82452
 30
0.0
 11
2.12631
 21
1.56545
 31
0.0
  0
LINE
  8
0
 62
     0
 10
2.12631
 20
1.56545
 30
0.0
 11
1.80799
 21
1.57648
 31
0.0
  0
LINE
  8
0
 62
     0
 10
1.80799
 20
1.57648
 30
0.0
 11
1.51309
 21
1.62333
 31
0.0
  0
LINE
  8
0
 62
     0
 10
1.51309
 20
1.62333
 30
0.0
 11
1.418
 21
1.49655
 31
0.0
  0
LINE
  8
0
 62
     0
 10
1.418
 20
1.49655
 30
0.0
 11
1.41662
 21
0.806154
 31
0.0
  0
LINE
  8
0
 62
     0
 10
1.41662
 20
0.806154
 30
0.0
 11
1.20854
 21
0.63941
 31
0.0
  0
LINE
  8
0
 62
     0
 10
1.20854
 20
0.63941
 30
0.0
 11
0.910883
 21
0.628385
 31
0.0
  0
LINE
  8
0
 62
     0
 10
0.910883
 20
0.628385
 30
0.0
 11
0.4644
 21
0.334863
 31
0.0
  0
LINE
  8
0
 62
     0
 10
0.4644
 20
0.334863
 30
0.0
 11
0.15434
 21
0.07028
 31
0.0
  0
LINE
  8
0
 62
     0
 10
0.15434
 20
0.07028
 30
0.0
 11
0.0151584
 21
0.00413413
 31
0.0
  0
LINE
  8
0
 62
     0
 10
0.0151584
 20
0.00413413
 30
0.0
 11
0.0151584
 21
0.157097
 31
0.0
  0
LINE
  8
0
 62
     0
 10
0.0151584
 20
0.157097
 30
0.0
 11
0.12678
 21
0.545705
 31
0.0
  0
ENDSEC
  0
EOF
