  0
SECTION
  2
HEADER
  9
$ACADVER
  1
AC1009
  9
$EXTMIN
 10
0.0
 20
0.0
 30
0.0
  9
$EXTMAX
 10
1000.0
 20
1000.0
 30
0.0
  9
$FILLMODE
 70
 0
  9
$SPLFRAME
 70
 1
  0
ENDSEC
  0
SECTION
  2
TABLES
  0
TABLE
  2
LAYER
 70
1
  0
LAYER
  2
0
 70
     0
 62
     7
  6
CONTINUOUS
  0
ENDTAB
  0
ENDSEC
  0
SECTION
  2
ENTITIES
  0
LINE
  8
0
 62
     0
 10
6.56223
 20
0.372071
 30
0.0
 11
5.47493
 21
0.759298
 31
0.0
  0
LINE
  8
0
 62
     0
 10
5.47493
 20
0.759298
 30
0.0
 11
4.2678
 21
1.00321
 31
0.0
  0
LINE
  8
0
 62
     0
 10
4.2678
 20
1.00321
 30
0.0
 11
3.20256
 21
1.20027
 31
0.0
  0
LINE
  8
0
 62
     0
 10
3.20256
 20
1.20027
 30
0.0
 11
2.40743
 21
1.52687
 31
0.0
  0
LINE
  8
0
 62
     0
 10
2.40743
 20
1.52687
 30
0.0
 11
1.87
 21
1.99264
 31
0.0
  0
LINE
  8
0
 62
     0
 10
1.87
 20
1.99264
 30
0.0
 11
1.57786
 21
2.60449
 31
0.0
  0
LINE
  8
0
 62
     0
 10
1.57786
 20
2.60449
 30
0.0
 11
1.35599
 21
3.18602
 31
0.0
  0
LINE
  8
0
 62
     0
 10
1.35599
 20
3.18602
 30
0.0
 11
1.07074
 21
3.59117
 31
0.0
  0
LINE
  8
0
 62
     0
 10
1.07074
 20
3.59117
 30
0.0
 11
0.730359
 21
4.15477
 31
0.0
  0
LINE
  8
0
 62
     0
 10
0.730359
 20
4.15477
 30
0.0
 11
0.40652
 21
5.07118
 31
0.0
  0
LINE
  8
0
 62
     0
 10
0.40652
 20
5.07118
 30
0.0
 11
0.201194
 21
5.98622
 31
0.0
  0
LINE
  8
0
 62
     0
 10
0.201194
 20
5.98622
 30
0.0
 11
0.216352
 21
6.54156
 31
0.0
  0
LINE
  8
0
 62
     0
 10
0.216352
 20
6.54156
 30
0.0
 11
0.135048
 21
6.94669
 31
0.0
  0
LINE
  8
0
 62
     0
 10
0.135048
 20
6.94669
 30
0.0
 11
0.00826823
 21
7.53237
 31
0.0
  0
LINE
  8
0
 62
     0
 10
0.00826823
 20
7.53237
 30
0.0
 11
0.0261827
 21
8.69678
 31
0.0
  0
LINE
  8
0
 62
     0
 10
0.0261827
 20
8.69678
 30
0.0
 11
0.155718
 21
9.94117
 31
0.0
  0
LINE
  8
0
 62
     0
 10
0.155718
 20
9.94117
 30
0.0
 11
0.367937
 21
10.768
 31
0.0
  0
LINE
  8
0
 62
     0
 10
0.367937
 20
10.768
 30
0.0
 11
0.671103
 21
10.8149
 31
0.0
  0
LINE
  8
0
 62
     0
 10
0.671103
 20
10.8149
 30
0.0
 11
1.18649
 21
9.99215
 31
0.0
  0
LINE
  8
0
 62
     0
 10
1.18649
 20
9.99215
 30
0.0
 11
1.68258
 21
9.1598
 31
0.0
  0
LINE
  8
0
 62
     0
 10
1.68258
 20
9.1598
 30
0.0
 11
2.03399
 21
8.81257
 31
0.0
  0
LINE
  8
0
 62
     0
 10
2.03399
 20
8.81257
 30
0.0
 11
2.26412
 21
8.94073
 31
0.0
  0
LINE
  8
0
 62
     0
 10
2.26412
 20
8.94073
 30
0.0
 11
2.45153
 21
9.28934
 31
0.0
  0
LINE
  8
0
 62
     0
 10
2.45153
 20
9.28934
 30
0.0
 11
2.57831
 21
9.81163
 31
0.0
  0
LINE
  8
0
 62
     0
 10
2.57831
 20
9.81163
 30
0.0
 11
2.6293
 21
10.4593
 31
0.0
  0
LINE
  8
0
 62
     0
 10
2.6293
 20
10.4593
 30
0.0
 11
2.74367
 21
11.406
 31
0.0
  0
LINE
  8
0
 62
     0
 10
2.74367
 20
11.406
 30
0.0
 11
3.01653
 21
12.6228
 31
0.0
  0
LINE
  8
0
 62
     0
 10
3.01653
 20
12.6228
 30
0.0
 11
3.21221
 21
13.2912
 31
0.0
  0
LINE
  8
0
 62
     0
 10
3.21221
 20
13.2912
 30
0.0
 11
3.36517
 21
13.6398
 31
0.0
  0
LINE
  8
0
 62
     0
 10
3.36517
 20
13.6398
 30
0.0
 11
3.49333
 21
13.7004
 31
0.0
  0
LINE
  8
0
 62
     0
 10
3.49333
 20
13.7004
 30
0.0
 11
3.6201
 21
13.5034
 31
0.0
  0
LINE
  8
0
 62
     0
 10
3.6201
 20
13.5034
 30
0.0
 11
3.65181
 21
12.8654
 31
0.0
  0
LINE
  8
0
 62
     0
 10
3.65181
 20
12.8654
 30
0.0
 11
3.33347
 21
12.0289
 31
0.0
  0
LINE
  8
0
 62
     0
 10
3.33347
 20
12.0289
 30
0.0
 11
3.01239
 21
11.2241
 31
0.0
  0
LINE
  8
0
 62
     0
 10
3.01239
 20
11.2241
 30
0.0
 11
3.11023
 21
10.7253
 31
0.0
  0
LINE
  8
0
 62
     0
 10
3.11023
 20
10.7253
 30
0.0
 11
3.37068
 21
10.1396
 31
0.0
  0
LINE
  8
0
 62
     0
 10
3.37068
 20
10.1396
 30
0.0
 11
3.5953
 21
9.23562
 31
0.0
  0
LINE
  8
0
 62
     0
 10
3.5953
 20
9.23562
 30
0.0
 11
3.85576
 21
8.25168
 31
0.0
  0
LINE
  8
0
 62
     0
 10
3.85576
 20
8.25168
 30
0.0
 11
4.20578
 21
7.4676
 31
0.0
  0
LINE
  8
0
 62
     0
 10
4.20578
 20
7.4676
 30
0.0
 11
4.65088
 21
7.00458
 31
0.0
  0
LINE
  8
0
 62
     0
 10
4.65088
 20
7.00458
 30
0.0
 11
5.2076
 21
7.14237
 31
0.0
  0
LINE
  8
0
 62
     0
 10
5.2076
 20
7.14237
 30
0.0
 11
5.57555
 21
7.28984
 31
0.0
  0
LINE
  8
0
 62
     0
 10
5.57555
 20
7.28984
 30
0.0
 11
5.63619
 21
7.19889
 31
0.0
  0
LINE
  8
0
 62
     0
 10
5.63619
 20
7.19889
 30
0.0
 11
5.67475
 21
6.76342
 31
0.0
  0
LINE
  8
0
 62
     0
 10
5.67475
 20
6.76342
 30
0.0
 11
5.99722
 21
6.07991
 31
0.0
  0
LINE
  8
0
 62
     0
 10
5.99722
 20
6.07991
 30
0.0
 11
6.50709
 21
5.49973
 31
0.0
  0
LINE
  8
0
 62
     0
 10
6.50709
 20
5.49973
 30
0.0
 11
7.13687
 21
5.1332
 31
0.0
  0
LINE
  8
0
 62
     0
 10
7.13687
 20
5.1332
 30
0.0
 11
7.75836
 21
5.02846
 31
0.0
  0
LINE
  8
0
 62
     0
 10
7.75836
 20
5.02846
 30
0.0
 11
8.2448
 21
5.2324
 31
0.0
  0
LINE
  8
0
 62
     0
 10
8.2448
 20
5.2324
 30
0.0
 11
8.50526
 21
5.33439
 31
0.0
  0
LINE
  8
0
 62
     0
 10
8.50526
 20
5.33439
 30
0.0
 11
8.71195
 21
5.05051
 31
0.0
  0
LINE
  8
0
 62
     0
 10
8.71195
 20
5.05051
 30
0.0
 11
8.92281
 21
4.7184
 31
0.0
  0
LINE
  8
0
 62
     0
 10
8.92281
 20
4.7184
 30
0.0
 11
9.1791
 21
4.57923
 31
0.0
  0
LINE
  8
0
 62
     0
 10
9.1791
 20
4.57923
 30
0.0
 11
9.30864
 21
4.67843
 31
0.0
  0
LINE
  8
0
 62
     0
 10
9.30864
 20
4.67843
 30
0.0
 11
9.1543
 21
4.95543
 31
0.0
  0
LINE
  8
0
 62
     0
 10
9.1543
 20
4.95543
 30
0.0
 11
9.00134
 21
5.36885
 31
0.0
  0
LINE
  8
0
 62
     0
 10
9.00134
 20
5.36885
 30
0.0
 11
9.25216
 21
5.87319
 31
0.0
  0
LINE
  8
0
 62
     0
 10
9.25216
 20
5.87319
 30
0.0
 11
9.5746
 21
6.40652
 31
0.0
  0
LINE
  8
0
 62
     0
 10
9.5746
 20
6.40652
 30
0.0
 11
9.66142
 21
6.80201
 31
0.0
  0
LINE
  8
0
 62
     0
 10
9.66142
 20
6.80201
 30
0.0
 11
9.51258
 21
7.01008
 31
0.0
  0
LINE
  8
0
 62
     0
 10
9.51258
 20
7.01008
 30
0.0
 11
9.13776
 21
6.98528
 31
0.0
  0
LINE
  8
0
 62
     0
 10
9.13776
 20
6.98528
 30
0.0
 11
8.61688
 21
6.90947
 31
0.0
  0
LINE
  8
0
 62
     0
 10
8.61688
 20
6.90947
 30
0.0
 11
8.47908
 21
7.08865
 31
0.0
  0
LINE
  8
0
 62
     0
 10
8.47908
 20
7.08865
 30
0.0
 11
8.71333
 21
7.44968
 31
0.0
  0
LINE
  8
0
 62
     0
 10
8.71333
 20
7.44968
 30
0.0
 11
9.30451
 21
7.91958
 31
0.0
  0
LINE
  8
0
 62
     0
 10
9.30451
 20
7.91958
 30
0.0
 11
9.82126
 21
8.24756
 31
0.0
  0
LINE
  8
0
 62
     0
 10
9.82126
 20
8.24756
 30
0.0
 11
10.0996
 21
8.37297
 31
0.0
  0
LINE
  8
0
 62
     0
 10
10.0996
 20
8.37297
 30
0.0
 11
10.1865
 21
8.30682
 31
0.0
  0
LINE
  8
0
 62
     0
 10
10.1865
 20
8.30682
 30
0.0
 11
10.1341
 21
8.056
 31
0.0
  0
LINE
  8
0
 62
     0
 10
10.1341
 20
8.056
 30
0.0
 11
10.0955
 21
7.57509
 31
0.0
  0
LINE
  8
0
 62
     0
 10
10.0955
 20
7.57509
 30
0.0
 11
10.2292
 21
7.1355
 31
0.0
  0
LINE
  8
0
 62
     0
 10
10.2292
 20
7.1355
 30
0.0
 11
10.5792
 21
6.87366
 31
0.0
  0
LINE
  8
0
 62
     0
 10
10.5792
 20
6.87366
 30
0.0
 11
11.2241
 21
7.06519
 31
0.0
  0
LINE
  8
0
 62
     0
 10
11.2241
 20
7.06519
 30
0.0
 11
11.7574
 21
7.29809
 31
0.0
  0
LINE
  8
0
 62
     0
 10
11.7574
 20
7.29809
 30
0.0
 11
12.0578
 21
7.38216
 31
0.0
  0
LINE
  8
0
 62
     0
 10
12.0578
 20
7.38216
 30
0.0
 11
12.1888
 21
7.32151
 31
0.0
  0
LINE
  8
0
 62
     0
 10
12.1888
 20
7.32151
 30
0.0
 11
12.2191
 21
7.11895
 31
0.0
  0
LINE
  8
0
 62
     0
 10
12.2191
 20
7.11895
 30
0.0
 11
12.3858
 21
6.74963
 31
0.0
  0
LINE
  8
0
 62
     0
 10
12.3858
 20
6.74963
 30
0.0
 11
12.7827
 21
6.2811
 31
0.0
  0
LINE
  8
0
 62
     0
 10
12.7827
 20
6.2811
 30
0.0
 11
13.2443
 21
5.87872
 31
0.0
  0
LINE
  8
0
 62
     0
 10
13.2443
 20
5.87872
 30
0.0
 11
13.6095
 21
5.70784
 31
0.0
  0
LINE
  8
0
 62
     0
 10
13.6095
 20
5.70784
 30
0.0
 11
13.9292
 21
5.84426
 31
0.0
  0
LINE
  8
0
 62
     0
 10
13.9292
 20
5.84426
 30
0.0
 11
14.333
 21
6.16948
 31
0.0
  0
LINE
  8
0
 62
     0
 10
14.333
 20
6.16948
 30
0.0
 11
14.7877
 21
6.4685
 31
0.0
  0
LINE
  8
0
 62
     0
 10
14.7877
 20
6.4685
 30
0.0
 11
15.2163
 21
6.02753
 31
0.0
  0
LINE
  8
0
 62
     0
 10
15.2163
 20
6.02753
 30
0.0
 11
15.6614
 21
5.60585
 31
0.0
  0
LINE
  8
0
 62
     0
 10
15.6614
 20
5.60585
 30
0.0
 11
16.1713
 21
5.70921
 31
0.0
  0
LINE
  8
0
 62
     0
 10
16.1713
 20
5.70921
 30
0.0
 11
16.4703
 21
5.81395
 31
0.0
  0
LINE
  8
0
 62
     0
 10
16.4703
 20
5.81395
 30
0.0
 11
16.7445
 21
5.75331
 31
0.0
  0
LINE
  8
0
 62
     0
 10
16.7445
 20
5.75331
 30
0.0
 11
17.0546
 21
5.49423
 31
0.0
  0
LINE
  8
0
 62
     0
 10
17.0546
 20
5.49423
 30
0.0
 11
17.4584
 21
5.00503
 31
0.0
  0
LINE
  8
0
 62
     0
 10
17.4584
 20
5.00503
 30
0.0
 11
18.0233
 21
4.40835
 31
0.0
  0
LINE
  8
0
 62
     0
 10
18.0233
 20
4.40835
 30
0.0
 11
18.5801
 21
4.07624
 31
0.0
  0
LINE
  8
0
 62
     0
 10
18.5801
 20
4.07624
 30
0.0
 11
19.0638
 21
4.03214
 31
0.0
  0
LINE
  8
0
 62
     0
 10
19.0638
 20
4.03214
 30
0.0
 11
19.4152
 21
4.29673
 31
0.0
  0
LINE
  8
0
 62
     0
 10
19.4152
 20
4.29673
 30
0.0
 11
19.8506
 21
4.57232
 31
0.0
  0
LINE
  8
0
 62
     0
 10
19.8506
 20
4.57232
 30
0.0
 11
20.1208
 21
4.31602
 31
0.0
  0
LINE
  8
0
 62
     0
 10
20.1208
 20
4.31602
 30
0.0
 11
19.9567
 21
4.07899
 31
0.0
  0
LINE
  8
0
 62
     0
 10
19.9567
 20
4.07899
 30
0.0
 11
19.5612
 21
3.87505
 31
0.0
  0
LINE
  8
0
 62
     0
 10
19.5612
 20
3.87505
 30
0.0
 11
18.9067
 21
3.3886
 31
0.0
  0
LINE
  8
0
 62
     0
 10
18.9067
 20
3.3886
 30
0.0
 11
18.1198
 21
2.46807
 31
0.0
  0
LINE
  8
0
 62
     0
 10
18.1198
 20
2.46807
 30
0.0
 11
17.2765
 21
1.53927
 31
0.0
  0
LINE
  8
0
 62
     0
 10
17.2765
 20
1.53927
 30
0.0
 11
16.491
 21
1.03215
 31
0.0
  0
LINE
  8
0
 62
     0
 10
16.491
 20
1.03215
 30
0.0
 11
15.3238
 21
0.835092
 31
0.0
  0
LINE
  8
0
 62
     0
 10
15.3238
 20
0.835092
 30
0.0
 11
13.9017
 21
0.744142
 31
0.0
  0
LINE
  8
0
 62
     0
 10
13.9017
 20
0.744142
 30
0.0
 11
12.6697
 21
0.770322
 31
0.0
  0
LINE
  8
0
 62
     0
 10
12.6697
 20
0.770322
 30
0.0
 11
12.0702
 21
0.923286
 31
0.0
  0
LINE
  8
0
 62
     0
 10
12.0702
 20
0.923286
 30
0.0
 11
11.785
 21
1.14653
 31
0.0
  0
LINE
  8
0
 62
     0
 10
11.785
 20
1.14653
 30
0.0
 11
11.3716
 21
1.16996
 31
0.0
  0
LINE
  8
0
 62
     0
 10
11.3716
 20
1.16996
 30
0.0
 11
10.8906
 21
1.00735
 31
0.0
  0
LINE
  8
0
 62
     0
 10
10.8906
 20
1.00735
 30
0.0
 11
10.4028
 21
0.664214
 31
0.0
  0
LINE
  8
0
 62
     0
 10
10.4028
 20
0.664214
 30
0.0
 11
9.62424
 21
0.219108
 31
0.0
  0
LINE
  8
0
 62
     0
 10
9.62424
 20
0.219108
 30
0.0
 11
8.62789
 21
0.0137804
 31
0.0
  0
LINE
  8
0
 62
     0
 10
8.62789
 20
0.0137804
 30
0.0
 11
7.55992
 21
0.0620116
 31
0.0
  0
LINE
  8
0
 62
     0
 10
7.55992
 20
0.0620116
 30
0.0
 11
6.56223
 21
0.372071
 31
0.0
  0
ENDSEC
  0
EOF
