  0
SECTION
  2
HEADER
  9
$ACADVER
  1
AC1009
  9
$EXTMIN
 10
0.0
 20
0.0
 30
0.0
  9
$EXTMAX
 10
1000.0
 20
1000.0
 30
0.0
  9
$FILLMODE
 70
 0
  9
$SPLFRAME
 70
 1
  0
ENDSEC
  0
SECTION
  2
TABLES
  0
TABLE
  2
LAYER
 70
1
  0
LAYER
  2
0
 70
     0
 62
     7
  6
CONTINUOUS
  0
ENDTAB
  0
ENDSEC
  0
SECTION
  2
ENTITIES
  0
LINE
  8
0
 62
     0
 10
7.08311
 20
0.337619
 30
0.0
 11
6.55394
 21
0.974273
 31
0.0
  0
LINE
  8
0
 62
     0
 10
6.55394
 20
0.974273
 30
0.0
 11
6.49333
 21
1.72806
 31
0.0
  0
LINE
  8
0
 62
     0
 10
6.49333
 20
1.72806
 30
0.0
 11
6.73587
 21
2.54386
 31
0.0
  0
LINE
  8
0
 62
     0
 10
6.73587
 20
2.54386
 30
0.0
 11
7.11482
 21
3.3693
 31
0.0
  0
LINE
  8
0
 62
     0
 10
7.11482
 20
3.3693
 30
0.0
 11
7.46347
 21
4.14927
 31
0.0
  0
LINE
  8
0
 62
     0
 10
7.46347
 20
4.14927
 30
0.0
 11
7.6164
 21
4.83002
 31
0.0
  0
LINE
  8
0
 62
     0
 10
7.6164
 20
4.83002
 30
0.0
 11
7.40833
 21
5.35781
 31
0.0
  0
LINE
  8
0
 62
     0
 10
7.40833
 20
5.35781
 30
0.0
 11
6.67247
 21
5.67612
 31
0.0
  0
LINE
  8
0
 62
     0
 10
6.67247
 20
5.67612
 30
0.0
 11
5.34264
 21
6.93289
 31
0.0
  0
LINE
  8
0
 62
     0
 10
5.34264
 20
6.93289
 30
0.0
 11
3.85851
 21
7.18234
 31
0.0
  0
LINE
  8
0
 62
     0
 10
3.85851
 20
7.18234
 30
0.0
 11
2.31235
 21
7.05143
 31
0.0
  0
LINE
  8
0
 62
     0
 10
2.31235
 20
7.05143
 30
0.0
 11
0.796505
 21
7.16167
 31
0.0
  0
LINE
  8
0
 62
     0
 10
0.796505
 20
7.16167
 30
0.0
 11
0.315571
 21
6.97699
 31
0.0
  0
LINE
  8
0
 62
     0
 10
0.315571
 20
6.97699
 30
0.0
 11
0.115755
 21
7.10103
 31
0.0
  0
LINE
  8
0
 62
     0
 10
0.115755
 20
7.10103
 30
0.0
 11
0.112999
 21
7.4428
 31
0.0
  0
LINE
  8
0
 62
     0
 10
0.112999
 20
7.4428
 30
0.0
 11
0.221864
 21
7.91132
 31
0.0
  0
LINE
  8
0
 62
     0
 10
0.221864
 20
7.91132
 30
0.0
 11
0.358292
 21
8.41431
 31
0.0
  0
LINE
  8
0
 62
     0
 10
0.358292
 20
8.41431
 30
0.0
 11
0.436838
 21
8.86079
 31
0.0
  0
LINE
  8
0
 62
     0
 10
0.436838
 20
8.86079
 30
0.0
 11
0.372071
 21
9.16122
 31
0.0
  0
LINE
  8
0
 62
     0
 10
0.372071
 20
9.16122
 30
0.0
 11
0.0813043
 21
9.22182
 31
0.0
  0
LINE
  8
0
 62
     0
 10
0.0813043
 20
9.22182
 30
0.0
 11
0.296278
 21
9.79921
 31
0.0
  0
LINE
  8
0
 62
     0
 10
0.296278
 20
9.79921
 30
0.0
 11
0.70969
 21
10.4014
 31
0.0
  0
LINE
  8
0
 62
     0
 10
0.70969
 20
10.4014
 30
0.0
 11
1.21267
 21
10.9968
 31
0.0
  0
LINE
  8
0
 62
     0
 10
1.21267
 20
10.9968
 30
0.0
 11
1.69636
 21
11.548
 31
0.0
  0
LINE
  8
0
 62
     0
 10
1.69636
 20
11.548
 30
0.0
 11
2.05052
 21
12.0192
 31
0.0
  0
LINE
  8
0
 62
     0
 10
2.05052
 20
12.0192
 30
0.0
 11
2.16903
 21
12.3762
 31
0.0
  0
LINE
  8
0
 62
     0
 10
2.16903
 20
12.3762
 30
0.0
 11
1.94028
 21
12.5843
 31
0.0
  0
LINE
  8
0
 62
     0
 10
1.94028
 20
12.5843
 30
0.0
 11
1.25815
 21
12.6077
 31
0.0
  0
LINE
  8
0
 62
     0
 10
1.25815
 20
12.6077
 30
0.0
 11
0.755167
 21
12.2053
 31
0.0
  0
LINE
  8
0
 62
     0
 10
0.755167
 20
12.2053
 30
0.0
 11
0.628385
 21
12.1998
 31
0.0
  0
LINE
  8
0
 62
     0
 10
0.628385
 20
12.1998
 30
0.0
 11
0.751032
 21
12.4699
 31
0.0
  0
LINE
  8
0
 62
     0
 10
0.751032
 20
12.4699
 30
0.0
 11
0.999077
 21
12.8874
 31
0.0
  0
LINE
  8
0
 62
     0
 10
0.999077
 20
12.8874
 30
0.0
 11
1.24713
 21
13.327
 31
0.0
  0
LINE
  8
0
 62
     0
 10
1.24713
 20
13.327
 30
0.0
 11
1.37253
 21
13.6646
 31
0.0
  0
LINE
  8
0
 62
     0
 10
1.37253
 20
13.6646
 30
0.0
 11
1.24988
 21
13.7749
 31
0.0
  0
LINE
  8
0
 62
     0
 10
1.24988
 20
13.7749
 30
0.0
 11
0.755167
 21
13.5296
 31
0.0
  0
LINE
  8
0
 62
     0
 10
0.755167
 20
13.5296
 30
0.0
 11
0.118511
 21
13.954
 31
0.0
  0
LINE
  8
0
 62
     0
 10
0.118511
 20
13.954
 30
0.0
 11
0.0165365
 21
14.2641
 31
0.0
  0
LINE
  8
0
 62
     0
 10
0.0165365
 20
14.2641
 30
0.0
 11
0.304546
 21
14.5232
 31
0.0
  0
LINE
  8
0
 62
     0
 10
0.304546
 20
14.5232
 30
0.0
 11
0.840602
 21
14.796
 31
0.0
  0
LINE
  8
0
 62
     0
 10
0.840602
 20
14.796
 30
0.0
 11
1.48277
 21
15.1446
 31
0.0
  0
LINE
  8
0
 62
     0
 10
1.48277
 20
15.1446
 30
0.0
 11
2.08911
 21
15.6325
 31
0.0
  0
LINE
  8
0
 62
     0
 10
2.08911
 20
15.6325
 30
0.0
 11
2.51492
 21
16.3242
 31
0.0
  0
LINE
  8
0
 62
     0
 10
2.51492
 20
16.3242
 30
0.0
 11
2.61827
 21
17.282
 31
0.0
  0
LINE
  8
0
 62
     0
 10
2.61827
 20
17.282
 30
0.0
 11
2.75608
 21
18.1157
 31
0.0
  0
LINE
  8
0
 62
     0
 10
2.75608
 20
18.1157
 30
0.0
 11
2.94762
 21
18.9191
 31
0.0
  0
LINE
  8
0
 62
     0
 10
2.94762
 20
18.9191
 30
0.0
 11
3.1874
 21
19.6371
 31
0.0
  0
LINE
  8
0
 62
     0
 10
3.1874
 20
19.6371
 30
0.0
 11
3.47404
 21
20.2158
 31
0.0
  0
LINE
  8
0
 62
     0
 10
3.47404
 20
20.2158
 30
0.0
 11
3.80199
 21
20.6003
 31
0.0
  0
LINE
  8
0
 62
     0
 10
3.80199
 20
20.6003
 30
0.0
 11
4.16856
 21
20.7339
 31
0.0
  0
LINE
  8
0
 62
     0
 10
4.16856
 20
20.7339
 30
0.0
 11
4.57094
 21
20.5659
 31
0.0
  0
LINE
  8
0
 62
     0
 10
4.57094
 20
20.5659
 30
0.0
 11
5.00503
 21
20.0381
 31
0.0
  0
LINE
  8
0
 62
     0
 10
5.00503
 20
20.0381
 30
0.0
 11
5.10565
 21
21.2659
 31
0.0
  0
LINE
  8
0
 62
     0
 10
5.10565
 20
21.2659
 30
0.0
 11
5.16075
 21
22.2429
 31
0.0
  0
LINE
  8
0
 62
     0
 10
5.16075
 20
22.2429
 30
0.0
 11
5.41154
 21
23.0601
 31
0.0
  0
LINE
  8
0
 62
     0
 10
5.41154
 20
23.0601
 30
0.0
 11
6.09921
 21
23.807
 31
0.0
  0
LINE
  8
0
 62
     0
 10
6.09921
 20
23.807
 30
0.0
 11
7.03763
 21
26.078
 31
0.0
  0
LINE
  8
0
 62
     0
 10
7.03763
 20
26.078
 30
0.0
 11
7.99814
 21
28.6439
 31
0.0
  0
LINE
  8
0
 62
     0
 10
7.99814
 20
28.6439
 30
0.0
 11
8.3275
 21
31.1478
 31
0.0
  0
LINE
  8
0
 62
     0
 10
8.3275
 20
31.1478
 30
0.0
 11
7.37112
 21
33.23
 31
0.0
  0
LINE
  8
0
 62
     0
 10
7.37112
 20
33.23
 30
0.0
 11
7.39733
 21
34.2938
 31
0.0
  0
LINE
  8
0
 62
     0
 10
7.39733
 20
34.2938
 30
0.0
 11
7.68671
 21
35.1758
 31
0.0
  0
LINE
  8
0
 62
     0
 10
7.68671
 20
35.1758
 30
0.0
 11
8.16074
 21
35.8401
 31
0.0
  0
LINE
  8
0
 62
     0
 10
8.16074
 20
35.8401
 30
0.0
 11
8.74088
 21
36.2479
 31
0.0
  0
LINE
  8
0
 62
     0
 10
8.74088
 20
36.2479
 30
0.0
 11
9.34724
 21
36.365
 31
0.0
  0
LINE
  8
0
 62
     0
 10
9.34724
 20
36.365
 30
0.0
 11
9.90258
 21
36.1527
 31
0.0
  0
LINE
  8
0
 62
     0
 10
9.90258
 20
36.1527
 30
0.0
 11
10.3284
 21
35.5755
 31
0.0
  0
LINE
  8
0
 62
     0
 10
10.3284
 20
35.5755
 30
0.0
 11
10.5447
 21
34.5956
 31
0.0
  0
LINE
  8
0
 62
     0
 10
10.5447
 20
34.5956
 30
0.0
 11
11.785
 21
35.5106
 31
0.0
  0
LINE
  8
0
 62
     0
 10
11.785
 20
35.5106
 30
0.0
 11
13.0624
 21
36.6145
 31
0.0
  0
LINE
  8
0
 62
     0
 10
13.0624
 20
36.6145
 30
0.0
 11
14.3164
 21
37.6245
 31
0.0
  0
LINE
  8
0
 62
     0
 10
14.3164
 20
37.6245
 30
0.0
 11
15.4864
 21
38.2531
 31
0.0
  0
LINE
  8
0
 62
     0
 10
15.4864
 20
38.2531
 30
0.0
 11
15.576
 21
39.8653
 31
0.0
  0
LINE
  8
0
 62
     0
 10
15.576
 20
39.8653
 30
0.0
 11
15.6862
 21
41.439
 31
0.0
  0
LINE
  8
0
 62
     0
 10
15.6862
 20
41.439
 30
0.0
 11
15.9784
 21
42.8597
 31
0.0
  0
LINE
  8
0
 62
     0
 10
15.9784
 20
42.8597
 30
0.0
 11
16.6219
 21
44.0171
 31
0.0
  0
LINE
  8
0
 62
     0
 10
16.6219
 20
44.0171
 30
0.0
 11
16.4827
 21
44.487
 31
0.0
  0
LINE
  8
0
 62
     0
 10
16.4827
 20
44.487
 30
0.0
 11
16.5751
 21
44.7668
 31
0.0
  0
LINE
  8
0
 62
     0
 10
16.5751
 20
44.7668
 30
0.0
 11
16.8272
 21
44.9379
 31
0.0
  0
LINE
  8
0
 62
     0
 10
16.8272
 20
44.9379
 30
0.0
 11
17.1649
 21
45.0769
 31
0.0
  0
LINE
  8
0
 62
     0
 10
17.1649
 20
45.0769
 30
0.0
 11
17.5135
 21
45.267
 31
0.0
  0
LINE
  8
0
 62
     0
 10
17.5135
 20
45.267
 30
0.0
 11
17.8001
 21
45.5842
 31
0.0
  0
LINE
  8
0
 62
     0
 10
17.8001
 20
45.5842
 30
0.0
 11
17.9531
 21
46.1105
 31
0.0
  0
LINE
  8
0
 62
     0
 10
17.9531
 20
46.1105
 30
0.0
 11
17.898
 21
46.9223
 31
0.0
  0
LINE
  8
0
 62
     0
 10
17.898
 20
46.9223
 30
0.0
 11
18.0178
 21
48.4904
 31
0.0
  0
LINE
  8
0
 62
     0
 10
18.0178
 20
48.4904
 30
0.0
 11
18.4175
 21
49.9015
 31
0.0
  0
LINE
  8
0
 62
     0
 10
18.4175
 20
49.9015
 30
0.0
 11
18.6325
 21
51.1761
 31
0.0
  0
LINE
  8
0
 62
     0
 10
18.6325
 20
51.1761
 30
0.0
 11
18.2039
 21
52.3392
 31
0.0
  0
LINE
  8
0
 62
     0
 10
18.2039
 20
52.3392
 30
0.0
 11
18.7909
 21
52.2358
 31
0.0
  0
LINE
  8
0
 62
     0
 10
18.7909
 20
52.2358
 30
0.0
 11
19.4923
 21
52.1339
 31
0.0
  0
LINE
  8
0
 62
     0
 10
19.4923
 20
52.1339
 30
0.0
 11
20.2255
 21
51.9769
 31
0.0
  0
LINE
  8
0
 62
     0
 10
20.2255
 20
51.9769
 30
0.0
 11
20.9048
 21
51.7028
 31
0.0
  0
LINE
  8
0
 62
     0
 10
20.9048
 20
51.7028
 30
0.0
 11
21.4492
 21
51.2533
 31
0.0
  0
LINE
  8
0
 62
     0
 10
21.4492
 20
51.2533
 30
0.0
 11
21.7758
 21
50.57
 31
0.0
  0
LINE
  8
0
 62
     0
 10
21.7758
 20
50.57
 30
0.0
 11
21.8006
 21
49.5928
 31
0.0
  0
LINE
  8
0
 62
     0
 10
21.8006
 20
49.5928
 30
0.0
 11
21.4423
 21
48.2618
 31
0.0
  0
LINE
  8
0
 62
     0
 10
21.4423
 20
48.2618
 30
0.0
 11
21.3637
 21
47.3371
 31
0.0
  0
LINE
  8
0
 62
     0
 10
21.3637
 20
47.3371
 30
0.0
 11
21.4657
 21
46.7155
 31
0.0
  0
LINE
  8
0
 62
     0
 10
21.4657
 20
46.7155
 30
0.0
 11
21.7083
 21
46.3543
 31
0.0
  0
LINE
  8
0
 62
     0
 10
21.7083
 20
46.3543
 30
0.0
 11
22.0541
 21
46.2097
 31
0.0
  0
LINE
  8
0
 62
     0
 10
22.0541
 20
46.2097
 30
0.0
 11
22.4634
 21
46.2386
 31
0.0
  0
LINE
  8
0
 62
     0
 10
22.4634
 20
46.2386
 30
0.0
 11
22.8975
 21
46.3973
 31
0.0
  0
LINE
  8
0
 62
     0
 10
22.8975
 20
46.3973
 30
0.0
 11
23.3192
 21
46.6439
 31
0.0
  0
LINE
  8
0
 62
     0
 10
23.3192
 20
46.6439
 30
0.0
 11
23.6885
 21
46.9318
 31
0.0
  0
LINE
  8
0
 62
     0
 10
23.6885
 20
46.9318
 30
0.0
 11
23.5562
 21
46.1423
 31
0.0
  0
LINE
  8
0
 62
     0
 10
23.5562
 20
46.1423
 30
0.0
 11
23.3522
 21
45.0839
 31
0.0
  0
LINE
  8
0
 62
     0
 10
23.3522
 20
45.0839
 30
0.0
 11
23.1386
 21
43.8781
 31
0.0
  0
LINE
  8
0
 62
     0
 10
23.1386
 20
43.8781
 30
0.0
 11
22.9843
 21
42.6491
 31
0.0
  0
LINE
  8
0
 62
     0
 10
22.9843
 20
42.6491
 30
0.0
 11
22.954
 21
41.5177
 31
0.0
  0
LINE
  8
0
 62
     0
 10
22.954
 20
41.5177
 30
0.0
 11
23.1152
 21
40.6054
 31
0.0
  0
LINE
  8
0
 62
     0
 10
23.1152
 20
40.6054
 30
0.0
 11
23.5341
 21
40.036
 31
0.0
  0
LINE
  8
0
 62
     0
 10
23.5341
 20
40.036
 30
0.0
 11
24.2755
 21
39.9313
 31
0.0
  0
LINE
  8
0
 62
     0
 10
24.2755
 20
39.9313
 30
0.0
 11
24.4974
 21
41.5865
 31
0.0
  0
LINE
  8
0
 62
     0
 10
24.4974
 20
41.5865
 30
0.0
 11
24.7675
 21
43.0788
 31
0.0
  0
LINE
  8
0
 62
     0
 10
24.7675
 20
43.0788
 30
0.0
 11
24.9273
 21
44.3812
 31
0.0
  0
LINE
  8
0
 62
     0
 10
24.9273
 20
44.3812
 30
0.0
 11
24.8199
 21
45.4656
 31
0.0
  0
LINE
  8
0
 62
     0
 10
24.8199
 20
45.4656
 30
0.0
 11
24.8088
 21
46.0389
 31
0.0
  0
LINE
  8
0
 62
     0
 10
24.8088
 20
46.0389
 30
0.0
 11
24.7041
 21
46.5804
 31
0.0
  0
LINE
  8
0
 62
     0
 10
24.7041
 20
46.5804
 30
0.0
 11
24.5622
 21
47.0807
 31
0.0
  0
LINE
  8
0
 62
     0
 10
24.5622
 20
47.0807
 30
0.0
 11
24.4437
 21
47.5287
 31
0.0
  0
LINE
  8
0
 62
     0
 10
24.4437
 20
47.5287
 30
0.0
 11
24.4037
 21
47.9143
 31
0.0
  0
LINE
  8
0
 62
     0
 10
24.4037
 20
47.9143
 30
0.0
 11
24.5029
 21
48.2272
 31
0.0
  0
LINE
  8
0
 62
     0
 10
24.5029
 20
48.2272
 30
0.0
 11
24.7978
 21
48.4572
 31
0.0
  0
LINE
  8
0
 62
     0
 10
24.7978
 20
48.4572
 30
0.0
 11
25.3463
 21
48.5923
 31
0.0
  0
LINE
  8
0
 62
     0
 10
25.3463
 20
48.5923
 30
0.0
 11
25.5213
 21
49.4605
 31
0.0
  0
LINE
  8
0
 62
     0
 10
25.5213
 20
49.4605
 30
0.0
 11
25.8341
 21
49.9001
 31
0.0
  0
LINE
  8
0
 62
     0
 10
25.8341
 20
49.9001
 30
0.0
 11
26.2461
 21
50.1745
 31
0.0
  0
LINE
  8
0
 62
     0
 10
26.2461
 20
50.1745
 30
0.0
 11
26.716
 21
50.5425
 31
0.0
  0
LINE
  8
0
 62
     0
 10
26.716
 20
50.5425
 30
0.0
 11
26.8911
 21
49.7995
 31
0.0
  0
LINE
  8
0
 62
     0
 10
26.8911
 20
49.7995
 30
0.0
 11
27.0991
 21
49.3945
 31
0.0
  0
LINE
  8
0
 62
     0
 10
27.0991
 20
49.3945
 30
0.0
 11
27.3293
 21
49.2746
 31
0.0
  0
LINE
  8
0
 62
     0
 10
27.3293
 20
49.2746
 30
0.0
 11
27.5787
 21
49.3903
 31
0.0
  0
LINE
  8
0
 62
     0
 10
27.5787
 20
49.3903
 30
0.0
 11
27.8378
 21
49.6947
 31
0.0
  0
LINE
  8
0
 62
     0
 10
27.8378
 20
49.6947
 30
0.0
 11
28.0996
 21
50.1357
 31
0.0
  0
LINE
  8
0
 62
     0
 10
28.0996
 20
50.1357
 30
0.0
 11
28.3573
 21
50.6621
 31
0.0
  0
LINE
  8
0
 62
     0
 10
28.3573
 20
50.6621
 30
0.0
 11
28.6053
 21
51.2272
 31
0.0
  0
LINE
  8
0
 62
     0
 10
28.6053
 20
51.2272
 30
0.0
 11
28.8355
 21
51.7797
 31
0.0
  0
LINE
  8
0
 62
     0
 10
28.8355
 20
51.7797
 30
0.0
 11
29.0408
 21
52.2704
 31
0.0
  0
LINE
  8
0
 62
     0
 10
29.0408
 20
52.2704
 30
0.0
 11
29.2144
 21
52.6479
 31
0.0
  0
LINE
  8
0
 62
     0
 10
29.2144
 20
52.6479
 30
0.0
 11
29.3495
 21
52.863
 31
0.0
  0
LINE
  8
0
 62
     0
 10
29.3495
 20
52.863
 30
0.0
 11
29.4404
 21
52.8669
 31
0.0
  0
LINE
  8
0
 62
     0
 10
29.4404
 20
52.8669
 30
0.0
 11
29.4776
 21
52.608
 31
0.0
  0
LINE
  8
0
 62
     0
 10
29.4776
 20
52.608
 30
0.0
 11
29.4556
 21
52.039
 31
0.0
  0
LINE
  8
0
 62
     0
 10
29.4556
 20
52.039
 30
0.0
 11
29.3674
 21
51.1059
 31
0.0
  0
LINE
  8
0
 62
     0
 10
29.3674
 20
51.1059
 30
0.0
 11
29.8469
 21
49.1917
 31
0.0
  0
LINE
  8
0
 62
     0
 10
29.8469
 20
49.1917
 30
0.0
 11
30.0454
 21
47.2708
 31
0.0
  0
LINE
  8
0
 62
     0
 10
30.0454
 20
47.2708
 30
0.0
 11
29.7174
 21
45.5249
 31
0.0
  0
LINE
  8
0
 62
     0
 10
29.7174
 20
45.5249
 30
0.0
 11
28.6218
 21
44.1318
 31
0.0
  0
LINE
  8
0
 62
     0
 10
28.6218
 20
44.1318
 30
0.0
 11
27.3858
 21
42.2645
 31
0.0
  0
LINE
  8
0
 62
     0
 10
27.3858
 20
42.2645
 30
0.0
 11
26.4859
 21
39.9838
 31
0.0
  0
LINE
  8
0
 62
     0
 10
26.4859
 20
39.9838
 30
0.0
 11
26.1345
 21
37.4357
 31
0.0
  0
LINE
  8
0
 62
     0
 10
26.1345
 20
37.4357
 30
0.0
 11
26.5438
 21
34.7624
 31
0.0
  0
LINE
  8
0
 62
     0
 10
26.5438
 20
34.7624
 30
0.0
 11
26.7918
 21
34.0045
 31
0.0
  0
LINE
  8
0
 62
     0
 10
26.7918
 20
34.0045
 30
0.0
 11
27.0592
 21
33.0743
 31
0.0
  0
LINE
  8
0
 62
     0
 10
27.0592
 20
33.0743
 30
0.0
 11
27.2907
 21
32.0835
 31
0.0
  0
LINE
  8
0
 62
     0
 10
27.2907
 20
32.0835
 30
0.0
 11
27.4367
 21
31.1437
 31
0.0
  0
LINE
  8
0
 62
     0
 10
27.4367
 20
31.1437
 30
0.0
 11
27.4464
 21
30.3637
 31
0.0
  0
LINE
  8
0
 62
     0
 10
27.4464
 20
30.3637
 30
0.0
 11
27.2686
 21
29.8566
 31
0.0
  0
LINE
  8
0
 62
     0
 10
27.2686
 20
29.8566
 30
0.0
 11
26.8511
 21
29.7312
 31
0.0
  0
LINE
  8
0
 62
     0
 10
26.8511
 20
29.7312
 30
0.0
 11
26.1441
 21
30.0991
 31
0.0
  0
LINE
  8
0
 62
     0
 10
26.1441
 20
30.0991
 30
0.0
 11
25.615
 21
30.456
 31
0.0
  0
LINE
  8
0
 62
     0
 10
25.615
 20
30.456
 30
0.0
 11
25.112
 21
30.5745
 31
0.0
  0
LINE
  8
0
 62
     0
 10
25.112
 20
30.5745
 30
0.0
 11
24.6738
 21
30.4822
 31
0.0
  0
LINE
  8
0
 62
     0
 10
24.6738
 20
30.4822
 30
0.0
 11
24.3403
 21
30.2038
 31
0.0
  0
LINE
  8
0
 62
     0
 10
24.3403
 20
30.2038
 30
0.0
 11
24.146
 21
29.767
 31
0.0
  0
LINE
  8
0
 62
     0
 10
24.146
 20
29.767
 30
0.0
 11
24.1322
 21
29.1951
 31
0.0
  0
LINE
  8
0
 62
     0
 10
24.1322
 20
29.1951
 30
0.0
 11
24.3348
 21
28.5157
 31
0.0
  0
LINE
  8
0
 62
     0
 10
24.3348
 20
28.5157
 30
0.0
 11
24.7937
 21
27.7537
 31
0.0
  0
LINE
  8
0
 62
     0
 10
24.7937
 20
27.7537
 30
0.0
 11
25.1643
 21
27.0674
 31
0.0
  0
LINE
  8
0
 62
     0
 10
25.1643
 20
27.0674
 30
0.0
 11
25.3435
 21
26.5162
 31
0.0
  0
LINE
  8
0
 62
     0
 10
25.3435
 20
26.5162
 30
0.0
 11
25.3518
 21
26.0931
 31
0.0
  0
LINE
  8
0
 62
     0
 10
25.3518
 20
26.0931
 30
0.0
 11
25.2167
 21
25.79
 31
0.0
  0
LINE
  8
0
 62
     0
 10
25.2167
 20
25.79
 30
0.0
 11
24.9604
 21
25.6026
 31
0.0
  0
LINE
  8
0
 62
     0
 10
24.9604
 20
25.6026
 30
0.0
 11
24.609
 21
25.524
 31
0.0
  0
LINE
  8
0
 62
     0
 10
24.609
 20
25.524
 30
0.0
 11
24.1873
 21
25.5461
 31
0.0
  0
LINE
  8
0
 62
     0
 10
24.1873
 20
25.5461
 30
0.0
 11
23.7202
 21
25.6632
 31
0.0
  0
LINE
  8
0
 62
     0
 10
23.7202
 20
25.6632
 30
0.0
 11
22.524
 21
24.8474
 31
0.0
  0
LINE
  8
0
 62
     0
 10
22.524
 20
24.8474
 30
0.0
 11
21.6338
 21
23.7505
 31
0.0
  0
LINE
  8
0
 62
     0
 10
21.6338
 20
23.7505
 30
0.0
 11
21.186
 21
22.2512
 31
0.0
  0
LINE
  8
0
 62
     0
 10
21.186
 20
22.2512
 30
0.0
 11
21.3169
 21
20.2255
 31
0.0
  0
LINE
  8
0
 62
     0
 10
21.3169
 20
20.2255
 30
0.0
 11
21.1308
 21
19.5364
 31
0.0
  0
LINE
  8
0
 62
     0
 10
21.1308
 20
19.5364
 30
0.0
 11
20.7381
 21
19.2112
 31
0.0
  0
LINE
  8
0
 62
     0
 10
20.7381
 20
19.2112
 30
0.0
 11
20.2337
 21
19.1272
 31
0.0
  0
LINE
  8
0
 62
     0
 10
20.2337
 20
19.1272
 30
0.0
 11
19.7156
 21
19.1644
 31
0.0
  0
LINE
  8
0
 62
     0
 10
19.7156
 20
19.1644
 30
0.0
 11
19.2815
 21
19.2016
 31
0.0
  0
LINE
  8
0
 62
     0
 10
19.2815
 20
19.2016
 30
0.0
 11
19.0266
 21
19.1161
 31
0.0
  0
LINE
  8
0
 62
     0
 10
19.0266
 20
19.1161
 30
0.0
 11
19.0514
 21
18.7854
 31
0.0
  0
LINE
  8
0
 62
     0
 10
19.0514
 20
18.7854
 30
0.0
 11
19.451
 21
18.0895
 31
0.0
  0
LINE
  8
0
 62
     0
 10
19.451
 20
18.0895
 30
0.0
 11
17.8814
 21
14.5989
 31
0.0
  0
LINE
  8
0
 62
     0
 10
17.8814
 20
14.5989
 30
0.0
 11
16.8465
 21
10.841
 31
0.0
  0
LINE
  8
0
 62
     0
 10
16.8465
 20
10.841
 30
0.0
 11
16.2388
 21
10.5241
 31
0.0
  0
LINE
  8
0
 62
     0
 10
16.2388
 20
10.5241
 30
0.0
 11
15.7055
 21
10.6371
 31
0.0
  0
LINE
  8
0
 62
     0
 10
15.7055
 20
10.6371
 30
0.0
 11
15.2397
 21
11.0064
 31
0.0
  0
LINE
  8
0
 62
     0
 10
15.2397
 20
11.0064
 30
0.0
 11
14.8401
 21
11.4598
 31
0.0
  0
LINE
  8
0
 62
     0
 10
14.8401
 20
11.4598
 30
0.0
 11
14.5039
 21
11.8249
 31
0.0
  0
LINE
  8
0
 62
     0
 10
14.5039
 20
11.8249
 30
0.0
 11
14.2269
 21
11.9283
 31
0.0
  0
LINE
  8
0
 62
     0
 10
14.2269
 20
11.9283
 30
0.0
 11
14.0064
 21
11.5962
 31
0.0
  0
LINE
  8
0
 62
     0
 10
14.0064
 20
11.5962
 30
0.0
 11
13.8396
 21
10.6564
 31
0.0
  0
LINE
  8
0
 62
     0
 10
13.8396
 20
10.6564
 30
0.0
 11
13.9471
 21
9.95772
 31
0.0
  0
LINE
  8
0
 62
     0
 10
13.9471
 20
9.95772
 30
0.0
 11
13.9209
 21
9.42717
 31
0.0
  0
LINE
  8
0
 62
     0
 10
13.9209
 20
9.42717
 30
0.0
 11
13.7886
 21
9.03993
 31
0.0
  0
LINE
  8
0
 62
     0
 10
13.7886
 20
9.03993
 30
0.0
 11
13.5819
 21
8.76847
 31
0.0
  0
LINE
  8
0
 62
     0
 10
13.5819
 20
8.76847
 30
0.0
 11
13.3312
 21
8.58933
 31
0.0
  0
LINE
  8
0
 62
     0
 10
13.3312
 20
8.58933
 30
0.0
 11
13.0666
 21
8.47355
 31
0.0
  0
LINE
  8
0
 62
     0
 10
13.0666
 20
8.47355
 30
0.0
 11
12.8171
 21
8.39777
 31
0.0
  0
LINE
  8
0
 62
     0
 10
12.8171
 20
8.39777
 30
0.0
 11
12.6146
 21
8.333
 31
0.0
  0
LINE
  8
0
 62
     0
 10
12.6146
 20
8.333
 30
0.0
 11
13.0238
 21
7.76937
 31
0.0
  0
LINE
  8
0
 62
     0
 10
13.0238
 20
7.76937
 30
0.0
 11
13.0803
 21
7.22644
 31
0.0
  0
LINE
  8
0
 62
     0
 10
13.0803
 20
7.22644
 30
0.0
 11
12.8819
 21
6.68348
 31
0.0
  0
LINE
  8
0
 62
     0
 10
12.8819
 20
6.68348
 30
0.0
 11
12.5209
 21
6.11988
 31
0.0
  0
LINE
  8
0
 62
     0
 10
12.5209
 20
6.11988
 30
0.0
 11
12.0951
 21
5.51353
 31
0.0
  0
LINE
  8
0
 62
     0
 10
12.0951
 20
5.51353
 30
0.0
 11
11.6996
 21
4.84382
 31
0.0
  0
LINE
  8
0
 62
     0
 10
11.6996
 20
4.84382
 30
0.0
 11
11.4281
 21
4.08725
 31
0.0
  0
LINE
  8
0
 62
     0
 10
11.4281
 20
4.08725
 30
0.0
 11
11.3785
 21
3.22461
 31
0.0
  0
LINE
  8
0
 62
     0
 10
11.3785
 20
3.22461
 30
0.0
 11
11.1883
 21
2.81947
 31
0.0
  0
LINE
  8
0
 62
     0
 10
11.1883
 20
2.81947
 30
0.0
 11
10.9127
 21
2.40054
 31
0.0
  0
LINE
  8
0
 62
     0
 10
10.9127
 20
2.40054
 30
0.0
 11
10.6054
 21
2.02572
 31
0.0
  0
LINE
  8
0
 62
     0
 10
10.6054
 20
2.02572
 30
0.0
 11
10.3201
 21
1.74873
 31
0.0
  0
LINE
  8
0
 62
     0
 10
10.3201
 20
1.74873
 30
0.0
 11
10.1093
 21
1.62333
 31
0.0
  0
LINE
  8
0
 62
     0
 10
10.1093
 20
1.62333
 30
0.0
 11
10.0294
 21
1.70601
 31
0.0
  0
LINE
  8
0
 62
     0
 10
10.0294
 20
1.70601
 30
0.0
 11
10.1314
 21
2.05052
 31
0.0
  0
LINE
  8
0
 62
     0
 10
10.1314
 20
2.05052
 30
0.0
 11
10.4717
 21
2.7106
 31
0.0
  0
LINE
  8
0
 62
     0
 10
10.4717
 20
2.7106
 30
0.0
 11
10.1823
 21
4.04731
 31
0.0
  0
LINE
  8
0
 62
     0
 10
10.1823
 20
4.04731
 30
0.0
 11
9.7579
 21
4.60954
 31
0.0
  0
LINE
  8
0
 62
     0
 10
9.7579
 20
4.60954
 30
0.0
 11
9.24662
 21
4.54339
 31
0.0
  0
LINE
  8
0
 62
     0
 10
9.24662
 20
4.54339
 30
0.0
 11
8.69957
 21
4.00043
 31
0.0
  0
LINE
  8
0
 62
     0
 10
8.69957
 20
4.00043
 30
0.0
 11
8.16624
 21
3.12539
 31
0.0
  0
LINE
  8
0
 62
     0
 10
8.16624
 20
3.12539
 30
0.0
 11
7.69634
 21
2.06843
 31
0.0
  0
LINE
  8
0
 62
     0
 10
7.69634
 20
2.06843
 30
0.0
 11
7.33944
 21
0.978408
 31
0.0
  0
LINE
  8
0
 62
     0
 10
7.33944
 20
0.978408
 30
0.0
 11
7.1465
 21
0.00137804
 31
0.0
  0
LINE
  8
0
 62
     0
 10
7.1465
 20
0.00137804
 30
0.0
 11
7.08311
 21
0.337619
 31
0.0
  0
ENDSEC
  0
EOF
