  0
SECTION
  2
HEADER
  9
$ACADVER
  1
AC1009
  9
$EXTMIN
 10
0.0
 20
0.0
 30
0.0
  9
$EXTMAX
 10
1000.0
 20
1000.0
 30
0.0
  9
$FILLMODE
 70
 0
  9
$SPLFRAME
 70
 1
  0
ENDSEC
  0
SECTION
  2
TABLES
  0
TABLE
  2
LAYER
 70
1
  0
LAYER
  2
0
 70
     0
 62
     7
  6
CONTINUOUS
  0
ENDTAB
  0
ENDSEC
  0
SECTION
  2
ENTITIES
  0
LINE
  8
0
 62
     0
 10
5.91866
 20
0.428569
 30
0.0
 11
5.35781
 21
0.876434
 31
0.0
  0
LINE
  8
0
 62
     0
 10
5.35781
 20
0.876434
 30
0.0
 11
4.99262
 21
1.28157
 31
0.0
  0
LINE
  8
0
 62
     0
 10
4.99262
 20
1.28157
 30
0.0
 11
4.75149
 21
1.49931
 31
0.0
  0
LINE
  8
0
 62
     0
 10
4.75149
 20
1.49931
 30
0.0
 11
4.49792
 21
1.4938
 31
0.0
  0
LINE
  8
0
 62
     0
 10
4.49792
 20
1.4938
 30
0.0
 11
4.31052
 21
1.47037
 31
0.0
  0
LINE
  8
0
 62
     0
 10
4.31052
 20
1.47037
 30
0.0
 11
4.23333
 21
1.64538
 31
0.0
  0
LINE
  8
0
 62
     0
 10
4.23333
 20
1.64538
 30
0.0
 11
4.14927
 21
1.81763
 31
0.0
  0
LINE
  8
0
 62
     0
 10
4.14927
 20
1.81763
 30
0.0
 11
3.95083
 21
1.78594
 31
0.0
  0
LINE
  8
0
 62
     0
 10
3.95083
 20
1.78594
 30
0.0
 11
3.75102
 21
1.76251
 31
0.0
  0
LINE
  8
0
 62
     0
 10
3.75102
 20
1.76251
 30
0.0
 11
3.66832
 21
1.94717
 31
0.0
  0
LINE
  8
0
 62
     0
 10
3.66832
 20
1.94717
 30
0.0
 11
3.32107
 21
2.1649
 31
0.0
  0
LINE
  8
0
 62
     0
 10
3.32107
 20
2.1649
 30
0.0
 11
2.18695
 21
2.11529
 31
0.0
  0
LINE
  8
0
 62
     0
 10
2.18695
 20
2.11529
 30
0.0
 11
1.22232
 21
2.05466
 31
0.0
  0
LINE
  8
0
 62
     0
 10
1.22232
 20
2.05466
 30
0.0
 11
1.27055
 21
2.19935
 31
0.0
  0
LINE
  8
0
 62
     0
 10
1.27055
 20
2.19935
 30
0.0
 11
1.63298
 21
2.40743
 31
0.0
  0
LINE
  8
0
 62
     0
 10
1.63298
 20
2.40743
 30
0.0
 11
1.35737
 21
2.4722
 31
0.0
  0
LINE
  8
0
 62
     0
 10
1.35737
 20
2.4722
 30
0.0
 11
0.967384
 21
2.4033
 31
0.0
  0
LINE
  8
0
 62
     0
 10
0.967384
 20
2.4033
 30
0.0
 11
0.7028
 21
2.20486
 31
0.0
  0
LINE
  8
0
 62
     0
 10
0.7028
 20
2.20486
 30
0.0
 11
0.48369
 21
2.03261
 31
0.0
  0
LINE
  8
0
 62
     0
 10
0.48369
 20
2.03261
 30
0.0
 11
0.254937
 21
2.10151
 31
0.0
  0
LINE
  8
0
 62
     0
 10
0.254937
 20
2.10151
 30
0.0
 11
0.0730359
 21
2.36609
 31
0.0
  0
LINE
  8
0
 62
     0
 10
0.0730359
 20
2.36609
 30
0.0
 11
0
 21
2.77537
 31
0.0
  0
LINE
  8
0
 62
     0
 10
0
 20
2.77537
 30
0.0
 11
0.354157
 21
3.55395
 31
0.0
  0
LINE
  8
0
 62
     0
 10
0.354157
 20
3.55395
 30
0.0
 11
1.2485
 21
4.03077
 31
0.0
  0
LINE
  8
0
 62
     0
 10
1.2485
 20
4.03077
 30
0.0
 11
2.42397
 21
4.13551
 31
0.0
  0
LINE
  8
0
 62
     0
 10
2.42397
 20
4.13551
 30
0.0
 11
3.6256
 21
3.79649
 31
0.0
  0
LINE
  8
0
 62
     0
 10
3.6256
 20
3.79649
 30
0.0
 11
4.37526
 21
3.41891
 31
0.0
  0
LINE
  8
0
 62
     0
 10
4.37526
 20
3.41891
 30
0.0
 11
5.12632
 21
3.05511
 31
0.0
  0
LINE
  8
0
 62
     0
 10
5.12632
 20
3.05511
 30
0.0
 11
5.69817
 21
2.65135
 31
0.0
  0
LINE
  8
0
 62
     0
 10
5.69817
 20
2.65135
 30
0.0
 11
6.01789
 21
2.17317
 31
0.0
  0
LINE
  8
0
 62
     0
 10
6.01789
 20
2.17317
 30
0.0
 11
6.2315
 21
1.82728
 31
0.0
  0
LINE
  8
0
 62
     0
 10
6.2315
 20
1.82728
 30
0.0
 11
6.57737
 21
1.80385
 31
0.0
  0
LINE
  8
0
 62
     0
 10
6.57737
 20
1.80385
 30
0.0
 11
6.93706
 21
1.81626
 31
0.0
  0
LINE
  8
0
 62
     0
 10
6.93706
 20
1.81626
 30
0.0
 11
7.21402
 21
1.61644
 31
0.0
  0
LINE
  8
0
 62
     0
 10
7.21402
 20
1.61644
 30
0.0
 11
7.26362
 21
1.39458
 31
0.0
  0
LINE
  8
0
 62
     0
 10
7.26362
 20
1.39458
 30
0.0
 11
6.93843
 21
1.45521
 31
0.0
  0
LINE
  8
0
 62
     0
 10
6.93843
 20
1.45521
 30
0.0
 11
6.68898
 21
1.52411
 31
0.0
  0
LINE
  8
0
 62
     0
 10
6.68898
 20
1.52411
 30
0.0
 11
6.56636
 21
1.46072
 31
0.0
  0
LINE
  8
0
 62
     0
 10
6.56636
 20
1.46072
 30
0.0
 11
6.55256
 21
1.23059
 31
0.0
  0
LINE
  8
0
 62
     0
 10
6.55256
 20
1.23059
 30
0.0
 11
6.6325
 21
0.797885
 31
0.0
  0
LINE
  8
0
 62
     0
 10
6.6325
 20
0.797885
 30
0.0
 11
6.74
 21
0.235645
 31
0.0
  0
LINE
  8
0
 62
     0
 10
6.74
 20
0.235645
 30
0.0
 11
6.70003
 21
0.00826823
 31
0.0
  0
LINE
  8
0
 62
     0
 10
6.70003
 20
0.00826823
 30
0.0
 11
6.44645
 21
0.0840602
 31
0.0
  0
LINE
  8
0
 62
     0
 10
6.44645
 20
0.0840602
 30
0.0
 11
5.91866
 21
0.428569
 31
0.0
  0
ENDSEC
  0
EOF
