  0
SECTION
  2
HEADER
  9
$ACADVER
  1
AC1009
  9
$EXTMIN
 10
0.0
 20
0.0
 30
0.0
  9
$EXTMAX
 10
1000.0
 20
1000.0
 30
0.0
  9
$FILLMODE
 70
 0
  9
$SPLFRAME
 70
 1
  0
ENDSEC
  0
SECTION
  2
TABLES
  0
TABLE
  2
LAYER
 70
1
  0
LAYER
  2
0
 70
     0
 62
     7
  6
CONTINUOUS
  0
ENDTAB
  0
ENDSEC
  0
SECTION
  2
ENTITIES
  0
LINE
  8
0
 62
     0
 10
22.1795
 20
0.249425
 30
0.0
 11
22.0279
 21
0.458886
 31
0.0
  0
LINE
  8
0
 62
     0
 10
22.0279
 20
0.458886
 30
0.0
 11
21.9384
 21
0.613227
 31
0.0
  0
LINE
  8
0
 62
     0
 10
21.9384
 20
0.613227
 30
0.0
 11
21.7592
 21
0.494714
 31
0.0
  0
LINE
  8
0
 62
     0
 10
21.7592
 20
0.494714
 30
0.0
 11
21.689
 21
0.381716
 31
0.0
  0
LINE
  8
0
 62
     0
 10
21.689
 20
0.381716
 30
0.0
 11
21.3513
 21
0.540191
 31
0.0
  0
LINE
  8
0
 62
     0
 10
21.3513
 20
0.540191
 30
0.0
 11
20.9765
 21
0.705556
 31
0.0
  0
LINE
  8
0
 62
     0
 10
20.9765
 20
0.705556
 30
0.0
 11
20.6485
 21
0.773081
 31
0.0
  0
LINE
  8
0
 62
     0
 10
20.6485
 20
0.773081
 30
0.0
 11
20.3509
 21
0.921907
 31
0.0
  0
LINE
  8
0
 62
     0
 10
20.3509
 20
0.921907
 30
0.0
 11
20.0629
 21
1.13826
 31
0.0
  0
LINE
  8
0
 62
     0
 10
20.0629
 20
1.13826
 30
0.0
 11
19.7005
 21
0.992188
 31
0.0
  0
LINE
  8
0
 62
     0
 10
19.7005
 20
0.992188
 30
0.0
 11
19.5654
 21
0.847492
 31
0.0
  0
LINE
  8
0
 62
     0
 10
19.5654
 20
0.847492
 30
0.0
 11
19.2774
 21
0.909507
 31
0.0
  0
LINE
  8
0
 62
     0
 10
19.2774
 20
0.909507
 30
0.0
 11
18.9439
 21
1.21681
 31
0.0
  0
LINE
  8
0
 62
     0
 10
18.9439
 20
1.21681
 30
0.0
 11
18.8268
 21
1.40147
 31
0.0
  0
LINE
  8
0
 62
     0
 10
18.8268
 20
1.40147
 30
0.0
 11
18.547
 21
1.59301
 31
0.0
  0
LINE
  8
0
 62
     0
 10
18.547
 20
1.59301
 30
0.0
 11
17.8401
 21
2.18006
 31
0.0
  0
LINE
  8
0
 62
     0
 10
17.8401
 20
2.18006
 30
0.0
 11
17.4267
 21
3.00964
 31
0.0
  0
LINE
  8
0
 62
     0
 10
17.4267
 20
3.00964
 30
0.0
 11
17.2972
 21
3.40513
 31
0.0
  0
LINE
  8
0
 62
     0
 10
17.2972
 20
3.40513
 30
0.0
 11
17.1469
 21
3.68212
 31
0.0
  0
LINE
  8
0
 62
     0
 10
17.1469
 20
3.68212
 30
0.0
 11
17.1938
 21
4.02939
 31
0.0
  0
LINE
  8
0
 62
     0
 10
17.1938
 20
4.02939
 30
0.0
 11
17.3233
 21
4.27193
 31
0.0
  0
LINE
  8
0
 62
     0
 10
17.3233
 20
4.27193
 30
0.0
 11
17.315
 21
4.66467
 31
0.0
  0
LINE
  8
0
 62
     0
 10
17.315
 20
4.66467
 30
0.0
 11
17.293
 21
5.05739
 31
0.0
  0
LINE
  8
0
 62
     0
 10
17.293
 20
5.05739
 30
0.0
 11
17.5562
 21
5.08222
 31
0.0
  0
LINE
  8
0
 62
     0
 10
17.5562
 20
5.08222
 30
0.0
 11
17.8332
 21
5.1332
 31
0.0
  0
LINE
  8
0
 62
     0
 10
17.8332
 20
5.1332
 30
0.0
 11
17.8869
 21
5.66512
 31
0.0
  0
LINE
  8
0
 62
     0
 10
17.8869
 20
5.66512
 30
0.0
 11
17.8318
 21
6.17224
 31
0.0
  0
LINE
  8
0
 62
     0
 10
17.8318
 20
6.17224
 30
0.0
 11
17.6334
 21
6.31141
 31
0.0
  0
LINE
  8
0
 62
     0
 10
17.6334
 20
6.31141
 30
0.0
 11
17.2641
 21
6.44232
 31
0.0
  0
LINE
  8
0
 62
     0
 10
17.2641
 20
6.44232
 30
0.0
 11
17.4294
 21
6.7262
 31
0.0
  0
LINE
  8
0
 62
     0
 10
17.4294
 20
6.7262
 30
0.0
 11
17.6982
 21
7.152
 31
0.0
  0
LINE
  8
0
 62
     0
 10
17.6982
 20
7.152
 30
0.0
 11
17.3922
 21
7.56818
 31
0.0
  0
LINE
  8
0
 62
     0
 10
17.3922
 20
7.56818
 30
0.0
 11
17.1841
 21
7.74732
 31
0.0
  0
LINE
  8
0
 62
     0
 10
17.1841
 20
7.74732
 30
0.0
 11
17.2847
 21
7.8824
 31
0.0
  0
LINE
  8
0
 62
     0
 10
17.2847
 20
7.8824
 30
0.0
 11
17.4032
 21
8.17178
 31
0.0
  0
LINE
  8
0
 62
     0
 10
17.4032
 20
8.17178
 30
0.0
 11
17.4088
 21
8.69678
 31
0.0
  0
LINE
  8
0
 62
     0
 10
17.4088
 20
8.69678
 30
0.0
 11
17.3164
 21
9.25767
 31
0.0
  0
LINE
  8
0
 62
     0
 10
17.3164
 20
9.25767
 30
0.0
 11
17.1428
 21
9.65316
 31
0.0
  0
LINE
  8
0
 62
     0
 10
17.1428
 20
9.65316
 30
0.0
 11
16.9209
 21
10.079
 31
0.0
  0
LINE
  8
0
 62
     0
 10
16.9209
 20
10.079
 30
0.0
 11
16.7239
 21
10.5296
 31
0.0
  0
LINE
  8
0
 62
     0
 10
16.7239
 20
10.5296
 30
0.0
 11
16.3325
 21
11.2655
 31
0.0
  0
LINE
  8
0
 62
     0
 10
16.3325
 20
11.2655
 30
0.0
 11
15.8929
 21
12.0247
 31
0.0
  0
LINE
  8
0
 62
     0
 10
15.8929
 20
12.0247
 30
0.0
 11
15.5498
 21
12.5415
 31
0.0
  0
LINE
  8
0
 62
     0
 10
15.5498
 20
12.5415
 30
0.0
 11
15.2673
 21
12.8984
 31
0.0
  0
LINE
  8
0
 62
     0
 10
15.2673
 20
12.8984
 30
0.0
 11
14.9448
 21
13.3091
 31
0.0
  0
LINE
  8
0
 62
     0
 10
14.9448
 20
13.3091
 30
0.0
 11
14.3702
 21
13.8452
 31
0.0
  0
LINE
  8
0
 62
     0
 10
14.3702
 20
13.8452
 30
0.0
 11
13.4813
 21
14.4997
 31
0.0
  0
LINE
  8
0
 62
     0
 10
13.4813
 20
14.4997
 30
0.0
 11
12.6821
 21
15.0799
 31
0.0
  0
LINE
  8
0
 62
     0
 10
12.6821
 20
15.0799
 30
0.0
 11
12.3238
 21
15.4354
 31
0.0
  0
LINE
  8
0
 62
     0
 10
12.3238
 20
15.4354
 30
0.0
 11
12.0317
 21
16.1575
 31
0.0
  0
LINE
  8
0
 62
     0
 10
12.0317
 20
16.1575
 30
0.0
 11
11.4915
 21
16.9072
 31
0.0
  0
LINE
  8
0
 62
     0
 10
11.4915
 20
16.9072
 30
0.0
 11
11.1593
 21
17.322
 31
0.0
  0
LINE
  8
0
 62
     0
 10
11.1593
 20
17.322
 30
0.0
 11
11.0229
 21
17.5714
 31
0.0
  0
LINE
  8
0
 62
     0
 10
11.0229
 20
17.5714
 30
0.0
 11
10.6715
 21
17.8373
 31
0.0
  0
LINE
  8
0
 62
     0
 10
10.6715
 20
17.8373
 30
0.0
 11
10.3188
 21
18.1115
 31
0.0
  0
LINE
  8
0
 62
     0
 10
10.3188
 20
18.1115
 30
0.0
 11
10.1479
 21
18.1874
 31
0.0
  0
LINE
  8
0
 62
     0
 10
10.1479
 20
18.1874
 30
0.0
 11
9.8323
 21
18.2438
 31
0.0
  0
LINE
  8
0
 62
     0
 10
9.8323
 20
18.2438
 30
0.0
 11
9.36928
 21
18.4602
 31
0.0
  0
LINE
  8
0
 62
     0
 10
9.36928
 20
18.4602
 30
0.0
 11
8.96691
 21
18.7234
 31
0.0
  0
LINE
  8
0
 62
     0
 10
8.96691
 20
18.7234
 30
0.0
 11
8.83599
 21
18.915
 31
0.0
  0
LINE
  8
0
 62
     0
 10
8.83599
 20
18.915
 30
0.0
 11
8.76018
 21
19.0927
 31
0.0
  0
LINE
  8
0
 62
     0
 10
8.76018
 20
19.0927
 30
0.0
 11
8.47217
 21
19.3477
 31
0.0
  0
LINE
  8
0
 62
     0
 10
8.47217
 20
19.3477
 30
0.0
 11
8.16074
 21
19.6205
 31
0.0
  0
LINE
  8
0
 62
     0
 10
8.16074
 20
19.6205
 30
0.0
 11
8.0312
 21
19.8424
 31
0.0
  0
LINE
  8
0
 62
     0
 10
8.0312
 20
19.8424
 30
0.0
 11
7.9375
 21
20.0877
 31
0.0
  0
LINE
  8
0
 62
     0
 10
7.9375
 20
20.0877
 30
0.0
 11
7.71151
 21
20.366
 31
0.0
  0
LINE
  8
0
 62
     0
 10
7.71151
 20
20.366
 30
0.0
 11
7.43589
 21
20.5934
 31
0.0
  0
LINE
  8
0
 62
     0
 10
7.43589
 20
20.5934
 30
0.0
 11
7.19473
 21
20.6871
 31
0.0
  0
LINE
  8
0
 62
     0
 10
7.19473
 20
20.6871
 30
0.0
 11
6.97562
 21
20.8277
 31
0.0
  0
LINE
  8
0
 62
     0
 10
6.97562
 20
20.8277
 30
0.0
 11
6.74275
 21
21.033
 31
0.0
  0
LINE
  8
0
 62
     0
 10
6.74275
 20
21.033
 30
0.0
 11
6.18324
 21
21.3265
 31
0.0
  0
LINE
  8
0
 62
     0
 10
6.18324
 20
21.3265
 30
0.0
 11
5.62377
 21
21.6379
 31
0.0
  0
LINE
  8
0
 62
     0
 10
5.62377
 20
21.6379
 30
0.0
 11
5.3909
 21
21.8791
 31
0.0
  0
LINE
  8
0
 62
     0
 10
5.3909
 20
21.8791
 30
0.0
 11
5.22139
 21
22.0734
 31
0.0
  0
LINE
  8
0
 62
     0
 10
5.22139
 20
22.0734
 30
0.0
 11
5.15112
 21
22.2333
 31
0.0
  0
LINE
  8
0
 62
     0
 10
5.15112
 20
22.2333
 30
0.0
 11
5.12491
 21
22.3559
 31
0.0
  0
LINE
  8
0
 62
     0
 10
5.12491
 20
22.3559
 30
0.0
 11
4.79418
 21
22.3918
 31
0.0
  0
LINE
  8
0
 62
     0
 10
4.79418
 20
22.3918
 30
0.0
 11
4.4359
 21
22.3449
 31
0.0
  0
LINE
  8
0
 62
     0
 10
4.4359
 20
22.3449
 30
0.0
 11
4.33532
 21
22.1782
 31
0.0
  0
LINE
  8
0
 62
     0
 10
4.33532
 20
22.1782
 30
0.0
 11
4.16444
 21
21.9659
 31
0.0
  0
LINE
  8
0
 62
     0
 10
4.16444
 20
21.9659
 30
0.0
 11
4.09554
 21
21.8061
 31
0.0
  0
LINE
  8
0
 62
     0
 10
4.09554
 20
21.8061
 30
0.0
 11
4.02248
 21
21.6476
 31
0.0
  0
LINE
  8
0
 62
     0
 10
4.02248
 20
21.6476
 30
0.0
 11
3.74964
 21
21.9742
 31
0.0
  0
LINE
  8
0
 62
     0
 10
3.74964
 20
21.9742
 30
0.0
 11
3.853
 21
22.5792
 31
0.0
  0
LINE
  8
0
 62
     0
 10
3.853
 20
22.5792
 30
0.0
 11
4.19336
 21
22.9251
 31
0.0
  0
LINE
  8
0
 62
     0
 10
4.19336
 20
22.9251
 30
0.0
 11
4.27743
 21
23.118
 31
0.0
  0
LINE
  8
0
 62
     0
 10
4.27743
 20
23.118
 30
0.0
 11
4.22233
 21
23.6072
 31
0.0
  0
LINE
  8
0
 62
     0
 10
4.22233
 20
23.6072
 30
0.0
 11
4.05419
 21
24.2617
 31
0.0
  0
LINE
  8
0
 62
     0
 10
4.05419
 20
24.2617
 30
0.0
 11
3.79786
 21
24.948
 31
0.0
  0
LINE
  8
0
 62
     0
 10
3.79786
 20
24.948
 30
0.0
 11
3.52502
 21
25.6536
 31
0.0
  0
LINE
  8
0
 62
     0
 10
3.52502
 20
25.6536
 30
0.0
 11
3.36793
 21
26.2268
 31
0.0
  0
LINE
  8
0
 62
     0
 10
3.36793
 20
26.2268
 30
0.0
 11
3.2756
 21
26.7215
 31
0.0
  0
LINE
  8
0
 62
     0
 10
3.2756
 20
26.7215
 30
0.0
 11
3.16536
 21
27.2369
 31
0.0
  0
LINE
  8
0
 62
     0
 10
3.16536
 20
27.2369
 30
0.0
 11
3.08818
 21
27.6669
 31
0.0
  0
LINE
  8
0
 62
     0
 10
3.08818
 20
27.6669
 30
0.0
 11
3.0813
 21
27.9508
 31
0.0
  0
LINE
  8
0
 62
     0
 10
3.0813
 20
27.9508
 30
0.0
 11
3.00275
 21
28.2112
 31
0.0
  0
LINE
  8
0
 62
     0
 10
3.00275
 20
28.2112
 30
0.0
 11
2.76021
 21
28.5833
 31
0.0
  0
LINE
  8
0
 62
     0
 10
2.76021
 20
28.5833
 30
0.0
 11
2.50527
 21
28.9567
 31
0.0
  0
LINE
  8
0
 62
     0
 10
2.50527
 20
28.9567
 30
0.0
 11
2.39916
 21
29.2185
 31
0.0
  0
LINE
  8
0
 62
     0
 10
2.39916
 20
29.2185
 30
0.0
 11
2.27101
 21
29.5892
 31
0.0
  0
LINE
  8
0
 62
     0
 10
2.27101
 20
29.5892
 30
0.0
 11
1.96095
 21
29.7408
 31
0.0
  0
LINE
  8
0
 62
     0
 10
1.96095
 20
29.7408
 30
0.0
 11
1.71704
 21
29.818
 31
0.0
  0
LINE
  8
0
 62
     0
 10
1.71704
 20
29.818
 30
0.0
 11
1.45796
 21
30.004
 31
0.0
  0
LINE
  8
0
 62
     0
 10
1.45796
 20
30.004
 30
0.0
 11
1.25126
 21
30.2383
 31
0.0
  0
LINE
  8
0
 62
     0
 10
1.25126
 20
30.2383
 30
0.0
 11
1.1672
 21
30.456
 31
0.0
  0
LINE
  8
0
 62
     0
 10
1.1672
 20
30.456
 30
0.0
 11
1.06109
 21
30.6324
 31
0.0
  0
LINE
  8
0
 62
     0
 10
1.06109
 20
30.6324
 30
0.0
 11
0.806154
 21
30.784
 31
0.0
  0
LINE
  8
0
 62
     0
 10
0.806154
 20
30.784
 30
0.0
 11
0.519522
 21
31.0003
 31
0.0
  0
LINE
  8
0
 62
     0
 10
0.519522
 20
31.0003
 30
0.0
 11
0.485069
 21
31.4758
 31
0.0
  0
LINE
  8
0
 62
     0
 10
0.485069
 20
31.4758
 30
0.0
 11
0.4768
 21
31.9939
 31
0.0
  0
LINE
  8
0
 62
     0
 10
0.4768
 20
31.9939
 30
0.0
 11
0.398254
 21
32.4611
 31
0.0
  0
LINE
  8
0
 62
     0
 10
0.398254
 20
32.4611
 30
0.0
 11
0.458886
 21
33.1942
 31
0.0
  0
LINE
  8
0
 62
     0
 10
0.458886
 20
33.1942
 30
0.0
 11
0.536056
 21
33.6972
 31
0.0
  0
LINE
  8
0
 62
     0
 10
0.536056
 20
33.6972
 30
0.0
 11
0.139182
 21
33.8487
 31
0.0
  0
LINE
  8
0
 62
     0
 10
0.139182
 20
33.8487
 30
0.0
 11
0.00137804
 21
33.8432
 31
0.0
  0
LINE
  8
0
 62
     0
 10
0.00137804
 20
33.8432
 30
0.0
 11
0.199815
 21
33.9452
 31
0.0
  0
LINE
  8
0
 62
     0
 10
0.199815
 20
33.9452
 30
0.0
 11
0.879189
 21
34.2429
 31
0.0
  0
LINE
  8
0
 62
     0
 10
0.879189
 20
34.2429
 30
0.0
 11
1.16169
 21
34.5254
 31
0.0
  0
LINE
  8
0
 62
     0
 10
1.16169
 20
34.5254
 30
0.0
 11
1.34359
 21
35.1262
 31
0.0
  0
LINE
  8
0
 62
     0
 10
1.34359
 20
35.1262
 30
0.0
 11
1.40147
 21
35.7685
 31
0.0
  0
LINE
  8
0
 62
     0
 10
1.40147
 20
35.7685
 30
0.0
 11
1.15204
 21
36.0384
 31
0.0
  0
LINE
  8
0
 62
     0
 10
1.15204
 20
36.0384
 30
0.0
 11
0.977029
 21
36.1474
 31
0.0
  0
LINE
  8
0
 62
     0
 10
0.977029
 20
36.1474
 30
0.0
 11
0.950846
 21
36.2465
 31
0.0
  0
LINE
  8
0
 62
     0
 10
0.950846
 20
36.2465
 30
0.0
 11
1.09416
 21
36.3883
 31
0.0
  0
LINE
  8
0
 62
     0
 10
1.09416
 20
36.3883
 30
0.0
 11
1.43454
 21
36.6201
 31
0.0
  0
LINE
  8
0
 62
     0
 10
1.43454
 20
36.6201
 30
0.0
 11
1.90583
 21
36.89
 31
0.0
  0
LINE
  8
0
 62
     0
 10
1.90583
 20
36.89
 30
0.0
 11
2.04777
 21
36.8406
 31
0.0
  0
LINE
  8
0
 62
     0
 10
2.04777
 20
36.8406
 30
0.0
 11
2.15387
 21
36.7605
 31
0.0
  0
LINE
  8
0
 62
     0
 10
2.15387
 20
36.7605
 30
0.0
 11
2.56315
 21
36.9757
 31
0.0
  0
LINE
  8
0
 62
     0
 10
2.56315
 20
36.9757
 30
0.0
 11
2.98483
 21
37.3394
 31
0.0
  0
LINE
  8
0
 62
     0
 10
2.98483
 20
37.3394
 30
0.0
 11
3.19154
 21
37.8023
 31
0.0
  0
LINE
  8
0
 62
     0
 10
3.19154
 20
37.8023
 30
0.0
 11
3.31832
 21
38.2266
 31
0.0
  0
LINE
  8
0
 62
     0
 10
3.31832
 20
38.2266
 30
0.0
 11
3.46715
 21
38.5258
 31
0.0
  0
LINE
  8
0
 62
     0
 10
3.46715
 20
38.5258
 30
0.0
 11
3.75102
 21
38.9558
 31
0.0
  0
LINE
  8
0
 62
     0
 10
3.75102
 20
38.9558
 30
0.0
 11
4.03352
 21
39.4712
 31
0.0
  0
LINE
  8
0
 62
     0
 10
4.03352
 20
39.4712
 30
0.0
 11
4.2485
 21
39.9464
 31
0.0
  0
LINE
  8
0
 62
     0
 10
4.2485
 20
39.9464
 30
0.0
 11
4.33532
 21
40.2537
 31
0.0
  0
LINE
  8
0
 62
     0
 10
4.33532
 20
40.2537
 30
0.0
 11
4.5296
 21
40.7293
 31
0.0
  0
LINE
  8
0
 62
     0
 10
4.5296
 20
40.7293
 30
0.0
 11
4.75149
 21
41.1233
 31
0.0
  0
LINE
  8
0
 62
     0
 10
4.75149
 20
41.1233
 30
0.0
 11
4.87825
 21
41.6197
 31
0.0
  0
LINE
  8
0
 62
     0
 10
4.87825
 20
41.6197
 30
0.0
 11
4.88929
 21
42.1058
 31
0.0
  0
LINE
  8
0
 62
     0
 10
4.88929
 20
42.1058
 30
0.0
 11
4.77213
 21
42.467
 31
0.0
  0
LINE
  8
0
 62
     0
 10
4.77213
 20
42.467
 30
0.0
 11
4.56819
 21
42.9175
 31
0.0
  0
LINE
  8
0
 62
     0
 10
4.56819
 20
42.9175
 30
0.0
 11
4.40972
 21
43.6065
 31
0.0
  0
LINE
  8
0
 62
     0
 10
4.40972
 20
43.6065
 30
0.0
 11
4.30773
 21
44.4722
 31
0.0
  0
LINE
  8
0
 62
     0
 10
4.30773
 20
44.4722
 30
0.0
 11
4.2733
 21
45.4477
 31
0.0
  0
LINE
  8
0
 62
     0
 10
4.2733
 20
45.4477
 30
0.0
 11
4.34082
 21
46.3656
 31
0.0
  0
LINE
  8
0
 62
     0
 10
4.34082
 20
46.3656
 30
0.0
 11
4.59161
 21
46.881
 31
0.0
  0
LINE
  8
0
 62
     0
 10
4.59161
 20
46.881
 30
0.0
 11
4.89754
 21
47.2817
 31
0.0
  0
LINE
  8
0
 62
     0
 10
4.89754
 20
47.2817
 30
0.0
 11
5.10977
 21
47.6938
 31
0.0
  0
LINE
  8
0
 62
     0
 10
5.10977
 20
47.6938
 30
0.0
 11
5.26136
 21
48.1997
 31
0.0
  0
LINE
  8
0
 62
     0
 10
5.26136
 20
48.1997
 30
0.0
 11
5.38536
 21
48.8858
 31
0.0
  0
LINE
  8
0
 62
     0
 10
5.38536
 20
48.8858
 30
0.0
 11
5.5535
 21
49.6316
 31
0.0
  0
LINE
  8
0
 62
     0
 10
5.5535
 20
49.6316
 30
0.0
 11
5.74918
 21
50.0324
 31
0.0
  0
LINE
  8
0
 62
     0
 10
5.74918
 20
50.0324
 30
0.0
 11
5.84976
 21
50.6208
 31
0.0
  0
LINE
  8
0
 62
     0
 10
5.84976
 20
50.6208
 30
0.0
 11
5.99309
 21
51.5112
 31
0.0
  0
LINE
  8
0
 62
     0
 10
5.99309
 20
51.5112
 30
0.0
 11
6.14744
 21
51.8982
 31
0.0
  0
LINE
  8
0
 62
     0
 10
6.14744
 20
51.8982
 30
0.0
 11
6.15707
 21
52.185
 31
0.0
  0
LINE
  8
0
 62
     0
 10
6.15707
 20
52.185
 30
0.0
 11
6.2563
 21
52.4715
 31
0.0
  0
LINE
  8
0
 62
     0
 10
6.2563
 20
52.4715
 30
0.0
 11
6.44783
 21
52.7953
 31
0.0
  0
LINE
  8
0
 62
     0
 10
6.44783
 20
52.7953
 30
0.0
 11
6.63801
 21
53.1206
 31
0.0
  0
LINE
  8
0
 62
     0
 10
6.63801
 20
53.1206
 30
0.0
 11
6.7262
 21
53.4734
 31
0.0
  0
LINE
  8
0
 62
     0
 10
6.7262
 20
53.4734
 30
0.0
 11
6.62563
 21
53.7559
 31
0.0
  0
LINE
  8
0
 62
     0
 10
6.62563
 20
53.7559
 30
0.0
 11
6.92051
 21
53.5065
 31
0.0
  0
LINE
  8
0
 62
     0
 10
6.92051
 20
53.5065
 30
0.0
 11
7.14788
 21
53.1178
 31
0.0
  0
LINE
  8
0
 62
     0
 10
7.14788
 20
53.1178
 30
0.0
 11
7.19889
 21
52.3558
 31
0.0
  0
LINE
  8
0
 62
     0
 10
7.19889
 20
52.3558
 30
0.0
 11
7.12996
 21
51.6805
 31
0.0
  0
LINE
  8
0
 62
     0
 10
7.12996
 20
51.6805
 30
0.0
 11
6.99216
 21
51.3182
 31
0.0
  0
LINE
  8
0
 62
     0
 10
6.99216
 20
51.3182
 30
0.0
 11
6.91776
 21
51.1101
 31
0.0
  0
LINE
  8
0
 62
     0
 10
6.91776
 20
51.1101
 30
0.0
 11
6.84749
 21
51.0399
 31
0.0
  0
LINE
  8
0
 62
     0
 10
6.84749
 20
51.0399
 30
0.0
 11
6.55256
 21
50.8688
 31
0.0
  0
LINE
  8
0
 62
     0
 10
6.55256
 20
50.8688
 30
0.0
 11
6.53052
 21
50.7503
 31
0.0
  0
LINE
  8
0
 62
     0
 10
6.53052
 20
50.7503
 30
0.0
 11
6.72895
 21
50.763
 31
0.0
  0
LINE
  8
0
 62
     0
 10
6.72895
 20
50.763
 30
0.0
 11
6.92602
 21
50.7753
 31
0.0
  0
LINE
  8
0
 62
     0
 10
6.92602
 20
50.7753
 30
0.0
 11
6.88329
 21
50.6416
 31
0.0
  0
LINE
  8
0
 62
     0
 10
6.88329
 20
50.6416
 30
0.0
 11
6.66418
 21
49.936
 31
0.0
  0
LINE
  8
0
 62
     0
 10
6.66418
 20
49.936
 30
0.0
 11
6.57737
 21
48.9892
 31
0.0
  0
LINE
  8
0
 62
     0
 10
6.57737
 20
48.9892
 30
0.0
 11
6.53743
 21
48.708
 31
0.0
  0
LINE
  8
0
 62
     0
 10
6.53743
 20
48.708
 30
0.0
 11
6.42994
 21
48.5909
 31
0.0
  0
LINE
  8
0
 62
     0
 10
6.42994
 20
48.5909
 30
0.0
 11
6.27144
 21
48.7041
 31
0.0
  0
LINE
  8
0
 62
     0
 10
6.27144
 20
48.7041
 30
0.0
 11
6.07579
 21
48.744
 31
0.0
  0
LINE
  8
0
 62
     0
 10
6.07579
 20
48.744
 30
0.0
 11
6.09367
 21
48.5909
 31
0.0
  0
LINE
  8
0
 62
     0
 10
6.09367
 20
48.5909
 30
0.0
 11
6.18603
 21
48.478
 31
0.0
  0
LINE
  8
0
 62
     0
 10
6.18603
 20
48.478
 30
0.0
 11
5.98068
 21
48.2808
 31
0.0
  0
LINE
  8
0
 62
     0
 10
5.98068
 20
48.2808
 30
0.0
 11
5.62102
 21
47.4955
 31
0.0
  0
LINE
  8
0
 62
     0
 10
5.62102
 20
47.4955
 30
0.0
 11
5.51628
 21
46.9346
 31
0.0
  0
LINE
  8
0
 62
     0
 10
5.51628
 20
46.9346
 30
0.0
 11
5.31647
 21
46.367
 31
0.0
  0
LINE
  8
0
 62
     0
 10
5.31647
 20
46.367
 30
0.0
 11
5.15662
 21
45.9313
 31
0.0
  0
LINE
  8
0
 62
     0
 10
5.15662
 20
45.9313
 30
0.0
 11
5.15387
 21
45.689
 31
0.0
  0
LINE
  8
0
 62
     0
 10
5.15387
 20
45.689
 30
0.0
 11
5.02433
 21
45.4974
 31
0.0
  0
LINE
  8
0
 62
     0
 10
5.02433
 20
45.4974
 30
0.0
 11
4.90167
 21
45.3831
 31
0.0
  0
LINE
  8
0
 62
     0
 10
4.90167
 20
45.3831
 30
0.0
 11
5.12078
 21
45.1873
 31
0.0
  0
LINE
  8
0
 62
     0
 10
5.12078
 20
45.1873
 30
0.0
 11
5.39228
 21
44.8317
 31
0.0
  0
LINE
  8
0
 62
     0
 10
5.39228
 20
44.8317
 30
0.0
 11
5.50252
 21
44.111
 31
0.0
  0
LINE
  8
0
 62
     0
 10
5.50252
 20
44.111
 30
0.0
 11
5.60447
 21
43.4248
 31
0.0
  0
LINE
  8
0
 62
     0
 10
5.60447
 20
43.4248
 30
0.0
 11
5.82358
 21
43.0939
 31
0.0
  0
LINE
  8
0
 62
     0
 10
5.82358
 20
43.0939
 30
0.0
 11
6.01514
 21
42.89
 31
0.0
  0
LINE
  8
0
 62
     0
 10
6.01514
 20
42.89
 30
0.0
 11
6.09505
 21
42.6268
 31
0.0
  0
LINE
  8
0
 62
     0
 10
6.09505
 20
42.6268
 30
0.0
 11
6.21358
 21
42.139
 31
0.0
  0
LINE
  8
0
 62
     0
 10
6.21358
 20
42.139
 30
0.0
 11
6.14468
 21
42.0218
 31
0.0
  0
LINE
  8
0
 62
     0
 10
6.14468
 20
42.0218
 30
0.0
 11
5.90352
 21
41.8663
 31
0.0
  0
LINE
  8
0
 62
     0
 10
5.90352
 20
41.8663
 30
0.0
 11
5.5728
 21
41.3219
 31
0.0
  0
LINE
  8
0
 62
     0
 10
5.5728
 20
41.3219
 30
0.0
 11
5.15938
 21
40.4964
 31
0.0
  0
LINE
  8
0
 62
     0
 10
5.15938
 20
40.4964
 30
0.0
 11
4.92097
 21
40.0237
 31
0.0
  0
LINE
  8
0
 62
     0
 10
4.92097
 20
40.0237
 30
0.0
 11
4.79418
 21
39.7838
 31
0.0
  0
LINE
  8
0
 62
     0
 10
4.79418
 20
39.7838
 30
0.0
 11
4.71978
 21
39.6543
 31
0.0
  0
LINE
  8
0
 62
     0
 10
4.71978
 20
39.6543
 30
0.0
 11
4.86311
 21
39.5923
 31
0.0
  0
LINE
  8
0
 62
     0
 10
4.86311
 20
39.5923
 30
0.0
 11
5.0202
 21
39.6187
 31
0.0
  0
LINE
  8
0
 62
     0
 10
5.0202
 20
39.6187
 30
0.0
 11
4.98161
 21
39.4931
 31
0.0
  0
LINE
  8
0
 62
     0
 10
4.98161
 20
39.4931
 30
0.0
 11
4.86311
 21
39.2038
 31
0.0
  0
LINE
  8
0
 62
     0
 10
4.86311
 20
39.2038
 30
0.0
 11
4.7074
 21
39.1569
 31
0.0
  0
LINE
  8
0
 62
     0
 10
4.7074
 20
39.1569
 30
0.0
 11
4.55581
 21
39.1142
 31
0.0
  0
LINE
  8
0
 62
     0
 10
4.55581
 20
39.1142
 30
0.0
 11
4.46207
 21
38.9184
 31
0.0
  0
LINE
  8
0
 62
     0
 10
4.46207
 20
38.9184
 30
0.0
 11
4.44694
 21
38.6651
 31
0.0
  0
LINE
  8
0
 62
     0
 10
4.44694
 20
38.6651
 30
0.0
 11
4.53376
 21
38.4485
 31
0.0
  0
LINE
  8
0
 62
     0
 10
4.53376
 20
38.4485
 30
0.0
 11
4.49654
 21
38.2584
 31
0.0
  0
LINE
  8
0
 62
     0
 10
4.49654
 20
38.2584
 30
0.0
 11
4.37804
 21
37.9938
 31
0.0
  0
LINE
  8
0
 62
     0
 10
4.37804
 20
37.9938
 30
0.0
 11
4.21679
 21
37.7278
 31
0.0
  0
LINE
  8
0
 62
     0
 10
4.21679
 20
37.7278
 30
0.0
 11
3.83921
 21
37.5006
 31
0.0
  0
LINE
  8
0
 62
     0
 10
3.83921
 20
37.5006
 30
0.0
 11
3.75239
 21
37.1285
 31
0.0
  0
LINE
  8
0
 62
     0
 10
3.75239
 20
37.1285
 30
0.0
 11
3.64628
 21
36.9658
 31
0.0
  0
LINE
  8
0
 62
     0
 10
3.64628
 20
36.9658
 30
0.0
 11
3.28938
 21
36.7372
 31
0.0
  0
LINE
  8
0
 62
     0
 10
3.28938
 20
36.7372
 30
0.0
 11
2.90766
 21
36.4945
 31
0.0
  0
LINE
  8
0
 62
     0
 10
2.90766
 20
36.4945
 30
0.0
 11
2.75057
 21
36.2977
 31
0.0
  0
LINE
  8
0
 62
     0
 10
2.75057
 20
36.2977
 30
0.0
 11
2.61414
 21
36.1294
 31
0.0
  0
LINE
  8
0
 62
     0
 10
2.61414
 20
36.1294
 30
0.0
 11
2.43913
 21
35.8359
 31
0.0
  0
LINE
  8
0
 62
     0
 10
2.43913
 20
35.8359
 30
0.0
 11
2.19797
 21
35.3095
 31
0.0
  0
LINE
  8
0
 62
     0
 10
2.19797
 20
35.3095
 30
0.0
 11
2.08221
 21
35.0904
 31
0.0
  0
LINE
  8
0
 62
     0
 10
2.08221
 20
35.0904
 30
0.0
 11
2.20348
 21
34.9195
 31
0.0
  0
LINE
  8
0
 62
     0
 10
2.20348
 20
34.9195
 30
0.0
 11
2.32337
 21
34.6921
 31
0.0
  0
LINE
  8
0
 62
     0
 10
2.32337
 20
34.6921
 30
0.0
 11
2.19659
 21
34.2511
 31
0.0
  0
LINE
  8
0
 62
     0
 10
2.19659
 20
34.2511
 30
0.0
 11
1.99402
 21
33.8639
 31
0.0
  0
LINE
  8
0
 62
     0
 10
1.99402
 20
33.8639
 30
0.0
 11
1.85484
 21
34.0003
 31
0.0
  0
LINE
  8
0
 62
     0
 10
1.85484
 20
34.0003
 30
0.0
 11
1.74597
 21
34.1767
 31
0.0
  0
LINE
  8
0
 62
     0
 10
1.74597
 20
34.1767
 30
0.0
 11
1.7129
 21
33.9273
 31
0.0
  0
LINE
  8
0
 62
     0
 10
1.7129
 20
33.9273
 30
0.0
 11
1.53513
 21
33.5263
 31
0.0
  0
LINE
  8
0
 62
     0
 10
1.53513
 20
33.5263
 30
0.0
 11
1.46761
 21
33.2562
 31
0.0
  0
LINE
  8
0
 62
     0
 10
1.46761
 20
33.2562
 30
0.0
 11
1.70739
 21
33.0991
 31
0.0
  0
LINE
  8
0
 62
     0
 10
1.70739
 20
33.0991
 30
0.0
 11
1.757
 21
33.3113
 31
0.0
  0
LINE
  8
0
 62
     0
 10
1.757
 20
33.3113
 30
0.0
 11
1.83141
 21
33.467
 31
0.0
  0
LINE
  8
0
 62
     0
 10
1.83141
 20
33.467
 30
0.0
 11
1.9954
 21
33.3775
 31
0.0
  0
LINE
  8
0
 62
     0
 10
1.9954
 20
33.3775
 30
0.0
 11
2.09462
 21
33.1707
 31
0.0
  0
LINE
  8
0
 62
     0
 10
2.09462
 20
33.1707
 30
0.0
 11
2.10289
 21
32.9489
 31
0.0
  0
LINE
  8
0
 62
     0
 10
2.10289
 20
32.9489
 30
0.0
 11
1.9954
 21
32.8097
 31
0.0
  0
LINE
  8
0
 62
     0
 10
1.9954
 20
32.8097
 30
0.0
 11
1.65916
 21
32.789
 31
0.0
  0
LINE
  8
0
 62
     0
 10
1.65916
 20
32.789
 30
0.0
 11
1.56132
 21
32.7077
 31
0.0
  0
LINE
  8
0
 62
     0
 10
1.56132
 20
32.7077
 30
0.0
 11
1.52273
 21
32.4363
 31
0.0
  0
LINE
  8
0
 62
     0
 10
1.52273
 20
32.4363
 30
0.0
 11
1.58612
 21
32.111
 31
0.0
  0
LINE
  8
0
 62
     0
 10
1.58612
 20
32.111
 30
0.0
 11
1.81074
 21
31.7128
 31
0.0
  0
LINE
  8
0
 62
     0
 10
1.81074
 20
31.7128
 30
0.0
 11
2.24896
 21
31.1616
 31
0.0
  0
LINE
  8
0
 62
     0
 10
2.24896
 20
31.1616
 30
0.0
 11
2.95727
 21
30.3802
 31
0.0
  0
LINE
  8
0
 62
     0
 10
2.95727
 20
30.3802
 30
0.0
 11
3.30178
 21
29.9531
 31
0.0
  0
LINE
  8
0
 62
     0
 10
3.30178
 20
29.9531
 30
0.0
 11
3.5953
 21
29.5424
 31
0.0
  0
LINE
  8
0
 62
     0
 10
3.5953
 20
29.5424
 30
0.0
 11
3.77994
 21
29.1869
 31
0.0
  0
LINE
  8
0
 62
     0
 10
3.77994
 20
29.1869
 30
0.0
 11
3.93707
 21
28.6784
 31
0.0
  0
LINE
  8
0
 62
     0
 10
3.93707
 20
28.6784
 30
0.0
 11
4.15064
 21
27.8074
 31
0.0
  0
LINE
  8
0
 62
     0
 10
4.15064
 20
27.8074
 30
0.0
 11
4.33116
 21
27.1584
 31
0.0
  0
LINE
  8
0
 62
     0
 10
4.33116
 20
27.1584
 30
0.0
 11
4.52409
 21
26.6237
 31
0.0
  0
LINE
  8
0
 62
     0
 10
4.52409
 20
26.6237
 30
0.0
 11
4.70186
 21
26.2695
 31
0.0
  0
LINE
  8
0
 62
     0
 10
4.70186
 20
26.2695
 30
0.0
 11
4.83969
 21
26.1621
 31
0.0
  0
LINE
  8
0
 62
     0
 10
4.83969
 20
26.1621
 30
0.0
 11
4.93201
 21
25.9402
 31
0.0
  0
LINE
  8
0
 62
     0
 10
4.93201
 20
25.9402
 30
0.0
 11
5.00091
 21
25.3435
 31
0.0
  0
LINE
  8
0
 62
     0
 10
5.00091
 20
25.3435
 30
0.0
 11
5.11803
 21
24.4974
 31
0.0
  0
LINE
  8
0
 62
     0
 10
5.11803
 20
24.4974
 30
0.0
 11
5.39778
 21
24.5249
 31
0.0
  0
LINE
  8
0
 62
     0
 10
5.39778
 20
24.5249
 30
0.0
 11
5.49561
 21
24.4643
 31
0.0
  0
LINE
  8
0
 62
     0
 10
5.49561
 20
24.4643
 30
0.0
 11
5.4653
 21
23.9903
 31
0.0
  0
LINE
  8
0
 62
     0
 10
5.4653
 20
23.9903
 30
0.0
 11
5.42396
 21
23.5865
 31
0.0
  0
LINE
  8
0
 62
     0
 10
5.42396
 20
23.5865
 30
0.0
 11
5.4791
 21
23.3026
 31
0.0
  0
LINE
  8
0
 62
     0
 10
5.4791
 20
23.3026
 30
0.0
 11
5.68166
 21
23.0243
 31
0.0
  0
LINE
  8
0
 62
     0
 10
5.68166
 20
23.0243
 30
0.0
 11
6.08542
 21
22.6343
 31
0.0
  0
LINE
  8
0
 62
     0
 10
6.08542
 20
22.6343
 30
0.0
 11
7.0473
 21
21.9122
 31
0.0
  0
LINE
  8
0
 62
     0
 10
7.0473
 20
21.9122
 30
0.0
 11
7.67842
 21
21.8915
 31
0.0
  0
LINE
  8
0
 62
     0
 10
7.67842
 20
21.8915
 30
0.0
 11
7.8383
 21
21.9549
 31
0.0
  0
LINE
  8
0
 62
     0
 10
7.8383
 20
21.9549
 30
0.0
 11
7.79279
 21
21.824
 31
0.0
  0
LINE
  8
0
 62
     0
 10
7.79279
 20
21.824
 30
0.0
 11
7.84793
 21
21.5925
 31
0.0
  0
LINE
  8
0
 62
     0
 10
7.84793
 20
21.5925
 30
0.0
 11
8.2834
 21
21.2742
 31
0.0
  0
LINE
  8
0
 62
     0
 10
8.2834
 20
21.2742
 30
0.0
 11
8.77672
 21
20.8883
 31
0.0
  0
LINE
  8
0
 62
     0
 10
8.77672
 20
20.8883
 30
0.0
 11
9.10333
 21
20.457
 31
0.0
  0
LINE
  8
0
 62
     0
 10
9.10333
 20
20.457
 30
0.0
 11
9.40096
 21
20.016
 31
0.0
  0
LINE
  8
0
 62
     0
 10
9.40096
 20
20.016
 30
0.0
 11
9.81851
 21
19.6026
 31
0.0
  0
LINE
  8
0
 62
     0
 10
9.81851
 20
19.6026
 30
0.0
 11
10.1713
 21
19.2939
 31
0.0
  0
LINE
  8
0
 62
     0
 10
10.1713
 20
19.2939
 30
0.0
 11
10.3188
 21
19.101
 31
0.0
  0
LINE
  8
0
 62
     0
 10
10.3188
 20
19.101
 30
0.0
 11
10.4607
 21
18.9356
 31
0.0
  0
LINE
  8
0
 62
     0
 10
10.4607
 20
18.9356
 30
0.0
 11
10.8052
 21
18.6917
 31
0.0
  0
LINE
  8
0
 62
     0
 10
10.8052
 20
18.6917
 30
0.0
 11
11.8236
 21
18.0068
 31
0.0
  0
LINE
  8
0
 62
     0
 10
11.8236
 20
18.0068
 30
0.0
 11
12.5525
 21
17.3909
 31
0.0
  0
LINE
  8
0
 62
     0
 10
12.5525
 20
17.3909
 30
0.0
 11
12.9894
 21
16.8479
 31
0.0
  0
LINE
  8
0
 62
     0
 10
12.9894
 20
16.8479
 30
0.0
 11
13.1355
 21
16.3739
 31
0.0
  0
LINE
  8
0
 62
     0
 10
13.1355
 20
16.3739
 30
0.0
 11
13.2374
 21
16.0252
 31
0.0
  0
LINE
  8
0
 62
     0
 10
13.2374
 20
16.0252
 30
0.0
 11
13.5751
 21
15.7455
 31
0.0
  0
LINE
  8
0
 62
     0
 10
13.5751
 20
15.7455
 30
0.0
 11
13.8851
 21
15.5415
 31
0.0
  0
LINE
  8
0
 62
     0
 10
13.8851
 20
15.5415
 30
0.0
 11
14.0147
 21
15.3968
 31
0.0
  0
LINE
  8
0
 62
     0
 10
14.0147
 20
15.3968
 30
0.0
 11
14.1304
 21
15.2604
 31
0.0
  0
LINE
  8
0
 62
     0
 10
14.1304
 20
15.2604
 30
0.0
 11
14.4115
 21
15.0744
 31
0.0
  0
LINE
  8
0
 62
     0
 10
14.4115
 20
15.0744
 30
0.0
 11
14.8387
 21
14.8167
 31
0.0
  0
LINE
  8
0
 62
     0
 10
14.8387
 20
14.8167
 30
0.0
 11
15.2204
 21
14.5521
 31
0.0
  0
LINE
  8
0
 62
     0
 10
15.2204
 20
14.5521
 30
0.0
 11
15.4933
 21
14.3275
 31
0.0
  0
LINE
  8
0
 62
     0
 10
15.4933
 20
14.3275
 30
0.0
 11
15.5994
 21
14.1883
 31
0.0
  0
LINE
  8
0
 62
     0
 10
15.5994
 20
14.1883
 30
0.0
 11
15.8323
 21
14.0105
 31
0.0
  0
LINE
  8
0
 62
     0
 10
15.8323
 20
14.0105
 30
0.0
 11
16.3311
 21
13.5654
 31
0.0
  0
LINE
  8
0
 62
     0
 10
16.3311
 20
13.5654
 30
0.0
 11
17.0822
 21
12.5553
 31
0.0
  0
LINE
  8
0
 62
     0
 10
17.0822
 20
12.5553
 30
0.0
 11
17.2765
 21
12.1543
 31
0.0
  0
LINE
  8
0
 62
     0
 10
17.2765
 20
12.1543
 30
0.0
 11
17.3591
 21
11.7698
 31
0.0
  0
LINE
  8
0
 62
     0
 10
17.3591
 20
11.7698
 30
0.0
 11
17.5149
 21
11.3206
 31
0.0
  0
LINE
  8
0
 62
     0
 10
17.5149
 20
11.3206
 30
0.0
 11
17.8897
 21
10.7652
 31
0.0
  0
LINE
  8
0
 62
     0
 10
17.8897
 20
10.7652
 30
0.0
 11
18.2452
 21
10.2912
 31
0.0
  0
LINE
  8
0
 62
     0
 10
18.2452
 20
10.2912
 30
0.0
 11
18.4588
 21
9.83368
 31
0.0
  0
LINE
  8
0
 62
     0
 10
18.4588
 20
9.83368
 30
0.0
 11
18.5691
 21
9.26179
 31
0.0
  0
LINE
  8
0
 62
     0
 10
18.5691
 20
9.26179
 30
0.0
 11
18.6173
 21
8.44187
 31
0.0
  0
LINE
  8
0
 62
     0
 10
18.6173
 20
8.44187
 30
0.0
 11
18.6986
 21
7.70322
 31
0.0
  0
LINE
  8
0
 62
     0
 10
18.6986
 20
7.70322
 30
0.0
 11
18.926
 21
7.40145
 31
0.0
  0
LINE
  8
0
 62
     0
 10
18.926
 20
7.40145
 30
0.0
 11
19.1051
 21
7.29671
 31
0.0
  0
LINE
  8
0
 62
     0
 10
19.1051
 20
7.29671
 30
0.0
 11
18.9425
 21
7.29534
 31
0.0
  0
LINE
  8
0
 62
     0
 10
18.9425
 20
7.29534
 30
0.0
 11
18.7468
 21
7.24436
 31
0.0
  0
LINE
  8
0
 62
     0
 10
18.7468
 20
7.24436
 30
0.0
 11
18.7138
 21
7.0032
 31
0.0
  0
LINE
  8
0
 62
     0
 10
18.7138
 20
7.0032
 30
0.0
 11
18.7427
 21
6.54293
 31
0.0
  0
LINE
  8
0
 62
     0
 10
18.7427
 20
6.54293
 30
0.0
 11
18.7606
 21
5.88148
 31
0.0
  0
LINE
  8
0
 62
     0
 10
18.7606
 20
5.88148
 30
0.0
 11
18.8902
 21
4.99816
 31
0.0
  0
LINE
  8
0
 62
     0
 10
18.8902
 20
4.99816
 30
0.0
 11
19.2085
 21
3.9853
 31
0.0
  0
LINE
  8
0
 62
     0
 10
19.2085
 20
3.9853
 30
0.0
 11
19.5171
 21
3.1502
 31
0.0
  0
LINE
  8
0
 62
     0
 10
19.5171
 20
3.1502
 30
0.0
 11
19.6467
 21
2.67891
 31
0.0
  0
LINE
  8
0
 62
     0
 10
19.6467
 20
2.67891
 30
0.0
 11
19.7762
 21
2.45291
 31
0.0
  0
LINE
  8
0
 62
     0
 10
19.7762
 20
2.45291
 30
0.0
 11
20.0877
 21
2.20211
 31
0.0
  0
LINE
  8
0
 62
     0
 10
20.0877
 20
2.20211
 30
0.0
 11
20.3977
 21
1.98438
 31
0.0
  0
LINE
  8
0
 62
     0
 10
20.3977
 20
1.98438
 30
0.0
 11
20.5273
 21
1.83417
 31
0.0
  0
LINE
  8
0
 62
     0
 10
20.5273
 20
1.83417
 30
0.0
 11
20.7147
 21
1.73082
 31
0.0
  0
LINE
  8
0
 62
     0
 10
20.7147
 20
1.73082
 30
0.0
 11
21.1735
 21
1.52411
 31
0.0
  0
LINE
  8
0
 62
     0
 10
21.1735
 20
1.52411
 30
0.0
 11
22.0128
 21
1.02526
 31
0.0
  0
LINE
  8
0
 62
     0
 10
22.0128
 20
1.02526
 30
0.0
 11
22.9774
 21
0.47818
 31
0.0
  0
LINE
  8
0
 62
     0
 10
22.9774
 20
0.47818
 30
0.0
 11
23.5851
 21
0.319705
 31
0.0
  0
LINE
  8
0
 62
     0
 10
23.5851
 20
0.319705
 30
0.0
 11
23.9103
 21
0.293522
 31
0.0
  0
LINE
  8
0
 62
     0
 10
23.9103
 20
0.293522
 30
0.0
 11
24.0468
 21
0.230132
 31
0.0
  0
LINE
  8
0
 62
     0
 10
24.0468
 20
0.230132
 30
0.0
 11
23.847
 21
0.039963
 31
0.0
  0
LINE
  8
0
 62
     0
 10
23.847
 20
0.039963
 30
0.0
 11
23.3095
 21
0.00413413
 31
0.0
  0
LINE
  8
0
 62
     0
 10
23.3095
 20
0.00413413
 30
0.0
 11
22.6729
 21
0.0868165
 31
0.0
  0
LINE
  8
0
 62
     0
 10
22.6729
 20
0.0868165
 30
0.0
 11
22.1795
 21
0.249425
 31
0.0
  0
ENDSEC
  0
EOF
