  0
SECTION
  2
HEADER
  9
$ACADVER
  1
AC1009
  9
$EXTMIN
 10
0.0
 20
0.0
 30
0.0
  9
$EXTMAX
 10
1000.0
 20
1000.0
 30
0.0
  9
$FILLMODE
 70
 0
  9
$SPLFRAME
 70
 1
  0
ENDSEC
  0
SECTION
  2
TABLES
  0
TABLE
  2
LAYER
 70
1
  0
LAYER
  2
0
 70
     0
 62
     7
  6
CONTINUOUS
  0
ENDTAB
  0
ENDSEC
  0
SECTION
  2
ENTITIES
  0
LINE
  8
0
 62
     0
 10
9.17222
 20
0.0799264
 30
0.0
 11
9.09645
 21
0.912262
 31
0.0
  0
LINE
  8
0
 62
     0
 10
9.09645
 20
0.912262
 30
0.0
 11
9.09366
 21
2.04777
 31
0.0
  0
LINE
  8
0
 62
     0
 10
9.09366
 20
2.04777
 30
0.0
 11
9.1543
 21
3.0496
 31
0.0
  0
LINE
  8
0
 62
     0
 10
9.1543
 20
3.0496
 30
0.0
 11
9.26454
 21
3.47955
 31
0.0
  0
LINE
  8
0
 62
     0
 10
9.26454
 20
3.47955
 30
0.0
 11
9.48778
 21
3.76206
 31
0.0
  0
LINE
  8
0
 62
     0
 10
9.48778
 20
3.76206
 30
0.0
 11
9.34999
 21
3.96187
 31
0.0
  0
LINE
  8
0
 62
     0
 10
9.34999
 20
3.96187
 30
0.0
 11
9.02063
 21
4.04453
 31
0.0
  0
LINE
  8
0
 62
     0
 10
9.02063
 20
4.04453
 30
0.0
 11
8.69957
 21
4.12584
 31
0.0
  0
LINE
  8
0
 62
     0
 10
8.69957
 20
4.12584
 30
0.0
 11
8.98066
 21
4.53789
 31
0.0
  0
LINE
  8
0
 62
     0
 10
8.98066
 20
4.53789
 30
0.0
 11
9.57598
 21
5.86631
 31
0.0
  0
LINE
  8
0
 62
     0
 10
9.57598
 20
5.86631
 30
0.0
 11
9.81851
 21
7.76249
 31
0.0
  0
LINE
  8
0
 62
     0
 10
9.81851
 20
7.76249
 30
0.0
 11
9.69589
 21
9.76478
 31
0.0
  0
LINE
  8
0
 62
     0
 10
9.69589
 20
9.76478
 30
0.0
 11
9.19427
 21
11.4046
 31
0.0
  0
LINE
  8
0
 62
     0
 10
9.19427
 20
11.4046
 30
0.0
 11
9.05923
 21
11.9007
 31
0.0
  0
LINE
  8
0
 62
     0
 10
9.05923
 20
11.9007
 30
0.0
 11
9.11158
 21
12.3886
 31
0.0
  0
LINE
  8
0
 62
     0
 10
9.11158
 20
12.3886
 30
0.0
 11
9.16397
 21
12.7262
 31
0.0
  0
LINE
  8
0
 62
     0
 10
9.16397
 20
12.7262
 30
0.0
 11
8.78498
 21
12.5856
 31
0.0
  0
LINE
  8
0
 62
     0
 10
8.78498
 20
12.5856
 30
0.0
 11
8.17728
 21
12.485
 31
0.0
  0
LINE
  8
0
 62
     0
 10
8.17728
 20
12.485
 30
0.0
 11
7.32839
 21
12.8557
 31
0.0
  0
LINE
  8
0
 62
     0
 10
7.32839
 20
12.8557
 30
0.0
 11
6.73587
 21
13.2733
 31
0.0
  0
LINE
  8
0
 62
     0
 10
6.73587
 20
13.2733
 30
0.0
 11
6.41339
 21
13.6233
 31
0.0
  0
LINE
  8
0
 62
     0
 10
6.41339
 20
13.6233
 30
0.0
 11
6.4189
 21
13.8121
 31
0.0
  0
LINE
  8
0
 62
     0
 10
6.4189
 20
13.8121
 30
0.0
 11
6.80752
 21
13.7418
 31
0.0
  0
LINE
  8
0
 62
     0
 10
6.80752
 20
13.7418
 30
0.0
 11
7.13687
 21
13.7942
 31
0.0
  0
LINE
  8
0
 62
     0
 10
7.13687
 20
13.7942
 30
0.0
 11
7.23057
 21
14.3867
 31
0.0
  0
LINE
  8
0
 62
     0
 10
7.23057
 20
14.3867
 30
0.0
 11
7.14925
 21
14.8208
 31
0.0
  0
LINE
  8
0
 62
     0
 10
7.14925
 20
14.8208
 30
0.0
 11
6.93014
 21
15.401
 31
0.0
  0
LINE
  8
0
 62
     0
 10
6.93014
 20
15.401
 30
0.0
 11
6.61183
 21
16.0666
 31
0.0
  0
LINE
  8
0
 62
     0
 10
6.61183
 20
16.0666
 30
0.0
 11
6.23013
 21
16.7514
 31
0.0
  0
LINE
  8
0
 62
     0
 10
6.23013
 20
16.7514
 30
0.0
 11
5.82358
 21
17.395
 31
0.0
  0
LINE
  8
0
 62
     0
 10
5.82358
 20
17.395
 30
0.0
 11
5.42946
 21
17.9324
 31
0.0
  0
LINE
  8
0
 62
     0
 10
5.42946
 20
17.9324
 30
0.0
 11
5.08497
 21
18.3017
 31
0.0
  0
LINE
  8
0
 62
     0
 10
5.08497
 20
18.3017
 30
0.0
 11
4.82865
 21
18.4381
 31
0.0
  0
LINE
  8
0
 62
     0
 10
4.82865
 20
18.4381
 30
0.0
 11
4.61229
 21
18.6269
 31
0.0
  0
LINE
  8
0
 62
     0
 10
4.61229
 20
18.6269
 30
0.0
 11
4.62058
 21
19.1437
 31
0.0
  0
LINE
  8
0
 62
     0
 10
4.62058
 20
19.1437
 30
0.0
 11
4.62058
 21
19.6963
 31
0.0
  0
LINE
  8
0
 62
     0
 10
4.62058
 20
19.6963
 30
0.0
 11
4.26918
 21
19.8493
 31
0.0
  0
LINE
  8
0
 62
     0
 10
4.26918
 20
19.8493
 30
0.0
 11
3.9219
 21
19.9912
 31
0.0
  0
LINE
  8
0
 62
     0
 10
3.9219
 20
19.9912
 30
0.0
 11
3.94808
 21
20.508
 31
0.0
  0
LINE
  8
0
 62
     0
 10
3.94808
 20
20.508
 30
0.0
 11
3.95083
 21
21.135
 31
0.0
  0
LINE
  8
0
 62
     0
 10
3.95083
 20
21.135
 30
0.0
 11
3.70554
 21
21.7083
 31
0.0
  0
LINE
  8
0
 62
     0
 10
3.70554
 20
21.7083
 30
0.0
 11
3.47679
 21
21.9935
 31
0.0
  0
LINE
  8
0
 62
     0
 10
3.47679
 20
21.9935
 30
0.0
 11
3.35277
 21
22.0652
 31
0.0
  0
LINE
  8
0
 62
     0
 10
3.35277
 20
22.0652
 30
0.0
 11
3.30178
 21
21.9067
 31
0.0
  0
LINE
  8
0
 62
     0
 10
3.30178
 20
21.9067
 30
0.0
 11
3.288
 21
21.5015
 31
0.0
  0
LINE
  8
0
 62
     0
 10
3.288
 20
21.5015
 30
0.0
 11
3.16673
 21
20.931
 31
0.0
  0
LINE
  8
0
 62
     0
 10
3.16673
 20
20.931
 30
0.0
 11
2.88837
 21
20.6058
 31
0.0
  0
LINE
  8
0
 62
     0
 10
2.88837
 20
20.6058
 30
0.0
 11
2.62241
 21
20.6223
 31
0.0
  0
LINE
  8
0
 62
     0
 10
2.62241
 20
20.6223
 30
0.0
 11
2.64445
 21
21.0206
 31
0.0
  0
LINE
  8
0
 62
     0
 10
2.64445
 20
21.0206
 30
0.0
 11
2.64859
 21
21.4464
 31
0.0
  0
LINE
  8
0
 62
     0
 10
2.64859
 20
21.4464
 30
0.0
 11
2.26825
 21
21.4933
 31
0.0
  0
LINE
  8
0
 62
     0
 10
2.26825
 20
21.4933
 30
0.0
 11
1.82452
 21
21.6104
 31
0.0
  0
LINE
  8
0
 62
     0
 10
1.82452
 20
21.6104
 30
0.0
 11
1.57923
 21
22.247
 31
0.0
  0
LINE
  8
0
 62
     0
 10
1.57923
 20
22.247
 30
0.0
 11
1.4497
 21
22.7445
 31
0.0
  0
LINE
  8
0
 62
     0
 10
1.4497
 20
22.7445
 30
0.0
 11
1.25953
 21
22.9774
 31
0.0
  0
LINE
  8
0
 62
     0
 10
1.25953
 20
22.9774
 30
0.0
 11
0.930176
 21
22.9843
 31
0.0
  0
LINE
  8
0
 62
     0
 10
0.930176
 20
22.9843
 30
0.0
 11
0.383096
 21
22.801
 31
0.0
  0
LINE
  8
0
 62
     0
 10
0.383096
 20
22.801
 30
0.0
 11
0.0289388
 21
22.7473
 31
0.0
  0
LINE
  8
0
 62
     0
 10
0.0289388
 20
22.7473
 30
0.0
 11
0.0606337
 21
23.0628
 31
0.0
  0
LINE
  8
0
 62
     0
 10
0.0606337
 20
23.0628
 30
0.0
 11
0.256315
 21
23.3839
 31
0.0
  0
LINE
  8
0
 62
     0
 10
0.256315
 20
23.3839
 30
0.0
 11
0.482314
 21
23.5176
 31
0.0
  0
LINE
  8
0
 62
     0
 10
0.482314
 20
23.5176
 30
0.0
 11
0.680752
 21
23.6182
 31
0.0
  0
LINE
  8
0
 62
     0
 10
0.680752
 20
23.6182
 30
0.0
 11
1.04317
 21
23.8897
 31
0.0
  0
LINE
  8
0
 62
     0
 10
1.04317
 20
23.8897
 30
0.0
 11
1.51722
 21
24.2921
 31
0.0
  0
LINE
  8
0
 62
     0
 10
1.51722
 20
24.2921
 30
0.0
 11
2.05052
 21
24.7826
 31
0.0
  0
LINE
  8
0
 62
     0
 10
2.05052
 20
24.7826
 30
0.0
 11
3.37068
 21
26.049
 31
0.0
  0
LINE
  8
0
 62
     0
 10
3.37068
 20
26.049
 30
0.0
 11
3.03444
 21
27.5498
 31
0.0
  0
LINE
  8
0
 62
     0
 10
3.03444
 20
27.5498
 30
0.0
 11
2.63343
 21
28.75
 31
0.0
  0
LINE
  8
0
 62
     0
 10
2.63343
 20
28.75
 30
0.0
 11
2.14285
 21
29.5258
 31
0.0
  0
LINE
  8
0
 62
     0
 10
2.14285
 20
29.5258
 30
0.0
 11
1.63573
 21
30.3816
 31
0.0
  0
LINE
  8
0
 62
     0
 10
1.63573
 20
30.3816
 30
0.0
 11
1.8576
 21
31.5612
 31
0.0
  0
LINE
  8
0
 62
     0
 10
1.8576
 20
31.5612
 30
0.0
 11
2.08359
 21
31.9843
 31
0.0
  0
LINE
  8
0
 62
     0
 10
2.08359
 20
31.9843
 30
0.0
 11
2.28203
 21
31.5612
 31
0.0
  0
LINE
  8
0
 62
     0
 10
2.28203
 20
31.5612
 30
0.0
 11
2.49287
 21
31.0196
 31
0.0
  0
LINE
  8
0
 62
     0
 10
2.49287
 20
31.0196
 30
0.0
 11
2.73541
 21
30.507
 31
0.0
  0
LINE
  8
0
 62
     0
 10
2.73541
 20
30.507
 30
0.0
 11
2.92006
 21
29.9944
 31
0.0
  0
LINE
  8
0
 62
     0
 10
2.92006
 20
29.9944
 30
0.0
 11
2.99723
 21
29.4487
 31
0.0
  0
LINE
  8
0
 62
     0
 10
2.99723
 20
29.4487
 30
0.0
 11
3.05925
 21
29.0477
 31
0.0
  0
LINE
  8
0
 62
     0
 10
3.05925
 20
29.0477
 30
0.0
 11
3.20807
 21
28.8796
 31
0.0
  0
LINE
  8
0
 62
     0
 10
3.20807
 20
28.8796
 30
0.0
 11
3.38033
 21
28.5722
 31
0.0
  0
LINE
  8
0
 62
     0
 10
3.38033
 20
28.5722
 30
0.0
 11
3.49608
 21
27.8309
 31
0.0
  0
LINE
  8
0
 62
     0
 10
3.49608
 20
27.8309
 30
0.0
 11
3.62977
 21
27.0095
 31
0.0
  0
LINE
  8
0
 62
     0
 10
3.62977
 20
27.0095
 30
0.0
 11
3.84888
 21
26.5052
 31
0.0
  0
LINE
  8
0
 62
     0
 10
3.84888
 20
26.5052
 30
0.0
 11
4.04315
 21
26.0973
 31
0.0
  0
LINE
  8
0
 62
     0
 10
4.04315
 20
26.0973
 30
0.0
 11
4.12584
 21
25.5047
 31
0.0
  0
LINE
  8
0
 62
     0
 10
4.12584
 20
25.5047
 30
0.0
 11
4.28706
 21
24.886
 31
0.0
  0
LINE
  8
0
 62
     0
 10
4.28706
 20
24.886
 30
0.0
 11
4.69635
 21
24.4257
 31
0.0
  0
LINE
  8
0
 62
     0
 10
4.69635
 20
24.4257
 30
0.0
 11
5.09873
 21
24.0275
 31
0.0
  0
LINE
  8
0
 62
     0
 10
5.09873
 20
24.0275
 30
0.0
 11
4.95681
 21
23.4887
 31
0.0
  0
LINE
  8
0
 62
     0
 10
4.95681
 20
23.4887
 30
0.0
 11
4.79834
 21
22.9416
 31
0.0
  0
LINE
  8
0
 62
     0
 10
4.79834
 20
22.9416
 30
0.0
 11
4.85482
 21
22.4372
 31
0.0
  0
LINE
  8
0
 62
     0
 10
4.85482
 20
22.4372
 30
0.0
 11
4.98299
 21
22.0266
 31
0.0
  0
LINE
  8
0
 62
     0
 10
4.98299
 20
22.0266
 30
0.0
 11
4.99953
 21
21.7013
 31
0.0
  0
LINE
  8
0
 62
     0
 10
4.99953
 20
21.7013
 30
0.0
 11
5.00503
 21
21.3155
 31
0.0
  0
LINE
  8
0
 62
     0
 10
5.00503
 20
21.3155
 30
0.0
 11
5.1084
 21
20.756
 31
0.0
  0
LINE
  8
0
 62
     0
 10
5.1084
 20
20.756
 30
0.0
 11
5.28479
 21
20.3605
 31
0.0
  0
LINE
  8
0
 62
     0
 10
5.28479
 20
20.3605
 30
0.0
 11
5.61689
 21
20.2076
 31
0.0
  0
LINE
  8
0
 62
     0
 10
5.61689
 20
20.2076
 30
0.0
 11
6.20116
 21
20.2916
 31
0.0
  0
LINE
  8
0
 62
     0
 10
6.20116
 20
20.2916
 30
0.0
 11
7.13412
 21
20.6058
 31
0.0
  0
LINE
  8
0
 62
     0
 10
7.13412
 20
20.6058
 30
0.0
 11
7.4979
 21
20.6871
 31
0.0
  0
LINE
  8
0
 62
     0
 10
7.4979
 20
20.6871
 30
0.0
 11
7.27329
 21
20.3329
 31
0.0
  0
LINE
  8
0
 62
     0
 10
7.27329
 20
20.3329
 30
0.0
 11
7.04314
 21
19.8686
 31
0.0
  0
LINE
  8
0
 62
     0
 10
7.04314
 20
19.8686
 30
0.0
 11
7.34356
 21
19.4124
 31
0.0
  0
LINE
  8
0
 62
     0
 10
7.34356
 20
19.4124
 30
0.0
 11
7.67154
 21
18.7537
 31
0.0
  0
LINE
  8
0
 62
     0
 10
7.67154
 20
18.7537
 30
0.0
 11
7.7942
 21
17.7423
 31
0.0
  0
LINE
  8
0
 62
     0
 10
7.7942
 20
17.7423
 30
0.0
 11
7.83689
 21
17.0367
 31
0.0
  0
LINE
  8
0
 62
     0
 10
7.83689
 20
17.0367
 30
0.0
 11
8.04912
 21
16.4744
 31
0.0
  0
LINE
  8
0
 62
     0
 10
8.04912
 20
16.4744
 30
0.0
 11
8.54936
 21
15.8557
 31
0.0
  0
LINE
  8
0
 62
     0
 10
8.54936
 20
15.8557
 30
0.0
 11
9.45885
 21
14.982
 31
0.0
  0
LINE
  8
0
 62
     0
 10
9.45885
 20
14.982
 30
0.0
 11
11.1235
 21
13.44
 31
0.0
  0
LINE
  8
0
 62
     0
 10
11.1235
 20
13.44
 30
0.0
 11
10.8727
 21
12.0978
 31
0.0
  0
LINE
  8
0
 62
     0
 10
10.8727
 20
12.0978
 30
0.0
 11
10.7625
 21
11.1525
 31
0.0
  0
LINE
  8
0
 62
     0
 10
10.7625
 20
11.1525
 30
0.0
 11
10.8024
 21
10.5076
 31
0.0
  0
LINE
  8
0
 62
     0
 10
10.8024
 20
10.5076
 30
0.0
 11
10.9582
 21
10.3077
 31
0.0
  0
LINE
  8
0
 62
     0
 10
10.9582
 20
10.3077
 30
0.0
 11
11.1993
 21
10.695
 31
0.0
  0
LINE
  8
0
 62
     0
 10
11.1993
 20
10.695
 30
0.0
 11
11.4212
 21
11.0147
 31
0.0
  0
LINE
  8
0
 62
     0
 10
11.4212
 20
11.0147
 30
0.0
 11
11.7257
 21
10.4166
 31
0.0
  0
LINE
  8
0
 62
     0
 10
11.7257
 20
10.4166
 30
0.0
 11
11.92
 21
9.70414
 31
0.0
  0
LINE
  8
0
 62
     0
 10
11.92
 20
9.70414
 30
0.0
 11
11.9311
 21
9.14605
 31
0.0
  0
LINE
  8
0
 62
     0
 10
11.9311
 20
9.14605
 30
0.0
 11
11.8277
 21
8.88146
 31
0.0
  0
LINE
  8
0
 62
     0
 10
11.8277
 20
8.88146
 30
0.0
 11
11.7781
 21
9.19427
 31
0.0
  0
LINE
  8
0
 62
     0
 10
11.7781
 20
9.19427
 30
0.0
 11
11.6761
 21
9.5443
 31
0.0
  0
LINE
  8
0
 62
     0
 10
11.6761
 20
9.5443
 30
0.0
 11
11.4804
 21
9.68897
 31
0.0
  0
LINE
  8
0
 62
     0
 10
11.4804
 20
9.68897
 30
0.0
 11
11.2034
 21
9.59665
 31
0.0
  0
LINE
  8
0
 62
     0
 10
11.2034
 20
9.59665
 30
0.0
 11
11.0284
 21
9.36516
 31
0.0
  0
LINE
  8
0
 62
     0
 10
11.0284
 20
9.36516
 30
0.0
 11
10.9816
 21
9.06198
 31
0.0
  0
LINE
  8
0
 62
     0
 10
10.9816
 20
9.06198
 30
0.0
 11
11.0932
 21
8.7588
 31
0.0
  0
LINE
  8
0
 62
     0
 10
11.0932
 20
8.7588
 30
0.0
 11
11.2448
 21
8.27098
 31
0.0
  0
LINE
  8
0
 62
     0
 10
11.2448
 20
8.27098
 30
0.0
 11
11.271
 21
7.5723
 31
0.0
  0
LINE
  8
0
 62
     0
 10
11.271
 20
7.5723
 30
0.0
 11
11.242
 21
6.98528
 31
0.0
  0
LINE
  8
0
 62
     0
 10
11.242
 20
6.98528
 30
0.0
 11
11.2145
 21
6.00964
 31
0.0
  0
LINE
  8
0
 62
     0
 10
11.2145
 20
6.00964
 30
0.0
 11
11.1869
 21
4.7818
 31
0.0
  0
LINE
  8
0
 62
     0
 10
11.1869
 20
4.7818
 30
0.0
 11
11.1676
 21
3.43683
 31
0.0
  0
LINE
  8
0
 62
     0
 10
11.1676
 20
3.43683
 30
0.0
 11
11.1249
 21
0.148828
 31
0.0
  0
LINE
  8
0
 62
     0
 10
11.1249
 20
0.148828
 30
0.0
 11
10.1658
 21
0.0358292
 31
0.0
  0
LINE
  8
0
 62
     0
 10
10.1658
 20
0.0358292
 30
0.0
 11
9.47678
 21
0.00413413
 31
0.0
  0
LINE
  8
0
 62
     0
 10
9.47678
 20
0.00413413
 30
0.0
 11
9.17222
 21
0.0799264
 31
0.0
  0
ENDSEC
  0
EOF
