  0
SECTION
  2
HEADER
  9
$ACADVER
  1
AC1009
  9
$EXTMIN
 10
0.0
 20
0.0
 30
0.0
  9
$EXTMAX
 10
1000.0
 20
1000.0
 30
0.0
  9
$FILLMODE
 70
 0
  9
$SPLFRAME
 70
 1
  0
ENDSEC
  0
SECTION
  2
TABLES
  0
TABLE
  2
LAYER
 70
1
  0
LAYER
  2
0
 70
     0
 62
     7
  6
CONTINUOUS
  0
ENDTAB
  0
ENDSEC
  0
SECTION
  2
ENTITIES
  0
LINE
  8
0
 62
     0
 10
22.7362
 20
0.124024
 30
0.0
 11
22.5544
 21
0.355533
 31
0.0
  0
LINE
  8
0
 62
     0
 10
22.5544
 20
0.355533
 30
0.0
 11
22.1216
 21
0.599447
 31
0.0
  0
LINE
  8
0
 62
     0
 10
22.1216
 20
0.599447
 30
0.0
 11
21.5497
 21
1.01424
 31
0.0
  0
LINE
  8
0
 62
     0
 10
21.5497
 20
1.01424
 30
0.0
 11
21.0413
 21
1.65227
 31
0.0
  0
LINE
  8
0
 62
     0
 10
21.0413
 20
1.65227
 30
0.0
 11
20.5204
 21
2.38263
 31
0.0
  0
LINE
  8
0
 62
     0
 10
20.5204
 20
2.38263
 30
0.0
 11
19.9223
 21
3.01239
 31
0.0
  0
LINE
  8
0
 62
     0
 10
19.9223
 20
3.01239
 30
0.0
 11
19.2787
 21
3.64352
 31
0.0
  0
LINE
  8
0
 62
     0
 10
19.2787
 20
3.64352
 30
0.0
 11
18.6476
 21
4.367
 31
0.0
  0
LINE
  8
0
 62
     0
 10
18.6476
 20
4.367
 30
0.0
 11
18.0496
 21
5.00091
 31
0.0
  0
LINE
  8
0
 62
     0
 10
18.0496
 20
5.00091
 30
0.0
 11
17.4845
 21
5.41016
 31
0.0
  0
LINE
  8
0
 62
     0
 10
17.4845
 20
5.41016
 30
0.0
 11
17.0353
 21
5.75194
 31
0.0
  0
LINE
  8
0
 62
     0
 10
17.0353
 20
5.75194
 30
0.0
 11
16.7197
 21
6.21633
 31
0.0
  0
LINE
  8
0
 62
     0
 10
16.7197
 20
6.21633
 30
0.0
 11
16.5006
 21
6.6077
 31
0.0
  0
LINE
  8
0
 62
     0
 10
16.5006
 20
6.6077
 30
0.0
 11
16.2898
 21
6.7703
 31
0.0
  0
LINE
  8
0
 62
     0
 10
16.2898
 20
6.7703
 30
0.0
 11
16.0679
 21
6.92739
 31
0.0
  0
LINE
  8
0
 62
     0
 10
16.0679
 20
6.92739
 30
0.0
 11
15.8295
 21
7.30359
 31
0.0
  0
LINE
  8
0
 62
     0
 10
15.8295
 20
7.30359
 30
0.0
 11
15.6614
 21
8.45566
 31
0.0
  0
LINE
  8
0
 62
     0
 10
15.6614
 20
8.45566
 30
0.0
 11
15.6545
 21
10.3119
 31
0.0
  0
LINE
  8
0
 62
     0
 10
15.6545
 20
10.3119
 30
0.0
 11
15.7841
 21
12.1061
 31
0.0
  0
LINE
  8
0
 62
     0
 10
15.7841
 20
12.1061
 30
0.0
 11
16.0252
 21
13.0735
 31
0.0
  0
LINE
  8
0
 62
     0
 10
16.0252
 20
13.0735
 30
0.0
 11
16.1906
 21
13.3077
 31
0.0
  0
LINE
  8
0
 62
     0
 10
16.1906
 20
13.3077
 30
0.0
 11
16.028
 21
13.367
 31
0.0
  0
LINE
  8
0
 62
     0
 10
16.028
 20
13.367
 30
0.0
 11
15.8585
 21
13.4731
 31
0.0
  0
LINE
  8
0
 62
     0
 10
15.8585
 20
13.4731
 30
0.0
 11
15.8667
 21
13.7501
 31
0.0
  0
LINE
  8
0
 62
     0
 10
15.8667
 20
13.7501
 30
0.0
 11
15.8957
 21
14.22
 31
0.0
  0
LINE
  8
0
 62
     0
 10
15.8957
 20
14.22
 30
0.0
 11
15.8061
 21
14.8084
 31
0.0
  0
LINE
  8
0
 62
     0
 10
15.8061
 20
14.8084
 30
0.0
 11
15.7372
 21
15.3307
 31
0.0
  0
LINE
  8
0
 62
     0
 10
15.7372
 20
15.3307
 30
0.0
 11
15.8736
 21
15.5539
 31
0.0
  0
LINE
  8
0
 62
     0
 10
15.8736
 20
15.5539
 30
0.0
 11
16.0059
 21
15.8654
 31
0.0
  0
LINE
  8
0
 62
     0
 10
16.0059
 20
15.8654
 30
0.0
 11
15.886
 21
16.7266
 31
0.0
  0
LINE
  8
0
 62
     0
 10
15.886
 20
16.7266
 30
0.0
 11
15.7772
 21
17.5066
 31
0.0
  0
LINE
  8
0
 62
     0
 10
15.7772
 20
17.5066
 30
0.0
 11
15.8419
 21
17.8304
 31
0.0
  0
LINE
  8
0
 62
     0
 10
15.8419
 20
17.8304
 30
0.0
 11
15.9714
 21
18.0055
 31
0.0
  0
LINE
  8
0
 62
     0
 10
15.9714
 20
18.0055
 30
0.0
 11
16.0266
 21
18.423
 31
0.0
  0
LINE
  8
0
 62
     0
 10
16.0266
 20
18.423
 30
0.0
 11
15.9632
 21
18.8171
 31
0.0
  0
LINE
  8
0
 62
     0
 10
15.9632
 20
18.8171
 30
0.0
 11
15.8034
 21
18.897
 31
0.0
  0
LINE
  8
0
 62
     0
 10
15.8034
 20
18.897
 30
0.0
 11
15.5801
 21
18.9714
 31
0.0
  0
LINE
  8
0
 62
     0
 10
15.5801
 20
18.9714
 30
0.0
 11
15.8034
 21
19.2857
 31
0.0
  0
LINE
  8
0
 62
     0
 10
15.8034
 20
19.2857
 30
0.0
 11
15.9977
 21
19.8575
 31
0.0
  0
LINE
  8
0
 62
     0
 10
15.9977
 20
19.8575
 30
0.0
 11
15.4892
 21
20.9586
 31
0.0
  0
LINE
  8
0
 62
     0
 10
15.4892
 20
20.9586
 30
0.0
 11
14.9338
 21
21.9577
 31
0.0
  0
LINE
  8
0
 62
     0
 10
14.9338
 20
21.9577
 30
0.0
 11
14.3591
 21
23.1648
 31
0.0
  0
LINE
  8
0
 62
     0
 10
14.3591
 20
23.1648
 30
0.0
 11
13.6853
 21
24.6324
 31
0.0
  0
LINE
  8
0
 62
     0
 10
13.6853
 20
24.6324
 30
0.0
 11
13.0803
 21
25.7983
 31
0.0
  0
LINE
  8
0
 62
     0
 10
13.0803
 20
25.7983
 30
0.0
 11
12.5636
 21
26.632
 31
0.0
  0
LINE
  8
0
 62
     0
 10
12.5636
 20
26.632
 30
0.0
 11
12.1515
 21
27.0977
 31
0.0
  0
LINE
  8
0
 62
     0
 10
12.1515
 20
27.0977
 30
0.0
 11
11.9063
 21
27.3637
 31
0.0
  0
LINE
  8
0
 62
     0
 10
11.9063
 20
27.3637
 30
0.0
 11
11.5604
 21
27.8391
 31
0.0
  0
LINE
  8
0
 62
     0
 10
11.5604
 20
27.8391
 30
0.0
 11
11.1607
 21
28.4551
 31
0.0
  0
LINE
  8
0
 62
     0
 10
11.1607
 20
28.4551
 30
0.0
 11
10.7528
 21
29.1455
 31
0.0
  0
LINE
  8
0
 62
     0
 10
10.7528
 20
29.1455
 30
0.0
 11
10.2499
 21
29.9847
 31
0.0
  0
LINE
  8
0
 62
     0
 10
10.2499
 20
29.9847
 30
0.0
 11
9.80063
 21
30.609
 31
0.0
  0
LINE
  8
0
 62
     0
 10
9.80063
 20
30.609
 30
0.0
 11
9.35824
 21
31.0706
 31
0.0
  0
LINE
  8
0
 62
     0
 10
9.35824
 20
31.0706
 30
0.0
 11
8.88146
 21
31.4262
 31
0.0
  0
LINE
  8
0
 62
     0
 10
8.88146
 20
31.4262
 30
0.0
 11
8.16903
 21
31.8093
 31
0.0
  0
LINE
  8
0
 62
     0
 10
8.16903
 20
31.8093
 30
0.0
 11
7.97609
 21
31.6921
 31
0.0
  0
LINE
  8
0
 62
     0
 10
7.97609
 20
31.6921
 30
0.0
 11
7.90582
 21
31.5157
 31
0.0
  0
LINE
  8
0
 62
     0
 10
7.90582
 20
31.5157
 30
0.0
 11
7.73631
 21
31.5171
 31
0.0
  0
LINE
  8
0
 62
     0
 10
7.73631
 20
31.5171
 30
0.0
 11
7.60539
 21
31.6935
 31
0.0
  0
LINE
  8
0
 62
     0
 10
7.60539
 20
31.6935
 30
0.0
 11
7.62744
 21
31.9374
 31
0.0
  0
LINE
  8
0
 62
     0
 10
7.62744
 20
31.9374
 30
0.0
 11
7.58747
 21
32.3453
 31
0.0
  0
LINE
  8
0
 62
     0
 10
7.58747
 20
32.3453
 30
0.0
 11
7.26779
 21
32.8993
 31
0.0
  0
LINE
  8
0
 62
     0
 10
7.26779
 20
32.8993
 30
0.0
 11
6.75929
 21
33.4767
 31
0.0
  0
LINE
  8
0
 62
     0
 10
6.75929
 20
33.4767
 30
0.0
 11
6.15156
 21
33.9549
 31
0.0
  0
LINE
  8
0
 62
     0
 10
6.15156
 20
33.9549
 30
0.0
 11
5.66649
 21
34.3614
 31
0.0
  0
LINE
  8
0
 62
     0
 10
5.66649
 20
34.3614
 30
0.0
 11
5.59072
 21
34.7417
 31
0.0
  0
LINE
  8
0
 62
     0
 10
5.59072
 20
34.7417
 30
0.0
 11
5.53833
 21
35.0421
 31
0.0
  0
LINE
  8
0
 62
     0
 10
5.53833
 20
35.0421
 30
0.0
 11
5.27925
 21
35.4281
 31
0.0
  0
LINE
  8
0
 62
     0
 10
5.27925
 20
35.4281
 30
0.0
 11
4.87549
 21
35.851
 31
0.0
  0
LINE
  8
0
 62
     0
 10
4.87549
 20
35.851
 30
0.0
 11
4.38905
 21
36.2631
 31
0.0
  0
LINE
  8
0
 62
     0
 10
4.38905
 20
36.2631
 30
0.0
 11
3.88331
 21
36.6173
 31
0.0
  0
LINE
  8
0
 62
     0
 10
3.88331
 20
36.6173
 30
0.0
 11
3.41891
 21
36.8625
 31
0.0
  0
LINE
  8
0
 62
     0
 10
3.41891
 20
36.8625
 30
0.0
 11
3.05925
 21
36.9549
 31
0.0
  0
LINE
  8
0
 62
     0
 10
3.05925
 20
36.9549
 30
0.0
 11
2.8677
 21
36.842
 31
0.0
  0
LINE
  8
0
 62
     0
 10
2.8677
 20
36.842
 30
0.0
 11
2.69682
 21
36.8226
 31
0.0
  0
LINE
  8
0
 62
     0
 10
2.69682
 20
36.8226
 30
0.0
 11
2.41019
 21
37.1891
 31
0.0
  0
LINE
  8
0
 62
     0
 10
2.41019
 20
37.1891
 30
0.0
 11
1.83417
 21
37.907
 31
0.0
  0
LINE
  8
0
 62
     0
 10
1.83417
 20
37.907
 30
0.0
 11
0.957735
 21
38.7809
 31
0.0
  0
LINE
  8
0
 62
     0
 10
0.957735
 20
38.7809
 30
0.0
 11
0.228755
 21
39.5153
 31
0.0
  0
LINE
  8
0
 62
     0
 10
0.228755
 20
39.5153
 30
0.0
 11
0.00964629
 21
39.8928
 31
0.0
  0
LINE
  8
0
 62
     0
 10
0.00964629
 20
39.8928
 30
0.0
 11
0.242535
 21
39.8582
 31
0.0
  0
LINE
  8
0
 62
     0
 10
0.242535
 20
39.8582
 30
0.0
 11
0.603582
 21
39.5965
 31
0.0
  0
LINE
  8
0
 62
     0
 10
0.603582
 20
39.5965
 30
0.0
 11
1.08452
 21
39.2659
 31
0.0
  0
LINE
  8
0
 62
     0
 10
1.08452
 20
39.2659
 30
0.0
 11
1.60817
 21
39.0564
 31
0.0
  0
LINE
  8
0
 62
     0
 10
1.60817
 20
39.0564
 30
0.0
 11
1.99815
 21
38.9241
 31
0.0
  0
LINE
  8
0
 62
     0
 10
1.99815
 20
38.9241
 30
0.0
 11
2.16076
 21
38.7738
 31
0.0
  0
LINE
  8
0
 62
     0
 10
2.16076
 20
38.7738
 30
0.0
 11
2.28755
 21
38.6278
 31
0.0
  0
LINE
  8
0
 62
     0
 10
2.28755
 20
38.6278
 30
0.0
 11
2.63619
 21
38.3494
 31
0.0
  0
LINE
  8
0
 62
     0
 10
2.63619
 20
38.3494
 30
0.0
 11
3.15295
 21
37.9772
 31
0.0
  0
LINE
  8
0
 62
     0
 10
3.15295
 20
37.9772
 30
0.0
 11
3.78273
 21
37.5514
 31
0.0
  0
LINE
  8
0
 62
     0
 10
3.78273
 20
37.5514
 30
0.0
 11
5.20347
 21
36.4755
 31
0.0
  0
LINE
  8
0
 62
     0
 10
5.20347
 20
36.4755
 30
0.0
 11
6.17224
 21
35.3579
 31
0.0
  0
LINE
  8
0
 62
     0
 10
6.17224
 20
35.3579
 30
0.0
 11
6.82544
 21
34.4454
 31
0.0
  0
LINE
  8
0
 62
     0
 10
6.82544
 20
34.4454
 30
0.0
 11
7.42075
 21
33.7688
 31
0.0
  0
LINE
  8
0
 62
     0
 10
7.42075
 20
33.7688
 30
0.0
 11
8.09322
 21
33.1914
 31
0.0
  0
LINE
  8
0
 62
     0
 10
8.09322
 20
33.1914
 30
0.0
 11
8.98204
 21
32.5796
 31
0.0
  0
LINE
  8
0
 62
     0
 10
8.98204
 20
32.5796
 30
0.0
 11
9.59115
 21
32.1372
 31
0.0
  0
LINE
  8
0
 62
     0
 10
9.59115
 20
32.1372
 30
0.0
 11
10.0955
 21
31.6315
 31
0.0
  0
LINE
  8
0
 62
     0
 10
10.0955
 20
31.6315
 30
0.0
 11
10.5944
 21
30.9397
 31
0.0
  0
LINE
  8
0
 62
     0
 10
10.5944
 20
30.9397
 30
0.0
 11
11.1924
 21
29.9365
 31
0.0
  0
LINE
  8
0
 62
     0
 10
11.1924
 20
29.9365
 30
0.0
 11
11.6596
 21
29.14
 31
0.0
  0
LINE
  8
0
 62
     0
 10
11.6596
 20
29.14
 30
0.0
 11
12.1267
 21
28.389
 31
0.0
  0
LINE
  8
0
 62
     0
 10
12.1267
 20
28.389
 30
0.0
 11
12.5388
 21
27.7702
 31
0.0
  0
LINE
  8
0
 62
     0
 10
12.5388
 20
27.7702
 30
0.0
 11
12.8419
 21
27.3665
 31
0.0
  0
LINE
  8
0
 62
     0
 10
12.8419
 20
27.3665
 30
0.0
 11
13.1258
 21
26.971
 31
0.0
  0
LINE
  8
0
 62
     0
 10
13.1258
 20
26.971
 30
0.0
 11
13.4869
 21
26.3729
 31
0.0
  0
LINE
  8
0
 62
     0
 10
13.4869
 20
26.3729
 30
0.0
 11
13.8796
 21
25.6536
 31
0.0
  0
LINE
  8
0
 62
     0
 10
13.8796
 20
25.6536
 30
0.0
 11
14.2586
 21
24.8929
 31
0.0
  0
LINE
  8
0
 62
     0
 10
14.2586
 20
24.8929
 30
0.0
 11
14.6141
 21
24.1501
 31
0.0
  0
LINE
  8
0
 62
     0
 10
14.6141
 20
24.1501
 30
0.0
 11
14.9462
 21
23.4763
 31
0.0
  0
LINE
  8
0
 62
     0
 10
14.9462
 20
23.4763
 30
0.0
 11
15.219
 21
22.9457
 31
0.0
  0
LINE
  8
0
 62
     0
 10
15.219
 20
22.9457
 30
0.0
 11
15.3954
 21
22.6315
 31
0.0
  0
LINE
  8
0
 62
     0
 10
15.3954
 20
22.6315
 30
0.0
 11
15.5746
 21
22.2539
 31
0.0
  0
LINE
  8
0
 62
     0
 10
15.5746
 20
22.2539
 30
0.0
 11
15.6187
 21
21.9577
 31
0.0
  0
LINE
  8
0
 62
     0
 10
15.6187
 20
21.9577
 30
0.0
 11
15.6793
 21
21.6214
 31
0.0
  0
LINE
  8
0
 62
     0
 10
15.6793
 20
21.6214
 30
0.0
 11
15.9053
 21
21.1446
 31
0.0
  0
LINE
  8
0
 62
     0
 10
15.9053
 20
21.1446
 30
0.0
 11
16.2278
 21
20.3385
 31
0.0
  0
LINE
  8
0
 62
     0
 10
16.2278
 20
20.3385
 30
0.0
 11
16.4469
 21
19.2705
 31
0.0
  0
LINE
  8
0
 62
     0
 10
16.4469
 20
19.2705
 30
0.0
 11
16.5365
 21
18.1433
 31
0.0
  0
LINE
  8
0
 62
     0
 10
16.5365
 20
18.1433
 30
0.0
 11
16.4676
 21
17.1511
 31
0.0
  0
LINE
  8
0
 62
     0
 10
16.4676
 20
17.1511
 30
0.0
 11
16.3945
 21
16.5433
 31
0.0
  0
LINE
  8
0
 62
     0
 10
16.3945
 20
16.5433
 30
0.0
 11
16.4744
 21
16.1341
 31
0.0
  0
LINE
  8
0
 62
     0
 10
16.4744
 20
16.1341
 30
0.0
 11
16.7404
 21
15.8502
 31
0.0
  0
LINE
  8
0
 62
     0
 10
16.7404
 20
15.8502
 30
0.0
 11
17.2324
 21
15.6173
 31
0.0
  0
LINE
  8
0
 62
     0
 10
17.2324
 20
15.6173
 30
0.0
 11
17.1814
 21
15.3789
 31
0.0
  0
LINE
  8
0
 62
     0
 10
17.1814
 20
15.3789
 30
0.0
 11
16.706
 21
14.931
 31
0.0
  0
LINE
  8
0
 62
     0
 10
16.706
 20
14.931
 30
0.0
 11
16.2333
 21
14.5121
 31
0.0
  0
LINE
  8
0
 62
     0
 10
16.2333
 20
14.5121
 30
0.0
 11
16.1864
 21
14.3371
 31
0.0
  0
LINE
  8
0
 62
     0
 10
16.1864
 20
14.3371
 30
0.0
 11
16.3008
 21
14.1759
 31
0.0
  0
LINE
  8
0
 62
     0
 10
16.3008
 20
14.1759
 30
0.0
 11
16.3725
 21
13.6688
 31
0.0
  0
LINE
  8
0
 62
     0
 10
16.3725
 20
13.6688
 30
0.0
 11
16.4055
 21
12.7799
 31
0.0
  0
LINE
  8
0
 62
     0
 10
16.4055
 20
12.7799
 30
0.0
 11
16.4028
 21
11.4749
 31
0.0
  0
LINE
  8
0
 62
     0
 10
16.4028
 20
11.4749
 30
0.0
 11
16.3628
 21
8.61413
 31
0.0
  0
LINE
  8
0
 62
     0
 10
16.3628
 20
8.61413
 30
0.0
 11
17.1001
 21
7.69221
 31
0.0
  0
LINE
  8
0
 62
     0
 10
17.1001
 20
7.69221
 30
0.0
 11
17.6692
 21
7.04176
 31
0.0
  0
LINE
  8
0
 62
     0
 10
17.6692
 20
7.04176
 30
0.0
 11
18.0055
 21
6.7703
 31
0.0
  0
LINE
  8
0
 62
     0
 10
18.0055
 20
6.7703
 30
0.0
 11
18.3637
 21
6.4437
 31
0.0
  0
LINE
  8
0
 62
     0
 10
18.3637
 20
6.4437
 30
0.0
 11
18.9935
 21
5.65549
 31
0.0
  0
LINE
  8
0
 62
     0
 10
18.9935
 20
5.65549
 30
0.0
 11
19.7611
 21
4.78868
 31
0.0
  0
LINE
  8
0
 62
     0
 10
19.7611
 20
4.78868
 30
0.0
 11
20.4542
 21
4.29535
 31
0.0
  0
LINE
  8
0
 62
     0
 10
20.4542
 20
4.29535
 30
0.0
 11
20.9062
 21
4.01422
 31
0.0
  0
LINE
  8
0
 62
     0
 10
20.9062
 20
4.01422
 30
0.0
 11
21.3996
 21
3.53328
 31
0.0
  0
LINE
  8
0
 62
     0
 10
21.3996
 20
3.53328
 30
0.0
 11
21.8956
 21
2.91731
 31
0.0
  0
LINE
  8
0
 62
     0
 10
21.8956
 20
2.91731
 30
0.0
 11
22.3518
 21
2.23242
 31
0.0
  0
LINE
  8
0
 62
     0
 10
22.3518
 20
2.23242
 30
0.0
 11
22.7294
 21
1.54616
 31
0.0
  0
LINE
  8
0
 62
     0
 10
22.7294
 20
1.54616
 30
0.0
 11
22.9884
 21
0.921907
 31
0.0
  0
LINE
  8
0
 62
     0
 10
22.9884
 20
0.921907
 30
0.0
 11
23.089
 21
0.425813
 31
0.0
  0
LINE
  8
0
 62
     0
 10
23.089
 20
0.425813
 30
0.0
 11
22.9912
 21
0.122645
 31
0.0
  0
LINE
  8
0
 62
     0
 10
22.9912
 20
0.122645
 30
0.0
 11
22.7914
 21
-0
 31
0.0
  0
LINE
  8
0
 62
     0
 10
22.7914
 20
-0
 30
0.0
 11
22.7362
 21
0.12678
 31
0.0
  0
LINE
  8
0
 62
     0
 10
22.7362
 20
0.12678
 30
0.0
 11
22.7362
 21
0.124024
 31
0.0
  0
ENDSEC
  0
EOF
