  0
SECTION
  2
HEADER
  9
$ACADVER
  1
AC1009
  9
$EXTMIN
 10
0.0
 20
0.0
 30
0.0
  9
$EXTMAX
 10
1000.0
 20
1000.0
 30
0.0
  9
$FILLMODE
 70
 0
  9
$SPLFRAME
 70
 1
  0
ENDSEC
  0
SECTION
  2
TABLES
  0
TABLE
  2
LAYER
 70
1
  0
LAYER
  2
0
 70
     0
 62
     7
  6
CONTINUOUS
  0
ENDTAB
  0
ENDSEC
  0
SECTION
  2
ENTITIES
  0
LINE
  8
0
 62
     0
 10
11.333
 20
0.111621
 30
0.0
 11
11.1153
 21
0.158474
 31
0.0
  0
LINE
  8
0
 62
     0
 10
11.1153
 20
0.158474
 30
0.0
 11
10.859
 21
0.0757922
 31
0.0
  0
LINE
  8
0
 62
     0
 10
10.859
 20
0.0757922
 30
0.0
 11
10.8231
 21
0.19706
 31
0.0
  0
LINE
  8
0
 62
     0
 10
10.8231
 20
0.19706
 30
0.0
 11
10.7873
 21
0.323839
 31
0.0
  0
LINE
  8
0
 62
     0
 10
10.7873
 20
0.323839
 30
0.0
 11
10.7845
 21
0.686262
 31
0.0
  0
LINE
  8
0
 62
     0
 10
10.7845
 20
0.686262
 30
0.0
 11
10.7611
 21
1.36701
 31
0.0
  0
LINE
  8
0
 62
     0
 10
10.7611
 20
1.36701
 30
0.0
 11
10.7542
 21
2.00367
 31
0.0
  0
LINE
  8
0
 62
     0
 10
10.7542
 20
2.00367
 30
0.0
 11
10.8314
 21
2.61552
 31
0.0
  0
LINE
  8
0
 62
     0
 10
10.8314
 20
2.61552
 30
0.0
 11
10.7487
 21
2.9614
 31
0.0
  0
LINE
  8
0
 62
     0
 10
10.7487
 20
2.9614
 30
0.0
 11
10.7694
 21
3.1309
 31
0.0
  0
LINE
  8
0
 62
     0
 10
10.7694
 20
3.1309
 30
0.0
 11
10.7721
 21
3.30178
 31
0.0
  0
LINE
  8
0
 62
     0
 10
10.7721
 20
3.30178
 30
0.0
 11
10.6839
 21
3.43407
 31
0.0
  0
LINE
  8
0
 62
     0
 10
10.6839
 20
3.43407
 30
0.0
 11
10.7694
 21
3.514
 31
0.0
  0
LINE
  8
0
 62
     0
 10
10.7694
 20
3.514
 30
0.0
 11
10.8548
 21
3.57325
 31
0.0
  0
LINE
  8
0
 62
     0
 10
10.8548
 20
3.57325
 30
0.0
 11
10.9402
 21
3.55671
 31
0.0
  0
LINE
  8
0
 62
     0
 10
10.9402
 20
3.55671
 30
0.0
 11
10.972
 21
3.70004
 31
0.0
  0
LINE
  8
0
 62
     0
 10
10.972
 20
3.70004
 30
0.0
 11
10.9871
 21
4.00597
 31
0.0
  0
LINE
  8
0
 62
     0
 10
10.9871
 20
4.00597
 30
0.0
 11
11.2048
 21
4.41247
 31
0.0
  0
LINE
  8
0
 62
     0
 10
11.2048
 20
4.41247
 30
0.0
 11
11.3978
 21
4.77076
 31
0.0
  0
LINE
  8
0
 62
     0
 10
11.3978
 20
4.77076
 30
0.0
 11
11.4639
 21
5.01329
 31
0.0
  0
LINE
  8
0
 62
     0
 10
11.4639
 20
5.01329
 30
0.0
 11
11.5383
 21
5.17179
 31
0.0
  0
LINE
  8
0
 62
     0
 10
11.5383
 20
5.17179
 30
0.0
 11
11.5976
 21
5.38261
 31
0.0
  0
LINE
  8
0
 62
     0
 10
11.5976
 20
5.38261
 30
0.0
 11
11.6307
 21
5.54799
 31
0.0
  0
LINE
  8
0
 62
     0
 10
11.6307
 20
5.54799
 30
0.0
 11
11.7092
 21
5.74089
 31
0.0
  0
LINE
  8
0
 62
     0
 10
11.7092
 20
5.74089
 30
0.0
 11
11.7864
 21
6.14193
 31
0.0
  0
LINE
  8
0
 62
     0
 10
11.7864
 20
6.14193
 30
0.0
 11
11.8677
 21
6.21083
 31
0.0
  0
LINE
  8
0
 62
     0
 10
11.8677
 20
6.21083
 30
0.0
 11
11.9903
 21
6.21083
 31
0.0
  0
LINE
  8
0
 62
     0
 10
11.9903
 20
6.21083
 30
0.0
 11
12.0771
 21
6.70278
 31
0.0
  0
LINE
  8
0
 62
     0
 10
12.0771
 20
6.70278
 30
0.0
 11
12.0702
 21
6.97149
 31
0.0
  0
LINE
  8
0
 62
     0
 10
12.0702
 20
6.97149
 30
0.0
 11
12.1309
 21
6.91638
 31
0.0
  0
LINE
  8
0
 62
     0
 10
12.1309
 20
6.91638
 30
0.0
 11
12.186
 21
6.87779
 31
0.0
  0
LINE
  8
0
 62
     0
 10
12.186
 20
6.87779
 30
0.0
 11
12.1736
 21
7.1713
 31
0.0
  0
LINE
  8
0
 62
     0
 10
12.1736
 20
7.1713
 30
0.0
 11
12.0785
 21
7.89753
 31
0.0
  0
LINE
  8
0
 62
     0
 10
12.0785
 20
7.89753
 30
0.0
 11
11.9435
 21
8.20896
 31
0.0
  0
LINE
  8
0
 62
     0
 10
11.9435
 20
8.20896
 30
0.0
 11
11.8594
 21
8.3771
 31
0.0
  0
LINE
  8
0
 62
     0
 10
11.8594
 20
8.3771
 30
0.0
 11
11.8277
 21
8.75467
 31
0.0
  0
LINE
  8
0
 62
     0
 10
11.8277
 20
8.75467
 30
0.0
 11
11.6982
 21
9.0854
 31
0.0
  0
LINE
  8
0
 62
     0
 10
11.6982
 20
9.0854
 30
0.0
 11
11.6775
 21
9.22736
 31
0.0
  0
LINE
  8
0
 62
     0
 10
11.6775
 20
9.22736
 30
0.0
 11
11.6417
 21
9.31277
 31
0.0
  0
LINE
  8
0
 62
     0
 10
11.6417
 20
9.31277
 30
0.0
 11
11.5176
 21
9.55393
 31
0.0
  0
LINE
  8
0
 62
     0
 10
11.5176
 20
9.55393
 30
0.0
 11
11.6127
 21
9.85023
 31
0.0
  0
LINE
  8
0
 62
     0
 10
11.6127
 20
9.85023
 30
0.0
 11
11.6086
 21
9.915
 31
0.0
  0
LINE
  8
0
 62
     0
 10
11.6086
 20
9.915
 30
0.0
 11
11.4184
 21
10.0707
 31
0.0
  0
LINE
  8
0
 62
     0
 10
11.4184
 20
10.0707
 30
0.0
 11
11.2021
 21
10.2402
 31
0.0
  0
LINE
  8
0
 62
     0
 10
11.2021
 20
10.2402
 30
0.0
 11
11.1373
 21
10.3339
 31
0.0
  0
LINE
  8
0
 62
     0
 10
11.1373
 20
10.3339
 30
0.0
 11
11.056
 21
10.5227
 31
0.0
  0
LINE
  8
0
 62
     0
 10
11.056
 20
10.5227
 30
0.0
 11
10.6633
 21
10.9706
 31
0.0
  0
LINE
  8
0
 62
     0
 10
10.6633
 20
10.9706
 30
0.0
 11
10.429
 21
11.2848
 31
0.0
  0
LINE
  8
0
 62
     0
 10
10.429
 20
11.2848
 30
0.0
 11
10.2168
 21
11.5521
 31
0.0
  0
LINE
  8
0
 62
     0
 10
10.2168
 20
11.5521
 30
0.0
 11
10.0046
 21
11.8649
 31
0.0
  0
LINE
  8
0
 62
     0
 10
10.0046
 20
11.8649
 30
0.0
 11
9.91912
 21
11.9765
 31
0.0
  0
LINE
  8
0
 62
     0
 10
9.91912
 20
11.9765
 30
0.0
 11
9.83506
 21
12.1019
 31
0.0
  0
LINE
  8
0
 62
     0
 10
9.83506
 20
12.1019
 30
0.0
 11
9.58427
 21
12.3569
 31
0.0
  0
LINE
  8
0
 62
     0
 10
9.58427
 20
12.3569
 30
0.0
 11
9.32519
 21
12.4409
 31
0.0
  0
LINE
  8
0
 62
     0
 10
9.32519
 20
12.4409
 30
0.0
 11
9.0303
 21
12.3073
 31
0.0
  0
LINE
  8
0
 62
     0
 10
9.0303
 20
12.3073
 30
0.0
 11
8.77397
 21
11.9751
 31
0.0
  0
LINE
  8
0
 62
     0
 10
8.77397
 20
11.9751
 30
0.0
 11
8.73813
 21
11.7367
 31
0.0
  0
LINE
  8
0
 62
     0
 10
8.73813
 20
11.7367
 30
0.0
 11
8.57966
 21
11.3688
 31
0.0
  0
LINE
  8
0
 62
     0
 10
8.57966
 20
11.3688
 30
0.0
 11
8.3082
 21
10.9706
 31
0.0
  0
LINE
  8
0
 62
     0
 10
8.3082
 20
10.9706
 30
0.0
 11
7.96092
 21
10.7211
 31
0.0
  0
LINE
  8
0
 62
     0
 10
7.96092
 20
10.7211
 30
0.0
 11
7.64536
 21
10.5103
 31
0.0
  0
LINE
  8
0
 62
     0
 10
7.64536
 20
10.5103
 30
0.0
 11
7.542
 21
10.2292
 31
0.0
  0
LINE
  8
0
 62
     0
 10
7.542
 20
10.2292
 30
0.0
 11
7.43176
 21
9.95355
 31
0.0
  0
LINE
  8
0
 62
     0
 10
7.43176
 20
9.95355
 30
0.0
 11
7.18785
 21
9.69864
 31
0.0
  0
LINE
  8
0
 62
     0
 10
7.18785
 20
9.69864
 30
0.0
 11
6.7648
 21
9.29072
 31
0.0
  0
LINE
  8
0
 62
     0
 10
6.7648
 20
9.29072
 30
0.0
 11
6.30728
 21
8.72024
 31
0.0
  0
LINE
  8
0
 62
     0
 10
6.30728
 20
8.72024
 30
0.0
 11
5.85943
 21
7.96505
 31
0.0
  0
LINE
  8
0
 62
     0
 10
5.85943
 20
7.96505
 30
0.0
 11
5.31234
 21
7.43864
 31
0.0
  0
LINE
  8
0
 62
     0
 10
5.31234
 20
7.43864
 30
0.0
 11
5.04363
 21
7.23607
 31
0.0
  0
LINE
  8
0
 62
     0
 10
5.04363
 20
7.23607
 30
0.0
 11
4.90721
 21
7.1162
 31
0.0
  0
LINE
  8
0
 62
     0
 10
4.90721
 20
7.1162
 30
0.0
 11
4.64263
 21
7.02525
 31
0.0
  0
LINE
  8
0
 62
     0
 10
4.64263
 20
7.02525
 30
0.0
 11
4.13413
 21
6.79785
 31
0.0
  0
LINE
  8
0
 62
     0
 10
4.13413
 20
6.79785
 30
0.0
 11
3.80615
 21
6.50572
 31
0.0
  0
LINE
  8
0
 62
     0
 10
3.80615
 20
6.50572
 30
0.0
 11
3.65319
 21
6.28798
 31
0.0
  0
LINE
  8
0
 62
     0
 10
3.65319
 20
6.28798
 30
0.0
 11
3.31143
 21
5.95588
 31
0.0
  0
LINE
  8
0
 62
     0
 10
3.31143
 20
5.95588
 30
0.0
 11
2.949
 21
5.65824
 31
0.0
  0
LINE
  8
0
 62
     0
 10
2.949
 20
5.65824
 30
0.0
 11
2.73541
 21
5.54662
 31
0.0
  0
LINE
  8
0
 62
     0
 10
2.73541
 20
5.54662
 30
0.0
 11
2.63481
 21
5.53145
 31
0.0
  0
LINE
  8
0
 62
     0
 10
2.63481
 20
5.53145
 30
0.0
 11
2.50252
 21
5.07668
 31
0.0
  0
LINE
  8
0
 62
     0
 10
2.50252
 20
5.07668
 30
0.0
 11
2.14423
 21
4.58474
 31
0.0
  0
LINE
  8
0
 62
     0
 10
2.14423
 20
4.58474
 30
0.0
 11
1.85208
 21
4.19887
 31
0.0
  0
LINE
  8
0
 62
     0
 10
1.85208
 20
4.19887
 30
0.0
 11
1.79834
 21
4.07762
 31
0.0
  0
LINE
  8
0
 62
     0
 10
1.79834
 20
4.07762
 30
0.0
 11
1.61644
 21
3.86263
 31
0.0
  0
LINE
  8
0
 62
     0
 10
1.61644
 20
3.86263
 30
0.0
 11
1.27744
 21
3.52089
 31
0.0
  0
LINE
  8
0
 62
     0
 10
1.27744
 20
3.52089
 30
0.0
 11
0.748273
 21
3.01928
 31
0.0
  0
LINE
  8
0
 62
     0
 10
0.748273
 20
3.01928
 30
0.0
 11
0.526411
 21
2.72162
 31
0.0
  0
LINE
  8
0
 62
     0
 10
0.526411
 20
2.72162
 30
0.0
 11
0.377582
 21
2.43362
 31
0.0
  0
LINE
  8
0
 62
     0
 10
0.377582
 20
2.43362
 30
0.0
 11
0.07028
 21
2.28065
 31
0.0
  0
LINE
  8
0
 62
     0
 10
0.07028
 20
2.28065
 30
0.0
 11
0.00137804
 21
2.38952
 31
0.0
  0
LINE
  8
0
 62
     0
 10
0.00137804
 20
2.38952
 30
0.0
 11
0.13367
 21
2.61276
 31
0.0
  0
LINE
  8
0
 62
     0
 10
0.13367
 20
2.61276
 30
0.0
 11
0.322461
 21
2.95727
 31
0.0
  0
LINE
  8
0
 62
     0
 10
0.322461
 20
2.95727
 30
0.0
 11
0.434082
 21
3.12539
 31
0.0
  0
LINE
  8
0
 62
     0
 10
0.434082
 20
3.12539
 30
0.0
 11
0.705556
 21
3.40513
 31
0.0
  0
LINE
  8
0
 62
     0
 10
0.705556
 20
3.40513
 30
0.0
 11
0.974273
 21
3.69866
 31
0.0
  0
LINE
  8
0
 62
     0
 10
0.974273
 20
3.69866
 30
0.0
 11
1.08727
 21
3.8971
 31
0.0
  0
LINE
  8
0
 62
     0
 10
1.08727
 20
3.8971
 30
0.0
 11
1.17822
 21
4.08587
 31
0.0
  0
LINE
  8
0
 62
     0
 10
1.17822
 20
4.08587
 30
0.0
 11
1.39182
 21
4.3422
 31
0.0
  0
LINE
  8
0
 62
     0
 10
1.39182
 20
4.3422
 30
0.0
 11
1.63573
 21
4.56681
 31
0.0
  0
LINE
  8
0
 62
     0
 10
1.63573
 20
4.56681
 30
0.0
 11
1.81626
 21
4.66189
 31
0.0
  0
LINE
  8
0
 62
     0
 10
1.81626
 20
4.66189
 30
0.0
 11
2.01883
 21
4.99262
 31
0.0
  0
LINE
  8
0
 62
     0
 10
2.01883
 20
4.99262
 30
0.0
 11
2.41708
 21
5.56038
 31
0.0
  0
LINE
  8
0
 62
     0
 10
2.41708
 20
5.56038
 30
0.0
 11
2.836
 21
5.92833
 31
0.0
  0
LINE
  8
0
 62
     0
 10
2.836
 20
5.92833
 30
0.0
 11
3.40789
 21
6.48092
 31
0.0
  0
LINE
  8
0
 62
     0
 10
3.40789
 20
6.48092
 30
0.0
 11
3.83508
 21
6.89709
 31
0.0
  0
LINE
  8
0
 62
     0
 10
3.83508
 20
6.89709
 30
0.0
 11
4.11896
 21
7.12033
 31
0.0
  0
LINE
  8
0
 62
     0
 10
4.11896
 20
7.12033
 30
0.0
 11
4.31052
 21
7.18234
 31
0.0
  0
LINE
  8
0
 62
     0
 10
4.31052
 20
7.18234
 30
0.0
 11
4.4607
 21
7.11345
 31
0.0
  0
LINE
  8
0
 62
     0
 10
4.4607
 20
7.11345
 30
0.0
 11
4.56957
 21
7.17543
 31
0.0
  0
LINE
  8
0
 62
     0
 10
4.56957
 20
7.17543
 30
0.0
 11
4.6192
 21
7.27742
 31
0.0
  0
LINE
  8
0
 62
     0
 10
4.6192
 20
7.27742
 30
0.0
 11
4.89066
 21
7.41246
 31
0.0
  0
LINE
  8
0
 62
     0
 10
4.89066
 20
7.41246
 30
0.0
 11
6.14744
 21
8.97929
 31
0.0
  0
LINE
  8
0
 62
     0
 10
6.14744
 20
8.97929
 30
0.0
 11
6.3197
 21
9.29488
 31
0.0
  0
LINE
  8
0
 62
     0
 10
6.3197
 20
9.29488
 30
0.0
 11
6.43819
 21
9.4258
 31
0.0
  0
LINE
  8
0
 62
     0
 10
6.43819
 20
9.4258
 30
0.0
 11
6.627
 21
9.54155
 31
0.0
  0
LINE
  8
0
 62
     0
 10
6.627
 20
9.54155
 30
0.0
 11
6.91226
 21
9.80613
 31
0.0
  0
LINE
  8
0
 62
     0
 10
6.91226
 20
9.80613
 30
0.0
 11
7.17268
 21
10.0955
 31
0.0
  0
LINE
  8
0
 62
     0
 10
7.17268
 20
10.0955
 30
0.0
 11
7.28708
 21
10.2871
 31
0.0
  0
LINE
  8
0
 62
     0
 10
7.28708
 20
10.2871
 30
0.0
 11
7.38491
 21
10.4717
 31
0.0
  0
LINE
  8
0
 62
     0
 10
7.38491
 20
10.4717
 30
0.0
 11
7.62056
 21
10.7377
 31
0.0
  0
LINE
  8
0
 62
     0
 10
7.62056
 20
10.7377
 30
0.0
 11
7.84243
 21
10.9981
 31
0.0
  0
LINE
  8
0
 62
     0
 10
7.84243
 20
10.9981
 30
0.0
 11
7.9127
 21
11.1662
 31
0.0
  0
LINE
  8
0
 62
     0
 10
7.9127
 20
11.1662
 30
0.0
 11
7.99952
 21
11.3743
 31
0.0
  0
LINE
  8
0
 62
     0
 10
7.99952
 20
11.3743
 30
0.0
 11
8.07392
 21
11.6141
 31
0.0
  0
LINE
  8
0
 62
     0
 10
8.07392
 20
11.6141
 30
0.0
 11
8.11664
 21
11.6913
 31
0.0
  0
LINE
  8
0
 62
     0
 10
8.11664
 20
11.6913
 30
0.0
 11
8.39089
 21
11.8346
 31
0.0
  0
LINE
  8
0
 62
     0
 10
8.39089
 20
11.8346
 30
0.0
 11
8.56036
 21
12.2356
 31
0.0
  0
LINE
  8
0
 62
     0
 10
8.56036
 20
12.2356
 30
0.0
 11
8.73125
 21
12.6573
 31
0.0
  0
LINE
  8
0
 62
     0
 10
8.73125
 20
12.6573
 30
0.0
 11
8.90076
 21
12.9784
 31
0.0
  0
LINE
  8
0
 62
     0
 10
8.90076
 20
12.9784
 30
0.0
 11
8.98066
 21
13.1506
 31
0.0
  0
LINE
  8
0
 62
     0
 10
8.98066
 20
13.1506
 30
0.0
 11
9.16259
 21
13.4001
 31
0.0
  0
LINE
  8
0
 62
     0
 10
9.16259
 20
13.4001
 30
0.0
 11
9.36103
 21
13.6219
 31
0.0
  0
LINE
  8
0
 62
     0
 10
9.36103
 20
13.6219
 30
0.0
 11
9.49053
 21
13.7074
 31
0.0
  0
LINE
  8
0
 62
     0
 10
9.49053
 20
13.7074
 30
0.0
 11
9.51675
 21
13.768
 31
0.0
  0
LINE
  8
0
 62
     0
 10
9.51675
 20
13.768
 30
0.0
 11
9.60219
 21
13.8052
 31
0.0
  0
LINE
  8
0
 62
     0
 10
9.60219
 20
13.8052
 30
0.0
 11
9.87915
 21
13.9182
 31
0.0
  0
LINE
  8
0
 62
     0
 10
9.87915
 20
13.9182
 30
0.0
 11
10.1658
 21
14.2586
 31
0.0
  0
LINE
  8
0
 62
     0
 10
10.1658
 20
14.2586
 30
0.0
 11
10.3436
 21
14.4019
 31
0.0
  0
LINE
  8
0
 62
     0
 10
10.3436
 20
14.4019
 30
0.0
 11
10.5668
 21
14.6761
 31
0.0
  0
LINE
  8
0
 62
     0
 10
10.5668
 20
14.6761
 30
0.0
 11
10.8713
 21
15.1501
 31
0.0
  0
LINE
  8
0
 62
     0
 10
10.8713
 20
15.1501
 30
0.0
 11
10.9706
 21
15.3968
 31
0.0
  0
LINE
  8
0
 62
     0
 10
10.9706
 20
15.3968
 30
0.0
 11
10.9954
 21
15.4395
 31
0.0
  0
LINE
  8
0
 62
     0
 10
10.9954
 20
15.4395
 30
0.0
 11
11.2324
 21
15.5718
 31
0.0
  0
LINE
  8
0
 62
     0
 10
11.2324
 20
15.5718
 30
0.0
 11
11.3812
 21
15.7827
 31
0.0
  0
LINE
  8
0
 62
     0
 10
11.3812
 20
15.7827
 30
0.0
 11
11.5287
 21
16.1396
 31
0.0
  0
LINE
  8
0
 62
     0
 10
11.5287
 20
16.1396
 30
0.0
 11
11.7216
 21
16.4124
 31
0.0
  0
LINE
  8
0
 62
     0
 10
11.7216
 20
16.4124
 30
0.0
 11
12.1006
 21
16.5117
 31
0.0
  0
LINE
  8
0
 62
     0
 10
12.1006
 20
16.5117
 30
0.0
 11
12.3844
 21
16.6122
 31
0.0
  0
LINE
  8
0
 62
     0
 10
12.3844
 20
16.6122
 30
0.0
 11
12.259
 21
16.9678
 31
0.0
  0
LINE
  8
0
 62
     0
 10
12.259
 20
16.9678
 30
0.0
 11
12.0813
 21
17.3385
 31
0.0
  0
LINE
  8
0
 62
     0
 10
12.0813
 20
17.3385
 30
0.0
 11
11.8677
 21
17.7643
 31
0.0
  0
LINE
  8
0
 62
     0
 10
11.8677
 20
17.7643
 30
0.0
 11
11.8994
 21
18.1433
 31
0.0
  0
LINE
  8
0
 62
     0
 10
11.8994
 20
18.1433
 30
0.0
 11
12.0675
 21
18.4244
 31
0.0
  0
LINE
  8
0
 62
     0
 10
12.0675
 20
18.4244
 30
0.0
 11
11.9931
 21
18.8295
 31
0.0
  0
LINE
  8
0
 62
     0
 10
11.9931
 20
18.8295
 30
0.0
 11
11.9021
 21
19.2484
 31
0.0
  0
LINE
  8
0
 62
     0
 10
11.9021
 20
19.2484
 30
0.0
 11
11.8539
 21
19.8658
 31
0.0
  0
LINE
  8
0
 62
     0
 10
11.8539
 20
19.8658
 30
0.0
 11
11.8525
 21
20.4942
 31
0.0
  0
LINE
  8
0
 62
     0
 10
11.8525
 20
20.4942
 30
0.0
 11
11.9076
 21
20.9503
 31
0.0
  0
LINE
  8
0
 62
     0
 10
11.9076
 20
20.9503
 30
0.0
 11
11.9848
 21
21.7151
 31
0.0
  0
LINE
  8
0
 62
     0
 10
11.9848
 20
21.7151
 30
0.0
 11
12.0137
 21
22.0955
 31
0.0
  0
LINE
  8
0
 62
     0
 10
12.0137
 20
22.0955
 30
0.0
 11
12.0799
 21
22.2884
 31
0.0
  0
LINE
  8
0
 62
     0
 10
12.0799
 20
22.2884
 30
0.0
 11
12.0716
 21
22.3518
 31
0.0
  0
LINE
  8
0
 62
     0
 10
12.0716
 20
22.3518
 30
0.0
 11
12.0151
 21
22.5116
 31
0.0
  0
LINE
  8
0
 62
     0
 10
12.0151
 20
22.5116
 30
0.0
 11
11.8856
 21
22.7156
 31
0.0
  0
LINE
  8
0
 62
     0
 10
11.8856
 20
22.7156
 30
0.0
 11
11.7409
 21
22.8603
 31
0.0
  0
LINE
  8
0
 62
     0
 10
11.7409
 20
22.8603
 30
0.0
 11
11.6996
 21
23.3853
 31
0.0
  0
LINE
  8
0
 62
     0
 10
11.6996
 20
23.3853
 30
0.0
 11
11.6871
 21
24.0964
 31
0.0
  0
LINE
  8
0
 62
     0
 10
11.6871
 20
24.0964
 30
0.0
 11
11.7078
 21
24.5126
 31
0.0
  0
LINE
  8
0
 62
     0
 10
11.7078
 20
24.5126
 30
0.0
 11
11.7767
 21
24.7661
 31
0.0
  0
LINE
  8
0
 62
     0
 10
11.7767
 20
24.7661
 30
0.0
 11
11.9159
 21
24.9907
 31
0.0
  0
LINE
  8
0
 62
     0
 10
11.9159
 20
24.9907
 30
0.0
 11
12.0606
 21
25.2498
 31
0.0
  0
LINE
  8
0
 62
     0
 10
12.0606
 20
25.2498
 30
0.0
 11
12.0895
 21
25.4083
 31
0.0
  0
LINE
  8
0
 62
     0
 10
12.0895
 20
25.4083
 30
0.0
 11
12.1695
 21
25.7542
 31
0.0
  0
LINE
  8
0
 62
     0
 10
12.1695
 20
25.7542
 30
0.0
 11
12.3362
 21
26.4156
 31
0.0
  0
LINE
  8
0
 62
     0
 10
12.3362
 20
26.4156
 30
0.0
 11
12.423
 21
27.095
 31
0.0
  0
LINE
  8
0
 62
     0
 10
12.423
 20
27.095
 30
0.0
 11
12.5553
 21
27.4175
 31
0.0
  0
LINE
  8
0
 62
     0
 10
12.5553
 20
27.4175
 30
0.0
 11
12.6077
 21
27.6683
 31
0.0
  0
LINE
  8
0
 62
     0
 10
12.6077
 20
27.6683
 30
0.0
 11
12.6463
 21
27.7964
 31
0.0
  0
LINE
  8
0
 62
     0
 10
12.6463
 20
27.7964
 30
0.0
 11
12.6766
 21
27.9769
 31
0.0
  0
LINE
  8
0
 62
     0
 10
12.6766
 20
27.9769
 30
0.0
 11
12.7028
 21
28.1065
 31
0.0
  0
LINE
  8
0
 62
     0
 10
12.7028
 20
28.1065
 30
0.0
 11
12.8337
 21
28.287
 31
0.0
  0
LINE
  8
0
 62
     0
 10
12.8337
 20
28.287
 30
0.0
 11
12.9563
 21
28.5502
 31
0.0
  0
LINE
  8
0
 62
     0
 10
12.9563
 20
28.5502
 30
0.0
 11
13.1878
 21
28.8534
 31
0.0
  0
LINE
  8
0
 62
     0
 10
13.1878
 20
28.8534
 30
0.0
 11
13.4524
 21
29.2296
 31
0.0
  0
LINE
  8
0
 62
     0
 10
13.4524
 20
29.2296
 30
0.0
 11
13.6577
 21
29.6623
 31
0.0
  0
LINE
  8
0
 62
     0
 10
13.6577
 20
29.6623
 30
0.0
 11
13.7942
 21
30.0095
 31
0.0
  0
LINE
  8
0
 62
     0
 10
13.7942
 20
30.0095
 30
0.0
 11
13.8355
 21
29.88
 31
0.0
  0
LINE
  8
0
 62
     0
 10
13.8355
 20
29.88
 30
0.0
 11
13.8534
 21
29.705
 31
0.0
  0
LINE
  8
0
 62
     0
 10
13.8534
 20
29.705
 30
0.0
 11
13.8879
 21
29.829
 31
0.0
  0
LINE
  8
0
 62
     0
 10
13.8879
 20
29.829
 30
0.0
 11
13.841
 21
30.2121
 31
0.0
  0
LINE
  8
0
 62
     0
 10
13.841
 20
30.2121
 30
0.0
 11
13.6136
 21
30.8157
 31
0.0
  0
LINE
  8
0
 62
     0
 10
13.6136
 20
30.8157
 30
0.0
 11
13.5461
 21
31.1561
 31
0.0
  0
LINE
  8
0
 62
     0
 10
13.5461
 20
31.1561
 30
0.0
 11
13.4703
 21
32.1014
 31
0.0
  0
LINE
  8
0
 62
     0
 10
13.4703
 20
32.1014
 30
0.0
 11
13.6095
 21
32.891
 31
0.0
  0
LINE
  8
0
 62
     0
 10
13.6095
 20
32.891
 30
0.0
 11
13.8452
 21
33.2397
 31
0.0
  0
LINE
  8
0
 62
     0
 10
13.8452
 20
33.2397
 30
0.0
 11
13.8989
 21
33.3885
 31
0.0
  0
LINE
  8
0
 62
     0
 10
13.8989
 20
33.3885
 30
0.0
 11
13.9899
 21
33.744
 31
0.0
  0
LINE
  8
0
 62
     0
 10
13.9899
 20
33.744
 30
0.0
 11
14.0739
 21
34.0803
 31
0.0
  0
LINE
  8
0
 62
     0
 10
14.0739
 20
34.0803
 30
0.0
 11
14.118
 21
34.5984
 31
0.0
  0
LINE
  8
0
 62
     0
 10
14.118
 20
34.5984
 30
0.0
 11
14.1483
 21
35.0876
 31
0.0
  0
LINE
  8
0
 62
     0
 10
14.1483
 20
35.0876
 30
0.0
 11
14.1979
 21
35.348
 31
0.0
  0
LINE
  8
0
 62
     0
 10
14.1979
 20
35.348
 30
0.0
 11
14.107
 21
35.3935
 31
0.0
  0
LINE
  8
0
 62
     0
 10
14.107
 20
35.3935
 30
0.0
 11
13.9967
 21
35.3702
 31
0.0
  0
LINE
  8
0
 62
     0
 10
13.9967
 20
35.3702
 30
0.0
 11
14.0959
 21
35.5011
 31
0.0
  0
LINE
  8
0
 62
     0
 10
14.0959
 20
35.5011
 30
0.0
 11
14.2668
 21
35.7491
 31
0.0
  0
LINE
  8
0
 62
     0
 10
14.2668
 20
35.7491
 30
0.0
 11
14.3481
 21
35.8151
 31
0.0
  0
LINE
  8
0
 62
     0
 10
14.3481
 20
35.8151
 30
0.0
 11
14.4584
 21
36.0165
 31
0.0
  0
LINE
  8
0
 62
     0
 10
14.4584
 20
36.0165
 30
0.0
 11
14.5287
 21
36.1872
 31
0.0
  0
LINE
  8
0
 62
     0
 10
14.5287
 20
36.1872
 30
0.0
 11
14.6844
 21
36.0811
 31
0.0
  0
LINE
  8
0
 62
     0
 10
14.6844
 20
36.0811
 30
0.0
 11
14.8387
 21
35.9763
 31
0.0
  0
LINE
  8
0
 62
     0
 10
14.8387
 20
35.9763
 30
0.0
 11
14.9338
 21
36.0507
 31
0.0
  0
LINE
  8
0
 62
     0
 10
14.9338
 20
36.0507
 30
0.0
 11
15.0137
 21
36.2712
 31
0.0
  0
LINE
  8
0
 62
     0
 10
15.0137
 20
36.2712
 30
0.0
 11
14.8924
 21
36.4134
 31
0.0
  0
LINE
  8
0
 62
     0
 10
14.8924
 20
36.4134
 30
0.0
 11
14.6858
 21
36.3636
 31
0.0
  0
LINE
  8
0
 62
     0
 10
14.6858
 20
36.3636
 30
0.0
 11
14.5907
 21
36.3707
 31
0.0
  0
LINE
  8
0
 62
     0
 10
14.5907
 20
36.3707
 30
0.0
 11
14.6541
 21
36.4726
 31
0.0
  0
LINE
  8
0
 62
     0
 10
14.6541
 20
36.4726
 30
0.0
 11
14.8594
 21
36.7235
 31
0.0
  0
LINE
  8
0
 62
     0
 10
14.8594
 20
36.7235
 30
0.0
 11
14.9021
 21
37.0184
 31
0.0
  0
LINE
  8
0
 62
     0
 10
14.9021
 20
37.0184
 30
0.0
 11
14.931
 21
37.0554
 31
0.0
  0
LINE
  8
0
 62
     0
 10
14.931
 20
37.0554
 30
0.0
 11
15.1501
 21
37.0582
 31
0.0
  0
LINE
  8
0
 62
     0
 10
15.1501
 20
37.0582
 30
0.0
 11
15.3031
 21
37.1948
 31
0.0
  0
LINE
  8
0
 62
     0
 10
15.3031
 20
37.1948
 30
0.0
 11
15.514
 21
37.4922
 31
0.0
  0
LINE
  8
0
 62
     0
 10
15.514
 20
37.4922
 30
0.0
 11
15.6986
 21
37.8259
 31
0.0
  0
LINE
  8
0
 62
     0
 10
15.6986
 20
37.8259
 30
0.0
 11
15.7799
 21
38.0615
 31
0.0
  0
LINE
  8
0
 62
     0
 10
15.7799
 20
38.0615
 30
0.0
 11
15.8571
 21
38.3053
 31
0.0
  0
LINE
  8
0
 62
     0
 10
15.8571
 20
38.3053
 30
0.0
 11
15.9246
 21
38.5424
 31
0.0
  0
LINE
  8
0
 62
     0
 10
15.9246
 20
38.5424
 30
0.0
 11
15.9701
 21
38.9558
 31
0.0
  0
LINE
  8
0
 62
     0
 10
15.9701
 20
38.9558
 30
0.0
 11
15.9797
 21
39.3404
 31
0.0
  0
LINE
  8
0
 62
     0
 10
15.9797
 20
39.3404
 30
0.0
 11
15.9384
 21
39.485
 31
0.0
  0
LINE
  8
0
 62
     0
 10
15.9384
 20
39.485
 30
0.0
 11
15.9177
 21
39.5718
 31
0.0
  0
LINE
  8
0
 62
     0
 10
15.9177
 20
39.5718
 30
0.0
 11
16.0431
 21
39.7041
 31
0.0
  0
LINE
  8
0
 62
     0
 10
16.0431
 20
39.7041
 30
0.0
 11
16.1203
 21
40.0237
 31
0.0
  0
LINE
  8
0
 62
     0
 10
16.1203
 20
40.0237
 30
0.0
 11
16.1575
 21
40.4054
 31
0.0
  0
LINE
  8
0
 62
     0
 10
16.1575
 20
40.4054
 30
0.0
 11
16.2471
 21
40.8753
 31
0.0
  0
LINE
  8
0
 62
     0
 10
16.2471
 20
40.8753
 30
0.0
 11
16.3298
 21
41.2708
 31
0.0
  0
LINE
  8
0
 62
     0
 10
16.3298
 20
41.2708
 30
0.0
 11
16.3559
 21
41.4708
 31
0.0
  0
LINE
  8
0
 62
     0
 10
16.3559
 20
41.4708
 30
0.0
 11
16.4441
 21
41.8412
 31
0.0
  0
LINE
  8
0
 62
     0
 10
16.4441
 20
41.8412
 30
0.0
 11
16.4731
 21
42.4917
 31
0.0
  0
LINE
  8
0
 62
     0
 10
16.4731
 20
42.4917
 30
0.0
 11
16.4717
 21
42.9313
 31
0.0
  0
LINE
  8
0
 62
     0
 10
16.4717
 20
42.9313
 30
0.0
 11
16.9209
 21
42.8611
 31
0.0
  0
LINE
  8
0
 62
     0
 10
16.9209
 20
42.8611
 30
0.0
 11
17.2186
 21
42.635
 31
0.0
  0
LINE
  8
0
 62
     0
 10
17.2186
 20
42.635
 30
0.0
 11
17.0725
 21
42.6653
 31
0.0
  0
LINE
  8
0
 62
     0
 10
17.0725
 20
42.6653
 30
0.0
 11
16.8341
 21
42.7662
 31
0.0
  0
LINE
  8
0
 62
     0
 10
16.8341
 20
42.7662
 30
0.0
 11
16.6288
 21
42.5965
 31
0.0
  0
LINE
  8
0
 62
     0
 10
16.6288
 20
42.5965
 30
0.0
 11
16.6867
 21
42.46
 31
0.0
  0
LINE
  8
0
 62
     0
 10
16.6867
 20
42.46
 30
0.0
 11
16.9265
 21
42.4258
 31
0.0
  0
LINE
  8
0
 62
     0
 10
16.9265
 20
42.4258
 30
0.0
 11
17.202
 21
42.3609
 31
0.0
  0
LINE
  8
0
 62
     0
 10
17.202
 20
42.3609
 30
0.0
 11
17.1235
 21
42.0275
 31
0.0
  0
LINE
  8
0
 62
     0
 10
17.1235
 20
42.0275
 30
0.0
 11
17.005
 21
41.6183
 31
0.0
  0
LINE
  8
0
 62
     0
 10
17.005
 20
41.6183
 30
0.0
 11
16.8479
 21
40.5158
 31
0.0
  0
LINE
  8
0
 62
     0
 10
16.8479
 20
40.5158
 30
0.0
 11
16.7046
 21
39.8544
 31
0.0
  0
LINE
  8
0
 62
     0
 10
16.7046
 20
39.8544
 30
0.0
 11
16.6288
 21
39.2508
 31
0.0
  0
LINE
  8
0
 62
     0
 10
16.6288
 20
39.2508
 30
0.0
 11
16.5268
 21
38.6002
 31
0.0
  0
LINE
  8
0
 62
     0
 10
16.5268
 20
38.6002
 30
0.0
 11
16.2664
 21
37.8714
 31
0.0
  0
LINE
  8
0
 62
     0
 10
16.2664
 20
37.8714
 30
0.0
 11
15.9108
 21
37.2071
 31
0.0
  0
LINE
  8
0
 62
     0
 10
15.9108
 20
37.2071
 30
0.0
 11
15.525
 21
36.7552
 31
0.0
  0
LINE
  8
0
 62
     0
 10
15.525
 20
36.7552
 30
0.0
 11
15.3968
 21
36.5788
 31
0.0
  0
LINE
  8
0
 62
     0
 10
15.3968
 20
36.5788
 30
0.0
 11
15.3224
 21
36.4324
 31
0.0
  0
LINE
  8
0
 62
     0
 10
15.3224
 20
36.4324
 30
0.0
 11
15.146
 21
36.1858
 31
0.0
  0
LINE
  8
0
 62
     0
 10
15.146
 20
36.1858
 30
0.0
 11
14.8139
 21
35.5272
 31
0.0
  0
LINE
  8
0
 62
     0
 10
14.8139
 20
35.5272
 30
0.0
 11
14.7436
 21
34.9098
 31
0.0
  0
LINE
  8
0
 62
     0
 10
14.7436
 20
34.9098
 30
0.0
 11
14.7574
 21
34.7775
 31
0.0
  0
LINE
  8
0
 62
     0
 10
14.7574
 20
34.7775
 30
0.0
 11
14.6265
 21
34.8547
 31
0.0
  0
LINE
  8
0
 62
     0
 10
14.6265
 20
34.8547
 30
0.0
 11
14.5052
 21
34.9402
 31
0.0
  0
LINE
  8
0
 62
     0
 10
14.5052
 20
34.9402
 30
0.0
 11
14.6044
 21
34.812
 31
0.0
  0
LINE
  8
0
 62
     0
 10
14.6044
 20
34.812
 30
0.0
 11
14.7064
 21
34.4454
 31
0.0
  0
LINE
  8
0
 62
     0
 10
14.7064
 20
34.4454
 30
0.0
 11
14.6541
 21
33.9108
 31
0.0
  0
LINE
  8
0
 62
     0
 10
14.6541
 20
33.9108
 30
0.0
 11
14.4804
 21
33.3733
 31
0.0
  0
LINE
  8
0
 62
     0
 10
14.4804
 20
33.3733
 30
0.0
 11
14.22
 21
32.9944
 31
0.0
  0
LINE
  8
0
 62
     0
 10
14.22
 20
32.9944
 30
0.0
 11
14.0808
 21
32.7711
 31
0.0
  0
LINE
  8
0
 62
     0
 10
14.0808
 20
32.7711
 30
0.0
 11
13.9416
 21
32.676
 31
0.0
  0
LINE
  8
0
 62
     0
 10
13.9416
 20
32.676
 30
0.0
 11
13.7597
 21
32.5672
 31
0.0
  0
LINE
  8
0
 62
     0
 10
13.7597
 20
32.5672
 30
0.0
 11
13.8493
 21
32.4983
 31
0.0
  0
LINE
  8
0
 62
     0
 10
13.8493
 20
32.4983
 30
0.0
 11
14.1359
 21
32.4294
 31
0.0
  0
LINE
  8
0
 62
     0
 10
14.1359
 20
32.4294
 30
0.0
 11
14.1869
 21
32.3067
 31
0.0
  0
LINE
  8
0
 62
     0
 10
14.1869
 20
32.3067
 30
0.0
 11
14.0725
 21
31.9429
 31
0.0
  0
LINE
  8
0
 62
     0
 10
14.0725
 20
31.9429
 30
0.0
 11
14.0532
 21
31.6963
 31
0.0
  0
LINE
  8
0
 62
     0
 10
14.0532
 20
31.6963
 30
0.0
 11
14.005
 21
31.7941
 31
0.0
  0
LINE
  8
0
 62
     0
 10
14.005
 20
31.7941
 30
0.0
 11
13.8892
 21
31.8575
 31
0.0
  0
LINE
  8
0
 62
     0
 10
13.8892
 20
31.8575
 30
0.0
 11
13.881
 21
31.5902
 31
0.0
  0
LINE
  8
0
 62
     0
 10
13.881
 20
31.5902
 30
0.0
 11
14.0009
 21
31.4992
 31
0.0
  0
LINE
  8
0
 62
     0
 10
14.0009
 20
31.4992
 30
0.0
 11
14.1676
 21
31.1905
 31
0.0
  0
LINE
  8
0
 62
     0
 10
14.1676
 20
31.1905
 30
0.0
 11
14.3426
 21
30.6145
 31
0.0
  0
LINE
  8
0
 62
     0
 10
14.3426
 20
30.6145
 30
0.0
 11
14.3909
 21
30.4491
 31
0.0
  0
LINE
  8
0
 62
     0
 10
14.3909
 20
30.4491
 30
0.0
 11
14.2944
 21
30.5566
 31
0.0
  0
LINE
  8
0
 62
     0
 10
14.2944
 20
30.5566
 30
0.0
 11
14.1663
 21
30.8005
 31
0.0
  0
LINE
  8
0
 62
     0
 10
14.1663
 20
30.8005
 30
0.0
 11
14.0381
 21
30.7744
 31
0.0
  0
LINE
  8
0
 62
     0
 10
14.0381
 20
30.7744
 30
0.0
 11
13.9113
 21
30.5828
 31
0.0
  0
LINE
  8
0
 62
     0
 10
13.9113
 20
30.5828
 30
0.0
 11
14.0381
 21
30.6035
 31
0.0
  0
LINE
  8
0
 62
     0
 10
14.0381
 20
30.6035
 30
0.0
 11
14.1621
 21
30.6296
 31
0.0
  0
LINE
  8
0
 62
     0
 10
14.1621
 20
30.6296
 30
0.0
 11
14.0643
 21
30.4505
 31
0.0
  0
LINE
  8
0
 62
     0
 10
14.0643
 20
30.4505
 30
0.0
 11
14.1277
 21
30.3471
 31
0.0
  0
LINE
  8
0
 62
     0
 10
14.1277
 20
30.3471
 30
0.0
 11
14.1938
 21
30.2824
 31
0.0
  0
LINE
  8
0
 62
     0
 10
14.1938
 20
30.2824
 30
0.0
 11
14.0408
 21
30.0027
 31
0.0
  0
LINE
  8
0
 62
     0
 10
14.0408
 20
30.0027
 30
0.0
 11
14.0381
 21
29.8083
 31
0.0
  0
LINE
  8
0
 62
     0
 10
14.0381
 20
29.8083
 30
0.0
 11
14.2103
 21
29.6829
 31
0.0
  0
LINE
  8
0
 62
     0
 10
14.2103
 20
29.6829
 30
0.0
 11
14.435
 21
29.5796
 31
0.0
  0
LINE
  8
0
 62
     0
 10
14.435
 20
29.5796
 30
0.0
 11
14.1304
 21
29.1565
 31
0.0
  0
LINE
  8
0
 62
     0
 10
14.1304
 20
29.1565
 30
0.0
 11
13.9154
 21
28.8355
 31
0.0
  0
LINE
  8
0
 62
     0
 10
13.9154
 20
28.8355
 30
0.0
 11
13.8259
 21
28.6591
 31
0.0
  0
LINE
  8
0
 62
     0
 10
13.8259
 20
28.6591
 30
0.0
 11
13.7294
 21
28.4978
 31
0.0
  0
LINE
  8
0
 62
     0
 10
13.7294
 20
28.4978
 30
0.0
 11
13.4993
 21
28.2126
 31
0.0
  0
LINE
  8
0
 62
     0
 10
13.4993
 20
28.2126
 30
0.0
 11
13.214
 21
27.7992
 31
0.0
  0
LINE
  8
0
 62
     0
 10
13.214
 20
27.7992
 30
0.0
 11
13.0693
 21
27.2507
 31
0.0
  0
LINE
  8
0
 62
     0
 10
13.0693
 20
27.2507
 30
0.0
 11
12.9756
 21
26.7946
 31
0.0
  0
LINE
  8
0
 62
     0
 10
12.9756
 20
26.7946
 30
0.0
 11
12.8971
 21
26.5272
 31
0.0
  0
LINE
  8
0
 62
     0
 10
12.8971
 20
26.5272
 30
0.0
 11
12.7813
 21
26.0105
 31
0.0
  0
LINE
  8
0
 62
     0
 10
12.7813
 20
26.0105
 30
0.0
 11
12.66
 21
25.473
 31
0.0
  0
LINE
  8
0
 62
     0
 10
12.66
 20
25.473
 30
0.0
 11
12.3748
 21
24.9108
 31
0.0
  0
LINE
  8
0
 62
     0
 10
12.3748
 20
24.9108
 30
0.0
 11
12.2508
 21
24.4009
 31
0.0
  0
LINE
  8
0
 62
     0
 10
12.2508
 20
24.4009
 30
0.0
 11
12.31
 21
24.073
 31
0.0
  0
LINE
  8
0
 62
     0
 10
12.31
 20
24.073
 30
0.0
 11
12.3817
 21
23.5865
 31
0.0
  0
LINE
  8
0
 62
     0
 10
12.3817
 20
23.5865
 30
0.0
 11
12.4533
 21
23.0573
 31
0.0
  0
LINE
  8
0
 62
     0
 10
12.4533
 20
23.0573
 30
0.0
 11
12.5195
 21
22.6164
 31
0.0
  0
LINE
  8
0
 62
     0
 10
12.5195
 20
22.6164
 30
0.0
 11
12.5429
 21
22.3325
 31
0.0
  0
LINE
  8
0
 62
     0
 10
12.5429
 20
22.3325
 30
0.0
 11
12.4671
 21
22.3104
 31
0.0
  0
LINE
  8
0
 62
     0
 10
12.4671
 20
22.3104
 30
0.0
 11
12.4175
 21
22.2801
 31
0.0
  0
LINE
  8
0
 62
     0
 10
12.4175
 20
22.2801
 30
0.0
 11
12.5581
 21
22.2291
 31
0.0
  0
LINE
  8
0
 62
     0
 10
12.5581
 20
22.2291
 30
0.0
 11
12.5966
 21
22.1079
 31
0.0
  0
LINE
  8
0
 62
     0
 10
12.5966
 20
22.1079
 30
0.0
 11
12.5856
 21
21.7537
 31
0.0
  0
LINE
  8
0
 62
     0
 10
12.5856
 20
21.7537
 30
0.0
 11
12.536
 21
21.3169
 31
0.0
  0
LINE
  8
0
 62
     0
 10
12.536
 20
21.3169
 30
0.0
 11
12.4575
 21
20.9407
 31
0.0
  0
LINE
  8
0
 62
     0
 10
12.4575
 20
20.9407
 30
0.0
 11
12.4726
 21
20.4308
 31
0.0
  0
LINE
  8
0
 62
     0
 10
12.4726
 20
20.4308
 30
0.0
 11
12.5347
 21
20.0697
 31
0.0
  0
LINE
  8
0
 62
     0
 10
12.5347
 20
20.0697
 30
0.0
 11
12.5553
 21
19.5461
 31
0.0
  0
LINE
  8
0
 62
     0
 10
12.5553
 20
19.5461
 30
0.0
 11
12.5457
 21
19.0596
 31
0.0
  0
LINE
  8
0
 62
     0
 10
12.5457
 20
19.0596
 30
0.0
 11
12.5415
 21
18.7813
 31
0.0
  0
LINE
  8
0
 62
     0
 10
12.5415
 20
18.7813
 30
0.0
 11
12.4768
 21
18.3555
 31
0.0
  0
LINE
  8
0
 62
     0
 10
12.4768
 20
18.3555
 30
0.0
 11
12.3417
 21
18.2163
 31
0.0
  0
LINE
  8
0
 62
     0
 10
12.3417
 20
18.2163
 30
0.0
 11
12.1819
 21
18.0096
 31
0.0
  0
LINE
  8
0
 62
     0
 10
12.1819
 20
18.0096
 30
0.0
 11
12.1833
 21
17.6541
 31
0.0
  0
LINE
  8
0
 62
     0
 10
12.1833
 20
17.6541
 30
0.0
 11
12.1405
 21
17.6251
 31
0.0
  0
LINE
  8
0
 62
     0
 10
12.1405
 20
17.6251
 30
0.0
 11
12.0427
 21
17.5576
 31
0.0
  0
LINE
  8
0
 62
     0
 10
12.0427
 20
17.5576
 30
0.0
 11
12.1281
 21
17.3784
 31
0.0
  0
LINE
  8
0
 62
     0
 10
12.1281
 20
17.3784
 30
0.0
 11
12.2136
 21
17.4363
 31
0.0
  0
LINE
  8
0
 62
     0
 10
12.2136
 20
17.4363
 30
0.0
 11
12.2852
 21
17.4363
 31
0.0
  0
LINE
  8
0
 62
     0
 10
12.2852
 20
17.4363
 30
0.0
 11
12.4768
 21
17.3591
 31
0.0
  0
LINE
  8
0
 62
     0
 10
12.4768
 20
17.3591
 30
0.0
 11
12.6876
 21
17.5479
 31
0.0
  0
LINE
  8
0
 62
     0
 10
12.6876
 20
17.5479
 30
0.0
 11
12.6049
 21
17.8787
 31
0.0
  0
LINE
  8
0
 62
     0
 10
12.6049
 20
17.8787
 30
0.0
 11
12.5264
 21
18.0757
 31
0.0
  0
LINE
  8
0
 62
     0
 10
12.5264
 20
18.0757
 30
0.0
 11
12.5815
 21
18.2328
 31
0.0
  0
LINE
  8
0
 62
     0
 10
12.5815
 20
18.2328
 30
0.0
 11
12.6214
 21
18.3527
 31
0.0
  0
LINE
  8
0
 62
     0
 10
12.6214
 20
18.3527
 30
0.0
 11
12.7661
 21
18.2687
 31
0.0
  0
LINE
  8
0
 62
     0
 10
12.7661
 20
18.2687
 30
0.0
 11
12.8157
 21
17.6775
 31
0.0
  0
LINE
  8
0
 62
     0
 10
12.8157
 20
17.6775
 30
0.0
 11
12.7069
 21
17.0959
 31
0.0
  0
LINE
  8
0
 62
     0
 10
12.7069
 20
17.0959
 30
0.0
 11
12.6366
 21
16.9954
 31
0.0
  0
LINE
  8
0
 62
     0
 10
12.6366
 20
16.9954
 30
0.0
 11
12.7441
 21
17.0684
 31
0.0
  0
LINE
  8
0
 62
     0
 10
12.7441
 20
17.0684
 30
0.0
 11
12.8916
 21
17.056
 31
0.0
  0
LINE
  8
0
 62
     0
 10
12.8916
 20
17.056
 30
0.0
 11
13.0831
 21
16.9733
 31
0.0
  0
LINE
  8
0
 62
     0
 10
13.0831
 20
16.9733
 30
0.0
 11
13.3174
 21
17.0725
 31
0.0
  0
LINE
  8
0
 62
     0
 10
13.3174
 20
17.0725
 30
0.0
 11
13.6756
 21
17.2834
 31
0.0
  0
LINE
  8
0
 62
     0
 10
13.6756
 20
17.2834
 30
0.0
 11
13.9485
 21
17.3895
 31
0.0
  0
LINE
  8
0
 62
     0
 10
13.9485
 20
17.3895
 30
0.0
 11
14.1084
 21
17.3481
 31
0.0
  0
LINE
  8
0
 62
     0
 10
14.1084
 20
17.3481
 30
0.0
 11
14.2586
 21
17.2847
 31
0.0
  0
LINE
  8
0
 62
     0
 10
14.2586
 20
17.2847
 30
0.0
 11
14.643
 21
17.344
 31
0.0
  0
LINE
  8
0
 62
     0
 10
14.643
 20
17.344
 30
0.0
 11
14.9558
 21
17.2806
 31
0.0
  0
LINE
  8
0
 62
     0
 10
14.9558
 20
17.2806
 30
0.0
 11
15.0606
 21
17.1924
 31
0.0
  0
LINE
  8
0
 62
     0
 10
15.0606
 20
17.1924
 30
0.0
 11
15.0964
 21
17.2972
 31
0.0
  0
LINE
  8
0
 62
     0
 10
15.0964
 20
17.2972
 30
0.0
 11
15.2797
 21
17.4956
 31
0.0
  0
LINE
  8
0
 62
     0
 10
15.2797
 20
17.4956
 30
0.0
 11
15.5636
 21
17.581
 31
0.0
  0
LINE
  8
0
 62
     0
 10
15.5636
 20
17.581
 30
0.0
 11
15.6338
 21
17.4832
 31
0.0
  0
LINE
  8
0
 62
     0
 10
15.6338
 20
17.4832
 30
0.0
 11
15.6449
 21
17.5479
 31
0.0
  0
LINE
  8
0
 62
     0
 10
15.6449
 20
17.5479
 30
0.0
 11
15.8695
 21
17.9655
 31
0.0
  0
LINE
  8
0
 62
     0
 10
15.8695
 20
17.9655
 30
0.0
 11
16.0679
 21
18.135
 31
0.0
  0
LINE
  8
0
 62
     0
 10
16.0679
 20
18.135
 30
0.0
 11
16.1189
 21
18.0661
 31
0.0
  0
LINE
  8
0
 62
     0
 10
16.1189
 20
18.0661
 30
0.0
 11
16.2746
 21
17.9503
 31
0.0
  0
LINE
  8
0
 62
     0
 10
16.2746
 20
17.9503
 30
0.0
 11
16.5062
 21
18.3141
 31
0.0
  0
LINE
  8
0
 62
     0
 10
16.5062
 20
18.3141
 30
0.0
 11
16.6357
 21
18.6049
 31
0.0
  0
LINE
  8
0
 62
     0
 10
16.6357
 20
18.6049
 30
0.0
 11
16.9333
 21
18.6628
 31
0.0
  0
LINE
  8
0
 62
     0
 10
16.9333
 20
18.6628
 30
0.0
 11
17.4942
 21
18.7386
 31
0.0
  0
LINE
  8
0
 62
     0
 10
17.4942
 20
18.7386
 30
0.0
 11
17.6844
 21
18.875
 31
0.0
  0
LINE
  8
0
 62
     0
 10
17.6844
 20
18.875
 30
0.0
 11
17.8084
 21
18.9508
 31
0.0
  0
LINE
  8
0
 62
     0
 10
17.8084
 20
18.9508
 30
0.0
 11
18.259
 21
19.112
 31
0.0
  0
LINE
  8
0
 62
     0
 10
18.259
 20
19.112
 30
0.0
 11
18.4671
 21
19.2112
 31
0.0
  0
LINE
  8
0
 62
     0
 10
18.4671
 20
19.2112
 30
0.0
 11
18.7854
 21
19.298
 31
0.0
  0
LINE
  8
0
 62
     0
 10
18.7854
 20
19.298
 30
0.0
 11
19.3463
 21
19.4014
 31
0.0
  0
LINE
  8
0
 62
     0
 10
19.3463
 20
19.4014
 30
0.0
 11
20.2806
 21
19.5516
 31
0.0
  0
LINE
  8
0
 62
     0
 10
20.2806
 20
19.5516
 30
0.0
 11
20.8291
 21
19.6426
 31
0.0
  0
LINE
  8
0
 62
     0
 10
20.8291
 20
19.6426
 30
0.0
 11
21.2576
 21
19.7183
 31
0.0
  0
LINE
  8
0
 62
     0
 10
21.2576
 20
19.7183
 30
0.0
 11
21.6311
 21
19.8217
 31
0.0
  0
LINE
  8
0
 62
     0
 10
21.6311
 20
19.8217
 30
0.0
 11
22.0913
 21
19.9788
 31
0.0
  0
LINE
  8
0
 62
     0
 10
22.0913
 20
19.9788
 30
0.0
 11
22.4978
 21
20.14
 31
0.0
  0
LINE
  8
0
 62
     0
 10
22.4978
 20
20.14
 30
0.0
 11
22.7156
 21
20.2558
 31
0.0
  0
LINE
  8
0
 62
     0
 10
22.7156
 20
20.2558
 30
0.0
 11
22.5599
 21
20.2379
 31
0.0
  0
LINE
  8
0
 62
     0
 10
22.5599
 20
20.2379
 30
0.0
 11
22.3036
 21
20.2131
 31
0.0
  0
LINE
  8
0
 62
     0
 10
22.3036
 20
20.2131
 30
0.0
 11
22.7487
 21
20.4983
 31
0.0
  0
LINE
  8
0
 62
     0
 10
22.7487
 20
20.4983
 30
0.0
 11
23.1042
 21
20.6968
 31
0.0
  0
LINE
  8
0
 62
     0
 10
23.1042
 20
20.6968
 30
0.0
 11
23.253
 21
20.8166
 31
0.0
  0
LINE
  8
0
 62
     0
 10
23.253
 20
20.8166
 30
0.0
 11
23.4639
 21
20.8428
 31
0.0
  0
LINE
  8
0
 62
     0
 10
23.4639
 20
20.8428
 30
0.0
 11
23.6292
 21
20.7271
 31
0.0
  0
LINE
  8
0
 62
     0
 10
23.6292
 20
20.7271
 30
0.0
 11
23.7905
 21
20.6513
 31
0.0
  0
LINE
  8
0
 62
     0
 10
23.7905
 20
20.6513
 30
0.0
 11
24.0482
 21
20.5245
 31
0.0
  0
LINE
  8
0
 62
     0
 10
24.0482
 20
20.5245
 30
0.0
 11
24.2438
 21
20.3963
 31
0.0
  0
LINE
  8
0
 62
     0
 10
24.2438
 20
20.3963
 30
0.0
 11
24.3375
 21
20.3757
 31
0.0
  0
LINE
  8
0
 62
     0
 10
24.3375
 20
20.3757
 30
0.0
 11
24.2245
 21
20.2709
 31
0.0
  0
LINE
  8
0
 62
     0
 10
24.2245
 20
20.2709
 30
0.0
 11
24.1873
 21
20.0601
 31
0.0
  0
LINE
  8
0
 62
     0
 10
24.1873
 20
20.0601
 30
0.0
 11
24.3982
 21
20.0091
 31
0.0
  0
LINE
  8
0
 62
     0
 10
24.3982
 20
20.0091
 30
0.0
 11
24.4726
 21
20.1717
 31
0.0
  0
LINE
  8
0
 62
     0
 10
24.4726
 20
20.1717
 30
0.0
 11
24.5746
 21
20.3123
 31
0.0
  0
LINE
  8
0
 62
     0
 10
24.5746
 20
20.3123
 30
0.0
 11
24.9246
 21
20.4239
 31
0.0
  0
LINE
  8
0
 62
     0
 10
24.9246
 20
20.4239
 30
0.0
 11
25.1216
 21
20.6223
 31
0.0
  0
LINE
  8
0
 62
     0
 10
25.1216
 20
20.6223
 30
0.0
 11
25.1906
 21
20.7367
 31
0.0
  0
LINE
  8
0
 62
     0
 10
25.1906
 20
20.7367
 30
0.0
 11
25.4234
 21
20.8855
 31
0.0
  0
LINE
  8
0
 62
     0
 10
25.4234
 20
20.8855
 30
0.0
 11
25.8864
 21
21.186
 31
0.0
  0
LINE
  8
0
 62
     0
 10
25.8864
 20
21.186
 30
0.0
 11
26.4914
 21
21.5608
 31
0.0
  0
LINE
  8
0
 62
     0
 10
26.4914
 20
21.5608
 30
0.0
 11
26.829
 21
21.9081
 31
0.0
  0
LINE
  8
0
 62
     0
 10
26.829
 20
21.9081
 30
0.0
 11
27.3568
 21
22.2484
 31
0.0
  0
LINE
  8
0
 62
     0
 10
27.3568
 20
22.2484
 30
0.0
 11
27.9576
 21
22.6673
 31
0.0
  0
LINE
  8
0
 62
     0
 10
27.9576
 20
22.6673
 30
0.0
 11
28.3049
 21
23.0105
 31
0.0
  0
LINE
  8
0
 62
     0
 10
28.3049
 20
23.0105
 30
0.0
 11
28.6191
 21
23.067
 31
0.0
  0
LINE
  8
0
 62
     0
 10
28.6191
 20
23.067
 30
0.0
 11
28.6508
 21
23.1883
 31
0.0
  0
LINE
  8
0
 62
     0
 10
28.6508
 20
23.1883
 30
0.0
 11
28.7486
 21
23.4446
 31
0.0
  0
LINE
  8
0
 62
     0
 10
28.7486
 20
23.4446
 30
0.0
 11
29.1814
 21
23.5438
 31
0.0
  0
LINE
  8
0
 62
     0
 10
29.1814
 20
23.5438
 30
0.0
 11
29.4886
 21
23.654
 31
0.0
  0
LINE
  8
0
 62
     0
 10
29.4886
 20
23.654
 30
0.0
 11
29.9544
 21
24.0537
 31
0.0
  0
LINE
  8
0
 62
     0
 10
29.9544
 20
24.0537
 30
0.0
 11
30.3912
 21
24.4299
 31
0.0
  0
LINE
  8
0
 62
     0
 10
30.3912
 20
24.4299
 30
0.0
 11
30.7082
 21
24.62
 31
0.0
  0
LINE
  8
0
 62
     0
 10
30.7082
 20
24.62
 30
0.0
 11
31.1933
 21
24.8667
 31
0.0
  0
LINE
  8
0
 62
     0
 10
31.1933
 20
24.8667
 30
0.0
 11
31.4537
 21
25.0279
 31
0.0
  0
LINE
  8
0
 62
     0
 10
31.4537
 20
25.0279
 30
0.0
 11
31.8175
 21
25.2195
 31
0.0
  0
LINE
  8
0
 62
     0
 10
31.8175
 20
25.2195
 30
0.0
 11
32.1483
 21
25.3752
 31
0.0
  0
LINE
  8
0
 62
     0
 10
32.1483
 20
25.3752
 30
0.0
 11
32.3178
 21
25.4289
 31
0.0
  0
LINE
  8
0
 62
     0
 10
32.3178
 20
25.4289
 30
0.0
 11
32.4459
 21
25.473
 31
0.0
  0
LINE
  8
0
 62
     0
 10
32.4459
 20
25.473
 30
0.0
 11
32.7284
 21
25.5874
 31
0.0
  0
LINE
  8
0
 62
     0
 10
32.7284
 20
25.5874
 30
0.0
 11
33.303
 21
25.7583
 31
0.0
  0
LINE
  8
0
 62
     0
 10
33.303
 20
25.7583
 30
0.0
 11
33.6544
 21
25.8864
 31
0.0
  0
LINE
  8
0
 62
     0
 10
33.6544
 20
25.8864
 30
0.0
 11
34.1629
 21
26.1014
 31
0.0
  0
LINE
  8
0
 62
     0
 10
34.1629
 20
26.1014
 30
0.0
 11
34.5943
 21
26.2613
 31
0.0
  0
LINE
  8
0
 62
     0
 10
34.5943
 20
26.2613
 30
0.0
 11
35.1868
 21
26.5272
 31
0.0
  0
LINE
  8
0
 62
     0
 10
35.1868
 20
26.5272
 30
0.0
 11
35.741
 21
26.8056
 31
0.0
  0
LINE
  8
0
 62
     0
 10
35.741
 20
26.8056
 30
0.0
 11
36.0549
 21
26.9999
 31
0.0
  0
LINE
  8
0
 62
     0
 10
36.0549
 20
26.9999
 30
0.0
 11
36.4148
 21
27.1584
 31
0.0
  0
LINE
  8
0
 62
     0
 10
36.4148
 20
27.1584
 30
0.0
 11
36.7122
 21
27.2838
 31
0.0
  0
LINE
  8
0
 62
     0
 10
36.7122
 20
27.2838
 30
0.0
 11
37.1711
 21
27.5649
 31
0.0
  0
LINE
  8
0
 62
     0
 10
37.1711
 20
27.5649
 30
0.0
 11
37.8121
 21
27.7647
 31
0.0
  0
LINE
  8
0
 62
     0
 10
37.8121
 20
27.7647
 30
0.0
 11
38.475
 21
28.0142
 31
0.0
  0
LINE
  8
0
 62
     0
 10
38.475
 20
28.0142
 30
0.0
 11
38.8303
 21
28.2057
 31
0.0
  0
LINE
  8
0
 62
     0
 10
38.8303
 20
28.2057
 30
0.0
 11
38.8634
 21
27.9879
 31
0.0
  0
LINE
  8
0
 62
     0
 10
38.8634
 20
27.9879
 30
0.0
 11
38.6249
 21
27.7289
 31
0.0
  0
LINE
  8
0
 62
     0
 10
38.6249
 20
27.7289
 30
0.0
 11
38.2845
 21
27.6517
 31
0.0
  0
LINE
  8
0
 62
     0
 10
38.2845
 20
27.6517
 30
0.0
 11
38.1
 21
27.6104
 31
0.0
  0
LINE
  8
0
 62
     0
 10
38.1
 20
27.6104
 30
0.0
 11
37.9042
 21
27.5511
 31
0.0
  0
LINE
  8
0
 62
     0
 10
37.9042
 20
27.5511
 30
0.0
 11
37.5461
 21
27.3968
 31
0.0
  0
LINE
  8
0
 62
     0
 10
37.5461
 20
27.3968
 30
0.0
 11
37.1934
 21
27.2259
 31
0.0
  0
LINE
  8
0
 62
     0
 10
37.1934
 20
27.2259
 30
0.0
 11
37.0113
 21
27.1143
 31
0.0
  0
LINE
  8
0
 62
     0
 10
37.0113
 20
27.1143
 30
0.0
 11
36.7563
 21
26.9489
 31
0.0
  0
LINE
  8
0
 62
     0
 10
36.7563
 20
26.9489
 30
0.0
 11
36.4423
 21
26.8607
 31
0.0
  0
LINE
  8
0
 62
     0
 10
36.4423
 20
26.8607
 30
0.0
 11
36.1819
 21
26.6912
 31
0.0
  0
LINE
  8
0
 62
     0
 10
36.1819
 20
26.6912
 30
0.0
 11
35.9502
 21
26.5204
 31
0.0
  0
LINE
  8
0
 62
     0
 10
35.9502
 20
26.5204
 30
0.0
 11
35.7008
 21
26.4335
 31
0.0
  0
LINE
  8
0
 62
     0
 10
35.7008
 20
26.4335
 30
0.0
 11
35.2764
 21
26.2227
 31
0.0
  0
LINE
  8
0
 62
     0
 10
35.2764
 20
26.2227
 30
0.0
 11
34.8534
 21
26.0132
 31
0.0
  0
LINE
  8
0
 62
     0
 10
34.8534
 20
26.0132
 30
0.0
 11
34.6122
 21
25.925
 31
0.0
  0
LINE
  8
0
 62
     0
 10
34.6122
 20
25.925
 30
0.0
 11
34.1657
 21
25.7555
 31
0.0
  0
LINE
  8
0
 62
     0
 10
34.1657
 20
25.7555
 30
0.0
 11
33.6352
 21
25.5846
 31
0.0
  0
LINE
  8
0
 62
     0
 10
33.6352
 20
25.5846
 30
0.0
 11
33.0798
 21
25.4028
 31
0.0
  0
LINE
  8
0
 62
     0
 10
33.0798
 20
25.4028
 30
0.0
 11
32.8138
 21
25.276
 31
0.0
  0
LINE
  8
0
 62
     0
 10
32.8138
 20
25.276
 30
0.0
 11
32.6802
 21
25.225
 31
0.0
  0
LINE
  8
0
 62
     0
 10
32.6802
 20
25.225
 30
0.0
 11
32.4253
 21
25.112
 31
0.0
  0
LINE
  8
0
 62
     0
 10
32.4253
 20
25.112
 30
0.0
 11
31.8506
 21
24.8447
 31
0.0
  0
LINE
  8
0
 62
     0
 10
31.8506
 20
24.8447
 30
0.0
 11
31.4634
 21
24.7234
 31
0.0
  0
LINE
  8
0
 62
     0
 10
31.4634
 20
24.7234
 30
0.0
 11
31.4413
 21
24.6614
 31
0.0
  0
LINE
  8
0
 62
     0
 10
31.4413
 20
24.6614
 30
0.0
 11
31.36
 21
24.4919
 31
0.0
  0
LINE
  8
0
 62
     0
 10
31.36
 20
24.4919
 30
0.0
 11
30.9576
 21
24.3678
 31
0.0
  0
LINE
  8
0
 62
     0
 10
30.9576
 20
24.3678
 30
0.0
 11
30.693
 21
24.4078
 31
0.0
  0
LINE
  8
0
 62
     0
 10
30.693
 20
24.4078
 30
0.0
 11
30.5676
 21
24.3996
 31
0.0
  0
LINE
  8
0
 62
     0
 10
30.5676
 20
24.3996
 30
0.0
 11
30.3912
 21
24.27
 31
0.0
  0
LINE
  8
0
 62
     0
 10
30.3912
 20
24.27
 30
0.0
 11
30.536
 21
24.281
 31
0.0
  0
LINE
  8
0
 62
     0
 10
30.536
 20
24.281
 30
0.0
 11
30.6021
 21
24.27
 31
0.0
  0
LINE
  8
0
 62
     0
 10
30.6021
 20
24.27
 30
0.0
 11
30.4712
 21
24.1116
 31
0.0
  0
LINE
  8
0
 62
     0
 10
30.4712
 20
24.1116
 30
0.0
 11
29.9668
 21
23.5906
 31
0.0
  0
LINE
  8
0
 62
     0
 10
29.9668
 20
23.5906
 30
0.0
 11
29.7146
 21
23.3784
 31
0.0
  0
LINE
  8
0
 62
     0
 10
29.7146
 20
23.3784
 30
0.0
 11
29.5231
 21
23.2888
 31
0.0
  0
LINE
  8
0
 62
     0
 10
29.5231
 20
23.2888
 30
0.0
 11
29.0835
 21
23.1249
 31
0.0
  0
LINE
  8
0
 62
     0
 10
29.0835
 20
23.1249
 30
0.0
 11
28.6039
 21
22.8148
 31
0.0
  0
LINE
  8
0
 62
     0
 10
28.6039
 20
22.8148
 30
0.0
 11
28.2856
 21
22.5268
 31
0.0
  0
LINE
  8
0
 62
     0
 10
28.2856
 20
22.5268
 30
0.0
 11
27.9879
 21
22.3518
 31
0.0
  0
LINE
  8
0
 62
     0
 10
27.9879
 20
22.3518
 30
0.0
 11
27.999
 21
22.276
 31
0.0
  0
LINE
  8
0
 62
     0
 10
27.999
 20
22.276
 30
0.0
 11
27.8543
 21
22.1437
 31
0.0
  0
LINE
  8
0
 62
     0
 10
27.8543
 20
22.1437
 30
0.0
 11
27.5676
 21
22.0059
 31
0.0
  0
LINE
  8
0
 62
     0
 10
27.5676
 20
22.0059
 30
0.0
 11
27.2493
 21
21.7523
 31
0.0
  0
LINE
  8
0
 62
     0
 10
27.2493
 20
21.7523
 30
0.0
 11
26.9903
 21
21.5167
 31
0.0
  0
LINE
  8
0
 62
     0
 10
26.9903
 20
21.5167
 30
0.0
 11
26.8511
 21
21.4175
 31
0.0
  0
LINE
  8
0
 62
     0
 10
26.8511
 20
21.4175
 30
0.0
 11
26.7105
 21
21.3293
 31
0.0
  0
LINE
  8
0
 62
     0
 10
26.7105
 20
21.3293
 30
0.0
 11
26.4487
 21
21.1157
 31
0.0
  0
LINE
  8
0
 62
     0
 10
26.4487
 20
21.1157
 30
0.0
 11
26.0132
 21
20.7588
 31
0.0
  0
LINE
  8
0
 62
     0
 10
26.0132
 20
20.7588
 30
0.0
 11
25.6315
 21
20.5466
 31
0.0
  0
LINE
  8
0
 62
     0
 10
25.6315
 20
20.5466
 30
0.0
 11
25.2029
 21
20.3137
 31
0.0
  0
LINE
  8
0
 62
     0
 10
25.2029
 20
20.3137
 30
0.0
 11
24.9521
 21
20.1414
 31
0.0
  0
LINE
  8
0
 62
     0
 10
24.9521
 20
20.1414
 30
0.0
 11
24.6958
 21
19.965
 31
0.0
  0
LINE
  8
0
 62
     0
 10
24.6958
 20
19.965
 30
0.0
 11
24.3362
 21
19.7804
 31
0.0
  0
LINE
  8
0
 62
     0
 10
24.3362
 20
19.7804
 30
0.0
 11
24.1019
 21
19.6123
 31
0.0
  0
LINE
  8
0
 62
     0
 10
24.1019
 20
19.6123
 30
0.0
 11
23.9324
 21
19.5461
 31
0.0
  0
LINE
  8
0
 62
     0
 10
23.9324
 20
19.5461
 30
0.0
 11
23.7629
 21
19.6315
 31
0.0
  0
LINE
  8
0
 62
     0
 10
23.7629
 20
19.6315
 30
0.0
 11
23.8952
 21
19.717
 31
0.0
  0
LINE
  8
0
 62
     0
 10
23.8952
 20
19.717
 30
0.0
 11
23.9765
 21
19.7997
 31
0.0
  0
LINE
  8
0
 62
     0
 10
23.9765
 20
19.7997
 30
0.0
 11
23.7643
 21
19.7831
 31
0.0
  0
LINE
  8
0
 62
     0
 10
23.7643
 20
19.7831
 30
0.0
 11
23.6457
 21
19.615
 31
0.0
  0
LINE
  8
0
 62
     0
 10
23.6457
 20
19.615
 30
0.0
 11
23.6031
 21
19.5461
 31
0.0
  0
LINE
  8
0
 62
     0
 10
23.6031
 20
19.5461
 30
0.0
 11
23.4652
 21
19.6329
 31
0.0
  0
LINE
  8
0
 62
     0
 10
23.4652
 20
19.6329
 30
0.0
 11
23.3343
 21
19.6715
 31
0.0
  0
LINE
  8
0
 62
     0
 10
23.3343
 20
19.6715
 30
0.0
 11
22.9085
 21
19.717
 31
0.0
  0
LINE
  8
0
 62
     0
 10
22.9085
 20
19.717
 30
0.0
 11
22.4607
 21
19.7321
 31
0.0
  0
LINE
  8
0
 62
     0
 10
22.4607
 20
19.7321
 30
0.0
 11
22.2526
 21
19.6453
 31
0.0
  0
LINE
  8
0
 62
     0
 10
22.2526
 20
19.6453
 30
0.0
 11
21.8943
 21
19.5461
 31
0.0
  0
LINE
  8
0
 62
     0
 10
21.8943
 20
19.5461
 30
0.0
 11
21.2149
 21
19.3669
 31
0.0
  0
LINE
  8
0
 62
     0
 10
21.2149
 20
19.3669
 30
0.0
 11
20.8966
 21
19.2884
 31
0.0
  0
LINE
  8
0
 62
     0
 10
20.8966
 20
19.2884
 30
0.0
 11
20.4832
 21
19.2168
 31
0.0
  0
LINE
  8
0
 62
     0
 10
20.4832
 20
19.2168
 30
0.0
 11
20.1111
 21
19.174
 31
0.0
  0
LINE
  8
0
 62
     0
 10
20.1111
 20
19.174
 30
0.0
 11
19.9182
 21
19.1782
 31
0.0
  0
LINE
  8
0
 62
     0
 10
19.9182
 20
19.1782
 30
0.0
 11
19.717
 21
19.1534
 31
0.0
  0
LINE
  8
0
 62
     0
 10
19.717
 20
19.1534
 30
0.0
 11
19.3256
 21
19.0348
 31
0.0
  0
LINE
  8
0
 62
     0
 10
19.3256
 20
19.0348
 30
0.0
 11
18.9012
 21
18.9039
 31
0.0
  0
LINE
  8
0
 62
     0
 10
18.9012
 20
18.9039
 30
0.0
 11
18.6256
 21
18.8447
 31
0.0
  0
LINE
  8
0
 62
     0
 10
18.6256
 20
18.8447
 30
0.0
 11
18.3499
 21
18.7565
 31
0.0
  0
LINE
  8
0
 62
     0
 10
18.3499
 20
18.7565
 30
0.0
 11
18.1143
 21
18.7275
 31
0.0
  0
LINE
  8
0
 62
     0
 10
18.1143
 20
18.7275
 30
0.0
 11
17.6554
 21
18.4381
 31
0.0
  0
LINE
  8
0
 62
     0
 10
17.6554
 20
18.4381
 30
0.0
 11
17.2999
 21
18.1212
 31
0.0
  0
LINE
  8
0
 62
     0
 10
17.2999
 20
18.1212
 30
0.0
 11
17.2227
 21
18.2659
 31
0.0
  0
LINE
  8
0
 62
     0
 10
17.2227
 20
18.2659
 30
0.0
 11
17.1387
 21
18.4836
 31
0.0
  0
LINE
  8
0
 62
     0
 10
17.1387
 20
18.4836
 30
0.0
 11
17.0532
 21
18.4602
 31
0.0
  0
LINE
  8
0
 62
     0
 10
17.0532
 20
18.4602
 30
0.0
 11
16.9265
 21
18.3844
 31
0.0
  0
LINE
  8
0
 62
     0
 10
16.9265
 20
18.3844
 30
0.0
 11
16.7983
 21
18.4602
 31
0.0
  0
LINE
  8
0
 62
     0
 10
16.7983
 20
18.4602
 30
0.0
 11
16.7142
 21
18.4836
 31
0.0
  0
LINE
  8
0
 62
     0
 10
16.7142
 20
18.4836
 30
0.0
 11
16.6288
 21
18.2563
 31
0.0
  0
LINE
  8
0
 62
     0
 10
16.6288
 20
18.2563
 30
0.0
 11
16.7983
 21
18.1005
 31
0.0
  0
LINE
  8
0
 62
     0
 10
16.7983
 20
18.1005
 30
0.0
 11
16.9692
 21
18.0289
 31
0.0
  0
LINE
  8
0
 62
     0
 10
16.9692
 20
18.0289
 30
0.0
 11
16.7942
 21
17.8056
 31
0.0
  0
LINE
  8
0
 62
     0
 10
16.7942
 20
17.8056
 30
0.0
 11
16.4951
 21
17.6761
 31
0.0
  0
LINE
  8
0
 62
     0
 10
16.4951
 20
17.6761
 30
0.0
 11
16.4593
 21
17.7602
 31
0.0
  0
LINE
  8
0
 62
     0
 10
16.4593
 20
17.7602
 30
0.0
 11
16.4483
 21
17.8442
 31
0.0
  0
LINE
  8
0
 62
     0
 10
16.4483
 20
17.8442
 30
0.0
 11
16.2705
 21
17.6954
 31
0.0
  0
LINE
  8
0
 62
     0
 10
16.2705
 20
17.6954
 30
0.0
 11
16.1134
 21
17.5204
 31
0.0
  0
LINE
  8
0
 62
     0
 10
16.1134
 20
17.5204
 30
0.0
 11
15.7923
 21
17.3068
 31
0.0
  0
LINE
  8
0
 62
     0
 10
15.7923
 20
17.3068
 30
0.0
 11
15.1529
 21
17.0877
 31
0.0
  0
LINE
  8
0
 62
     0
 10
15.1529
 20
17.0877
 30
0.0
 11
14.2641
 21
17.0822
 31
0.0
  0
LINE
  8
0
 62
     0
 10
14.2641
 20
17.0822
 30
0.0
 11
13.7969
 21
16.8465
 31
0.0
  0
LINE
  8
0
 62
     0
 10
13.7969
 20
16.8465
 30
0.0
 11
13.4758
 21
16.6302
 31
0.0
  0
LINE
  8
0
 62
     0
 10
13.4758
 20
16.6302
 30
0.0
 11
13.0817
 21
16.4579
 31
0.0
  0
LINE
  8
0
 62
     0
 10
13.0817
 20
16.4579
 30
0.0
 11
12.5098
 21
16.1561
 31
0.0
  0
LINE
  8
0
 62
     0
 10
12.5098
 20
16.1561
 30
0.0
 11
12.0261
 21
15.5484
 31
0.0
  0
LINE
  8
0
 62
     0
 10
12.0261
 20
15.5484
 30
0.0
 11
11.7933
 21
15.208
 31
0.0
  0
LINE
  8
0
 62
     0
 10
11.7933
 20
15.208
 30
0.0
 11
11.6458
 21
14.9889
 31
0.0
  0
LINE
  8
0
 62
     0
 10
11.6458
 20
14.9889
 30
0.0
 11
11.3537
 21
14.4432
 31
0.0
  0
LINE
  8
0
 62
     0
 10
11.3537
 20
14.4432
 30
0.0
 11
10.9968
 21
13.9926
 31
0.0
  0
LINE
  8
0
 62
     0
 10
10.9968
 20
13.9926
 30
0.0
 11
10.2457
 21
13.2967
 31
0.0
  0
LINE
  8
0
 62
     0
 10
10.2457
 20
13.2967
 30
0.0
 11
10.1024
 21
12.7152
 31
0.0
  0
LINE
  8
0
 62
     0
 10
10.1024
 20
12.7152
 30
0.0
 11
10.1231
 21
12.4726
 31
0.0
  0
LINE
  8
0
 62
     0
 10
10.1231
 20
12.4726
 30
0.0
 11
10.152
 21
12.4299
 31
0.0
  0
LINE
  8
0
 62
     0
 10
10.152
 20
12.4299
 30
0.0
 11
10.3229
 21
12.3031
 31
0.0
  0
LINE
  8
0
 62
     0
 10
10.3229
 20
12.3031
 30
0.0
 11
10.6109
 21
11.9118
 31
0.0
  0
LINE
  8
0
 62
     0
 10
10.6109
 20
11.9118
 30
0.0
 11
10.972
 21
11.395
 31
0.0
  0
LINE
  8
0
 62
     0
 10
10.972
 20
11.395
 30
0.0
 11
11.3234
 21
10.9554
 31
0.0
  0
LINE
  8
0
 62
     0
 10
11.3234
 20
10.9554
 30
0.0
 11
11.632
 21
10.5833
 31
0.0
  0
LINE
  8
0
 62
     0
 10
11.632
 20
10.5833
 30
0.0
 11
11.8925
 21
10.2223
 31
0.0
  0
LINE
  8
0
 62
     0
 10
11.8925
 20
10.2223
 30
0.0
 11
12.1171
 21
9.8709
 31
0.0
  0
LINE
  8
0
 62
     0
 10
12.1171
 20
9.8709
 30
0.0
 11
11.9435
 21
9.68484
 31
0.0
  0
LINE
  8
0
 62
     0
 10
11.9435
 20
9.68484
 30
0.0
 11
11.8236
 21
9.44644
 31
0.0
  0
LINE
  8
0
 62
     0
 10
11.8236
 20
9.44644
 30
0.0
 11
11.9862
 21
9.54842
 31
0.0
  0
LINE
  8
0
 62
     0
 10
11.9862
 20
9.54842
 30
0.0
 11
12.0951
 21
9.64212
 31
0.0
  0
LINE
  8
0
 62
     0
 10
12.0951
 20
9.64212
 30
0.0
 11
12.1956
 21
9.45748
 31
0.0
  0
LINE
  8
0
 62
     0
 10
12.1956
 20
9.45748
 30
0.0
 11
12.3844
 21
8.79052
 31
0.0
  0
LINE
  8
0
 62
     0
 10
12.3844
 20
8.79052
 30
0.0
 11
12.5636
 21
8.26273
 31
0.0
  0
LINE
  8
0
 62
     0
 10
12.5636
 20
8.26273
 30
0.0
 11
12.6022
 21
8.07667
 31
0.0
  0
LINE
  8
0
 62
     0
 10
12.6022
 20
8.07667
 30
0.0
 11
12.6821
 21
7.94713
 31
0.0
  0
LINE
  8
0
 62
     0
 10
12.6821
 20
7.94713
 30
0.0
 11
12.7758
 21
7.7997
 31
0.0
  0
LINE
  8
0
 62
     0
 10
12.7758
 20
7.7997
 30
0.0
 11
12.773
 21
7.36424
 31
0.0
  0
LINE
  8
0
 62
     0
 10
12.773
 20
7.36424
 30
0.0
 11
12.6752
 21
6.63938
 31
0.0
  0
LINE
  8
0
 62
     0
 10
12.6752
 20
6.63938
 30
0.0
 11
12.5332
 21
6.54706
 31
0.0
  0
LINE
  8
0
 62
     0
 10
12.5332
 20
6.54706
 30
0.0
 11
12.4988
 21
6.3307
 31
0.0
  0
LINE
  8
0
 62
     0
 10
12.4988
 20
6.3307
 30
0.0
 11
12.4395
 21
5.81671
 31
0.0
  0
LINE
  8
0
 62
     0
 10
12.4395
 20
5.81671
 30
0.0
 11
12.1598
 21
5.36194
 31
0.0
  0
LINE
  8
0
 62
     0
 10
12.1598
 20
5.36194
 30
0.0
 11
12.0427
 21
5.15662
 31
0.0
  0
LINE
  8
0
 62
     0
 10
12.0427
 20
5.15662
 30
0.0
 11
11.9187
 21
5.11665
 31
0.0
  0
LINE
  8
0
 62
     0
 10
11.9187
 20
5.11665
 30
0.0
 11
11.7437
 21
5.0836
 31
0.0
  0
LINE
  8
0
 62
     0
 10
11.7437
 20
5.0836
 30
0.0
 11
11.8318
 21
5.00228
 31
0.0
  0
LINE
  8
0
 62
     0
 10
11.8318
 20
5.00228
 30
0.0
 11
11.9187
 21
4.82589
 31
0.0
  0
LINE
  8
0
 62
     0
 10
11.9187
 20
4.82589
 30
0.0
 11
11.6954
 21
4.38905
 31
0.0
  0
LINE
  8
0
 62
     0
 10
11.6954
 20
4.38905
 30
0.0
 11
11.5328
 21
3.86126
 31
0.0
  0
LINE
  8
0
 62
     0
 10
11.5328
 20
3.86126
 30
0.0
 11
11.3853
 21
3.47817
 31
0.0
  0
LINE
  8
0
 62
     0
 10
11.3853
 20
3.47817
 30
0.0
 11
11.3426
 21
3.3886
 31
0.0
  0
LINE
  8
0
 62
     0
 10
11.3426
 20
3.3886
 30
0.0
 11
11.446
 21
3.22323
 31
0.0
  0
LINE
  8
0
 62
     0
 10
11.446
 20
3.22323
 30
0.0
 11
11.3633
 21
3.00412
 31
0.0
  0
LINE
  8
0
 62
     0
 10
11.3633
 20
3.00412
 30
0.0
 11
11.2793
 21
2.86632
 31
0.0
  0
LINE
  8
0
 62
     0
 10
11.2793
 20
2.86632
 30
0.0
 11
11.3661
 21
2.83463
 31
0.0
  0
LINE
  8
0
 62
     0
 10
11.3661
 20
2.83463
 30
0.0
 11
11.4019
 21
2.5287
 31
0.0
  0
LINE
  8
0
 62
     0
 10
11.4019
 20
2.5287
 30
0.0
 11
11.2613
 21
1.96784
 31
0.0
  0
LINE
  8
0
 62
     0
 10
11.2613
 20
1.96784
 30
0.0
 11
11.2324
 21
1.54202
 31
0.0
  0
LINE
  8
0
 62
     0
 10
11.2324
 20
1.54202
 30
0.0
 11
11.2916
 21
1.19338
 31
0.0
  0
LINE
  8
0
 62
     0
 10
11.2916
 20
1.19338
 30
0.0
 11
11.3564
 21
0.684886
 31
0.0
  0
LINE
  8
0
 62
     0
 10
11.3564
 20
0.684886
 30
0.0
 11
11.4019
 21
0.220486
 31
0.0
  0
LINE
  8
0
 62
     0
 10
11.4019
 20
0.220486
 30
0.0
 11
11.406
 21
0.00137804
 31
0.0
  0
LINE
  8
0
 62
     0
 10
11.406
 20
0.00137804
 30
0.0
 11
11.333
 21
0.111621
 31
0.0
  0
ENDSEC
  0
EOF
