  0
SECTION
  2
HEADER
  9
$ACADVER
  1
AC1009
  9
$EXTMIN
 10
0.0
 20
0.0
 30
0.0
  9
$EXTMAX
 10
1000.0
 20
1000.0
 30
0.0
  9
$FILLMODE
 70
 0
  9
$SPLFRAME
 70
 1
  0
ENDSEC
  0
SECTION
  2
TABLES
  0
TABLE
  2
LAYER
 70
1
  0
LAYER
  2
0
 70
     0
 62
     7
  6
CONTINUOUS
  0
ENDTAB
  0
ENDSEC
  0
SECTION
  2
ENTITIES
  0
LINE
  8
0
 62
     0
 10
34.1009
 20
0.172255
 30
0.0
 11
33.8019
 21
0.416168
 31
0.0
  0
LINE
  8
0
 62
     0
 10
33.8019
 20
0.416168
 30
0.0
 11
33.6103
 21
0.689021
 31
0.0
  0
LINE
  8
0
 62
     0
 10
33.6103
 20
0.689021
 30
0.0
 11
33.4367
 21
0.898483
 31
0.0
  0
LINE
  8
0
 62
     0
 10
33.4367
 20
0.898483
 30
0.0
 11
33.1832
 21
0.983918
 31
0.0
  0
LINE
  8
0
 62
     0
 10
33.1832
 20
0.983918
 30
0.0
 11
32.8731
 21
1.13964
 31
0.0
  0
LINE
  8
0
 62
     0
 10
32.8731
 20
1.13964
 30
0.0
 11
32.5672
 21
1.51309
 31
0.0
  0
LINE
  8
0
 62
     0
 10
32.5672
 20
1.51309
 30
0.0
 11
32.3687
 21
1.77767
 31
0.0
  0
LINE
  8
0
 62
     0
 10
32.3687
 20
1.77767
 30
0.0
 11
32.111
 21
1.92512
 31
0.0
  0
LINE
  8
0
 62
     0
 10
32.111
 20
1.92512
 30
0.0
 11
31.728
 21
1.97886
 31
0.0
  0
LINE
  8
0
 62
     0
 10
31.728
 20
1.97886
 30
0.0
 11
31.1588
 21
1.95682
 31
0.0
  0
LINE
  8
0
 62
     0
 10
31.1588
 20
1.95682
 30
0.0
 11
30.3251
 21
1.84519
 31
0.0
  0
LINE
  8
0
 62
     0
 10
30.3251
 20
1.84519
 30
0.0
 11
29.8717
 21
1.69361
 31
0.0
  0
LINE
  8
0
 62
     0
 10
29.8717
 20
1.69361
 30
0.0
 11
29.5699
 21
1.67569
 31
0.0
  0
LINE
  8
0
 62
     0
 10
29.5699
 20
1.67569
 30
0.0
 11
29.1124
 21
1.90445
 31
0.0
  0
LINE
  8
0
 62
     0
 10
29.1124
 20
1.90445
 30
0.0
 11
28.6411
 21
2.28617
 31
0.0
  0
LINE
  8
0
 62
     0
 10
28.6411
 20
2.28617
 30
0.0
 11
28.298
 21
2.72714
 31
0.0
  0
LINE
  8
0
 62
     0
 10
28.298
 20
2.72714
 30
0.0
 11
28.0761
 21
3.0496
 31
0.0
  0
LINE
  8
0
 62
     0
 10
28.0761
 20
3.0496
 30
0.0
 11
27.8791
 21
3.18189
 31
0.0
  0
LINE
  8
0
 62
     0
 10
27.8791
 20
3.18189
 30
0.0
 11
27.8378
 21
3.03168
 31
0.0
  0
LINE
  8
0
 62
     0
 10
27.8378
 20
3.03168
 30
0.0
 11
27.9949
 21
2.66788
 31
0.0
  0
LINE
  8
0
 62
     0
 10
27.9949
 20
2.66788
 30
0.0
 11
28.1892
 21
2.20348
 31
0.0
  0
LINE
  8
0
 62
     0
 10
28.1892
 20
2.20348
 30
0.0
 11
27.8901
 21
1.98438
 31
0.0
  0
LINE
  8
0
 62
     0
 10
27.8901
 20
1.98438
 30
0.0
 11
27.5084
 21
1.87413
 31
0.0
  0
LINE
  8
0
 62
     0
 10
27.5084
 20
1.87413
 30
0.0
 11
27.1543
 21
1.8383
 31
0.0
  0
LINE
  8
0
 62
     0
 10
27.1543
 20
1.8383
 30
0.0
 11
26.9475
 21
1.87689
 31
0.0
  0
LINE
  8
0
 62
     0
 10
26.9475
 20
1.87689
 30
0.0
 11
27.0095
 21
1.98989
 31
0.0
  0
LINE
  8
0
 62
     0
 10
27.0095
 20
1.98989
 30
0.0
 11
27.1763
 21
2.25998
 31
0.0
  0
LINE
  8
0
 62
     0
 10
27.1763
 20
2.25998
 30
0.0
 11
27.2218
 21
2.65961
 31
0.0
  0
LINE
  8
0
 62
     0
 10
27.2218
 20
2.65961
 30
0.0
 11
27.1487
 21
3.02341
 31
0.0
  0
LINE
  8
0
 62
     0
 10
27.1487
 20
3.02341
 30
0.0
 11
26.9668
 21
3.18189
 31
0.0
  0
LINE
  8
0
 62
     0
 10
26.9668
 20
3.18189
 30
0.0
 11
26.7808
 21
3.07165
 31
0.0
  0
LINE
  8
0
 62
     0
 10
26.7808
 20
3.07165
 30
0.0
 11
26.705
 21
2.80431
 31
0.0
  0
LINE
  8
0
 62
     0
 10
26.705
 20
2.80431
 30
0.0
 11
26.6251
 21
2.43362
 31
0.0
  0
LINE
  8
0
 62
     0
 10
26.6251
 20
2.43362
 30
0.0
 11
26.4349
 21
2.07257
 31
0.0
  0
LINE
  8
0
 62
     0
 10
26.4349
 20
2.07257
 30
0.0
 11
26.1648
 21
1.89756
 31
0.0
  0
LINE
  8
0
 62
     0
 10
26.1648
 20
1.89756
 30
0.0
 11
25.9002
 21
2.3151
 31
0.0
  0
LINE
  8
0
 62
     0
 10
25.9002
 20
2.3151
 30
0.0
 11
25.5874
 21
2.74781
 31
0.0
  0
LINE
  8
0
 62
     0
 10
25.5874
 20
2.74781
 30
0.0
 11
25.1588
 21
2.77813
 31
0.0
  0
LINE
  8
0
 62
     0
 10
25.1588
 20
2.77813
 30
0.0
 11
24.9039
 21
2.7423
 31
0.0
  0
LINE
  8
0
 62
     0
 10
24.9039
 20
2.7423
 30
0.0
 11
24.7247
 21
2.82911
 31
0.0
  0
LINE
  8
0
 62
     0
 10
24.7247
 20
2.82911
 30
0.0
 11
24.5856
 21
3.07992
 31
0.0
  0
LINE
  8
0
 62
     0
 10
24.5856
 20
3.07992
 30
0.0
 11
24.4478
 21
3.53191
 31
0.0
  0
LINE
  8
0
 62
     0
 10
24.4478
 20
3.53191
 30
0.0
 11
24.2411
 21
4.16031
 31
0.0
  0
LINE
  8
0
 62
     0
 10
24.2411
 20
4.16031
 30
0.0
 11
24.1322
 21
3.86955
 31
0.0
  0
LINE
  8
0
 62
     0
 10
24.1322
 20
3.86955
 30
0.0
 11
24.0164
 21
3.34174
 31
0.0
  0
LINE
  8
0
 62
     0
 10
24.0164
 20
3.34174
 30
0.0
 11
23.8855
 21
3.05649
 31
0.0
  0
LINE
  8
0
 62
     0
 10
23.8855
 20
3.05649
 30
0.0
 11
23.7794
 21
3.062
 31
0.0
  0
LINE
  8
0
 62
     0
 10
23.7794
 20
3.062
 30
0.0
 11
23.7353
 21
3.40238
 31
0.0
  0
LINE
  8
0
 62
     0
 10
23.7353
 20
3.40238
 30
0.0
 11
23.6499
 21
3.86539
 31
0.0
  0
LINE
  8
0
 62
     0
 10
23.6499
 20
3.86539
 30
0.0
 11
23.3757
 21
4.00734
 31
0.0
  0
LINE
  8
0
 62
     0
 10
23.3757
 20
4.00734
 30
0.0
 11
23.1483
 21
4.07899
 31
0.0
  0
LINE
  8
0
 62
     0
 10
23.1483
 20
4.07899
 30
0.0
 11
23.1111
 21
4.25125
 31
0.0
  0
LINE
  8
0
 62
     0
 10
23.1111
 20
4.25125
 30
0.0
 11
23.0518
 21
4.46207
 31
0.0
  0
LINE
  8
0
 62
     0
 10
23.0518
 20
4.46207
 30
0.0
 11
22.7762
 21
4.62333
 31
0.0
  0
LINE
  8
0
 62
     0
 10
22.7762
 20
4.62333
 30
0.0
 11
22.4703
 21
4.60541
 31
0.0
  0
LINE
  8
0
 62
     0
 10
22.4703
 20
4.60541
 30
0.0
 11
22.2718
 21
4.35462
 31
0.0
  0
LINE
  8
0
 62
     0
 10
22.2718
 20
4.35462
 30
0.0
 11
22.1947
 21
3.90536
 31
0.0
  0
LINE
  8
0
 62
     0
 10
22.1947
 20
3.90536
 30
0.0
 11
22.2526
 21
3.28938
 31
0.0
  0
LINE
  8
0
 62
     0
 10
22.2526
 20
3.28938
 30
0.0
 11
22.2732
 21
3.05373
 31
0.0
  0
LINE
  8
0
 62
     0
 10
22.2732
 20
3.05373
 30
0.0
 11
22.1423
 21
3.3886
 31
0.0
  0
LINE
  8
0
 62
     0
 10
22.1423
 20
3.3886
 30
0.0
 11
21.9136
 21
3.8282
 31
0.0
  0
LINE
  8
0
 62
     0
 10
21.9136
 20
3.8282
 30
0.0
 11
21.6559
 21
4.0156
 31
0.0
  0
LINE
  8
0
 62
     0
 10
21.6559
 20
4.0156
 30
0.0
 11
21.4781
 21
4.08725
 31
0.0
  0
LINE
  8
0
 62
     0
 10
21.4781
 20
4.08725
 30
0.0
 11
21.6834
 21
4.39043
 31
0.0
  0
LINE
  8
0
 62
     0
 10
21.6834
 20
4.39043
 30
0.0
 11
21.9756
 21
4.91271
 31
0.0
  0
LINE
  8
0
 62
     0
 10
21.9756
 20
4.91271
 30
0.0
 11
21.7565
 21
5.10702
 31
0.0
  0
LINE
  8
0
 62
     0
 10
21.7565
 20
5.10702
 30
0.0
 11
21.4726
 21
5.30959
 31
0.0
  0
LINE
  8
0
 62
     0
 10
21.4726
 20
5.30959
 30
0.0
 11
21.1157
 21
5.79328
 31
0.0
  0
LINE
  8
0
 62
     0
 10
21.1157
 20
5.79328
 30
0.0
 11
20.8043
 21
6.24388
 31
0.0
  0
LINE
  8
0
 62
     0
 10
20.8043
 20
6.24388
 30
0.0
 11
20.6334
 21
6.36379
 31
0.0
  0
LINE
  8
0
 62
     0
 10
20.6334
 20
6.36379
 30
0.0
 11
20.3509
 21
6.55948
 31
0.0
  0
LINE
  8
0
 62
     0
 10
20.3509
 20
6.55948
 30
0.0
 11
19.7762
 21
7.18922
 31
0.0
  0
LINE
  8
0
 62
     0
 10
19.7762
 20
7.18922
 30
0.0
 11
19.0845
 21
7.90857
 31
0.0
  0
LINE
  8
0
 62
     0
 10
19.0845
 20
7.90857
 30
0.0
 11
18.525
 21
8.3137
 31
0.0
  0
LINE
  8
0
 62
     0
 10
18.525
 20
8.3137
 30
0.0
 11
18.1391
 21
8.56449
 31
0.0
  0
LINE
  8
0
 62
     0
 10
18.1391
 20
8.56449
 30
0.0
 11
17.8663
 21
8.90764
 31
0.0
  0
LINE
  8
0
 62
     0
 10
17.8663
 20
8.90764
 30
0.0
 11
17.6458
 21
9.15293
 31
0.0
  0
LINE
  8
0
 62
     0
 10
17.6458
 20
9.15293
 30
0.0
 11
17.3853
 21
9.14605
 31
0.0
  0
LINE
  8
0
 62
     0
 10
17.3853
 20
9.14605
 30
0.0
 11
17.0505
 21
9.04406
 31
0.0
  0
LINE
  8
0
 62
     0
 10
17.0505
 20
9.04406
 30
0.0
 11
16.8038
 21
9.16259
 31
0.0
  0
LINE
  8
0
 62
     0
 10
16.8038
 20
9.16259
 30
0.0
 11
16.6729
 21
9.47265
 31
0.0
  0
LINE
  8
0
 62
     0
 10
16.6729
 20
9.47265
 30
0.0
 11
16.6812
 21
9.9453
 31
0.0
  0
LINE
  8
0
 62
     0
 10
16.6812
 20
9.9453
 30
0.0
 11
16.7032
 21
10.4386
 31
0.0
  0
LINE
  8
0
 62
     0
 10
16.7032
 20
10.4386
 30
0.0
 11
16.564
 21
10.604
 31
0.0
  0
LINE
  8
0
 62
     0
 10
16.564
 20
10.604
 30
0.0
 11
16.4579
 21
10.7887
 31
0.0
  0
LINE
  8
0
 62
     0
 10
16.4579
 20
10.7887
 30
0.0
 11
16.4607
 21
11.0918
 31
0.0
  0
LINE
  8
0
 62
     0
 10
16.4607
 20
11.0918
 30
0.0
 11
16.2705
 21
11.4887
 31
0.0
  0
LINE
  8
0
 62
     0
 10
16.2705
 20
11.4887
 30
0.0
 11
15.9797
 21
11.8332
 31
0.0
  0
LINE
  8
0
 62
     0
 10
15.9797
 20
11.8332
 30
0.0
 11
15.6834
 21
11.9793
 31
0.0
  0
LINE
  8
0
 62
     0
 10
15.6834
 20
11.9793
 30
0.0
 11
15.2824
 21
12.2466
 31
0.0
  0
LINE
  8
0
 62
     0
 10
15.2824
 20
12.2466
 30
0.0
 11
15.4671
 21
12.8405
 31
0.0
  0
LINE
  8
0
 62
     0
 10
15.4671
 20
12.8405
 30
0.0
 11
15.6876
 21
13.0859
 31
0.0
  0
LINE
  8
0
 62
     0
 10
15.6876
 20
13.0859
 30
0.0
 11
15.8144
 21
13.1465
 31
0.0
  0
LINE
  8
0
 62
     0
 10
15.8144
 20
13.1465
 30
0.0
 11
15.9163
 21
13.2182
 31
0.0
  0
LINE
  8
0
 62
     0
 10
15.9163
 20
13.2182
 30
0.0
 11
15.8226
 21
13.7473
 31
0.0
  0
LINE
  8
0
 62
     0
 10
15.8226
 20
13.7473
 30
0.0
 11
15.6049
 21
14.4446
 31
0.0
  0
LINE
  8
0
 62
     0
 10
15.6049
 20
14.4446
 30
0.0
 11
15.3403
 21
15.0206
 31
0.0
  0
LINE
  8
0
 62
     0
 10
15.3403
 20
15.0206
 30
0.0
 11
15.1557
 21
15.2976
 31
0.0
  0
LINE
  8
0
 62
     0
 10
15.1557
 20
15.2976
 30
0.0
 11
15.0675
 21
15.3486
 31
0.0
  0
LINE
  8
0
 62
     0
 10
15.0675
 20
15.3486
 30
0.0
 11
15.0551
 21
15.1446
 31
0.0
  0
LINE
  8
0
 62
     0
 10
15.0551
 20
15.1446
 30
0.0
 11
15.0992
 21
14.6499
 31
0.0
  0
LINE
  8
0
 62
     0
 10
15.0992
 20
14.6499
 30
0.0
 11
15.1336
 21
14.0711
 31
0.0
  0
LINE
  8
0
 62
     0
 10
15.1336
 20
14.0711
 30
0.0
 11
15.0289
 21
14.3151
 31
0.0
  0
LINE
  8
0
 62
     0
 10
15.0289
 20
14.3151
 30
0.0
 11
14.8801
 21
15.1281
 31
0.0
  0
LINE
  8
0
 62
     0
 10
14.8801
 20
15.1281
 30
0.0
 11
14.7464
 21
16.3077
 31
0.0
  0
LINE
  8
0
 62
     0
 10
14.7464
 20
16.3077
 30
0.0
 11
14.6141
 21
17.3275
 31
0.0
  0
LINE
  8
0
 62
     0
 10
14.6141
 20
17.3275
 30
0.0
 11
14.4735
 21
17.7519
 31
0.0
  0
LINE
  8
0
 62
     0
 10
14.4735
 20
17.7519
 30
0.0
 11
14.333
 21
17.9324
 31
0.0
  0
LINE
  8
0
 62
     0
 10
14.333
 20
17.9324
 30
0.0
 11
14.2034
 21
18.3637
 31
0.0
  0
LINE
  8
0
 62
     0
 10
14.2034
 20
18.3637
 30
0.0
 11
13.9196
 21
19.1864
 31
0.0
  0
LINE
  8
0
 62
     0
 10
13.9196
 20
19.1864
 30
0.0
 11
13.4414
 21
20.1648
 31
0.0
  0
LINE
  8
0
 62
     0
 10
13.4414
 20
20.1648
 30
0.0
 11
12.9412
 21
20.9834
 31
0.0
  0
LINE
  8
0
 62
     0
 10
12.9412
 20
20.9834
 30
0.0
 11
12.5911
 21
21.3251
 31
0.0
  0
LINE
  8
0
 62
     0
 10
12.5911
 20
21.3251
 30
0.0
 11
12.0358
 21
21.5911
 31
0.0
  0
LINE
  8
0
 62
     0
 10
12.0358
 20
21.5911
 30
0.0
 11
11.3923
 21
22.2264
 31
0.0
  0
LINE
  8
0
 62
     0
 10
11.3923
 20
22.2264
 30
0.0
 11
10.8575
 21
22.9926
 31
0.0
  0
LINE
  8
0
 62
     0
 10
10.8575
 20
22.9926
 30
0.0
 11
10.6357
 21
23.6513
 31
0.0
  0
LINE
  8
0
 62
     0
 10
10.6357
 20
23.6513
 30
0.0
 11
10.4896
 21
24.0137
 31
0.0
  0
LINE
  8
0
 62
     0
 10
10.4896
 20
24.0137
 30
0.0
 11
10.152
 21
24.5236
 31
0.0
  0
LINE
  8
0
 62
     0
 10
10.152
 20
24.5236
 30
0.0
 11
9.77441
 21
24.9769
 31
0.0
  0
LINE
  8
0
 62
     0
 10
9.77441
 20
24.9769
 30
0.0
 11
9.5057
 21
25.1726
 31
0.0
  0
LINE
  8
0
 62
     0
 10
9.5057
 20
25.1726
 30
0.0
 11
9.27834
 21
25.3959
 31
0.0
  0
LINE
  8
0
 62
     0
 10
9.27834
 20
25.3959
 30
0.0
 11
8.86629
 21
25.9292
 31
0.0
  0
LINE
  8
0
 62
     0
 10
8.86629
 20
25.9292
 30
0.0
 11
8.42395
 21
26.4335
 31
0.0
  0
LINE
  8
0
 62
     0
 10
8.42395
 20
26.4335
 30
0.0
 11
8.12493
 21
26.5837
 31
0.0
  0
LINE
  8
0
 62
     0
 10
8.12493
 20
26.5837
 30
0.0
 11
7.68671
 21
26.4914
 31
0.0
  0
LINE
  8
0
 62
     0
 10
7.68671
 20
26.4914
 30
0.0
 11
7.1355
 21
26.5383
 31
0.0
  0
LINE
  8
0
 62
     0
 10
7.1355
 20
26.5383
 30
0.0
 11
6.61733
 21
26.6954
 31
0.0
  0
LINE
  8
0
 62
     0
 10
6.61733
 20
26.6954
 30
0.0
 11
6.28248
 21
26.9324
 31
0.0
  0
LINE
  8
0
 62
     0
 10
6.28248
 20
26.9324
 30
0.0
 11
5.89523
 21
27.3306
 31
0.0
  0
LINE
  8
0
 62
     0
 10
5.89523
 20
27.3306
 30
0.0
 11
5.35231
 21
27.7427
 31
0.0
  0
LINE
  8
0
 62
     0
 10
5.35231
 20
27.7427
 30
0.0
 11
4.88929
 21
28.1299
 31
0.0
  0
LINE
  8
0
 62
     0
 10
4.88929
 20
28.1299
 30
0.0
 11
4.69773
 21
28.4579
 31
0.0
  0
LINE
  8
0
 62
     0
 10
4.69773
 20
28.4579
 30
0.0
 11
4.61641
 21
28.6632
 31
0.0
  0
LINE
  8
0
 62
     0
 10
4.61641
 20
28.6632
 30
0.0
 11
4.42352
 21
28.7473
 31
0.0
  0
LINE
  8
0
 62
     0
 10
4.42352
 20
28.7473
 30
0.0
 11
4.24296
 21
28.8685
 31
0.0
  0
LINE
  8
0
 62
     0
 10
4.24296
 20
28.8685
 30
0.0
 11
4.24575
 21
29.2282
 31
0.0
  0
LINE
  8
0
 62
     0
 10
4.24575
 20
29.2282
 30
0.0
 11
4.20578
 21
29.6761
 31
0.0
  0
LINE
  8
0
 62
     0
 10
4.20578
 20
29.6761
 30
0.0
 11
3.87368
 21
30.0523
 31
0.0
  0
LINE
  8
0
 62
     0
 10
3.87368
 20
30.0523
 30
0.0
 11
3.48093
 21
30.2962
 31
0.0
  0
LINE
  8
0
 62
     0
 10
3.48093
 20
30.2962
 30
0.0
 11
3.19705
 21
30.3968
 31
0.0
  0
LINE
  8
0
 62
     0
 10
3.19705
 20
30.3968
 30
0.0
 11
3.01653
 21
30.5291
 31
0.0
  0
LINE
  8
0
 62
     0
 10
3.01653
 20
30.5291
 30
0.0
 11
2.87734
 21
30.8474
 31
0.0
  0
LINE
  8
0
 62
     0
 10
2.87734
 20
30.8474
 30
0.0
 11
2.76572
 21
31.1147
 31
0.0
  0
LINE
  8
0
 62
     0
 10
2.76572
 20
31.1147
 30
0.0
 11
2.65548
 21
31.1216
 31
0.0
  0
LINE
  8
0
 62
     0
 10
2.65548
 20
31.1216
 30
0.0
 11
2.49425
 21
31.1133
 31
0.0
  0
LINE
  8
0
 62
     0
 10
2.49425
 20
31.1133
 30
0.0
 11
2.26687
 21
31.338
 31
0.0
  0
LINE
  8
0
 62
     0
 10
2.26687
 20
31.338
 30
0.0
 11
2.03399
 21
31.6288
 31
0.0
  0
LINE
  8
0
 62
     0
 10
2.03399
 20
31.6288
 30
0.0
 11
1.86311
 21
31.7748
 31
0.0
  0
LINE
  8
0
 62
     0
 10
1.86311
 20
31.7748
 30
0.0
 11
1.39044
 21
31.9581
 31
0.0
  0
LINE
  8
0
 62
     0
 10
1.39044
 20
31.9581
 30
0.0
 11
1.14791
 21
32.151
 31
0.0
  0
LINE
  8
0
 62
     0
 10
1.14791
 20
32.151
 30
0.0
 11
1.07763
 21
32.4376
 31
0.0
  0
LINE
  8
0
 62
     0
 10
1.07763
 20
32.4376
 30
0.0
 11
1.12172
 21
32.9062
 31
0.0
  0
LINE
  8
0
 62
     0
 10
1.12172
 20
32.9062
 30
0.0
 11
1.15204
 21
33.4808
 31
0.0
  0
LINE
  8
0
 62
     0
 10
1.15204
 20
33.4808
 30
0.0
 11
1.04731
 21
33.6944
 31
0.0
  0
LINE
  8
0
 62
     0
 10
1.04731
 20
33.6944
 30
0.0
 11
0.810288
 21
33.9135
 31
0.0
  0
LINE
  8
0
 62
     0
 10
0.810288
 20
33.9135
 30
0.0
 11
0.55397
 21
34.4565
 31
0.0
  0
LINE
  8
0
 62
     0
 10
0.55397
 20
34.4565
 30
0.0
 11
0.341753
 21
35.1565
 31
0.0
  0
LINE
  8
0
 62
     0
 10
0.341753
 20
35.1565
 30
0.0
 11
0.235645
 21
35.8454
 31
0.0
  0
LINE
  8
0
 62
     0
 10
0.235645
 20
35.8454
 30
0.0
 11
0.168121
 21
36.5206
 31
0.0
  0
LINE
  8
0
 62
     0
 10
0.168121
 20
36.5206
 30
0.0
 11
0.0606337
 21
37.108
 31
0.0
  0
LINE
  8
0
 62
     0
 10
0.0606337
 20
37.108
 30
0.0
 11
0.00275608
 21
37.4632
 31
0.0
  0
LINE
  8
0
 62
     0
 10
0.00275608
 20
37.4632
 30
0.0
 11
0.12678
 21
37.4343
 31
0.0
  0
LINE
  8
0
 62
     0
 10
0.12678
 20
37.4343
 30
0.0
 11
0.271473
 21
37.393
 31
0.0
  0
LINE
  8
0
 62
     0
 10
0.271473
 20
37.393
 30
0.0
 11
0.330729
 21
37.5779
 31
0.0
  0
LINE
  8
0
 62
     0
 10
0.330729
 20
37.5779
 30
0.0
 11
0.47818
 21
37.5969
 31
0.0
  0
LINE
  8
0
 62
     0
 10
0.47818
 20
37.5969
 30
0.0
 11
0.835092
 21
37.1602
 31
0.0
  0
LINE
  8
0
 62
     0
 10
0.835092
 20
37.1602
 30
0.0
 11
1.23748
 21
36.678
 31
0.0
  0
LINE
  8
0
 62
     0
 10
1.23748
 20
36.678
 30
0.0
 11
1.45659
 21
36.6959
 31
0.0
  0
LINE
  8
0
 62
     0
 10
1.45659
 20
36.6959
 30
0.0
 11
1.74597
 21
36.9701
 31
0.0
  0
LINE
  8
0
 62
     0
 10
1.74597
 20
36.9701
 30
0.0
 11
1.98989
 21
36.4437
 31
0.0
  0
LINE
  8
0
 62
     0
 10
1.98989
 20
36.4437
 30
0.0
 11
2.11805
 21
36.0564
 31
0.0
  0
LINE
  8
0
 62
     0
 10
2.11805
 20
36.0564
 30
0.0
 11
2.27101
 21
35.8937
 31
0.0
  0
LINE
  8
0
 62
     0
 10
2.27101
 20
35.8937
 30
0.0
 11
2.47909
 21
35.7974
 31
0.0
  0
LINE
  8
0
 62
     0
 10
2.47909
 20
35.7974
 30
0.0
 11
2.77813
 21
35.4707
 31
0.0
  0
LINE
  8
0
 62
     0
 10
2.77813
 20
35.4707
 30
0.0
 11
3.20807
 21
34.8644
 31
0.0
  0
LINE
  8
0
 62
     0
 10
3.20807
 20
34.8644
 30
0.0
 11
3.81028
 21
33.9259
 31
0.0
  0
LINE
  8
0
 62
     0
 10
3.81028
 20
33.9259
 30
0.0
 11
4.6247
 21
32.8125
 31
0.0
  0
LINE
  8
0
 62
     0
 10
4.6247
 20
32.8125
 30
0.0
 11
5.4653
 21
31.9333
 31
0.0
  0
LINE
  8
0
 62
     0
 10
5.4653
 20
31.9333
 30
0.0
 11
6.12539
 21
31.3669
 31
0.0
  0
LINE
  8
0
 62
     0
 10
6.12539
 20
31.3669
 30
0.0
 11
6.5126
 21
31.0003
 31
0.0
  0
LINE
  8
0
 62
     0
 10
6.5126
 20
31.0003
 30
0.0
 11
6.81577
 21
30.8226
 31
0.0
  0
LINE
  8
0
 62
     0
 10
6.81577
 20
30.8226
 30
0.0
 11
7.27329
 21
30.7041
 31
0.0
  0
LINE
  8
0
 62
     0
 10
7.27329
 20
30.7041
 30
0.0
 11
7.72664
 21
30.7468
 31
0.0
  0
LINE
  8
0
 62
     0
 10
7.72664
 20
30.7468
 30
0.0
 11
7.84655
 21
31.1313
 31
0.0
  0
LINE
  8
0
 62
     0
 10
7.84655
 20
31.1313
 30
0.0
 11
7.88098
 21
31.4689
 31
0.0
  0
LINE
  8
0
 62
     0
 10
7.88098
 20
31.4689
 30
0.0
 11
8.05187
 21
31.083
 31
0.0
  0
LINE
  8
0
 62
     0
 10
8.05187
 20
31.083
 30
0.0
 11
8.58379
 21
30.1542
 31
0.0
  0
LINE
  8
0
 62
     0
 10
8.58379
 20
30.1542
 30
0.0
 11
9.20944
 21
29.9972
 31
0.0
  0
LINE
  8
0
 62
     0
 10
9.20944
 20
29.9972
 30
0.0
 11
9.64487
 21
30.0661
 31
0.0
  0
LINE
  8
0
 62
     0
 10
9.64487
 20
30.0661
 30
0.0
 11
9.98527
 21
29.9393
 31
0.0
  0
LINE
  8
0
 62
     0
 10
9.98527
 20
29.9393
 30
0.0
 11
10.2071
 21
29.6375
 31
0.0
  0
LINE
  8
0
 62
     0
 10
10.2071
 20
29.6375
 30
0.0
 11
10.2871
 21
29.1772
 31
0.0
  0
LINE
  8
0
 62
     0
 10
10.2871
 20
29.1772
 30
0.0
 11
10.3918
 21
28.4992
 31
0.0
  0
LINE
  8
0
 62
     0
 10
10.3918
 20
28.4992
 30
0.0
 11
10.6467
 21
27.8391
 31
0.0
  0
LINE
  8
0
 62
     0
 10
10.6467
 20
27.8391
 30
0.0
 11
10.9637
 21
27.3734
 31
0.0
  0
LINE
  8
0
 62
     0
 10
10.9637
 20
27.3734
 30
0.0
 11
11.253
 21
27.2769
 31
0.0
  0
LINE
  8
0
 62
     0
 10
11.253
 20
27.2769
 30
0.0
 11
11.4336
 21
27.3127
 31
0.0
  0
LINE
  8
0
 62
     0
 10
11.4336
 20
27.3127
 30
0.0
 11
11.5094
 21
27.1777
 31
0.0
  0
LINE
  8
0
 62
     0
 10
11.5094
 20
27.1777
 30
0.0
 11
11.6885
 21
26.8648
 31
0.0
  0
LINE
  8
0
 62
     0
 10
11.6885
 20
26.8648
 30
0.0
 11
12.1199
 21
26.4652
 31
0.0
  0
LINE
  8
0
 62
     0
 10
12.1199
 20
26.4652
 30
0.0
 11
12.5512
 21
26.016
 31
0.0
  0
LINE
  8
0
 62
     0
 10
12.5512
 20
26.016
 30
0.0
 11
12.7317
 21
25.5764
 31
0.0
  0
LINE
  8
0
 62
     0
 10
12.7317
 20
25.5764
 30
0.0
 11
12.9205
 21
25.0004
 31
0.0
  0
LINE
  8
0
 62
     0
 10
12.9205
 20
25.0004
 30
0.0
 11
13.3739
 21
24.219
 31
0.0
  0
LINE
  8
0
 62
     0
 10
13.3739
 20
24.219
 30
0.0
 11
13.7239
 21
23.6513
 31
0.0
  0
LINE
  8
0
 62
     0
 10
13.7239
 20
23.6513
 30
0.0
 11
13.9609
 21
23.0435
 31
0.0
  0
LINE
  8
0
 62
     0
 10
13.9609
 20
23.0435
 30
0.0
 11
14.1428
 21
22.185
 31
0.0
  0
LINE
  8
0
 62
     0
 10
14.1428
 20
22.185
 30
0.0
 11
14.3288
 21
20.869
 31
0.0
  0
LINE
  8
0
 62
     0
 10
14.3288
 20
20.869
 30
0.0
 11
14.4611
 21
19.9223
 31
0.0
  0
LINE
  8
0
 62
     0
 10
14.4611
 20
19.9223
 30
0.0
 11
14.5962
 21
19.1327
 31
0.0
  0
LINE
  8
0
 62
     0
 10
14.5962
 20
19.1327
 30
0.0
 11
14.7147
 21
18.5842
 31
0.0
  0
LINE
  8
0
 62
     0
 10
14.7147
 20
18.5842
 30
0.0
 11
14.8029
 21
18.3596
 31
0.0
  0
LINE
  8
0
 62
     0
 10
14.8029
 20
18.3596
 30
0.0
 11
14.8939
 21
18.1598
 31
0.0
  0
LINE
  8
0
 62
     0
 10
14.8939
 20
18.1598
 30
0.0
 11
14.8856
 21
17.7987
 31
0.0
  0
LINE
  8
0
 62
     0
 10
14.8856
 20
17.7987
 30
0.0
 11
14.9228
 21
17.2861
 31
0.0
  0
LINE
  8
0
 62
     0
 10
14.9228
 20
17.2861
 30
0.0
 11
15.1226
 21
16.7184
 31
0.0
  0
LINE
  8
0
 62
     0
 10
15.1226
 20
16.7184
 30
0.0
 11
15.4368
 21
16.0872
 31
0.0
  0
LINE
  8
0
 62
     0
 10
15.4368
 20
16.0872
 30
0.0
 11
15.7523
 21
15.4202
 31
0.0
  0
LINE
  8
0
 62
     0
 10
15.7523
 20
15.4202
 30
0.0
 11
16.0404
 21
14.9862
 31
0.0
  0
LINE
  8
0
 62
     0
 10
16.0404
 20
14.9862
 30
0.0
 11
16.3683
 21
14.7519
 31
0.0
  0
LINE
  8
0
 62
     0
 10
16.3683
 20
14.7519
 30
0.0
 11
16.6371
 21
14.756
 31
0.0
  0
LINE
  8
0
 62
     0
 10
16.6371
 20
14.756
 30
0.0
 11
16.7487
 21
15.0358
 31
0.0
  0
LINE
  8
0
 62
     0
 10
16.7487
 20
15.0358
 30
0.0
 11
16.8135
 21
15.1846
 31
0.0
  0
LINE
  8
0
 62
     0
 10
16.8135
 20
15.1846
 30
0.0
 11
17.0146
 21
14.9972
 31
0.0
  0
LINE
  8
0
 62
     0
 10
17.0146
 20
14.9972
 30
0.0
 11
17.2351
 21
14.8029
 31
0.0
  0
LINE
  8
0
 62
     0
 10
17.2351
 20
14.8029
 30
0.0
 11
17.3909
 21
14.8222
 31
0.0
  0
LINE
  8
0
 62
     0
 10
17.3909
 20
14.8222
 30
0.0
 11
17.5328
 21
14.8042
 31
0.0
  0
LINE
  8
0
 62
     0
 10
17.5328
 20
14.8042
 30
0.0
 11
17.7243
 21
14.5176
 31
0.0
  0
LINE
  8
0
 62
     0
 10
17.7243
 20
14.5176
 30
0.0
 11
17.9366
 21
14.22
 31
0.0
  0
LINE
  8
0
 62
     0
 10
17.9366
 20
14.22
 30
0.0
 11
18.1088
 21
14.723
 31
0.0
  0
LINE
  8
0
 62
     0
 10
18.1088
 20
14.723
 30
0.0
 11
18.2714
 21
15.4065
 31
0.0
  0
LINE
  8
0
 62
     0
 10
18.2714
 20
15.4065
 30
0.0
 11
18.3954
 21
14.7919
 31
0.0
  0
LINE
  8
0
 62
     0
 10
18.3954
 20
14.7919
 30
0.0
 11
18.5167
 21
14.4074
 31
0.0
  0
LINE
  8
0
 62
     0
 10
18.5167
 20
14.4074
 30
0.0
 11
18.6655
 21
14.1979
 31
0.0
  0
LINE
  8
0
 62
     0
 10
18.6655
 20
14.1979
 30
0.0
 11
18.7909
 21
14.2007
 31
0.0
  0
LINE
  8
0
 62
     0
 10
18.7909
 20
14.2007
 30
0.0
 11
18.8447
 21
14.4529
 31
0.0
  0
LINE
  8
0
 62
     0
 10
18.8447
 20
14.4529
 30
0.0
 11
18.9343
 21
14.6458
 31
0.0
  0
LINE
  8
0
 62
     0
 10
18.9343
 20
14.6458
 30
0.0
 11
19.1506
 21
14.7188
 31
0.0
  0
LINE
  8
0
 62
     0
 10
19.1506
 20
14.7188
 30
0.0
 11
19.3601
 21
14.6541
 31
0.0
  0
LINE
  8
0
 62
     0
 10
19.3601
 20
14.6541
 30
0.0
 11
19.1354
 21
14.3275
 31
0.0
  0
LINE
  8
0
 62
     0
 10
19.1354
 20
14.3275
 30
0.0
 11
18.9288
 21
13.9099
 31
0.0
  0
LINE
  8
0
 62
     0
 10
18.9288
 20
13.9099
 30
0.0
 11
18.8832
 21
13.4428
 31
0.0
  0
LINE
  8
0
 62
     0
 10
18.8832
 20
13.4428
 30
0.0
 11
19.039
 21
13.028
 31
0.0
  0
LINE
  8
0
 62
     0
 10
19.039
 20
13.028
 30
0.0
 11
19.5433
 21
13.1506
 31
0.0
  0
LINE
  8
0
 62
     0
 10
19.5433
 20
13.1506
 30
0.0
 11
19.6977
 21
13.1603
 31
0.0
  0
LINE
  8
0
 62
     0
 10
19.6977
 20
13.1603
 30
0.0
 11
19.6453
 21
12.8447
 31
0.0
  0
LINE
  8
0
 62
     0
 10
19.6453
 20
12.8447
 30
0.0
 11
19.7239
 21
12.2287
 31
0.0
  0
LINE
  8
0
 62
     0
 10
19.7239
 20
12.2287
 30
0.0
 11
19.903
 21
11.4543
 31
0.0
  0
LINE
  8
0
 62
     0
 10
19.903
 20
11.4543
 30
0.0
 11
20.1607
 21
10.6605
 31
0.0
  0
LINE
  8
0
 62
     0
 10
20.1607
 20
10.6605
 30
0.0
 11
20.5135
 21
9.97423
 31
0.0
  0
LINE
  8
0
 62
     0
 10
20.5135
 20
9.97423
 30
0.0
 11
20.8966
 21
9.86536
 31
0.0
  0
LINE
  8
0
 62
     0
 10
20.8966
 20
9.86536
 30
0.0
 11
21.1791
 21
9.85435
 31
0.0
  0
LINE
  8
0
 62
     0
 10
21.1791
 20
9.85435
 30
0.0
 11
21.2893
 21
9.64628
 31
0.0
  0
LINE
  8
0
 62
     0
 10
21.2893
 20
9.64628
 30
0.0
 11
21.3817
 21
9.28109
 31
0.0
  0
LINE
  8
0
 62
     0
 10
21.3817
 20
9.28109
 30
0.0
 11
21.6063
 21
8.86354
 31
0.0
  0
LINE
  8
0
 62
     0
 10
21.6063
 20
8.86354
 30
0.0
 11
21.8998
 21
8.57691
 31
0.0
  0
LINE
  8
0
 62
     0
 10
21.8998
 20
8.57691
 30
0.0
 11
22.1299
 21
8.73813
 31
0.0
  0
LINE
  8
0
 62
     0
 10
22.1299
 20
8.73813
 30
0.0
 11
22.3421
 21
8.88834
 31
0.0
  0
LINE
  8
0
 62
     0
 10
22.3421
 20
8.88834
 30
0.0
 11
22.5737
 21
8.55349
 31
0.0
  0
LINE
  8
0
 62
     0
 10
22.5737
 20
8.55349
 30
0.0
 11
22.841
 21
8.21725
 31
0.0
  0
LINE
  8
0
 62
     0
 10
22.841
 20
8.21725
 30
0.0
 11
23.1703
 21
8.19383
 31
0.0
  0
LINE
  8
0
 62
     0
 10
23.1703
 20
8.19383
 30
0.0
 11
23.6196
 21
8.03949
 31
0.0
  0
LINE
  8
0
 62
     0
 10
23.6196
 20
8.03949
 30
0.0
 11
24.2879
 21
7.14237
 31
0.0
  0
LINE
  8
0
 62
     0
 10
24.2879
 20
7.14237
 30
0.0
 11
24.9425
 21
6.27973
 31
0.0
  0
LINE
  8
0
 62
     0
 10
24.9425
 20
6.27973
 30
0.0
 11
25.4386
 21
5.93658
 31
0.0
  0
LINE
  8
0
 62
     0
 10
25.4386
 20
5.93658
 30
0.0
 11
25.7211
 21
5.81808
 31
0.0
  0
LINE
  8
0
 62
     0
 10
25.7211
 20
5.81808
 30
0.0
 11
25.8313
 21
5.51903
 31
0.0
  0
LINE
  8
0
 62
     0
 10
25.8313
 20
5.51903
 30
0.0
 11
26.0794
 21
5.15938
 31
0.0
  0
LINE
  8
0
 62
     0
 10
26.0794
 20
5.15938
 30
0.0
 11
26.727
 21
5.23656
 31
0.0
  0
LINE
  8
0
 62
     0
 10
26.727
 20
5.23656
 30
0.0
 11
27.6255
 21
5.69817
 31
0.0
  0
LINE
  8
0
 62
     0
 10
27.6255
 20
5.69817
 30
0.0
 11
28.626
 21
6.49192
 31
0.0
  0
LINE
  8
0
 62
     0
 10
28.626
 20
6.49192
 30
0.0
 11
29.3136
 21
7.07623
 31
0.0
  0
LINE
  8
0
 62
     0
 10
29.3136
 20
7.07623
 30
0.0
 11
29.9338
 21
7.48411
 31
0.0
  0
LINE
  8
0
 62
     0
 10
29.9338
 20
7.48411
 30
0.0
 11
30.4271
 21
7.6798
 31
0.0
  0
LINE
  8
0
 62
     0
 10
30.4271
 20
7.6798
 30
0.0
 11
30.7303
 21
7.63157
 31
0.0
  0
LINE
  8
0
 62
     0
 10
30.7303
 20
7.63157
 30
0.0
 11
31.0665
 21
7.47173
 31
0.0
  0
LINE
  8
0
 62
     0
 10
31.0665
 20
7.47173
 30
0.0
 11
31.495
 21
7.45518
 31
0.0
  0
LINE
  8
0
 62
     0
 10
31.495
 20
7.45518
 30
0.0
 11
31.9291
 21
7.43313
 31
0.0
  0
LINE
  8
0
 62
     0
 10
31.9291
 20
7.43313
 30
0.0
 11
32.2792
 21
7.25674
 31
0.0
  0
LINE
  8
0
 62
     0
 10
32.2792
 20
7.25674
 30
0.0
 11
32.7119
 21
7.19748
 31
0.0
  0
LINE
  8
0
 62
     0
 10
32.7119
 20
7.19748
 30
0.0
 11
33.5221
 21
7.71564
 31
0.0
  0
LINE
  8
0
 62
     0
 10
33.5221
 20
7.71564
 30
0.0
 11
34.4675
 21
8.36193
 31
0.0
  0
LINE
  8
0
 62
     0
 10
34.4675
 20
8.36193
 30
0.0
 11
35.621
 21
9.0358
 31
0.0
  0
LINE
  8
0
 62
     0
 10
35.621
 20
9.0358
 30
0.0
 11
36.667
 21
9.56635
 31
0.0
  0
LINE
  8
0
 62
     0
 10
36.667
 20
9.56635
 30
0.0
 11
37.2939
 21
9.77995
 31
0.0
  0
LINE
  8
0
 62
     0
 10
37.2939
 20
9.77995
 30
0.0
 11
37.586
 21
10.0969
 31
0.0
  0
LINE
  8
0
 62
     0
 10
37.586
 20
10.0969
 30
0.0
 11
37.9607
 21
10.8575
 31
0.0
  0
LINE
  8
0
 62
     0
 10
37.9607
 20
10.8575
 30
0.0
 11
38.4267
 21
11.8167
 31
0.0
  0
LINE
  8
0
 62
     0
 10
38.4267
 20
11.8167
 30
0.0
 11
38.9724
 21
12.5953
 31
0.0
  0
LINE
  8
0
 62
     0
 10
38.9724
 20
12.5953
 30
0.0
 11
39.5609
 21
13.152
 31
0.0
  0
LINE
  8
0
 62
     0
 10
39.5609
 20
13.152
 30
0.0
 11
40.1532
 21
13.44
 31
0.0
  0
LINE
  8
0
 62
     0
 10
40.1532
 20
13.44
 30
0.0
 11
40.9085
 21
13.6784
 31
0.0
  0
LINE
  8
0
 62
     0
 10
40.9085
 20
13.6784
 30
0.0
 11
41.6387
 21
13.9926
 31
0.0
  0
LINE
  8
0
 62
     0
 10
41.6387
 20
13.9926
 30
0.0
 11
42.1721
 21
14.2971
 31
0.0
  0
LINE
  8
0
 62
     0
 10
42.1721
 20
14.2971
 30
0.0
 11
42.3319
 21
14.5052
 31
0.0
  0
LINE
  8
0
 62
     0
 10
42.3319
 20
14.5052
 30
0.0
 11
42.5027
 21
14.5934
 31
0.0
  0
LINE
  8
0
 62
     0
 10
42.5027
 20
14.5934
 30
0.0
 11
43.0597
 21
14.5783
 31
0.0
  0
LINE
  8
0
 62
     0
 10
43.0597
 20
14.5783
 30
0.0
 11
43.7776
 21
14.6141
 31
0.0
  0
LINE
  8
0
 62
     0
 10
43.7776
 20
14.6141
 30
0.0
 11
44.4087
 21
14.858
 31
0.0
  0
LINE
  8
0
 62
     0
 10
44.4087
 20
14.858
 30
0.0
 11
44.9061
 21
15.2866
 31
0.0
  0
LINE
  8
0
 62
     0
 10
44.9061
 20
15.2866
 30
0.0
 11
45.2286
 21
15.8722
 31
0.0
  0
LINE
  8
0
 62
     0
 10
45.2286
 20
15.8722
 30
0.0
 11
45.3817
 21
16.2526
 31
0.0
  0
LINE
  8
0
 62
     0
 10
45.3817
 20
16.2526
 30
0.0
 11
45.6434
 21
16.8121
 31
0.0
  0
LINE
  8
0
 62
     0
 10
45.6434
 20
16.8121
 30
0.0
 11
45.9768
 21
17.4735
 31
0.0
  0
LINE
  8
0
 62
     0
 10
45.9768
 20
17.4735
 30
0.0
 11
46.3448
 21
18.1639
 31
0.0
  0
LINE
  8
0
 62
     0
 10
46.3448
 20
18.1639
 30
0.0
 11
46.7335
 21
18.886
 31
0.0
  0
LINE
  8
0
 62
     0
 10
46.7335
 20
18.886
 30
0.0
 11
47.1262
 21
19.6329
 31
0.0
  0
LINE
  8
0
 62
     0
 10
47.1262
 20
19.6329
 30
0.0
 11
47.4775
 21
20.3164
 31
0.0
  0
LINE
  8
0
 62
     0
 10
47.4775
 20
20.3164
 30
0.0
 11
47.7407
 21
20.8484
 31
0.0
  0
LINE
  8
0
 62
     0
 10
47.7407
 20
20.8484
 30
0.0
 11
48.248
 21
21.7069
 31
0.0
  0
LINE
  8
0
 62
     0
 10
48.248
 20
21.7069
 30
0.0
 11
48.7786
 21
22.3159
 31
0.0
  0
LINE
  8
0
 62
     0
 10
48.7786
 20
22.3159
 30
0.0
 11
49.083
 21
22.6425
 31
0.0
  0
LINE
  8
0
 62
     0
 10
49.083
 20
22.6425
 30
0.0
 11
49.451
 21
23.1621
 31
0.0
  0
LINE
  8
0
 62
     0
 10
49.451
 20
23.1621
 30
0.0
 11
49.8493
 21
23.8097
 31
0.0
  0
LINE
  8
0
 62
     0
 10
49.8493
 20
23.8097
 30
0.0
 11
50.2433
 21
24.5208
 31
0.0
  0
LINE
  8
0
 62
     0
 10
50.2433
 20
24.5208
 30
0.0
 11
50.5975
 21
25.2305
 31
0.0
  0
LINE
  8
0
 62
     0
 10
50.5975
 20
25.2305
 30
0.0
 11
50.8801
 21
25.8754
 31
0.0
  0
LINE
  8
0
 62
     0
 10
50.8801
 20
25.8754
 30
0.0
 11
51.0551
 21
26.3881
 31
0.0
  0
LINE
  8
0
 62
     0
 10
51.0551
 20
26.3881
 30
0.0
 11
51.0893
 21
26.7036
 31
0.0
  0
LINE
  8
0
 62
     0
 10
51.0893
 20
26.7036
 30
0.0
 11
51.1168
 21
27.0798
 31
0.0
  0
LINE
  8
0
 62
     0
 10
51.1168
 20
27.0798
 30
0.0
 11
51.5359
 21
26.643
 31
0.0
  0
LINE
  8
0
 62
     0
 10
51.5359
 20
26.643
 30
0.0
 11
51.762
 21
26.4101
 31
0.0
  0
LINE
  8
0
 62
     0
 10
51.762
 20
26.4101
 30
0.0
 11
51.8555
 21
26.4886
 31
0.0
  0
LINE
  8
0
 62
     0
 10
51.8555
 20
26.4886
 30
0.0
 11
52.0732
 21
26.7698
 31
0.0
  0
LINE
  8
0
 62
     0
 10
52.0732
 20
26.7698
 30
0.0
 11
52.597
 21
27.022
 31
0.0
  0
LINE
  8
0
 62
     0
 10
52.597
 20
27.022
 30
0.0
 11
53.3396
 21
27.2521
 31
0.0
  0
LINE
  8
0
 62
     0
 10
53.3396
 20
27.2521
 30
0.0
 11
53.5284
 21
30.2672
 31
0.0
  0
LINE
  8
0
 62
     0
 10
53.5284
 20
30.2672
 30
0.0
 11
53.6141
 21
31.8272
 31
0.0
  0
LINE
  8
0
 62
     0
 10
53.6141
 20
31.8272
 30
0.0
 11
53.6346
 21
32.8138
 31
0.0
  0
LINE
  8
0
 62
     0
 10
53.6346
 20
32.8138
 30
0.0
 11
53.5852
 21
33.3981
 31
0.0
  0
LINE
  8
0
 62
     0
 10
53.5852
 20
33.3981
 30
0.0
 11
53.4652
 21
33.7509
 31
0.0
  0
LINE
  8
0
 62
     0
 10
53.4652
 20
33.7509
 30
0.0
 11
53.2984
 21
34.3586
 31
0.0
  0
LINE
  8
0
 62
     0
 10
53.2984
 20
34.3586
 30
0.0
 11
53.3231
 21
35.2626
 31
0.0
  0
LINE
  8
0
 62
     0
 10
53.3231
 20
35.2626
 30
0.0
 11
53.4169
 21
36.1625
 31
0.0
  0
LINE
  8
0
 62
     0
 10
53.4169
 20
36.1625
 30
0.0
 11
53.4885
 21
36.8558
 31
0.0
  0
LINE
  8
0
 62
     0
 10
53.4885
 20
36.8558
 30
0.0
 11
53.5644
 21
37.3807
 31
0.0
  0
LINE
  8
0
 62
     0
 10
53.5644
 20
37.3807
 30
0.0
 11
53.6734
 21
37.8672
 31
0.0
  0
LINE
  8
0
 62
     0
 10
53.6734
 20
37.8672
 30
0.0
 11
53.7986
 21
39.3679
 31
0.0
  0
LINE
  8
0
 62
     0
 10
53.7986
 20
39.3679
 30
0.0
 11
53.8014
 21
41.8924
 31
0.0
  0
LINE
  8
0
 62
     0
 10
53.8014
 20
41.8924
 30
0.0
 11
53.6981
 21
44.5326
 31
0.0
  0
LINE
  8
0
 62
     0
 10
53.6981
 20
44.5326
 30
0.0
 11
53.5079
 21
46.3737
 31
0.0
  0
LINE
  8
0
 62
     0
 10
53.5079
 20
46.3737
 30
0.0
 11
53.5107
 21
46.9456
 31
0.0
  0
LINE
  8
0
 62
     0
 10
53.5107
 20
46.9456
 30
0.0
 11
53.6607
 21
47.6264
 31
0.0
  0
LINE
  8
0
 62
     0
 10
53.6607
 20
47.6264
 30
0.0
 11
53.8067
 21
48.0138
 31
0.0
  0
LINE
  8
0
 62
     0
 10
53.8067
 20
48.0138
 30
0.0
 11
53.8977
 21
47.9859
 31
0.0
  0
LINE
  8
0
 62
     0
 10
53.8977
 20
47.9859
 30
0.0
 11
53.9679
 21
47.4211
 31
0.0
  0
LINE
  8
0
 62
     0
 10
53.9679
 20
47.4211
 30
0.0
 11
54.0523
 21
46.1945
 31
0.0
  0
LINE
  8
0
 62
     0
 10
54.0523
 20
46.1945
 30
0.0
 11
54.1348
 21
44.0754
 31
0.0
  0
LINE
  8
0
 62
     0
 10
54.1348
 20
44.0754
 30
0.0
 11
54.1609
 21
41.5064
 31
0.0
  0
LINE
  8
0
 62
     0
 10
54.1609
 20
41.5064
 30
0.0
 11
54.132
 21
38.88
 31
0.0
  0
LINE
  8
0
 62
     0
 10
54.132
 20
38.88
 30
0.0
 11
54.0494
 21
36.5813
 31
0.0
  0
LINE
  8
0
 62
     0
 10
54.0494
 20
36.5813
 30
0.0
 11
53.9902
 21
34.9732
 31
0.0
  0
LINE
  8
0
 62
     0
 10
53.9902
 20
34.9732
 30
0.0
 11
53.9821
 21
33.4202
 31
0.0
  0
LINE
  8
0
 62
     0
 10
53.9821
 20
33.4202
 30
0.0
 11
53.9983
 21
32.016
 31
0.0
  0
LINE
  8
0
 62
     0
 10
53.9983
 20
32.016
 30
0.0
 11
53.9983
 21
30.5869
 31
0.0
  0
LINE
  8
0
 62
     0
 10
53.9983
 20
30.5869
 30
0.0
 11
53.9806
 21
28.9085
 31
0.0
  0
LINE
  8
0
 62
     0
 10
53.9806
 20
28.9085
 30
0.0
 11
53.9447
 21
26.7546
 31
0.0
  0
LINE
  8
0
 62
     0
 10
53.9447
 20
26.7546
 30
0.0
 11
53.8949
 21
25.2347
 31
0.0
  0
LINE
  8
0
 62
     0
 10
53.8949
 20
25.2347
 30
0.0
 11
53.8138
 21
24.361
 31
0.0
  0
LINE
  8
0
 62
     0
 10
53.8138
 20
24.361
 30
0.0
 11
53.6896
 21
24.084
 31
0.0
  0
LINE
  8
0
 62
     0
 10
53.6896
 20
24.084
 30
0.0
 11
53.5146
 21
24.3499
 31
0.0
  0
LINE
  8
0
 62
     0
 10
53.5146
 20
24.3499
 30
0.0
 11
53.3506
 21
24.4878
 31
0.0
  0
LINE
  8
0
 62
     0
 10
53.3506
 20
24.4878
 30
0.0
 11
53.0779
 21
24.3485
 31
0.0
  0
LINE
  8
0
 62
     0
 10
53.0779
 20
24.3485
 30
0.0
 11
52.8052
 21
24.2108
 31
0.0
  0
LINE
  8
0
 62
     0
 10
52.8052
 20
24.2108
 30
0.0
 11
52.6426
 21
24.3472
 31
0.0
  0
LINE
  8
0
 62
     0
 10
52.6426
 20
24.3472
 30
0.0
 11
52.4387
 21
24.445
 31
0.0
  0
LINE
  8
0
 62
     0
 10
52.4387
 20
24.445
 30
0.0
 11
52.0637
 21
24.2232
 31
0.0
  0
LINE
  8
0
 62
     0
 10
52.0637
 20
24.2232
 30
0.0
 11
51.3126
 21
23.2778
 31
0.0
  0
LINE
  8
0
 62
     0
 10
51.3126
 20
23.2778
 30
0.0
 11
50.0228
 21
21.3927
 31
0.0
  0
LINE
  8
0
 62
     0
 10
50.0228
 20
21.3927
 30
0.0
 11
48.5112
 21
19.0486
 31
0.0
  0
LINE
  8
0
 62
     0
 10
48.5112
 20
19.0486
 30
0.0
 11
47.093
 21
16.7211
 31
0.0
  0
LINE
  8
0
 62
     0
 10
47.093
 20
16.7211
 30
0.0
 11
46.6852
 21
16.0541
 31
0.0
  0
LINE
  8
0
 62
     0
 10
46.6852
 20
16.0541
 30
0.0
 11
46.3201
 21
15.5084
 31
0.0
  0
LINE
  8
0
 62
     0
 10
46.3201
 20
15.5084
 30
0.0
 11
46.0389
 21
15.1391
 31
0.0
  0
LINE
  8
0
 62
     0
 10
46.0389
 20
15.1391
 30
0.0
 11
45.8819
 21
15.0027
 31
0.0
  0
LINE
  8
0
 62
     0
 10
45.8819
 20
15.0027
 30
0.0
 11
45.6297
 21
14.8442
 31
0.0
  0
LINE
  8
0
 62
     0
 10
45.6297
 20
14.8442
 30
0.0
 11
45.3111
 21
14.4611
 31
0.0
  0
LINE
  8
0
 62
     0
 10
45.3111
 20
14.4611
 30
0.0
 11
44.6278
 21
13.8948
 31
0.0
  0
LINE
  8
0
 62
     0
 10
44.6278
 20
13.8948
 30
0.0
 11
43.4728
 21
13.2608
 31
0.0
  0
LINE
  8
0
 62
     0
 10
43.4728
 20
13.2608
 30
0.0
 11
42.2342
 21
12.7441
 31
0.0
  0
LINE
  8
0
 62
     0
 10
42.2342
 20
12.7441
 30
0.0
 11
41.2972
 21
12.5291
 31
0.0
  0
LINE
  8
0
 62
     0
 10
41.2972
 20
12.5291
 30
0.0
 11
40.7127
 21
12.4506
 31
0.0
  0
LINE
  8
0
 62
     0
 10
40.7127
 20
12.4506
 30
0.0
 11
40.1712
 21
12.1846
 31
0.0
  0
LINE
  8
0
 62
     0
 10
40.1712
 20
12.1846
 30
0.0
 11
39.6074
 21
11.6885
 31
0.0
  0
LINE
  8
0
 62
     0
 10
39.6074
 20
11.6885
 30
0.0
 11
38.9611
 21
10.9182
 31
0.0
  0
LINE
  8
0
 62
     0
 10
38.9611
 20
10.9182
 30
0.0
 11
38.264
 21
10.1231
 31
0.0
  0
LINE
  8
0
 62
     0
 10
38.264
 20
10.1231
 30
0.0
 11
37.4964
 21
9.40234
 31
0.0
  0
LINE
  8
0
 62
     0
 10
37.4964
 20
9.40234
 30
0.0
 11
36.8004
 21
8.88146
 31
0.0
  0
LINE
  8
0
 62
     0
 10
36.8004
 20
8.88146
 30
0.0
 11
36.3209
 21
8.68027
 31
0.0
  0
LINE
  8
0
 62
     0
 10
36.3209
 20
8.68027
 30
0.0
 11
35.8719
 21
8.36605
 31
0.0
  0
LINE
  8
0
 62
     0
 10
35.8719
 20
8.36605
 30
0.0
 11
35.0821
 21
7.60402
 31
0.0
  0
LINE
  8
0
 62
     0
 10
35.0821
 20
7.60402
 30
0.0
 11
34.2208
 21
6.67247
 31
0.0
  0
LINE
  8
0
 62
     0
 10
34.2208
 20
6.67247
 30
0.0
 11
33.5594
 21
5.84839
 31
0.0
  0
LINE
  8
0
 62
     0
 10
33.5594
 20
5.84839
 30
0.0
 11
33.3099
 21
5.40191
 31
0.0
  0
LINE
  8
0
 62
     0
 10
33.3099
 20
5.40191
 30
0.0
 11
33.1832
 21
4.98574
 31
0.0
  0
LINE
  8
0
 62
     0
 10
33.1832
 20
4.98574
 30
0.0
 11
33.1887
 21
4.67843
 31
0.0
  0
LINE
  8
0
 62
     0
 10
33.1887
 20
4.67843
 30
0.0
 11
33.3416
 21
4.55718
 31
0.0
  0
LINE
  8
0
 62
     0
 10
33.3416
 20
4.55718
 30
0.0
 11
33.4643
 21
4.39593
 31
0.0
  0
LINE
  8
0
 62
     0
 10
33.4643
 20
4.39593
 30
0.0
 11
33.5166
 21
4.00734
 31
0.0
  0
LINE
  8
0
 62
     0
 10
33.5166
 20
4.00734
 30
0.0
 11
33.5649
 21
3.6201
 31
0.0
  0
LINE
  8
0
 62
     0
 10
33.5649
 20
3.6201
 30
0.0
 11
33.682
 21
3.4575
 31
0.0
  0
LINE
  8
0
 62
     0
 10
33.682
 20
3.4575
 30
0.0
 11
33.8708
 21
3.19567
 31
0.0
  0
LINE
  8
0
 62
     0
 10
33.8708
 20
3.19567
 30
0.0
 11
34.094
 21
2.56453
 31
0.0
  0
LINE
  8
0
 62
     0
 10
34.094
 20
2.56453
 30
0.0
 11
34.4978
 21
1.03077
 31
0.0
  0
LINE
  8
0
 62
     0
 10
34.4978
 20
1.03077
 30
0.0
 11
34.6329
 21
0.23151
 31
0.0
  0
LINE
  8
0
 62
     0
 10
34.6329
 20
0.23151
 30
0.0
 11
34.5006
 21
0.00137804
 31
0.0
  0
LINE
  8
0
 62
     0
 10
34.5006
 20
0.00137804
 30
0.0
 11
34.1009
 21
0.172255
 31
0.0
  0
ENDSEC
  0
EOF
