  0
SECTION
  2
HEADER
  9
$ACADVER
  1
AC1014
  9
$HANDSEED
  5
FFFF
  9
$MEASUREMENT
 70
     1
  0
ENDSEC
  0
SECTION
  2
TABLES
  0
TABLE
  2
VPORT
  5
8
330
0
100
AcDbSymbolTable
 70
     4
  0
VPORT
  5
2E
330
8
100
AcDbSymbolTableRecord
100
AcDbViewportTableRecord
  2
*ACTIVE
 70
     0
 10
0.0
 20
0.0
 11
1.0
 21
1.0
 12
210.0
 22
148.5
 13
0.0
 23
0.0
 14
10.0
 24
10.0
 15
10.0
 25
10.0
 16
0.0
 26
0.0
 36
1.0
 17
0.0
 27
0.0
 37
0.0
 40
341.0
 41
1.24
 42
50.0
 43
0.0
 44
0.0
 50
0.0
 51
0.0
 71
     0
 72
   100
 73
     1
 74
     3
 75
     0
 76
     0
 77
     0
 78
     0
  0
ENDTAB
  0
TABLE
  2
LTYPE
  5
5
330
0
100
AcDbSymbolTable
 70
     1
  0
LTYPE
  5
14
330
5
100
AcDbSymbolTableRecord
100
AcDbLinetypeTableRecord
  2
BYBLOCK
 70
     0
  3

 72
    65
 73
     0
 40
0.0
  0
LTYPE
  5
15
330
5
100
AcDbSymbolTableRecord
100
AcDbLinetypeTableRecord
  2
BYLAYER
 70
     0
  3

 72
    65
 73
     0
 40
0.0
  0
LTYPE
  5
16
330
5
100
AcDbSymbolTableRecord
100
AcDbLinetypeTableRecord
  2
CONTINUOUS
 70
     0
  3
Solid line
 72
    65
 73
     0
 40
0.0
  0
ENDTAB
  0
TABLE
  2
LAYER
  5
2
100
AcDbSymbolTable
 70
2
  0
LAYER
  5
50
100
AcDbSymbolTableRecord
100
AcDbLayerTableRecord
  2
0
 70
0
  6
CONTINUOUS
  0
LAYER
  5
51
100
AcDbSymbolTableRecord
100
AcDbLayerTableRecord
  2
Layer_1
 70
0
  6
CONTINUOUS
  0
ENDTAB
  0
TABLE
  2
STYLE
  5
3
330
0
100
AcDbSymbolTable
 70
     1
  0
STYLE
  5
11
330
3
100
AcDbSymbolTableRecord
100
AcDbTextStyleTableRecord
  2
STANDARD
 70
     0
 40
0.0
 41
1.0
 50
0.0
 71
     0
 42
2.5
  3
txt
  4

  0
ENDTAB
  0
TABLE
  2
VIEW
  5
6
330
0
100
AcDbSymbolTable
 70
     0
  0
ENDTAB
  0
TABLE
  2
UCS
  5
7
330
0
100
AcDbSymbolTable
 70
     0
  0
ENDTAB
  0
TABLE
  2
APPID
  5
9
330
0
100
AcDbSymbolTable
 70
     2
  0
APPID
  5
12
330
9
100
AcDbSymbolTableRecord
100
AcDbRegAppTableRecord
  2
ACAD
 70
     0
  0
ENDTAB
  0
TABLE
  2
DIMSTYLE
  5
A
330
0
100
AcDbSymbolTable
 70
     1
  0
DIMSTYLE
105
27
330
A
100
AcDbSymbolTableRecord
100
AcDbDimStyleTableRecord
  2
ISO-25
 70
     0
  3

  4

  5

  6

  7

 40
1.0
 41
2.5
 42
0.625
 43
3.75
 44
1.25
 45
0.0
 46
0.0
 47
0.0
 48
0.0
140
2.5
141
2.5
142
0.0
143
0.03937007874016
144
1.0
145
0.0
146
1.0
147
0.625
 71
     0
 72
     0
 73
     0
 74
     0
 75
     0
 76
     0
 77
     1
 78
     8
170
     0
171
     3
172
     1
173
     0
174
     0
175
     0
176
     0
177
     0
178
     0
270
     2
271
     2
272
     2
273
     2
274
     3
340
11
275
     0
280
     0
281
     0
282
     0
283
     0
284
     8
285
     0
286
     0
287
     3
288
     0
  0
ENDTAB
  0
TABLE
  2
BLOCK_RECORD
  5
1
330
0
100
AcDbSymbolTable
 70
     1
  0
BLOCK_RECORD
  5
1F
330
1
100
AcDbSymbolTableRecord
100
AcDbBlockTableRecord
  2
*MODEL_SPACE
  0
BLOCK_RECORD
  5
1B
330
1
100
AcDbSymbolTableRecord
100
AcDbBlockTableRecord
  2
*PAPER_SPACE
  0
ENDTAB
  0
ENDSEC
  0
SECTION
  2
BLOCKS
  0
BLOCK
  5
20
330
1F
100
AcDbEntity
  8
0
100
AcDbBlockBegin
  2
*MODEL_SPACE
 70
     0
 10
0.0
 20
0.0
 30
0.0
  3
*MODEL_SPACE
  1

  0
ENDBLK
  5
21
330
1F
100
AcDbEntity
  8
0
100
AcDbBlockEnd
  0
BLOCK
  5
1C
330
1B
100
AcDbEntity
 67
     1
  8
0
100
AcDbBlockBegin
  2
*PAPER_SPACE
  1

  0
ENDBLK
  5
1D
330
1B
100
AcDbEntity
 67
     1
  8
0
100
AcDbBlockEnd
  0
ENDSEC
  0
SECTION
  2
ENTITIES
  0
LWPOLYLINE
  5
100
100
AcDbEntity
  8
Layer_1
 62
7
100
AcDbPolyline
 90
57
 70
1
 10
-28.128547
 20
-27.677250
 30
0.0
 10
-28.174316
 20
-27.155167
 30
0.0
 10
-28.204994
 20
-25.940059
 30
0.0
 10
-28.220355
 20
-23.937326
 30
0.0
 10
-28.220173
 20
-21.052337
 30
0.0
 10
-28.204222
 20
-17.190493
 30
0.0
 10
-28.172276
 20
-12.257192
 30
0.0
 10
-28.124108
 20
-6.157805
 30
0.0
 10
-28.059493
 20
1.202268
 30
0.0
 10
-28.032126
 20
4.530769
 30
0.0
 10
-28.010202
 20
7.852609
 30
0.0
 10
-27.993949
 20
11.079622
 30
0.0
 10
-27.983583
 20
14.123558
 30
0.0
 10
-27.979330
 20
16.896287
 30
0.0
 10
-27.981419
 20
19.309572
 30
0.0
 10
-27.990052
 20
21.275230
 30
0.0
 10
-28.005461
 20
22.705064
 30
0.0
 10
-28.024548
 20
24.009769
 30
0.0
 10
-28.035264
 20
25.133454
 30
0.0
 10
-28.037578
 20
26.078294
 30
0.0
 10
-28.031454
 20
26.846464
 30
0.0
 10
-28.016860
 20
27.440141
 30
0.0
 10
-27.993766
 20
27.861501
 30
0.0
 10
-27.962135
 20
28.112724
 30
0.0
 10
-27.921935
 20
28.195980
 30
0.0
 10
-27.830910
 20
27.619324
 30
0.0
 10
-27.757888
 20
25.956154
 30
0.0
 10
-27.703509
 20
23.306663
 30
0.0
 10
-27.668415
 20
19.771045
 30
0.0
 10
-27.653246
 20
15.449498
 30
0.0
 10
-27.658645
 20
10.442224
 30
0.0
 10
-27.685250
 20
4.849369
 30
0.0
 10
-27.733703
 20
-1.228794
 30
0.0
 10
-27.805808
 20
-8.955559
 30
0.0
 10
-27.859066
 20
-15.020627
 30
0.0
 10
-27.894123
 20
-19.624801
 30
0.0
 10
-27.911627
 20
-22.968908
 30
0.0
 10
-27.912219
 20
-25.253751
 30
0.0
 10
-27.896547
 20
-26.680187
 30
0.0
 10
-27.865256
 20
-27.449017
 30
0.0
 10
-27.818991
 20
-27.761070
 30
0.0
 10
-27.793726
 20
-27.840798
 30
0.0
 10
-27.776863
 20
-27.913357
 30
0.0
 10
-27.768318
 20
-27.977675
 30
0.0
 10
-27.768007
 20
-28.032709
 30
0.0
 10
-27.775853
 20
-28.077356
 30
0.0
 10
-27.791768
 20
-28.110546
 30
0.0
 10
-27.815672
 20
-28.131148
 30
0.0
 10
-27.847480
 20
-28.138203
 30
0.0
 10
-27.882552
 20
-28.128890
 30
0.0
 10
-27.919946
 20
-28.101797
 30
0.0
 10
-27.958509
 20
-28.059153
 30
0.0
 10
-27.997091
 20
-28.002737
 30
0.0
 10
-28.034539
 20
-27.934439
 30
0.0
 10
-28.069701
 20
-27.856122
 30
0.0
 10
-28.101425
 20
-27.769678
 30
0.0
 10
-28.128547
 20
-27.677250
 30
0.0
  0
LWPOLYLINE
  5
101
100
AcDbEntity
  8
Layer_1
 62
7
100
AcDbPolyline
 90
129
 70
1
 10
-26.412729
 20
-27.844890
 30
0.0
 10
-26.587193
 20
-26.945758
 30
0.0
 10
-26.713058
 20
-25.698138
 30
0.0
 10
-26.790140
 20
-24.191438
 30
0.0
 10
-26.818255
 20
-22.514982
 30
0.0
 10
-26.797221
 20
-20.758149
 30
0.0
 10
-26.726851
 20
-19.010290
 30
0.0
 10
-26.606961
 20
-17.360786
 30
0.0
 10
-26.437368
 20
-15.898988
 30
0.0
 10
-26.202630
 20
-14.032342
 30
0.0
 10
-26.037979
 20
-12.143090
 30
0.0
 10
-25.943426
 20
-10.229256
 30
0.0
 10
-25.918982
 20
-8.288894
 30
0.0
 10
-25.964661
 20
-6.320027
 30
0.0
 10
-26.080472
 20
-4.320680
 30
0.0
 10
-26.266428
 20
-2.288877
 30
0.0
 10
-26.522539
 20
-0.222672
 30
0.0
 10
-26.683313
 20
1.246662
 30
0.0
 10
-26.842022
 20
3.260430
 30
0.0
 10
-26.990761
 20
5.644869
 30
0.0
 10
-27.121626
 20
8.226271
 30
0.0
 10
-27.226712
 20
10.830900
 30
0.0
 10
-27.298115
 20
13.284963
 30
0.0
 10
-27.327930
 20
15.414756
 30
0.0
 10
-27.308250
 20
17.046509
 30
0.0
 10
-27.281877
 20
17.633302
 30
0.0
 10
-27.243294
 20
18.273337
 30
0.0
 10
-27.194346
 20
18.945983
 30
0.0
 10
-27.136877
 20
19.630606
 30
0.0
 10
-27.072730
 20
20.306579
 30
0.0
 10
-27.003750
 20
20.953266
 30
0.0
 10
-26.931780
 20
21.550041
 30
0.0
 10
-26.858664
 20
22.076273
 30
0.0
 10
-26.785422
 20
22.586260
 30
0.0
 10
-26.713088
 20
23.136472
 30
0.0
 10
-26.643532
 20
23.709538
 30
0.0
 10
-26.578623
 20
24.288082
 30
0.0
 10
-26.520230
 20
24.854737
 30
0.0
 10
-26.470223
 20
25.392125
 30
0.0
 10
-26.430473
 20
25.882872
 30
0.0
 10
-26.402852
 20
26.309606
 30
0.0
 10
-26.390161
 20
26.545403
 30
0.0
 10
-26.377472
 20
26.781200
 30
0.0
 10
-26.364781
 20
27.016996
 30
0.0
 10
-26.352089
 20
27.252793
 30
0.0
 10
-26.339400
 20
27.488590
 30
0.0
 10
-26.326709
 20
27.724386
 30
0.0
 10
-26.314017
 20
27.960183
 30
0.0
 10
-26.301329
 20
28.195980
 30
0.0
 10
-26.238176
 20
28.195980
 30
0.0
 10
-26.175024
 20
28.195980
 30
0.0
 10
-26.111872
 20
28.195980
 30
0.0
 10
-26.048720
 20
28.195980
 30
0.0
 10
-25.985568
 20
28.195980
 30
0.0
 10
-25.922416
 20
28.195980
 30
0.0
 10
-25.859264
 20
28.195980
 30
0.0
 10
-25.796111
 20
28.195980
 30
0.0
 10
-25.732959
 20
28.195980
 30
0.0
 10
-25.669807
 20
28.195980
 30
0.0
 10
-25.606655
 20
28.195980
 30
0.0
 10
-25.543503
 20
28.195980
 30
0.0
 10
-25.480351
 20
28.195980
 30
0.0
 10
-25.417198
 20
28.195980
 30
0.0
 10
-25.354046
 20
28.195980
 30
0.0
 10
-25.290894
 20
28.195980
 30
0.0
 10
-25.305330
 20
28.023085
 30
0.0
 10
-25.319765
 20
27.850187
 30
0.0
 10
-25.334201
 20
27.677292
 30
0.0
 10
-25.348637
 20
27.504394
 30
0.0
 10
-25.363072
 20
27.331496
 30
0.0
 10
-25.377508
 20
27.158601
 30
0.0
 10
-25.391944
 20
26.985706
 30
0.0
 10
-25.406379
 20
26.812809
 30
0.0
 10
-25.436319
 20
26.466875
 30
0.0
 10
-25.477275
 20
26.012630
 30
0.0
 10
-25.527421
 20
25.469417
 30
0.0
 10
-25.584929
 20
24.856585
 30
0.0
 10
-25.647973
 20
24.193484
 30
0.0
 10
-25.714724
 20
23.499458
 30
0.0
 10
-25.783353
 20
22.793857
 30
0.0
 10
-25.852034
 20
22.096029
 30
0.0
 10
-25.987191
 20
20.607083
 30
0.0
 10
-26.083370
 20
19.215691
 30
0.0
 10
-26.140496
 20
17.851903
 30
0.0
 10
-26.158493
 20
16.445765
 30
0.0
 10
-26.137287
 20
14.927322
 30
0.0
 10
-26.076802
 20
13.226628
 30
0.0
 10
-25.976964
 20
11.273735
 30
0.0
 10
-25.837697
 20
8.998657
 30
0.0
 10
-25.748187
 20
7.472738
 30
0.0
 10
-25.669092
 20
5.800430
 30
0.0
 10
-25.598797
 20
3.919645
 30
0.0
 10
-25.535686
 20
1.768236
 30
0.0
 10
-25.478143
 20
-0.715884
 30
0.0
 10
-25.424551
 20
-3.594776
 30
0.0
 10
-25.373294
 20
-6.930586
 30
0.0
 10
-25.322757
 20
-10.785403
 30
0.0
 10
-25.289076
 20
-13.743798
 30
0.0
 10
-25.262020
 20
-16.558287
 30
0.0
 10
-25.241869
 20
-19.163339
 30
0.0
 10
-25.228901
 20
-21.493507
 30
0.0
 10
-25.223397
 20
-23.483286
 30
0.0
 10
-25.225627
 20
-25.067146
 30
0.0
 10
-25.235894
 20
-26.179638
 30
0.0
 10
-25.254464
 20
-26.755230
 30
0.0
 10
-25.291907
 20
-27.211555
 30
0.0
 10
-25.325950
 20
-27.554511
 30
0.0
 10
-25.363525
 20
-27.800355
 30
0.0
 10
-25.411564
 20
-27.965201
 30
0.0
 10
-25.476997
 20
-28.065249
 30
0.0
 10
-25.566756
 20
-28.116670
 30
0.0
 10
-25.687772
 20
-28.135579
 30
0.0
 10
-25.846976
 20
-28.138401
 30
0.0
 10
-25.959191
 20
-28.133603
 30
0.0
 10
-26.060150
 20
-28.119492
 30
0.0
 10
-26.149552
 20
-28.096068
 30
0.0
 10
-26.227099
 20
-28.063499
 30
0.0
 10
-26.292489
 20
-28.008466
 30
0.0
 10
-26.345422
 20
-27.935681
 30
0.0
 10
-26.385599
 20
-27.872152
 30
0.0
 10
-26.412717
 20
-27.845059
 30
0.0
 10
-26.412716
 20
-27.845059
 30
0.0
 10
-26.412715
 20
-27.845059
 30
0.0
 10
-26.412714
 20
-27.845059
 30
0.0
 10
-26.412713
 20
-27.845059
 30
0.0
 10
-26.412712
 20
-27.845059
 30
0.0
 10
-26.412711
 20
-27.845059
 30
0.0
 10
-26.412710
 20
-27.845059
 30
0.0
 10
-26.412729
 20
-27.844890
 30
0.0
  0
LWPOLYLINE
  5
102
100
AcDbEntity
  8
Layer_1
 62
7
100
AcDbPolyline
 90
57
 70
1
 10
-24.748931
 20
-13.593796
 30
0.0
 10
-24.752021
 20
-12.083456
 30
0.0
 10
-24.757950
 20
-8.379120
 30
0.0
 10
-24.766372
 20
-3.720873
 30
0.0
 10
-24.776935
 20
0.651229
 30
0.0
 10
-24.789297
 20
4.434559
 30
0.0
 10
-24.803106
 20
8.076439
 30
0.0
 10
-24.818019
 20
11.461808
 30
0.0
 10
-24.833685
 20
14.475461
 30
0.0
 10
-24.846413
 20
17.195025
 30
0.0
 10
-24.852910
 20
19.737461
 30
0.0
 10
-24.853418
 20
22.046747
 30
0.0
 10
-24.848174
 20
24.066857
 30
0.0
 10
-24.837424
 20
25.741764
 30
0.0
 10
-24.821411
 20
27.015444
 30
0.0
 10
-24.800377
 20
27.831871
 30
0.0
 10
-24.774565
 20
28.135020
 30
0.0
 10
-24.646241
 20
28.209899
 30
0.0
 10
-24.545582
 20
28.139366
 30
0.0
 10
-24.471190
 20
27.904187
 30
0.0
 10
-24.421667
 20
27.485124
 30
0.0
 10
-24.395618
 20
26.862940
 30
0.0
 10
-24.391645
 20
26.018404
 30
0.0
 10
-24.408349
 20
24.932272
 30
0.0
 10
-24.444335
 20
23.585315
 30
0.0
 10
-24.495084
 20
21.902427
 30
0.0
 10
-24.531338
 20
20.449316
 30
0.0
 10
-24.553106
 20
18.902408
 30
0.0
 10
-24.560393
 20
16.938135
 30
0.0
 10
-24.553208
 20
14.232920
 30
0.0
 10
-24.531558
 20
10.463193
 30
0.0
 10
-24.495453
 20
5.305384
 30
0.0
 10
-24.444898
 20
-1.564074
 30
0.0
 10
-24.410224
 20
-7.247352
 30
0.0
 10
-24.393448
 20
-12.389413
 30
0.0
 10
-24.394069
 20
-16.923511
 30
0.0
 10
-24.411615
 20
-20.782871
 30
0.0
 10
-24.445581
 20
-23.900806
 30
0.0
 10
-24.495476
 20
-26.210541
 30
0.0
 10
-24.560807
 20
-27.645302
 30
0.0
 10
-24.641081
 20
-28.138401
 30
0.0
 10
-24.661412
 20
-27.841560
 30
0.0
 10
-24.680677
 20
-26.990744
 30
0.0
 10
-24.698431
 20
-25.645673
 30
0.0
 10
-24.714233
 20
-23.865952
 30
0.0
 10
-24.727641
 20
-21.711241
 30
0.0
 10
-24.738211
 20
-19.241204
 30
0.0
 10
-24.745498
 20
-16.515530
 30
0.0
 10
-24.749062
 20
-13.593796
 30
0.0
 10
-24.749045
 20
-13.593796
 30
0.0
 10
-24.749028
 20
-13.593796
 30
0.0
 10
-24.749011
 20
-13.593796
 30
0.0
 10
-24.748994
 20
-13.593796
 30
0.0
 10
-24.748977
 20
-13.593796
 30
0.0
 10
-24.748960
 20
-13.593796
 30
0.0
 10
-24.748944
 20
-13.593796
 30
0.0
 10
-24.748931
 20
-13.593796
 30
0.0
  0
LWPOLYLINE
  5
103
100
AcDbEntity
  8
Layer_1
 62
7
100
AcDbPolyline
 90
57
 70
1
 10
-23.816677
 20
-27.462761
 30
0.0
 10
-23.829499
 20
-27.170012
 30
0.0
 10
-23.836269
 20
-26.625859
 30
0.0
 10
-23.837200
 20
-25.861630
 30
0.0
 10
-23.832541
 20
-24.908593
 30
0.0
 10
-23.822499
 20
-23.798021
 30
0.0
 10
-23.807299
 20
-22.561266
 30
0.0
 10
-23.787162
 20
-21.229601
 30
0.0
 10
-23.762310
 20
-19.834294
 30
0.0
 10
-23.738287
 20
-18.151911
 30
0.0
 10
-23.723380
 20
-16.134304
 30
0.0
 10
-23.717422
 20
-13.840684
 30
0.0
 10
-23.720253
 20
-11.330346
 30
0.0
 10
-23.731706
 20
-8.662499
 30
0.0
 10
-23.751616
 20
-5.896411
 30
0.0
 10
-23.779825
 20
-3.091320
 30
0.0
 10
-23.816163
 20
-0.306492
 30
0.0
 10
-23.853592
 20
2.316735
 30
0.0
 10
-23.888871
 20
4.919417
 30
0.0
 10
-23.921202
 20
7.433509
 30
0.0
 10
-23.949788
 20
9.790883
 30
0.0
 10
-23.973830
 20
11.923495
 30
0.0
 10
-23.992530
 20
13.763245
 30
0.0
 10
-24.005092
 20
15.242053
 30
0.0
 10
-24.010717
 20
16.291846
 30
0.0
 10
-24.004669
 20
18.378112
 30
0.0
 10
-23.979308
 20
20.478032
 30
0.0
 10
-23.938078
 20
22.491828
 30
0.0
 10
-23.884422
 20
24.319728
 30
0.0
 10
-23.821781
 20
25.861957
 30
0.0
 10
-23.753601
 20
27.018743
 30
0.0
 10
-23.683323
 20
27.690308
 30
0.0
 10
-23.614391
 20
27.776880
 30
0.0
 10
-23.589606
 20
27.588513
 30
0.0
 10
-23.573421
 20
27.244109
 30
0.0
 10
-23.565688
 20
26.763264
 30
0.0
 10
-23.566252
 20
26.165574
 30
0.0
 10
-23.574996
 20
25.470636
 30
0.0
 10
-23.591762
 20
24.698044
 30
0.0
 10
-23.616409
 20
23.867399
 30
0.0
 10
-23.648792
 20
22.998293
 30
0.0
 10
-23.690422
 20
21.786400
 30
0.0
 10
-23.718792
 20
20.477953
 30
0.0
 10
-23.733801
 20
19.039872
 30
0.0
 10
-23.735353
 20
17.439080
 30
0.0
 10
-23.723330
 20
15.642495
 30
0.0
 10
-23.697637
 20
13.617026
 30
0.0
 10
-23.658172
 20
11.329643
 30
0.0
 10
-23.604833
 20
8.747197
 30
0.0
 10
-23.505702
 20
2.835121
 30
0.0
 10
-23.447931
 20
-3.616168
 30
0.0
 10
-23.428785
 20
-10.139086
 30
0.0
 10
-23.445526
 20
-16.266046
 30
0.0
 10
-23.495421
 20
-21.529490
 30
0.0
 10
-23.575733
 20
-25.461805
 30
0.0
 10
-23.683727
 20
-27.595434
 30
0.0
 10
-23.816677
 20
-27.462761
 30
0.0
  0
LWPOLYLINE
  5
104
100
AcDbEntity
  8
Layer_1
 62
7
100
AcDbPolyline
 90
113
 70
1
 10
-22.959803
 20
-27.258150
 30
0.0
 10
-22.954384
 20
-26.999239
 30
0.0
 10
-22.939454
 20
-26.598907
 30
0.0
 10
-22.916050
 20
-26.077304
 30
0.0
 10
-22.885208
 20
-25.454496
 30
0.0
 10
-22.847966
 20
-24.750662
 30
0.0
 10
-22.805360
 20
-23.985868
 30
0.0
 10
-22.758425
 20
-23.180264
 30
0.0
 10
-22.708200
 20
-22.353974
 30
0.0
 10
-22.611157
 20
-20.204316
 30
0.0
 10
-22.537182
 20
-17.408143
 30
0.0
 10
-22.487189
 20
-14.212597
 30
0.0
 10
-22.462091
 20
-10.864764
 30
0.0
 10
-22.462797
 20
-7.611814
 30
0.0
 10
-22.490229
 20
-4.700805
 30
0.0
 10
-22.545297
 20
-2.378906
 30
0.0
 10
-22.628912
 20
-0.893232
 30
0.0
 10
-22.746268
 20
0.583778
 30
0.0
 10
-22.845666
 20
2.454065
 30
0.0
 10
-22.926197
 20
4.670017
 30
0.0
 10
-22.986949
 20
7.183996
 30
0.0
 10
-23.027012
 20
9.948391
 30
0.0
 10
-23.045478
 20
12.915591
 30
0.0
 10
-23.041434
 20
16.037965
 30
0.0
 10
-23.013971
 20
19.267880
 30
0.0
 10
-23.000489
 20
20.383891
 30
0.0
 10
-22.987007
 20
21.499905
 30
0.0
 10
-22.973526
 20
22.615916
 30
0.0
 10
-22.960044
 20
23.731930
 30
0.0
 10
-22.946562
 20
24.847941
 30
0.0
 10
-22.933080
 20
25.963955
 30
0.0
 10
-22.919599
 20
27.079966
 30
0.0
 10
-22.906117
 20
28.195980
 30
0.0
 10
-22.832078
 20
28.195980
 30
0.0
 10
-22.758039
 20
28.195980
 30
0.0
 10
-22.684000
 20
28.195980
 30
0.0
 10
-22.609961
 20
28.195980
 30
0.0
 10
-22.535923
 20
28.195980
 30
0.0
 10
-22.461884
 20
28.195980
 30
0.0
 10
-22.387845
 20
28.195980
 30
0.0
 10
-22.313806
 20
28.195980
 30
0.0
 10
-22.239767
 20
28.195980
 30
0.0
 10
-22.165729
 20
28.195980
 30
0.0
 10
-22.091690
 20
28.195980
 30
0.0
 10
-22.017652
 20
28.195980
 30
0.0
 10
-21.943613
 20
28.195980
 30
0.0
 10
-21.869575
 20
28.195980
 30
0.0
 10
-21.795536
 20
28.195980
 30
0.0
 10
-21.721497
 20
28.195980
 30
0.0
 10
-21.740720
 20
26.943760
 30
0.0
 10
-21.759942
 20
25.691540
 30
0.0
 10
-21.779164
 20
24.439320
 30
0.0
 10
-21.798386
 20
23.187100
 30
0.0
 10
-21.817608
 20
21.934880
 30
0.0
 10
-21.836830
 20
20.682660
 30
0.0
 10
-21.856053
 20
19.430440
 30
0.0
 10
-21.875275
 20
18.178220
 30
0.0
 10
-21.928914
 20
14.304830
 30
0.0
 10
-21.963536
 20
10.884240
 30
0.0
 10
-21.978971
 20
7.886334
 30
0.0
 10
-21.975051
 20
5.281085
 30
0.0
 10
-21.951604
 20
3.038349
 30
0.0
 10
-21.908461
 20
1.128072
 30
0.0
 10
-21.845453
 20
-0.479861
 30
0.0
 10
-21.762408
 20
-1.815534
 30
0.0
 10
-21.713732
 20
-2.891422
 30
0.0
 10
-21.677782
 20
-4.631322
 30
0.0
 10
-21.654668
 20
-6.946927
 30
0.0
 10
-21.644494
 20
-9.750071
 30
0.0
 10
-21.647370
 20
-12.952446
 30
0.0
 10
-21.663403
 20
-16.465859
 30
0.0
 10
-21.692701
 20
-20.202030
 30
0.0
 10
-21.735372
 20
-24.072708
 30
0.0
 10
-21.741795
 20
-24.580933
 30
0.0
 10
-21.748218
 20
-25.089131
 30
0.0
 10
-21.754642
 20
-25.597357
 30
0.0
 10
-21.761065
 20
-26.105554
 30
0.0
 10
-21.767488
 20
-26.613780
 30
0.0
 10
-21.773912
 20
-27.121978
 30
0.0
 10
-21.780335
 20
-27.630203
 30
0.0
 10
-21.786759
 20
-28.138401
 30
0.0
 10
-21.860184
 20
-28.138401
 30
0.0
 10
-21.933610
 20
-28.138401
 30
0.0
 10
-22.007035
 20
-28.138401
 30
0.0
 10
-22.080460
 20
-28.138401
 30
0.0
 10
-22.153886
 20
-28.138401
 30
0.0
 10
-22.227311
 20
-28.138401
 30
0.0
 10
-22.300736
 20
-28.138401
 30
0.0
 10
-22.374162
 20
-28.138401
 30
0.0
 10
-22.447587
 20
-28.138401
 30
0.0
 10
-22.521013
 20
-28.138401
 30
0.0
 10
-22.594438
 20
-28.138401
 30
0.0
 10
-22.667863
 20
-28.138401
 30
0.0
 10
-22.741289
 20
-28.138401
 30
0.0
 10
-22.814714
 20
-28.138401
 30
0.0
 10
-22.888140
 20
-28.138401
 30
0.0
 10
-22.961565
 20
-28.138401
 30
0.0
 10
-22.961353
 20
-28.028362
 30
0.0
 10
-22.961142
 20
-27.918352
 30
0.0
 10
-22.960930
 20
-27.808314
 30
0.0
 10
-22.960718
 20
-27.698275
 30
0.0
 10
-22.960507
 20
-27.588237
 30
0.0
 10
-22.960295
 20
-27.478227
 30
0.0
 10
-22.960083
 20
-27.368188
 30
0.0
 10
-22.959872
 20
-27.258150
 30
0.0
 10
-22.959862
 20
-27.258150
 30
0.0
 10
-22.959852
 20
-27.258150
 30
0.0
 10
-22.959842
 20
-27.258150
 30
0.0
 10
-22.959832
 20
-27.258150
 30
0.0
 10
-22.959822
 20
-27.258150
 30
0.0
 10
-22.959812
 20
-27.258150
 30
0.0
 10
-22.959803
 20
-27.258150
 30
0.0
 10
-22.959803
 20
-27.258150
 30
0.0
  0
LWPOLYLINE
  5
105
100
AcDbEntity
  8
Layer_1
 62
7
100
AcDbPolyline
 90
65
 70
1
 10
-20.249879
 20
-26.671410
 30
0.0
 10
-20.254906
 20
-26.430561
 30
0.0
 10
-20.269155
 20
-25.803238
 30
0.0
 10
-20.291631
 20
-24.932356
 30
0.0
 10
-20.321341
 20
-23.960750
 30
0.0
 10
-20.357287
 20
-22.936707
 30
0.0
 10
-20.398475
 20
-21.832936
 30
0.0
 10
-20.443909
 20
-20.678844
 30
0.0
 10
-20.492593
 20
-19.503812
 30
0.0
 10
-20.619887
 20
-16.451889
 30
0.0
 10
-20.718792
 20
-13.943442
 30
0.0
 10
-20.790125
 20
-11.944772
 30
0.0
 10
-20.834707
 20
-10.422155
 30
0.0
 10
-20.853359
 20
-9.341836
 30
0.0
 10
-20.846899
 20
-8.670119
 30
0.0
 10
-20.816146
 20
-8.373278
 30
0.0
 10
-20.761922
 20
-8.417559
 30
0.0
 10
-20.619999
 20
-9.179079
 30
0.0
 10
-20.450108
 20
-10.598205
 30
0.0
 10
-20.263452
 20
-12.531879
 30
0.0
 10
-20.071232
 20
-14.837014
 30
0.0
 10
-19.884647
 20
-17.370579
 30
0.0
 10
-19.714901
 20
-19.989432
 30
0.0
 10
-19.573193
 20
-22.550570
 30
0.0
 10
-19.470726
 20
-24.910908
 30
0.0
 10
-19.456299
 20
-25.314344
 30
0.0
 10
-19.441872
 20
-25.717781
 30
0.0
 10
-19.427445
 20
-26.121218
 30
0.0
 10
-19.413017
 20
-26.524654
 30
0.0
 10
-19.398590
 20
-26.928091
 30
0.0
 10
-19.384163
 20
-27.331528
 30
0.0
 10
-19.369736
 20
-27.734964
 30
0.0
 10
-19.355309
 20
-28.138401
 30
0.0
 10
-19.411195
 20
-28.138401
 30
0.0
 10
-19.467081
 20
-28.138401
 30
0.0
 10
-19.522968
 20
-28.138401
 30
0.0
 10
-19.578854
 20
-28.138401
 30
0.0
 10
-19.634740
 20
-28.138401
 30
0.0
 10
-19.690627
 20
-28.138401
 30
0.0
 10
-19.746513
 20
-28.138401
 30
0.0
 10
-19.802399
 20
-28.138401
 30
0.0
 10
-19.858286
 20
-28.138401
 30
0.0
 10
-19.914172
 20
-28.138401
 30
0.0
 10
-19.970059
 20
-28.138401
 30
0.0
 10
-20.025945
 20
-28.138401
 30
0.0
 10
-20.081832
 20
-28.138401
 30
0.0
 10
-20.137718
 20
-28.138401
 30
0.0
 10
-20.193604
 20
-28.138401
 30
0.0
 10
-20.249491
 20
-28.138401
 30
0.0
 10
-20.249526
 20
-27.955041
 30
0.0
 10
-20.249561
 20
-27.771653
 30
0.0
 10
-20.249597
 20
-27.588293
 30
0.0
 10
-20.249632
 20
-27.404905
 30
0.0
 10
-20.249667
 20
-27.221546
 30
0.0
 10
-20.249702
 20
-27.038158
 30
0.0
 10
-20.249738
 20
-26.854798
 30
0.0
 10
-20.249773
 20
-26.671410
 30
0.0
 10
-20.249787
 20
-26.671410
 30
0.0
 10
-20.249802
 20
-26.671410
 30
0.0
 10
-20.249816
 20
-26.671410
 30
0.0
 10
-20.249831
 20
-26.671410
 30
0.0
 10
-20.249845
 20
-26.671410
 30
0.0
 10
-20.249860
 20
-26.671410
 30
0.0
 10
-20.249874
 20
-26.671410
 30
0.0
 10
-20.249879
 20
-26.671410
 30
0.0
  0
LWPOLYLINE
  5
106
100
AcDbEntity
  8
Layer_1
 62
7
100
AcDbPolyline
 90
89
 70
1
 10
-18.726201
 20
-25.832928
 30
0.0
 10
-18.761055
 20
-24.521243
 30
0.0
 10
-18.859197
 20
-22.710026
 30
0.0
 10
-19.014167
 20
-20.476406
 30
0.0
 10
-19.219506
 20
-17.897516
 30
0.0
 10
-19.468754
 20
-15.050486
 30
0.0
 10
-19.755454
 20
-12.012421
 30
0.0
 10
-20.073145
 20
-8.860506
 30
0.0
 10
-20.415369
 20
-5.671819
 30
0.0
 10
-20.610020
 20
-3.797581
 30
0.0
 10
-20.771791
 20
-1.969656
 30
0.0
 10
-20.902744
 20
-0.143734
 30
0.0
 10
-21.004939
 20
1.724520
 30
0.0
 10
-21.080437
 20
3.679445
 30
0.0
 10
-21.131299
 20
5.765406
 30
0.0
 10
-21.159586
 20
8.026712
 30
0.0
 10
-21.167359
 20
10.507699
 30
0.0
 10
-21.162950
 20
12.695599
 30
0.0
 10
-21.150620
 20
14.503317
 30
0.0
 10
-21.126719
 20
16.028124
 30
0.0
 10
-21.087597
 20
17.367395
 30
0.0
 10
-21.029607
 20
18.618455
 30
0.0
 10
-20.949099
 20
19.878634
 30
0.0
 10
-20.842424
 20
21.245270
 30
0.0
 10
-20.705934
 20
22.815695
 30
0.0
 10
-20.614240
 20
23.842837
 30
0.0
 10
-20.528698
 20
24.806609
 30
0.0
 10
-20.451181
 20
25.685523
 30
0.0
 10
-20.383561
 20
26.458089
 30
0.0
 10
-20.327709
 20
27.102823
 30
0.0
 10
-20.285498
 20
27.598239
 30
0.0
 10
-20.258797
 20
27.922842
 30
0.0
 10
-20.249481
 20
28.055151
 30
0.0
 10
-20.242041
 20
28.083404
 30
0.0
 10
-20.220719
 20
28.109764
 30
0.0
 10
-20.187011
 20
28.133668
 30
0.0
 10
-20.142410
 20
28.154524
 30
0.0
 10
-20.088412
 20
28.171768
 30
0.0
 10
-20.026511
 20
28.184807
 30
0.0
 10
-19.958204
 20
28.193047
 30
0.0
 10
-19.884984
 20
28.195926
 30
0.0
 10
-19.767542
 20
28.191072
 30
0.0
 10
-19.680081
 20
28.164599
 30
0.0
 10
-19.619826
 20
28.098622
 30
0.0
 10
-19.583999
 20
27.975276
 30
0.0
 10
-19.569826
 20
27.776699
 30
0.0
 10
-19.574531
 20
27.485017
 30
0.0
 10
-19.595339
 20
27.082365
 30
0.0
 10
-19.629473
 20
26.550867
 30
0.0
 10
-19.658123
 20
26.171086
 30
0.0
 10
-19.697928
 20
25.721252
 30
0.0
 10
-19.747079
 20
25.218047
 30
0.0
 10
-19.803771
 20
24.678145
 30
0.0
 10
-19.866197
 20
24.118230
 30
0.0
 10
-19.932550
 20
23.554976
 30
0.0
 10
-20.001023
 20
23.005064
 30
0.0
 10
-20.069811
 20
22.485174
 30
0.0
 10
-20.426496
 20
19.340501
 30
0.0
 10
-20.653951
 20
16.007386
 30
0.0
 10
-20.750413
 20
12.415708
 30
0.0
 10
-20.714118
 20
8.495330
 30
0.0
 10
-20.543302
 20
4.176173
 30
0.0
 10
-20.236203
 20
-0.611924
 30
0.0
 10
-19.791057
 20
-5.939066
 30
0.0
 10
-19.206100
 20
-11.875385
 30
0.0
 10
-19.009025
 20
-13.793508
 30
0.0
 10
-18.849819
 20
-15.434997
 30
0.0
 10
-18.723822
 20
-16.868489
 30
0.0
 10
-18.626372
 20
-18.162619
 30
0.0
 10
-18.552807
 20
-19.386024
 30
0.0
 10
-18.498468
 20
-20.607312
 30
0.0
 10
-18.458692
 20
-21.895120
 30
0.0
 10
-18.428818
 20
-23.318085
 30
0.0
 10
-18.410158
 20
-24.528338
 30
0.0
 10
-18.400161
 20
-25.545270
 30
0.0
 10
-18.399032
 20
-26.378672
 30
0.0
 10
-18.407011
 20
-27.038479
 30
0.0
 10
-18.424303
 20
-27.534485
 30
0.0
 10
-18.451119
 20
-27.876595
 30
0.0
 10
-18.487678
 20
-28.074630
 30
0.0
 10
-18.534193
 20
-28.138440
 30
0.0
 10
-18.579884
 20
-28.104489
 30
0.0
 10
-18.619077
 20
-28.001450
 30
0.0
 10
-18.651923
 20
-27.827544
 30
0.0
 10
-18.678571
 20
-27.581023
 30
0.0
 10
-18.699170
 20
-27.260052
 30
0.0
 10
-18.713871
 20
-26.862937
 30
0.0
 10
-18.722826
 20
-26.387816
 30
0.0
 10
-18.726201
 20
-25.832928
 30
0.0
  0
LWPOLYLINE
  5
107
100
AcDbEntity
  8
Layer_1
 62
7
100
AcDbPolyline
 90
81
 70
1
 10
-17.878131
 20
-27.928710
 30
0.0
 10
-17.933290
 20
-25.108435
 30
0.0
 10
-18.049267
 20
-21.640121
 30
0.0
 10
-18.211704
 20
-17.796339
 30
0.0
 10
-18.406242
 20
-13.849659
 30
0.0
 10
-18.618525
 20
-10.072736
 30
0.0
 10
-18.834194
 20
-6.738082
 30
0.0
 10
-19.038891
 20
-4.118355
 30
0.0
 10
-19.218258
 20
-2.486094
 30
0.0
 10
-19.521917
 20
-0.297912
 30
0.0
 10
-19.769481
 20
1.949621
 30
0.0
 10
-19.958626
 20
4.204633
 30
0.0
 10
-20.087028
 20
6.415279
 30
0.0
 10
-20.152361
 20
8.529688
 30
0.0
 10
-20.152304
 20
10.496015
 30
0.0
 10
-20.084531
 20
12.262388
 30
0.0
 10
-19.946718
 20
13.776961
 30
0.0
 10
-19.899156
 20
14.196146
 30
0.0
 10
-19.841138
 20
14.779084
 30
0.0
 10
-19.774911
 20
15.499256
 30
0.0
 10
-19.702720
 20
16.330192
 30
0.0
 10
-19.626810
 20
17.245410
 30
0.0
 10
-19.549427
 20
18.218431
 30
0.0
 10
-19.472817
 20
19.222772
 30
0.0
 10
-19.399224
 20
20.231951
 30
0.0
 10
-19.222914
 20
22.675786
 30
0.0
 10
-19.077862
 20
24.585818
 30
0.0
 10
-18.957136
 20
26.021652
 30
0.0
 10
-18.853806
 20
27.042890
 30
0.0
 10
-18.760943
 20
27.709135
 30
0.0
 10
-18.671615
 20
28.079995
 30
0.0
 10
-18.578891
 20
28.215069
 30
0.0
 10
-18.475841
 20
28.173966
 30
0.0
 10
-18.466878
 20
28.074700
 30
0.0
 10
-18.471659
 20
27.820336
 30
0.0
 10
-18.489139
 20
27.428005
 30
0.0
 10
-18.518277
 20
26.914843
 30
0.0
 10
-18.558029
 20
26.297979
 30
0.0
 10
-18.607354
 20
25.594548
 30
0.0
 10
-18.665210
 20
24.821680
 30
0.0
 10
-18.730553
 20
23.996513
 30
0.0
 10
-19.091156
 20
19.367064
 30
0.0
 10
-19.354481
 20
15.459203
 30
0.0
 10
-19.521960
 20
12.123026
 30
0.0
 10
-19.595025
 20
9.208658
 30
0.0
 10
-19.575112
 20
6.566184
 30
0.0
 10
-19.463651
 20
4.045713
 30
0.0
 10
-19.262076
 20
1.497360
 30
0.0
 10
-18.971819
 20
-1.228794
 30
0.0
 10
-18.808566
 20
-2.814488
 30
0.0
 10
-18.638326
 20
-4.802772
 30
0.0
 10
-18.466993
 20
-7.099637
 30
0.0
 10
-18.300456
 20
-9.611076
 30
0.0
 10
-18.144608
 20
-12.243109
 30
0.0
 10
-18.005339
 20
-14.901784
 30
0.0
 10
-17.888543
 20
-17.493035
 30
0.0
 10
-17.800109
 20
-19.922912
 30
0.0
 10
-17.778683
 20
-20.598185
 30
0.0
 10
-17.754840
 20
-21.329028
 30
0.0
 10
-17.729381
 20
-22.092241
 30
0.0
 10
-17.703101
 20
-22.864571
 30
0.0
 10
-17.676795
 20
-23.622902
 30
0.0
 10
-17.651262
 20
-24.343951
 30
0.0
 10
-17.627301
 20
-25.004521
 30
0.0
 10
-17.605709
 20
-25.581468
 30
0.0
 10
-17.584539
 20
-26.204642
 30
0.0
 10
-17.572310
 20
-26.735248
 30
0.0
 10
-17.569118
 20
-27.176192
 30
0.0
 10
-17.575065
 20
-27.530381
 30
0.0
 10
-17.590248
 20
-27.800778
 30
0.0
 10
-17.614771
 20
-27.990291
 30
0.0
 10
-17.648727
 20
-28.101853
 30
0.0
 10
-17.692218
 20
-28.138401
 30
0.0
 10
-17.729249
 20
-28.134168
 30
0.0
 10
-17.763864
 20
-28.122032
 30
0.0
 10
-17.795302
 20
-28.102559
 30
0.0
 10
-17.822798
 20
-28.076876
 30
0.0
 10
-17.845591
 20
-28.045804
 30
0.0
 10
-17.862919
 20
-28.010187
 30
0.0
 10
-17.874019
 20
-27.970902
 30
0.0
 10
-17.878131
 20
-27.928710
 30
0.0
  0
LWPOLYLINE
  5
108
100
AcDbEntity
  8
Layer_1
 62
7
100
AcDbPolyline
 90
97
 70
1
 10
-17.090325
 20
-27.015156
 30
0.0
 10
-17.116238
 20
-26.800329
 30
0.0
 10
-17.146980
 20
-26.233598
 30
0.0
 10
-17.181407
 20
-25.431551
 30
0.0
 10
-17.218377
 20
-24.510745
 30
0.0
 10
-17.256747
 20
-23.514303
 30
0.0
 10
-17.295375
 20
-22.426534
 30
0.0
 10
-17.333119
 20
-21.275801
 30
0.0
 10
-17.368836
 20
-20.090552
 30
0.0
 10
-17.448072
 20
-17.601634
 30
0.0
 10
-17.543152
 20
-15.069480
 30
0.0
 10
-17.651789
 20
-12.538991
 30
0.0
 10
-17.771694
 20
-10.054927
 30
0.0
 10
-17.900582
 20
-7.662219
 30
0.0
 10
-18.036163
 20
-5.405627
 30
0.0
 10
-18.176150
 20
-3.330023
 30
0.0
 10
-18.318256
 20
-1.480254
 30
0.0
 10
-18.438514
 20
0.298113
 30
0.0
 10
-18.538272
 20
2.403124
 30
0.0
 10
-18.615225
 20
4.695812
 30
0.0
 10
-18.667067
 20
7.037241
 30
0.0
 10
-18.691494
 20
9.288527
 30
0.0
 10
-18.686194
 20
11.310762
 30
0.0
 10
-18.648865
 20
12.964952
 30
0.0
 10
-18.577201
 20
14.112241
 30
0.0
 10
-18.535840
 20
14.587391
 30
0.0
 10
-18.489574
 20
15.265500
 30
0.0
 10
-18.439965
 20
16.114944
 30
0.0
 10
-18.388575
 20
17.104082
 30
0.0
 10
-18.336965
 20
18.201274
 30
0.0
 10
-18.286696
 20
19.374887
 30
0.0
 10
-18.239329
 20
20.593277
 30
0.0
 10
-18.196427
 20
21.824813
 30
0.0
 10
-18.154145
 20
23.025550
 30
0.0
 10
-18.108556
 20
24.155672
 30
0.0
 10
-18.061097
 20
25.189732
 30
0.0
 10
-18.013206
 20
26.102277
 30
0.0
 10
-17.966319
 20
26.867862
 30
0.0
 10
-17.921874
 20
27.461034
 30
0.0
 10
-17.881308
 20
27.856342
 30
0.0
 10
-17.846057
 20
28.028340
 30
0.0
 10
-17.780316
 20
27.711720
 30
0.0
 10
-17.753237
 20
26.609724
 30
0.0
 10
-17.760487
 20
24.913270
 30
0.0
 10
-17.797733
 20
22.813265
 30
0.0
 10
-17.860644
 20
20.500629
 30
0.0
 10
-17.944888
 20
18.166273
 30
0.0
 10
-18.046133
 20
16.001112
 30
0.0
 10
-18.160047
 20
14.196061
 30
0.0
 10
-18.250539
 20
12.684423
 30
0.0
 10
-18.310352
 20
10.972942
 30
0.0
 10
-18.339921
 20
9.118517
 30
0.0
 10
-18.339681
 20
7.178041
 30
0.0
 10
-18.310064
 20
5.208412
 30
0.0
 10
-18.251508
 20
3.266526
 30
0.0
 10
-18.164444
 20
1.409250
 30
0.0
 10
-18.049309
 20
-0.306492
 30
0.0
 10
-17.921337
 20
-2.047549
 30
0.0
 10
-17.795711
 20
-4.005607
 30
0.0
 10
-17.674267
 20
-6.142283
 30
0.0
 10
-17.558842
 20
-8.419224
 30
0.0
 10
-17.451274
 20
-10.798075
 30
0.0
 10
-17.353400
 20
-13.240454
 30
0.0
 10
-17.267057
 20
-15.708008
 30
0.0
 10
-17.194082
 20
-18.162410
 30
0.0
 10
-17.154737
 20
-19.540416
 30
0.0
 10
-17.112219
 20
-20.885516
 30
0.0
 10
-17.067873
 20
-22.163982
 30
0.0
 10
-17.023046
 20
-23.342147
 30
0.0
 10
-16.979084
 20
-24.386313
 30
0.0
 10
-16.937333
 20
-25.262782
 30
0.0
 10
-16.899140
 20
-25.937886
 30
0.0
 10
-16.865849
 20
-26.377899
 30
0.0
 10
-16.838900
 20
-26.683771
 30
0.0
 10
-16.818885
 20
-26.974432
 30
0.0
 10
-16.805871
 20
-27.243107
 30
0.0
 10
-16.799933
 20
-27.483081
 30
0.0
 10
-16.801147
 20
-27.687579
 30
0.0
 10
-16.809577
 20
-27.849913
 30
0.0
 10
-16.825297
 20
-27.963282
 30
0.0
 10
-16.848380
 20
-28.020996
 30
0.0
 10
-16.876797
 20
-28.024665
 30
0.0
 10
-16.907710
 20
-27.983122
 30
0.0
 10
-16.940133
 20
-27.900488
 30
0.0
 10
-16.973079
 20
-27.780882
 30
0.0
 10
-17.005559
 20
-27.584342
 30
0.0
 10
-17.036587
 20
-27.329637
 30
0.0
 10
-17.065175
 20
-27.109136
 30
0.0
 10
-17.090338
 20
-27.015128
 30
0.0
 10
-17.090337
 20
-27.015128
 30
0.0
 10
-17.090336
 20
-27.015128
 30
0.0
 10
-17.090334
 20
-27.015128
 30
0.0
 10
-17.090333
 20
-27.015128
 30
0.0
 10
-17.090331
 20
-27.015128
 30
0.0
 10
-17.090330
 20
-27.015128
 30
0.0
 10
-17.090328
 20
-27.015128
 30
0.0
 10
-17.090325
 20
-27.015156
 30
0.0
  0
LWPOLYLINE
  5
109
100
AcDbEntity
  8
Layer_1
 62
7
100
AcDbPolyline
 90
89
 70
1
 10
-16.154549
 20
-26.084670
 30
0.0
 10
-16.201336
 20
-25.509501
 30
0.0
 10
-16.258313
 20
-24.658742
 30
0.0
 10
-16.323279
 20
-23.573400
 30
0.0
 10
-16.394035
 20
-22.294623
 30
0.0
 10
-16.468381
 20
-20.863474
 30
0.0
 10
-16.544116
 20
-19.321045
 30
0.0
 10
-16.619041
 20
-17.708399
 30
0.0
 10
-16.690955
 20
-16.066628
 30
0.0
 10
-16.762346
 20
-14.405270
 30
0.0
 10
-16.835780
 20
-12.736321
 30
0.0
 10
-16.909161
 20
-11.104766
 30
0.0
 10
-16.980392
 20
-9.555676
 30
0.0
 10
-17.047378
 20
-8.134123
 30
0.0
 10
-17.108022
 20
-6.885092
 30
0.0
 10
-17.160229
 20
-5.853626
 30
0.0
 10
-17.201901
 20
-5.084796
 30
0.0
 10
-17.360857
 20
-2.040183
 30
0.0
 10
-17.479683
 20
0.865408
 30
0.0
 10
-17.558547
 20
3.655513
 30
0.0
 10
-17.597619
 20
6.353755
 30
0.0
 10
-17.597054
 20
8.983614
 30
0.0
 10
-17.557044
 20
11.568714
 30
0.0
 10
-17.477745
 20
14.132590
 30
0.0
 10
-17.359325
 20
16.698811
 30
0.0
 10
-17.326990
 20
17.387283
 30
0.0
 10
-17.296825
 20
18.193403
 30
0.0
 10
-17.269489
 20
19.087805
 30
0.0
 10
-17.245641
 20
20.041135
 30
0.0
 10
-17.225945
 20
21.024030
 30
0.0
 10
-17.211057
 20
22.007134
 30
0.0
 10
-17.201640
 20
22.961088
 30
0.0
 10
-17.198355
 20
23.856531
 30
0.0
 10
-17.195403
 20
24.779527
 30
0.0
 10
-17.186721
 20
25.603831
 30
0.0
 10
-17.172571
 20
26.322922
 30
0.0
 10
-17.153210
 20
26.930284
 30
0.0
 10
-17.128897
 20
27.419406
 30
0.0
 10
-17.099893
 20
27.783769
 30
0.0
 10
-17.066457
 20
28.016859
 30
0.0
 10
-17.028849
 20
28.112160
 30
0.0
 10
-16.942981
 20
27.773146
 30
0.0
 10
-16.887550
 20
26.731862
 30
0.0
 10
-16.861450
 20
25.138189
 30
0.0
 10
-16.863567
 20
23.142003
 30
0.0
 10
-16.892817
 20
20.893189
 30
0.0
 10
-16.948084
 20
18.541620
 30
0.0
 10
-17.028262
 20
16.237177
 30
0.0
 10
-17.132248
 20
14.129739
 30
0.0
 10
-17.234194
 20
12.174588
 30
0.0
 10
-17.298704
 20
10.288751
 30
0.0
 10
-17.323548
 20
8.340797
 30
0.0
 10
-17.306493
 20
6.199351
 30
0.0
 10
-17.245309
 20
3.733039
 30
0.0
 10
-17.137763
 20
0.810459
 30
0.0
 10
-16.981626
 20
-2.699793
 30
0.0
 10
-16.774664
 20
-6.929119
 30
0.0
 10
-16.684753
 20
-8.717476
 30
0.0
 10
-16.590877
 20
-10.587622
 30
0.0
 10
-16.495803
 20
-12.484212
 30
0.0
 10
-16.402301
 20
-14.351845
 30
0.0
 10
-16.313142
 20
-16.135208
 30
0.0
 10
-16.231095
 20
-17.778898
 30
0.0
 10
-16.158929
 20
-19.227545
 30
0.0
 10
-16.099414
 20
-20.425832
 30
0.0
 10
-16.046290
 20
-21.479622
 30
0.0
 10
-15.992451
 20
-22.513994
 30
0.0
 10
-15.939382
 20
-23.502619
 30
0.0
 10
-15.888566
 20
-24.419192
 30
0.0
 10
-15.841487
 20
-25.237439
 30
0.0
 10
-15.799629
 20
-25.931056
 30
0.0
 10
-15.764475
 20
-26.473685
 30
0.0
 10
-15.737508
 20
-26.839050
 30
0.0
 10
-15.716658
 20
-27.123614
 30
0.0
 10
-15.703935
 20
-27.378179
 30
0.0
 10
-15.699236
 20
-27.600288
 30
0.0
 10
-15.702459
 20
-27.787486
 30
0.0
 10
-15.713497
 20
-27.937346
 30
0.0
 10
-15.732248
 20
-28.047412
 30
0.0
 10
-15.758607
 20
-28.115259
 30
0.0
 10
-15.792471
 20
-28.138401
 30
0.0
 10
-15.829363
 20
-28.096491
 30
0.0
 10
-15.871616
 20
-27.976349
 30
0.0
 10
-15.917746
 20
-27.786385
 30
0.0
 10
-15.966265
 20
-27.535094
 30
0.0
 10
-16.015689
 20
-27.230831
 30
0.0
 10
-16.064531
 20
-26.882060
 30
0.0
 10
-16.111305
 20
-26.497194
 30
0.0
 10
-16.154549
 20
-26.084670
 30
0.0
  0
LWPOLYLINE
  5
10a
100
AcDbEntity
  8
Layer_1
 62
7
100
AcDbPolyline
 90
89
 70
1
 10
-14.825740
 20
-27.844890
 30
0.0
 10
-14.844700
 20
-27.383598
 30
0.0
 10
-14.896609
 20
-26.170917
 30
0.0
 10
-14.975921
 20
-24.463529
 30
0.0
 10
-15.077084
 20
-22.518171
 30
0.0
 10
-15.194551
 20
-20.460602
 30
0.0
 10
-15.322771
 20
-18.311790
 30
0.0
 10
-15.456197
 20
-16.171332
 30
0.0
 10
-15.589278
 20
-14.138768
 30
0.0
 10
-15.677198
 20
-12.798466
 30
0.0
 10
-15.766885
 20
-11.366188
 30
0.0
 10
-15.855830
 20
-9.886271
 30
0.0
 10
-15.941521
 20
-8.403052
 30
0.0
 10
-16.021448
 20
-6.960925
 30
0.0
 10
-16.093101
 20
-5.604255
 30
0.0
 10
-16.153968
 20
-4.377350
 30
0.0
 10
-16.201539
 20
-3.324576
 30
0.0
 10
-16.278026
 20
-0.774783
 30
0.0
 10
-16.333569
 20
2.571751
 30
0.0
 10
-16.368008
 20
6.445788
 30
0.0
 10
-16.381182
 20
10.578001
 30
0.0
 10
-16.372929
 20
14.699122
 30
0.0
 10
-16.343093
 20
18.539865
 30
0.0
 10
-16.291510
 20
21.830920
 30
0.0
 10
-16.218020
 20
24.303006
 30
0.0
 10
-16.166815
 20
25.433501
 30
0.0
 10
-16.118625
 20
26.344814
 30
0.0
 10
-16.071509
 20
27.054303
 30
0.0
 10
-16.023526
 20
27.579324
 30
0.0
 10
-15.972733
 20
27.937236
 30
0.0
 10
-15.917188
 20
28.145391
 30
0.0
 10
-15.854951
 20
28.221151
 30
0.0
 10
-15.784078
 20
28.181869
 30
0.0
 10
-15.775583
 20
28.111384
 30
0.0
 10
-15.773833
 20
27.936488
 30
0.0
 10
-15.778422
 20
27.668811
 30
0.0
 10
-15.788952
 20
27.319987
 30
0.0
 10
-15.805016
 20
26.901644
 30
0.0
 10
-15.826214
 20
26.425416
 30
0.0
 10
-15.852145
 20
25.902930
 30
0.0
 10
-15.882403
 20
25.345817
 30
0.0
 10
-15.940244
 20
23.047208
 30
0.0
 10
-15.967589
 20
19.136875
 30
0.0
 10
-15.967787
 20
14.159231
 30
0.0
 10
-15.944194
 20
8.658720
 30
0.0
 10
-15.900162
 20
3.179743
 30
0.0
 10
-15.839045
 20
-1.733295
 30
0.0
 10
-15.764196
 20
-5.535929
 30
0.0
 10
-15.678969
 20
-7.683781
 30
0.0
 10
-15.636472
 20
-8.206880
 30
0.0
 10
-15.583586
 20
-8.827176
 30
0.0
 10
-15.522415
 20
-9.521640
 30
0.0
 10
-15.455063
 20
-10.267243
 30
0.0
 10
-15.383635
 20
-11.040927
 30
0.0
 10
-15.310235
 20
-11.819691
 30
0.0
 10
-15.236968
 20
-12.580478
 30
0.0
 10
-15.165937
 20
-13.300285
 30
0.0
 10
-15.007532
 20
-14.930655
 30
0.0
 10
-14.871712
 20
-16.437693
 30
0.0
 10
-14.756286
 20
-17.854505
 30
0.0
 10
-14.659063
 20
-19.214196
 30
0.0
 10
-14.577853
 20
-20.549784
 30
0.0
 10
-14.510465
 20
-21.894460
 30
0.0
 10
-14.454708
 20
-23.281244
 30
0.0
 10
-14.408393
 20
-24.743268
 30
0.0
 10
-14.382364
 20
-25.738411
 30
0.0
 10
-14.367203
 20
-26.521663
 30
0.0
 10
-14.364067
 20
-27.117406
 30
0.0
 10
-14.374115
 20
-27.550080
 30
0.0
 10
-14.398501
 20
-27.844100
 30
0.0
 10
-14.438386
 20
-28.023875
 30
0.0
 10
-14.494925
 20
-28.113848
 30
0.0
 10
-14.569275
 20
-28.138401
 30
0.0
 10
-14.620710
 20
-28.132474
 30
0.0
 10
-14.668714
 20
-28.115259
 30
0.0
 10
-14.712233
 20
-28.088165
 30
0.0
 10
-14.750216
 20
-28.052238
 30
0.0
 10
-14.781610
 20
-27.997403
 30
0.0
 10
-14.805365
 20
-27.928653
 30
0.0
 10
-14.820427
 20
-27.869866
 30
0.0
 10
-14.825747
 20
-27.845031
 30
0.0
 10
-14.825746
 20
-27.845031
 30
0.0
 10
-14.825745
 20
-27.845031
 30
0.0
 10
-14.825744
 20
-27.845031
 30
0.0
 10
-14.825743
 20
-27.845031
 30
0.0
 10
-14.825742
 20
-27.845031
 30
0.0
 10
-14.825741
 20
-27.845031
 30
0.0
 10
-14.825740
 20
-27.845031
 30
0.0
 10
-14.825740
 20
-27.844890
 30
0.0
  0
LWPOLYLINE
  5
10b
100
AcDbEntity
  8
Layer_1
 62
7
100
AcDbPolyline
 90
89
 70
1
 10
-13.289059
 20
-26.480063
 30
0.0
 10
-13.333308
 20
-26.094999
 30
0.0
 10
-13.368858
 20
-25.697546
 30
0.0
 10
-13.395497
 20
-25.294278
 30
0.0
 10
-13.413014
 20
-24.891716
 30
0.0
 10
-13.421199
 20
-24.496464
 30
0.0
 10
-13.419844
 20
-24.115097
 30
0.0
 10
-13.408727
 20
-23.754135
 30
0.0
 10
-13.387643
 20
-23.420210
 30
0.0
 10
-13.351807
 20
-22.661371
 30
0.0
 10
-13.355180
 20
-21.749257
 30
0.0
 10
-13.396893
 20
-20.694874
 30
0.0
 10
-13.476079
 20
-19.509344
 30
0.0
 10
-13.591871
 20
-18.203699
 30
0.0
 10
-13.743401
 20
-16.789032
 30
0.0
 10
-13.929803
 20
-15.276349
 30
0.0
 10
-14.150207
 20
-13.676770
 30
0.0
 10
-14.254759
 20
-12.937517
 30
0.0
 10
-14.358943
 20
-12.170183
 30
0.0
 10
-14.460004
 20
-11.397092
 30
0.0
 10
-14.555187
 20
-10.640623
 30
0.0
 10
-14.641739
 20
-9.923101
 30
0.0
 10
-14.716902
 20
-9.266850
 30
0.0
 10
-14.777924
 20
-8.694249
 30
0.0
 10
-14.822049
 20
-8.227623
 30
0.0
 10
-14.963547
 20
-5.697021
 30
0.0
 10
-15.078312
 20
-1.947106
 30
0.0
 10
-15.163780
 20
2.658732
 30
0.0
 10
-15.217388
 20
7.757020
 30
0.0
 10
-15.236570
 20
12.984397
 30
0.0
 10
-15.218765
 20
17.977402
 30
0.0
 10
-15.161408
 20
22.372640
 30
0.0
 10
-15.061936
 20
25.806686
 30
0.0
 10
-15.028378
 20
26.554987
 30
0.0
 10
-14.997131
 20
27.128703
 30
0.0
 10
-14.963912
 20
27.550893
 30
0.0
 10
-14.924441
 20
27.844613
 30
0.0
 10
-14.874436
 20
28.032923
 30
0.0
 10
-14.809616
 20
28.138883
 30
0.0
 10
-14.725699
 20
28.185549
 30
0.0
 10
-14.618404
 20
28.195991
 30
0.0
 10
-14.512857
 20
28.190657
 30
0.0
 10
-14.433404
 20
28.167628
 30
0.0
 10
-14.377809
 20
28.116289
 30
0.0
 10
-14.343834
 20
28.026054
 30
0.0
 10
-14.329243
 20
27.886325
 30
0.0
 10
-14.331811
 20
27.686518
 30
0.0
 10
-14.349275
 20
27.416030
 30
0.0
 10
-14.379414
 20
27.064274
 30
0.0
 10
-14.457461
 20
25.461492
 30
0.0
 10
-14.520704
 20
22.747372
 30
0.0
 10
-14.567627
 20
19.239401
 30
0.0
 10
-14.596712
 20
15.255072
 30
0.0
 10
-14.606443
 20
11.111886
 30
0.0
 10
-14.595307
 20
7.127303
 30
0.0
 10
-14.561783
 20
3.618830
 30
0.0
 10
-14.504357
 20
0.903965
 30
0.0
 10
-14.442423
 20
-0.958504
 30
0.0
 10
-14.381550
 20
-2.502881
 30
0.0
 10
-14.314703
 20
-3.819758
 30
0.0
 10
-14.234843
 20
-4.999701
 30
0.0
 10
-14.134933
 20
-6.133303
 30
0.0
 10
-14.007935
 20
-7.311101
 30
0.0
 10
-13.846813
 20
-8.623716
 30
0.0
 10
-13.644527
 20
-10.161686
 30
0.0
 10
-13.506838
 20
-11.207150
 30
0.0
 10
-13.371487
 20
-12.268447
 30
0.0
 10
-13.241928
 20
-13.316225
 30
0.0
 10
-13.121619
 20
-14.321106
 30
0.0
 10
-13.014015
 20
-15.253709
 30
0.0
 10
-12.922573
 20
-16.084684
 30
0.0
 10
-12.850747
 20
-16.784652
 30
0.0
 10
-12.801995
 20
-17.324204
 30
0.0
 10
-12.729617
 20
-18.609529
 30
0.0
 10
-12.683609
 20
-20.219748
 30
0.0
 10
-12.662713
 20
-22.001925
 30
0.0
 10
-12.665674
 20
-23.803067
 30
0.0
 10
-12.691234
 20
-25.470266
 30
0.0
 10
-12.738136
 20
-26.850502
 30
0.0
 10
-12.805122
 20
-27.790867
 30
0.0
 10
-12.890935
 20
-28.138395
 30
0.0
 10
-12.933475
 20
-28.106307
 30
0.0
 10
-12.980635
 20
-28.013512
 30
0.0
 10
-13.031139
 20
-27.865345
 30
0.0
 10
-13.083707
 20
-27.667084
 30
0.0
 10
-13.137063
 20
-27.424119
 30
0.0
 10
-13.189928
 20
-27.141727
 30
0.0
 10
-13.241025
 20
-26.825272
 30
0.0
 10
-13.289059
 20
-26.480063
 30
0.0
  0
LWPOLYLINE
  5
10c
100
AcDbEntity
  8
Layer_1
 62
7
100
AcDbPolyline
 90
41
 70
1
 10
-11.495754
 20
-27.107725
 30
0.0
 10
-11.547827
 20
-26.497984
 30
0.0
 10
-11.581908
 20
-25.838064
 30
0.0
 10
-11.598246
 20
-25.145773
 30
0.0
 10
-11.597089
 20
-24.438863
 30
0.0
 10
-11.578676
 20
-23.735170
 30
0.0
 10
-11.543262
 20
-23.052502
 30
0.0
 10
-11.491091
 20
-22.408641
 30
0.0
 10
-11.422412
 20
-21.821421
 30
0.0
 10
-11.309893
 20
-21.093259
 30
0.0
 10
-11.210915
 20
-20.622428
 30
0.0
 10
-11.125928
 20
-20.407742
 30
0.0
 10
-11.055383
 20
-20.447986
 30
0.0
 10
-10.999730
 20
-20.741977
 30
0.0
 10
-10.959420
 20
-21.288501
 30
0.0
 10
-10.934904
 20
-22.086343
 30
0.0
 10
-10.926632
 20
-23.134319
 30
0.0
 10
-10.924402
 20
-23.746515
 30
0.0
 10
-10.918033
 20
-24.358288
 30
0.0
 10
-10.907960
 20
-24.953382
 30
0.0
 10
-10.894633
 20
-25.515456
 30
0.0
 10
-10.878502
 20
-26.028254
 30
0.0
 10
-10.860008
 20
-26.475406
 30
0.0
 10
-10.839600
 20
-26.840687
 30
0.0
 10
-10.817725
 20
-27.107725
 30
0.0
 10
-10.785759
 20
-27.426128
 30
0.0
 10
-10.766944
 20
-27.671549
 30
0.0
 10
-10.763382
 20
-27.853413
 30
0.0
 10
-10.777169
 20
-27.981090
 30
0.0
 10
-10.810408
 20
-28.064035
 30
0.0
 10
-10.865199
 20
-28.111618
 30
0.0
 10
-10.943642
 20
-28.133349
 30
0.0
 10
-11.047837
 20
-28.138429
 30
0.0
 10
-11.146642
 20
-28.130245
 30
0.0
 10
-11.227227
 20
-28.101458
 30
0.0
 10
-11.292587
 20
-28.045042
 30
0.0
 10
-11.345713
 20
-27.954138
 30
0.0
 10
-11.389600
 20
-27.821832
 30
0.0
 10
-11.427240
 20
-27.641238
 30
0.0
 10
-11.461626
 20
-27.405470
 30
0.0
 10
-11.495754
 20
-27.107725
 30
0.0
  0
LWPOLYLINE
  5
10d
100
AcDbEntity
  8
Layer_1
 62
7
100
AcDbPolyline
 90
105
 70
1
 10
-9.930827
 20
-25.916748
 30
0.0
 10
-10.035371
 20
-24.543567
 30
0.0
 10
-10.102457
 20
-22.810920
 30
0.0
 10
-10.132585
 20
-20.768478
 30
0.0
 10
-10.126252
 20
-18.465940
 30
0.0
 10
-10.083960
 20
-15.953005
 30
0.0
 10
-10.006214
 20
-13.279373
 30
0.0
 10
-9.893514
 20
-10.494742
 30
0.0
 10
-9.746363
 20
-7.648785
 30
0.0
 10
-9.643623
 20
-5.753607
 30
0.0
 10
-9.560722
 20
-3.945268
 30
0.0
 10
-9.495337
 20
-2.112771
 30
0.0
 10
-9.445145
 20
-0.145146
 30
0.0
 10
-9.407822
 20
2.068662
 30
0.0
 10
-9.381045
 20
4.639565
 30
0.0
 10
-9.362491
 20
7.678619
 30
0.0
 10
-9.349839
 20
11.296792
 30
0.0
 10
-9.345883
 20
13.876558
 30
0.0
 10
-9.347548
 20
16.367984
 30
0.0
 10
-9.354428
 20
18.710528
 30
0.0
 10
-9.366098
 20
20.843597
 30
0.0
 10
-9.382137
 20
22.706605
 30
0.0
 10
-9.402127
 20
24.238967
 30
0.0
 10
-9.425644
 20
25.380107
 30
0.0
 10
-9.452272
 20
26.069435
 30
0.0
 10
-9.469267
 20
26.338077
 30
0.0
 10
-9.486263
 20
26.606716
 30
0.0
 10
-9.503258
 20
26.875358
 30
0.0
 10
-9.520254
 20
27.143996
 30
0.0
 10
-9.537249
 20
27.412638
 30
0.0
 10
-9.554244
 20
27.681277
 30
0.0
 10
-9.571240
 20
27.949919
 30
0.0
 10
-9.588235
 20
28.218557
 30
0.0
 10
-9.518268
 20
28.211897
 30
0.0
 10
-9.448302
 20
28.205237
 30
0.0
 10
-9.378335
 20
28.198576
 30
0.0
 10
-9.308368
 20
28.191916
 30
0.0
 10
-9.238401
 20
28.185255
 30
0.0
 10
-9.168435
 20
28.178595
 30
0.0
 10
-9.098468
 20
28.171934
 30
0.0
 10
-9.028501
 20
28.165274
 30
0.0
 10
-8.958535
 20
28.158642
 30
0.0
 10
-8.888569
 20
28.152009
 30
0.0
 10
-8.818603
 20
28.145377
 30
0.0
 10
-8.748637
 20
28.138745
 30
0.0
 10
-8.678671
 20
28.132113
 30
0.0
 10
-8.608705
 20
28.125481
 30
0.0
 10
-8.538739
 20
28.118848
 30
0.0
 10
-8.468773
 20
28.112216
 30
0.0
 10
-8.472574
 20
26.214164
 30
0.0
 10
-8.476376
 20
24.316116
 30
0.0
 10
-8.480177
 20
22.418064
 30
0.0
 10
-8.483979
 20
20.520015
 30
0.0
 10
-8.487780
 20
18.621963
 30
0.0
 10
-8.491582
 20
16.723912
 30
0.0
 10
-8.495383
 20
14.825863
 30
0.0
 10
-8.499185
 20
12.927811
 30
0.0
 10
-8.508972
 20
9.812755
 30
0.0
 10
-8.525206
 20
6.781434
 30
0.0
 10
-8.547024
 20
3.909174
 30
0.0
 10
-8.573565
 20
1.271215
 30
0.0
 10
-8.603962
 20
-1.057090
 30
0.0
 10
-8.637354
 20
-3.000501
 30
0.0
 10
-8.672879
 20
-4.483663
 30
0.0
 10
-8.709672
 20
-5.431309
 30
0.0
 10
-8.860291
 20
-8.537447
 30
0.0
 10
-8.963687
 20
-11.666134
 30
0.0
 10
-9.020161
 20
-14.752178
 30
0.0
 10
-9.030014
 20
-17.730271
 30
0.0
 10
-8.993545
 20
-20.535165
 30
0.0
 10
-8.911056
 20
-23.101609
 30
0.0
 10
-8.782847
 20
-25.364354
 30
0.0
 10
-8.609217
 20
-27.258093
 30
0.0
 10
-8.596421
 20
-27.368132
 30
0.0
 10
-8.583625
 20
-27.478142
 30
0.0
 10
-8.570830
 20
-27.588180
 30
0.0
 10
-8.558034
 20
-27.698219
 30
0.0
 10
-8.545238
 20
-27.808257
 30
0.0
 10
-8.532442
 20
-27.918268
 30
0.0
 10
-8.519646
 20
-28.028306
 30
0.0
 10
-8.506850
 20
-28.138344
 30
0.0
 10
-8.581283
 20
-28.138344
 30
0.0
 10
-8.655717
 20
-28.138344
 30
0.0
 10
-8.730151
 20
-28.138344
 30
0.0
 10
-8.804584
 20
-28.138344
 30
0.0
 10
-8.879018
 20
-28.138344
 30
0.0
 10
-8.953452
 20
-28.138344
 30
0.0
 10
-9.027885
 20
-28.138344
 30
0.0
 10
-9.102319
 20
-28.138344
 30
0.0
 10
-9.176752
 20
-28.138344
 30
0.0
 10
-9.251186
 20
-28.138344
 30
0.0
 10
-9.325620
 20
-28.138344
 30
0.0
 10
-9.400053
 20
-28.138344
 30
0.0
 10
-9.474487
 20
-28.138344
 30
0.0
 10
-9.548921
 20
-28.138344
 30
0.0
 10
-9.623354
 20
-28.138344
 30
0.0
 10
-9.697788
 20
-28.138344
 30
0.0
 10
-9.726916
 20
-27.860638
 30
0.0
 10
-9.756044
 20
-27.582931
 30
0.0
 10
-9.785172
 20
-27.305224
 30
0.0
 10
-9.814301
 20
-27.027518
 30
0.0
 10
-9.843429
 20
-26.749811
 30
0.0
 10
-9.872557
 20
-26.472104
 30
0.0
 10
-9.901685
 20
-26.194398
 30
0.0
 10
-9.930827
 20
-25.916748
 30
0.0
  0
LWPOLYLINE
  5
10e
100
AcDbEntity
  8
Layer_1
 62
7
100
AcDbPolyline
 90
73
 70
1
 10
-7.137422
 20
-20.216423
 30
0.0
 10
-7.111189
 20
-18.568556
 30
0.0
 10
-7.080415
 20
-16.922128
 30
0.0
 10
-7.046221
 20
-15.320912
 30
0.0
 10
-7.009733
 20
-13.808822
 30
0.0
 10
-6.972074
 20
-12.429630
 30
0.0
 10
-6.934369
 20
-11.227166
 30
0.0
 10
-6.897743
 20
-10.245286
 30
0.0
 10
-6.863319
 20
-9.527821
 30
0.0
 10
-6.831165
 20
-8.816423
 30
0.0
 10
-6.801033
 20
-7.851760
 30
0.0
 10
-6.773592
 20
-6.676473
 30
0.0
 10
-6.749513
 20
-5.333180
 30
0.0
 10
-6.729464
 20
-3.864552
 30
0.0
 10
-6.714117
 20
-2.313233
 30
0.0
 10
-6.704140
 20
-0.721838
 30
0.0
 10
-6.700203
 20
0.866988
 30
0.0
 10
-6.682762
 20
4.971684
 30
0.0
 10
-6.637784
 20
9.443044
 30
0.0
 10
-6.571220
 20
13.999352
 30
0.0
 10
-6.489020
 20
18.358946
 30
0.0
 10
-6.397136
 20
22.240100
 30
0.0
 10
-6.301518
 20
25.361122
 30
0.0
 10
-6.208116
 20
27.440316
 30
0.0
 10
-6.122881
 20
28.195980
 30
0.0
 10
-6.087910
 20
28.123059
 30
0.0
 10
-6.061129
 20
27.907422
 30
0.0
 10
-6.042590
 20
27.553741
 30
0.0
 10
-6.032346
 20
27.066704
 30
0.0
 10
-6.030455
 20
26.450983
 30
0.0
 10
-6.036951
 20
25.711264
 30
0.0
 10
-6.051898
 20
24.852225
 30
0.0
 10
-6.075342
 20
23.878544
 30
0.0
 10
-6.100372
 20
22.768381
 30
0.0
 10
-6.126983
 20
21.263005
 30
0.0
 10
-6.154356
 20
19.428950
 30
0.0
 10
-6.181678
 20
17.332750
 30
0.0
 10
-6.208133
 20
15.040947
 30
0.0
 10
-6.232904
 20
12.620076
 30
0.0
 10
-6.255177
 20
10.136662
 30
0.0
 10
-6.274134
 20
7.657255
 30
0.0
 10
-6.296240
 20
5.076135
 30
0.0
 10
-6.327537
 20
2.301016
 30
0.0
 10
-6.366577
 20
-0.581066
 30
0.0
 10
-6.411911
 20
-3.483185
 30
0.0
 10
-6.462090
 20
-6.318305
 30
0.0
 10
-6.515668
 20
-8.999444
 30
0.0
 10
-6.571195
 20
-11.439566
 30
0.0
 10
-6.627222
 20
-13.551745
 30
0.0
 10
-6.681808
 20
-15.474864
 30
0.0
 10
-6.733204
 20
-17.373147
 30
0.0
 10
-6.780249
 20
-19.197601
 30
0.0
 10
-6.821788
 20
-20.899260
 30
0.0
 10
-6.856659
 20
-22.429102
 30
0.0
 10
-6.883704
 20
-23.738105
 30
0.0
 10
-6.901766
 20
-24.777275
 30
0.0
 10
-6.909685
 20
-25.497648
 30
0.0
 10
-6.915273
 20
-26.068611
 30
0.0
 10
-6.926376
 20
-26.582482
 30
0.0
 10
-6.942598
 20
-27.033444
 30
0.0
 10
-6.963545
 20
-27.415545
 30
0.0
 10
-6.988823
 20
-27.722998
 30
0.0
 10
-7.018038
 20
-27.949848
 30
0.0
 10
-7.050797
 20
-28.090282
 30
0.0
 10
-7.086706
 20
-28.138401
 30
0.0
 10
-7.122452
 20
-28.007393
 30
0.0
 10
-7.149875
 20
-27.618491
 30
0.0
 10
-7.168936
 20
-26.977903
 30
0.0
 10
-7.179596
 20
-26.091838
 30
0.0
 10
-7.181825
 20
-24.966449
 30
0.0
 10
-7.175563
 20
-23.607944
 30
0.0
 10
-7.160780
 20
-22.022561
 30
0.0
 10
-7.137422
 20
-20.216423
 30
0.0
  0
LWPOLYLINE
  5
10f
100
AcDbEntity
  8
Layer_1
 62
7
100
AcDbPolyline
 90
73
 70
1
 10
-6.396925
 20
-26.671410
 30
0.0
 10
-6.409139
 20
-26.203909
 30
0.0
 10
-6.407361
 20
-25.433668
 30
0.0
 10
-6.392550
 20
-24.401496
 30
0.0
 10
-6.365699
 20
-23.148119
 30
0.0
 10
-6.327789
 20
-21.714261
 30
0.0
 10
-6.279803
 20
-20.140703
 30
0.0
 10
-6.222723
 20
-18.468198
 30
0.0
 10
-6.157530
 20
-16.737470
 30
0.0
 10
-6.081459
 20
-14.638160
 30
0.0
 10
-6.011334
 20
-12.354389
 30
0.0
 10
-5.947695
 20
-9.912998
 30
0.0
 10
-5.891083
 20
-7.340909
 30
0.0
 10
-5.842039
 20
-4.664963
 30
0.0
 10
-5.801103
 20
-1.911998
 30
0.0
 10
-5.768817
 20
0.891090
 30
0.0
 10
-5.745720
 20
3.717432
 30
0.0
 10
-5.702769
 20
9.691738
 30
0.0
 10
-5.656832
 20
14.775266
 30
0.0
 10
-5.607368
 20
18.997023
 30
0.0
 10
-5.553832
 20
22.386082
 30
0.0
 10
-5.495683
 20
24.971469
 30
0.0
 10
-5.432378
 20
26.782221
 30
0.0
 10
-5.363375
 20
27.847379
 30
0.0
 10
-5.288130
 20
28.195980
 30
0.0
 10
-5.248484
 20
28.129714
 30
0.0
 10
-5.218716
 20
27.929486
 30
0.0
 10
-5.198805
 20
27.593150
 30
0.0
 10
-5.188733
 20
27.118563
 30
0.0
 10
-5.188477
 20
26.503569
 30
0.0
 10
-5.198019
 20
25.746031
 30
0.0
 10
-5.217337
 20
24.843798
 30
0.0
 10
-5.246410
 20
23.794724
 30
0.0
 10
-5.273627
 20
22.636874
 30
0.0
 10
-5.299981
 20
21.027499
 30
0.0
 10
-5.324828
 20
19.039664
 30
0.0
 10
-5.347521
 20
16.746436
 30
0.0
 10
-5.367415
 20
14.220869
 30
0.0
 10
-5.383866
 20
11.536060
 30
0.0
 10
-5.396224
 20
8.765005
 30
0.0
 10
-5.403847
 20
5.980855
 30
0.0
 10
-5.414318
 20
2.203169
 30
0.0
 10
-5.432261
 20
-1.071427
 30
0.0
 10
-5.459705
 20
-3.954496
 30
0.0
 10
-5.498674
 20
-6.557601
 30
0.0
 10
-5.551197
 20
-8.992361
 30
0.0
 10
-5.619299
 20
-11.370309
 30
0.0
 10
-5.705007
 20
-13.803064
 30
0.0
 10
-5.810347
 20
-16.402190
 30
0.0
 10
-5.884831
 20
-18.232232
 30
0.0
 10
-5.949950
 20
-19.994060
 30
0.0
 10
-6.004589
 20
-21.645258
 30
0.0
 10
-6.047637
 20
-23.143350
 30
0.0
 10
-6.077979
 20
-24.445862
 30
0.0
 10
-6.094503
 20
-25.510319
 30
0.0
 10
-6.096084
 20
-26.294248
 30
0.0
 10
-6.081628
 20
-26.755230
 30
0.0
 10
-6.059889
 20
-27.062598
 30
0.0
 10
-6.046483
 20
-27.335676
 30
0.0
 10
-6.041330
 20
-27.572376
 30
0.0
 10
-6.044347
 20
-27.770665
 30
0.0
 10
-6.055455
 20
-27.928456
 30
0.0
 10
-6.074573
 20
-28.043715
 30
0.0
 10
-6.101618
 20
-28.114384
 30
0.0
 10
-6.136512
 20
-28.138373
 30
0.0
 10
-6.171724
 20
-28.108429
 30
0.0
 10
-6.208312
 20
-28.022633
 30
0.0
 10
-6.245208
 20
-27.886969
 30
0.0
 10
-6.281345
 20
-27.707448
 30
0.0
 10
-6.315654
 20
-27.490136
 30
0.0
 10
-6.347066
 20
-27.240991
 30
0.0
 10
-6.374515
 20
-26.966078
 30
0.0
 10
-6.396925
 20
-26.671410
 30
0.0
  0
LWPOLYLINE
  5
110
100
AcDbEntity
  8
Layer_1
 62
7
100
AcDbPolyline
 90
73
 70
1
 10
-5.555843
 20
-27.006690
 30
0.0
 10
-5.594168
 20
-26.184351
 30
0.0
 10
-5.575835
 20
-24.026282
 30
0.0
 10
-5.507306
 20
-20.995836
 30
0.0
 10
-5.395046
 20
-17.556479
 30
0.0
 10
-5.245519
 20
-13.927806
 30
0.0
 10
-5.065187
 20
-10.134514
 30
0.0
 10
-4.860515
 20
-6.347459
 30
0.0
 10
-4.637967
 20
-2.737554
 30
0.0
 10
-4.596513
 20
-1.970164
 30
0.0
 10
-4.567642
 20
-1.098210
 30
0.0
 10
-4.551394
 20
-0.103969
 30
0.0
 10
-4.547810
 20
1.030254
 30
0.0
 10
-4.556932
 20
2.322239
 30
0.0
 10
-4.578801
 20
3.789681
 30
0.0
 10
-4.613456
 20
5.450362
 30
0.0
 10
-4.660939
 20
7.321975
 30
0.0
 10
-4.723389
 20
10.399862
 30
0.0
 10
-4.757198
 20
13.788222
 30
0.0
 10
-4.764384
 20
17.264855
 30
0.0
 10
-4.746959
 20
20.607589
 30
0.0
 10
-4.706945
 20
23.594245
 30
0.0
 10
-4.646355
 20
26.002645
 30
0.0
 10
-4.567208
 20
27.610617
 30
0.0
 10
-4.471520
 20
28.195980
 30
0.0
 10
-4.443416
 20
28.037715
 30
0.0
 10
-4.418631
 20
27.584122
 30
0.0
 10
-4.397608
 20
26.867004
 30
0.0
 10
-4.380785
 20
25.918164
 30
0.0
 10
-4.368602
 20
24.769404
 30
0.0
 10
-4.361495
 20
23.452530
 30
0.0
 10
-4.359915
 20
21.999342
 30
0.0
 10
-4.364286
 20
20.441642
 30
0.0
 10
-4.368528
 20
18.753902
 30
0.0
 10
-4.366581
 20
16.928018
 30
0.0
 10
-4.358885
 20
15.021925
 30
0.0
 10
-4.345919
 20
13.093560
 30
0.0
 10
-4.328148
 20
11.200865
 30
0.0
 10
-4.306039
 20
9.401755
 30
0.0
 10
-4.280057
 20
7.754226
 30
0.0
 10
-4.250670
 20
6.316135
 30
0.0
 10
-4.211060
 20
4.491145
 30
0.0
 10
-4.185824
 20
2.932036
 30
0.0
 10
-4.175670
 20
1.579458
 30
0.0
 10
-4.181308
 20
0.374059
 30
0.0
 10
-4.203446
 20
-0.743513
 30
0.0
 10
-4.242794
 20
-1.832609
 30
0.0
 10
-4.300061
 20
-2.952579
 30
0.0
 10
-4.375957
 20
-4.162776
 30
0.0
 10
-4.574897
 20
-7.335829
 30
0.0
 10
-4.763040
 20
-10.715920
 30
0.0
 10
-4.933817
 20
-14.144214
 30
0.0
 10
-5.080660
 20
-17.461793
 30
0.0
 10
-5.197001
 20
-20.509821
 30
0.0
 10
-5.276271
 20
-23.129436
 30
0.0
 10
-5.311902
 20
-25.161747
 30
0.0
 10
-5.297325
 20
-26.447890
 30
0.0
 10
-5.275639
 20
-27.087067
 30
0.0
 10
-5.277079
 20
-27.580250
 30
0.0
 10
-5.297805
 20
-27.919114
 30
0.0
 10
-5.333960
 20
-28.095306
 30
0.0
 10
-5.381694
 20
-27.976998
 30
0.0
 10
-5.437156
 20
-27.597042
 30
0.0
 10
-5.496495
 20
-27.194057
 30
0.0
 10
-5.555861
 20
-27.006690
 30
0.0
 10
-5.555860
 20
-27.006690
 30
0.0
 10
-5.555859
 20
-27.006690
 30
0.0
 10
-5.555858
 20
-27.006690
 30
0.0
 10
-5.555857
 20
-27.006690
 30
0.0
 10
-5.555855
 20
-27.006690
 30
0.0
 10
-5.555855
 20
-27.006690
 30
0.0
 10
-5.555853
 20
-27.006690
 30
0.0
 10
-5.555843
 20
-27.006690
 30
0.0
  0
LWPOLYLINE
  5
111
100
AcDbEntity
  8
Layer_1
 62
7
100
AcDbPolyline
 90
137
 70
1
 10
-4.727826
 20
-26.210259
 30
0.0
 10
-4.757176
 20
-25.704658
 30
0.0
 10
-4.776268
 20
-25.153647
 30
0.0
 10
-4.785150
 20
-24.562391
 30
0.0
 10
-4.783880
 20
-23.935943
 30
0.0
 10
-4.772498
 20
-23.279409
 30
0.0
 10
-4.751058
 20
-22.597955
 30
0.0
 10
-4.719612
 20
-21.896605
 30
0.0
 10
-4.678209
 20
-21.180494
 30
0.0
 10
-4.637229
 20
-20.502342
 30
0.0
 10
-4.595069
 20
-19.730775
 30
0.0
 10
-4.552930
 20
-18.892632
 30
0.0
 10
-4.512016
 20
-18.014695
 30
0.0
 10
-4.473530
 20
-17.123832
 30
0.0
 10
-4.438676
 20
-16.246826
 30
0.0
 10
-4.408655
 20
-15.410489
 30
0.0
 10
-4.384672
 20
-14.641688
 30
0.0
 10
-4.355998
 20
-13.857392
 30
0.0
 10
-4.312531
 20
-12.976859
 30
0.0
 10
-4.256420
 20
-12.030031
 30
0.0
 10
-4.189811
 20
-11.046826
 30
0.0
 10
-4.114850
 20
-10.057100
 30
0.0
 10
-4.033683
 20
-9.090828
 30
0.0
 10
-3.948459
 20
-8.177896
 30
0.0
 10
-3.861322
 20
-7.348219
 30
0.0
 10
-3.669493
 20
-5.469183
 30
0.0
 10
-3.520825
 20
-3.628389
 30
0.0
 10
-3.415127
 20
-1.817679
 30
0.0
 10
-3.352210
 20
-0.028898
 30
0.0
 10
-3.331882
 20
1.746167
 30
0.0
 10
-3.353954
 20
3.515644
 30
0.0
 10
-3.418234
 20
5.287689
 30
0.0
 10
-3.524532
 20
7.070515
 30
0.0
 10
-3.677428
 20
9.257201
 30
0.0
 10
-3.792072
 20
11.037656
 30
0.0
 10
-3.872053
 20
12.556322
 30
0.0
 10
-3.920965
 20
13.957696
 30
0.0
 10
-3.942397
 20
15.386252
 30
0.0
 10
-3.939942
 20
16.986477
 30
0.0
 10
-3.917192
 20
18.902848
 30
0.0
 10
-3.877736
 20
21.279842
 30
0.0
 10
-3.862561
 20
22.144359
 30
0.0
 10
-3.847386
 20
23.008876
 30
0.0
 10
-3.832211
 20
23.873394
 30
0.0
 10
-3.817036
 20
24.737911
 30
0.0
 10
-3.801860
 20
25.602428
 30
0.0
 10
-3.786685
 20
26.466945
 30
0.0
 10
-3.771510
 20
27.331462
 30
0.0
 10
-3.756335
 20
28.195980
 30
0.0
 10
-3.682071
 20
28.195980
 30
0.0
 10
-3.607807
 20
28.195980
 30
0.0
 10
-3.533543
 20
28.195980
 30
0.0
 10
-3.459279
 20
28.195980
 30
0.0
 10
-3.385015
 20
28.195980
 30
0.0
 10
-3.310751
 20
28.195980
 30
0.0
 10
-3.236487
 20
28.195980
 30
0.0
 10
-3.162223
 20
28.195980
 30
0.0
 10
-3.087959
 20
28.195980
 30
0.0
 10
-3.013695
 20
28.195980
 30
0.0
 10
-2.939430
 20
28.195980
 30
0.0
 10
-2.865166
 20
28.195980
 30
0.0
 10
-2.790902
 20
28.195980
 30
0.0
 10
-2.716637
 20
28.195980
 30
0.0
 10
-2.642373
 20
28.195980
 30
0.0
 10
-2.568109
 20
28.195980
 30
0.0
 10
-2.582126
 20
27.886839
 30
0.0
 10
-2.596143
 20
27.577701
 30
0.0
 10
-2.610159
 20
27.268561
 30
0.0
 10
-2.624176
 20
26.959423
 30
0.0
 10
-2.638193
 20
26.650282
 30
0.0
 10
-2.652210
 20
26.341145
 30
0.0
 10
-2.666227
 20
26.032004
 30
0.0
 10
-2.680244
 20
25.722866
 30
0.0
 10
-2.707995
 20
25.185072
 30
0.0
 10
-2.743991
 20
24.603971
 30
0.0
 10
-2.786721
 20
23.997958
 30
0.0
 10
-2.834672
 20
23.385431
 30
0.0
 10
-2.886336
 20
22.784783
 30
0.0
 10
-2.940200
 20
22.214412
 30
0.0
 10
-2.994756
 20
21.692710
 30
0.0
 10
-3.048493
 20
21.238073
 30
0.0
 10
-3.213560
 20
19.823304
 30
0.0
 10
-3.331289
 20
18.520053
 30
0.0
 10
-3.401657
 20
17.292033
 30
0.0
 10
-3.424644
 20
16.102969
 30
0.0
 10
-3.400226
 20
14.916575
 30
0.0
 10
-3.328380
 20
13.696584
 30
0.0
 10
-3.209083
 20
12.406688
 30
0.0
 10
-3.042315
 20
11.010619
 30
0.0
 10
-2.919227
 20
10.024958
 30
0.0
 10
-2.816074
 20
9.099382
 30
0.0
 10
-2.730741
 20
8.203101
 30
0.0
 10
-2.661113
 20
7.305352
 30
0.0
 10
-2.605076
 20
6.375401
 30
0.0
 10
-2.560514
 20
5.382487
 30
0.0
 10
-2.525314
 20
4.295847
 30
0.0
 10
-2.497361
 20
3.084690
 30
0.0
 10
-2.472327
 20
1.499476
 30
0.0
 10
-2.468504
 20
0.145854
 30
0.0
 10
-2.491550
 20
-1.065331
 30
0.0
 10
-2.547125
 20
-2.223148
 30
0.0
 10
-2.640889
 20
-3.416694
 30
0.0
 10
-2.778501
 20
-4.735095
 30
0.0
 10
-2.965622
 20
-6.267449
 30
0.0
 10
-3.207909
 20
-8.102881
 30
0.0
 10
-3.294156
 20
-8.790628
 30
0.0
 10
-3.377188
 20
-9.544528
 30
0.0
 10
-3.455328
 20
-10.344064
 30
0.0
 10
-3.526898
 20
-11.168661
 30
0.0
 10
-3.590223
 20
-11.997745
 30
0.0
 10
-3.643625
 20
-12.810771
 30
0.0
 10
-3.685429
 20
-13.587164
 30
0.0
 10
-3.713956
 20
-14.306408
 30
0.0
 10
-3.748778
 20
-15.329576
 30
0.0
 10
-3.790410
 20
-16.335162
 30
0.0
 10
-3.843623
 20
-17.401369
 30
0.0
 10
-3.913185
 20
-18.606374
 30
0.0
 10
-4.003865
 20
-20.028350
 30
0.0
 10
-4.120430
 20
-21.745475
 30
0.0
 10
-4.267649
 20
-23.835923
 30
0.0
 10
-4.450288
 20
-26.377899
 30
0.0
 10
-4.466954
 20
-26.608446
 30
0.0
 10
-4.483616
 20
-26.838993
 30
0.0
 10
-4.500278
 20
-27.069512
 30
0.0
 10
-4.516944
 20
-27.300060
 30
0.0
 10
-4.533609
 20
-27.530607
 30
0.0
 10
-4.550271
 20
-27.761154
 30
0.0
 10
-4.566936
 20
-27.991674
 30
0.0
 10
-4.583602
 20
-28.222221
 30
0.0
 10
-4.601630
 20
-27.970733
 30
0.0
 10
-4.619658
 20
-27.719244
 30
0.0
 10
-4.637687
 20
-27.467728
 30
0.0
 10
-4.655715
 20
-27.216240
 30
0.0
 10
-4.673743
 20
-26.964752
 30
0.0
 10
-4.691772
 20
-26.713263
 30
0.0
 10
-4.709800
 20
-26.461747
 30
0.0
 10
-4.727826
 20
-26.210259
 30
0.0
  0
LWPOLYLINE
  5
112
100
AcDbEntity
  8
Layer_1
 62
7
100
AcDbPolyline
 90
209
 70
1
 10
-3.744927
 20
-26.671410
 30
0.0
 10
-3.713526
 20
-26.337343
 30
0.0
 10
-3.667483
 20
-25.949626
 30
0.0
 10
-3.609005
 20
-25.522173
 30
0.0
 10
-3.540297
 20
-25.068896
 30
0.0
 10
-3.463566
 20
-24.603737
 30
0.0
 10
-3.381015
 20
-24.140610
 30
0.0
 10
-3.294851
 20
-23.693486
 30
0.0
 10
-3.207277
 20
-23.276276
 30
0.0
 10
-3.056635
 20
-22.537165
 30
0.0
 10
-2.925585
 20
-21.758090
 30
0.0
 10
-2.809472
 20
-20.889213
 30
0.0
 10
-2.703641
 20
-19.880720
 30
0.0
 10
-2.603436
 20
-18.682799
 30
0.0
 10
-2.504202
 20
-17.245611
 30
0.0
 10
-2.401284
 20
-15.519314
 30
0.0
 10
-2.290027
 20
-13.454096
 30
0.0
 10
-2.246477
 20
-12.716396
 30
0.0
 10
-2.189602
 20
-11.909635
 30
0.0
 10
-2.121810
 20
-11.060005
 30
0.0
 10
-2.045507
 20
-10.193583
 30
0.0
 10
-1.963098
 20
-9.336531
 30
0.0
 10
-1.876991
 20
-8.514982
 30
0.0
 10
-1.789591
 20
-7.755070
 30
0.0
 10
-1.703306
 20
-7.082930
 30
0.0
 10
-1.399507
 20
-4.757024
 30
0.0
 10
-1.181915
 20
-2.765184
 30
0.0
 10
-1.050319
 20
-0.992659
 30
0.0
 10
-1.004512
 20
0.675359
 30
0.0
 10
-1.044284
 20
2.353650
 30
0.0
 10
-1.169424
 20
4.156965
 30
0.0
 10
-1.379725
 20
6.200113
 30
0.0
 10
-1.674977
 20
8.597901
 30
0.0
 10
-1.990413
 20
11.114562
 30
0.0
 10
-2.215509
 20
13.159967
 30
0.0
 10
-2.350164
 20
14.849392
 30
0.0
 10
-2.394281
 20
16.298160
 30
0.0
 10
-2.347762
 20
17.621553
 30
0.0
 10
-2.210509
 20
18.934869
 30
0.0
 10
-1.982423
 20
20.353405
 30
0.0
 10
-1.663405
 20
21.992453
 30
0.0
 10
-1.541304
 20
22.615216
 30
0.0
 10
-1.423671
 20
23.260698
 30
0.0
 10
-1.313349
 20
23.910162
 30
0.0
 10
-1.213177
 20
24.544871
 30
0.0
 10
-1.125996
 20
25.146083
 30
0.0
 10
-1.054646
 20
25.695059
 30
0.0
 10
-1.001969
 20
26.173062
 30
0.0
 10
-0.970804
 20
26.561349
 30
0.0
 10
-0.939528
 20
27.076596
 30
0.0
 10
-0.909682
 20
27.470652
 30
0.0
 10
-0.876599
 20
27.759692
 30
0.0
 10
-0.835608
 20
27.959901
 30
0.0
 10
-0.782041
 20
28.087454
 30
0.0
 10
-0.711228
 20
28.158532
 30
0.0
 10
-0.618501
 20
28.189314
 30
0.0
 10
-0.499191
 20
28.195974
 30
0.0
 10
-0.378101
 20
28.187141
 30
0.0
 10
-0.282415
 20
28.143602
 30
0.0
 10
-0.205817
 20
28.039812
 30
0.0
 10
-0.141996
 20
27.850218
 30
0.0
 10
-0.084636
 20
27.549276
 30
0.0
 10
-0.027424
 20
27.111436
 30
0.0
 10
0.035953
 20
26.511147
 30
0.0
 10
0.111809
 20
25.722864
 30
0.0
 10
0.162790
 20
25.085693
 30
0.0
 10
0.208484
 20
24.316065
 30
0.0
 10
0.248426
 20
23.429768
 30
0.0
 10
0.282150
 20
22.442595
 30
0.0
 10
0.309191
 20
21.370331
 30
0.0
 10
0.329082
 20
20.228765
 30
0.0
 10
0.341358
 20
19.033686
 30
0.0
 10
0.345554
 20
17.800886
 30
0.0
 10
0.342156
 20
16.248641
 30
0.0
 10
0.330605
 20
14.924556
 30
0.0
 10
0.308868
 20
13.780599
 30
0.0
 10
0.274910
 20
12.768804
 30
0.0
 10
0.226698
 20
11.841083
 30
0.0
 10
0.162197
 20
10.949459
 30
0.0
 10
0.079375
 20
10.045953
 30
0.0
 10
-0.023805
 20
9.082474
 30
0.0
 10
-0.168618
 20
7.478125
 30
0.0
 10
-0.297982
 20
5.460575
 30
0.0
 10
-0.406147
 20
3.223061
 30
0.0
 10
-0.487364
 20
0.958905
 30
0.0
 10
-0.535882
 20
-1.138571
 30
0.0
 10
-0.545950
 20
-2.876072
 30
0.0
 10
-0.511820
 20
-4.060361
 30
0.0
 10
-0.427741
 20
-4.498059
 30
0.0
 10
-0.332840
 20
-4.424230
 30
0.0
 10
-0.239593
 20
-4.204492
 30
0.0
 10
-0.148407
 20
-3.841497
 30
0.0
 10
-0.059688
 20
-3.337957
 30
0.0
 10
0.026159
 20
-2.696494
 30
0.0
 10
0.108727
 20
-1.919762
 30
0.0
 10
0.187610
 20
-1.010442
 30
0.0
 10
0.262402
 20
0.028785
 30
0.0
 10
0.386239
 20
1.858121
 30
0.0
 10
0.511529
 20
3.607702
 30
0.0
 10
0.636910
 20
5.261185
 30
0.0
 10
0.761020
 20
6.802203
 30
0.0
 10
0.882495
 20
8.214302
 30
0.0
 10
0.999973
 20
9.481169
 30
0.0
 10
1.112091
 20
10.586352
 30
0.0
 10
1.217488
 20
11.513536
 30
0.0
 10
1.343856
 20
13.000735
 30
0.0
 10
1.416646
 20
14.863373
 30
0.0
 10
1.438304
 20
16.989421
 30
0.0
 10
1.411276
 20
19.266886
 30
0.0
 10
1.338009
 20
21.583778
 30
0.0
 10
1.220947
 20
23.828094
 30
0.0
 10
1.062536
 20
25.887837
 30
0.0
 10
0.865223
 20
27.651006
 30
0.0
 10
0.849950
 20
27.786159
 30
0.0
 10
0.844265
 20
27.900343
 30
0.0
 10
0.848437
 20
27.994465
 30
0.0
 10
0.862735
 20
28.069434
 30
0.0
 10
0.887427
 20
28.126161
 30
0.0
 10
0.922782
 20
28.165553
 30
0.0
 10
0.969070
 20
28.188526
 30
0.0
 10
1.026558
 20
28.195977
 30
0.0
 10
1.125492
 20
28.175262
 30
0.0
 10
1.208300
 20
28.088261
 30
0.0
 10
1.281248
 20
27.897730
 30
0.0
 10
1.350600
 20
27.566415
 30
0.0
 10
1.422621
 20
27.057061
 30
0.0
 10
1.503578
 20
26.332416
 30
0.0
 10
1.599736
 20
25.355227
 30
0.0
 10
1.717359
 20
24.088238
 30
0.0
 10
1.855946
 20
22.308517
 30
0.0
 10
1.949424
 20
20.482121
 30
0.0
 10
1.997711
 20
18.600712
 30
0.0
 10
2.000726
 20
16.655950
 30
0.0
 10
1.958385
 20
14.639492
 30
0.0
 10
1.870606
 20
12.543032
 30
0.0
 10
1.737306
 20
10.358181
 30
0.0
 10
1.558403
 20
8.076640
 30
0.0
 10
1.462947
 20
6.971203
 30
0.0
 10
1.366738
 20
5.853914
 30
0.0
 10
1.272393
 20
4.755449
 30
0.0
 10
1.182528
 20
3.706316
 30
0.0
 10
1.099761
 20
2.737193
 30
0.0
 10
1.026709
 20
1.878616
 30
0.0
 10
0.965988
 20
1.161179
 30
0.0
 10
0.920214
 20
0.615531
 30
0.0
 10
0.866782
 20
0.068245
 30
0.0
 10
0.784093
 20
-0.654046
 30
0.0
 10
0.676306
 20
-1.520383
 30
0.0
 10
0.547581
 20
-2.499779
 30
0.0
 10
0.402077
 20
-3.561302
 30
0.0
 10
0.243951
 20
-4.674019
 30
0.0
 10
0.077363
 20
-5.806944
 30
0.0
 10
-0.093528
 20
-6.929116
 30
0.0
 10
-0.313586
 20
-8.377509
 30
0.0
 10
-0.502757
 20
-9.691789
 30
0.0
 10
-0.664563
 20
-10.902777
 30
0.0
 10
-0.802523
 20
-12.041261
 30
0.0
 10
-0.920161
 20
-13.138033
 30
0.0
 10
-1.020998
 20
-14.223883
 30
0.0
 10
-1.108555
 20
-15.329601
 30
0.0
 10
-1.186354
 20
-16.486007
 30
0.0
 10
-1.262341
 20
-17.648424
 30
0.0
 10
-1.336895
 20
-18.650143
 30
0.0
 10
-1.413515
 20
-19.520686
 30
0.0
 10
-1.495698
 20
-20.289657
 30
0.0
 10
-1.586942
 20
-20.986605
 30
0.0
 10
-1.690746
 20
-21.641106
 30
0.0
 10
-1.810607
 20
-22.282710
 30
0.0
 10
-1.950023
 20
-22.940994
 30
0.0
 10
-2.054980
 20
-23.425597
 30
0.0
 10
-2.160422
 20
-23.935601
 30
0.0
 10
-2.263504
 20
-24.455624
 30
0.0
 10
-2.361380
 20
-24.970454
 30
0.0
 10
-2.451202
 20
-25.464738
 30
0.0
 10
-2.530127
 20
-25.923179
 30
0.0
 10
-2.595307
 20
-26.330511
 30
0.0
 10
-2.643897
 20
-26.671407
 30
0.0
 10
-2.667743
 20
-26.854795
 30
0.0
 10
-2.691588
 20
-27.038155
 30
0.0
 10
-2.715434
 20
-27.221543
 30
0.0
 10
-2.739279
 20
-27.404903
 30
0.0
 10
-2.763125
 20
-27.588291
 30
0.0
 10
-2.786970
 20
-27.771650
 30
0.0
 10
-2.810816
 20
-27.955038
 30
0.0
 10
-2.834661
 20
-28.138398
 30
0.0
 10
-2.898627
 20
-28.138398
 30
0.0
 10
-2.962593
 20
-28.138398
 30
0.0
 10
-3.026558
 20
-28.138398
 30
0.0
 10
-3.090524
 20
-28.138398
 30
0.0
 10
-3.154490
 20
-28.138398
 30
0.0
 10
-3.218455
 20
-28.138398
 30
0.0
 10
-3.282421
 20
-28.138398
 30
0.0
 10
-3.346387
 20
-28.138398
 30
0.0
 10
-3.410352
 20
-28.138398
 30
0.0
 10
-3.474318
 20
-28.138398
 30
0.0
 10
-3.538284
 20
-28.138398
 30
0.0
 10
-3.602249
 20
-28.138398
 30
0.0
 10
-3.666215
 20
-28.138398
 30
0.0
 10
-3.730181
 20
-28.138398
 30
0.0
 10
-3.794146
 20
-28.138398
 30
0.0
 10
-3.858112
 20
-28.138398
 30
0.0
 10
-3.843964
 20
-27.955038
 30
0.0
 10
-3.829817
 20
-27.771650
 30
0.0
 10
-3.815669
 20
-27.588291
 30
0.0
 10
-3.801521
 20
-27.404903
 30
0.0
 10
-3.787373
 20
-27.221543
 30
0.0
 10
-3.773225
 20
-27.038155
 30
0.0
 10
-3.759078
 20
-26.854795
 30
0.0
 10
-3.744927
 20
-26.671410
 30
0.0
  0
LWPOLYLINE
  5
113
100
AcDbEntity
  8
Layer_1
 62
7
100
AcDbPolyline
 90
41
 70
1
 10
-0.273580
 20
14.032372
 30
0.0
 10
-0.214284
 20
15.977519
 30
0.0
 10
-0.195766
 20
17.626385
 30
0.0
 10
-0.218138
 20
18.980216
 30
0.0
 10
-0.281518
 20
20.040251
 30
0.0
 10
-0.386019
 20
20.807738
 30
0.0
 10
-0.531757
 20
21.283917
 30
0.0
 10
-0.718847
 20
21.470034
 30
0.0
 10
-0.947405
 20
21.367331
 30
0.0
 10
-1.102638
 20
21.150499
 30
0.0
 10
-1.241688
 20
20.823889
 30
0.0
 10
-1.364353
 20
20.388725
 30
0.0
 10
-1.470427
 20
19.846229
 30
0.0
 10
-1.559706
 20
19.197623
 30
0.0
 10
-1.631986
 20
18.444135
 30
0.0
 10
-1.687063
 20
17.586990
 30
0.0
 10
-1.724733
 20
16.627409
 30
0.0
 10
-1.744851
 20
15.812464
 30
0.0
 10
-1.752925
 20
15.130333
 30
0.0
 10
-1.747032
 20
14.550448
 30
0.0
 10
-1.725247
 20
14.042250
 30
0.0
 10
-1.685646
 20
13.575172
 30
0.0
 10
-1.626305
 20
13.118622
 30
0.0
 10
-1.545299
 20
12.642089
 30
0.0
 10
-1.440704
 20
12.114955
 30
0.0
 10
-1.301456
 20
11.470585
 30
0.0
 10
-1.174793
 20
10.939584
 30
0.0
 10
-1.058868
 20
10.517097
 30
0.0
 10
-0.951834
 20
10.198355
 30
0.0
 10
-0.851843
 20
9.978561
 30
0.0
 10
-0.757050
 20
9.852887
 30
0.0
 10
-0.665607
 20
9.816565
 30
0.0
 10
-0.575667
 20
9.864797
 30
0.0
 10
-0.542613
 20
9.976472
 30
0.0
 10
-0.505729
 20
10.239249
 30
0.0
 10
-0.466257
 20
10.636054
 30
0.0
 10
-0.425441
 20
11.149783
 30
0.0
 10
-0.384523
 20
11.763390
 30
0.0
 10
-0.344745
 20
12.459746
 30
0.0
 10
-0.307349
 20
13.221774
 30
0.0
 10
-0.273580
 20
14.032372
 30
0.0
  0
LWPOLYLINE
  5
114
100
AcDbEntity
  8
Layer_1
 62
7
100
AcDbPolyline
 90
41
 70
1
 10
-0.925606
 20
-27.425790
 30
0.0
 10
-0.921780
 20
-27.244998
 30
0.0
 10
-0.910866
 20
-27.003557
 30
0.0
 10
-0.893628
 20
-26.712022
 30
0.0
 10
-0.870830
 20
-26.380806
 30
0.0
 10
-0.843237
 20
-26.020380
 30
0.0
 10
-0.811613
 20
-25.641270
 30
0.0
 10
-0.776721
 20
-25.253949
 30
0.0
 10
-0.739325
 20
-24.868856
 30
0.0
 10
-0.699384
 20
-24.436802
 30
0.0
 10
-0.657174
 20
-23.914691
 30
0.0
 10
-0.613976
 20
-23.322420
 30
0.0
 10
-0.571066
 20
-22.679941
 30
0.0
 10
-0.529723
 20
-22.007208
 30
0.0
 10
-0.491226
 20
-21.324117
 30
0.0
 10
-0.456853
 20
-20.650650
 30
0.0
 10
-0.427882
 20
-20.006732
 30
0.0
 10
-0.388508
 20
-19.085418
 30
0.0
 10
-0.357880
 20
-18.469185
 30
0.0
 10
-0.334523
 20
-18.182786
 30
0.0
 10
-0.316962
 20
-18.250943
 30
0.0
 10
-0.303720
 20
-18.698406
 30
0.0
 10
-0.293321
 20
-19.549842
 30
0.0
 10
-0.284290
 20
-20.830031
 30
0.0
 10
-0.275151
 20
-22.563665
 30
0.0
 10
-0.267162
 20
-24.374262
 30
0.0
 10
-0.265682
 20
-25.743209
 30
0.0
 10
-0.274164
 20
-26.732229
 30
0.0
 10
-0.296056
 20
-27.403043
 30
0.0
 10
-0.334810
 20
-27.817345
 30
0.0
 10
-0.393874
 20
-28.036857
 30
0.0
 10
-0.476699
 20
-28.123302
 30
0.0
 10
-0.586736
 20
-28.138260
 30
0.0
 10
-0.683375
 20
-28.132333
 30
0.0
 10
-0.760297
 20
-28.111449
 30
0.0
 10
-0.819608
 20
-28.071232
 30
0.0
 10
-0.863411
 20
-28.007309
 30
0.0
 10
-0.893808
 20
-27.915191
 30
0.0
 10
-0.912904
 20
-27.790506
 30
0.0
 10
-0.922802
 20
-27.628820
 30
0.0
 10
-0.925606
 20
-27.425790
 30
0.0
  0
LWPOLYLINE
  5
115
100
AcDbEntity
  8
Layer_1
 62
7
100
AcDbPolyline
 90
113
 70
1
 10
0.706914
 20
-25.916748
 30
0.0
 10
0.684129
 20
-25.337063
 30
0.0
 10
0.658934
 20
-24.538290
 30
0.0
 10
0.632161
 20
-23.556326
 30
0.0
 10
0.604645
 20
-22.427154
 30
0.0
 10
0.577217
 20
-21.186647
 30
0.0
 10
0.550712
 20
-19.870757
 30
0.0
 10
0.525963
 20
-18.515413
 30
0.0
 10
0.503802
 20
-17.156570
 30
0.0
 10
0.472827
 20
-15.033412
 30
0.0
 10
0.455461
 20
-13.380013
 30
0.0
 10
0.455419
 20
-12.089665
 30
0.0
 10
0.476413
 20
-11.055631
 30
0.0
 10
0.522157
 20
-10.171203
 30
0.0
 10
0.596363
 20
-9.329644
 30
0.0
 10
0.702744
 20
-8.424219
 30
0.0
 10
0.845014
 20
-7.348219
 30
0.0
 10
1.015612
 20
-6.059874
 30
0.0
 10
1.159223
 20
-4.890966
 30
0.0
 10
1.288280
 20
-3.699368
 30
0.0
 10
1.415212
 20
-2.342923
 30
0.0
 10
1.552452
 20
-0.679562
 30
0.0
 10
1.712430
 20
1.432872
 30
0.0
 10
1.907577
 20
4.136504
 30
0.0
 10
2.150325
 20
7.573435
 30
0.0
 10
2.305296
 20
9.816847
 30
0.0
 10
2.424394
 20
11.656936
 30
0.0
 10
2.510774
 20
13.182996
 30
0.0
 10
2.567594
 20
14.484238
 30
0.0
 10
2.598011
 20
15.649935
 30
0.0
 10
2.605179
 20
16.769310
 30
0.0
 10
2.592256
 20
17.931620
 30
0.0
 10
2.562398
 20
19.226111
 30
0.0
 10
2.535392
 20
20.115960
 30
0.0
 10
2.501625
 20
21.038731
 30
0.0
 10
2.462450
 20
21.967609
 30
0.0
 10
2.419218
 20
22.875775
 30
0.0
 10
2.373282
 20
23.736406
 30
0.0
 10
2.325994
 20
24.522685
 30
0.0
 10
2.278706
 20
25.207797
 30
0.0
 10
2.232771
 20
25.764917
 30
0.0
 10
2.190257
 20
26.237823
 30
0.0
 10
2.152760
 20
26.681762
 30
0.0
 10
2.120944
 20
27.086821
 30
0.0
 10
2.095478
 20
27.443081
 30
0.0
 10
2.077027
 20
27.740634
 30
0.0
 10
2.066260
 20
27.969558
 30
0.0
 10
2.063841
 20
28.119941
 30
0.0
 10
2.070439
 20
28.181869
 30
0.0
 10
2.129861
 20
28.220688
 30
0.0
 10
2.185811
 20
28.170616
 30
0.0
 10
2.240662
 20
28.018005
 30
0.0
 10
2.296789
 20
27.749194
 30
0.0
 10
2.356568
 20
27.350527
 30
0.0
 10
2.422372
 20
26.808352
 30
0.0
 10
2.496576
 20
26.109014
 30
0.0
 10
2.581555
 20
25.238855
 30
0.0
 10
2.717063
 20
23.439308
 30
0.0
 10
2.810453
 20
21.391876
 30
0.0
 10
2.862062
 20
19.172610
 30
0.0
 10
2.872233
 20
16.857561
 30
0.0
 10
2.841304
 20
14.522762
 30
0.0
 10
2.769616
 20
12.244297
 30
0.0
 10
2.657508
 20
10.098166
 30
0.0
 10
2.505322
 20
8.160457
 30
0.0
 10
2.427855
 20
7.313960
 30
0.0
 10
2.348367
 20
6.385336
 30
0.0
 10
2.269115
 20
5.404839
 30
0.0
 10
2.192353
 20
4.402696
 30
0.0
 10
2.120338
 20
3.409218
 30
0.0
 10
2.055325
 20
2.454629
 30
0.0
 10
1.999570
 20
1.569185
 30
0.0
 10
1.955328
 20
0.783168
 30
0.0
 10
1.911851
 20
0.019475
 30
0.0
 10
1.858280
 20
-0.802131
 30
0.0
 10
1.796718
 20
-1.655881
 30
0.0
 10
1.729267
 20
-2.515982
 30
0.0
 10
1.658032
 20
-3.356637
 30
0.0
 10
1.585116
 20
-4.152080
 30
0.0
 10
1.512621
 20
-4.876545
 30
0.0
 10
1.442651
 20
-5.504179
 30
0.0
 10
1.225165
 20
-7.399019
 30
0.0
 10
1.058442
 20
-9.050357
 30
0.0
 10
0.938889
 20
-10.552457
 30
0.0
 10
0.862914
 20
-11.999523
 30
0.0
 10
0.826926
 20
-13.485818
 30
0.0
 10
0.827333
 20
-15.105548
 30
0.0
 10
0.860542
 20
-16.952946
 30
0.0
 10
0.922961
 20
-19.122248
 30
0.0
 10
0.963302
 20
-20.341956
 30
0.0
 10
1.005178
 20
-21.541033
 30
0.0
 10
1.047370
 20
-22.688859
 30
0.0
 10
1.088657
 20
-23.754812
 30
0.0
 10
1.127821
 20
-24.708272
 30
0.0
 10
1.163640
 20
-25.518645
 30
0.0
 10
1.194896
 20
-26.155282
 30
0.0
 10
1.220367
 20
-26.587590
 30
0.0
 10
1.249309
 20
-27.034743
 30
0.0
 10
1.266578
 20
-27.389016
 30
0.0
 10
1.271175
 20
-27.660683
 30
0.0
 10
1.262098
 20
-27.859989
 30
0.0
 10
1.238346
 20
-27.997177
 30
0.0
 10
1.198919
 20
-28.082464
 30
0.0
 10
1.142816
 20
-28.126124
 30
0.0
 10
1.069037
 20
-28.138260
 30
0.0
 10
0.995569
 20
-28.118222
 30
0.0
 10
0.934225
 20
-28.049416
 30
0.0
 10
0.882972
 20
-27.919481
 30
0.0
 10
0.839778
 20
-27.715999
 30
0.0
 10
0.802608
 20
-27.426439
 30
0.0
 10
0.769429
 20
-27.038355
 30
0.0
 10
0.738209
 20
-26.539273
 30
0.0
 10
0.706914
 20
-25.916748
 30
0.0
  0
LWPOLYLINE
  5
116
100
AcDbEntity
  8
Layer_1
 62
7
100
AcDbPolyline
 90
121
 70
1
 10
1.874239
 20
-25.581468
 30
0.0
 10
1.850110
 20
-25.222481
 30
0.0
 10
1.826507
 20
-24.303340
 30
0.0
 10
1.804027
 20
-23.060828
 30
0.0
 10
1.783263
 20
-21.731787
 30
0.0
 10
1.764809
 20
-20.388127
 30
0.0
 10
1.749262
 20
-18.970045
 30
0.0
 10
1.737215
 20
-17.516544
 30
0.0
 10
1.729264
 20
-16.066628
 30
0.0
 10
1.723508
 20
-13.977449
 30
0.0
 10
1.726361
 20
-12.277089
 30
0.0
 10
1.740453
 20
-10.887003
 30
0.0
 10
1.768415
 20
-9.728537
 30
0.0
 10
1.812877
 20
-8.723177
 30
0.0
 10
1.876470
 20
-7.792267
 30
0.0
 10
1.961825
 20
-6.857208
 30
0.0
 10
2.071571
 20
-5.839459
 30
0.0
 10
2.147907
 20
-5.141580
 30
0.0
 10
2.223016
 20
-4.411160
 30
0.0
 10
2.294976
 20
-3.669847
 30
0.0
 10
2.361865
 20
-2.939315
 30
0.0
 10
2.421761
 20
-2.241182
 30
0.0
 10
2.472740
 20
-1.597151
 30
0.0
 10
2.512882
 20
-1.028840
 30
0.0
 10
2.540263
 20
-0.557952
 30
0.0
 10
2.567361
 20
-0.008352
 30
0.0
 10
2.606691
 20
0.785482
 30
0.0
 10
2.656386
 20
1.786129
 30
0.0
 10
2.714582
 20
2.956053
 30
0.0
 10
2.779413
 20
4.257860
 30
0.0
 10
2.849015
 20
5.654013
 30
0.0
 10
2.921520
 20
7.107062
 30
0.0
 10
2.995064
 20
8.579557
 30
0.0
 10
3.111765
 20
11.225588
 30
0.0
 10
3.195020
 20
13.807470
 30
0.0
 10
3.244829
 20
16.301129
 30
0.0
 10
3.261195
 20
18.682480
 30
0.0
 10
3.244118
 20
20.927437
 30
0.0
 10
3.193599
 20
23.011919
 30
0.0
 10
3.109640
 20
24.911842
 30
0.0
 10
2.992243
 20
26.603117
 30
0.0
 10
2.952278
 20
27.095268
 30
0.0
 10
2.925284
 20
27.486140
 30
0.0
 10
2.911587
 20
27.784071
 30
0.0
 10
2.911513
 20
27.997400
 30
0.0
 10
2.925390
 20
28.134461
 30
0.0
 10
2.953542
 20
28.203594
 30
0.0
 10
2.996296
 20
28.213133
 30
0.0
 10
3.053980
 20
28.171424
 30
0.0
 10
3.124090
 20
27.934255
 30
0.0
 10
3.198634
 20
27.383784
 30
0.0
 10
3.274867
 20
26.562779
 30
0.0
 10
3.350040
 20
25.514011
 30
0.0
 10
3.421408
 20
24.280245
 30
0.0
 10
3.486223
 20
22.904254
 30
0.0
 10
3.541740
 20
21.428804
 30
0.0
 10
3.585210
 20
19.896668
 30
0.0
 10
3.609402
 20
18.655954
 30
0.0
 10
3.619804
 20
17.502580
 30
0.0
 10
3.615258
 20
16.391443
 30
0.0
 10
3.594599
 20
15.277430
 30
0.0
 10
3.556667
 20
14.115428
 30
0.0
 10
3.500300
 20
12.860357
 30
0.0
 10
3.424336
 20
11.467054
 30
0.0
 10
3.327615
 20
9.890476
 30
0.0
 10
3.253286
 20
8.691625
 30
0.0
 10
3.180295
 20
7.448718
 30
0.0
 10
3.110502
 20
6.197881
 30
0.0
 10
3.045763
 20
4.975181
 30
0.0
 10
2.987937
 20
3.816744
 30
0.0
 10
2.938881
 20
2.758664
 30
0.0
 10
2.900452
 20
1.837039
 30
0.0
 10
2.874511
 20
1.087965
 30
0.0
 10
2.851092
 20
0.404621
 30
0.0
 10
2.819891
 20
-0.328819
 30
0.0
 10
2.782261
 20
-1.089407
 30
0.0
 10
2.739552
 20
-1.854286
 30
0.0
 10
2.693118
 20
-2.600482
 30
0.0
 10
2.644310
 20
-3.305134
 30
0.0
 10
2.594480
 20
-3.945299
 30
0.0
 10
2.544980
 20
-4.498059
 30
0.0
 10
2.365394
 20
-6.438337
 30
0.0
 10
2.223401
 20
-8.220655
 30
0.0
 10
2.116484
 20
-9.917742
 30
0.0
 10
2.042124
 20
-11.602383
 30
0.0
 10
1.997804
 20
-13.347278
 30
0.0
 10
1.981009
 20
-15.225269
 30
0.0
 10
1.989218
 20
-17.309085
 30
0.0
 10
2.019917
 20
-19.671455
 30
0.0
 10
2.044012
 20
-21.036648
 30
0.0
 10
2.070691
 20
-22.344946
 30
0.0
 10
2.099070
 20
-23.565303
 30
0.0
 10
2.128263
 20
-24.666534
 30
0.0
 10
2.157388
 20
-25.617567
 30
0.0
 10
2.185559
 20
-26.387243
 30
0.0
 10
2.211894
 20
-26.944491
 30
0.0
 10
2.235506
 20
-27.258153
 30
0.0
 10
2.256668
 20
-27.457373
 30
0.0
 10
2.269190
 20
-27.632859
 30
0.0
 10
2.273140
 20
-27.783735
 30
0.0
 10
2.268587
 20
-27.909098
 30
0.0
 10
2.255598
 20
-28.008130
 30
0.0
 10
2.234241
 20
-28.079927
 30
0.0
 10
2.204584
 20
-28.123643
 30
0.0
 10
2.166695
 20
-28.138319
 30
0.0
 10
2.126106
 20
-28.093022
 30
0.0
 10
2.085615
 20
-27.960180
 30
0.0
 10
2.045746
 20
-27.744365
 30
0.0
 10
2.007024
 20
-27.450205
 30
0.0
 10
1.969975
 20
-26.971528
 30
0.0
 10
1.935123
 20
-26.349877
 30
0.0
 10
1.902994
 20
-25.811171
 30
0.0
 10
1.874112
 20
-25.581386
 30
0.0
 10
1.874128
 20
-25.581386
 30
0.0
 10
1.874144
 20
-25.581386
 30
0.0
 10
1.874160
 20
-25.581386
 30
0.0
 10
1.874176
 20
-25.581386
 30
0.0
 10
1.874192
 20
-25.581386
 30
0.0
 10
1.874208
 20
-25.581386
 30
0.0
 10
1.874223
 20
-25.581386
 30
0.0
 10
1.874239
 20
-25.581468
 30
0.0
  0
LWPOLYLINE
  5
117
100
AcDbEntity
  8
Layer_1
 62
7
100
AcDbPolyline
 90
89
 70
1
 10
2.742049
 20
-20.551703
 30
0.0
 10
2.709144
 20
-19.580774
 30
0.0
 10
2.694457
 20
-17.272224
 30
0.0
 10
2.700685
 20
-14.532298
 30
0.0
 10
2.730527
 20
-12.267296
 30
0.0
 10
2.786678
 20
-10.537076
 30
0.0
 10
2.871836
 20
-8.724419
 30
0.0
 10
2.988700
 20
-6.719964
 30
0.0
 10
3.139966
 20
-4.414236
 30
0.0
 10
3.179448
 20
-3.777317
 30
0.0
 10
3.226255
 20
-2.928449
 30
0.0
 10
3.278649
 20
-1.904406
 30
0.0
 10
3.334892
 20
-0.741989
 30
0.0
 10
3.393247
 20
0.522000
 30
0.0
 10
3.451974
 20
1.850786
 30
0.0
 10
3.509339
 20
3.207598
 30
0.0
 10
3.563601
 20
4.555632
 30
0.0
 10
3.616341
 20
5.872199
 30
0.0
 10
3.669341
 20
7.138841
 30
0.0
 10
3.721170
 20
8.325077
 30
0.0
 10
3.770397
 20
9.400428
 30
0.0
 10
3.815589
 20
10.334471
 30
0.0
 10
3.855315
 20
11.096725
 30
0.0
 10
3.888143
 20
11.656710
 30
0.0
 10
3.912643
 20
11.984004
 30
0.0
 10
3.961556
 20
12.898629
 30
0.0
 10
3.991316
 20
14.345300
 30
0.0
 10
4.002975
 20
16.162975
 30
0.0
 10
3.997585
 20
18.190530
 30
0.0
 10
3.976195
 20
20.266887
 30
0.0
 10
3.939859
 20
22.230962
 30
0.0
 10
3.889627
 20
23.921659
 30
0.0
 10
3.826550
 20
25.177895
 30
0.0
 10
3.756913
 20
26.181331
 30
0.0
 10
3.706896
 20
26.944434
 30
0.0
 10
3.676333
 20
27.494926
 30
0.0
 10
3.665055
 20
27.860522
 30
0.0
 10
3.672898
 20
28.068946
 30
0.0
 10
3.699692
 20
28.147909
 30
0.0
 10
3.745274
 20
28.125133
 30
0.0
 10
3.809475
 20
28.028340
 30
0.0
 10
3.843502
 20
27.899813
 30
0.0
 10
3.883447
 20
27.629094
 30
0.0
 10
3.927850
 20
27.232894
 30
0.0
 10
3.975251
 20
26.727930
 30
0.0
 10
4.024188
 20
26.130920
 30
0.0
 10
4.073202
 20
25.458574
 30
0.0
 10
4.120831
 20
24.727610
 30
0.0
 10
4.165614
 20
23.954744
 30
0.0
 10
4.239196
 20
22.252967
 30
0.0
 10
4.283205
 20
20.400040
 30
0.0
 10
4.297691
 20
18.399674
 30
0.0
 10
4.282705
 20
16.255581
 30
0.0
 10
4.238297
 20
13.971469
 30
0.0
 10
4.164517
 20
11.551046
 30
0.0
 10
4.061415
 20
8.998036
 30
0.0
 10
3.929041
 20
6.316135
 30
0.0
 10
3.695830
 20
1.858463
 30
0.0
 10
3.506259
 20
-2.019412
 30
0.0
 10
3.356371
 20
-5.436897
 30
0.0
 10
3.242210
 20
-8.513373
 30
0.0
 10
3.159819
 20
-11.368220
 30
0.0
 10
3.105241
 20
-14.120875
 30
0.0
 10
3.074519
 20
-16.890660
 30
0.0
 10
3.063696
 20
-19.797041
 30
0.0
 10
3.060434
 20
-21.472566
 30
0.0
 10
3.053435
 20
-23.035682
 30
0.0
 10
3.043136
 20
-24.452212
 30
0.0
 10
3.029976
 20
-25.687894
 30
0.0
 10
3.014389
 20
-26.708550
 30
0.0
 10
2.996810
 20
-27.479948
 30
0.0
 10
2.977675
 20
-27.967882
 30
0.0
 10
2.957420
 20
-28.138119
 30
0.0
 10
2.934938
 20
-27.983292
 30
0.0
 10
2.909419
 20
-27.539525
 30
0.0
 10
2.881750
 20
-26.837949
 30
0.0
 10
2.852812
 20
-25.909664
 30
0.0
 10
2.823487
 20
-24.492400
 30
0.0
 10
2.794661
 20
-22.715049
 30
0.0
 10
2.767216
 20
-21.195508
 30
0.0
 10
2.742036
 20
-20.551703
 30
0.0
 10
2.742038
 20
-20.551703
 30
0.0
 10
2.742039
 20
-20.551703
 30
0.0
 10
2.742041
 20
-20.551703
 30
0.0
 10
2.742043
 20
-20.551703
 30
0.0
 10
2.742045
 20
-20.551703
 30
0.0
 10
2.742046
 20
-20.551703
 30
0.0
 10
2.742048
 20
-20.551703
 30
0.0
 10
2.742049
 20
-20.551703
 30
0.0
  0
LWPOLYLINE
  5
118
100
AcDbEntity
  8
Layer_1
 62
7
100
AcDbPolyline
 90
73
 70
1
 10
3.638128
 20
-27.384021
 30
0.0
 10
3.605102
 20
-26.492509
 30
0.0
 10
3.620031
 20
-24.071438
 30
0.0
 10
3.678162
 20
-20.501072
 30
0.0
 10
3.774739
 20
-16.161680
 30
0.0
 10
3.905005
 20
-11.276075
 30
0.0
 10
4.064206
 20
-5.941341
 30
0.0
 10
4.247585
 20
-0.348825
 30
0.0
 10
4.450388
 20
5.310012
 30
0.0
 10
4.553526
 20
8.409405
 30
0.0
 10
4.634984
 20
11.573003
 30
0.0
 10
4.693941
 20
14.700900
 30
0.0
 10
4.729580
 20
17.693218
 30
0.0
 10
4.741081
 20
20.450123
 30
0.0
 10
4.727627
 20
22.871733
 30
0.0
 10
4.688398
 20
24.858183
 30
0.0
 10
4.622575
 20
26.309606
 30
0.0
 10
4.597609
 20
26.713156
 30
0.0
 10
4.580794
 20
27.078222
 30
0.0
 10
4.572071
 20
27.400079
 30
0.0
 10
4.571365
 20
27.674010
 30
0.0
 10
4.578630
 20
27.895286
 30
0.0
 10
4.593793
 20
28.059189
 30
0.0
 10
4.616795
 20
28.160995
 30
0.0
 10
4.647570
 20
28.195980
 30
0.0
 10
4.801415
 20
27.685570
 30
0.0
 10
4.922909
 20
26.260376
 30
0.0
 10
5.010312
 20
24.079453
 30
0.0
 10
5.061882
 20
21.301855
 30
0.0
 10
5.075880
 20
18.086636
 30
0.0
 10
5.050565
 20
14.592838
 30
0.0
 10
4.984197
 20
10.979546
 30
0.0
 10
4.875037
 20
7.405795
 30
0.0
 10
4.828199
 20
6.076218
 30
0.0
 10
4.778094
 20
4.511662
 30
0.0
 10
4.726275
 20
2.769589
 30
0.0
 10
4.674297
 20
0.907402
 30
0.0
 10
4.623718
 20
-1.017438
 30
0.0
 10
4.576090
 20
-2.947556
 30
0.0
 10
4.532970
 20
-4.825491
 30
0.0
 10
4.495914
 20
-6.593839
 30
0.0
 10
4.458038
 20
-8.353635
 30
0.0
 10
4.412572
 20
-10.207045
 30
0.0
 10
4.361234
 20
-12.098414
 30
0.0
 10
4.305744
 20
-13.972002
 30
0.0
 10
4.247822
 20
-15.772100
 30
0.0
 10
4.189188
 20
-17.443025
 30
0.0
 10
4.131561
 20
-18.929010
 30
0.0
 10
4.076661
 20
-20.174372
 30
0.0
 10
4.024214
 20
-21.279526
 30
0.0
 10
3.973626
 20
-22.363429
 30
0.0
 10
3.926122
 20
-23.398592
 30
0.0
 10
3.882928
 20
-24.357526
 30
0.0
 10
3.845270
 20
-25.212744
 30
0.0
 10
3.814373
 20
-25.936672
 30
0.0
 10
3.791462
 20
-26.501879
 30
0.0
 10
3.777763
 20
-26.880819
 30
0.0
 10
3.764504
 20
-27.278865
 30
0.0
 10
3.752309
 20
-27.573025
 30
0.0
 10
3.740047
 20
-27.767307
 30
0.0
 10
3.726588
 20
-27.865831
 30
0.0
 10
3.710794
 20
-27.819828
 30
0.0
 10
3.691538
 20
-27.650947
 30
0.0
 10
3.667688
 20
-27.469054
 30
0.0
 10
3.638108
 20
-27.384021
 30
0.0
 10
3.638109
 20
-27.384021
 30
0.0
 10
3.638110
 20
-27.384021
 30
0.0
 10
3.638111
 20
-27.384021
 30
0.0
 10
3.638113
 20
-27.384021
 30
0.0
 10
3.638114
 20
-27.384021
 30
0.0
 10
3.638115
 20
-27.384021
 30
0.0
 10
3.638116
 20
-27.384021
 30
0.0
 10
3.638128
 20
-27.384021
 30
0.0
  0
LWPOLYLINE
  5
119
100
AcDbEntity
  8
Layer_1
 62
7
100
AcDbPolyline
 90
129
 70
1
 10
4.521658
 20
-26.545539
 30
0.0
 10
4.521657
 20
-26.135216
 30
0.0
 10
4.531368
 20
-25.610170
 30
0.0
 10
4.549890
 20
-24.992103
 30
0.0
 10
4.576312
 20
-24.302662
 30
0.0
 10
4.609730
 20
-23.563494
 30
0.0
 10
4.649235
 20
-22.796273
 30
0.0
 10
4.693919
 20
-22.022645
 30
0.0
 10
4.742874
 20
-21.264314
 30
0.0
 10
4.796132
 20
-20.370799
 30
0.0
 10
4.853149
 20
-19.209793
 30
0.0
 10
4.912153
 20
-17.830093
 30
0.0
 10
4.971372
 20
-16.280524
 30
0.0
 10
5.029034
 20
-14.609909
 30
0.0
 10
5.083367
 20
-12.867102
 30
0.0
 10
5.132598
 20
-11.100928
 30
0.0
 10
5.174956
 20
-9.360181
 30
0.0
 10
5.213624
 20
-7.682850
 30
0.0
 10
5.252285
 20
-6.098172
 30
0.0
 10
5.289907
 20
-4.642272
 30
0.0
 10
5.325459
 20
-3.351246
 30
0.0
 10
5.357909
 20
-2.261191
 30
0.0
 10
5.386226
 20
-1.408231
 30
0.0
 10
5.409380
 20
-0.828462
 30
0.0
 10
5.426339
 20
-0.557952
 30
0.0
 10
5.441550
 20
-0.417575
 30
0.0
 10
5.459725
 20
-0.210565
 30
0.0
 10
5.480178
 20
0.053144
 30
0.0
 10
5.502225
 20
0.363588
 30
0.0
 10
5.525184
 20
0.710750
 30
0.0
 10
5.548371
 20
1.084722
 30
0.0
 10
5.571102
 20
1.475487
 30
0.0
 10
5.592694
 20
1.873110
 30
0.0
 10
5.618021
 20
2.313405
 30
0.0
 10
5.651465
 20
2.826739
 30
0.0
 10
5.691593
 20
3.394486
 30
0.0
 10
5.736971
 20
3.998102
 30
0.0
 10
5.786163
 20
4.619020
 30
0.0
 10
5.837736
 20
5.238695
 30
0.0
 10
5.890255
 20
5.838530
 30
0.0
 10
5.942287
 20
6.399955
 30
0.0
 10
5.993689
 20
6.937334
 30
0.0
 10
6.044426
 20
7.468476
 30
0.0
 10
6.093185
 20
7.979552
 30
0.0
 10
6.138658
 20
8.456875
 30
0.0
 10
6.179534
 20
8.886615
 30
0.0
 10
6.214503
 20
9.255084
 30
0.0
 10
6.242254
 20
9.548454
 30
0.0
 10
6.261479
 20
9.753037
 30
0.0
 10
6.298308
 20
10.946442
 30
0.0
 10
6.281431
 20
12.928065
 30
0.0
 10
6.220390
 20
15.448372
 30
0.0
 10
6.124725
 20
18.257945
 30
0.0
 10
6.003980
 20
21.107311
 30
0.0
 10
5.867696
 20
23.747009
 30
0.0
 10
5.725413
 20
25.927576
 30
0.0
 10
5.586675
 20
27.399549
 30
0.0
 10
5.553710
 20
27.662269
 30
0.0
 10
5.535165
 20
27.859746
 30
0.0
 10
5.535786
 20
28.001289
 30
0.0
 10
5.560305
 20
28.096214
 30
0.0
 10
5.613466
 20
28.153830
 30
0.0
 10
5.700009
 20
28.183455
 30
0.0
 10
5.824675
 20
28.194405
 30
0.0
 10
5.992203
 20
28.196098
 30
0.0
 10
6.152209
 20
28.192683
 30
0.0
 10
6.276382
 20
28.177302
 30
0.0
 10
6.370632
 20
28.142191
 30
0.0
 10
6.440872
 20
28.079608
 30
0.0
 10
6.493015
 20
27.981810
 30
0.0
 10
6.532973
 20
27.841051
 30
0.0
 10
6.566657
 20
27.649583
 30
0.0
 10
6.599980
 20
27.399664
 30
0.0
 10
6.699702
 20
26.395393
 30
0.0
 10
6.792211
 20
25.062974
 30
0.0
 10
6.875906
 20
23.448728
 30
0.0
 10
6.949183
 20
21.598973
 30
0.0
 10
7.010440
 20
19.560028
 30
0.0
 10
7.058074
 20
17.378213
 30
0.0
 10
7.090484
 20
15.099841
 30
0.0
 10
7.106065
 20
12.771237
 30
0.0
 10
7.110618
 20
10.417221
 30
0.0
 10
7.103695
 20
8.552861
 30
0.0
 10
7.076977
 20
7.028607
 30
0.0
 10
7.022144
 20
5.694910
 30
0.0
 10
6.930875
 20
4.402191
 30
0.0
 10
6.794852
 20
3.000929
 30
0.0
 10
6.605752
 20
1.341547
 30
0.0
 10
6.355257
 20
-0.725476
 30
0.0
 10
6.270670
 20
-1.496028
 30
0.0
 10
6.194328
 20
-2.365583
 30
0.0
 10
6.125232
 20
-3.354235
 30
0.0
 10
6.062379
 20
-4.481995
 30
0.0
 10
6.004769
 20
-5.768929
 30
0.0
 10
5.951401
 20
-7.235101
 30
0.0
 10
5.901274
 20
-8.900523
 30
0.0
 10
5.853387
 20
-10.785287
 30
0.0
 10
5.801087
 20
-12.873901
 30
0.0
 10
5.749059
 20
-14.631976
 30
0.0
 10
5.694078
 20
-16.118017
 30
0.0
 10
5.632918
 20
-17.390529
 30
0.0
 10
5.562354
 20
-18.508016
 30
0.0
 10
5.479162
 20
-19.529040
 30
0.0
 10
5.380114
 20
-20.512076
 30
0.0
 10
5.261987
 20
-21.515659
 30
0.0
 10
5.175029
 20
-22.223500
 30
0.0
 10
5.088035
 20
-22.949968
 30
0.0
 10
5.003330
 20
-23.674489
 30
0.0
 10
4.923237
 20
-24.376404
 30
0.0
 10
4.850078
 20
-25.035083
 30
0.0
 10
4.786177
 20
-25.629894
 30
0.0
 10
4.733860
 20
-26.140237
 30
0.0
 10
4.695451
 20
-26.545423
 30
0.0
 10
4.676856
 20
-26.755001
 30
0.0
 10
4.658260
 20
-26.964608
 30
0.0
 10
4.639664
 20
-27.174186
 30
0.0
 10
4.621069
 20
-27.383764
 30
0.0
 10
4.602473
 20
-27.593342
 30
0.0
 10
4.583878
 20
-27.802949
 30
0.0
 10
4.565282
 20
-28.012527
 30
0.0
 10
4.546686
 20
-28.222105
 30
0.0
 10
4.543559
 20
-28.012527
 30
0.0
 10
4.540432
 20
-27.802949
 30
0.0
 10
4.537305
 20
-27.593342
 30
0.0
 10
4.534178
 20
-27.383764
 30
0.0
 10
4.531051
 20
-27.174186
 30
0.0
 10
4.527924
 20
-26.964608
 30
0.0
 10
4.524797
 20
-26.755001
 30
0.0
 10
4.521658
 20
-26.545539
 30
0.0
  0
LWPOLYLINE
  5
11a
100
AcDbEntity
  8
Layer_1
 62
7
100
AcDbPolyline
 90
161
 70
1
 10
5.578357
 20
-26.671410
 30
0.0
 10
5.606583
 20
-26.354474
 30
0.0
 10
5.643353
 20
-26.015779
 30
0.0
 10
5.687114
 20
-25.665852
 30
0.0
 10
5.736318
 20
-25.315163
 30
0.0
 10
5.789412
 20
-24.974182
 30
0.0
 10
5.844845
 20
-24.653408
 30
0.0
 10
5.901066
 20
-24.363368
 30
0.0
 10
5.956524
 20
-24.114476
 30
0.0
 10
6.027659
 20
-23.748660
 30
0.0
 10
6.090146
 20
-23.258214
 30
0.0
 10
6.145393
 20
-22.615481
 30
0.0
 10
6.194809
 20
-21.792888
 30
0.0
 10
6.239802
 20
-20.762721
 30
0.0
 10
6.281781
 20
-19.497349
 30
0.0
 10
6.322154
 20
-17.969144
 30
0.0
 10
6.362331
 20
-16.150448
 30
0.0
 10
6.443277
 20
-13.172495
 30
0.0
 10
6.560413
 20
-10.343358
 30
0.0
 10
6.713258
 20
-7.668710
 30
0.0
 10
6.901328
 20
-5.154251
 30
0.0
 10
7.124141
 20
-2.805711
 30
0.0
 10
7.381214
 20
-0.628790
 30
0.0
 10
7.672065
 20
1.370839
 30
0.0
 10
7.996212
 20
3.187419
 30
0.0
 10
8.162639
 20
3.991498
 30
0.0
 10
8.320813
 20
4.678879
 30
0.0
 10
8.470395
 20
5.248573
 30
0.0
 10
8.611045
 20
5.699536
 30
0.0
 10
8.742422
 20
6.030864
 30
0.0
 10
8.864188
 20
6.241543
 30
0.0
 10
8.976002
 20
6.330556
 30
0.0
 10
9.077523
 20
6.296944
 30
0.0
 10
9.305920
 20
5.680260
 30
0.0
 10
9.512611
 20
4.366261
 30
0.0
 10
9.692669
 20
2.453754
 30
0.0
 10
9.841165
 20
0.041460
 30
0.0
 10
9.953171
 20
-2.771788
 30
0.0
 10
10.023758
 20
-5.887267
 30
0.0
 10
10.047998
 20
-9.206172
 30
0.0
 10
10.020961
 20
-12.629725
 30
0.0
 10
9.979677
 20
-15.125078
 30
0.0
 10
9.940582
 20
-17.105516
 30
0.0
 10
9.899007
 20
-18.667305
 30
0.0
 10
9.850280
 20
-19.906769
 30
0.0
 10
9.789733
 20
-20.920116
 30
0.0
 10
9.712695
 20
-21.803641
 30
0.0
 10
9.614497
 20
-22.653666
 30
0.0
 10
9.490468
 20
-23.566401
 30
0.0
 10
9.439314
 20
-23.940148
 30
0.0
 10
9.387212
 20
-24.345165
 30
0.0
 10
9.335617
 20
-24.768583
 30
0.0
 10
9.285981
 20
-25.197504
 30
0.0
 10
9.239758
 20
-25.619003
 30
0.0
 10
9.198401
 20
-26.020210
 30
0.0
 10
9.163364
 20
-26.388200
 30
0.0
 10
9.136104
 20
-26.710074
 30
0.0
 10
9.122230
 20
-26.888608
 30
0.0
 10
9.108356
 20
-27.067170
 30
0.0
 10
9.094482
 20
-27.245704
 30
0.0
 10
9.080608
 20
-27.424238
 30
0.0
 10
9.066734
 20
-27.602771
 30
0.0
 10
9.052860
 20
-27.781333
 30
0.0
 10
9.038986
 20
-27.959867
 30
0.0
 10
9.025112
 20
-28.138401
 30
0.0
 10
8.930153
 20
-28.138401
 30
0.0
 10
8.835195
 20
-28.138401
 30
0.0
 10
8.740236
 20
-28.138401
 30
0.0
 10
8.645277
 20
-28.138401
 30
0.0
 10
8.550319
 20
-28.138401
 30
0.0
 10
8.455360
 20
-28.138401
 30
0.0
 10
8.360402
 20
-28.138401
 30
0.0
 10
8.265443
 20
-28.138401
 30
0.0
 10
8.170485
 20
-28.138401
 30
0.0
 10
8.075526
 20
-28.138401
 30
0.0
 10
7.980568
 20
-28.138401
 30
0.0
 10
7.885610
 20
-28.138401
 30
0.0
 10
7.790652
 20
-28.138401
 30
0.0
 10
7.695693
 20
-28.138401
 30
0.0
 10
7.600735
 20
-28.138401
 30
0.0
 10
7.505777
 20
-28.138401
 30
0.0
 10
7.520182
 20
-28.012473
 30
0.0
 10
7.534586
 20
-27.886518
 30
0.0
 10
7.548991
 20
-27.760590
 30
0.0
 10
7.563396
 20
-27.634634
 30
0.0
 10
7.577800
 20
-27.508707
 30
0.0
 10
7.592205
 20
-27.382751
 30
0.0
 10
7.606609
 20
-27.256823
 30
0.0
 10
7.621014
 20
-27.130868
 30
0.0
 10
7.656580
 20
-26.879774
 30
0.0
 10
7.713764
 20
-26.551324
 30
0.0
 10
7.789598
 20
-26.159430
 30
0.0
 10
7.881114
 20
-25.718007
 30
0.0
 10
7.985345
 20
-25.240995
 30
0.0
 10
8.099322
 20
-24.742308
 30
0.0
 10
8.220078
 20
-24.235917
 30
0.0
 10
8.344643
 20
-23.735734
 30
0.0
 10
8.538789
 20
-22.960752
 30
0.0
 10
8.688697
 20
-22.308762
 30
0.0
 10
8.801982
 20
-21.712991
 30
0.0
 10
8.886262
 20
-21.106665
 30
0.0
 10
8.949155
 20
-20.423010
 30
0.0
 10
8.998277
 20
-19.595252
 30
0.0
 10
9.041246
 20
-18.556646
 30
0.0
 10
9.085680
 20
-17.240390
 30
0.0
 10
9.168392
 20
-14.063894
 30
0.0
 10
9.214517
 20
-10.905460
 30
0.0
 10
9.225786
 20
-7.883989
 30
0.0
 10
9.203931
 20
-5.118353
 30
0.0
 10
9.150683
 20
-2.727451
 30
0.0
 10
9.067775
 20
-0.830212
 30
0.0
 10
8.956939
 20
0.454520
 30
0.0
 10
8.819906
 20
1.007817
 30
0.0
 10
8.545066
 20
0.936810
 30
0.0
 10
8.282954
 20
0.175628
 30
0.0
 10
8.034628
 20
-1.264270
 30
0.0
 10
7.801146
 20
-3.371538
 30
0.0
 10
7.583566
 20
-6.134748
 30
0.0
 10
7.382946
 20
-9.542525
 30
0.0
 10
7.200346
 20
-13.583495
 30
0.0
 10
7.036823
 20
-18.246230
 30
0.0
 10
7.004752
 20
-19.194384
 30
0.0
 10
6.966174
 20
-20.186423
 30
0.0
 10
6.922551
 20
-21.192968
 30
0.0
 10
6.875347
 20
-22.184556
 30
0.0
 10
6.826026
 20
-23.131863
 30
0.0
 10
6.776050
 20
-24.005454
 30
0.0
 10
6.726886
 20
-24.775892
 30
0.0
 10
6.679998
 20
-25.413828
 30
0.0
 10
6.652563
 20
-25.754385
 30
0.0
 10
6.625128
 20
-26.094971
 30
0.0
 10
6.597693
 20
-26.435528
 30
0.0
 10
6.570259
 20
-26.776114
 30
0.0
 10
6.542824
 20
-27.116672
 30
0.0
 10
6.515389
 20
-27.457258
 30
0.0
 10
6.487954
 20
-27.797815
 30
0.0
 10
6.460519
 20
-28.138401
 30
0.0
 10
6.398282
 20
-28.138401
 30
0.0
 10
6.336045
 20
-28.138401
 30
0.0
 10
6.273808
 20
-28.138401
 30
0.0
 10
6.211571
 20
-28.138401
 30
0.0
 10
6.149334
 20
-28.138401
 30
0.0
 10
6.087097
 20
-28.138401
 30
0.0
 10
6.024860
 20
-28.138401
 30
0.0
 10
5.962623
 20
-28.138401
 30
0.0
 10
5.900386
 20
-28.138401
 30
0.0
 10
5.838148
 20
-28.138401
 30
0.0
 10
5.775911
 20
-28.138401
 30
0.0
 10
5.713673
 20
-28.138401
 30
0.0
 10
5.651436
 20
-28.138401
 30
0.0
 10
5.589198
 20
-28.138401
 30
0.0
 10
5.526961
 20
-28.138401
 30
0.0
 10
5.464724
 20
-28.138401
 30
0.0
 10
5.478928
 20
-27.955013
 30
0.0
 10
5.493132
 20
-27.771653
 30
0.0
 10
5.507336
 20
-27.588265
 30
0.0
 10
5.521541
 20
-27.404905
 30
0.0
 10
5.535745
 20
-27.221546
 30
0.0
 10
5.549949
 20
-27.038158
 30
0.0
 10
5.564153
 20
-26.854798
 30
0.0
 10
5.578357
 20
-26.671410
 30
0.0
  0
LWPOLYLINE
  5
11b
100
AcDbEntity
  8
Layer_1
 62
7
100
AcDbPolyline
 90
113
 70
1
 10
10.431177
 20
-27.992492
 30
0.0
 10
10.436265
 20
-27.874551
 30
0.0
 10
10.450851
 20
-27.593373
 30
0.0
 10
10.473911
 20
-27.167274
 30
0.0
 10
10.504422
 20
-26.614711
 30
0.0
 10
10.541363
 20
-25.954057
 30
0.0
 10
10.583708
 20
-25.203685
 30
0.0
 10
10.630438
 20
-24.382023
 30
0.0
 10
10.680527
 20
-23.507416
 30
0.0
 10
10.792501
 20
-20.986015
 30
0.0
 10
10.880049
 20
-17.885126
 30
0.0
 10
10.941798
 20
-14.440350
 30
0.0
 10
10.976377
 20
-10.887342
 30
0.0
 10
10.982414
 20
-7.461813
 30
0.0
 10
10.958535
 20
-4.399392
 30
0.0
 10
10.903371
 20
-1.935733
 30
0.0
 10
10.815549
 20
-0.306492
 30
0.0
 10
10.675300
 20
1.516353
 30
0.0
 10
10.557171
 20
3.650828
 30
0.0
 10
10.463487
 20
5.989067
 30
0.0
 10
10.396575
 20
8.423234
 30
0.0
 10
10.358761
 20
10.845519
 30
0.0
 10
10.352371
 20
13.148086
 30
0.0
 10
10.379730
 20
15.223085
 30
0.0
 10
10.443164
 20
16.962689
 30
0.0
 10
10.485362
 20
17.855705
 30
0.0
 10
10.518896
 20
18.789538
 30
0.0
 10
10.543604
 20
19.750189
 30
0.0
 10
10.559327
 20
20.723652
 30
0.0
 10
10.565902
 20
21.695925
 30
0.0
 10
10.563165
 20
22.653003
 30
0.0
 10
10.550964
 20
23.580884
 30
0.0
 10
10.529135
 20
24.465566
 30
0.0
 10
10.514631
 20
24.931868
 30
0.0
 10
10.500128
 20
25.398170
 30
0.0
 10
10.485624
 20
25.864471
 30
0.0
 10
10.471121
 20
26.330773
 30
0.0
 10
10.456618
 20
26.797075
 30
0.0
 10
10.442114
 20
27.263376
 30
0.0
 10
10.427611
 20
27.729678
 30
0.0
 10
10.413107
 20
28.195980
 30
0.0
 10
10.491389
 20
28.195980
 30
0.0
 10
10.569670
 20
28.195980
 30
0.0
 10
10.647951
 20
28.195980
 30
0.0
 10
10.726233
 20
28.195980
 30
0.0
 10
10.804514
 20
28.195980
 30
0.0
 10
10.882796
 20
28.195980
 30
0.0
 10
10.961077
 20
28.195980
 30
0.0
 10
11.039358
 20
28.195980
 30
0.0
 10
11.117640
 20
28.195980
 30
0.0
 10
11.195923
 20
28.195980
 30
0.0
 10
11.274205
 20
28.195980
 30
0.0
 10
11.352487
 20
28.195980
 30
0.0
 10
11.430769
 20
28.195980
 30
0.0
 10
11.509051
 20
28.195980
 30
0.0
 10
11.587333
 20
28.195980
 30
0.0
 10
11.665615
 20
28.195980
 30
0.0
 10
11.660092
 20
26.451245
 30
0.0
 10
11.654569
 20
24.706514
 30
0.0
 10
11.649046
 20
22.961779
 30
0.0
 10
11.643523
 20
21.217047
 30
0.0
 10
11.638000
 20
19.472313
 30
0.0
 10
11.632477
 20
17.727579
 30
0.0
 10
11.626954
 20
15.982847
 30
0.0
 10
11.621430
 20
14.238112
 30
0.0
 10
11.615047
 20
11.210150
 30
0.0
 10
11.613918
 20
7.952064
 30
0.0
 10
11.617697
 20
4.566075
 30
0.0
 10
11.626079
 20
1.154544
 30
0.0
 10
11.638745
 20
-2.180306
 30
0.0
 10
11.655376
 20
-5.336115
 30
0.0
 10
11.675651
 20
-8.210633
 30
0.0
 10
11.699250
 20
-10.701583
 30
0.0
 10
11.721298
 20
-12.973500
 30
0.0
 10
11.737122
 20
-15.220328
 30
0.0
 10
11.746715
 20
-17.383787
 30
0.0
 10
11.750067
 20
-19.405599
 30
0.0
 10
11.747175
 20
-21.227484
 30
0.0
 10
11.738025
 20
-22.791193
 30
0.0
 10
11.722618
 20
-24.038418
 30
0.0
 10
11.700947
 20
-24.910908
 30
0.0
 10
11.685913
 20
-25.314344
 30
0.0
 10
11.670879
 20
-25.717781
 30
0.0
 10
11.655845
 20
-26.121218
 30
0.0
 10
11.640811
 20
-26.524654
 30
0.0
 10
11.625777
 20
-26.928091
 30
0.0
 10
11.610743
 20
-27.331528
 30
0.0
 10
11.595709
 20
-27.734964
 30
0.0
 10
11.580675
 20
-28.138401
 30
0.0
 10
11.508831
 20
-28.138401
 30
0.0
 10
11.436986
 20
-28.138401
 30
0.0
 10
11.365142
 20
-28.138401
 30
0.0
 10
11.293298
 20
-28.138401
 30
0.0
 10
11.221454
 20
-28.138401
 30
0.0
 10
11.149609
 20
-28.138401
 30
0.0
 10
11.077765
 20
-28.138401
 30
0.0
 10
11.005921
 20
-28.138401
 30
0.0
 10
10.890465
 20
-28.135296
 30
0.0
 10
10.782755
 20
-28.126830
 30
0.0
 10
10.685148
 20
-28.113283
 30
0.0
 10
10.600001
 20
-28.095503
 30
0.0
 10
10.529672
 20
-28.073772
 30
0.0
 10
10.476518
 20
-28.048936
 30
0.0
 10
10.442898
 20
-28.021561
 30
0.0
 10
10.431166
 20
-27.992266
 30
0.0
 10
10.431168
 20
-27.992266
 30
0.0
 10
10.431170
 20
-27.992266
 30
0.0
 10
10.431172
 20
-27.992266
 30
0.0
 10
10.431174
 20
-27.992266
 30
0.0
 10
10.431176
 20
-27.992266
 30
0.0
 10
10.431178
 20
-27.992266
 30
0.0
 10
10.431180
 20
-27.992266
 30
0.0
 10
10.431177
 20
-27.992492
 30
0.0
  0
LWPOLYLINE
  5
11c
100
AcDbEntity
  8
Layer_1
 62
7
100
AcDbPolyline
 90
57
 70
1
 10
12.701440
 20
-13.090876
 30
0.0
 10
12.696442
 20
-11.548080
 30
0.0
 10
12.689152
 20
-7.772370
 30
0.0
 10
12.679915
 20
-3.042749
 30
0.0
 10
12.669081
 20
1.361808
 30
0.0
 10
12.656993
 20
5.132128
 30
0.0
 10
12.643999
 20
8.735118
 30
0.0
 10
12.630447
 20
12.055575
 30
0.0
 10
12.616683
 20
14.978384
 30
0.0
 10
12.606072
 20
17.596927
 30
0.0
 10
12.601550
 20
20.045120
 30
0.0
 10
12.602849
 20
22.268997
 30
0.0
 10
12.609653
 20
24.214600
 30
0.0
 10
12.621693
 20
25.827966
 30
0.0
 10
12.638682
 20
27.055130
 30
0.0
 10
12.660335
 20
27.842138
 30
0.0
 10
12.686367
 20
28.135020
 30
0.0
 10
12.814701
 20
28.209888
 30
0.0
 10
12.915365
 20
28.139352
 30
0.0
 10
12.989758
 20
27.904170
 30
0.0
 10
13.039278
 20
27.485110
 30
0.0
 10
13.065324
 20
26.862931
 30
0.0
 10
13.069295
 20
26.018398
 30
0.0
 10
13.052588
 20
24.932272
 30
0.0
 10
13.016601
 20
23.585315
 30
0.0
 10
12.965252
 20
21.878297
 30
0.0
 10
12.928619
 20
20.397562
 30
0.0
 10
12.906755
 20
18.818748
 30
0.0
 10
12.899717
 20
16.817485
 30
0.0
 10
12.907557
 20
14.069400
 30
0.0
 10
12.930329
 20
10.250143
 30
0.0
 10
12.968089
 20
5.035354
 30
0.0
 10
13.020889
 20
-1.899354
 30
0.0
 10
13.057390
 20
-7.621297
 30
0.0
 10
13.075522
 20
-12.750291
 30
0.0
 10
13.075685
 20
-17.233927
 30
0.0
 10
13.058278
 20
-21.019825
 30
0.0
 10
13.023701
 20
-24.055633
 30
0.0
 10
12.972353
 20
-26.288914
 30
0.0
 10
12.904634
 20
-27.667287
 30
0.0
 10
12.820942
 20
-28.138401
 30
0.0
 10
12.800202
 20
-27.831287
 30
0.0
 10
12.780138
 20
-26.951064
 30
0.0
 10
12.761246
 20
-25.559454
 30
0.0
 10
12.744011
 20
-23.718208
 30
0.0
 10
12.728924
 20
-20.907077
 30
0.0
 10
12.716475
 20
-17.381783
 30
0.0
 10
12.707156
 20
-14.367847
 30
0.0
 10
12.701455
 20
-13.090876
 30
0.0
 10
12.701455
 20
-13.090876
 30
0.0
 10
12.701454
 20
-13.090876
 30
0.0
 10
12.701454
 20
-13.090876
 30
0.0
 10
12.701453
 20
-13.090876
 30
0.0
 10
12.701453
 20
-13.090876
 30
0.0
 10
12.701453
 20
-13.090876
 30
0.0
 10
12.701452
 20
-13.090876
 30
0.0
 10
12.701440
 20
-13.090876
 30
0.0
  0
LWPOLYLINE
  5
11d
100
AcDbEntity
  8
Layer_1
 62
7
100
AcDbPolyline
 90
73
 70
1
 10
13.664295
 20
-27.970761
 30
0.0
 10
13.644124
 20
-27.503655
 30
0.0
 10
13.634608
 20
-26.522425
 30
0.0
 10
13.634918
 20
-25.136770
 30
0.0
 10
13.644223
 20
-23.456447
 30
0.0
 10
13.661696
 20
-21.591156
 30
0.0
 10
13.686506
 20
-19.650624
 30
0.0
 10
13.717828
 20
-17.744608
 30
0.0
 10
13.754833
 20
-15.982808
 30
0.0
 10
13.771817
 20
-14.871050
 30
0.0
 10
13.779979
 20
-13.377417
 30
0.0
 10
13.779697
 20
-11.567243
 30
0.0
 10
13.771326
 20
-9.505892
 30
0.0
 10
13.755245
 20
-7.258641
 30
0.0
 10
13.731826
 20
-4.890853
 30
0.0
 10
13.701438
 20
-2.467891
 30
0.0
 10
13.664453
 20
-0.055032
 30
0.0
 10
13.624958
 20
2.354412
 30
0.0
 10
13.587383
 20
4.767581
 30
0.0
 10
13.552601
 20
7.119875
 30
0.0
 10
13.521487
 20
9.346609
 30
0.0
 10
13.494916
 20
11.383152
 30
0.0
 10
13.473764
 20
13.164850
 30
0.0
 10
13.458902
 20
14.627043
 30
0.0
 10
13.451208
 20
15.705106
 30
0.0
 10
13.453805
 20
17.788022
 30
0.0
 10
13.476865
 20
19.943122
 30
0.0
 10
13.516650
 20
22.052914
 30
0.0
 10
13.569426
 20
23.999900
 30
0.0
 10
13.631460
 20
25.666586
 30
0.0
 10
13.699018
 20
26.935479
 30
0.0
 10
13.768368
 20
27.689080
 30
0.0
 10
13.835775
 20
27.809900
 30
0.0
 10
13.858666
 20
27.629266
 30
0.0
 10
13.873590
 20
27.294077
 30
0.0
 10
13.880677
 20
26.823587
 30
0.0
 10
13.880056
 20
26.237044
 30
0.0
 10
13.871874
 20
25.553702
 30
0.0
 10
13.856262
 20
24.792817
 30
0.0
 10
13.833351
 20
23.973636
 30
0.0
 10
13.803276
 20
23.115415
 30
0.0
 10
13.766689
 20
21.937538
 30
0.0
 10
13.742384
 20
20.607134
 30
0.0
 10
13.730424
 20
19.107668
 30
0.0
 10
13.730875
 20
17.422604
 30
0.0
 10
13.743787
 20
15.535415
 30
0.0
 10
13.769226
 20
13.429574
 30
0.0
 10
13.807259
 20
11.088512
 30
0.0
 10
13.857944
 20
8.495737
 30
0.0
 10
13.933518
 20
3.958817
 30
0.0
 10
13.986750
 20
-1.151973
 30
0.0
 10
14.017764
 20
-6.522803
 30
0.0
 10
14.026688
 20
-11.839842
 30
0.0
 10
14.013650
 20
-16.789342
 30
0.0
 10
13.978771
 20
-21.057389
 30
0.0
 10
13.922180
 20
-24.330264
 30
0.0
 10
13.844003
 20
-26.294079
 30
0.0
 10
13.814646
 20
-26.676292
 30
0.0
 10
13.785786
 20
-27.022946
 30
0.0
 10
13.758160
 20
-27.327125
 30
0.0
 10
13.732503
 20
-27.582000
 30
0.0
 10
13.709553
 20
-27.770948
 30
0.0
 10
13.690045
 20
-27.890328
 30
0.0
 10
13.674721
 20
-27.952755
 30
0.0
 10
13.664312
 20
-27.970817
 30
0.0
 10
13.664311
 20
-27.970817
 30
0.0
 10
13.664310
 20
-27.970817
 30
0.0
 10
13.664308
 20
-27.970817
 30
0.0
 10
13.664307
 20
-27.970817
 30
0.0
 10
13.664305
 20
-27.970817
 30
0.0
 10
13.664304
 20
-27.970817
 30
0.0
 10
13.664303
 20
-27.970817
 30
0.0
 10
13.664295
 20
-27.970761
 30
0.0
  0
LWPOLYLINE
  5
11e
100
AcDbEntity
  8
Layer_1
 62
7
100
AcDbPolyline
 90
65
 70
1
 10
14.602156
 20
-20.216423
 30
0.0
 10
14.664087
 20
-18.916056
 30
0.0
 10
14.708419
 20
-15.862581
 30
0.0
 10
14.735176
 20
-12.327381
 30
0.0
 10
14.744391
 20
-9.581838
 30
0.0
 10
14.736085
 20
-7.740846
 30
0.0
 10
14.710290
 20
-5.994201
 30
0.0
 10
14.667030
 20
-4.225543
 30
0.0
 10
14.606333
 20
-2.318454
 30
0.0
 10
14.475598
 20
2.377611
 30
0.0
 10
14.387345
 20
7.423151
 30
0.0
 10
14.340661
 20
12.517460
 30
0.0
 10
14.334636
 20
17.359846
 30
0.0
 10
14.368359
 20
21.649595
 30
0.0
 10
14.440919
 20
25.086007
 30
0.0
 10
14.551404
 20
27.368369
 30
0.0
 10
14.698904
 20
28.195980
 30
0.0
 10
14.759007
 20
28.135982
 30
0.0
 10
14.800820
 20
27.938359
 30
0.0
 10
14.824151
 20
27.576660
 30
0.0
 10
14.828808
 20
27.024439
 30
0.0
 10
14.814601
 20
26.255248
 30
0.0
 10
14.781339
 20
25.242634
 30
0.0
 10
14.728831
 20
23.960154
 30
0.0
 10
14.656885
 20
22.381355
 30
0.0
 10
14.614298
 20
21.298861
 30
0.0
 10
14.584080
 20
20.107765
 30
0.0
 10
14.566244
 20
18.785260
 30
0.0
 10
14.560799
 20
17.308552
 30
0.0
 10
14.567756
 20
15.654837
 30
0.0
 10
14.587128
 20
13.801317
 30
0.0
 10
14.618922
 20
11.725178
 30
0.0
 10
14.663151
 20
9.403646
 30
0.0
 10
14.786461
 20
3.336884
 30
0.0
 10
14.878993
 20
-1.482456
 30
0.0
 10
14.943219
 20
-5.323839
 30
0.0
 10
14.981610
 20
-8.456788
 30
0.0
 10
14.996635
 20
-11.150796
 30
0.0
 10
14.990765
 20
-13.675359
 30
0.0
 10
14.966471
 20
-16.299969
 30
0.0
 10
14.926224
 20
-19.294121
 30
0.0
 10
14.893635
 20
-21.351352
 30
0.0
 10
14.859446
 20
-23.140528
 30
0.0
 10
14.823722
 20
-24.659673
 30
0.0
 10
14.786527
 20
-25.906898
 30
0.0
 10
14.747927
 20
-26.880311
 30
0.0
 10
14.707988
 20
-27.577964
 30
0.0
 10
14.666774
 20
-27.997967
 30
0.0
 10
14.624351
 20
-28.138401
 30
0.0
 10
14.585239
 20
-28.019162
 30
0.0
 10
14.556531
 20
-27.658849
 30
0.0
 10
14.538217
 20
-27.053595
 30
0.0
 10
14.530287
 20
-26.199478
 30
0.0
 10
14.532714
 20
-24.713437
 30
0.0
 10
14.545516
 20
-22.718013
 30
0.0
 10
14.568666
 20
-20.967558
 30
0.0
 10
14.602157
 20
-20.216423
 30
0.0
 10
14.602155
 20
-20.216423
 30
0.0
 10
14.602154
 20
-20.216423
 30
0.0
 10
14.602152
 20
-20.216423
 30
0.0
 10
14.602150
 20
-20.216423
 30
0.0
 10
14.602148
 20
-20.216423
 30
0.0
 10
14.602146
 20
-20.216423
 30
0.0
 10
14.602145
 20
-20.216423
 30
0.0
 10
14.602156
 20
-20.216423
 30
0.0
  0
LWPOLYLINE
  5
11f
100
AcDbEntity
  8
Layer_1
 62
7
100
AcDbPolyline
 90
73
 70
1
 10
15.451487
 20
-22.228385
 30
0.0
 10
15.511974
 20
-19.363858
 30
0.0
 10
15.556227
 20
-16.261897
 30
0.0
 10
15.584130
 20
-13.034996
 30
0.0
 10
15.595577
 20
-9.795734
 30
0.0
 10
15.590452
 20
-6.656577
 30
0.0
 10
15.568647
 20
-3.730130
 30
0.0
 10
15.530048
 20
-1.128859
 30
0.0
 10
15.474544
 20
1.034628
 30
0.0
 10
15.318938
 20
5.726347
 30
0.0
 10
15.203126
 20
9.422272
 30
0.0
 10
15.124335
 20
12.327299
 30
0.0
 10
15.079791
 20
14.646319
 30
0.0
 10
15.066718
 20
16.584212
 30
0.0
 10
15.082345
 20
18.345882
 30
0.0
 10
15.123895
 20
20.136213
 30
0.0
 10
15.188596
 20
22.160093
 30
0.0
 10
15.230653
 20
23.357119
 30
0.0
 10
15.272349
 20
24.476604
 30
0.0
 10
15.312597
 20
25.493849
 30
0.0
 10
15.350306
 20
26.384147
 30
0.0
 10
15.384390
 20
27.122801
 30
0.0
 10
15.413759
 20
27.685110
 30
0.0
 10
15.437324
 20
28.046365
 30
0.0
 10
15.453998
 20
28.181869
 30
0.0
 10
15.525591
 20
28.212182
 30
0.0
 10
15.577563
 20
28.098565
 30
0.0
 10
15.610129
 20
27.807650
 30
0.0
 10
15.623506
 20
27.306060
 30
0.0
 10
15.617912
 20
26.560429
 30
0.0
 10
15.593562
 20
25.537384
 30
0.0
 10
15.550676
 20
24.203554
 30
0.0
 10
15.489469
 20
22.525571
 30
0.0
 10
15.427713
 20
20.297728
 30
0.0
 10
15.398817
 20
17.804622
 30
0.0
 10
15.401898
 20
15.098416
 30
0.0
 10
15.436079
 20
12.231258
 30
0.0
 10
15.500478
 20
9.255338
 30
0.0
 10
15.594215
 20
6.222776
 30
0.0
 10
15.716411
 20
3.185754
 30
0.0
 10
15.866185
 20
0.196428
 30
0.0
 10
15.979216
 20
-2.067333
 30
0.0
 10
16.062976
 20
-4.265449
 30
0.0
 10
16.117615
 20
-6.426622
 30
0.0
 10
16.143280
 20
-8.579470
 30
0.0
 10
16.140122
 20
-10.752694
 30
0.0
 10
16.108292
 20
-12.974911
 30
0.0
 10
16.047936
 20
-15.274768
 30
0.0
 10
15.959206
 20
-17.680939
 30
0.0
 10
15.904296
 20
-19.038540
 30
0.0
 10
15.853072
 20
-20.381946
 30
0.0
 10
15.806653
 20
-21.676246
 30
0.0
 10
15.766160
 20
-22.886556
 30
0.0
 10
15.732715
 20
-23.977994
 30
0.0
 10
15.707436
 20
-24.915621
 30
0.0
 10
15.691448
 20
-25.664554
 30
0.0
 10
15.685869
 20
-26.189939
 30
0.0
 10
15.683032
 20
-26.658230
 30
0.0
 10
15.674430
 20
-27.059465
 30
0.0
 10
15.659921
 20
-27.395056
 30
0.0
 10
15.639364
 20
-27.666469
 30
0.0
 10
15.612621
 20
-27.875059
 30
0.0
 10
15.579548
 20
-28.022323
 30
0.0
 10
15.540008
 20
-28.109614
 30
0.0
 10
15.493860
 20
-28.138401
 30
0.0
 10
15.446664
 20
-28.063979
 30
0.0
 10
15.411660
 20
-27.830468
 30
0.0
 10
15.388738
 20
-27.422516
 30
0.0
 10
15.377785
 20
-26.824769
 30
0.0
 10
15.378688
 20
-26.021819
 30
0.0
 10
15.391348
 20
-24.998368
 30
0.0
 10
15.415647
 20
-23.739008
 30
0.0
 10
15.451487
 20
-22.228385
 30
0.0
  0
LWPOLYLINE
  5
120
100
AcDbEntity
  8
Layer_1
 62
7
100
AcDbPolyline
 90
145
 70
1
 10
16.417006
 20
-23.318045
 30
0.0
 10
16.442612
 20
-22.298433
 30
0.0
 10
16.475076
 20
-21.248002
 30
0.0
 10
16.513077
 20
-20.196837
 30
0.0
 10
16.555289
 20
-19.175023
 30
0.0
 10
16.600389
 20
-18.212645
 30
0.0
 10
16.647053
 20
-17.339760
 30
0.0
 10
16.693958
 20
-16.586453
 30
0.0
 10
16.739778
 20
-15.982808
 30
0.0
 10
16.840159
 20
-14.412410
 30
0.0
 10
16.907616
 20
-12.492537
 30
0.0
 10
16.942805
 20
-10.346830
 30
0.0
 10
16.946384
 20
-8.098930
 30
0.0
 10
16.919003
 20
-5.872450
 30
0.0
 10
16.861321
 20
-3.791033
 30
0.0
 10
16.773992
 20
-1.978320
 30
0.0
 10
16.657672
 20
-0.557952
 30
0.0
 10
16.595827
 20
0.087857
 30
0.0
 10
16.526387
 20
0.962182
 30
0.0
 10
16.451711
 20
2.026470
 30
0.0
 10
16.374160
 20
3.242114
 30
0.0
 10
16.296093
 20
4.570534
 30
0.0
 10
16.219870
 20
5.973178
 30
0.0
 10
16.147851
 20
7.411467
 30
0.0
 10
16.082396
 20
8.846821
 30
0.0
 10
15.996744
 20
10.893836
 30
0.0
 10
15.933857
 20
12.584968
 30
0.0
 10
15.893160
 20
13.997349
 30
0.0
 10
15.874076
 20
15.208113
 30
0.0
 10
15.876023
 20
16.294355
 30
0.0
 10
15.898446
 20
17.333201
 30
0.0
 10
15.940757
 20
18.401776
 30
0.0
 10
16.002384
 20
19.577195
 30
0.0
 10
16.048076
 20
20.397392
 30
0.0
 10
16.094525
 20
21.256832
 30
0.0
 10
16.140440
 20
22.129966
 30
0.0
 10
16.184531
 20
22.991237
 30
0.0
 10
16.225508
 20
23.815098
 30
0.0
 10
16.262081
 20
24.575994
 30
0.0
 10
16.292960
 20
25.248375
 30
0.0
 10
16.316853
 20
25.806686
 30
0.0
 10
16.328958
 20
26.105348
 30
0.0
 10
16.341062
 20
26.404010
 30
0.0
 10
16.353167
 20
26.702671
 30
0.0
 10
16.365271
 20
27.001333
 30
0.0
 10
16.377376
 20
27.299995
 30
0.0
 10
16.389480
 20
27.598656
 30
0.0
 10
16.401585
 20
27.897318
 30
0.0
 10
16.413689
 20
28.195980
 30
0.0
 10
16.466626
 20
28.195980
 30
0.0
 10
16.519563
 20
28.195980
 30
0.0
 10
16.572500
 20
28.195980
 30
0.0
 10
16.625436
 20
28.195980
 30
0.0
 10
16.678373
 20
28.195980
 30
0.0
 10
16.731310
 20
28.195980
 30
0.0
 10
16.784247
 20
28.195980
 30
0.0
 10
16.837183
 20
28.195980
 30
0.0
 10
16.890120
 20
28.195980
 30
0.0
 10
16.943056
 20
28.195980
 30
0.0
 10
16.995993
 20
28.195980
 30
0.0
 10
17.048929
 20
28.195980
 30
0.0
 10
17.101865
 20
28.195980
 30
0.0
 10
17.154802
 20
28.195980
 30
0.0
 10
17.207738
 20
28.195980
 30
0.0
 10
17.260675
 20
28.195980
 30
0.0
 10
17.248497
 20
27.886839
 30
0.0
 10
17.236322
 20
27.577701
 30
0.0
 10
17.224144
 20
27.268561
 30
0.0
 10
17.211966
 20
26.959423
 30
0.0
 10
17.199791
 20
26.650282
 30
0.0
 10
17.187613
 20
26.341145
 30
0.0
 10
17.175438
 20
26.032004
 30
0.0
 10
17.163260
 20
25.722866
 30
0.0
 10
17.138063
 20
25.179939
 30
0.0
 10
17.103675
 20
24.584125
 30
0.0
 10
17.061626
 20
23.954857
 30
0.0
 10
17.013449
 20
23.311560
 30
0.0
 10
16.960673
 20
22.673658
 30
0.0
 10
16.904830
 20
22.060584
 30
0.0
 10
16.847449
 20
21.491760
 30
0.0
 10
16.790062
 20
20.986613
 30
0.0
 10
16.669489
 20
19.892909
 30
0.0
 10
16.580355
 20
18.812348
 30
0.0
 10
16.522058
 20
17.685019
 30
0.0
 10
16.493994
 20
16.451020
 30
0.0
 10
16.495546
 20
15.050438
 30
0.0
 10
16.526139
 20
13.423365
 30
0.0
 10
16.585154
 20
11.509898
 30
0.0
 10
16.671989
 20
9.250117
 30
0.0
 10
16.746856
 20
7.550942
 30
0.0
 10
16.826686
 20
6.038118
 30
0.0
 10
16.917556
 20
4.642642
 30
0.0
 10
17.025545
 20
3.295538
 30
0.0
 10
17.156731
 20
1.927833
 30
0.0
 10
17.317193
 20
0.470494
 30
0.0
 10
17.513010
 20
-1.145454
 30
0.0
 10
17.750258
 20
-2.989014
 30
0.0
 10
17.843372
 20
-3.970498
 30
0.0
 10
17.905140
 20
-5.205983
 30
0.0
 10
17.936206
 20
-6.622879
 30
0.0
 10
17.937222
 20
-8.148573
 30
0.0
 10
17.908821
 20
-9.710447
 30
0.0
 10
17.851654
 20
-11.235886
 30
0.0
 10
17.766364
 20
-12.652275
 30
0.0
 10
17.653597
 20
-13.887025
 30
0.0
 10
17.584855
 20
-14.577764
 30
0.0
 10
17.521276
 20
-15.383085
 30
0.0
 10
17.463115
 20
-16.297457
 30
0.0
 10
17.410627
 20
-17.315376
 30
0.0
 10
17.364069
 20
-18.431339
 30
0.0
 10
17.323694
 20
-19.639815
 30
0.0
 10
17.289758
 20
-20.935271
 30
0.0
 10
17.262515
 20
-22.312205
 30
0.0
 10
17.250267
 20
-23.040480
 30
0.0
 10
17.238018
 20
-23.768754
 30
0.0
 10
17.225770
 20
-24.497029
 30
0.0
 10
17.213521
 20
-25.225303
 30
0.0
 10
17.201273
 20
-25.953578
 30
0.0
 10
17.189024
 20
-26.681852
 30
0.0
 10
17.176776
 20
-27.410126
 30
0.0
 10
17.164528
 20
-28.138401
 30
0.0
 10
17.111220
 20
-28.138401
 30
0.0
 10
17.057912
 20
-28.138401
 30
0.0
 10
17.004604
 20
-28.138401
 30
0.0
 10
16.951296
 20
-28.138401
 30
0.0
 10
16.897988
 20
-28.138401
 30
0.0
 10
16.844680
 20
-28.138401
 30
0.0
 10
16.791372
 20
-28.138401
 30
0.0
 10
16.738064
 20
-28.138401
 30
0.0
 10
16.684757
 20
-28.138401
 30
0.0
 10
16.631449
 20
-28.138401
 30
0.0
 10
16.578142
 20
-28.138401
 30
0.0
 10
16.524834
 20
-28.138401
 30
0.0
 10
16.471527
 20
-28.138401
 30
0.0
 10
16.418219
 20
-28.138401
 30
0.0
 10
16.364912
 20
-28.138401
 30
0.0
 10
16.311604
 20
-28.138401
 30
0.0
 10
16.324775
 20
-27.535856
 30
0.0
 10
16.337947
 20
-26.933312
 30
0.0
 10
16.351118
 20
-26.330768
 30
0.0
 10
16.364289
 20
-25.728223
 30
0.0
 10
16.377461
 20
-25.125679
 30
0.0
 10
16.390632
 20
-24.523134
 30
0.0
 10
16.403803
 20
-23.920590
 30
0.0
 10
16.417006
 20
-23.318045
 30
0.0
  0
LWPOLYLINE
  5
121
100
AcDbEntity
  8
Layer_1
 62
7
100
AcDbPolyline
 90
161
 70
1
 10
18.851161
 20
-28.012530
 30
0.0
 10
18.831696
 20
-27.965314
 30
0.0
 10
18.805167
 20
-27.835407
 30
0.0
 10
18.772754
 20
-27.640392
 30
0.0
 10
18.735634
 20
-27.397850
 30
0.0
 10
18.694988
 20
-27.117236
 30
0.0
 10
18.651993
 20
-26.801599
 30
0.0
 10
18.607829
 20
-26.458727
 30
0.0
 10
18.563677
 20
-26.096523
 30
0.0
 10
18.475573
 20
-25.047926
 30
0.0
 10
18.428350
 20
-23.780890
 30
0.0
 10
18.420309
 20
-22.351406
 30
0.0
 10
18.449756
 20
-20.815412
 30
0.0
 10
18.514993
 20
-19.228871
 30
0.0
 10
18.614324
 20
-17.647721
 30
0.0
 10
18.746052
 20
-16.127954
 30
0.0
 10
18.908481
 20
-14.725508
 30
0.0
 10
19.019132
 20
-13.864730
 30
0.0
 10
19.103480
 20
-13.104621
 30
0.0
 10
19.163742
 20
-12.384587
 30
0.0
 10
19.202134
 20
-11.644036
 30
0.0
 10
19.220871
 20
-10.822346
 30
0.0
 10
19.222169
 20
-9.858896
 30
0.0
 10
19.208247
 20
-8.693120
 30
0.0
 10
19.181321
 20
-7.264399
 30
0.0
 10
19.152114
 20
-6.028999
 30
0.0
 10
19.118126
 20
-4.942782
 30
0.0
 10
19.078109
 20
-3.986416
 30
0.0
 10
19.030815
 20
-3.140483
 30
0.0
 10
18.974996
 20
-2.385680
 30
0.0
 10
18.909406
 20
-1.702589
 30
0.0
 10
18.832797
 20
-1.071879
 30
0.0
 10
18.743921
 20
-0.474132
 30
0.0
 10
18.575121
 20
0.874552
 30
0.0
 10
18.412726
 20
2.734114
 30
0.0
 10
18.263396
 20
4.961891
 30
0.0
 10
18.133794
 20
7.415080
 30
0.0
 10
18.030581
 20
9.950959
 30
0.0
 10
17.960419
 20
12.426810
 30
0.0
 10
17.929969
 20
14.699856
 30
0.0
 10
17.945892
 20
16.627409
 30
0.0
 10
17.970954
 20
17.462837
 30
0.0
 10
18.004931
 20
18.269250
 30
0.0
 10
18.047706
 20
19.045096
 30
0.0
 10
18.099159
 20
19.788828
 30
0.0
 10
18.159171
 20
20.498888
 30
0.0
 10
18.227626
 20
21.173732
 30
0.0
 10
18.304403
 20
21.811803
 30
0.0
 10
18.389384
 20
22.411553
 30
0.0
 10
18.463892
 20
22.918190
 30
0.0
 10
18.537496
 20
23.458617
 30
0.0
 10
18.608294
 20
24.016170
 30
0.0
 10
18.674385
 20
24.574185
 30
0.0
 10
18.733863
 20
25.115993
 30
0.0
 10
18.784827
 20
25.624930
 30
0.0
 10
18.825377
 20
26.084331
 30
0.0
 10
18.853615
 20
26.477529
 30
0.0
 10
18.866608
 20
26.692334
 30
0.0
 10
18.879602
 20
26.907141
 30
0.0
 10
18.892595
 20
27.121946
 30
0.0
 10
18.905589
 20
27.336754
 30
0.0
 10
18.918582
 20
27.551559
 30
0.0
 10
18.931576
 20
27.766367
 30
0.0
 10
18.944569
 20
27.981172
 30
0.0
 10
18.957563
 20
28.195980
 30
0.0
 10
19.018525
 20
28.195980
 30
0.0
 10
19.079487
 20
28.195980
 30
0.0
 10
19.140450
 20
28.195980
 30
0.0
 10
19.201413
 20
28.195980
 30
0.0
 10
19.262375
 20
28.195980
 30
0.0
 10
19.323337
 20
28.195980
 30
0.0
 10
19.384300
 20
28.195980
 30
0.0
 10
19.445262
 20
28.195980
 30
0.0
 10
19.506225
 20
28.195980
 30
0.0
 10
19.567187
 20
28.195980
 30
0.0
 10
19.628150
 20
28.195980
 30
0.0
 10
19.689112
 20
28.195980
 30
0.0
 10
19.750075
 20
28.195980
 30
0.0
 10
19.811037
 20
28.195980
 30
0.0
 10
19.872000
 20
28.195980
 30
0.0
 10
19.932962
 20
28.195980
 30
0.0
 10
19.921577
 20
28.064992
 30
0.0
 10
19.910192
 20
27.934007
 30
0.0
 10
19.898808
 20
27.803019
 30
0.0
 10
19.887423
 20
27.672034
 30
0.0
 10
19.876038
 20
27.541046
 30
0.0
 10
19.864653
 20
27.410061
 30
0.0
 10
19.853268
 20
27.279074
 30
0.0
 10
19.841883
 20
27.148089
 30
0.0
 10
19.816867
 20
26.865739
 30
0.0
 10
19.780540
 20
26.463409
 30
0.0
 10
19.734627
 20
25.959834
 30
0.0
 10
19.680852
 20
25.373757
 30
0.0
 10
19.620937
 20
24.723915
 30
0.0
 10
19.556607
 20
24.029048
 30
0.0
 10
19.489586
 20
23.307894
 30
0.0
 10
19.421598
 20
22.579193
 30
0.0
 10
19.248814
 20
20.706237
 30
0.0
 10
19.119166
 20
19.214351
 30
0.0
 10
19.029411
 20
18.023381
 30
0.0
 10
18.976308
 20
17.053175
 30
0.0
 10
18.956614
 20
16.223582
 30
0.0
 10
18.967090
 20
15.454454
 30
0.0
 10
19.004492
 20
14.665623
 30
0.0
 10
19.065578
 20
13.776961
 30
0.0
 10
19.248311
 20
11.207215
 30
0.0
 10
19.401723
 20
8.782418
 30
0.0
 10
19.528209
 20
6.440905
 30
0.0
 10
19.630164
 20
4.121038
 30
0.0
 10
19.709980
 20
1.761209
 30
0.0
 10
19.770054
 20
-0.700277
 30
0.0
 10
19.812778
 20
-3.325056
 30
0.0
 10
19.840545
 20
-6.174739
 30
0.0
 10
19.855235
 20
-8.001620
 30
0.0
 10
19.873625
 20
-9.884550
 30
0.0
 10
19.894978
 20
-11.769568
 30
0.0
 10
19.918557
 20
-13.602658
 30
0.0
 10
19.943624
 20
-15.329830
 30
0.0
 10
19.969442
 20
-16.897151
 30
0.0
 10
19.995274
 20
-18.250576
 30
0.0
 10
20.020380
 20
-19.336172
 30
0.0
 10
20.041694
 20
-20.289152
 30
0.0
 10
20.056649
 20
-21.262564
 30
0.0
 10
20.065270
 20
-22.229034
 30
0.0
 10
20.067585
 20
-23.161243
 30
0.0
 10
20.063619
 20
-24.031842
 30
0.0
 10
20.053395
 20
-24.813484
 30
0.0
 10
20.036941
 20
-25.478852
 30
0.0
 10
20.014284
 20
-26.000568
 30
0.0
 10
19.998674
 20
-26.267804
 30
0.0
 10
19.983062
 20
-26.535040
 30
0.0
 10
19.967452
 20
-26.802248
 30
0.0
 10
19.951840
 20
-27.069484
 30
0.0
 10
19.936230
 20
-27.336720
 30
0.0
 10
19.920617
 20
-27.603957
 30
0.0
 10
19.905008
 20
-27.871165
 30
0.0
 10
19.889395
 20
-28.138401
 30
0.0
 10
19.829214
 20
-28.138401
 30
0.0
 10
19.769034
 20
-28.138401
 30
0.0
 10
19.708853
 20
-28.138401
 30
0.0
 10
19.648672
 20
-28.138401
 30
0.0
 10
19.588492
 20
-28.138401
 30
0.0
 10
19.528311
 20
-28.138401
 30
0.0
 10
19.468130
 20
-28.138401
 30
0.0
 10
19.407949
 20
-28.138401
 30
0.0
 10
19.309699
 20
-28.135579
 30
0.0
 10
19.215067
 20
-28.128241
 30
0.0
 10
19.126337
 20
-28.116670
 30
0.0
 10
19.045795
 20
-28.101148
 30
0.0
 10
18.975722
 20
-28.077723
 30
0.0
 10
18.918402
 20
-28.048231
 30
0.0
 10
18.876120
 20
-28.023113
 30
0.0
 10
18.851160
 20
-28.012389
 30
0.0
 10
18.851159
 20
-28.012389
 30
0.0
 10
18.851158
 20
-28.012389
 30
0.0
 10
18.851157
 20
-28.012389
 30
0.0
 10
18.851156
 20
-28.012389
 30
0.0
 10
18.851155
 20
-28.012389
 30
0.0
 10
18.851154
 20
-28.012389
 30
0.0
 10
18.851153
 20
-28.012389
 30
0.0
 10
18.851161
 20
-28.012530
 30
0.0
  0
LWPOLYLINE
  5
122
100
AcDbEntity
  8
Layer_1
 62
7
100
AcDbPolyline
 90
241
 70
1
 10
21.131951
 20
-26.168490
 30
0.0
 10
20.917756
 20
-23.824888
 30
0.0
 10
20.758836
 20
-21.643339
 30
0.0
 10
20.654772
 20
-19.587971
 30
0.0
 10
20.605146
 20
-17.622886
 30
0.0
 10
20.609537
 20
-15.712128
 30
0.0
 10
20.667530
 20
-13.819885
 30
0.0
 10
20.778703
 20
-11.910200
 30
0.0
 10
20.942638
 20
-9.947203
 30
0.0
 10
21.013390
 20
-9.185147
 30
0.0
 10
21.086266
 20
-8.368396
 30
0.0
 10
21.159181
 20
-7.522350
 30
0.0
 10
21.230048
 20
-6.672522
 30
0.0
 10
21.296781
 20
-5.844285
 30
0.0
 10
21.357293
 20
-5.063094
 30
0.0
 10
21.409498
 20
-4.354434
 30
0.0
 10
21.451310
 20
-3.743676
 30
0.0
 10
21.543464
 20
-2.395557
 30
0.0
 10
21.638252
 20
-1.189001
 30
0.0
 10
21.744128
 20
-0.052887
 30
0.0
 10
21.869550
 20
1.083932
 30
0.0
 10
22.022973
 20
2.292605
 30
0.0
 10
22.212854
 20
3.644224
 30
0.0
 10
22.447650
 20
5.209965
 30
0.0
 10
22.735816
 20
7.060919
 30
0.0
 10
22.890626
 20
8.068932
 30
0.0
 10
23.041525
 20
9.098592
 30
0.0
 10
23.184747
 20
10.121026
 30
0.0
 10
23.316525
 20
11.107280
 30
0.0
 10
23.433094
 20
12.028454
 30
0.0
 10
23.530686
 20
12.855619
 30
0.0
 10
23.605537
 20
13.559848
 30
0.0
 10
23.653879
 20
14.112241
 30
0.0
 10
23.690324
 20
14.616544
 30
0.0
 10
23.731077
 20
15.182944
 30
0.0
 10
23.774764
 20
15.792192
 30
0.0
 10
23.820008
 20
16.425019
 30
0.0
 10
23.865436
 20
17.062175
 30
0.0
 10
23.909673
 20
17.684396
 30
0.0
 10
23.951344
 20
18.272428
 30
0.0
 10
23.989075
 20
18.807011
 30
0.0
 10
24.036138
 20
19.390937
 30
0.0
 10
24.095432
 20
19.983279
 30
0.0
 10
24.166181
 20
20.578740
 30
0.0
 10
24.247607
 20
21.172033
 30
0.0
 10
24.338935
 20
21.757864
 30
0.0
 10
24.439387
 20
22.330945
 30
0.0
 10
24.548188
 20
22.885977
 30
0.0
 10
24.664559
 20
23.417675
 30
0.0
 10
24.768166
 20
23.881976
 30
0.0
 10
24.869323
 20
24.366399
 30
0.0
 10
24.965491
 20
24.856684
 30
0.0
 10
25.054133
 20
25.338559
 30
0.0
 10
25.132710
 20
25.797757
 30
0.0
 10
25.198684
 20
26.220012
 30
0.0
 10
25.249519
 20
26.591058
 30
0.0
 10
25.282680
 20
26.896629
 30
0.0
 10
25.296904
 20
27.059047
 30
0.0
 10
25.311128
 20
27.221466
 30
0.0
 10
25.325352
 20
27.383885
 30
0.0
 10
25.339576
 20
27.546304
 30
0.0
 10
25.353800
 20
27.708723
 30
0.0
 10
25.368024
 20
27.871142
 30
0.0
 10
25.382248
 20
28.033561
 30
0.0
 10
25.396472
 20
28.195980
 30
0.0
 10
25.469665
 20
28.195980
 30
0.0
 10
25.542858
 20
28.195980
 30
0.0
 10
25.616050
 20
28.195980
 30
0.0
 10
25.689243
 20
28.195980
 30
0.0
 10
25.762436
 20
28.195980
 30
0.0
 10
25.835629
 20
28.195980
 30
0.0
 10
25.908822
 20
28.195980
 30
0.0
 10
25.982015
 20
28.195980
 30
0.0
 10
26.055208
 20
28.195980
 30
0.0
 10
26.128401
 20
28.195980
 30
0.0
 10
26.201594
 20
28.195980
 30
0.0
 10
26.274787
 20
28.195980
 30
0.0
 10
26.347980
 20
28.195980
 30
0.0
 10
26.421173
 20
28.195980
 30
0.0
 10
26.494365
 20
28.195980
 30
0.0
 10
26.567558
 20
28.195980
 30
0.0
 10
26.553394
 20
28.064995
 30
0.0
 10
26.539229
 20
27.934007
 30
0.0
 10
26.525064
 20
27.803019
 30
0.0
 10
26.510899
 20
27.672034
 30
0.0
 10
26.496735
 20
27.541049
 30
0.0
 10
26.482570
 20
27.410061
 30
0.0
 10
26.468405
 20
27.279074
 30
0.0
 10
26.454241
 20
27.148089
 30
0.0
 10
26.384764
 20
26.569697
 30
0.0
 10
26.295228
 20
25.923817
 30
0.0
 10
26.190055
 20
25.236253
 30
0.0
 10
26.073671
 20
24.532806
 30
0.0
 10
25.950503
 20
23.839281
 30
0.0
 10
25.824974
 20
23.181481
 30
0.0
 10
25.701508
 20
22.585210
 30
0.0
 10
25.584530
 20
22.076273
 30
0.0
 10
25.527709
 20
21.770364
 30
0.0
 10
25.466441
 20
21.304497
 30
0.0
 10
25.402179
 20
20.696065
 30
0.0
 10
25.336379
 20
19.962462
 30
0.0
 10
25.270495
 20
19.121085
 30
0.0
 10
25.205980
 20
18.189320
 30
0.0
 10
25.144289
 20
17.184563
 30
0.0
 10
25.086877
 20
16.124206
 30
0.0
 10
24.997225
 20
14.383344
 30
0.0
 10
24.918268
 20
12.978047
 30
0.0
 10
24.839244
 20
11.791613
 30
0.0
 10
24.749397
 20
10.707371
 30
0.0
 10
24.637967
 20
9.608624
 30
0.0
 10
24.494195
 20
8.378699
 30
0.0
 10
24.307322
 20
6.900927
 30
0.0
 10
24.066590
 20
5.058552
 30
0.0
 10
23.875806
 20
3.422284
 30
0.0
 10
23.747574
 20
1.855358
 30
0.0
 10
23.682863
 20
0.309797
 30
0.0
 10
23.682643
 20
-1.262238
 30
0.0
 10
23.747882
 20
-2.908694
 30
0.0
 10
23.879549
 20
-4.677437
 30
0.0
 10
24.078613
 20
-6.616388
 30
0.0
 10
24.346043
 20
-8.773441
 30
0.0
 10
24.500179
 20
-9.967975
 30
0.0
 10
24.624343
 20
-11.006186
 30
0.0
 10
24.721521
 20
-11.927331
 30
0.0
 10
24.794699
 20
-12.770667
 30
0.0
 10
24.846861
 20
-13.575396
 30
0.0
 10
24.880995
 20
-14.380773
 30
0.0
 10
24.900084
 20
-15.226029
 30
0.0
 10
24.907114
 20
-16.150448
 30
0.0
 10
24.906663
 20
-17.154086
 30
0.0
 10
24.897400
 20
-17.964544
 30
0.0
 10
24.874286
 20
-18.634483
 30
0.0
 10
24.832287
 20
-19.216538
 30
0.0
 10
24.766368
 20
-19.763428
 30
0.0
 10
24.671495
 20
-20.327844
 30
0.0
 10
24.542634
 20
-20.962393
 30
0.0
 10
24.374750
 20
-21.719821
 30
0.0
 10
24.204430
 20
-22.520316
 30
0.0
 10
24.041465
 20
-23.374744
 30
0.0
 10
23.890589
 20
-24.250733
 30
0.0
 10
23.756533
 20
-25.115914
 30
0.0
 10
23.644031
 20
-25.937886
 30
0.0
 10
23.557813
 20
-26.684279
 30
0.0
 10
23.502612
 20
-27.322750
 30
0.0
 10
23.483161
 20
-27.820901
 30
0.0
 10
23.477663
 20
-27.891513
 30
0.0
 10
23.461478
 20
-27.954223
 30
0.0
 10
23.435067
 20
-28.008550
 30
0.0
 10
23.398895
 20
-28.054045
 30
0.0
 10
23.353421
 20
-28.090254
 30
0.0
 10
23.299108
 20
-28.116783
 30
0.0
 10
23.236417
 20
-28.132869
 30
0.0
 10
23.165811
 20
-28.138514
 30
0.0
 10
23.083168
 20
-28.130612
 30
0.0
 10
23.011512
 20
-28.106058
 30
0.0
 10
22.949714
 20
-28.062906
 30
0.0
 10
22.896645
 20
-27.999519
 30
0.0
 10
22.851173
 20
-27.914204
 30
0.0
 10
22.812170
 20
-27.805294
 30
0.0
 10
22.778506
 20
-27.671041
 30
0.0
 10
22.749051
 20
-27.509751
 30
0.0
 10
22.639076
 20
-26.696951
 30
0.0
 10
22.540501
 20
-25.729042
 30
0.0
 10
22.454166
 20
-24.622335
 30
0.0
 10
22.380914
 20
-23.393032
 30
0.0
 10
22.321586
 20
-22.057472
 30
0.0
 10
22.277024
 20
-20.631911
 30
0.0
 10
22.248069
 20
-19.132605
 30
0.0
 10
22.235564
 20
-17.575811
 30
0.0
 10
22.235308
 20
-16.179573
 30
0.0
 10
22.243896
 20
-15.002255
 30
0.0
 10
22.263798
 20
-13.993169
 30
0.0
 10
22.297489
 20
-13.101601
 30
0.0
 10
22.347440
 20
-12.276806
 30
0.0
 10
22.416122
 20
-11.468070
 30
0.0
 10
22.506008
 20
-10.624678
 30
0.0
 10
22.619569
 20
-9.695884
 30
0.0
 10
22.729221
 20
-8.788145
 30
0.0
 10
22.819845
 20
-7.914723
 30
0.0
 10
22.893803
 20
-7.032440
 30
0.0
 10
22.953454
 20
-6.098144
 30
0.0
 10
23.001160
 20
-5.068653
 30
0.0
 10
23.039280
 20
-3.900846
 30
0.0
 10
23.070175
 20
-2.551485
 30
0.0
 10
23.096205
 20
-0.977475
 30
0.0
 10
23.115105
 20
0.498829
 30
0.0
 10
23.125189
 20
1.708800
 30
0.0
 10
23.126036
 20
2.671602
 30
0.0
 10
23.117225
 20
3.406424
 30
0.0
 10
23.098336
 20
3.932429
 30
0.0
 10
23.068944
 20
4.268810
 30
0.0
 10
23.028630
 20
4.434728
 30
0.0
 10
22.976973
 20
4.449404
 30
0.0
 10
22.875727
 20
4.283316
 30
0.0
 10
22.781062
 20
3.971150
 30
0.0
 10
22.690541
 20
3.491852
 30
0.0
 10
22.601726
 20
2.824284
 30
0.0
 10
22.512178
 20
1.947306
 30
0.0
 10
22.419459
 20
0.839866
 30
0.0
 10
22.321132
 20
-0.519175
 30
0.0
 10
22.214758
 20
-2.150927
 30
0.0
 10
22.153998
 20
-3.065045
 30
0.0
 10
22.079787
 20
-4.089850
 30
0.0
 10
21.995002
 20
-5.190573
 30
0.0
 10
21.902522
 20
-6.332557
 30
0.0
 10
21.805224
 20
-7.480976
 30
0.0
 10
21.705986
 20
-8.601172
 30
0.0
 10
21.607685
 20
-9.658377
 30
0.0
 10
21.513199
 20
-10.617876
 30
0.0
 10
21.381270
 20
-11.944885
 30
0.0
 10
21.280140
 20
-13.060622
 30
0.0
 10
21.207107
 20
-14.030846
 30
0.0
 10
21.159467
 20
-14.921313
 30
0.0
 10
21.134522
 20
-15.797783
 30
0.0
 10
21.129563
 20
-16.726068
 30
0.0
 10
21.141893
 20
-17.771871
 30
0.0
 10
21.168809
 20
-19.001005
 30
0.0
 10
21.194059
 20
-19.857239
 30
0.0
 10
21.227665
 20
-20.748610
 30
0.0
 10
21.268172
 20
-21.649040
 30
0.0
 10
21.314127
 20
-22.532339
 30
0.0
 10
21.364076
 20
-23.372430
 30
0.0
 10
21.416565
 20
-24.143207
 30
0.0
 10
21.470138
 20
-24.818480
 30
0.0
 10
21.523343
 20
-25.372172
 30
0.0
 10
21.626397
 20
-26.322075
 30
0.0
 10
21.700321
 20
-27.025514
 30
0.0
 10
21.745574
 20
-27.519459
 30
0.0
 10
21.762614
 20
-27.840769
 30
0.0
 10
21.751904
 20
-28.026415
 30
0.0
 10
21.713898
 20
-28.113311
 30
0.0
 10
21.649058
 20
-28.138429
 30
0.0
 10
21.557843
 20
-28.138570
 30
0.0
 10
21.496698
 20
-28.113452
 30
0.0
 10
21.439935
 20
-28.035023
 30
0.0
 10
21.386493
 20
-27.898314
 30
0.0
 10
21.335310
 20
-27.698388
 30
0.0
 10
21.285325
 20
-27.430362
 30
0.0
 10
21.235477
 20
-27.089324
 30
0.0
 10
21.184703
 20
-26.670394
 30
0.0
 10
21.131951
 20
-26.168490
 30
0.0
  0
LWPOLYLINE
  5
123
100
AcDbEntity
  8
Layer_1
 62
7
100
AcDbPolyline
 90
41
 70
1
 10
23.907040
 20
-20.551703
 30
0.0
 10
24.080297
 20
-19.895819
 30
0.0
 10
24.221967
 20
-19.178043
 30
0.0
 10
24.331250
 20
-18.409467
 30
0.0
 10
24.407349
 20
-17.601211
 30
0.0
 10
24.449466
 20
-16.764394
 30
0.0
 10
24.456801
 20
-15.910079
 30
0.0
 10
24.428559
 20
-15.049442
 30
0.0
 10
24.363939
 20
-14.193519
 30
0.0
 10
24.274586
 20
-13.380832
 30
0.0
 10
24.172011
 20
-12.627693
 30
0.0
 10
24.058298
 20
-11.943389
 30
0.0
 10
23.935528
 20
-11.337176
 30
0.0
 10
23.805783
 20
-10.818367
 30
0.0
 10
23.671145
 20
-10.396190
 30
0.0
 10
23.533695
 20
-10.079932
 30
0.0
 10
23.395516
 20
-9.878905
 30
0.0
 10
23.327928
 20
-9.814333
 30
0.0
 10
23.272007
 20
-9.772451
 30
0.0
 10
23.225516
 20
-9.754389
 30
0.0
 10
23.186225
 20
-9.761727
 30
0.0
 10
23.151897
 20
-9.795368
 30
0.0
 10
23.120301
 20
-9.856666
 30
0.0
 10
23.089201
 20
-9.946836
 30
0.0
 10
23.056364
 20
-10.067148
 30
0.0
 10
23.003395
 20
-10.691282
 30
0.0
 10
22.962842
 20
-11.955920
 30
0.0
 10
22.935419
 20
-13.646346
 30
0.0
 10
22.921841
 20
-15.547875
 30
0.0
 10
22.922829
 20
-17.445791
 30
0.0
 10
22.939082
 20
-19.125380
 30
0.0
 10
22.971321
 20
-20.371956
 30
0.0
 10
23.020260
 20
-20.970803
 30
0.0
 10
23.106076
 20
-21.204540
 30
0.0
 10
23.205096
 20
-21.353666
 30
0.0
 10
23.314294
 20
-21.419593
 30
0.0
 10
23.430644
 20
-21.403788
 30
0.0
 10
23.551120
 20
-21.307664
 30
0.0
 10
23.672696
 20
-21.132629
 30
0.0
 10
23.792346
 20
-20.880182
 30
0.0
 10
23.907040
 20
-20.551703
 30
0.0
  0
LWPOLYLINE
  5
124
100
AcDbEntity
  8
Layer_1
 62
7
100
AcDbPolyline
 90
137
 70
1
 10
25.349274
 20
-26.084670
 30
0.0
 10
25.354636
 20
-25.867584
 30
0.0
 10
25.369411
 20
-25.333564
 30
0.0
 10
25.392573
 20
-24.658516
 30
0.0
 10
25.423102
 20
-24.018352
 30
0.0
 10
25.459975
 20
-23.456532
 30
0.0
 10
25.502172
 20
-22.910658
 30
0.0
 10
25.548668
 20
-22.397775
 30
0.0
 10
25.598444
 20
-21.934874
 30
0.0
 10
25.813175
 20
-20.069244
 30
0.0
 10
25.967950
 20
-18.549844
 30
0.0
 10
26.063542
 20
-17.273720
 30
0.0
 10
26.100722
 20
-16.137917
 30
0.0
 10
26.080261
 20
-15.039508
 30
0.0
 10
26.002933
 20
-13.875482
 30
0.0
 10
25.869509
 20
-12.542942
 30
0.0
 10
25.680759
 20
-10.938932
 30
0.0
 10
25.541876
 20
-9.761162
 30
0.0
 10
25.425506
 20
-8.685416
 30
0.0
 10
25.329726
 20
-7.685446
 30
0.0
 10
25.252615
 20
-6.735063
 30
0.0
 10
25.192255
 20
-5.808047
 30
0.0
 10
25.146722
 20
-4.878210
 30
0.0
 10
25.114098
 20
-3.919332
 30
0.0
 10
25.092460
 20
-2.905194
 30
0.0
 10
25.077200
 20
-1.458297
 30
0.0
 10
25.083203
 20
-0.166086
 30
0.0
 10
25.114178
 20
1.028250
 30
0.0
 10
25.173837
 20
2.181523
 30
0.0
 10
25.265891
 20
3.350431
 30
0.0
 10
25.394049
 20
4.591842
 30
0.0
 10
25.562023
 20
5.962538
 30
0.0
 10
25.773524
 20
7.519248
 30
0.0
 10
25.877365
 20
8.307551
 30
0.0
 10
25.972504
 20
9.133192
 30
0.0
 10
26.059093
 20
9.998147
 30
0.0
 10
26.137288
 20
10.904334
 30
0.0
 10
26.207244
 20
11.853673
 30
0.0
 10
26.269114
 20
12.848140
 30
0.0
 10
26.323053
 20
13.889624
 30
0.0
 10
26.369216
 20
14.980077
 30
0.0
 10
26.406341
 20
15.900870
 30
0.0
 10
26.447720
 20
16.826054
 30
0.0
 10
26.491964
 20
17.730643
 30
0.0
 10
26.537687
 20
18.589663
 30
0.0
 10
26.583499
 20
19.378133
 30
0.0
 10
26.628014
 20
20.071070
 30
0.0
 10
26.669843
 20
20.643499
 30
0.0
 10
26.707597
 20
21.070433
 30
0.0
 10
26.744156
 20
21.462804
 30
0.0
 10
26.782552
 20
21.936361
 30
0.0
 10
26.821640
 20
22.473049
 30
0.0
 10
26.860271
 20
23.054808
 30
0.0
 10
26.897298
 20
23.663581
 30
0.0
 10
26.931575
 20
24.281309
 30
0.0
 10
26.961954
 20
24.889938
 30
0.0
 10
26.987289
 20
25.471406
 30
0.0
 10
27.013177
 20
26.040618
 30
0.0
 10
27.043129
 20
26.561490
 30
0.0
 10
27.076292
 20
27.025528
 30
0.0
 10
27.111816
 20
27.424243
 30
0.0
 10
27.148849
 20
27.749137
 30
0.0
 10
27.186540
 20
27.991721
 30
0.0
 10
27.224037
 20
28.143500
 30
0.0
 10
27.260489
 20
28.195980
 30
0.0
 10
27.367915
 20
27.495961
 30
0.0
 10
27.389545
 20
25.604302
 30
0.0
 10
27.337756
 20
22.833597
 30
0.0
 10
27.224925
 20
19.496443
 30
0.0
 10
27.063430
 20
15.905433
 30
0.0
 10
26.865647
 20
12.373160
 30
0.0
 10
26.643956
 20
9.212243
 30
0.0
 10
26.410732
 20
6.735235
 30
0.0
 10
26.283071
 20
5.594521
 30
0.0
 10
26.181137
 20
4.587298
 30
0.0
 10
26.102446
 20
3.669031
 30
0.0
 10
26.044513
 20
2.795243
 30
0.0
 10
26.004855
 20
1.921427
 30
0.0
 10
25.980984
 20
1.003132
 30
0.0
 10
25.970421
 20
-0.004176
 30
0.0
 10
25.970678
 20
-1.144974
 30
0.0
 10
25.978256
 20
-1.977473
 30
0.0
 10
25.993916
 20
-2.833482
 30
0.0
 10
26.016706
 20
-3.688643
 30
0.0
 10
26.045663
 20
-4.518489
 30
0.0
 10
26.079832
 20
-5.298636
 30
0.0
 10
26.118256
 20
-6.004672
 30
0.0
 10
26.159977
 20
-6.612183
 30
0.0
 10
26.204039
 20
-7.096759
 30
0.0
 10
26.255409
 20
-7.715785
 30
0.0
 10
26.301648
 20
-8.574841
 30
0.0
 10
26.342696
 20
-9.671303
 30
0.0
 10
26.378495
 20
-11.002573
 30
0.0
 10
26.408984
 20
-12.566028
 30
0.0
 10
26.434101
 20
-14.359098
 30
0.0
 10
26.453792
 20
-16.379132
 30
0.0
 10
26.467994
 20
-18.623561
 30
0.0
 10
26.473768
 20
-19.812930
 30
0.0
 10
26.479542
 20
-21.002271
 30
0.0
 10
26.485316
 20
-22.191640
 30
0.0
 10
26.491091
 20
-23.380981
 30
0.0
 10
26.496865
 20
-24.570350
 30
0.0
 10
26.502639
 20
-25.759691
 30
0.0
 10
26.508413
 20
-26.949060
 30
0.0
 10
26.514188
 20
-28.138401
 30
0.0
 10
26.441285
 20
-28.138401
 30
0.0
 10
26.368382
 20
-28.138401
 30
0.0
 10
26.295479
 20
-28.138401
 30
0.0
 10
26.222576
 20
-28.138401
 30
0.0
 10
26.149673
 20
-28.138401
 30
0.0
 10
26.076770
 20
-28.138401
 30
0.0
 10
26.003867
 20
-28.138401
 30
0.0
 10
25.930964
 20
-28.138401
 30
0.0
 10
25.858061
 20
-28.138401
 30
0.0
 10
25.785158
 20
-28.138401
 30
0.0
 10
25.712255
 20
-28.138401
 30
0.0
 10
25.639352
 20
-28.138401
 30
0.0
 10
25.566449
 20
-28.138401
 30
0.0
 10
25.493547
 20
-28.138401
 30
0.0
 10
25.420643
 20
-28.138401
 30
0.0
 10
25.347741
 20
-28.138401
 30
0.0
 10
25.347917
 20
-27.881692
 30
0.0
 10
25.348093
 20
-27.624982
 30
0.0
 10
25.348270
 20
-27.368245
 30
0.0
 10
25.348446
 20
-27.111535
 30
0.0
 10
25.348623
 20
-26.854826
 30
0.0
 10
25.348799
 20
-26.598117
 30
0.0
 10
25.348975
 20
-26.341379
 30
0.0
 10
25.349152
 20
-26.084670
 30
0.0
 10
25.349168
 20
-26.084670
 30
0.0
 10
25.349183
 20
-26.084670
 30
0.0
 10
25.349199
 20
-26.084670
 30
0.0
 10
25.349215
 20
-26.084670
 30
0.0
 10
25.349231
 20
-26.084670
 30
0.0
 10
25.349247
 20
-26.084670
 30
0.0
 10
25.349263
 20
-26.084670
 30
0.0
 10
25.349274
 20
-26.084670
 30
0.0
  0
LWPOLYLINE
  5
125
100
AcDbEntity
  8
Layer_1
 62
7
100
AcDbPolyline
 90
81
 70
1
 10
27.098222
 20
-21.809285
 30
0.0
 10
27.117752
 20
-20.439238
 30
0.0
 10
27.129261
 20
-19.085248
 30
0.0
 10
27.132933
 20
-17.775568
 30
0.0
 10
27.128953
 20
-16.538475
 30
0.0
 10
27.117504
 20
-15.402220
 30
0.0
 10
27.098770
 20
-14.395054
 30
0.0
 10
27.072935
 20
-13.545311
 30
0.0
 10
27.040183
 20
-12.881185
 30
0.0
 10
26.953002
 20
-11.211672
 30
0.0
 10
26.881552
 20
-9.229512
 30
0.0
 10
26.827360
 20
-7.066053
 30
0.0
 10
26.791952
 20
-4.852640
 30
0.0
 10
26.776853
 20
-2.720649
 30
0.0
 10
26.783592
 20
-0.801453
 30
0.0
 10
26.813695
 20
0.773572
 30
0.0
 10
26.868687
 20
1.873110
 30
0.0
 10
27.044022
 20
4.363411
 30
0.0
 10
27.235565
 20
7.699870
 30
0.0
 10
27.429183
 20
11.550510
 30
0.0
 10
27.610746
 20
15.583327
 30
0.0
 10
27.766121
 20
19.466344
 30
0.0
 10
27.881177
 20
22.867562
 30
0.0
 10
27.941783
 20
25.454987
 30
0.0
 10
27.933804
 20
26.896629
 30
0.0
 10
27.915485
 20
27.233955
 30
0.0
 10
27.906381
 20
27.513276
 30
0.0
 10
27.906917
 20
27.738610
 30
0.0
 10
27.917489
 20
27.913969
 30
0.0
 10
27.938528
 20
28.043371
 30
0.0
 10
27.970450
 20
28.130832
 30
0.0
 10
28.013674
 20
28.180362
 30
0.0
 10
28.068618
 20
28.195968
 30
0.0
 10
28.126038
 20
28.144135
 30
0.0
 10
28.169649
 20
27.972973
 30
0.0
 10
28.199906
 20
27.658981
 30
0.0
 10
28.217265
 20
27.178662
 30
0.0
 10
28.222179
 20
26.508519
 30
0.0
 10
28.215103
 20
25.625051
 30
0.0
 10
28.196497
 20
24.504761
 30
0.0
 10
28.166809
 20
23.124153
 30
0.0
 10
28.102493
 20
20.417941
 30
0.0
 10
28.043843
 20
18.160784
 30
0.0
 10
27.986915
 20
16.252039
 30
0.0
 10
27.927763
 20
14.591048
 30
0.0
 10
27.862440
 20
13.077208
 30
0.0
 10
27.787001
 20
11.609822
 30
0.0
 10
27.697499
 20
10.088277
 30
0.0
 10
27.589989
 20
8.411906
 30
0.0
 10
27.522474
 20
7.289959
 30
0.0
 10
27.463822
 20
6.108492
 30
0.0
 10
27.414152
 20
4.871936
 30
0.0
 10
27.373587
 20
3.584664
 30
0.0
 10
27.342246
 20
2.251107
 30
0.0
 10
27.320250
 20
0.875697
 30
0.0
 10
27.307719
 20
-0.537220
 30
0.0
 10
27.304775
 20
-1.983186
 30
0.0
 10
27.311899
 20
-7.277025
 30
0.0
 10
27.318757
 20
-11.952093
 30
0.0
 10
27.325335
 20
-16.002349
 30
0.0
 10
27.331626
 20
-19.421810
 30
0.0
 10
27.337615
 20
-22.204436
 30
0.0
 10
27.343290
 20
-24.344273
 30
0.0
 10
27.348641
 20
-25.835281
 30
0.0
 10
27.353653
 20
-26.671421
 30
0.0
 10
27.353964
 20
-27.014886
 30
0.0
 10
27.347919
 20
-27.312715
 30
0.0
 10
27.335518
 20
-27.564824
 30
0.0
 10
27.316767
 20
-27.771213
 30
0.0
 10
27.291672
 20
-27.931797
 30
0.0
 10
27.260236
 20
-28.046549
 30
0.0
 10
27.222467
 20
-28.115439
 30
0.0
 10
27.178370
 20
-28.138299
 30
0.0
 10
27.132050
 20
-28.055552
 30
0.0
 10
27.096453
 20
-27.798109
 30
0.0
 10
27.071403
 20
-27.352113
 30
0.0
 10
27.056725
 20
-26.703707
 30
0.0
 10
27.052243
 20
-25.839035
 30
0.0
 10
27.057783
 20
-24.744295
 30
0.0
 10
27.073167
 20
-23.405630
 30
0.0
 10
27.098222
 20
-21.809285
 30
0.0
  0
LWPOLYLINE
  5
126
100
AcDbEntity
  8
Layer_1
 62
7
100
AcDbPolyline
 90
25
 70
1
 10
27.827665
 20
-27.761070
 30
0.0
 10
27.807638
 20
-27.633985
 30
0.0
 10
27.789935
 20
-27.416194
 30
0.0
 10
27.774872
 20
-27.119579
 30
0.0
 10
27.762768
 20
-26.755964
 30
0.0
 10
27.753937
 20
-26.337230
 30
0.0
 10
27.748699
 20
-25.875233
 30
0.0
 10
27.747373
 20
-25.381824
 30
0.0
 10
27.750271
 20
-24.868856
 30
0.0
 10
27.762440
 20
-23.954485
 30
0.0
 10
27.778781
 20
-23.326173
 30
0.0
 10
27.800312
 20
-22.987281
 30
0.0
 10
27.828051
 20
-22.941053
 30
0.0
 10
27.863015
 20
-23.190848
 30
0.0
 10
27.906222
 20
-23.739911
 30
0.0
 10
27.958690
 20
-24.591573
 30
0.0
 10
28.021435
 20
-25.749108
 30
0.0
 10
28.056353
 20
-26.511672
 30
0.0
 10
28.074283
 20
-27.129202
 30
0.0
 10
28.075271
 20
-27.601219
 30
0.0
 10
28.059359
 20
-27.927186
 30
0.0
 10
28.026598
 20
-28.106651
 30
0.0
 10
27.977032
 20
-28.139135
 30
0.0
 10
27.910707
 20
-28.024101
 30
0.0
 10
27.827665
 20
-27.761070
 30
0.0
  0
LWPOLYLINE
  5
127
100
AcDbEntity
  8
Layer_1
 62
7
100
AcDbPolyline
 90
81
 70
1
 10
-8.019127
 20
-23.527736
 30
0.0
 10
-8.019366
 20
-22.653864
 30
0.0
 10
-8.013279
 20
-21.646782
 30
0.0
 10
-8.001448
 20
-20.542220
 30
0.0
 10
-7.984461
 20
-19.375965
 30
0.0
 10
-7.962899
 20
-18.183774
 30
0.0
 10
-7.937350
 20
-17.001432
 30
0.0
 10
-7.908395
 20
-15.864698
 30
0.0
 10
-7.876621
 20
-14.809328
 30
0.0
 10
-7.844233
 20
-13.680298
 30
0.0
 10
-7.813525
 20
-12.332630
 30
0.0
 10
-7.785203
 20
-10.816927
 30
0.0
 10
-7.759975
 20
-9.183651
 30
0.0
 10
-7.738549
 20
-7.483403
 30
0.0
 10
-7.721630
 20
-5.766702
 30
0.0
 10
-7.709926
 20
-4.084065
 30
0.0
 10
-7.704143
 20
-2.486094
 30
0.0
 10
-7.698479
 20
-0.869300
 30
0.0
 10
-7.687114
 20
0.867242
 30
0.0
 10
-7.670731
 20
2.669231
 30
0.0
 10
-7.650013
 20
4.482283
 30
0.0
 10
-7.625646
 20
6.252155
 30
0.0
 10
-7.598313
 20
7.924463
 30
0.0
 10
-7.568696
 20
9.444907
 30
0.0
 10
-7.537479
 20
10.759159
 30
0.0
 10
-7.504221
 20
12.039968
 30
0.0
 10
-7.468751
 20
13.464739
 30
0.0
 10
-7.432163
 20
14.985855
 30
0.0
 10
-7.395551
 20
16.555687
 30
0.0
 10
-7.360010
 20
18.126618
 30
0.0
 10
-7.326633
 20
19.651027
 30
0.0
 10
-7.296515
 20
21.081290
 30
0.0
 10
-7.270751
 20
22.369784
 30
0.0
 10
-7.241667
 20
23.730544
 30
0.0
 10
-7.210488
 20
24.911760
 30
0.0
 10
-7.177244
 20
25.912847
 30
0.0
 10
-7.141964
 20
26.733222
 30
0.0
 10
-7.104677
 20
27.372306
 30
0.0
 10
-7.065411
 20
27.829514
 30
0.0
 10
-7.024196
 20
28.104266
 30
0.0
 10
-6.981061
 20
28.195980
 30
0.0
 10
-6.940273
 20
28.124902
 30
0.0
 10
-6.909276
 20
27.909248
 30
0.0
 10
-6.888031
 20
27.545378
 30
0.0
 10
-6.876493
 20
27.029660
 30
0.0
 10
-6.874631
 20
26.358462
 30
0.0
 10
-6.882389
 20
25.528147
 30
0.0
 10
-6.899732
 20
24.535078
 30
0.0
 10
-6.926619
 20
23.375624
 30
0.0
 10
-6.952806
 20
22.344017
 30
0.0
 10
-6.980236
 20
21.259254
 30
0.0
 10
-7.008091
 20
20.153818
 30
0.0
 10
-7.035560
 20
19.060201
 30
0.0
 10
-7.061826
 20
18.010885
 30
0.0
 10
-7.086075
 20
17.038364
 30
0.0
 10
-7.107492
 20
16.175122
 30
0.0
 10
-7.125261
 20
15.453646
 30
0.0
 10
-7.141799
 20
14.621794
 30
0.0
 10
-7.159681
 20
13.442246
 30
0.0
 10
-7.178341
 20
11.969667
 30
0.0
 10
-7.197214
 20
10.258723
 30
0.0
 10
-7.215730
 20
8.364052
 30
0.0
 10
-7.233327
 20
6.340349
 30
0.0
 10
-7.249433
 20
4.242309
 30
0.0
 10
-7.263482
 20
2.124570
 30
0.0
 10
-7.280159
 20
-0.104393
 30
0.0
 10
-7.303798
 20
-2.521203
 30
0.0
 10
-7.333303
 20
-5.048841
 30
0.0
 10
-7.367580
 20
-7.610290
 30
0.0
 10
-7.405533
 20
-10.128531
 30
0.0
 10
-7.446066
 20
-12.526517
 30
0.0
 10
-7.488085
 20
-14.727229
 30
0.0
 10
-7.530494
 20
-16.653650
 30
0.0
 10
-7.617389
 20
-19.996826
 30
0.0
 10
-7.701465
 20
-22.694419
 30
0.0
 10
-7.780444
 20
-24.714396
 30
0.0
 10
-7.852048
 20
-26.024669
 30
0.0
 10
-7.913997
 20
-26.593206
 30
0.0
 10
-7.964012
 20
-26.387918
 30
0.0
 10
-7.999816
 20
-25.376800
 30
0.0
 10
-8.019127
 20
-23.527736
 30
0.0
  0
LWPOLYLINE
  5
128
100
AcDbEntity
  8
Layer_1
 62
7
100
AcDbPolyline
 90
41
 70
1
 10
7.624045
 20
-23.611556
 30
0.0
 10
7.710025
 20
-22.932614
 30
0.0
 10
7.790379
 20
-22.023887
 30
0.0
 10
7.863343
 20
-20.924773
 30
0.0
 10
7.927153
 20
-19.674810
 30
0.0
 10
7.980045
 20
-18.313427
 30
0.0
 10
8.020255
 20
-16.880133
 30
0.0
 10
8.046020
 20
-15.414356
 30
0.0
 10
8.055573
 20
-13.955605
 30
0.0
 10
8.063991
 20
-12.126241
 30
0.0
 10
8.086106
 20
-10.448853
 30
0.0
 10
8.120600
 20
-8.953809
 30
0.0
 10
8.166155
 20
-7.671391
 30
0.0
 10
8.221454
 20
-6.631939
 30
0.0
 10
8.285182
 20
-5.865734
 30
0.0
 10
8.356020
 20
-5.403143
 30
0.0
 10
8.432653
 20
-5.274450
 30
0.0
 10
8.491363
 20
-5.725554
 30
0.0
 10
8.530046
 20
-6.877444
 30
0.0
 10
8.549390
 20
-8.554380
 30
0.0
 10
8.550067
 20
-10.580707
 30
0.0
 10
8.532792
 20
-12.780686
 30
0.0
 10
8.498240
 20
-14.978604
 30
0.0
 10
8.447097
 20
-16.998836
 30
0.0
 10
8.380051
 20
-18.665612
 30
0.0
 10
8.319888
 20
-19.675036
 30
0.0
 10
8.249504
 20
-20.605833
 30
0.0
 10
8.170283
 20
-21.447392
 30
0.0
 10
8.083607
 20
-22.189185
 30
0.0
 10
7.990858
 20
-22.820600
 30
0.0
 10
7.893421
 20
-23.331084
 30
0.0
 10
7.792677
 20
-23.710024
 30
0.0
 10
7.690009
 20
-23.946836
 30
0.0
 10
7.652887
 20
-23.998765
 30
0.0
 10
7.624119
 20
-24.024448
 30
0.0
 10
7.603653
 20
-24.024448
 30
0.0
 10
7.591435
 20
-23.996790
 30
0.0
 10
7.587416
 20
-23.942010
 30
0.0
 10
7.591542
 20
-23.859884
 30
0.0
 10
7.603763
 20
-23.750184
 30
0.0
 10
7.624045
 20
-23.611556
 30
0.0
  0
LWPOLYLINE
  5
129
100
AcDbEntity
  8
Layer_1
 62
7
100
AcDbPolyline
 90
41
 70
1
 10
-27.278539
 20
-9.486052
 30
0.0
 10
-27.249408
 20
-7.910292
 30
0.0
 10
-27.222414
 20
-6.405286
 30
0.0
 10
-27.198134
 20
-5.006508
 30
0.0
 10
-27.177148
 20
-3.749406
 30
0.0
 10
-27.160031
 20
-2.669341
 30
0.0
 10
-27.147365
 20
-1.801846
 30
0.0
 10
-27.139723
 20
-1.182284
 30
0.0
 10
-27.137691
 20
-0.846101
 30
0.0
 10
-27.136364
 20
-0.628112
 30
0.0
 10
-27.129664
 20
-0.449776
 30
0.0
 10
-27.117278
 20
-0.309822
 30
0.0
 10
-27.098888
 20
-0.207009
 30
0.0
 10
-27.074174
 20
-0.140066
 30
0.0
 10
-27.042818
 20
-0.107751
 30
0.0
 10
-27.004503
 20
-0.107751
 30
0.0
 10
-26.958909
 20
-0.140912
 30
0.0
 10
-26.915156
 20
-0.276718
 30
0.0
 10
-26.877550
 20
-0.593568
 30
0.0
 10
-26.845997
 20
-1.094654
 30
0.0
 10
-26.820402
 20
-1.783192
 30
0.0
 10
-26.800675
 20
-2.662314
 30
0.0
 10
-26.786719
 20
-3.735294
 30
0.0
 10
-26.778442
 20
-5.005238
 30
0.0
 10
-26.775761
 20
-6.475390
 30
0.0
 10
-26.784049
 20
-8.857543
 30
0.0
 10
-26.808202
 20
-10.977963
 30
0.0
 10
-26.847468
 20
-12.819407
 30
0.0
 10
-26.901099
 20
-14.364658
 30
0.0
 10
-26.968344
 20
-15.596502
 30
0.0
 10
-27.048454
 20
-16.497722
 30
0.0
 10
-27.140679
 20
-17.051075
 30
0.0
 10
-27.244270
 20
-17.239346
 30
0.0
 10
-27.286169
 20
-17.129420
 30
0.0
 10
-27.317236
 20
-16.793265
 30
0.0
 10
-27.337513
 20
-16.221201
 30
0.0
 10
-27.347047
 20
-15.403603
 30
0.0
 10
-27.345862
 20
-14.330820
 30
0.0
 10
-27.334028
 20
-12.993228
 30
0.0
 10
-27.311577
 20
-11.381174
 30
0.0
 10
-27.278539
 20
-9.486052
 30
0.0
  0
LWPOLYLINE
  5
12a
100
AcDbEntity
  8
Layer_1
 62
7
100
AcDbPolyline
 90
105
 70
1
 10
-11.753960
 20
-13.492196
 30
0.0
 10
-11.929295
 20
-13.094122
 30
0.0
 10
-12.142239
 20
-12.308105
 30
0.0
 10
-12.381205
 20
-11.200439
 30
0.0
 10
-12.634611
 20
-9.837362
 30
0.0
 10
-12.890871
 20
-8.285112
 30
0.0
 10
-13.138401
 20
-6.609982
 30
0.0
 10
-13.365617
 20
-4.878238
 30
0.0
 10
-13.560936
 20
-3.156090
 30
0.0
 10
-13.742487
 20
-0.915612
 30
0.0
 10
-13.868455
 20
1.735837
 30
0.0
 10
-13.938973
 20
4.760695
 30
0.0
 10
-13.954170
 20
8.121454
 30
0.0
 10
-13.914182
 20
11.780493
 30
0.0
 10
-13.819139
 20
15.700317
 30
0.0
 10
-13.669172
 20
19.843353
 30
0.0
 10
-13.464414
 20
24.172055
 30
0.0
 10
-13.398144
 20
25.381801
 30
0.0
 10
-13.338504
 20
26.324316
 30
0.0
 10
-13.280370
 20
27.032253
 30
0.0
 10
-13.218618
 20
27.538261
 30
0.0
 10
-13.148125
 20
27.874986
 30
0.0
 10
-13.063766
 20
28.075081
 30
0.0
 10
-12.960417
 20
28.171198
 30
0.0
 10
-12.832956
 20
28.195977
 30
0.0
 10
-12.759615
 20
28.183616
 30
0.0
 10
-12.703873
 20
28.139755
 30
0.0
 10
-12.664755
 20
28.054217
 30
0.0
 10
-12.641288
 20
27.916820
 30
0.0
 10
-12.632497
 20
27.717396
 30
0.0
 10
-12.637405
 20
27.445762
 30
0.0
 10
-12.655038
 20
27.091743
 30
0.0
 10
-12.684424
 20
26.645163
 30
0.0
 10
-12.947671
 20
21.939412
 30
0.0
 10
-13.105106
 20
16.965031
 30
0.0
 10
-13.160348
 20
11.912737
 30
0.0
 10
-13.117017
 20
6.973255
 30
0.0
 10
-12.978728
 20
2.337275
 30
0.0
 10
-12.749102
 20
-1.804477
 30
0.0
 10
-12.431755
 20
-5.261276
 30
0.0
 10
-12.030306
 20
-7.842395
 30
0.0
 10
-11.874216
 20
-8.543859
 30
0.0
 10
-11.748217
 20
-9.009384
 30
0.0
 10
-11.646134
 20
-9.223845
 30
0.0
 10
-11.561791
 20
-9.172142
 30
0.0
 10
-11.489013
 20
-8.839176
 30
0.0
 10
-11.421624
 20
-8.209821
 30
0.0
 10
-11.353448
 20
-7.268948
 30
0.0
 10
-11.278311
 20
-6.001460
 30
0.0
 10
-11.067604
 20
-1.408463
 30
0.0
 10
-10.921218
 20
3.557604
 30
0.0
 10
-10.838563
 20
8.655243
 30
0.0
 10
-10.819050
 20
13.642928
 30
0.0
 10
-10.862090
 20
18.279176
 30
0.0
 10
-10.967091
 20
22.322439
 30
0.0
 10
-11.133465
 20
25.531215
 30
0.0
 10
-11.360621
 20
27.663985
 30
0.0
 10
-11.387305
 20
27.833578
 30
0.0
 10
-11.400872
 20
27.964024
 30
0.0
 10
-11.398755
 20
28.059649
 30
0.0
 10
-11.378429
 20
28.124784
 30
0.0
 10
-11.337331
 20
28.163750
 30
0.0
 10
-11.272909
 20
28.180881
 30
0.0
 10
-11.182612
 20
28.180599
 30
0.0
 10
-11.063888
 20
28.167024
 30
0.0
 10
-10.940149
 20
28.141595
 30
0.0
 10
-10.842185
 20
28.091219
 30
0.0
 10
-10.764258
 20
27.996587
 30
0.0
 10
-10.700627
 20
27.838396
 30
0.0
 10
-10.645552
 20
27.597353
 30
0.0
 10
-10.593293
 20
27.254156
 30
0.0
 10
-10.538109
 20
26.789511
 30
0.0
 10
-10.474261
 20
26.184116
 30
0.0
 10
-10.329146
 20
24.525070
 30
0.0
 10
-10.206573
 20
22.628890
 30
0.0
 10
-10.108524
 20
20.570087
 30
0.0
 10
-10.036980
 20
18.423180
 30
0.0
 10
-9.993923
 20
16.262690
 30
0.0
 10
-9.981333
 20
14.163140
 30
0.0
 10
-10.001193
 20
12.199015
 30
0.0
 10
-10.055485
 20
10.444862
 30
0.0
 10
-10.094190
 20
9.531648
 30
0.0
 10
-10.133887
 20
8.517651
 30
0.0
 10
-10.173450
 20
7.436627
 30
0.0
 10
-10.211753
 20
6.322329
 30
0.0
 10
-10.247672
 20
5.208596
 30
0.0
 10
-10.280081
 20
4.129181
 30
0.0
 10
-10.307855
 20
3.117894
 30
0.0
 10
-10.329868
 20
2.208489
 30
0.0
 10
-10.381067
 20
-0.006560
 30
0.0
 10
-10.431347
 20
-1.972718
 30
0.0
 10
-10.481802
 20
-3.720577
 30
0.0
 10
-10.533524
 20
-5.280729
 30
0.0
 10
-10.587606
 20
-6.683797
 30
0.0
 10
-10.645142
 20
-7.960373
 30
0.0
 10
-10.707223
 20
-9.141021
 30
0.0
 10
-10.774944
 20
-10.256420
 30
0.0
 10
-10.854096
 20
-11.351922
 30
0.0
 10
-10.937010
 20
-12.221533
 30
0.0
 10
-11.027979
 20
-12.879506
 30
0.0
 10
-11.131297
 20
-13.340036
 30
0.0
 10
-11.251259
 20
-13.617320
 30
0.0
 10
-11.392158
 20
-13.725637
 30
0.0
 10
-11.558289
 20
-13.679155
 30
0.0
 10
-11.753960
 20
-13.492196
 30
0.0
  0
LWPOLYLINE
  5
12b
100
AcDbEntity
  8
Layer_1
 62
7
100
AcDbPolyline
 90
41
 70
1
 10
-12.161133
 20
-2.066994
 30
0.0
 10
-12.210243
 20
-0.779553
 30
0.0
 10
-12.245854
 20
1.794173
 30
0.0
 10
-12.267831
 20
5.242505
 30
0.0
 10
-12.276038
 20
9.153682
 30
0.0
 10
-12.270345
 20
13.115997
 30
0.0
 10
-12.250621
 20
16.717737
 30
0.0
 10
-12.216735
 20
19.547192
 30
0.0
 10
-12.168555
 20
21.192635
 30
0.0
 10
-12.145492
 20
21.521108
 30
0.0
 10
-12.118049
 20
21.822648
 30
0.0
 10
-12.087209
 20
22.091253
 30
0.0
 10
-12.053957
 20
22.320923
 30
0.0
 10
-12.019277
 20
22.505654
 30
0.0
 10
-11.984152
 20
22.639442
 30
0.0
 10
-11.949566
 20
22.716285
 30
0.0
 10
-11.916504
 20
22.730171
 30
0.0
 10
-11.861068
 20
21.795719
 30
0.0
 10
-11.822181
 20
19.370242
 30
0.0
 10
-11.799663
 20
15.903410
 30
0.0
 10
-11.793338
 20
11.844885
 30
0.0
 10
-11.803027
 20
7.644374
 30
0.0
 10
-11.828551
 20
3.751485
 30
0.0
 10
-11.869730
 20
0.615940
 30
0.0
 10
-11.926381
 20
-1.312626
 30
0.0
 10
-11.939575
 20
-1.553643
 30
0.0
 10
-11.952768
 20
-1.794661
 30
0.0
 10
-11.965962
 20
-2.035679
 30
0.0
 10
-11.979156
 20
-2.276697
 30
0.0
 10
-11.992350
 20
-2.517714
 30
0.0
 10
-12.005544
 20
-2.758732
 30
0.0
 10
-12.018738
 20
-2.999750
 30
0.0
 10
-12.031932
 20
-3.240768
 30
0.0
 10
-12.048083
 20
-3.094040
 30
0.0
 10
-12.064235
 20
-2.947341
 30
0.0
 10
-12.080386
 20
-2.800614
 30
0.0
 10
-12.096538
 20
-2.653887
 30
0.0
 10
-12.112690
 20
-2.507159
 30
0.0
 10
-12.128841
 20
-2.360460
 30
0.0
 10
-12.144993
 20
-2.213733
 30
0.0
 10
-12.161133
 20
-2.066994
 30
0.0
  0
LWPOLYLINE
  5
12c
100
AcDbEntity
  8
Layer_1
 62
7
100
AcDbPolyline
 90
153
 70
1
 10
20.669810
 20
0.715999
 30
0.0
 10
20.589287
 20
1.382382
 30
0.0
 10
20.526785
 20
2.947135
 30
0.0
 10
20.483408
 20
5.169438
 30
0.0
 10
20.460257
 20
7.808526
 30
0.0
 10
20.458422
 20
10.623608
 30
0.0
 10
20.479030
 20
13.373920
 30
0.0
 10
20.523172
 20
15.818675
 30
0.0
 10
20.591951
 20
17.717069
 30
0.0
 10
20.636086
 20
18.504195
 30
0.0
 10
20.687056
 20
19.327838
 30
0.0
 10
20.743044
 20
20.163580
 30
0.0
 10
20.802234
 20
20.987003
 30
0.0
 10
20.862810
 20
21.773686
 30
0.0
 10
20.922956
 20
22.499214
 30
0.0
 10
20.980856
 20
23.139170
 30
0.0
 10
21.034692
 20
23.669135
 30
0.0
 10
21.084525
 20
24.146901
 30
0.0
 10
21.130948
 20
24.637259
 30
0.0
 10
21.172951
 20
25.126288
 30
0.0
 10
21.209522
 20
25.600066
 30
0.0
 10
21.239648
 20
26.044673
 30
0.0
 10
21.262322
 20
26.446188
 30
0.0
 10
21.276529
 20
26.790694
 30
0.0
 10
21.281259
 20
27.064269
 30
0.0
 10
21.283489
 20
27.369839
 30
0.0
 10
21.291893
 20
27.618646
 30
0.0
 10
21.307582
 20
27.815629
 30
0.0
 10
21.331656
 20
27.965723
 30
0.0
 10
21.365217
 20
28.073865
 30
0.0
 10
21.409366
 20
28.144999
 30
0.0
 10
21.465208
 20
28.184059
 30
0.0
 10
21.533841
 20
28.195968
 30
0.0
 10
21.636281
 20
28.119102
 30
0.0
 10
21.712809
 20
27.899494
 30
0.0
 10
21.763090
 20
27.553625
 30
0.0
 10
21.786788
 20
27.097983
 30
0.0
 10
21.783565
 20
26.549047
 30
0.0
 10
21.753088
 20
25.923303
 30
0.0
 10
21.695020
 20
25.237235
 30
0.0
 10
21.609025
 20
24.507324
 30
0.0
 10
21.573484
 20
24.206867
 30
0.0
 10
21.537079
 20
23.833936
 30
0.0
 10
21.500842
 20
23.403321
 30
0.0
 10
21.465800
 20
22.929806
 30
0.0
 10
21.432986
 20
22.428182
 30
0.0
 10
21.403427
 20
21.913230
 30
0.0
 10
21.378154
 20
21.399741
 30
0.0
 10
21.358195
 20
20.902500
 30
0.0
 10
21.338326
 20
20.338622
 30
0.0
 10
21.313305
 20
19.633956
 30
0.0
 10
21.284142
 20
18.816694
 30
0.0
 10
21.251850
 20
17.915036
 30
0.0
 10
21.217439
 20
16.957180
 30
0.0
 10
21.181922
 20
15.971327
 30
0.0
 10
21.146311
 20
14.985671
 30
0.0
 10
21.111616
 20
14.028410
 30
0.0
 10
21.062836
 20
12.362001
 30
0.0
 10
21.036654
 20
10.734566
 30
0.0
 10
21.031870
 20
9.206587
 30
0.0
 10
21.047288
 20
7.838599
 30
0.0
 10
21.081706
 20
6.691140
 30
0.0
 10
21.133925
 20
5.824718
 30
0.0
 10
21.202747
 20
5.299869
 30
0.0
 10
21.286972
 20
5.177074
 30
0.0
 10
21.431788
 20
5.501009
 30
0.0
 10
21.570449
 20
6.157232
 30
0.0
 10
21.703291
 20
7.149723
 30
0.0
 10
21.830649
 20
8.482546
 30
0.0
 10
21.952861
 20
10.159764
 30
0.0
 10
22.070261
 20
12.185358
 30
0.0
 10
22.183187
 20
14.563419
 30
0.0
 10
22.291973
 20
17.297957
 30
0.0
 10
22.332953
 20
18.362982
 30
0.0
 10
22.377609
 20
19.429740
 30
0.0
 10
22.424505
 20
20.469644
 30
0.0
 10
22.472204
 20
21.454103
 30
0.0
 10
22.519268
 20
22.354530
 30
0.0
 10
22.564261
 20
23.142339
 30
0.0
 10
22.605745
 20
23.788939
 30
0.0
 10
22.642284
 20
24.265742
 30
0.0
 10
22.674997
 20
24.659357
 30
0.0
 10
22.705516
 20
25.067535
 30
0.0
 10
22.733170
 20
25.478414
 30
0.0
 10
22.757295
 20
25.880123
 30
0.0
 10
22.777223
 20
26.260799
 30
0.0
 10
22.792282
 20
26.608576
 30
0.0
 10
22.801807
 20
26.911581
 30
0.0
 10
22.805131
 20
27.157955
 30
0.0
 10
22.807305
 20
27.468493
 30
0.0
 10
22.815577
 20
27.710907
 30
0.0
 10
22.832648
 20
27.893435
 30
0.0
 10
22.861211
 20
28.024307
 30
0.0
 10
22.903954
 20
28.111762
 30
0.0
 10
22.963567
 20
28.164032
 30
0.0
 10
23.042739
 20
28.189347
 30
0.0
 10
23.144159
 20
28.195951
 30
0.0
 10
23.212724
 20
28.191690
 30
0.0
 10
23.277588
 20
28.179441
 30
0.0
 10
23.337266
 20
28.160053
 30
0.0
 10
23.390274
 20
28.134399
 30
0.0
 10
23.435129
 20
28.103343
 30
0.0
 10
23.470347
 20
28.067729
 30
0.0
 10
23.494443
 20
28.028419
 30
0.0
 10
23.505935
 20
27.986269
 30
0.0
 10
23.519420
 20
27.754703
 30
0.0
 10
23.517980
 20
27.455341
 30
0.0
 10
23.502269
 20
27.096030
 30
0.0
 10
23.472931
 20
26.684623
 30
0.0
 10
23.430613
 20
26.228961
 30
0.0
 10
23.375961
 20
25.736898
 30
0.0
 10
23.309623
 20
25.216280
 30
0.0
 10
23.232245
 20
24.674956
 30
0.0
 10
23.177828
 20
24.230317
 30
0.0
 10
23.126487
 20
23.644734
 30
0.0
 10
23.078746
 20
22.929445
 30
0.0
 10
23.035128
 20
22.095690
 30
0.0
 10
22.996156
 20
21.154716
 30
0.0
 10
22.962353
 20
20.117758
 30
0.0
 10
22.934244
 20
18.996063
 30
0.0
 10
22.912349
 20
17.800869
 30
0.0
 10
22.890350
 20
16.636855
 30
0.0
 10
22.860273
 20
15.487191
 30
0.0
 10
22.823084
 20
14.373277
 30
0.0
 10
22.779749
 20
13.316496
 30
0.0
 10
22.731234
 20
12.338257
 30
0.0
 10
22.678504
 20
11.459925
 30
0.0
 10
22.622525
 20
10.702892
 30
0.0
 10
22.564262
 20
10.088579
 30
0.0
 10
22.506946
 20
9.567682
 30
0.0
 10
22.446769
 20
9.018901
 30
0.0
 10
22.385528
 20
8.458746
 30
0.0
 10
22.325020
 20
7.903671
 30
0.0
 10
22.267041
 20
7.370243
 30
0.0
 10
22.213388
 20
6.874915
 30
0.0
 10
22.165857
 20
6.434225
 30
0.0
 10
22.126245
 20
6.064655
 30
0.0
 10
22.029649
 20
5.282420
 30
0.0
 10
21.904352
 20
4.451360
 30
0.0
 10
21.758923
 20
3.612906
 30
0.0
 10
21.601932
 20
2.808544
 30
0.0
 10
21.441949
 20
2.079705
 30
0.0
 10
21.287545
 20
1.467848
 30
0.0
 10
21.147289
 20
1.014401
 30
0.0
 10
21.029752
 20
0.760853
 30
0.0
 10
20.969777
 20
0.683496
 30
0.0
 10
20.918415
 20
0.627192
 30
0.0
 10
20.873501
 20
0.591632
 30
0.0
 10
20.832868
 20
0.576674
 30
0.0
 10
20.794349
 20
0.581754
 30
0.0
 10
20.755777
 20
0.606872
 30
0.0
 10
20.714987
 20
0.651717
 30
0.0
 10
20.669810
 20
0.715999
 30
0.0
  0
LWPOLYLINE
  5
12d
100
AcDbEntity
  8
Layer_1
 62
7
100
AcDbPolyline
 90
73
 70
1
 10
8.566608
 20
10.994532
 30
0.0
 10
8.561584
 20
11.052190
 30
0.0
 10
8.547188
 20
11.190931
 30
0.0
 10
8.524430
 20
11.401666
 30
0.0
 10
8.494317
 20
11.675252
 30
0.0
 10
8.457859
 20
12.002602
 30
0.0
 10
8.416066
 20
12.374627
 30
0.0
 10
8.369948
 20
12.782184
 30
0.0
 10
8.320513
 20
13.216186
 30
0.0
 10
8.218770
 20
14.200605
 30
0.0
 10
8.119498
 20
15.347282
 30
0.0
 10
8.023500
 20
16.642807
 30
0.0
 10
7.931576
 20
18.073797
 30
0.0
 10
7.844531
 20
19.626866
 30
0.0
 10
7.763166
 20
21.288625
 30
0.0
 10
7.688284
 20
23.045689
 30
0.0
 10
7.620686
 20
24.884666
 30
0.0
 10
7.606632
 20
25.298579
 30
0.0
 10
7.592577
 20
25.712495
 30
0.0
 10
7.578522
 20
26.126407
 30
0.0
 10
7.564468
 20
26.540323
 30
0.0
 10
7.550413
 20
26.954236
 30
0.0
 10
7.536358
 20
27.368151
 30
0.0
 10
7.522304
 20
27.782064
 30
0.0
 10
7.508249
 20
28.195980
 30
0.0
 10
7.609580
 20
28.195980
 30
0.0
 10
7.710911
 20
28.195980
 30
0.0
 10
7.812242
 20
28.195980
 30
0.0
 10
7.913572
 20
28.195980
 30
0.0
 10
8.014903
 20
28.195980
 30
0.0
 10
8.116234
 20
28.195980
 30
0.0
 10
8.217565
 20
28.195980
 30
0.0
 10
8.318896
 20
28.195980
 30
0.0
 10
8.420226
 20
28.195980
 30
0.0
 10
8.521557
 20
28.195980
 30
0.0
 10
8.622887
 20
28.195980
 30
0.0
 10
8.724218
 20
28.195980
 30
0.0
 10
8.825548
 20
28.195980
 30
0.0
 10
8.926879
 20
28.195980
 30
0.0
 10
9.028209
 20
28.195980
 30
0.0
 10
9.129539
 20
28.195980
 30
0.0
 10
9.115589
 20
27.645821
 30
0.0
 10
9.101639
 20
27.095666
 30
0.0
 10
9.087689
 20
26.545507
 30
0.0
 10
9.073739
 20
25.995352
 30
0.0
 10
9.059788
 20
25.445194
 30
0.0
 10
9.045838
 20
24.895038
 30
0.0
 10
9.031888
 20
24.344880
 30
0.0
 10
9.017938
 20
23.794724
 30
0.0
 10
8.995512
 20
22.824232
 30
0.0
 10
8.974577
 20
21.751833
 30
0.0
 10
8.955589
 20
20.612928
 30
0.0
 10
8.939011
 20
19.442928
 30
0.0
 10
8.925304
 20
18.277240
 30
0.0
 10
8.914924
 20
17.151275
 30
0.0
 10
8.908331
 20
16.100438
 30
0.0
 10
8.905988
 20
15.160135
 30
0.0
 10
8.903079
 20
14.200125
 30
0.0
 10
8.894618
 20
13.355321
 30
0.0
 10
8.880763
 20
12.629672
 30
0.0
 10
8.861674
 20
12.027155
 30
0.0
 10
8.837507
 20
11.551667
 30
0.0
 10
8.808423
 20
11.207130
 30
0.0
 10
8.774578
 20
10.997552
 30
0.0
 10
8.736132
 20
10.926799
 30
0.0
 10
8.702081
 20
10.926799
 30
0.0
 10
8.670315
 20
10.930750
 30
0.0
 10
8.641529
 20
10.936959
 30
0.0
 10
8.616417
 20
10.945144
 30
0.0
 10
8.595676
 20
10.955304
 30
0.0
 10
8.580002
 20
10.966875
 30
0.0
 10
8.570087
 20
10.979575
 30
0.0
 10
8.566608
 20
10.994532
 30
0.0
  0
ENDSEC
  0
SECTION
  2
OBJECTS
  0
DICTIONARY
  5
C
330
0
100
AcDbDictionary
  3
ACAD_GROUP
350
D
  3
ACAD_MLINESTYLE
350
17
  0
DICTIONARY
  5
D
330
C
100
AcDbDictionary
  0
DICTIONARY
  5
1A
330
C
100
AcDbDictionary
  0
DICTIONARY
  5
17
330
C
100
AcDbDictionary
  3
STANDARD
350
18
  0
DICTIONARY
  5
19
330
C
100
AcDbDictionary
  0
ENDSEC
  0
EOF
