  0
SECTION
  2
HEADER
  9
$ACADVER
  1
AC1009
  9
$EXTMIN
 10
0.0
 20
0.0
 30
0.0
  9
$EXTMAX
 10
1000.0
 20
1000.0
 30
0.0
  9
$FILLMODE
 70
 0
  9
$SPLFRAME
 70
 1
  0
ENDSEC
  0
SECTION
  2
TABLES
  0
TABLE
  2
LAYER
 70
1
  0
LAYER
  2
0
 70
     0
 62
     7
  6
CONTINUOUS
  0
ENDTAB
  0
ENDSEC
  0
SECTION
  2
ENTITIES
  0
LINE
  8
0
 62
     0
 10
11.4584
 20
0.61874
 30
0.0
 11
11.0849
 21
1.23886
 31
0.0
  0
LINE
  8
0
 62
     0
 10
11.0849
 20
1.23886
 30
0.0
 11
11.005
 21
1.69223
 31
0.0
  0
LINE
  8
0
 62
     0
 10
11.005
 20
1.69223
 30
0.0
 11
10.9086
 21
2.09324
 31
0.0
  0
LINE
  8
0
 62
     0
 10
10.9086
 20
2.09324
 30
0.0
 11
10.4938
 21
2.74643
 31
0.0
  0
LINE
  8
0
 62
     0
 10
10.4938
 20
2.74643
 30
0.0
 11
9.84885
 21
3.55671
 31
0.0
  0
LINE
  8
0
 62
     0
 10
9.84885
 20
3.55671
 30
0.0
 11
9.06336
 21
4.43177
 31
0.0
  0
LINE
  8
0
 62
     0
 10
9.06336
 20
4.43177
 30
0.0
 11
8.22551
 21
5.27512
 31
0.0
  0
LINE
  8
0
 62
     0
 10
8.22551
 20
5.27512
 30
0.0
 11
7.42488
 21
5.99447
 31
0.0
  0
LINE
  8
0
 62
     0
 10
7.42488
 20
5.99447
 30
0.0
 11
6.751
 21
6.49471
 31
0.0
  0
LINE
  8
0
 62
     0
 10
6.751
 20
6.49471
 30
0.0
 11
6.29073
 21
6.68211
 31
0.0
  0
LINE
  8
0
 62
     0
 10
6.29073
 20
6.68211
 30
0.0
 11
6.11851
 21
6.55394
 31
0.0
  0
LINE
  8
0
 62
     0
 10
6.11851
 20
6.55394
 30
0.0
 11
6.0482
 21
6.24251
 31
0.0
  0
LINE
  8
0
 62
     0
 10
6.0482
 20
6.24251
 30
0.0
 11
5.95588
 21
5.97517
 31
0.0
  0
LINE
  8
0
 62
     0
 10
5.95588
 20
5.97517
 30
0.0
 11
5.69542
 21
6.0234
 31
0.0
  0
LINE
  8
0
 62
     0
 10
5.69542
 20
6.0234
 30
0.0
 11
5.06017
 21
6.27973
 31
0.0
  0
LINE
  8
0
 62
     0
 10
5.06017
 20
6.27973
 30
0.0
 11
4.42489
 21
6.35688
 31
0.0
  0
LINE
  8
0
 62
     0
 10
4.42489
 20
6.35688
 30
0.0
 11
4.18511
 21
6.45061
 31
0.0
  0
LINE
  8
0
 62
     0
 10
4.18511
 20
6.45061
 30
0.0
 11
4.10517
 21
6.61183
 31
0.0
  0
LINE
  8
0
 62
     0
 10
4.10517
 20
6.61183
 30
0.0
 11
4.03214
 21
7.30497
 31
0.0
  0
LINE
  8
0
 62
     0
 10
4.03214
 20
7.30497
 30
0.0
 11
3.50848
 21
7.52962
 31
0.0
  0
LINE
  8
0
 62
     0
 10
3.50848
 20
7.52962
 30
0.0
 11
3.10885
 21
7.42763
 31
0.0
  0
LINE
  8
0
 62
     0
 10
3.10885
 20
7.42763
 30
0.0
 11
2.94349
 21
7.17959
 31
0.0
  0
LINE
  8
0
 62
     0
 10
2.94349
 20
7.17959
 30
0.0
 11
2.79053
 21
7.12033
 31
0.0
  0
LINE
  8
0
 62
     0
 10
2.79053
 20
7.12033
 30
0.0
 11
2.37023
 21
7.47861
 31
0.0
  0
LINE
  8
0
 62
     0
 10
2.37023
 20
7.47861
 30
0.0
 11
1.73771
 21
8.19796
 31
0.0
  0
LINE
  8
0
 62
     0
 10
1.73771
 20
8.19796
 30
0.0
 11
0.94809
 21
9.2232
 31
0.0
  0
LINE
  8
0
 62
     0
 10
0.94809
 20
9.2232
 30
0.0
 11
0.254937
 21
10.1961
 31
0.0
  0
LINE
  8
0
 62
     0
 10
0.254937
 20
10.1961
 30
0.0
 11
0.00137804
 21
10.6564
 31
0.0
  0
LINE
  8
0
 62
     0
 10
0.00137804
 20
10.6564
 30
0.0
 11
0.176389
 21
10.6536
 31
0.0
  0
LINE
  8
0
 62
     0
 10
0.176389
 20
10.6536
 30
0.0
 11
0.773081
 21
10.2319
 31
0.0
  0
LINE
  8
0
 62
     0
 10
0.773081
 20
10.2319
 30
0.0
 11
1.34772
 21
9.82405
 31
0.0
  0
LINE
  8
0
 62
     0
 10
1.34772
 20
9.82405
 30
0.0
 11
1.77905
 21
9.62836
 31
0.0
  0
LINE
  8
0
 62
     0
 10
1.77905
 20
9.62836
 30
0.0
 11
2.18557
 21
9.61457
 31
0.0
  0
LINE
  8
0
 62
     0
 10
2.18557
 20
9.61457
 30
0.0
 11
2.68855
 21
9.75374
 31
0.0
  0
LINE
  8
0
 62
     0
 10
2.68855
 20
9.75374
 30
0.0
 11
3.38033
 21
9.93013
 31
0.0
  0
LINE
  8
0
 62
     0
 10
3.38033
 20
9.93013
 30
0.0
 11
3.8034
 21
9.9205
 31
0.0
  0
LINE
  8
0
 62
     0
 10
3.8034
 20
9.9205
 30
0.0
 11
4.21128
 21
10.0652
 31
0.0
  0
LINE
  8
0
 62
     0
 10
4.21128
 20
10.0652
 30
0.0
 11
4.54752
 21
10.2168
 31
0.0
  0
LINE
  8
0
 62
     0
 10
4.54752
 20
10.2168
 30
0.0
 11
5.10977
 21
10.1727
 31
0.0
  0
LINE
  8
0
 62
     0
 10
5.10977
 20
10.1727
 30
0.0
 11
5.83046
 21
9.99215
 31
0.0
  0
LINE
  8
0
 62
     0
 10
5.83046
 20
9.99215
 30
0.0
 11
5.62515
 21
11.7946
 31
0.0
  0
LINE
  8
0
 62
     0
 10
5.62515
 20
11.7946
 30
0.0
 11
5.4157
 21
13.1506
 31
0.0
  0
LINE
  8
0
 62
     0
 10
5.4157
 20
13.1506
 30
0.0
 11
5.20072
 21
13.8796
 31
0.0
  0
LINE
  8
0
 62
     0
 10
5.20072
 20
13.8796
 30
0.0
 11
4.96369
 21
14.5507
 31
0.0
  0
LINE
  8
0
 62
     0
 10
4.96369
 20
14.5507
 30
0.0
 11
4.62333
 21
15.9274
 31
0.0
  0
LINE
  8
0
 62
     0
 10
4.62333
 20
15.9274
 30
0.0
 11
4.25538
 21
17.6678
 31
0.0
  0
LINE
  8
0
 62
     0
 10
4.25538
 20
17.6678
 30
0.0
 11
3.93982
 21
19.4262
 31
0.0
  0
LINE
  8
0
 62
     0
 10
3.93982
 20
19.4262
 30
0.0
 11
3.70004
 21
20.202
 31
0.0
  0
LINE
  8
0
 62
     0
 10
3.70004
 20
20.202
 30
0.0
 11
3.35966
 21
20.6168
 31
0.0
  0
LINE
  8
0
 62
     0
 10
3.35966
 20
20.6168
 30
0.0
 11
3.05373
 21
20.8993
 31
0.0
  0
LINE
  8
0
 62
     0
 10
3.05373
 20
20.8993
 30
0.0
 11
2.96003
 21
21.3803
 31
0.0
  0
LINE
  8
0
 62
     0
 10
2.96003
 20
21.3803
 30
0.0
 11
3.0744
 21
21.9852
 31
0.0
  0
LINE
  8
0
 62
     0
 10
3.0744
 20
21.9852
 30
0.0
 11
3.39824
 21
22.6357
 31
0.0
  0
LINE
  8
0
 62
     0
 10
3.39824
 20
22.6357
 30
0.0
 11
3.67249
 21
23.2475
 31
0.0
  0
LINE
  8
0
 62
     0
 10
3.67249
 20
23.2475
 30
0.0
 11
3.69454
 21
23.7409
 31
0.0
  0
LINE
  8
0
 62
     0
 10
3.69454
 20
23.7409
 30
0.0
 11
3.67661
 21
24.0109
 31
0.0
  0
LINE
  8
0
 62
     0
 10
3.67661
 20
24.0109
 30
0.0
 11
3.94533
 21
23.9944
 31
0.0
  0
LINE
  8
0
 62
     0
 10
3.94533
 20
23.9944
 30
0.0
 11
4.33532
 21
23.6554
 31
0.0
  0
LINE
  8
0
 62
     0
 10
4.33532
 20
23.6554
 30
0.0
 11
4.05557
 21
23.1483
 31
0.0
  0
LINE
  8
0
 62
     0
 10
4.05557
 20
23.1483
 30
0.0
 11
3.95496
 21
22.9099
 31
0.0
  0
LINE
  8
0
 62
     0
 10
3.95496
 20
22.9099
 30
0.0
 11
3.9715
 21
22.4937
 31
0.0
  0
LINE
  8
0
 62
     0
 10
3.9715
 20
22.4937
 30
0.0
 11
4.10792
 21
21.8805
 31
0.0
  0
LINE
  8
0
 62
     0
 10
4.10792
 20
21.8805
 30
0.0
 11
4.367
 21
21.0454
 31
0.0
  0
LINE
  8
0
 62
     0
 10
4.367
 20
21.0454
 30
0.0
 11
4.60954
 21
20.3123
 31
0.0
  0
LINE
  8
0
 62
     0
 10
4.60954
 20
20.3123
 30
0.0
 11
4.82314
 21
19.6481
 31
0.0
  0
LINE
  8
0
 62
     0
 10
4.82314
 20
19.6481
 30
0.0
 11
4.98161
 21
19.1258
 31
0.0
  0
LINE
  8
0
 62
     0
 10
4.98161
 20
19.1258
 30
0.0
 11
5.06568
 21
18.8185
 31
0.0
  0
LINE
  8
0
 62
     0
 10
5.06568
 20
18.8185
 30
0.0
 11
5.28479
 21
18.1832
 31
0.0
  0
LINE
  8
0
 62
     0
 10
5.28479
 20
18.1832
 30
0.0
 11
5.65549
 21
17.4294
 31
0.0
  0
LINE
  8
0
 62
     0
 10
5.65549
 20
17.4294
 30
0.0
 11
6.07854
 21
16.739
 31
0.0
  0
LINE
  8
0
 62
     0
 10
6.07854
 20
16.739
 30
0.0
 11
6.45612
 21
16.2898
 31
0.0
  0
LINE
  8
0
 62
     0
 10
6.45612
 20
16.2898
 30
0.0
 11
6.7152
 21
15.8034
 31
0.0
  0
LINE
  8
0
 62
     0
 10
6.7152
 20
15.8034
 30
0.0
 11
6.69727
 21
14.9958
 31
0.0
  0
LINE
  8
0
 62
     0
 10
6.69727
 20
14.9958
 30
0.0
 11
6.69036
 21
14.1166
 31
0.0
  0
LINE
  8
0
 62
     0
 10
6.69036
 20
14.1166
 30
0.0
 11
6.96048
 21
13.3904
 31
0.0
  0
LINE
  8
0
 62
     0
 10
6.96048
 20
13.3904
 30
0.0
 11
7.22231
 21
12.7786
 31
0.0
  0
LINE
  8
0
 62
     0
 10
7.22231
 20
12.7786
 30
0.0
 11
7.0666
 21
12.2384
 31
0.0
  0
LINE
  8
0
 62
     0
 10
7.0666
 20
12.2384
 30
0.0
 11
6.93014
 21
11.7354
 31
0.0
  0
LINE
  8
0
 62
     0
 10
6.93014
 20
11.7354
 30
0.0
 11
7.33118
 21
11.2517
 31
0.0
  0
LINE
  8
0
 62
     0
 10
7.33118
 20
11.2517
 30
0.0
 11
7.90166
 21
10.6261
 31
0.0
  0
LINE
  8
0
 62
     0
 10
7.90166
 20
10.6261
 30
0.0
 11
8.45979
 21
9.78821
 31
0.0
  0
LINE
  8
0
 62
     0
 10
8.45979
 20
9.78821
 30
0.0
 11
8.76018
 21
9.28659
 31
0.0
  0
LINE
  8
0
 62
     0
 10
8.76018
 20
9.28659
 30
0.0
 11
9.17085
 21
8.64443
 31
0.0
  0
LINE
  8
0
 62
     0
 10
9.17085
 20
8.64443
 30
0.0
 11
9.63937
 21
7.94854
 31
0.0
  0
LINE
  8
0
 62
     0
 10
9.63937
 20
7.94854
 30
0.0
 11
10.1093
 21
7.27742
 31
0.0
  0
LINE
  8
0
 62
     0
 10
10.1093
 20
7.27742
 30
0.0
 11
10.8107
 21
6.06612
 31
0.0
  0
LINE
  8
0
 62
     0
 10
10.8107
 20
6.06612
 30
0.0
 11
11.2407
 21
4.85207
 31
0.0
  0
LINE
  8
0
 62
     0
 10
11.2407
 20
4.85207
 30
0.0
 11
11.344
 21
3.84888
 31
0.0
  0
LINE
  8
0
 62
     0
 10
11.344
 20
3.84888
 30
0.0
 11
11.0739
 21
3.26595
 31
0.0
  0
LINE
  8
0
 62
     0
 10
11.0739
 20
3.26595
 30
0.0
 11
11.0202
 21
3.08543
 31
0.0
  0
LINE
  8
0
 62
     0
 10
11.0202
 20
3.08543
 30
0.0
 11
11.0877
 21
2.71749
 31
0.0
  0
LINE
  8
0
 62
     0
 10
11.0877
 20
2.71749
 30
0.0
 11
11.26
 21
2.20624
 31
0.0
  0
LINE
  8
0
 62
     0
 10
11.26
 20
2.20624
 30
0.0
 11
11.5287
 21
1.59439
 31
0.0
  0
LINE
  8
0
 62
     0
 10
11.5287
 20
1.59439
 30
0.0
 11
11.982
 21
0.574643
 31
0.0
  0
LINE
  8
0
 62
     0
 10
11.982
 20
0.574643
 30
0.0
 11
12.1212
 21
0.0606337
 31
0.0
  0
LINE
  8
0
 62
     0
 10
12.1212
 20
0.0606337
 30
0.0
 11
11.9462
 21
0.071658
 31
0.0
  0
LINE
  8
0
 62
     0
 10
11.9462
 20
0.071658
 30
0.0
 11
11.4584
 21
0.61874
 31
0.0
  0
ENDSEC
  0
EOF
