  0
SECTION
  2
HEADER
  9
$ACADVER
  1
AC1009
  9
$EXTMIN
 10
0.0
 20
0.0
 30
0.0
  9
$EXTMAX
 10
1000.0
 20
1000.0
 30
0.0
  9
$FILLMODE
 70
 0
  9
$SPLFRAME
 70
 1
  0
ENDSEC
  0
SECTION
  2
TABLES
  0
TABLE
  2
LAYER
 70
1
  0
LAYER
  2
0
 70
     0
 62
     7
  6
CONTINUOUS
  0
ENDTAB
  0
ENDSEC
  0
SECTION
  2
ENTITIES
  0
LINE
  8
0
 62
     0
 10
17.2158
 20
0.501608
 30
0.0
 11
15.6366
 21
1.11897
 31
0.0
  0
LINE
  8
0
 62
     0
 10
15.6366
 20
1.11897
 30
0.0
 11
14.242
 21
1.43591
 31
0.0
  0
LINE
  8
0
 62
     0
 10
14.242
 20
1.43591
 30
0.0
 11
13.0624
 21
1.44832
 31
0.0
  0
LINE
  8
0
 62
     0
 10
13.0624
 20
1.44832
 30
0.0
 11
12.1281
 21
1.15204
 31
0.0
  0
LINE
  8
0
 62
     0
 10
12.1281
 20
1.15204
 30
0.0
 11
11.5755
 21
1.01975
 31
0.0
  0
LINE
  8
0
 62
     0
 10
11.5755
 20
1.01975
 30
0.0
 11
10.9527
 21
1.28571
 31
0.0
  0
LINE
  8
0
 62
     0
 10
10.9527
 20
1.28571
 30
0.0
 11
10.4924
 21
1.50895
 31
0.0
  0
LINE
  8
0
 62
     0
 10
10.4924
 20
1.50895
 30
0.0
 11
10.3008
 21
1.44418
 31
0.0
  0
LINE
  8
0
 62
     0
 10
10.3008
 20
1.44418
 30
0.0
 11
10.1189
 21
1.24713
 31
0.0
  0
LINE
  8
0
 62
     0
 10
10.1189
 20
1.24713
 30
0.0
 11
9.69864
 21
1.23059
 31
0.0
  0
LINE
  8
0
 62
     0
 10
9.69864
 20
1.23059
 30
0.0
 11
9.23011
 21
1.36701
 31
0.0
  0
LINE
  8
0
 62
     0
 10
9.23011
 20
1.36701
 30
0.0
 11
8.89938
 21
1.63298
 31
0.0
  0
LINE
  8
0
 62
     0
 10
8.89938
 20
1.63298
 30
0.0
 11
8.64443
 21
1.83692
 31
0.0
  0
LINE
  8
0
 62
     0
 10
8.64443
 20
1.83692
 30
0.0
 11
8.3523
 21
1.80523
 31
0.0
  0
LINE
  8
0
 62
     0
 10
8.3523
 20
1.80523
 30
0.0
 11
8.0119
 21
1.72806
 31
0.0
  0
LINE
  8
0
 62
     0
 10
8.0119
 20
1.72806
 30
0.0
 11
7.32014
 21
1.66191
 31
0.0
  0
LINE
  8
0
 62
     0
 10
7.32014
 20
1.66191
 30
0.0
 11
6.37893
 21
1.61506
 31
0.0
  0
LINE
  8
0
 62
     0
 10
6.37893
 20
1.61506
 30
0.0
 11
5.28754
 21
1.59301
 31
0.0
  0
LINE
  8
0
 62
     0
 10
5.28754
 20
1.59301
 30
0.0
 11
3.87643
 21
1.6123
 31
0.0
  0
LINE
  8
0
 62
     0
 10
3.87643
 20
1.6123
 30
0.0
 11
2.836
 21
1.69912
 31
0.0
  0
LINE
  8
0
 62
     0
 10
2.836
 20
1.69912
 30
0.0
 11
2.01607
 21
1.87413
 31
0.0
  0
LINE
  8
0
 62
     0
 10
2.01607
 20
1.87413
 30
0.0
 11
1.27055
 21
2.15801
 31
0.0
  0
LINE
  8
0
 62
     0
 10
1.27055
 20
2.15801
 30
0.0
 11
0
 21
2.73678
 31
0.0
  0
LINE
  8
0
 62
     0
 10
0
 20
2.73678
 30
0.0
 11
0.988053
 21
2.79879
 31
0.0
  0
LINE
  8
0
 62
     0
 10
0.988053
 20
2.79879
 30
0.0
 11
1.93339
 21
2.82774
 31
0.0
  0
LINE
  8
0
 62
     0
 10
1.93339
 20
2.82774
 30
0.0
 11
2.82222
 21
2.80706
 31
0.0
  0
LINE
  8
0
 62
     0
 10
2.82222
 20
2.80706
 30
0.0
 11
3.83783
 21
2.76572
 31
0.0
  0
LINE
  8
0
 62
     0
 10
3.83783
 20
2.76572
 30
0.0
 11
4.56269
 21
2.79466
 31
0.0
  0
LINE
  8
0
 62
     0
 10
4.56269
 20
2.79466
 30
0.0
 11
5.0643
 21
2.90491
 31
0.0
  0
LINE
  8
0
 62
     0
 10
5.0643
 20
2.90491
 30
0.0
 11
5.41295
 21
3.10058
 31
0.0
  0
LINE
  8
0
 62
     0
 10
5.41295
 20
3.10058
 30
0.0
 11
5.86355
 21
3.28111
 31
0.0
  0
LINE
  8
0
 62
     0
 10
5.86355
 20
3.28111
 30
0.0
 11
6.46437
 21
3.12126
 31
0.0
  0
LINE
  8
0
 62
     0
 10
6.46437
 20
3.12126
 30
0.0
 11
7.04314
 21
2.9614
 31
0.0
  0
LINE
  8
0
 62
     0
 10
7.04314
 20
2.9614
 30
0.0
 11
7.43038
 21
3.12126
 31
0.0
  0
LINE
  8
0
 62
     0
 10
7.43038
 20
3.12126
 30
0.0
 11
7.84105
 21
3.19016
 31
0.0
  0
LINE
  8
0
 62
     0
 10
7.84105
 20
3.19016
 30
0.0
 11
8.42532
 21
2.97794
 31
0.0
  0
LINE
  8
0
 62
     0
 10
8.42532
 20
2.97794
 30
0.0
 11
8.94623
 21
2.60863
 31
0.0
  0
LINE
  8
0
 62
     0
 10
8.94623
 20
2.60863
 30
0.0
 11
9.17222
 21
2.20486
 31
0.0
  0
LINE
  8
0
 62
     0
 10
9.17222
 20
2.20486
 30
0.0
 11
9.25491
 21
2.01056
 31
0.0
  0
LINE
  8
0
 62
     0
 10
9.25491
 20
2.01056
 30
0.0
 11
9.45473
 21
1.92925
 31
0.0
  0
LINE
  8
0
 62
     0
 10
9.45473
 20
1.92925
 30
0.0
 11
9.65316
 21
2.04914
 31
0.0
  0
LINE
  8
0
 62
     0
 10
9.65316
 20
2.04914
 30
0.0
 11
9.73723
 21
2.3344
 31
0.0
  0
LINE
  8
0
 62
     0
 10
9.73723
 20
2.3344
 30
0.0
 11
9.91224
 21
2.61001
 31
0.0
  0
LINE
  8
0
 62
     0
 10
9.91224
 20
2.61001
 30
0.0
 11
10.4745
 21
2.60449
 31
0.0
  0
LINE
  8
0
 62
     0
 10
10.4745
 20
2.60449
 30
0.0
 11
11.1814
 21
2.63343
 31
0.0
  0
LINE
  8
0
 62
     0
 10
11.1814
 20
2.63343
 30
0.0
 11
11.8484
 21
2.88837
 31
0.0
  0
LINE
  8
0
 62
     0
 10
11.8484
 20
2.88837
 30
0.0
 11
12.7055
 21
3.25217
 31
0.0
  0
LINE
  8
0
 62
     0
 10
12.7055
 20
3.25217
 30
0.0
 11
13.6122
 21
3.27146
 31
0.0
  0
LINE
  8
0
 62
     0
 10
13.6122
 20
3.27146
 30
0.0
 11
14.5259
 21
2.95451
 31
0.0
  0
LINE
  8
0
 62
     0
 10
14.5259
 20
2.95451
 30
0.0
 11
15.4051
 21
2.30684
 31
0.0
  0
LINE
  8
0
 62
     0
 10
15.4051
 20
2.30684
 30
0.0
 11
15.9536
 21
1.82728
 31
0.0
  0
LINE
  8
0
 62
     0
 10
15.9536
 20
1.82728
 30
0.0
 11
16.4207
 21
1.54202
 31
0.0
  0
LINE
  8
0
 62
     0
 10
16.4207
 20
1.54202
 30
0.0
 11
16.8906
 21
1.41525
 31
0.0
  0
LINE
  8
0
 62
     0
 10
16.8906
 20
1.41525
 30
0.0
 11
17.4501
 21
1.40973
 31
0.0
  0
LINE
  8
0
 62
     0
 10
17.4501
 20
1.40973
 30
0.0
 11
18.2053
 21
1.37942
 31
0.0
  0
LINE
  8
0
 62
     0
 10
18.2053
 20
1.37942
 30
0.0
 11
18.7289
 21
1.18511
 31
0.0
  0
LINE
  8
0
 62
     0
 10
18.7289
 20
1.18511
 30
0.0
 11
18.9894
 21
0.850251
 31
0.0
  0
LINE
  8
0
 62
     0
 10
18.9894
 20
0.850251
 30
0.0
 11
18.9549
 21
0.395496
 31
0.0
  0
LINE
  8
0
 62
     0
 10
18.9549
 20
0.395496
 30
0.0
 11
18.7909
 21
0.0909507
 31
0.0
  0
LINE
  8
0
 62
     0
 10
18.7909
 20
0.0909507
 30
0.0
 11
18.5319
 21
0.00137804
 31
0.0
  0
LINE
  8
0
 62
     0
 10
18.5319
 20
0.00137804
 30
0.0
 11
18.0496
 21
0.136426
 31
0.0
  0
LINE
  8
0
 62
     0
 10
18.0496
 20
0.136426
 30
0.0
 11
17.2158
 21
0.501608
 31
0.0
  0
ENDSEC
  0
EOF
