  0
SECTION
  2
HEADER
  9
$ACADVER
  1
AC1014
  9
$HANDSEED
  5
FFFF
  9
$MEASUREMENT
 70
     1
  0
ENDSEC
  0
SECTION
  2
TABLES
  0
TABLE
  2
VPORT
  5
8
330
0
100
AcDbSymbolTable
 70
     4
  0
VPORT
  5
2E
330
8
100
AcDbSymbolTableRecord
100
AcDbViewportTableRecord
  2
*ACTIVE
 70
     0
 10
0.0
 20
0.0
 11
1.0
 21
1.0
 12
210.0
 22
148.5
 13
0.0
 23
0.0
 14
10.0
 24
10.0
 15
10.0
 25
10.0
 16
0.0
 26
0.0
 36
1.0
 17
0.0
 27
0.0
 37
0.0
 40
341.0
 41
1.24
 42
50.0
 43
0.0
 44
0.0
 50
0.0
 51
0.0
 71
     0
 72
   100
 73
     1
 74
     3
 75
     0
 76
     0
 77
     0
 78
     0
  0
ENDTAB
  0
TABLE
  2
LTYPE
  5
5
330
0
100
AcDbSymbolTable
 70
     1
  0
LTYPE
  5
14
330
5
100
AcDbSymbolTableRecord
100
AcDbLinetypeTableRecord
  2
BYBLOCK
 70
     0
  3

 72
    65
 73
     0
 40
0.0
  0
LTYPE
  5
15
330
5
100
AcDbSymbolTableRecord
100
AcDbLinetypeTableRecord
  2
BYLAYER
 70
     0
  3

 72
    65
 73
     0
 40
0.0
  0
LTYPE
  5
16
330
5
100
AcDbSymbolTableRecord
100
AcDbLinetypeTableRecord
  2
CONTINUOUS
 70
     0
  3
Solid line
 72
    65
 73
     0
 40
0.0
  0
ENDTAB
  0
TABLE
  2
LAYER
  5
2
100
AcDbSymbolTable
 70
2
  0
LAYER
  5
50
100
AcDbSymbolTableRecord
100
AcDbLayerTableRecord
  2
0
 70
0
  6
CONTINUOUS
  0
LAYER
  5
51
100
AcDbSymbolTableRecord
100
AcDbLayerTableRecord
  2
Layer_1
 70
0
  6
CONTINUOUS
  0
ENDTAB
  0
TABLE
  2
STYLE
  5
3
330
0
100
AcDbSymbolTable
 70
     1
  0
STYLE
  5
11
330
3
100
AcDbSymbolTableRecord
100
AcDbTextStyleTableRecord
  2
STANDARD
 70
     0
 40
0.0
 41
1.0
 50
0.0
 71
     0
 42
2.5
  3
txt
  4

  0
ENDTAB
  0
TABLE
  2
VIEW
  5
6
330
0
100
AcDbSymbolTable
 70
     0
  0
ENDTAB
  0
TABLE
  2
UCS
  5
7
330
0
100
AcDbSymbolTable
 70
     0
  0
ENDTAB
  0
TABLE
  2
APPID
  5
9
330
0
100
AcDbSymbolTable
 70
     2
  0
APPID
  5
12
330
9
100
AcDbSymbolTableRecord
100
AcDbRegAppTableRecord
  2
ACAD
 70
     0
  0
ENDTAB
  0
TABLE
  2
DIMSTYLE
  5
A
330
0
100
AcDbSymbolTable
 70
     1
  0
DIMSTYLE
105
27
330
A
100
AcDbSymbolTableRecord
100
AcDbDimStyleTableRecord
  2
ISO-25
 70
     0
  3

  4

  5

  6

  7

 40
1.0
 41
2.5
 42
0.625
 43
3.75
 44
1.25
 45
0.0
 46
0.0
 47
0.0
 48
0.0
140
2.5
141
2.5
142
0.0
143
0.03937007874016
144
1.0
145
0.0
146
1.0
147
0.625
 71
     0
 72
     0
 73
     0
 74
     0
 75
     0
 76
     0
 77
     1
 78
     8
170
     0
171
     3
172
     1
173
     0
174
     0
175
     0
176
     0
177
     0
178
     0
270
     2
271
     2
272
     2
273
     2
274
     3
340
11
275
     0
280
     0
281
     0
282
     0
283
     0
284
     8
285
     0
286
     0
287
     3
288
     0
  0
ENDTAB
  0
TABLE
  2
BLOCK_RECORD
  5
1
330
0
100
AcDbSymbolTable
 70
     1
  0
BLOCK_RECORD
  5
1F
330
1
100
AcDbSymbolTableRecord
100
AcDbBlockTableRecord
  2
*MODEL_SPACE
  0
BLOCK_RECORD
  5
1B
330
1
100
AcDbSymbolTableRecord
100
AcDbBlockTableRecord
  2
*PAPER_SPACE
  0
ENDTAB
  0
ENDSEC
  0
SECTION
  2
BLOCKS
  0
BLOCK
  5
20
330
1F
100
AcDbEntity
  8
0
100
AcDbBlockBegin
  2
*MODEL_SPACE
 70
     0
 10
0.0
 20
0.0
 30
0.0
  3
*MODEL_SPACE
  1

  0
ENDBLK
  5
21
330
1F
100
AcDbEntity
  8
0
100
AcDbBlockEnd
  0
BLOCK
  5
1C
330
1B
100
AcDbEntity
 67
     1
  8
0
100
AcDbBlockBegin
  2
*PAPER_SPACE
  1

  0
ENDBLK
  5
1D
330
1B
100
AcDbEntity
 67
     1
  8
0
100
AcDbBlockEnd
  0
ENDSEC
  0
SECTION
  2
ENTITIES
  0
LWPOLYLINE
  5
100
100
AcDbEntity
  8
Layer_1
 62
7
100
AcDbPolyline
 90
81
 70
1
 10
-0.222429
 20
-1.954246
 30
0.0
 10
-0.297243
 20
-1.880078
 30
0.0
 10
-0.394865
 20
-1.799560
 30
0.0
 10
-0.503249
 20
-1.719099
 30
0.0
 10
-0.545755
 20
-1.547226
 30
0.0
 10
-0.572281
 20
-1.383847
 30
0.0
 10
-0.625260
 20
-1.157505
 30
0.0
 10
-0.685906
 20
-0.856854
 30
0.0
 10
-0.759934
 20
-0.466032
 30
0.0
 10
-0.804910
 20
-0.221458
 30
0.0
 10
-0.845521
 20
0.008045
 30
0.0
 10
-0.880975
 20
0.217369
 30
0.0
 10
-0.910480
 20
0.401406
 30
0.0
 10
-0.933241
 20
0.555020
 30
0.0
 10
-0.948470
 20
0.673101
 30
0.0
 10
-0.955370
 20
0.750515
 30
0.0
 10
-0.953141
 20
0.782152
 30
0.0
 10
-0.935420
 20
0.774250
 30
0.0
 10
-0.897891
 20
0.738633
 30
0.0
 10
-0.842878
 20
0.677984
 30
0.0
 10
-0.772704
 20
0.595123
 30
0.0
 10
-0.689691
 20
0.492846
 30
0.0
 10
-0.596162
 20
0.373974
 30
0.0
 10
-0.494440
 20
0.241301
 30
0.0
 10
-0.386847
 20
0.097678
 30
0.0
 10
-0.196382
 20
-0.186322
 30
0.0
 10
-0.041252
 20
-0.371770
 30
0.0
 10
0.088945
 20
-0.467359
 30
0.0
 10
0.204611
 20
-0.481752
 30
0.0
 10
0.316148
 20
-0.423332
 30
0.0
 10
0.433958
 20
-0.300876
 30
0.0
 10
0.568445
 20
-0.122963
 30
0.0
 10
0.730010
 20
0.101799
 30
0.0
 10
0.836130
 20
0.246381
 30
0.0
 10
0.936333
 20
0.380070
 30
0.0
 10
1.028340
 20
0.500014
 30
0.0
 10
1.109872
 20
0.603364
 30
0.0
 10
1.178649
 20
0.687297
 30
0.0
 10
1.232394
 20
0.748963
 30
0.0
 10
1.268826
 20
0.785539
 30
0.0
 10
1.285666
 20
0.794288
 30
0.0
 10
1.277459
 20
0.676008
 30
0.0
 10
1.232564
 20
0.386730
 30
0.0
 10
1.161846
 20
-0.016593
 30
0.0
 10
1.076170
 20
-0.476898
 30
0.0
 10
0.986399
 20
-0.937202
 30
0.0
 10
0.903400
 20
-1.340498
 30
0.0
 10
0.838035
 20
-1.629776
 30
0.0
 10
0.801171
 20
-1.747998
 30
0.0
 10
0.788296
 20
-1.757876
 30
0.0
 10
0.765159
 20
-1.775938
 30
0.0
 10
0.733065
 20
-1.801338
 30
0.0
 10
0.693313
 20
-1.833117
 30
0.0
 10
0.647207
 20
-1.870144
 30
0.0
 10
0.596047
 20
-1.911377
 30
0.0
 10
0.541136
 20
-1.955742
 30
0.0
 10
0.483776
 20
-2.002224
 30
0.0
 10
0.425975
 20
-2.048170
 30
0.0
 10
0.369800
 20
-2.090955
 30
0.0
 10
0.316642
 20
-2.129704
 30
0.0
 10
0.267891
 20
-2.163458
 30
0.0
 10
0.224939
 20
-2.191398
 30
0.0
 10
0.189174
 20
-2.212282
 30
0.0
 10
0.161987
 20
-2.225547
 30
0.0
 10
0.144769
 20
-2.230062
 30
0.0
 10
0.126978
 20
-2.224418
 30
0.0
 10
0.098142
 20
-2.208331
 30
0.0
 10
0.059771
 20
-2.182649
 30
0.0
 10
0.013369
 20
-2.148867
 30
0.0
 10
-0.039558
 20
-2.108001
 30
0.0
 10
-0.097503
 20
-2.061237
 30
0.0
 10
-0.158961
 20
-2.009703
 30
0.0
 10
-0.222425
 20
-1.954585
 30
0.0
 10
-0.222425
 20
-1.954557
 30
0.0
 10
-0.222425
 20
-1.954557
 30
0.0
 10
-0.222425
 20
-1.954557
 30
0.0
 10
-0.222425
 20
-1.954529
 30
0.0
 10
-0.222425
 20
-1.954529
 30
0.0
 10
-0.222425
 20
-1.954500
 30
0.0
 10
-0.222425
 20
-1.954500
 30
0.0
 10
-0.222429
 20
-1.954246
 30
0.0
  0
LWPOLYLINE
  5
101
100
AcDbEntity
  8
Layer_1
 62
7
100
AcDbPolyline
 90
41
 70
1
 10
-1.648211
 20
-1.368522
 30
0.0
 10
-1.968116
 20
-1.259952
 30
0.0
 10
-2.246548
 20
-1.150873
 30
0.0
 10
-2.487978
 20
-1.038520
 30
0.0
 10
-2.696874
 20
-0.920015
 30
0.0
 10
-2.877707
 20
-0.792563
 30
0.0
 10
-3.034947
 20
-0.653343
 30
0.0
 10
-3.173063
 20
-0.499504
 30
0.0
 10
-3.296526
 20
-0.328280
 30
0.0
 10
-3.405863
 20
-0.152088
 30
0.0
 10
-3.473675
 20
-0.020996
 30
0.0
 10
-3.498020
 20
0.066013
 30
0.0
 10
-3.476958
 20
0.109899
 30
0.0
 10
-3.408544
 20
0.112721
 30
0.0
 10
-3.290838
 20
0.073351
 30
0.0
 10
-3.121898
 20
-0.006179
 30
0.0
 10
-2.899783
 20
-0.124854
 30
0.0
 10
-2.763380
 20
-0.200179
 30
0.0
 10
-2.611049
 20
-0.284084
 30
0.0
 10
-2.447916
 20
-0.373746
 30
0.0
 10
-2.279111
 20
-0.466371
 30
0.0
 10
-2.109759
 20
-0.559137
 30
0.0
 10
-1.944988
 20
-0.649223
 30
0.0
 10
-1.789926
 20
-0.733833
 30
0.0
 10
-1.649699
 20
-0.810174
 30
0.0
 10
-1.400447
 20
-0.947870
 30
0.0
 10
-1.196646
 20
-1.065924
 30
0.0
 10
-1.034530
 20
-1.167213
 30
0.0
 10
-0.910334
 20
-1.254589
 30
0.0
 10
-0.820292
 20
-1.330930
 30
0.0
 10
-0.760638
 20
-1.399144
 30
0.0
 10
-0.727607
 20
-1.462079
 30
0.0
 10
-0.717433
 20
-1.522616
 30
0.0
 10
-0.718449
 20
-1.570057
 30
0.0
 10
-0.729207
 20
-1.602287
 30
0.0
 10
-0.761318
 20
-1.617245
 30
0.0
 10
-0.826383
 20
-1.613294
 30
0.0
 10
-0.936004
 20
-1.588176
 30
0.0
 10
-1.101782
 20
-1.540114
 30
0.0
 10
-1.335320
 20
-1.467187
 30
0.0
 10
-1.648211
 20
-1.368522
 30
0.0
  0
LWPOLYLINE
  5
102
100
AcDbEntity
  8
Layer_1
 62
7
100
AcDbPolyline
 90
49
 70
1
 10
1.076076
 20
-1.474158
 30
0.0
 10
1.099032
 20
-1.416190
 30
0.0
 10
1.154719
 20
-1.348344
 30
0.0
 10
1.248218
 20
-1.267176
 30
0.0
 10
1.384612
 20
-1.169330
 30
0.0
 10
1.568980
 20
-1.051305
 30
0.0
 10
1.806405
 20
-0.909770
 30
0.0
 10
2.101967
 20
-0.741227
 30
0.0
 10
2.460746
 20
-0.542317
 30
0.0
 10
2.733703
 20
-0.393219
 30
0.0
 10
2.989430
 20
-0.254986
 30
0.0
 10
3.222252
 20
-0.130611
 30
0.0
 10
3.426497
 20
-0.023028
 30
0.0
 10
3.596489
 20
0.064771
 30
0.0
 10
3.726554
 20
0.129880
 30
0.0
 10
3.811018
 20
0.169250
 30
0.0
 10
3.844206
 20
0.179974
 30
0.0
 10
3.848251
 20
0.141112
 30
0.0
 10
3.822715
 20
0.064461
 30
0.0
 10
3.773204
 20
-0.040385
 30
0.0
 10
3.705321
 20
-0.163772
 30
0.0
 10
3.624669
 20
-0.296022
 30
0.0
 10
3.536855
 20
-0.427509
 30
0.0
 10
3.447480
 20
-0.548610
 30
0.0
 10
3.362149
 20
-0.649646
 30
0.0
 10
3.249938
 20
-0.760192
 30
0.0
 10
3.125632
 20
-0.861538
 30
0.0
 10
2.985560
 20
-0.955575
 30
0.0
 10
2.826052
 20
-1.044108
 30
0.0
 10
2.643436
 20
-1.129029
 30
0.0
 10
2.434042
 20
-1.212200
 30
0.0
 10
2.194200
 20
-1.295483
 30
0.0
 10
1.920239
 20
-1.380743
 30
0.0
 10
1.792111
 20
-1.419040
 30
0.0
 10
1.667696
 20
-1.456660
 30
0.0
 10
1.550065
 20
-1.492616
 30
0.0
 10
1.442291
 20
-1.525946
 30
0.0
 10
1.347446
 20
-1.555720
 30
0.0
 10
1.268602
 20
-1.580838
 30
0.0
 10
1.208831
 20
-1.600594
 30
0.0
 10
1.171206
 20
-1.613858
 30
0.0
 10
1.140497
 20
-1.623454
 30
0.0
 10
1.115557
 20
-1.626276
 30
0.0
 10
1.096188
 20
-1.621196
 30
0.0
 10
1.082196
 20
-1.608496
 30
0.0
 10
1.073385
 20
-1.587894
 30
0.0
 10
1.069558
 20
-1.558853
 30
0.0
 10
1.070518
 20
-1.521261
 30
0.0
 10
1.076076
 20
-1.474158
 30
0.0
  0
LWPOLYLINE
  5
103
100
AcDbEntity
  8
Layer_1
 62
7
100
AcDbPolyline
 90
41
 70
1
 10
-1.892897
 20
-0.476728
 30
0.0
 10
-2.246158
 20
-0.262324
 30
0.0
 10
-2.543650
 20
-0.063696
 30
0.0
 10
-2.789580
 20
0.123361
 30
0.0
 10
-2.988153
 20
0.303080
 30
0.0
 10
-3.143574
 20
0.479751
 30
0.0
 10
-3.260049
 20
0.657551
 30
0.0
 10
-3.341784
 20
0.840741
 30
0.0
 10
-3.392984
 20
1.033527
 30
0.0
 10
-3.427480
 20
1.243868
 30
0.0
 10
-3.432780
 20
1.387716
 30
0.0
 10
-3.398017
 20
1.461517
 30
0.0
 10
-3.312326
 20
1.461658
 30
0.0
 10
-3.164840
 20
1.384584
 30
0.0
 10
-2.944695
 20
1.226652
 30
0.0
 10
-2.641023
 20
0.984336
 30
0.0
 10
-2.242960
 20
0.654023
 30
0.0
 10
-2.011184
 20
0.459826
 30
0.0
 10
-1.791203
 20
0.274886
 30
0.0
 10
-1.588100
 20
0.103549
 30
0.0
 10
-1.406959
 20
-0.049896
 30
0.0
 10
-1.252863
 20
-0.181129
 30
0.0
 10
-1.130893
 20
-0.285805
 30
0.0
 10
-1.046135
 20
-0.359634
 30
0.0
 10
-1.003670
 20
-0.398299
 30
0.0
 10
-0.961946
 20
-0.458356
 30
0.0
 10
-0.922549
 20
-0.546776
 30
0.0
 10
-0.887849
 20
-0.652271
 30
0.0
 10
-0.860220
 20
-0.763607
 30
0.0
 10
-0.842036
 20
-0.869525
 30
0.0
 10
-0.835666
 20
-0.958792
 30
0.0
 10
-0.843487
 20
-1.020147
 30
0.0
 10
-0.867868
 20
-1.042443
 30
0.0
 10
-0.899878
 20
-1.030872
 30
0.0
 10
-0.967759
 20
-0.997682
 30
0.0
 10
-1.067307
 20
-0.945246
 30
0.0
 10
-1.194317
 20
-0.875904
 30
0.0
 10
-1.344585
 20
-0.792027
 30
0.0
 10
-1.513908
 20
-0.695987
 30
0.0
 10
-1.698080
 20
-0.590154
 30
0.0
 10
-1.892897
 20
-0.476728
 30
0.0
  0
LWPOLYLINE
  5
104
100
AcDbEntity
  8
Layer_1
 62
7
100
AcDbPolyline
 90
49
 70
1
 10
1.178432
 20
-0.853749
 30
0.0
 10
1.188721
 20
-0.813589
 30
0.0
 10
1.198365
 20
-0.772554
 30
0.0
 10
1.207151
 20
-0.731773
 30
0.0
 10
1.214864
 20
-0.692431
 30
0.0
 10
1.221287
 20
-0.655686
 30
0.0
 10
1.226209
 20
-0.622637
 30
0.0
 10
1.229415
 20
-0.594415
 30
0.0
 10
1.230685
 20
-0.572402
 30
0.0
 10
1.334440
 20
-0.453332
 30
0.0
 10
1.608149
 20
-0.196764
 30
0.0
 10
1.996799
 20
0.150059
 30
0.0
 10
2.445378
 20
0.539808
 30
0.0
 10
2.898875
 20
0.925239
 30
0.0
 10
3.302278
 20
1.259079
 30
0.0
 10
3.600574
 20
1.494058
 30
0.0
 10
3.738752
 20
1.582873
 30
0.0
 10
3.772107
 20
1.552195
 30
0.0
 10
3.780924
 20
1.468234
 30
0.0
 10
3.768131
 20
1.343097
 30
0.0
 10
3.736661
 20
1.188947
 30
0.0
 10
3.689446
 20
1.017836
 30
0.0
 10
3.629417
 20
0.841927
 30
0.0
 10
3.559505
 20
0.673327
 30
0.0
 10
3.482642
 20
0.524173
 30
0.0
 10
3.410809
 20
0.411368
 30
0.0
 10
3.330209
 20
0.307511
 30
0.0
 10
3.233579
 20
0.206842
 30
0.0
 10
3.113658
 20
0.103577
 30
0.0
 10
2.963184
 20
-0.007986
 30
0.0
 10
2.774897
 20
-0.133687
 30
0.0
 10
2.541534
 20
-0.279286
 30
0.0
 10
2.255834
 20
-0.450510
 30
0.0
 10
2.052944
 20
-0.569805
 30
0.0
 10
1.861202
 20
-0.681114
 30
0.0
 10
1.684981
 20
-0.781980
 30
0.0
 10
1.528653
 20
-0.869949
 30
0.0
 10
1.396592
 20
-0.942621
 30
0.0
 10
1.293170
 20
-0.997570
 30
0.0
 10
1.222761
 20
-1.032283
 30
0.0
 10
1.189738
 20
-1.044418
 30
0.0
 10
1.178243
 20
-1.040467
 30
0.0
 10
1.169536
 20
-1.029461
 30
0.0
 10
1.163663
 20
-1.011963
 30
0.0
 10
1.160672
 20
-0.988538
 30
0.0
 10
1.160605
 20
-0.960288
 30
0.0
 10
1.163512
 20
-0.927889
 30
0.0
 10
1.169436
 20
-0.892160
 30
0.0
 10
1.178432
 20
-0.853749
 30
0.0
  0
LWPOLYLINE
  5
105
100
AcDbEntity
  8
Layer_1
 62
7
100
AcDbPolyline
 90
57
 70
1
 10
-1.831240
 20
0.558999
 30
0.0
 10
-2.040544
 20
0.758361
 30
0.0
 10
-2.216953
 20
0.933169
 30
0.0
 10
-2.363169
 20
1.086698
 30
0.0
 10
-2.481890
 20
1.222193
 30
0.0
 10
-2.575817
 20
1.342899
 30
0.0
 10
-2.647649
 20
1.452063
 30
0.0
 10
-2.700086
 20
1.552957
 30
0.0
 10
-2.735827
 20
1.648828
 30
0.0
 10
-2.780088
 20
1.818670
 30
0.0
 10
-2.810624
 20
1.986451
 30
0.0
 10
-2.827451
 20
2.151579
 30
0.0
 10
-2.830583
 20
2.313433
 30
0.0
 10
-2.820034
 20
2.471421
 30
0.0
 10
-2.795819
 20
2.624894
 30
0.0
 10
-2.757953
 20
2.773258
 30
0.0
 10
-2.706450
 20
2.915893
 30
0.0
 10
-2.690227
 20
2.954727
 30
0.0
 10
-2.674005
 20
2.993532
 30
0.0
 10
-2.657783
 20
3.032366
 30
0.0
 10
-2.641561
 20
3.071172
 30
0.0
 10
-2.625339
 20
3.110006
 30
0.0
 10
-2.609117
 20
3.148839
 30
0.0
 10
-2.592895
 20
3.187645
 30
0.0
 10
-2.576672
 20
3.226479
 30
0.0
 10
-2.496929
 20
3.107127
 30
0.0
 10
-2.417186
 20
2.987803
 30
0.0
 10
-2.337443
 20
2.868452
 30
0.0
 10
-2.257700
 20
2.749128
 30
0.0
 10
-2.177957
 20
2.629776
 30
0.0
 10
-2.098213
 20
2.510453
 30
0.0
 10
-2.018470
 20
2.391101
 30
0.0
 10
-1.938727
 20
2.271777
 30
0.0
 10
-1.747788
 20
1.982782
 30
0.0
 10
-1.595265
 20
1.742244
 30
0.0
 10
-1.474974
 20
1.537068
 30
0.0
 10
-1.380733
 20
1.354188
 30
0.0
 10
-1.306357
 20
1.180509
 30
0.0
 10
-1.245662
 20
1.002963
 30
0.0
 10
-1.192464
 20
0.808483
 30
0.0
 10
-1.140578
 20
0.584004
 30
0.0
 10
-1.108872
 20
0.436260
 30
0.0
 10
-1.080215
 20
0.297520
 30
0.0
 10
-1.055165
 20
0.170859
 30
0.0
 10
-1.034286
 20
0.059381
 30
0.0
 10
-1.018140
 20
-0.033781
 30
0.0
 10
-1.007286
 20
-0.105550
 30
0.0
 10
-1.002288
 20
-0.152794
 30
0.0
 10
-1.003699
 20
-0.172549
 30
0.0
 10
-1.024784
 20
-0.161825
 30
0.0
 10
-1.076190
 20
-0.122060
 30
0.0
 10
-1.154524
 20
-0.056217
 30
0.0
 10
-1.256387
 20
0.032683
 30
0.0
 10
-1.378385
 20
0.141649
 30
0.0
 10
-1.517122
 20
0.267661
 30
0.0
 10
-1.669200
 20
0.407728
 30
0.0
 10
-1.831240
 20
0.558999
 30
0.0
  0
LWPOLYLINE
  5
106
100
AcDbEntity
  8
Layer_1
 62
7
100
AcDbPolyline
 90
49
 70
1
 10
1.318777
 20
-0.141307
 30
0.0
 10
1.322462
 20
-0.112549
 30
0.0
 10
1.332191
 20
-0.057939
 30
0.0
 10
1.347298
 20
0.019390
 30
0.0
 10
1.367121
 20
0.116192
 30
0.0
 10
1.390997
 20
0.229335
 30
0.0
 10
1.418263
 20
0.355630
 30
0.0
 10
1.448256
 20
0.491886
 30
0.0
 10
1.480313
 20
0.634888
 30
0.0
 10
1.531182
 20
0.845765
 30
0.0
 10
1.584880
 20
1.032991
 30
0.0
 10
1.646586
 20
1.207546
 30
0.0
 10
1.721480
 20
1.380350
 30
0.0
 10
1.814741
 20
1.562299
 30
0.0
 10
1.931549
 20
1.764370
 30
0.0
 10
2.077081
 20
1.997429
 30
0.0
 10
2.256519
 20
2.272455
 30
0.0
 10
2.333624
 20
2.389069
 30
0.0
 10
2.410729
 20
2.505683
 30
0.0
 10
2.487835
 20
2.622297
 30
0.0
 10
2.564940
 20
2.738912
 30
0.0
 10
2.642045
 20
2.855526
 30
0.0
 10
2.719151
 20
2.972140
 30
0.0
 10
2.796256
 20
3.088754
 30
0.0
 10
2.873361
 20
3.205368
 30
0.0
 10
2.889581
 20
3.175481
 30
0.0
 10
2.905800
 20
3.145566
 30
0.0
 10
2.922019
 20
3.115678
 30
0.0
 10
2.938239
 20
3.085763
 30
0.0
 10
2.954458
 20
3.055875
 30
0.0
 10
2.970677
 20
3.025988
 30
0.0
 10
2.986897
 20
2.996072
 30
0.0
 10
3.003116
 20
2.966185
 30
0.0
 10
3.066968
 20
2.808395
 30
0.0
 10
3.109492
 20
2.617584
 30
0.0
 10
3.131118
 20
2.404732
 30
0.0
 10
3.132276
 20
2.180817
 30
0.0
 10
3.113412
 20
1.956789
 30
0.0
 10
3.074952
 20
1.743655
 30
0.0
 10
3.017330
 20
1.552336
 30
0.0
 10
2.940979
 20
1.393812
 30
0.0
 10
2.816855
 20
1.234695
 30
0.0
 10
2.607228
 20
1.006575
 30
0.0
 10
2.343615
 20
0.739254
 30
0.0
 10
2.057529
 20
0.462564
 30
0.0
 10
1.780487
 20
0.206334
 30
0.0
 10
1.544003
 20
0.000396
 30
0.0
 10
1.379592
 20
-0.125418
 30
0.0
 10
1.318777
 20
-0.141307
 30
0.0
  0
ENDSEC
  0
SECTION
  2
OBJECTS
  0
DICTIONARY
  5
C
330
0
100
AcDbDictionary
  3
ACAD_GROUP
350
D
  3
ACAD_MLINESTYLE
350
17
  0
DICTIONARY
  5
D
330
C
100
AcDbDictionary
  0
DICTIONARY
  5
1A
330
C
100
AcDbDictionary
  0
DICTIONARY
  5
17
330
C
100
AcDbDictionary
  3
STANDARD
350
18
  0
DICTIONARY
  5
19
330
C
100
AcDbDictionary
  0
ENDSEC
  0
EOF
