  0
SECTION
  2
HEADER
  9
$ACADVER
  1
AC1014
  9
$HANDSEED
  5
FFFF
  9
$MEASUREMENT
 70
     1
  0
ENDSEC
  0
SECTION
  2
TABLES
  0
TABLE
  2
VPORT
  5
8
330
0
100
AcDbSymbolTable
 70
     4
  0
VPORT
  5
2E
330
8
100
AcDbSymbolTableRecord
100
AcDbViewportTableRecord
  2
*ACTIVE
 70
     0
 10
0.0
 20
0.0
 11
1.0
 21
1.0
 12
210.0
 22
148.5
 13
0.0
 23
0.0
 14
10.0
 24
10.0
 15
10.0
 25
10.0
 16
0.0
 26
0.0
 36
1.0
 17
0.0
 27
0.0
 37
0.0
 40
341.0
 41
1.24
 42
50.0
 43
0.0
 44
0.0
 50
0.0
 51
0.0
 71
     0
 72
   100
 73
     1
 74
     3
 75
     0
 76
     0
 77
     0
 78
     0
  0
ENDTAB
  0
TABLE
  2
LTYPE
  5
5
330
0
100
AcDbSymbolTable
 70
     1
  0
LTYPE
  5
14
330
5
100
AcDbSymbolTableRecord
100
AcDbLinetypeTableRecord
  2
BYBLOCK
 70
     0
  3

 72
    65
 73
     0
 40
0.0
  0
LTYPE
  5
15
330
5
100
AcDbSymbolTableRecord
100
AcDbLinetypeTableRecord
  2
BYLAYER
 70
     0
  3

 72
    65
 73
     0
 40
0.0
  0
LTYPE
  5
16
330
5
100
AcDbSymbolTableRecord
100
AcDbLinetypeTableRecord
  2
CONTINUOUS
 70
     0
  3
Solid line
 72
    65
 73
     0
 40
0.0
  0
ENDTAB
  0
TABLE
  2
LAYER
  5
2
100
AcDbSymbolTable
 70
2
  0
LAYER
  5
50
100
AcDbSymbolTableRecord
100
AcDbLayerTableRecord
  2
0
 70
0
  6
CONTINUOUS
  0
LAYER
  5
51
100
AcDbSymbolTableRecord
100
AcDbLayerTableRecord
  2
Layer_1
 70
0
  6
CONTINUOUS
  0
ENDTAB
  0
TABLE
  2
STYLE
  5
3
330
0
100
AcDbSymbolTable
 70
     1
  0
STYLE
  5
11
330
3
100
AcDbSymbolTableRecord
100
AcDbTextStyleTableRecord
  2
STANDARD
 70
     0
 40
0.0
 41
1.0
 50
0.0
 71
     0
 42
2.5
  3
txt
  4

  0
ENDTAB
  0
TABLE
  2
VIEW
  5
6
330
0
100
AcDbSymbolTable
 70
     0
  0
ENDTAB
  0
TABLE
  2
UCS
  5
7
330
0
100
AcDbSymbolTable
 70
     0
  0
ENDTAB
  0
TABLE
  2
APPID
  5
9
330
0
100
AcDbSymbolTable
 70
     2
  0
APPID
  5
12
330
9
100
AcDbSymbolTableRecord
100
AcDbRegAppTableRecord
  2
ACAD
 70
     0
  0
ENDTAB
  0
TABLE
  2
DIMSTYLE
  5
A
330
0
100
AcDbSymbolTable
 70
     1
  0
DIMSTYLE
105
27
330
A
100
AcDbSymbolTableRecord
100
AcDbDimStyleTableRecord
  2
ISO-25
 70
     0
  3

  4

  5

  6

  7

 40
1.0
 41
2.5
 42
0.625
 43
3.75
 44
1.25
 45
0.0
 46
0.0
 47
0.0
 48
0.0
140
2.5
141
2.5
142
0.0
143
0.03937007874016
144
1.0
145
0.0
146
1.0
147
0.625
 71
     0
 72
     0
 73
     0
 74
     0
 75
     0
 76
     0
 77
     1
 78
     8
170
     0
171
     3
172
     1
173
     0
174
     0
175
     0
176
     0
177
     0
178
     0
270
     2
271
     2
272
     2
273
     2
274
     3
340
11
275
     0
280
     0
281
     0
282
     0
283
     0
284
     8
285
     0
286
     0
287
     3
288
     0
  0
ENDTAB
  0
TABLE
  2
BLOCK_RECORD
  5
1
330
0
100
AcDbSymbolTable
 70
     1
  0
BLOCK_RECORD
  5
1F
330
1
100
AcDbSymbolTableRecord
100
AcDbBlockTableRecord
  2
*MODEL_SPACE
  0
BLOCK_RECORD
  5
1B
330
1
100
AcDbSymbolTableRecord
100
AcDbBlockTableRecord
  2
*PAPER_SPACE
  0
ENDTAB
  0
ENDSEC
  0
SECTION
  2
BLOCKS
  0
BLOCK
  5
20
330
1F
100
AcDbEntity
  8
0
100
AcDbBlockBegin
  2
*MODEL_SPACE
 70
     0
 10
0.0
 20
0.0
 30
0.0
  3
*MODEL_SPACE
  1

  0
ENDBLK
  5
21
330
1F
100
AcDbEntity
  8
0
100
AcDbBlockEnd
  0
BLOCK
  5
1C
330
1B
100
AcDbEntity
 67
     1
  8
0
100
AcDbBlockBegin
  2
*PAPER_SPACE
  1

  0
ENDBLK
  5
1D
330
1B
100
AcDbEntity
 67
     1
  8
0
100
AcDbBlockEnd
  0
ENDSEC
  0
SECTION
  2
ENTITIES
  0
LWPOLYLINE
  5
100
100
AcDbEntity
  8
Layer_1
 62
7
100
AcDbPolyline
 90
475
 70
1
 10
-3.516714
 20
2.328024
 30
0.0
 10
-3.522953
 20
2.323509
 30
0.0
 10
-3.535845
 20
2.317864
 30
0.0
 10
-3.539590
 20
2.305164
 30
0.0
 10
-3.533351
 20
2.284280
 30
0.0
 10
-3.517131
 20
2.253969
 30
0.0
 10
-3.490512
 20
2.213724
 30
0.0
 10
-3.452663
 20
2.162473
 30
0.0
 10
-3.403999
 20
2.098521
 30
0.0
 10
-3.343690
 20
2.021362
 30
0.0
 10
-3.245948
 20
1.902292
 30
0.0
 10
-3.154860
 20
1.809695
 30
0.0
 10
-3.055037
 20
1.739676
 30
0.0
 10
-2.931923
 20
1.685658
 30
0.0
 10
-2.770128
 20
1.644313
 30
0.0
 10
-2.554678
 20
1.609599
 30
0.0
 10
-2.270600
 20
1.576523
 30
0.0
 10
-1.902921
 20
1.540144
 30
0.0
 10
-1.834294
 20
1.533936
 30
0.0
 10
-1.765250
 20
1.527444
 30
0.0
 10
-1.696206
 20
1.520671
 30
0.0
 10
-1.627578
 20
1.514180
 30
0.0
 10
-1.558535
 20
1.508253
 30
0.0
 10
-1.489491
 20
1.501762
 30
0.0
 10
-1.420863
 20
1.494989
 30
0.0
 10
-1.351819
 20
1.488498
 30
0.0
 10
-1.342669
 20
1.447717
 30
0.0
 10
-1.333102
 20
1.406371
 30
0.0
 10
-1.323952
 20
1.365590
 30
0.0
 10
-1.314802
 20
1.324244
 30
0.0
 10
-1.308147
 20
1.295034
 30
0.0
 10
-1.561030
 20
1.273021
 30
0.0
 10
-1.640056
 20
1.276408
 30
0.0
 10
-1.714091
 20
1.276408
 30
0.0
 10
-1.800604
 20
1.283463
 30
0.0
 10
-1.895019
 20
1.287414
 30
0.0
 10
-1.997753
 20
1.297857
 30
0.0
 10
-2.105062
 20
1.309428
 30
0.0
 10
-2.214035
 20
1.320999
 30
0.0
 10
-2.267689
 20
1.326926
 30
0.0
 10
-2.320096
 20
1.332006
 30
0.0
 10
-2.370423
 20
1.336521
 30
0.0
 10
-2.419086
 20
1.340472
 30
0.0
 10
-2.465254
 20
1.343859
 30
0.0
 10
-2.508510
 20
1.346681
 30
0.0
 10
-2.549271
 20
1.349503
 30
0.0
 10
-2.586705
 20
1.346681
 30
0.0
 10
-2.620811
 20
1.346681
 30
0.0
 10
-2.651589
 20
1.346681
 30
0.0
 10
-2.678208
 20
1.346681
 30
0.0
 10
-2.700252
 20
1.346681
 30
0.0
 10
-2.718137
 20
1.343859
 30
0.0
 10
-2.731446
 20
1.341037
 30
0.0
 10
-2.739348
 20
1.337086
 30
0.0
 10
-2.742259
 20
1.333134
 30
0.0
 10
-2.738100
 20
1.319306
 30
0.0
 10
-2.726040
 20
1.297292
 30
0.0
 10
-2.706907
 20
1.268082
 30
0.0
 10
-2.681535
 20
1.232804
 30
0.0
 10
-2.650756
 20
1.192023
 30
0.0
 10
-2.615402
 20
1.147912
 30
0.0
 10
-2.576305
 20
1.101063
 30
0.0
 10
-2.534297
 20
1.052549
 30
0.0
 10
-2.469412
 20
0.980893
 30
0.0
 10
-2.412014
 20
0.926339
 30
0.0
 10
-2.357528
 20
0.886631
 30
0.0
 10
-2.301794
 20
0.860666
 30
0.0
 10
-2.239821
 20
0.846273
 30
0.0
 10
-2.166618
 20
0.842322
 30
0.0
 10
-2.078026
 20
0.847402
 30
0.0
 10
-1.968637
 20
0.858973
 30
0.0
 10
-1.895018
 20
0.868851
 30
0.0
 10
-1.821815
 20
0.880422
 30
0.0
 10
-1.751108
 20
0.892557
 30
0.0
 10
-1.685391
 20
0.905822
 30
0.0
 10
-1.625914
 20
0.919086
 30
0.0
 10
-1.540649
 20
0.928964
 30
0.0
 10
-1.423358
 20
0.945051
 30
0.0
 10
-1.224961
 20
0.979228
 30
0.0
 10
-1.182952
 20
0.864561
 30
0.0
 10
-1.142192
 20
0.775266
 30
0.0
 10
-1.512782
 20
0.683205
 30
0.0
 10
-1.552711
 20
0.676149
 30
0.0
 10
-1.595967
 20
0.667400
 30
0.0
 10
-1.642551
 20
0.657523
 30
0.0
 10
-1.692462
 20
0.645387
 30
0.0
 10
-1.768992
 20
0.626196
 30
0.0
 10
-1.840948
 20
0.607569
 30
0.0
 10
-1.907496
 20
0.589507
 30
0.0
 10
-1.966142
 20
0.572009
 30
0.0
 10
-2.015637
 20
0.556487
 30
0.0
 10
-2.054734
 20
0.542658
 30
0.0
 10
-2.080937
 20
0.531652
 30
0.0
 10
-2.093415
 20
0.524032
 30
0.0
 10
-2.093833
 20
0.514718
 30
0.0
 10
-2.085514
 20
0.498632
 30
0.0
 10
-2.069293
 20
0.477183
 30
0.0
 10
-2.046417
 20
0.451783
 30
0.0
 10
-2.017302
 20
0.422008
 30
0.0
 10
-1.983196
 20
0.390032
 30
0.0
 10
-1.944099
 20
0.355855
 30
0.0
 10
-1.901259
 20
0.320041
 30
0.0
 10
-1.814746
 20
0.251123
 30
0.0
 10
-1.746118
 20
0.201536
 30
0.0
 10
-1.688305
 20
0.170661
 30
0.0
 10
-1.636314
 20
0.157961
 30
0.0
 10
-1.583491
 20
0.162759
 30
0.0
 10
-1.524014
 20
0.185901
 30
0.0
 10
-1.451642
 20
0.225582
 30
0.0
 10
-1.360139
 20
0.282365
 30
0.0
 10
-1.281113
 20
0.334717
 30
0.0
 10
-0.982062
 20
0.495668
 30
0.0
 10
-0.960850
 20
0.463692
 30
0.0
 10
-0.872257
 20
0.352356
 30
0.0
 10
-0.821098
 20
0.300004
 30
0.0
 10
-1.000778
 20
0.214547
 30
0.0
 10
-1.023655
 20
0.206362
 30
0.0
 10
-1.049858
 20
0.193662
 30
0.0
 10
-1.079388
 20
0.177011
 30
0.0
 10
-1.112663
 20
0.156691
 30
0.0
 10
-1.150096
 20
0.131856
 30
0.0
 10
-1.192520
 20
0.102646
 30
0.0
 10
-1.240352
 20
0.069005
 30
0.0
 10
-1.317298
 20
0.013322
 30
0.0
 10
-1.378024
 20
-0.035164
 30
0.0
 10
-1.423360
 20
-0.077610
 30
0.0
 10
-1.454554
 20
-0.115089
 30
0.0
 10
-1.472439
 20
-0.149830
 30
0.0
 10
-1.477846
 20
-0.182342
 30
0.0
 10
-1.471607
 20
-0.214318
 30
0.0
 10
-1.454970
 20
-0.247931
 30
0.0
 10
-1.402979
 20
-0.304178
 30
0.0
 10
-1.333520
 20
-0.341092
 30
0.0
 10
-1.251998
 20
-0.359155
 30
0.0
 10
-1.163822
 20
-0.359155
 30
0.0
 10
-1.074398
 20
-0.341939
 30
0.0
 10
-0.989133
 20
-0.307762
 30
0.0
 10
-0.913434
 20
-0.257047
 30
0.0
 10
-0.849797
 20
-0.199191
 30
0.0
 10
-0.801550
 20
-0.146274
 30
0.0
 10
-0.743320
 20
-0.094458
 30
0.0
 10
-0.583605
 20
0.111705
 30
0.0
 10
-0.566552
 20
0.100134
 30
0.0
 10
-0.543260
 20
0.084047
 30
0.0
 10
-0.519968
 20
0.067960
 30
0.0
 10
-0.496260
 20
0.051874
 30
0.0
 10
-0.525791
 20
-0.017581
 30
0.0
 10
-0.554906
 20
-0.087036
 30
0.0
 10
-0.584021
 20
-0.156491
 30
0.0
 10
-0.613551
 20
-0.225946
 30
0.0
 10
-0.642666
 20
-0.295401
 30
0.0
 10
-0.671781
 20
-0.364856
 30
0.0
 10
-0.701312
 20
-0.434310
 30
0.0
 10
-0.730427
 20
-0.503765
 30
0.0
 10
-0.814028
 20
-0.710465
 30
0.0
 10
-0.872258
 20
-0.881350
 30
0.0
 10
-0.904700
 20
-1.024098
 30
0.0
 10
-0.910938
 20
-1.149236
 30
0.0
 10
-0.890558
 20
-1.263874
 30
0.0
 10
-0.842726
 20
-1.376876
 30
0.0
 10
-0.767028
 20
-1.497611
 30
0.0
 10
-0.663046
 20
-1.633755
 30
0.0
 10
-0.645577
 20
-1.655768
 30
0.0
 10
-0.628108
 20
-1.677217
 30
0.0
 10
-0.610639
 20
-1.698666
 30
0.0
 10
-0.593170
 20
-1.720679
 30
0.0
 10
-0.575701
 20
-1.742128
 30
0.0
 10
-0.557816
 20
-1.764142
 30
0.0
 10
-0.540347
 20
-1.785590
 30
0.0
 10
-0.522878
 20
-1.807604
 30
0.0
 10
-0.501666
 20
-1.764593
 30
0.0
 10
-0.480454
 20
-1.722147
 30
0.0
 10
-0.458826
 20
-1.679164
 30
0.0
 10
-0.437613
 20
-1.636718
 30
0.0
 10
-0.416401
 20
-1.593736
 30
0.0
 10
-0.395189
 20
-1.551290
 30
0.0
 10
-0.373561
 20
-1.508279
 30
0.0
 10
-0.352349
 20
-1.465833
 30
0.0
 10
-0.317411
 20
-1.396942
 30
0.0
 10
-0.284137
 20
-1.332991
 30
0.0
 10
-0.252526
 20
-1.275135
 30
0.0
 10
-0.223828
 20
-1.224420
 30
0.0
 10
-0.198872
 20
-1.182510
 30
0.0
 10
-0.178076
 20
-1.151098
 30
0.0
 10
-0.163102
 20
-1.130778
 30
0.0
 10
-0.153952
 20
-1.123723
 30
0.0
 10
-0.151873
 20
-1.133601
 30
0.0
 10
-0.155616
 20
-1.161258
 30
0.0
 10
-0.165598
 20
-1.204805
 30
0.0
 10
-0.180987
 20
-1.262661
 30
0.0
 10
-0.200952
 20
-1.332680
 30
0.0
 10
-0.225076
 20
-1.412606
 30
0.0
 10
-0.253359
 20
-1.501336
 30
0.0
 10
-0.284137
 20
-1.595598
 30
0.0
 10
-0.303686
 20
-1.654583
 30
0.0
 10
-0.323650
 20
-1.713567
 30
0.0
 10
-0.343198
 20
-1.772552
 30
0.0
 10
-0.362747
 20
-1.831536
 30
0.0
 10
-0.382295
 20
-1.890492
 30
0.0
 10
-0.402260
 20
-1.949477
 30
0.0
 10
-0.421808
 20
-2.008461
 30
0.0
 10
-0.441356
 20
-2.067446
 30
0.0
 10
-0.415985
 20
-2.114859
 30
0.0
 10
-0.390613
 20
-2.161708
 30
0.0
 10
-0.364826
 20
-2.208557
 30
0.0
 10
-0.339454
 20
-2.255406
 30
0.0
 10
-0.314083
 20
-2.302819
 30
0.0
 10
-0.288711
 20
-2.349668
 30
0.0
 10
-0.262924
 20
-2.396517
 30
0.0
 10
-0.237552
 20
-2.443366
 30
0.0
 10
-0.195960
 20
-2.518888
 30
0.0
 10
-0.155615
 20
-2.589444
 30
0.0
 10
-0.117766
 20
-2.652831
 30
0.0
 10
-0.082828
 20
-2.707949
 30
0.0
 10
-0.052465
 20
-2.753697
 30
0.0
 10
-0.027510
 20
-2.787874
 30
0.0
 10
-0.008377
 20
-2.809888
 30
0.0
 10
0.003269
 20
-2.816943
 30
0.0
 10
0.014499
 20
-2.809888
 30
0.0
 10
0.032384
 20
-2.789003
 30
0.0
 10
0.056092
 20
-2.755955
 30
0.0
 10
0.084375
 20
-2.712944
 30
0.0
 10
0.116817
 20
-2.660592
 30
0.0
 10
0.152171
 20
-2.601043
 30
0.0
 10
0.189188
 20
-2.534919
 30
0.0
 10
0.227869
 20
-2.464363
 30
0.0
 10
0.288594
 20
-2.349132
 30
0.0
 10
0.333099
 20
-2.257635
 30
0.0
 10
0.362629
 20
-2.181576
 30
0.0
 10
0.378019
 20
-2.113787
 30
0.0
 10
0.380099
 20
-2.046533
 30
0.0
 10
0.369701
 20
-1.971575
 30
0.0
 10
0.348489
 20
-1.880615
 30
0.0
 10
0.316878
 20
-1.767048
 30
0.0
 10
0.252826
 20
-1.542174
 30
0.0
 10
0.205826
 20
-1.373490
 30
0.0
 10
0.175463
 20
-1.257750
 30
0.0
 10
0.160906
 20
-1.188832
 30
0.0
 10
0.161323
 20
-1.162303
 30
0.0
 10
0.175465
 20
-1.173309
 30
0.0
 10
0.203748
 20
-1.217421
 30
0.0
 10
0.244509
 20
-1.289613
 30
0.0
 10
0.350986
 20
-1.480903
 30
0.0
 10
0.430844
 20
-1.618712
 30
0.0
 10
0.492401
 20
-1.706342
 30
0.0
 10
0.541896
 20
-1.745487
 30
0.0
 10
0.587232
 20
-1.739278
 30
0.0
 10
0.635480
 20
-1.690764
 30
0.0
 10
0.693709
 20
-1.600932
 30
0.0
 10
0.769408
 20
-1.474130
 30
0.0
 10
0.795611
 20
-1.430583
 30
0.0
 10
0.821814
 20
-1.386500
 30
0.0
 10
0.847602
 20
-1.342953
 30
0.0
 10
0.873805
 20
-1.298842
 30
0.0
 10
0.900009
 20
-1.255295
 30
0.0
 10
0.926212
 20
-1.211748
 30
0.0
 10
0.952416
 20
-1.167665
 30
0.0
 10
0.978619
 20
-1.124118
 30
0.0
 10
0.948672
 20
-1.053562
 30
0.0
 10
0.919141
 20
-0.983007
 30
0.0
 10
0.889195
 20
-0.913016
 30
0.0
 10
0.859664
 20
-0.842460
 30
0.0
 10
0.829717
 20
-0.771905
 30
0.0
 10
0.800186
 20
-0.701349
 30
0.0
 10
0.770240
 20
-0.631330
 30
0.0
 10
0.740709
 20
-0.560774
 30
0.0
 10
0.710762
 20
-0.490219
 30
0.0
 10
0.681232
 20
-0.420228
 30
0.0
 10
0.651701
 20
-0.349672
 30
0.0
 10
0.621754
 20
-0.279116
 30
0.0
 10
0.592223
 20
-0.209097
 30
0.0
 10
0.562693
 20
-0.138542
 30
0.0
 10
0.532746
 20
-0.068550
 30
0.0
 10
0.503215
 20
0.002005
 30
0.0
 10
0.522348
 20
0.021196
 30
0.0
 10
0.579330
 20
0.079616
 30
0.0
 10
0.631736
 20
0.133097
 30
0.0
 10
0.727815
 20
0.006859
 30
0.0
 10
0.745284
 20
-0.017412
 30
0.0
 10
0.762753
 20
-0.042247
 30
0.0
 10
0.780222
 20
-0.066518
 30
0.0
 10
0.797691
 20
-0.091354
 30
0.0
 10
0.815160
 20
-0.116190
 30
0.0
 10
0.832629
 20
-0.140461
 30
0.0
 10
0.850098
 20
-0.165296
 30
0.0
 10
0.914151
 20
-0.239154
 30
0.0
 10
0.987354
 20
-0.295937
 30
0.0
 10
1.065548
 20
-0.335053
 30
0.0
 10
1.145822
 20
-0.355373
 30
0.0
 10
1.223600
 20
-0.358760
 30
0.0
 10
1.295971
 20
-0.340697
 30
0.0
 10
1.359192
 20
-0.303190
 30
0.0
 10
1.409935
 20
-0.245334
 30
0.0
 10
1.427820
 20
-0.211157
 30
0.0
 10
1.436554
 20
-0.178617
 30
0.0
 10
1.434892
 20
-0.146105
 30
0.0
 10
1.422830
 20
-0.112492
 30
0.0
 10
1.399538
 20
-0.076650
 30
0.0
 10
1.363769
 20
-0.036405
 30
0.0
 10
1.315105
 20
0.009343
 30
0.0
 10
1.252716
 20
0.062260
 30
0.0
 10
1.216531
 20
0.091470
 30
0.0
 10
1.183673
 20
0.117434
 30
0.0
 10
1.153726
 20
0.139447
 30
0.0
 10
1.126275
 20
0.158074
 30
0.0
 10
1.100903
 20
0.173032
 30
0.0
 10
0.870480
 20
0.346655
 30
0.0
 10
0.892940
 20
0.369797
 30
0.0
 10
0.949090
 20
0.441453
 30
0.0
 10
0.994842
 20
0.526346
 30
0.0
 10
1.225265
 20
0.367060
 30
0.0
 10
1.272681
 20
0.325714
 30
0.0
 10
1.335486
 20
0.278301
 30
0.0
 10
1.335486
 20
0.278301
 30
0.0
 10
1.372919
 20
0.252901
 30
0.0
 10
1.412016
 20
0.229194
 30
0.0
 10
1.451113
 20
0.207745
 30
0.0
 10
1.489794
 20
0.189118
 30
0.0
 10
1.526812
 20
0.173032
 30
0.0
 10
1.560502
 20
0.160896
 30
0.0
 10
1.590033
 20
0.152712
 30
0.0
 10
1.614572
 20
0.148761
 30
0.0
 10
1.664899
 20
0.162025
 30
0.0
 10
1.731448
 20
0.200069
 30
0.0
 10
1.806314
 20
0.254650
 30
0.0
 10
1.882013
 20
0.319674
 30
0.0
 10
1.950641
 20
0.387492
 30
0.0
 10
2.004711
 20
0.450880
 30
0.0
 10
2.035906
 20
0.503232
 30
0.0
 10
2.036738
 20
0.536873
 30
0.0
 10
2.024260
 20
0.545622
 30
0.0
 10
1.997641
 20
0.557193
 30
0.0
 10
1.958960
 20
0.571022
 30
0.0
 10
1.909881
 20
0.587673
 30
0.0
 10
1.851651
 20
0.604606
 30
0.0
 10
1.786351
 20
0.623233
 30
0.0
 10
1.715227
 20
0.641859
 30
0.0
 10
1.640360
 20
0.661050
 30
0.0
 10
1.587122
 20
0.673750
 30
0.0
 10
1.538459
 20
0.684757
 30
0.0
 10
1.494370
 20
0.693506
 30
0.0
 10
1.360858
 20
0.729348
 30
0.0
 10
1.123780
 20
0.792735
 30
0.0
 10
1.168284
 20
0.892501
 30
0.0
 10
1.209461
 20
0.996669
 30
0.0
 10
1.589202
 20
0.911240
 30
0.0
 10
1.799660
 20
0.873761
 30
0.0
 10
1.948978
 20
0.844551
 30
0.0
 10
2.077915
 20
0.834109
 30
0.0
 10
2.190631
 20
0.842294
 30
0.0
 10
2.290453
 20
0.869951
 30
0.0
 10
2.381125
 20
0.918465
 30
0.0
 10
2.466390
 20
0.987356
 30
0.0
 10
2.550407
 20
1.078316
 30
0.0
 10
2.592000
 20
1.129031
 30
0.0
 10
2.631097
 20
1.177517
 30
0.0
 10
2.666451
 20
1.222193
 30
0.0
 10
2.697229
 20
1.261873
 30
0.0
 10
2.722602
 20
1.296050
 30
0.0
 10
2.741734
 20
1.323144
 30
0.0
 10
2.754211
 20
1.342335
 30
0.0
 10
2.758370
 20
1.351648
 30
0.0
 10
2.755459
 20
1.355035
 30
0.0
 10
2.747556
 20
1.357857
 30
0.0
 10
2.734249
 20
1.357857
 30
0.0
 10
2.716782
 20
1.357857
 30
0.0
 10
2.694323
 20
1.357857
 30
0.0
 10
2.667704
 20
1.357857
 30
0.0
 10
2.637341
 20
1.355035
 30
0.0
 10
2.603235
 20
1.352213
 30
0.0
 10
2.565802
 20
1.349390
 30
0.0
 10
2.525041
 20
1.346004
 30
0.0
 10
2.481369
 20
1.342053
 30
0.0
 10
2.435201
 20
1.338102
 30
0.0
 10
2.386954
 20
1.333586
 30
0.0
 10
2.336627
 20
1.328506
 30
0.0
 10
2.284220
 20
1.322862
 30
0.0
 10
2.230565
 20
1.317217
 30
0.0
 10
2.121593
 20
1.305082
 30
0.0
 10
2.014700
 20
1.294075
 30
0.0
 10
1.912382
 20
1.283633
 30
0.0
 10
1.817550
 20
1.273755
 30
0.0
 10
1.732701
 20
1.266135
 30
0.0
 10
1.660746
 20
1.259644
 30
0.0
 10
1.604180
 20
1.254564
 30
0.0
 10
1.565915
 20
1.251742
 30
0.0
 10
1.284749
 20
1.242993
 30
0.0
 10
1.287244
 20
1.257386
 30
0.0
 10
1.288491
 20
1.288233
 30
0.0
 10
1.291403
 20
1.319108
 30
0.0
 10
1.296810
 20
1.348882
 30
0.0
 10
1.303465
 20
1.377105
 30
0.0
 10
1.311783
 20
1.401940
 30
0.0
 10
1.321349
 20
1.423954
 30
0.0
 10
1.331748
 20
1.441169
 30
0.0
 10
1.342978
 20
1.453305
 30
0.0
 10
1.370429
 20
1.464311
 30
0.0
 10
1.428243
 20
1.477576
 30
0.0
 10
1.512260
 20
1.492534
 30
0.0
 10
1.619153
 20
1.509749
 30
0.0
 10
1.745595
 20
1.526965
 30
0.0
 10
1.887425
 20
1.545027
 30
0.0
 10
2.042150
 20
1.562525
 30
0.0
 10
2.205193
 20
1.579740
 30
0.0
 10
2.470970
 20
1.607398
 30
0.0
 10
2.674358
 20
1.631669
 30
0.0
 10
2.828666
 20
1.658198
 30
0.0
 10
2.945958
 20
1.691274
 30
0.0
 10
3.038710
 20
1.735386
 30
0.0
 10
3.120231
 20
1.794906
 30
0.0
 10
3.202584
 20
1.874832
 30
0.0
 10
3.299079
 20
1.980101
 30
0.0
 10
3.356477
 20
2.044052
 30
0.0
 10
3.409299
 20
2.105238
 30
0.0
 10
3.456299
 20
2.161457
 30
0.0
 10
3.496644
 20
2.211636
 30
0.0
 10
3.529086
 20
2.254082
 30
0.0
 10
3.552378
 20
2.287695
 30
0.0
 10
3.566103
 20
2.310837
 30
0.0
 10
3.568191
 20
2.321844
 30
0.0
 10
3.538244
 20
2.321844
 30
0.0
 10
3.460466
 20
2.309144
 30
0.0
 10
3.339431
 20
2.286001
 30
0.0
 10
3.180547
 20
2.254054
 30
0.0
 10
2.989222
 20
2.213244
 30
0.0
 10
2.771276
 20
2.165295
 30
0.0
 10
2.531287
 20
2.111814
 30
0.0
 10
2.274660
 20
2.052858
 30
0.0
 10
2.018450
 20
1.993873
 30
0.0
 10
1.778876
 20
1.938755
 30
0.0
 10
1.561347
 20
1.888576
 30
0.0
 10
1.371268
 20
1.845029
 30
0.0
 10
1.213632
 20
1.808651
 30
0.0
 10
1.093845
 20
1.780993
 30
0.0
 10
1.017315
 20
1.763777
 30
0.0
 10
0.989032
 20
1.757568
 30
0.0
 10
0.985705
 20
1.752771
 30
0.0
 10
0.981130
 20
1.737813
 30
0.0
 10
0.944112
 20
1.553155
 30
0.0
 10
0.935378
 20
1.501903
 30
0.0
 10
0.906679
 20
1.380068
 30
0.0
 10
0.862175
 20
1.253858
 30
0.0
 10
0.803113
 20
1.125983
 30
0.0
 10
0.733238
 20
1.001410
 30
0.0
 10
0.654212
 20
0.883442
 30
0.0
 10
0.568531
 20
0.776508
 30
0.0
 10
0.478691
 20
0.684447
 30
0.0
 10
0.387603
 20
0.611125
 30
0.0
 10
0.187958
 20
0.515791
 30
0.0
 10
-0.018341
 20
0.490955
 30
0.0
 10
-0.223809
 20
0.531172
 30
0.0
 10
-0.418878
 20
0.629837
 30
0.0
 10
-0.595647
 20
0.781446
 30
0.0
 10
-0.744964
 20
0.980413
 30
0.0
 10
-0.858512
 20
1.220754
 30
0.0
 10
-0.927556
 20
1.496908
 30
0.0
 10
-0.935874
 20
1.549288
 30
0.0
 10
-0.957140
 20
1.639543
 30
0.0
 10
-0.978715
 20
1.758415
 30
0.0
 10
-1.087688
 20
1.780428
 30
0.0
 10
-1.357208
 20
1.839413
 30
0.0
 10
-1.735285
 20
1.923741
 30
0.0
 10
-2.170344
 20
2.020769
 30
0.0
 10
-2.610394
 20
2.119970
 30
0.0
 10
-3.004276
 20
2.209293
 30
0.0
 10
-3.299584
 20
2.277619
 30
0.0
 10
-3.444742
 20
2.312361
 30
0.0
 10
-3.458049
 20
2.315748
 30
0.0
 10
-3.470111
 20
2.319134
 30
0.0
 10
-3.481340
 20
2.321956
 30
0.0
 10
-3.491740
 20
2.324779
 30
0.0
 10
-3.500890
 20
2.327601
 30
0.0
 10
-3.509207
 20
2.327601
 30
0.0
 10
-3.516694
 20
2.327601
 30
0.0
 10
-3.516714
 20
2.328024
 30
0.0
  0
LWPOLYLINE
  5
101
100
AcDbEntity
  8
Layer_1
 62
7
100
AcDbPolyline
 90
33
 70
1
 10
-0.011287
 20
2.169274
 30
0.0
 10
-0.119844
 20
2.156574
 30
0.0
 10
-0.220498
 20
2.120732
 30
0.0
 10
-0.312001
 20
2.063977
 30
0.0
 10
-0.391443
 20
1.988991
 30
0.0
 10
-0.457160
 20
1.898059
 30
0.0
 10
-0.507071
 20
1.793862
 30
0.0
 10
-0.538265
 20
1.678123
 30
0.0
 10
-0.549080
 20
1.554651
 30
0.0
 10
-0.538265
 20
1.430614
 30
0.0
 10
-0.507071
 20
1.315411
 30
0.0
 10
-0.457160
 20
1.210678
 30
0.0
 10
-0.391443
 20
1.119746
 30
0.0
 10
-0.312001
 20
1.044760
 30
0.0
 10
-0.220498
 20
0.988005
 30
0.0
 10
-0.119844
 20
0.952163
 30
0.0
 10
-0.011287
 20
0.940027
 30
0.0
 10
0.096854
 20
0.952163
 30
0.0
 10
0.197924
 20
0.988005
 30
0.0
 10
0.289428
 20
1.044760
 30
0.0
 10
0.368870
 20
1.119746
 30
0.0
 10
0.434586
 20
1.210678
 30
0.0
 10
0.484081
 20
1.315411
 30
0.0
 10
0.515276
 20
1.430614
 30
0.0
 10
0.526506
 20
1.554651
 30
0.0
 10
0.515276
 20
1.678123
 30
0.0
 10
0.484081
 20
1.793862
 30
0.0
 10
0.434586
 20
1.898059
 30
0.0
 10
0.368870
 20
1.988991
 30
0.0
 10
0.289428
 20
2.063977
 30
0.0
 10
0.197924
 20
2.120732
 30
0.0
 10
0.096854
 20
2.156574
 30
0.0
 10
-0.011287
 20
2.169274
 30
0.0
  0
ENDSEC
  0
SECTION
  2
OBJECTS
  0
DICTIONARY
  5
C
330
0
100
AcDbDictionary
  3
ACAD_GROUP
350
D
  3
ACAD_MLINESTYLE
350
17
  0
DICTIONARY
  5
D
330
C
100
AcDbDictionary
  0
DICTIONARY
  5
1A
330
C
100
AcDbDictionary
  0
DICTIONARY
  5
17
330
C
100
AcDbDictionary
  3
STANDARD
350
18
  0
DICTIONARY
  5
19
330
C
100
AcDbDictionary
  0
ENDSEC
  0
EOF
