<?xml version="1.0" encoding="UTF-8" standalone="no"?>
<!-- Created with Inkscape (http://www.inkscape.org/) -->

<svg
   xmlns:dc="http://purl.org/dc/elements/1.1/"
   xmlns:cc="http://creativecommons.org/ns#"
   xmlns:rdf="http://www.w3.org/1999/02/22-rdf-syntax-ns#"
   xmlns:svg="http://www.w3.org/2000/svg"
   xmlns="http://www.w3.org/2000/svg"
   xmlns:sodipodi="http://sodipodi.sourceforge.net/DTD/sodipodi-0.dtd"
   xmlns:inkscape="http://www.inkscape.org/namespaces/inkscape"
   width="210mm"
   height="297mm"
   viewBox="0 0 744.09448819 1052.3622047"
   id="svg2"
   version="1.1"
   inkscape:version="0.91 r13725"
   sodipodi:docname="angel.svg">
  <defs
     id="defs4" />
  <sodipodi:namedview
     id="base"
     pagecolor="#ffffff"
     bordercolor="#666666"
     borderopacity="1.0"
     inkscape:pageopacity="0.0"
     inkscape:pageshadow="2"
     inkscape:zoom="32"
     inkscape:cx="-2.883851"
     inkscape:cy="1.3033336"
     inkscape:document-units="px"
     inkscape:current-layer="layer1"
     showgrid="false"
     inkscape:window-width="2560"
     inkscape:window-height="1370"
     inkscape:window-x="0"
     inkscape:window-y="0"
     inkscape:window-maximized="1" />
  <metadata
     id="metadata7">
    <rdf:RDF>
      <cc:Work
         rdf:about="">
        <dc:format>image/svg+xml</dc:format>
        <dc:type
           rdf:resource="http://purl.org/dc/dcmitype/StillImage" />
        <dc:title />
      </cc:Work>
    </rdf:RDF>
  </metadata>
  <g
     inkscape:label="Layer 1"
     inkscape:groupmode="layer"
     id="layer1">
    <path
       style="fill:#000000"
       d="m -12.460796,1044.1133 -0.02211,0.016 -0.04568,0.02 -0.01327,0.045 0.02211,0.074 0.05747,0.1074 0.09432,0.1426 0.134111,0.1816 0.172431,0.2266 0.213693,0.2734 0.346332,0.4219 0.322752,0.3281 0.353702,0.2481 0.436231,0.1914 0.5732904,0.1465 0.7634055,0.123 1.0065738,0.1172 1.3027991,0.1289 0.2431695,0.022 0.2446433,0.023 0.2446434,0.024 0.2431694,0.023 0.2446432,0.021 0.2446433,0.023 0.2431695,0.024 0.2446433,0.023 0.032422,0.1445 0.033897,0.1465 0.032422,0.1445 0.032422,0.1465 0.02358,0.1035 -0.8960429,0.078 -0.2800133,-0.012 -0.2623282,0 -0.3065411,-0.025 -0.3345423,-0.014 -0.3640173,-0.037 -0.3802287,-0.041 -0.3861239,-0.041 -0.1901142,-0.021 -0.1856932,-0.018 -0.1783243,-0.016 -0.1724288,-0.014 -0.1635866,-0.012 -0.1532708,-0.01 -0.1444279,-0.01 -0.1326385,0.01 -0.1208476,0 -0.1090575,0 -0.09432,0 -0.078108,0 -0.063372,0.01 -0.047157,0.01 -0.028,0.014 -0.010314,0.014 0.014735,0.049 0.042735,0.078 0.067794,0.1035 0.089901,0.125 0.1090575,0.1445 0.125269,0.1563 0.1385328,0.166 0.1488493,0.1719 0.229905,0.2539 0.2033789,0.1933 0.1930616,0.1407 0.1974833,0.092 0.219589,0.051 0.2593811,0.014 0.3139097,-0.018 0.3875975,-0.041 0.2608545,-0.035 0.2593808,-0.041 0.2505382,-0.043 0.2328534,-0.047 0.2107469,-0.047 0.3021197,-0.035 0.4155989,-0.057 0.7029808,-0.1211 0.1488492,0.4063 0.144428,0.3164 -1.3131154,0.3262 -0.1414805,0.025 -0.1532704,0.031 -0.1650606,0.035 -0.1768505,0.043 -0.2711708,0.068 -0.2549597,0.066 -0.2358006,0.064 -0.2077994,0.062 -0.1753768,0.055 -0.138533,0.049 -0.092847,0.039 -0.044213,0.027 -0.00148,0.033 0.029475,0.057 0.057477,0.076 0.081057,0.09 0.1031628,0.1055 0.1208479,0.1133 0.1385329,0.1211 0.1517968,0.1269 0.306541,0.2442 0.2431695,0.1757 0.2048518,0.1094 0.1842194,0.045 0.1871669,-0.017 0.2107468,-0.082 0.2564333,-0.1406 0.3242261,-0.2012 0.2800133,-0.1855 1.0596296,-0.5703 0.075161,0.1133 0.3139098,0.3945 0.1812717,0.1855 -0.6366619,0.3028 -0.081057,0.029 -0.092846,0.045 -0.1046366,0.059 -0.1179004,0.072 -0.1326379,0.088 -0.1503231,0.1035 -0.1694816,0.1192 -0.2726447,0.1973 -0.2151681,0.1718 -0.1606392,0.1504 -0.1105316,0.1328 -0.063372,0.1231 -0.019159,0.1152 0.022106,0.1133 0.05895,0.1191 0.1842194,0.1993 0.246117,0.1308 0.2888558,0.064 0.3124361,0 0.3168572,-0.061 0.3021197,-0.1211 0.2682233,-0.1797 0.2254845,-0.205 0.1709555,-0.1875 0.2063256,-0.1836 0.5659219,-0.7305 0.060424,0.041 0.08253,0.057 0.08253,0.057 0.084004,0.057 -0.1046366,0.2461 -0.1031627,0.2461 -0.1031629,0.2461 -0.1046366,0.2461 -0.1031628,0.2461 -0.1031629,0.2461 -0.1046365,0.2461 -0.1031628,0.2461 -0.2962246,0.7324 -0.2063258,0.6055 -0.1149528,0.5058 -0.022105,0.4434 0.072215,0.4062 0.1694817,0.4004 0.2682234,0.4278 0.3684386,0.4824 0.061898,0.078 0.061898,0.076 0.061898,0.076 0.061898,0.078 0.061898,0.076 0.063372,0.078 0.061898,0.076 0.061898,0.078 0.075161,-0.1524 0.075162,-0.1504 0.076635,-0.1523 0.075161,-0.1504 0.075161,-0.1523 0.075162,-0.1504 0.076635,-0.1524 0.075161,-0.1504 0.1237954,-0.2441 0.1179003,-0.2266 0.1120054,-0.205 0.10168907,-0.1797 0.0884253,-0.1485 0.0736877,-0.1113 0.0530551,-0.072 0.0324226,-0.025 0.007368,0.035 -0.0132639,0.098 -0.0353701,0.1543 -0.0545289,0.205 -0.0707403,0.2481 -0.0854778,0.2832 -0.10021531,0.3144 -0.10905786,0.334 -0.069266,0.209 -0.07074,0.209 -0.069266,0.209 -0.069266,0.209 -0.069266,0.2089 -0.07074,0.209 -0.069266,0.209 -0.069266,0.209 0.089899,0.168 0.089899,0.166 0.091373,0.166 0.089899,0.166 0.089899,0.168 0.089899,0.166 0.0913727,0.166 0.089899,0.166 0.14737547,0.2676 0.1429542,0.25 0.13411166,0.2246 0.1237954,0.1953 0.10758408,0.1621 0.08842526,0.1211 0.06779263,0.078 0.04126525,0.025 0.03979155,-0.025 0.06337155,-0.074 0.0840042,-0.1171 0.10021526,-0.1524 0.11495283,-0.1855 0.12526915,-0.211 0.13116419,-0.2343 0.13705924,-0.25 0.21516806,-0.4083 0.1576918,-0.3242 0.1046366,-0.2695 0.054529,-0.2402 0.00737,-0.2383 -0.036843,-0.2656 -0.075161,-0.3223 -0.1120052,-0.4024 -0.22695822,-0.7968 -0.16653429,-0.5977 -0.10758419,-0.4101 -0.051582,-0.2442 0.00148,-0.094 0.0501083,0.039 0.10021535,0.1563 0.14442789,0.2558 0.37728126,0.6778 0.2829609,0.4883 0.2181156,0.3105 0.1753768,0.1387 0.1606393,-0.022 0.1709556,-0.1719 0.2063257,-0.3183 0.2682232,-0.4493 0.092846,-0.1543 0.092847,-0.1562 0.091373,-0.1543 0.092847,-0.1563 0.092846,-0.1543 0.092847,-0.1543 0.092847,-0.1562 0.092846,-0.1543 -0.1061102,-0.25 -0.1046366,-0.25 -0.1061103,-0.248 -0.1046367,-0.25 -0.1061102,-0.25 -0.1046366,-0.25 -0.1061103,-0.2481 -0.1046366,-0.25 -0.1061104,-0.25 -0.1046366,-0.248 -0.1046365,-0.25 -0.1061104,-0.25 -0.1046366,-0.2481 -0.1046365,-0.25 -0.1061104,-0.248 -0.1046366,-0.25 0.067793,-0.068 0.2019044,-0.207 0.185693,-0.1895 0.3404374,0.4473 0.061898,0.086 0.061898,0.088 0.061898,0.086 0.061898,0.088 0.061898,0.088 0.061898,0.086 0.061898,0.088 0.2269582,0.2617 0.2593808,0.2012 0.277066,0.1386 0.2844346,0.072 0.275592,0.012 0.2564333,-0.064 0.2240107,-0.1329 0.1797981,-0.205 0.063371,-0.1211 0.030949,-0.1153 -0.00589,-0.1152 -0.042739,-0.1191 -0.08253,-0.127 -0.1267429,-0.1426 -0.1724292,-0.1621 -0.2210633,-0.1875 -0.1282167,-0.1035 -0.1164266,-0.092 -0.1061103,-0.078 -0.097268,-0.066 -0.089899,-0.053 -0.8164601,-0.6152 0.079583,-0.082 0.198957,-0.2539 0.1621128,-0.3008 0.8164602,0.5644 0.1680079,0.1465 0.222537,0.168 0,0 0.1326379,0.09 0.1385329,0.084 0.1385329,0.076 0.1370592,0.066 0.1311643,0.057 0.1193741,0.043 0.1046366,0.029 0.086952,0.014 0.1783242,-0.047 0.2358009,-0.1348 0.2652757,-0.1934 0.2682234,-0.2304 0.2431695,-0.2403 0.1915878,-0.2246 0.110532,-0.1855 0.00295,-0.1192 -0.044213,-0.031 -0.09432,-0.041 -0.1370592,-0.049 -0.1739031,-0.059 -0.2063256,-0.06 -0.2313795,-0.066 -0.2520119,-0.066 -0.2652759,-0.068 -0.1886406,-0.045 -0.1724293,-0.039 -0.156218,-0.031 -0.4730752,-0.127 -0.8400402,-0.2246 0.1576918,-0.3535 0.1459017,-0.3691 1.3455379,0.3027 0.7457199,0.1328 0.5290778,0.1035 0.4568644,0.037 0.3993868,-0.029 0.3537017,-0.098 0.3212782,-0.1719 0.3021199,-0.2441 0.297698,-0.3223 0.1473766,-0.1797 0.1385327,-0.1718 0.1252685,-0.1583 0.1090579,-0.1406 0.089902,-0.1211 0.067792,-0.096 0.044211,-0.068 0.014737,-0.033 -0.010315,-0.012 -0.028003,-0.01 -0.047153,0 -0.06189,0 -0.079578,0 -0.094321,0 -0.1075833,0.01 -0.1208474,0.01 -0.1326379,0.01 -0.1444293,0.012 -0.1547442,0.014 -0.1635872,0.014 -0.1709549,0.016 -0.1783233,0.018 -0.1856941,0.02 -0.1901141,0.02 -0.386124,0.043 -0.3787546,0.039 -0.3625436,0.037 -0.3360161,0.035 -0.300646,0.027 -0.2549595,0.023 -0.2004306,0.018 -0.1355855,0.01 -0.9962581,0.031 0.00884,-0.051 0.00442,-0.1093 0.010317,-0.1094 0.019159,-0.1055 0.02358,-0.1 0.029475,-0.088 0.033896,-0.078 0.036844,-0.061 0.039792,-0.043 0.097268,-0.039 0.2048519,-0.047 0.2976984,-0.053 0.378755,-0.061 0.4480214,-0.061 0.5025503,-0.064 0.5482367,-0.062 0.5777118,-0.061 0.9417295,-0.098 0.7206653,-0.086 0.5467629,-0.094 0.415599,-0.1172 0.328648,-0.1563 0.288856,-0.2109 0.291802,-0.2832 0.341911,-0.373 0.203379,-0.2266 0.187166,-0.2168 0.166534,-0.1992 0.142954,-0.1778 0.114954,-0.1504 0.08253,-0.1191 0.04863,-0.082 0.0074,-0.039 -0.106111,0 -0.275592,0.045 -0.428863,0.082 -0.562975,0.1132 -0.677926,0.1446 -0.7722472,0.1699 -0.8503567,0.1895 -0.9093062,0.2089 -0.9078329,0.209 -0.8488827,0.1953 -0.7707735,0.1778 -0.673506,0.1543 -0.558553,0.1289 -0.4244414,0.098 -0.2711708,0.061 -0.1002152,0.022 -0.01179,0.017 -0.016211,0.053 -0.131163,0.6543 -0.030949,0.1816 -0.101689,0.4317 -0.1576918,0.4472 -0.2092731,0.4531 -0.2475907,0.4414 -0.2800134,0.418 -0.3035934,0.3789 -0.3183311,0.3262 -0.3227522,0.2598 -0.7074022,0.3378 -0.73098234,0.088 -0.72803479,-0.1425 -0.69119087,-0.3496 -0.6263457,-0.5372 -0.5290779,-0.705 -0.402335,-0.8516 -0.2446433,-0.9785 -0.029475,-0.1856 -0.075352,-0.3198 -0.076445,-0.4212 -0.3861239,-0.078 -0.9549929,-0.209 -1.3396429,-0.2988 -1.5415474,-0.3438 -1.5592324,-0.3515 -1.3956451,-0.3165 -1.046366,-0.2421 -0.51434,-0.1231 -0.04715,-0.012 -0.04274,-0.012 -0.03979,-0.01 -0.03685,-0.01 -0.03242,-0.01 -0.02947,0 -0.02653,0 z m 12.4208035,0.5625 -0.38465,0.045 -0.35664861,0.127 -0.32422589,0.2011 -0.2814873,0.2657 -0.2328532,0.3222 -0.1768506,0.3692 -0.1105315,0.4101 -0.038318,0.4375 0.038318,0.4395 0.1105315,0.4082 0.1768506,0.3711 0.2328532,0.3222 0.2814873,0.2657 0.32422589,0.2011 0.35664861,0.127 0.38465,0.043 0.38317617,-0.043 0.35812239,-0.127 0.32422594,-0.2011 0.2814872,-0.2657 0.2328531,-0.3222 0.1753768,-0.3711 0.1105317,-0.4082 0.039791,-0.4395 -0.039791,-0.4375 -0.1105317,-0.4101 -0.1753768,-0.3692 -0.2328531,-0.3222 -0.2814872,-0.2657 -0.32422594,-0.2011 -0.35812239,-0.127 z"
       id="path3401-3"
       inkscape:connector-curvature="0"
       sodipodi:nodetypes="cccccccccccccccccccccccccccccccccccccccccccccccccccccccccccccccccccccccccccccccccccccccccccccccccccccccccccccccccccccccccccccccccccccccccccccccccccccccccccccccccccccccccccccccccccccccccccccccccccccccccccccccccccccccccccccccccccccccccccccccccccccccccccccccccccccccccccccccccccccccccccccccccccccccccccccccccccccccccccccccccccccccccccccccccccccccccccccccccccccccccccccccccccccccccccccccccccccccccccccccccccccccccccccccccccccccccccccccccccccccccccccccccccccccccccccccccccccccccccccccccccccccccccccccccccccccccccc" />
  </g>
</svg>
