  0
SECTION
  2
HEADER
  9
$ACADVER
  1
AC1014
  9
$HANDSEED
  5
FFFF
  9
$MEASUREMENT
 70
     1
  0
ENDSEC
  0
SECTION
  2
TABLES
  0
TABLE
  2
VPORT
  5
8
330
0
100
AcDbSymbolTable
 70
     4
  0
VPORT
  5
2E
330
8
100
AcDbSymbolTableRecord
100
AcDbViewportTableRecord
  2
*ACTIVE
 70
     0
 10
0.0
 20
0.0
 11
1.0
 21
1.0
 12
210.0
 22
148.5
 13
0.0
 23
0.0
 14
10.0
 24
10.0
 15
10.0
 25
10.0
 16
0.0
 26
0.0
 36
1.0
 17
0.0
 27
0.0
 37
0.0
 40
341.0
 41
1.24
 42
50.0
 43
0.0
 44
0.0
 50
0.0
 51
0.0
 71
     0
 72
   100
 73
     1
 74
     3
 75
     0
 76
     0
 77
     0
 78
     0
  0
ENDTAB
  0
TABLE
  2
LTYPE
  5
5
330
0
100
AcDbSymbolTable
 70
     1
  0
LTYPE
  5
14
330
5
100
AcDbSymbolTableRecord
100
AcDbLinetypeTableRecord
  2
BYBLOCK
 70
     0
  3

 72
    65
 73
     0
 40
0.0
  0
LTYPE
  5
15
330
5
100
AcDbSymbolTableRecord
100
AcDbLinetypeTableRecord
  2
BYLAYER
 70
     0
  3

 72
    65
 73
     0
 40
0.0
  0
LTYPE
  5
16
330
5
100
AcDbSymbolTableRecord
100
AcDbLinetypeTableRecord
  2
CONTINUOUS
 70
     0
  3
Solid line
 72
    65
 73
     0
 40
0.0
  0
ENDTAB
  0
TABLE
  2
LAYER
  5
2
100
AcDbSymbolTable
 70
2
  0
LAYER
  5
50
100
AcDbSymbolTableRecord
100
AcDbLayerTableRecord
  2
0
 70
0
  6
CONTINUOUS
  0
LAYER
  5
51
100
AcDbSymbolTableRecord
100
AcDbLayerTableRecord
  2
Layer_1
 70
0
  6
CONTINUOUS
  0
ENDTAB
  0
TABLE
  2
STYLE
  5
3
330
0
100
AcDbSymbolTable
 70
     1
  0
STYLE
  5
11
330
3
100
AcDbSymbolTableRecord
100
AcDbTextStyleTableRecord
  2
STANDARD
 70
     0
 40
0.0
 41
1.0
 50
0.0
 71
     0
 42
2.5
  3
txt
  4

  0
ENDTAB
  0
TABLE
  2
VIEW
  5
6
330
0
100
AcDbSymbolTable
 70
     0
  0
ENDTAB
  0
TABLE
  2
UCS
  5
7
330
0
100
AcDbSymbolTable
 70
     0
  0
ENDTAB
  0
TABLE
  2
APPID
  5
9
330
0
100
AcDbSymbolTable
 70
     2
  0
APPID
  5
12
330
9
100
AcDbSymbolTableRecord
100
AcDbRegAppTableRecord
  2
ACAD
 70
     0
  0
ENDTAB
  0
TABLE
  2
DIMSTYLE
  5
A
330
0
100
AcDbSymbolTable
 70
     1
  0
DIMSTYLE
105
27
330
A
100
AcDbSymbolTableRecord
100
AcDbDimStyleTableRecord
  2
ISO-25
 70
     0
  3

  4

  5

  6

  7

 40
1.0
 41
2.5
 42
0.625
 43
3.75
 44
1.25
 45
0.0
 46
0.0
 47
0.0
 48
0.0
140
2.5
141
2.5
142
0.0
143
0.03937007874016
144
1.0
145
0.0
146
1.0
147
0.625
 71
     0
 72
     0
 73
     0
 74
     0
 75
     0
 76
     0
 77
     1
 78
     8
170
     0
171
     3
172
     1
173
     0
174
     0
175
     0
176
     0
177
     0
178
     0
270
     2
271
     2
272
     2
273
     2
274
     3
340
11
275
     0
280
     0
281
     0
282
     0
283
     0
284
     8
285
     0
286
     0
287
     3
288
     0
  0
ENDTAB
  0
TABLE
  2
BLOCK_RECORD
  5
1
330
0
100
AcDbSymbolTable
 70
     1
  0
BLOCK_RECORD
  5
1F
330
1
100
AcDbSymbolTableRecord
100
AcDbBlockTableRecord
  2
*MODEL_SPACE
  0
BLOCK_RECORD
  5
1B
330
1
100
AcDbSymbolTableRecord
100
AcDbBlockTableRecord
  2
*PAPER_SPACE
  0
ENDTAB
  0
ENDSEC
  0
SECTION
  2
BLOCKS
  0
BLOCK
  5
20
330
1F
100
AcDbEntity
  8
0
100
AcDbBlockBegin
  2
*MODEL_SPACE
 70
     0
 10
0.0
 20
0.0
 30
0.0
  3
*MODEL_SPACE
  1

  0
ENDBLK
  5
21
330
1F
100
AcDbEntity
  8
0
100
AcDbBlockEnd
  0
BLOCK
  5
1C
330
1B
100
AcDbEntity
 67
     1
  8
0
100
AcDbBlockBegin
  2
*PAPER_SPACE
  1

  0
ENDBLK
  5
1D
330
1B
100
AcDbEntity
 67
     1
  8
0
100
AcDbBlockEnd
  0
ENDSEC
  0
SECTION
  2
ENTITIES
  0
LWPOLYLINE
  5
100
100
AcDbEntity
  8
Layer_1
 62
7
100
AcDbPolyline
 90
249
 70
0
 10
262.742872
 20
198.714908
 30
0.0
 10
262.790952
 20
199.260580
 30
0.0
 10
262.928800
 20
200.435948
 30
0.0
 10
263.146736
 20
202.167620
 30
0.0
 10
263.435088
 20
204.382252
 30
0.0
 10
263.784192
 20
207.006452
 30
0.0
 10
264.184392
 20
209.966876
 30
0.0
 10
264.626016
 20
213.190132
 30
0.0
 10
265.099400
 20
216.602868
 30
0.0
 10
265.753576
 20
221.356788
 30
0.0
 10
266.713352
 20
228.423908
 30
0.0
 10
267.932728
 20
237.461348
 30
0.0
 10
269.365712
 20
248.126228
 30
0.0
 10
270.966312
 20
260.075644
 30
0.0
 10
272.688528
 20
272.966708
 30
0.0
 10
274.486368
 20
286.456548
 30
0.0
 10
276.313824
 20
300.202260
 30
0.0
 10
278.108648
 20
313.708644
 30
0.0
 10
279.812960
 20
326.512548
 30
0.0
 10
281.387312
 20
338.319180
 30
0.0
 10
282.792272
 20
348.833748
 30
0.0
 10
283.988400
 20
357.761460
 30
0.0
 10
284.936248
 20
364.807524
 30
0.0
 10
285.596392
 20
369.677148
 30
0.0
 10
285.929384
 20
372.075532
 30
0.0
 10
286.075696
 20
373.118204
 30
0.0
 10
286.200824
 20
374.102292
 30
0.0
 10
286.302824
 20
375.005468
 30
0.0
 10
286.379784
 20
375.805356
 30
0.0
 10
286.429784
 20
376.479620
 30
0.0
 10
286.450904
 20
377.005900
 30
0.0
 10
286.441144
 20
377.361852
 30
0.0
 10
286.398664
 20
377.525116
 30
0.0
 10
285.730816
 20
377.433924
 30
0.0
 10
283.928696
 20
377.060588
 30
0.0
 10
281.116064
 20
376.433892
 30
0.0
 10
277.416680
 20
375.582620
 30
0.0
 10
272.954280
 20
374.535556
 30
0.0
 10
267.852632
 20
373.321484
 30
0.0
 10
262.235480
 20
371.969188
 30
0.0
 10
256.226576
 20
370.507444
 30
0.0
 10
235.877888
 20
365.536924
 30
0.0
 10
219.277888
 20
361.492844
 30
0.0
 10
206.085992
 20
358.293772
 30
0.0
 10
195.961608
 20
355.858292
 30
0.0
 10
188.564168
 20
354.104980
 30
0.0
 10
183.553072
 20
352.952420
 30
0.0
 10
180.587736
 20
352.319180
 30
0.0
 10
179.327576
 20
352.123852
 30
0.0
 10
178.966576
 20
352.143212
 30
0.0
 10
178.679488
 20
352.210252
 30
0.0
 10
178.463352
 20
352.330396
 30
0.0
 10
178.315248
 20
352.508940
 30
0.0
 10
178.232232
 20
352.751252
 30
0.0
 10
178.211352
 20
353.062668
 30
0.0
 10
178.249672
 20
353.448556
 30
0.0
 10
178.344280
 20
353.914252
 30
0.0
 10
178.585832
 20
354.910236
 30
0.0
 10
179.110376
 20
357.065788
 30
0.0
 10
179.885040
 20
360.246020
 30
0.0
 10
180.876952
 20
364.316076
 30
0.0
 10
182.053224
 20
369.141084
 30
0.0
 10
183.381000
 20
374.586164
 30
0.0
 10
184.827384
 20
380.516444
 30
0.0
 10
186.359520
 20
386.797068
 30
0.0
 10
187.882840
 20
393.047420
 30
0.0
 10
189.303960
 20
398.890964
 30
0.0
 10
190.591776
 20
404.198916
 30
0.0
 10
191.715200
 20
408.842476
 30
0.0
 10
192.643112
 20
412.692860
 30
0.0
 10
193.344416
 20
415.621284
 30
0.0
 10
193.788008
 20
417.498948
 30
0.0
 10
193.942784
 20
418.197068
 30
0.0
 10
194.759192
 20
418.260748
 30
0.0
 10
197.099032
 20
418.320188
 30
0.0
 10
200.798256
 20
418.374028
 30
0.0
 10
205.692784
 20
418.420988
 30
0.0
 10
211.618568
 20
418.459788
 30
0.0
 10
218.411536
 20
418.489148
 30
0.0
 10
225.907624
 20
418.507708
 30
0.0
 10
233.942784
 20
418.514108
 30
0.0
 10
241.977944
 20
418.527548
 30
0.0
 10
249.474040
 20
418.566108
 30
0.0
 10
256.267008
 20
418.627068
 30
0.0
 10
262.192792
 20
418.707772
 30
0.0
 10
267.087320
 20
418.805484
 30
0.0
 10
270.786544
 20
418.917500
 30
0.0
 10
273.126384
 20
419.041108
 30
0.0
 10
273.942792
 20
419.173604
 30
0.0
 10
273.851472
 20
419.411020
 30
0.0
 10
273.589760
 20
419.835324
 30
0.0
 10
273.175992
 20
420.422724
 30
0.0
 10
272.628528
 20
421.149436
 30
0.0
 10
271.965712
 20
421.991668
 30
0.0
 10
271.205904
 20
422.925636
 30
0.0
 10
270.367456
 20
423.927540
 30
0.0
 10
269.468704
 20
424.973604
 30
0.0
 10
262.160024
 20
433.854740
 30
0.0
 10
255.515752
 20
442.931004
 30
0.0
 10
249.554296
 20
452.167100
 30
0.0
 10
244.294024
 20
461.527724
 30
0.0
 10
239.753336
 20
470.977596
 30
0.0
 10
235.950624
 20
480.481412
 30
0.0
 10
232.904272
 20
490.003868
 30
0.0
 10
230.632672
 20
499.509684
 30
0.0
 10
229.610728
 20
506.020492
 30
0.0
 10
229.043312
 20
512.817692
 30
0.0
 10
228.920872
 20
519.775036
 30
0.0
 10
229.233848
 20
526.766268
 30
0.0
 10
229.972680
 20
533.665132
 30
0.0
 10
231.127800
 20
540.345380
 30
0.0
 10
232.689656
 20
546.680764
 30
0.0
 10
234.648688
 20
552.545028
 30
0.0
 10
239.142032
 20
562.101940
 30
0.0
 10
244.943904
 20
571.035212
 30
0.0
 10
251.908864
 20
579.226628
 30
0.0
 10
259.891480
 20
586.557996
 30
0.0
 10
268.746288
 20
592.911092
 30
0.0
 10
278.327856
 20
598.167716
 30
0.0
 10
288.490736
 20
602.209660
 30
0.0
 10
299.089488
 20
604.918708
 30
0.0
 10
302.512496
 20
605.353348
 30
0.0
 10
306.793000
 20
605.585700
 30
0.0
 10
311.652432
 20
605.627620
 30
0.0
 10
316.812200
 20
605.490932
 30
0.0
 10
321.993728
 20
605.187524
 30
0.0
 10
326.918448
 20
604.729236
 30
0.0
 10
331.307776
 20
604.127924
 30
0.0
 10
334.883136
 20
603.395452
 30
0.0
 10
339.929720
 20
601.930676
 30
0.0
 10
344.787224
 20
600.187756
 30
0.0
 10
349.473288
 20
598.156852
 30
0.0
 10
354.005600
 20
595.828156
 30
0.0
 10
358.401800
 20
593.191836
 30
0.0
 10
362.679576
 20
590.238076
 30
0.0
 10
366.856576
 20
586.957044
 30
0.0
 10
370.950472
 20
583.338924
 30
0.0
 10
377.412736
 20
576.732540
 30
0.0
 10
382.980776
 20
569.810516
 30
0.0
 10
387.663360
 20
562.552564
 30
0.0
 10
391.469248
 20
554.938412
 30
0.0
 10
394.407216
 20
546.947764
 30
0.0
 10
396.486024
 20
538.560340
 30
0.0
 10
397.714432
 20
529.755860
 30
0.0
 10
398.101216
 20
520.514036
 30
0.0
 10
397.452688
 20
509.070988
 30
0.0
 10
395.567488
 20
497.651852
 30
0.0
 10
392.423112
 20
486.205236
 30
0.0
 10
387.997040
 20
474.679756
 30
0.0
 10
382.266760
 20
463.024044
 30
0.0
 10
375.209776
 20
451.186708
 30
0.0
 10
366.803560
 20
439.116364
 30
0.0
 10
357.025608
 20
426.761644
 30
0.0
 10
355.924224
 20
425.428108
 30
0.0
 10
354.896736
 20
424.150588
 30
0.0
 10
353.965616
 20
422.959452
 30
0.0
 10
353.153368
 20
421.885028
 30
0.0
 10
352.482472
 20
420.957692
 30
0.0
 10
351.975424
 20
420.207780
 30
0.0
 10
351.654696
 20
419.665644
 30
0.0
 10
351.542792
 20
419.361644
 30
0.0
 10
352.138544
 20
419.157060
 30
0.0
 10
353.949064
 20
418.982108
 30
0.0
 10
357.009200
 20
418.836060
 30
0.0
 10
361.353832
 20
418.718196
 30
0.0
 10
367.017832
 20
418.627788
 30
0.0
 10
374.036056
 20
418.564108
 30
0.0
 10
382.443384
 20
418.526428
 30
0.0
 10
392.274680
 20
418.514028
 30
0.0
 10
397.366168
 20
418.514028
 30
0.0
 10
402.457656
 20
418.514028
 30
0.0
 10
407.549144
 20
418.514028
 30
0.0
 10
412.640632
 20
418.514028
 30
0.0
 10
417.732120
 20
418.514028
 30
0.0
 10
422.823608
 20
418.514028
 30
0.0
 10
427.915096
 20
418.514028
 30
0.0
 10
433.006584
 20
418.514028
 30
0.0
 10
433.966976
 20
414.589028
 30
0.0
 10
434.927368
 20
410.664028
 30
0.0
 10
435.887760
 20
406.739028
 30
0.0
 10
436.848152
 20
402.814028
 30
0.0
 10
437.808552
 20
398.889028
 30
0.0
 10
438.768944
 20
394.964028
 30
0.0
 10
439.729336
 20
391.039028
 30
0.0
 10
440.689728
 20
387.114028
 30
0.0
 10
442.241280
 20
380.769692
 30
0.0
 10
443.704528
 20
374.779964
 30
0.0
 10
445.046320
 20
369.281020
 30
0.0
 10
446.233504
 20
364.409028
 30
0.0
 10
447.232920
 20
360.300164
 30
0.0
 10
448.011424
 20
357.090588
 30
0.0
 10
448.535856
 20
354.916492
 30
0.0
 10
448.773064
 20
353.914028
 30
0.0
 10
448.858312
 20
353.451740
 30
0.0
 10
448.888552
 20
353.067468
 30
0.0
 10
448.860952
 20
352.756268
 30
0.0
 10
448.772768
 20
352.513196
 30
0.0
 10
448.621184
 20
352.333332
 30
0.0
 10
448.403392
 20
352.211732
 30
0.0
 10
448.116600
 20
352.143492
 30
0.0
 10
447.758008
 20
352.123572
 30
0.0
 10
446.497848
 20
352.318900
 30
0.0
 10
443.532520
 20
352.952132
 30
0.0
 10
438.521416
 20
354.104692
 30
0.0
 10
431.123976
 20
355.858004
 30
0.0
 10
420.999600
 20
358.293492
 30
0.0
 10
407.807704
 20
361.492564
 30
0.0
 10
391.207704
 20
365.536652
 30
0.0
 10
370.859016
 20
370.507164
 30
0.0
 10
364.851304
 20
371.969692
 30
0.0
 10
359.237568
 20
373.324260
 30
0.0
 10
354.141320
 20
374.541916
 30
0.0
 10
349.686064
 20
375.593724
 30
0.0
 10
345.995320
 20
376.450740
 30
0.0
 10
343.192600
 20
377.084020
 30
0.0
 10
341.401424
 20
377.464620
 30
0.0
 10
340.745296
 20
377.563604
 30
0.0
 10
341.166920
 20
373.708636
 30
0.0
 10
342.492392
 20
363.189268
 30
0.0
 10
344.552160
 20
347.291100
 30
0.0
 10
347.176632
 20
327.299724
 30
0.0
 10
350.196256
 20
304.500732
 30
0.0
 10
353.441448
 20
280.179724
 30
0.0
 10
356.742640
 20
255.622292
 30
0.0
 10
359.930264
 20
232.114020
 30
0.0
 10
360.817344
 20
225.585132
 30
0.0
 10
361.644840
 20
219.454804
 30
0.0
 10
362.394648
 20
213.860020
 30
0.0
 10
363.048656
 20
208.937772
 30
0.0
 10
363.588760
 20
204.825052
 30
0.0
 10
363.996856
 20
201.658860
 30
0.0
 10
364.254840
 20
199.576188
 30
0.0
 10
364.344608
 20
198.714020
 30
0.0
 10
363.806216
 20
198.444388
 30
0.0
 10
362.046008
 20
198.224708
 30
0.0
 10
358.844624
 20
198.050676
 30
0.0
 10
353.982720
 20
197.917964
 30
0.0
 10
347.240936
 20
197.822260
 30
0.0
 10
338.399920
 20
197.759220
 30
0.0
 10
327.240312
 20
197.724580
 30
0.0
 10
313.542768
 20
197.714020
 30
0.0
 10
299.840232
 20
197.724580
 30
0.0
 10
288.678328
 20
197.759220
 30
0.0
 10
279.837104
 20
197.822260
 30
0.0
 10
273.096600
 20
197.917980
 30
0.0
 10
268.236872
 20
198.050748
 30
0.0
 10
265.037952
 20
198.224900
 30
0.0
 10
263.279904
 20
198.444756
 30
0.0
 10
262.742872
 20
198.714908
 30
0.0
  0
LWPOLYLINE
  5
101
100
AcDbEntity
  8
Layer_1
 62
7
100
AcDbPolyline
 90
57
 70
0
 10
319.791880
 20
445.914300
 30
0.0
 10
324.417032
 20
452.133076
 30
0.0
 10
328.995552
 20
458.808372
 30
0.0
 10
333.419064
 20
465.750324
 30
0.0
 10
337.579184
 20
472.769068
 30
0.0
 10
341.367536
 20
479.674732
 30
0.0
 10
344.675736
 20
486.277460
 30
0.0
 10
347.395400
 20
492.387380
 30
0.0
 10
349.418160
 20
497.814628
 30
0.0
 10
351.426520
 20
505.212580
 30
0.0
 10
352.512704
 20
512.255820
 30
0.0
 10
352.678200
 20
518.936852
 30
0.0
 10
351.924496
 20
525.248212
 30
0.0
 10
350.253064
 20
531.182388
 30
0.0
 10
347.665400
 20
536.731900
 30
0.0
 10
344.162976
 20
541.889268
 30
0.0
 10
339.747288
 20
546.646996
 30
0.0
 10
333.904184
 20
551.142364
 30
0.0
 10
327.491000
 20
554.349092
 30
0.0
 10
320.691520
 20
556.267524
 30
0.0
 10
313.689512
 20
556.898020
 30
0.0
 10
306.668736
 20
556.240924
 30
0.0
 10
299.812976
 20
554.296588
 30
0.0
 10
293.305992
 20
551.065356
 30
0.0
 10
287.331568
 20
546.547572
 30
0.0
 10
284.216240
 20
543.446436
 30
0.0
 10
281.573376
 20
540.252380
 30
0.0
 10
279.385232
 20
536.923812
 30
0.0
 10
277.634064
 20
533.419148
 30
0.0
 10
276.302128
 20
529.696788
 30
0.0
 10
275.371680
 20
525.715156
 30
0.0
 10
274.824984
 20
521.432644
 30
0.0
 10
274.644288
 20
516.807668
 30
0.0
 10
274.932008
 20
510.622916
 30
0.0
 10
275.819664
 20
504.387916
 30
0.0
 10
277.330104
 20
498.041804
 30
0.0
 10
279.486168
 20
491.523716
 30
0.0
 10
282.310704
 20
484.772788
 30
0.0
 10
285.826568
 20
477.728148
 30
0.0
 10
290.056584
 20
470.328940
 30
0.0
 10
295.023616
 20
462.514300
 30
0.0
 10
298.524056
 20
457.328588
 30
0.0
 10
301.739352
 20
452.734276
 30
0.0
 10
304.644736
 20
448.762188
 30
0.0
 10
307.215448
 20
445.443164
 30
0.0
 10
309.426736
 20
442.808036
 30
0.0
 10
311.253824
 20
440.887628
 30
0.0
 10
312.671960
 20
439.712772
 30
0.0
 10
313.656376
 20
439.314300
 30
0.0
 10
313.962008
 20
439.449004
 30
0.0
 10
314.449768
 20
439.835084
 30
0.0
 10
315.094496
 20
440.445452
 30
0.0
 10
315.871032
 20
441.253052
 30
0.0
 10
316.754200
 20
442.230804
 30
0.0
 10
317.718840
 20
443.351644
 30
0.0
 10
318.739792
 20
444.588500
 30
0.0
 10
319.791880
 20
445.914300
 30
0.0
  0
ENDSEC
  0
SECTION
  2
OBJECTS
  0
DICTIONARY
  5
C
330
0
100
AcDbDictionary
  3
ACAD_GROUP
350
D
  3
ACAD_MLINESTYLE
350
17
  0
DICTIONARY
  5
D
330
C
100
AcDbDictionary
  0
DICTIONARY
  5
1A
330
C
100
AcDbDictionary
  0
DICTIONARY
  5
17
330
C
100
AcDbDictionary
  3
STANDARD
350
18
  0
DICTIONARY
  5
19
330
C
100
AcDbDictionary
  0
ENDSEC
  0
EOF
