  0
SECTION
  2
HEADER
  9
$ACADVER
  1
AC1014
  9
$HANDSEED
  5
FFFF
  9
$MEASUREMENT
 70
     1
  0
ENDSEC
  0
SECTION
  2
TABLES
  0
TABLE
  2
VPORT
  5
8
330
0
100
AcDbSymbolTable
 70
     4
  0
VPORT
  5
2E
330
8
100
AcDbSymbolTableRecord
100
AcDbViewportTableRecord
  2
*ACTIVE
 70
     0
 10
0.0
 20
0.0
 11
1.0
 21
1.0
 12
210.0
 22
148.5
 13
0.0
 23
0.0
 14
10.0
 24
10.0
 15
10.0
 25
10.0
 16
0.0
 26
0.0
 36
1.0
 17
0.0
 27
0.0
 37
0.0
 40
341.0
 41
1.24
 42
50.0
 43
0.0
 44
0.0
 50
0.0
 51
0.0
 71
     0
 72
   100
 73
     1
 74
     3
 75
     0
 76
     0
 77
     0
 78
     0
  0
ENDTAB
  0
TABLE
  2
LTYPE
  5
5
330
0
100
AcDbSymbolTable
 70
     1
  0
LTYPE
  5
14
330
5
100
AcDbSymbolTableRecord
100
AcDbLinetypeTableRecord
  2
BYBLOCK
 70
     0
  3

 72
    65
 73
     0
 40
0.0
  0
LTYPE
  5
15
330
5
100
AcDbSymbolTableRecord
100
AcDbLinetypeTableRecord
  2
BYLAYER
 70
     0
  3

 72
    65
 73
     0
 40
0.0
  0
LTYPE
  5
16
330
5
100
AcDbSymbolTableRecord
100
AcDbLinetypeTableRecord
  2
CONTINUOUS
 70
     0
  3
Solid line
 72
    65
 73
     0
 40
0.0
  0
ENDTAB
  0
TABLE
  2
LAYER
  5
2
100
AcDbSymbolTable
 70
2
  0
LAYER
  5
50
100
AcDbSymbolTableRecord
100
AcDbLayerTableRecord
  2
0
 70
0
  6
CONTINUOUS
  0
LAYER
  5
51
100
AcDbSymbolTableRecord
100
AcDbLayerTableRecord
  2
Layer_1
 70
0
  6
CONTINUOUS
  0
ENDTAB
  0
TABLE
  2
STYLE
  5
3
330
0
100
AcDbSymbolTable
 70
     1
  0
STYLE
  5
11
330
3
100
AcDbSymbolTableRecord
100
AcDbTextStyleTableRecord
  2
STANDARD
 70
     0
 40
0.0
 41
1.0
 50
0.0
 71
     0
 42
2.5
  3
txt
  4

  0
ENDTAB
  0
TABLE
  2
VIEW
  5
6
330
0
100
AcDbSymbolTable
 70
     0
  0
ENDTAB
  0
TABLE
  2
UCS
  5
7
330
0
100
AcDbSymbolTable
 70
     0
  0
ENDTAB
  0
TABLE
  2
APPID
  5
9
330
0
100
AcDbSymbolTable
 70
     2
  0
APPID
  5
12
330
9
100
AcDbSymbolTableRecord
100
AcDbRegAppTableRecord
  2
ACAD
 70
     0
  0
ENDTAB
  0
TABLE
  2
DIMSTYLE
  5
A
330
0
100
AcDbSymbolTable
 70
     1
  0
DIMSTYLE
105
27
330
A
100
AcDbSymbolTableRecord
100
AcDbDimStyleTableRecord
  2
ISO-25
 70
     0
  3

  4

  5

  6

  7

 40
1.0
 41
2.5
 42
0.625
 43
3.75
 44
1.25
 45
0.0
 46
0.0
 47
0.0
 48
0.0
140
2.5
141
2.5
142
0.0
143
0.03937007874016
144
1.0
145
0.0
146
1.0
147
0.625
 71
     0
 72
     0
 73
     0
 74
     0
 75
     0
 76
     0
 77
     1
 78
     8
170
     0
171
     3
172
     1
173
     0
174
     0
175
     0
176
     0
177
     0
178
     0
270
     2
271
     2
272
     2
273
     2
274
     3
340
11
275
     0
280
     0
281
     0
282
     0
283
     0
284
     8
285
     0
286
     0
287
     3
288
     0
  0
ENDTAB
  0
TABLE
  2
BLOCK_RECORD
  5
1
330
0
100
AcDbSymbolTable
 70
     1
  0
BLOCK_RECORD
  5
1F
330
1
100
AcDbSymbolTableRecord
100
AcDbBlockTableRecord
  2
*MODEL_SPACE
  0
BLOCK_RECORD
  5
1B
330
1
100
AcDbSymbolTableRecord
100
AcDbBlockTableRecord
  2
*PAPER_SPACE
  0
ENDTAB
  0
ENDSEC
  0
SECTION
  2
BLOCKS
  0
BLOCK
  5
20
330
1F
100
AcDbEntity
  8
0
100
AcDbBlockBegin
  2
*MODEL_SPACE
 70
     0
 10
0.0
 20
0.0
 30
0.0
  3
*MODEL_SPACE
  1

  0
ENDBLK
  5
21
330
1F
100
AcDbEntity
  8
0
100
AcDbBlockEnd
  0
BLOCK
  5
1C
330
1B
100
AcDbEntity
 67
     1
  8
0
100
AcDbBlockBegin
  2
*PAPER_SPACE
  1

  0
ENDBLK
  5
1D
330
1B
100
AcDbEntity
 67
     1
  8
0
100
AcDbBlockEnd
  0
ENDSEC
  0
SECTION
  2
ENTITIES
  0
LWPOLYLINE
  5
100
100
AcDbEntity
  8
Layer_1
 62
7
100
AcDbPolyline
 90
276
 70
0
 10
177.165584
 20
401.699548
 30
0.0
 10
174.538240
 20
407.845132
 30
0.0
 10
174.297792
 20
409.451252
 30
0.0
 10
174.334032
 20
410.952780
 30
0.0
 10
174.609904
 20
412.274084
 30
0.0
 10
175.063016
 20
413.440532
 30
0.0
 10
178.871912
 20
419.285820
 30
0.0
 10
176.682696
 20
421.085820
 30
0.0
 10
174.493472
 20
422.885820
 30
0.0
 10
172.304256
 20
424.685820
 30
0.0
 10
168.837600
 20
427.560348
 30
0.0
 10
165.872064
 20
430.064572
 30
0.0
 10
163.722632
 20
431.929412
 30
0.0
 10
162.704304
 20
432.885820
 30
0.0
 10
163.773160
 20
433.378524
 30
0.0
 10
168.793312
 20
433.684892
 30
0.0
 10
185.831264
 20
433.841724
 30
0.0
 10
200.258632
 20
458.726540
 30
0.0
 10
213.899120
 20
482.544292
 30
0.0
 10
230.555928
 20
511.575676
 30
0.0
 10
247.723896
 20
541.608076
 30
0.0
 10
262.756152
 20
568.151380
 30
0.0
 10
273.274904
 20
587.242476
 30
0.0
 10
269.980024
 20
589.575052
 30
0.0
 10
268.622472
 20
590.907084
 30
0.0
 10
266.663872
 20
592.878492
 30
0.0
 10
264.308472
 20
595.285740
 30
0.0
 10
257.535784
 20
603.064404
 30
0.0
 10
252.863480
 20
610.473012
 30
0.0
 10
250.027592
 20
618.037980
 30
0.0
 10
248.764160
 20
626.285740
 30
0.0
 10
248.648824
 20
629.565020
 30
0.0
 10
248.770544
 20
632.506020
 30
0.0
 10
249.149104
 20
635.336876
 30
0.0
 10
249.804280
 20
638.285740
 30
0.0
 10
250.167488
 20
639.685740
 30
0.0
 10
250.530696
 20
641.085740
 30
0.0
 10
250.893896
 20
642.485740
 30
0.0
 10
251.257104
 20
643.885740
 30
0.0
 10
252.615800
 20
643.945100
 30
0.0
 10
253.974496
 20
644.004460
 30
0.0
 10
255.333192
 20
644.063820
 30
0.0
 10
256.691888
 20
644.123180
 30
0.0
 10
263.794768
 20
643.703132
 30
0.0
 10
270.709480
 20
641.821044
 30
0.0
 10
277.412560
 20
638.485924
 30
0.0
 10
283.880544
 20
633.706756
 30
0.0
 10
284.636408
 20
633.051524
 30
0.0
 10
285.392264
 20
632.396300
 30
0.0
 10
286.148128
 20
631.741068
 30
0.0
 10
286.903992
 20
631.085836
 30
0.0
 10
286.273256
 20
629.594796
 30
0.0
 10
285.642512
 20
628.103764
 30
0.0
 10
285.011776
 20
626.612724
 30
0.0
 10
284.381040
 20
625.121684
 30
0.0
 10
283.028600
 20
621.768772
 30
0.0
 10
282.382136
 20
619.492284
 30
0.0
 10
282.323256
 20
617.591148
 30
0.0
 10
282.733648
 20
615.364300
 30
0.0
 10
282.952544
 20
614.415996
 30
0.0
 10
283.171440
 20
613.467684
 30
0.0
 10
283.390336
 20
612.519380
 30
0.0
 10
284.233544
 20
607.547716
 30
0.0
 10
287.319000
 20
612.038404
 30
0.0
 10
290.291432
 20
613.887468
 30
0.0
 10
294.253064
 20
614.248436
 30
0.0
 10
296.881568
 20
613.819060
 30
0.0
 10
298.945504
 20
612.462748
 30
0.0
 10
300.543112
 20
610.079044
 30
0.0
 10
301.772640
 20
606.567492
 30
0.0
 10
302.387512
 20
604.062588
 30
0.0
 10
302.478304
 20
602.584676
 30
0.0
 10
301.942264
 20
601.555204
 30
0.0
 10
300.676672
 20
600.395612
 30
0.0
 10
294.624024
 20
595.108796
 30
0.0
 10
301.070528
 20
591.816244
 30
0.0
 10
303.222160
 20
590.413268
 30
0.0
 10
305.373800
 20
589.010292
 30
0.0
 10
307.525440
 20
587.607308
 30
0.0
 10
316.937640
 20
581.764228
 30
0.0
 10
327.050928
 20
576.081020
 30
0.0
 10
338.234384
 20
570.360020
 30
0.0
 10
350.857104
 20
564.403604
 30
0.0
 10
371.400856
 20
554.974492
 30
0.0
 10
382.619632
 20
549.397556
 30
0.0
 10
388.632072
 20
545.379372
 30
0.0
 10
393.556808
 20
540.626492
 30
0.0
 10
399.750736
 20
533.808020
 30
0.0
 10
405.236360
 20
526.746452
 30
0.0
 10
410.015168
 20
519.439708
 30
0.0
 10
414.088648
 20
511.885740
 30
0.0
 10
417.069504
 20
505.230372
 30
0.0
 10
419.073544
 20
499.370436
 30
0.0
 10
420.305496
 20
493.568156
 30
0.0
 10
420.970088
 20
487.085740
 30
0.0
 10
420.999368
 20
480.715284
 30
0.0
 10
420.199472
 20
474.799164
 30
0.0
 10
418.513392
 20
469.070436
 30
0.0
 10
415.884152
 20
463.262148
 30
0.0
 10
412.470776
 20
458.008076
 30
0.0
 10
407.759704
 20
452.442044
 30
0.0
 10
402.335592
 20
447.188204
 30
0.0
 10
396.783112
 20
442.870684
 30
0.0
 10
395.564632
 20
442.052340
 30
0.0
 10
394.346152
 20
441.233996
 30
0.0
 10
393.127672
 20
440.415652
 30
0.0
 10
391.909192
 20
439.597308
 30
0.0
 10
392.272488
 20
437.133364
 30
0.0
 10
392.635792
 20
434.669412
 30
0.0
 10
392.999088
 20
432.205468
 30
0.0
 10
393.362392
 20
429.741524
 30
0.0
 10
393.928288
 20
425.804236
 30
0.0
 10
394.394832
 20
422.369628
 30
0.0
 10
394.713648
 20
419.807020
 30
0.0
 10
395.038424
 20
415.000716
 30
0.0
 10
409.285920
 20
414.887172
 30
0.0
 10
419.751312
 20
415.306092
 30
0.0
 10
421.306808
 20
416.085836
 30
0.0
 10
420.336016
 20
417.386932
 30
0.0
 10
418.289000
 20
419.894588
 30
0.0
 10
415.465688
 20
423.247868
 30
0.0
 10
412.166008
 20
427.085836
 30
0.0
 10
408.939616
 20
430.824572
 30
0.0
 10
406.315784
 20
433.907700
 30
0.0
 10
404.563984
 20
436.015548
 30
0.0
 10
403.953688
 20
436.828412
 30
0.0
 10
406.457848
 20
436.426308
 30
0.0
 10
412.326896
 20
435.027180
 30
0.0
 10
419.735200
 20
433.089780
 30
0.0
 10
426.857128
 20
431.072908
 30
0.0
 10
440.411256
 20
426.553348
 30
0.0
 10
454.238232
 20
421.088020
 30
0.0
 10
467.462896
 20
415.049100
 30
0.0
 10
479.210088
 20
408.808828
 30
0.0
 10
480.398344
 20
408.119508
 30
0.0
 10
481.586608
 20
407.430188
 30
0.0
 10
482.774864
 20
406.740876
 30
0.0
 10
483.963128
 20
406.051556
 30
0.0
 10
481.574864
 20
404.856172
 30
0.0
 10
479.186608
 20
403.660788
 30
0.0
 10
476.798344
 20
402.465412
 30
0.0
 10
474.410088
 20
401.270028
 30
0.0
 10
460.189608
 20
394.642044
 30
0.0
 10
444.961440
 20
388.437796
 30
0.0
 10
429.369352
 20
382.902532
 30
0.0
 10
414.057128
 20
378.281452
 30
0.0
 10
410.979944
 20
377.440124
 30
0.0
 10
408.219632
 20
376.682692
 30
0.0
 10
406.078064
 20
376.092156
 30
0.0
 10
404.857128
 20
375.751540
 30
0.0
 10
404.080648
 20
375.585748
 30
0.0
 10
403.882288
 20
375.763460
 30
0.0
 10
404.290688
 20
376.395036
 30
0.0
 10
405.334488
 20
377.590708
 30
0.0
 10
406.731408
 20
379.176196
 30
0.0
 10
408.999240
 20
381.796556
 30
0.0
 10
411.824328
 20
385.087756
 30
0.0
 10
414.893048
 20
388.685716
 30
0.0
 10
416.763344
 20
390.885716
 30
0.0
 10
418.633648
 20
393.085716
 30
0.0
 10
420.503952
 20
395.285716
 30
0.0
 10
422.374248
 20
397.485716
 30
0.0
 10
400.188904
 20
397.486092
 30
0.0
 10
395.341512
 20
397.419212
 30
0.0
 10
394.713792
 20
392.764428
 30
0.0
 10
394.394960
 20
390.201820
 30
0.0
 10
393.928360
 20
386.767212
 30
0.0
 10
393.362432
 20
382.829924
 30
0.0
 10
392.999136
 20
380.365980
 30
0.0
 10
392.635832
 20
377.902028
 30
0.0
 10
392.272536
 20
375.438084
 30
0.0
 10
391.909232
 20
372.974140
 30
0.0
 10
393.127712
 20
372.155796
 30
0.0
 10
394.346192
 20
371.337452
 30
0.0
 10
395.564672
 20
370.519108
 30
0.0
 10
396.783152
 20
369.700764
 30
0.0
 10
402.335624
 20
365.383244
 30
0.0
 10
407.759720
 20
360.129396
 30
0.0
 10
412.470792
 20
354.563364
 30
0.0
 10
415.884192
 20
349.309300
 30
0.0
 10
418.513456
 20
343.501028
 30
0.0
 10
420.199520
 20
337.772300
 30
0.0
 10
420.999400
 20
331.856172
 30
0.0
 10
420.970120
 20
325.485708
 30
0.0
 10
420.305544
 20
319.003292
 30
0.0
 10
419.073584
 20
313.201012
 30
0.0
 10
417.069528
 20
307.341084
 30
0.0
 10
414.088680
 20
300.685708
 30
0.0
 10
410.015216
 20
293.131724
 30
0.0
 10
405.236408
 20
285.824996
 30
0.0
 10
399.750776
 20
278.763428
 30
0.0
 10
393.556840
 20
271.944956
 30
0.0
 10
388.632104
 20
267.192076
 30
0.0
 10
382.619664
 20
263.173884
 30
0.0
 10
371.400888
 20
257.596956
 30
0.0
 10
350.857136
 20
248.167844
 30
0.0
 10
338.254512
 20
242.220948
 30
0.0
 10
327.080608
 20
236.506580
 30
0.0
 10
316.987640
 20
230.838604
 30
0.0
 10
307.627832
 20
225.030884
 30
0.0
 10
304.299520
 20
222.878388
 30
0.0
 10
301.523856
 20
221.116804
 30
0.0
 10
299.590824
 20
219.927844
 30
0.0
 10
298.790392
 20
219.493212
 30
0.0
 10
295.996008
 20
216.163324
 30
0.0
 10
300.676688
 20
212.175788
 30
0.0
 10
301.942280
 20
211.016196
 30
0.0
 10
302.478320
 20
209.986724
 30
0.0
 10
302.387528
 20
208.508812
 30
0.0
 10
301.772656
 20
206.003908
 30
0.0
 10
300.003960
 20
201.642692
 30
0.0
 10
297.433640
 20
199.033220
 30
0.0
 10
294.039064
 20
198.162284
 30
0.0
 10
289.797600
 20
199.016668
 30
0.0
 10
288.589896
 20
199.473708
 30
0.0
 10
287.563280
 20
199.889116
 30
0.0
 10
286.826368
 20
200.217108
 30
0.0
 10
286.487768
 20
200.411908
 30
0.0
 10
285.885480
 20
201.528220
 30
0.0
 10
284.430640
 20
204.365284
 30
0.0
 10
283.609280
 20
201.000476
 30
0.0
 10
283.390384
 20
200.052172
 30
0.0
 10
283.171488
 20
199.103868
 30
0.0
 10
282.952592
 20
198.155556
 30
0.0
 10
282.733696
 20
197.207252
 30
0.0
 10
282.323304
 20
194.980404
 30
0.0
 10
282.382184
 20
193.079268
 30
0.0
 10
283.028648
 20
190.802780
 30
0.0
 10
284.381088
 20
187.449868
 30
0.0
 10
285.011824
 20
185.958828
 30
0.0
 10
285.642560
 20
184.467796
 30
0.0
 10
286.273304
 20
182.976756
 30
0.0
 10
286.904040
 20
181.485716
 30
0.0
 10
286.148176
 20
180.830484
 30
0.0
 10
285.392312
 20
180.175252
 30
0.0
 10
284.636456
 20
179.520028
 30
0.0
 10
283.880592
 20
178.864796
 30
0.0
 10
277.602296
 20
174.198724
 30
0.0
 10
271.083472
 20
170.896948
 30
0.0
 10
264.260384
 20
168.934332
 30
0.0
 10
257.069272
 20
168.285716
 30
0.0
 10
254.122624
 20
168.338596
 30
0.0
 10
252.388728
 20
168.576780
 30
0.0
 10
251.461400
 20
169.119412
 30
0.0
 10
250.934424
 20
170.085716
 30
0.0
 10
249.809568
 20
173.898260
 30
0.0
 10
249.028368
 20
178.303812
 30
0.0
 10
248.649416
 20
182.850316
 30
0.0
 10
248.731296
 20
187.085716
 30
0.0
 10
250.238048
 20
195.228540
 30
0.0
 10
253.405032
 20
203.001204
 30
0.0
 10
258.327504
 20
210.584532
 30
0.0
 10
265.100720
 20
218.159372
 30
0.0
 10
266.486976
 20
219.527788
 30
0.0
 10
267.873224
 20
220.896204
 30
0.0
 10
269.259480
 20
222.264620
 30
0.0
 10
270.645736
 20
223.633036
 30
0.0
 10
273.137000
 20
225.814220
 30
0.0
 10
260.824960
 20
248.723116
 30
0.0
 10
243.764520
 20
279.830412
 30
0.0
 10
224.105776
 20
315.468356
 30
0.0
 10
201.165216
 20
357.079300
 30
0.0
 10
187.424984
 20
381.835716
 30
0.0
 10
182.372752
 20
381.885716
 30
0.0
 10
179.470520
 20
381.885716
 30
0.0
 10
176.568288
 20
381.885716
 30
0.0
 10
173.666056
 20
381.885716
 30
0.0
 10
169.158528
 20
381.911476
 30
0.0
 10
165.467248
 20
381.981556
 30
0.0
 10
162.973144
 20
382.085300
 30
0.0
 10
162.057128
 20
382.211988
 30
0.0
 10
164.591088
 20
384.484260
 30
0.0
 10
170.183232
 20
389.024116
 30
0.0
 10
175.818984
 20
393.429764
 30
0.0
 10
180.133752
 20
396.749428
 30
0.0
 10
177.165584
 20
401.699548
 30
0.0
  0
LWPOLYLINE
  5
101
100
AcDbEntity
  8
Layer_1
 62
7
100
AcDbPolyline
 90
59
 70
0
 10
196.507712
 20
433.885804
 30
0.0
 10
203.931896
 20
433.885804
 30
0.0
 10
212.346032
 20
433.885804
 30
0.0
 10
220.760176
 20
433.885804
 30
0.0
 10
229.174312
 20
433.885804
 30
0.0
 10
231.195016
 20
431.485804
 30
0.0
 10
233.215720
 20
429.085804
 30
0.0
 10
235.236424
 20
426.685804
 30
0.0
 10
237.257128
 20
424.285804
 30
0.0
 10
239.277832
 20
421.885804
 30
0.0
 10
241.298536
 20
419.485804
 30
0.0
 10
243.319240
 20
417.085804
 30
0.0
 10
245.339944
 20
414.685804
 30
0.0
 10
267.436624
 20
414.685804
 30
0.0
 10
289.533312
 20
414.685804
 30
0.0
 10
311.629992
 20
414.685804
 30
0.0
 10
333.726680
 20
414.685804
 30
0.0
 10
363.257384
 20
414.610444
 30
0.0
 10
365.754432
 20
418.485740
 30
0.0
 10
365.364480
 20
420.307860
 30
0.0
 10
364.606160
 20
424.234140
 30
0.0
 10
363.588856
 20
429.686996
 30
0.0
 10
362.421872
 20
436.088804
 30
0.0
 10
361.691328
 20
440.139572
 30
0.0
 10
360.960792
 20
444.190340
 30
0.0
 10
360.230256
 20
448.241108
 30
0.0
 10
359.499712
 20
452.291876
 30
0.0
 10
361.192936
 20
453.941108
 30
0.0
 10
362.886152
 20
455.590340
 30
0.0
 10
364.579368
 20
457.239572
 30
0.0
 10
366.272592
 20
458.888804
 30
0.0
 10
373.557336
 20
466.808044
 30
0.0
 10
378.450584
 20
474.199428
 30
0.0
 10
381.194424
 20
481.529748
 30
0.0
 10
382.030992
 20
489.265756
 30
0.0
 10
381.197712
 20
496.647228
 30
0.0
 10
378.661168
 20
503.798444
 30
0.0
 10
374.263840
 20
511.046492
 30
0.0
 10
367.848192
 20
518.718476
 30
0.0
 10
359.867784
 20
526.412668
 30
0.0
 10
349.772288
 20
534.294948
 30
0.0
 10
335.866976
 20
543.577300
 30
0.0
 10
316.457128
 20
555.471748
 30
0.0
 10
308.017368
 20
560.559004
 30
0.0
 10
300.118176
 20
565.383284
 30
0.0
 10
293.644664
 20
569.400132
 30
0.0
 10
289.481968
 20
572.065068
 30
0.0
 10
287.838176
 20
573.160516
 30
0.0
 10
286.194384
 20
574.255964
 30
0.0
 10
284.550600
 20
575.351412
 30
0.0
 10
280.702240
 20
578.941676
 30
0.0
 10
268.834352
 20
559.280748
 30
0.0
 10
255.036912
 20
535.637772
 30
0.0
 10
238.799368
 20
507.596516
 30
0.0
 10
228.513808
 20
489.771612
 30
0.0
 10
218.228248
 20
471.946716
 30
0.0
 10
207.942688
 20
454.121812
 30
0.0
 10
197.657128
 20
436.296916
 30
0.0
 10
196.507712
 20
433.885804
 30
0.0
  0
LWPOLYLINE
  5
102
100
AcDbEntity
  8
Layer_1
 62
7
100
AcDbPolyline
 90
62
 70
0
 10
198.169688
 20
382.319636
 30
0.0
 10
229.275088
 20
325.635172
 30
0.0
 10
249.251024
 20
289.518844
 30
0.0
 10
266.101208
 20
259.274524
 30
0.0
 10
278.051976
 20
238.070564
 30
0.0
 10
280.794136
 20
234.013756
 30
0.0
 10
284.545760
 20
237.216812
 30
0.0
 10
286.190240
 20
238.312724
 30
0.0
 10
287.834720
 20
239.408644
 30
0.0
 10
289.479200
 20
240.504556
 30
0.0
 10
293.642976
 20
243.170212
 30
0.0
 10
300.117360
 20
247.187644
 30
0.0
 10
308.017152
 20
252.012332
 30
0.0
 10
316.457128
 20
257.099732
 30
0.0
 10
335.866984
 20
268.994172
 30
0.0
 10
349.772296
 20
278.276524
 30
0.0
 10
359.867792
 20
286.158796
 30
0.0
 10
367.848192
 20
293.853004
 30
0.0
 10
374.263832
 20
301.524996
 30
0.0
 10
378.661176
 20
308.773044
 30
0.0
 10
381.197720
 20
315.924252
 30
0.0
 10
382.030992
 20
323.305724
 30
0.0
 10
381.194560
 20
331.041732
 30
0.0
 10
378.450704
 20
338.372052
 30
0.0
 10
373.557384
 20
345.763436
 30
0.0
 10
366.272592
 20
353.682676
 30
0.0
 10
364.579376
 20
355.331908
 30
0.0
 10
362.886152
 20
356.981140
 30
0.0
 10
361.192936
 20
358.630372
 30
0.0
 10
359.499712
 20
360.279604
 30
0.0
 10
360.230256
 20
364.330372
 30
0.0
 10
360.960792
 20
368.381140
 30
0.0
 10
361.691336
 20
372.431908
 30
0.0
 10
362.421872
 20
376.482676
 30
0.0
 10
363.588856
 20
382.884484
 30
0.0
 10
364.606160
 20
388.337340
 30
0.0
 10
365.364480
 20
392.263620
 30
0.0
 10
365.754432
 20
394.085740
 30
0.0
 10
363.110736
 20
397.551764
 30
0.0
 10
355.818248
 20
397.638356
 30
0.0
 10
333.632904
 20
397.689236
 30
0.0
 10
311.447552
 20
397.740116
 30
0.0
 10
289.262200
 20
397.790996
 30
0.0
 10
267.076848
 20
397.841876
 30
0.0
 10
244.891496
 20
397.892756
 30
0.0
 10
242.878984
 20
395.887092
 30
0.0
 10
240.866472
 20
393.881428
 30
0.0
 10
238.853960
 20
391.875764
 30
0.0
 10
236.841448
 20
389.870100
 30
0.0
 10
234.828936
 20
387.864436
 30
0.0
 10
232.816424
 20
385.858772
 30
0.0
 10
230.803912
 20
383.853108
 30
0.0
 10
228.791400
 20
381.847444
 30
0.0
 10
225.233216
 20
381.902244
 30
0.0
 10
221.675032
 20
381.957044
 30
0.0
 10
218.116856
 20
382.011844
 30
0.0
 10
214.558672
 20
382.066644
 30
0.0
 10
211.000488
 20
382.121444
 30
0.0
 10
207.442304
 20
382.176244
 30
0.0
 10
203.884128
 20
382.231044
 30
0.0
 10
200.325944
 20
382.285844
 30
0.0
 10
198.169688
 20
382.319636
 30
0.0
  0
ENDSEC
  0
SECTION
  2
OBJECTS
  0
DICTIONARY
  5
C
330
0
100
AcDbDictionary
  3
ACAD_GROUP
350
D
  3
ACAD_MLINESTYLE
350
17
  0
DICTIONARY
  5
D
330
C
100
AcDbDictionary
  0
DICTIONARY
  5
1A
330
C
100
AcDbDictionary
  0
DICTIONARY
  5
17
330
C
100
AcDbDictionary
  3
STANDARD
350
18
  0
DICTIONARY
  5
19
330
C
100
AcDbDictionary
  0
ENDSEC
  0
EOF
