<?xml version="1.0" encoding="UTF-8" standalone="no"?>
<!-- Created with Inkscape (http://www.inkscape.org/) -->

<svg
   xmlns:dc="http://purl.org/dc/elements/1.1/"
   xmlns:cc="http://creativecommons.org/ns#"
   xmlns:rdf="http://www.w3.org/1999/02/22-rdf-syntax-ns#"
   xmlns:svg="http://www.w3.org/2000/svg"
   xmlns="http://www.w3.org/2000/svg"
   xmlns:sodipodi="http://sodipodi.sourceforge.net/DTD/sodipodi-0.dtd"
   xmlns:inkscape="http://www.inkscape.org/namespaces/inkscape"
   width="210mm"
   height="297mm"
   viewBox="0 0 744.09448819 1052.3622047"
   id="svg2"
   version="1.1"
   inkscape:version="0.91 r13725"
   sodipodi:docname="bow.svg">
  <defs
     id="defs4" />
  <sodipodi:namedview
     id="base"
     pagecolor="#ffffff"
     bordercolor="#666666"
     borderopacity="1.0"
     inkscape:pageopacity="0.0"
     inkscape:pageshadow="2"
     inkscape:zoom="0.98994949"
     inkscape:cx="-192.40954"
     inkscape:cy="-38.269903"
     inkscape:document-units="px"
     inkscape:current-layer="layer1"
     showgrid="false"
     inkscape:window-width="2560"
     inkscape:window-height="1370"
     inkscape:window-x="0"
     inkscape:window-y="0"
     inkscape:window-maximized="1" />
  <metadata
     id="metadata7">
    <rdf:RDF>
      <cc:Work
         rdf:about="">
        <dc:format>image/svg+xml</dc:format>
        <dc:type
           rdf:resource="http://purl.org/dc/dcmitype/StillImage" />
        <dc:title></dc:title>
      </cc:Work>
    </rdf:RDF>
  </metadata>
  <g
     inkscape:label="Layer 1"
     inkscape:groupmode="layer"
     id="layer1">
    <path
       style="fill:#000000"
       d="m -97.419922,677.70508 -0.351562,0.004 -0.34961,0.004 -0.351562,0.008 -0.351563,0.01 -0.353515,0.0117 -0.351563,0.0156 -1.066403,0.0449 -1.06446,0.0469 -1.0664,0.0469 -1.06641,0.0469 -1.06641,0.0469 -1.06445,0.0469 -1.0664,0.0469 -1.06641,0.0449 -0.28516,1.09961 -0.28515,1.09765 -0.28516,1.09766 -0.28516,1.09765 -0.28515,1.09961 -0.28516,1.09766 -0.28515,1.09766 -0.28516,1.09765 -0.57031,2.35938 -0.45703,2.26758 -0.34961,2.22265 -0.24414,2.22071 -0.14454,2.26367 -0.0469,2.35156 0.0469,2.48437 0.13477,2.66016 0.70898,6.65625 1.27344,6.28516 1.89063,6.01757 2.55859,5.85157 3.2793,5.79101 4.050779,5.83399 4.875,5.97656 5.751953,6.22656 1.90625,1.95508 1.789062,1.82227 1.634766,1.65234 1.439453,1.44141 1.203125,1.1914 0.925781,0.89844 0.611329,0.57031 0.255859,0.19727 0.269531,0.3125 0.269531,0.31055 0.269532,0.3125 0.269531,0.31054 0.269531,0.3125 0.269531,0.3125 0.269532,0.31055 0.269531,0.3125 -5.904297,10.46875 -6.935547,12.01172 -7.822265,13.37304 -8.562498,14.54493 -9.15235,15.53125 -9.5957,16.33398 -9.89453,16.95117 -10.04492,17.38281 -13.08789,22.91602 -12.42969,21.9668 -11.47461,20.43945 -10.22266,18.33984 -8.67382,15.65821 -6.83008,12.40429 -4.69141,8.57227 -2.25586,4.1641 -9.93359,0.045 -7.88086,0.078 -6.03711,0.1133 -4.4043,0.1543 -2.98242,0.2031 -1.77148,0.2539 -0.77149,0.3106 0.0176,0.373 0.54688,0.5469 1.05078,0.9551 1.49609,1.3105 1.87695,1.6152 2.19727,1.8653 2.45508,2.0625 2.65234,2.209 2.78711,2.3007 0.96094,1.0352 0.95898,1.0332 0.96094,1.0332 0.95898,1.0332 0.96094,1.0332 0.95899,1.0332 0.96093,1.0332 0.95899,1.0332 -0.28321,0.7266 -0.28125,0.7265 -0.2832,0.7266 -0.2832,0.7266 -0.28125,0.7265 -0.2832,0.7266 -0.28321,0.7266 -0.28125,0.7265 -0.13086,1.3067 -0.13281,1.3047 -0.13086,1.3046 -0.13086,1.3047 -0.13086,1.3047 -0.13281,1.3067 -0.13086,1.3046 -0.13086,1.3047 0.21484,1.4942 0.2168,1.4922 0.21484,1.4921 0.2168,1.4942 0.21485,1.4922 0.21679,1.4922 0.21485,1.4941 0.21679,1.4922 0.40821,0.9922 0.41015,0.9922 0.41016,0.9922 0.41016,0.9921 0.41015,0.9922 0.41016,0.9922 0.41015,0.9922 0.40821,0.9922 -2.98047,2.334 -3.76953,3.1172 -4.19336,3.5742 -4.24805,3.7031 -3.94141,3.5 -3.26562,2.9727 -2.22852,2.1132 -0.82421,0.9278 0.37109,0.1035 1.06641,0.096 1.68359,0.088 2.23047,0.076 2.69726,0.062 3.09375,0.047 3.41407,0.029 3.6582,0.012 2.5332,-0.043 2.5332,-0.043 2.53126,-0.043 2.5332,-0.043 2.5332,-0.043 2.53125,-0.043 2.5332,-0.043 2.53321,-0.043 4.85547,9.1113 5.27929,10.0879 5.78125,11.1231 6.35547,12.2129 7.00586,13.3652 7.73242,14.5742 8.53321,15.8418 9.41015,17.168 11.76563,21.4297 11.49219,21.205 11.0625,20.6094 10.46679,19.6465 9.7168,18.3184 8.80078,16.6211 7.730469,14.5566 6.49414,12.125 -0.07227,0.082 -0.07227,0.082 -0.07227,0.082 -0.07227,0.082 -0.07422,0.082 -0.07227,0.082 -0.07227,0.082 -0.07227,0.082 -1.08789,1.0743 -1.085938,1.0722 -1.087891,1.0742 -1.08789,1.0743 -1.087891,1.0722 -1.085937,1.0743 -1.087891,1.0722 -1.087891,1.0742 -5.685546,5.959 -4.941407,5.9258 -4.216799,5.9297 -3.50781,5.9687 -2.82031,6.043 -2.14844,6.1543 -1.5,6.2969 -0.86523,6.4785 -0.16016,3.2168 0.0312,3.4297 0.21289,3.5488 0.38281,3.584 0.53907,3.5273 0.68554,3.3848 0.82227,3.1523 0.94336,2.8301 0.375,0.8535 0.45117,0.6621 0.60937,0.4981 0.84766,0.3535 1.16211,0.2344 1.55859,0.1406 2.03321,0.064 2.58984,0.017 5.720703,-0.2539 5.5625,-0.7636 5.417969,-1.2793 5.287109,-1.8008 5.167969,-2.3242 5.060547,-2.8555 4.966797,-3.3906 4.884765,-3.9317 0.59375,-0.5136 0.591797,-0.5137 0.59375,-0.5156 0.591797,-0.5137 0.59375,-0.5137 0.591797,-0.5137 0.59375,-0.5156 0.591797,-0.5137 -0.494141,-1.1699 -0.49414,-1.1699 -0.496094,-1.1699 -0.494141,-1.168 -0.49414,-1.1699 -0.494141,-1.1699 -0.496094,-1.1699 -0.49414,-1.17 -1.210938,-2.9101 -0.912109,-2.3496 -0.632813,-1.9297 -0.380859,-1.6426 -0.150391,-1.4961 0.05664,-1.4863 0.242187,-1.6153 0.402344,-1.8789 0.171875,-0.7441 0.171875,-0.7441 0.171875,-0.7442 0.171875,-0.7441 0.171875,-0.7442 0.171875,-0.7441 0.171875,-0.7442 0.171875,-0.7441 0.08594,-0.1055 0.232422,-0.2871 0.33789,-0.4121 0.398438,-0.4922 0.421875,-0.5175 0.40039,-0.4922 0.337891,-0.416 0.236328,-0.2911 0.412109,0.8028 0.378907,0.7343 0.339843,0.6602 0.296875,0.5703 0.248047,0.4688 0.191407,0.3613 0.132812,0.2363 0.06445,0.1035 0.177735,0.1231 0.353515,0.1836 0.509766,0.2344 0.646484,0.2792 0.759766,0.3126 0.851562,0.3398 0.921875,0.3555 0.972656,0.3613 3.496094,1.0078 3.158203,0.332 2.828125,-0.3437 2.498047,-1.0235 2.175781,-1.705 1.857422,-2.3887 1.542969,-3.0762 1.232422,-3.7656 0.574219,-2.2227 0.390625,-1.707 0.183593,-1.3047 -0.04102,-1.0136 -0.287109,-0.8399 -0.552735,-0.7754 -0.839844,-0.8281 -1.146484,-0.9922 -0.974609,-0.832 -0.955078,-0.8203 -0.933594,-0.8067 -0.917969,-0.7969 -0.900391,-0.7851 -0.886718,-0.7774 -0.873047,-0.7675 -0.859375,-0.7618 0.892578,-1.082 0.818359,-0.9863 0.728516,-0.875 0.628906,-0.75 0.517578,-0.6074 0.390625,-0.4551 0.25586,-0.2813 0.107422,-0.098 0.376953,-0.1738 0.878906,-0.5059 1.322265,-0.8027 1.710938,-1.0625 2.041016,-1.2891 2.314453,-1.4766 2.53125,-1.6289 2.691406,-1.748 7.232422,-4.6016 7.4531249,-4.5117 7.7402343,-4.4551 8.0957028,-4.4375 8.519532,-4.4551 9.013671,-4.5117 9.572266,-4.6015 10.201172,-4.7286 18.349609,-8.3769 13.884766,-6.418 10.226563,-4.9062 7.376953,-3.8438 5.333979,-3.2343 4.09961,-3.0723 3.67188,-3.3594 4.05469,-4.0976 4.99804,-5.3008 4.72071,-5.3985 4.4414,-5.4922 4.16602,-5.5878 3.88672,-5.6836 3.61133,-5.7793 3.33398,-5.8789 3.05664,-5.9746 2.55078,-5.4493 2.12696,-4.9941 1.74218,-4.6797 1.40039,-4.5137 1.09961,-4.4922 0.83399,-4.6113 0.61328,-4.8808 0.42969,-5.2911 0.17968,-5.1132 -0.13476,-4.8828 -0.45899,-4.7032 -0.79492,-4.5781 -1.14453,-4.5039 -1.50195,-4.4844 -1.8711,-4.5156 -2.2539,-4.5977 -2.36524,-4 -2.99023,-4.2441 -3.49805,-4.3672 -3.89258,-4.3672 -4.17383,-4.2441 -4.33789,-3.9981 -4.38671,-3.6328 -4.32422,-3.1426 -0.95508,-0.6425 -0.95703,-0.6407 -0.95508,-0.6425 -0.95703,-0.6426 -0.95508,-0.6406 -0.95703,-0.6426 -0.95508,-0.6406 -0.95703,-0.6426 0.28516,-1.9336 0.28515,-1.9317 0.28516,-1.9336 0.28515,-1.9335 0.28516,-1.9336 0.28516,-1.9336 0.28515,-1.9317 0.28516,-1.9336 0.45898,-3.1504 0.42969,-3.0273 0.38867,-2.8301 0.3418,-2.5586 0.28516,-2.2168 0.21484,-1.8047 0.14063,-1.3144 0.0527,-0.7578 0,-0.6797 0,-0.6797 0,-0.6797 0,-0.6797 0,-0.6777 0,-0.6797 0,-0.6797 0,-0.6797 5.40039,0.014 5.40234,0.012 5.40039,0.014 5.40039,0.012 5.4004,0.014 5.40039,0.012 5.40234,0.014 5.40039,0.014 -1.4668,1.7247 -1.46875,1.7265 -1.46679,1.7266 -1.4668,1.7265 -1.4668,1.7247 -1.46679,1.7265 -1.46875,1.7266 -1.4668,1.7265 -2.42383,2.8457 -2.39062,2.7989 -2.29493,2.6777 -2.13867,2.4863 -1.91992,2.2227 -1.63867,1.8887 -1.29688,1.4824 -0.89453,1.0058 -0.94531,1.0586 -0.69141,0.8164 -0.44336,0.5957 -0.19726,0.3965 0.0391,0.2168 0.27149,0.062 0.49804,-0.074 0.72071,-0.1855 0.74804,-0.211 1.16797,-0.3242 1.5293,-0.4219 1.83008,-0.5058 2.07422,-0.5684 2.25781,-0.6191 2.38086,-0.6524 2.44726,-0.6679 11.89453,-3.4219 12.13086,-3.8301 12.24024,-4.1875 12.22461,-4.498 12.08007,-4.7598 11.8125,-4.9746 11.41797,-5.1406 10.89453,-5.2579 1.87305,-0.9375 1.87305,-0.9394 1.875,-0.9375 1.87305,-0.9375 1.87304,-0.9375 1.875,-0.9375 1.87305,-0.9375 1.87305,-0.9375 -0.93164,-0.541 -0.93165,-0.541 -0.93359,-0.5411 -0.93164,-0.541 -0.93164,-0.541 -0.93164,-0.541 -0.93359,-0.5391 -0.93164,-0.541 -8.83985,-4.8984 -9.5918,-4.8926 -10.17187,-4.8144 -10.57813,-4.6622 -10.8164,-4.4355 -10.87891,-4.1387 -10.77344,-3.7695 -10.49414,-3.3223 -5,-1.4531 -5.43359,-1.5098 -5.57031,-1.4921 -5.41406,-1.4004 -4.9629,-1.2364 -4.21484,-0.9941 -3.17383,-0.6797 -1.83593,-0.293 -0.0684,0 -0.0586,0 -0.0527,0 -0.0469,0 -0.0371,0 -0.0293,0.01 -0.0234,0.01 -0.0137,0.01 0.22851,0.3535 0.72852,0.9219 1.17773,1.4317 1.57032,1.8769 1.91406,2.2578 2.20312,2.5782 2.43946,2.8359 2.62304,3.0312 2.65235,3.0704 2.52539,2.9511 2.33789,2.7617 2.09179,2.5 1.78907,2.168 1.42383,1.7656 1.00195,1.293 0.52148,0.7481 0.0371,0.4746 -0.72461,0.3984 -1.85156,0.332 -3.3457,0.2715 -5.20508,0.2168 -7.43359,0.168 -10.0254,0.125 -12.98437,0.088 0,-0.7285 0,-0.7305 0,-0.7305 0,-0.7304 0,-0.7286 0,-0.7304 0,-0.7305 0,-0.7305 -0.0527,-0.7558 -0.14063,-1.3164 -0.21484,-1.8028 -0.28516,-2.2187 -0.3418,-2.5586 -0.38867,-2.8301 -0.42969,-3.0254 -0.45898,-3.1523 -0.28516,-1.9317 -0.28515,-1.9336 -0.28516,-1.9336 -0.28516,-1.9336 -0.28515,-1.9316 -0.28516,-1.9336 -0.28515,-1.9336 -0.28516,-1.93357 0.95703,-0.64063 0.95508,-0.64258 0.95703,-0.64257 0.95508,-0.64063 0.95703,-0.64258 0.95508,-0.64062 0.95703,-0.64258 0.95508,-0.64258 4.32422,-3.14258 4.38671,-3.63086 4.33789,-4 4.17383,-4.24414 3.89258,-4.36718 3.49805,-4.36719 2.99023,-4.24414 2.36524,-4 2.2539,-4.59766 1.8711,-4.51562 1.50195,-4.48242 1.14453,-4.50586 0.79492,-4.57813 0.46094,-4.70312 0.13281,-4.88282 -0.17968,-5.11328 -0.42969,-5.29101 -0.61328,-4.87891 -0.83399,-4.61328 -1.09765,-4.49219 -1.40235,-4.51172 -1.74218,-4.68164 -2.12696,-4.99219 -2.55078,-5.45117 -3.05664,-5.97461 -3.33398,-5.87695 -3.61133,-5.78125 -3.88672,-5.68359 -4.16602,-5.58789 -4.4414,-5.49219 -4.72071,-5.39649 -4.99804,-5.30273 -4.05469,-4.09766 -3.67188,-3.35937 -4.09961,-3.07227 -5.335932,-3.23242 -7.375,-3.8457 -10.226563,-4.90625 -13.884766,-6.41602 -18.349609,-8.3789 -10.220703,-4.73828 -9.583985,-4.60743 -9.019531,-4.51367 -8.527343,-4.46094 -8.1093755,-4.44726 -7.7597656,-4.4707 -7.4843749,-4.53321 -7.283203,-4.63476 -1.6875,-1.09961 -1.6875,-1.10157 -1.689453,-1.09961 -1.6875,-1.10156 -1.6875,-1.09961 -1.6875,-1.10156 -1.689454,-1.09961 -1.6875,-1.10156 -0.535156,-0.64258 -0.537109,-0.64062 -0.535156,-0.64258 -0.535157,-0.64258 -0.537109,-0.64258 -0.535156,-0.64258 -0.53711,-0.64258 -0.535156,-0.64257 0.832031,-0.73438 0.84375,-0.74219 0.855469,-0.75 0.869141,-0.75781 0.884765,-0.76758 0.900391,-0.77929 0.919922,-0.78907 0.939453,-0.80273 1.146484,-0.99219 0.839844,-0.82617 0.552735,-0.77734 0.287109,-0.83789 0.04102,-1.01563 -0.183593,-1.30273 -0.390625,-1.70703 -0.574219,-2.22461 -0.902344,-2.98438 -1.027343,-2.52539 -1.171876,-2.08008 -1.333984,-1.6582 -1.519531,-1.25586 -1.71875,-0.87305 -1.943359,-0.50781 -2.181641,-0.16602 -2.339844,0.043 -2.044922,0.16797 -1.808593,0.36133 -1.636719,0.61719 -1.529297,0.93945 -1.484375,1.32617 -1.5,1.77735 -1.580078,2.29492 -0.347657,-0.41602 -0.345703,-0.41406 -0.347656,-0.41601 -0.345703,-0.41602 -0.347656,-0.41602 -0.347656,-0.41601 -0.345704,-0.41602 -0.347656,-0.41601 -0.171875,-0.74414 -0.171875,-0.74414 -0.171875,-0.74414 -0.171875,-0.74415 -0.171875,-0.74414 -0.171875,-0.74414 -0.171875,-0.74414 -0.171875,-0.74414 -0.402344,-1.8789 -0.242187,-1.61329 -0.05664,-1.48828 0.150391,-1.49609 0.380859,-1.64258 0.632813,-1.92773 0.912109,-2.35157 1.210938,-2.91015 0.49414,-1.16992 0.496094,-1.16797 0.494141,-1.16992 0.49414,-1.16993 0.494141,-1.16992 0.496094,-1.16992 0.49414,-1.16992 0.494141,-1.16992 -0.591797,-0.51368 -0.59375,-0.51367 -0.591797,-0.51367 -0.59375,-0.51562 -0.591797,-0.51368 -0.59375,-0.51367 -0.591797,-0.51367 -0.59375,-0.51562 -4.708984,-3.79493 -4.794922,-3.30078 -4.875,-2.80273 -4.955078,-2.30274 -5.027344,-1.80273 -5.097656,-1.30078 -5.164063,-0.79688 -5.226562,-0.30078 -0.349609,-0.002 z m 37.625,104.81445 0.44336,0.45313 0.476562,0.48632 0.476562,0.48633 1.289063,0.85938 1.289063,0.85937 1.291015,0.85938 1.289063,0.85937 1.289062,0.85938 1.289063,0.85937 1.291015,0.85938 1.289063,0.85937 2.726562,1.77149 3.804688,2.41015 4.71289,2.93946 5.445313,3.36328 6.003906,3.67969 6.390625,3.88867 6.601563,3.99414 6.6406246,3.98828 16.4726564,9.96289 13.982422,8.69922 11.822265,7.67578 9.996094,6.88867 8.5,6.33985 7.339844,6.02734 6.509766,5.95312 6.011718,6.11914 5.445313,6.13477 4.621093,5.90234 3.830079,5.73829 3.068359,5.63476 2.339844,5.59766 1.640625,5.62304 0.970703,5.71289 0.335937,5.86915 -0.30664,6.19531 -1.00586,5.94336 -1.753906,5.7832 -2.550781,5.7168 -3.392578,5.74218 -4.285156,5.85547 -5.222657,6.06446 -6.207031,6.36132 -1.328125,1.29493 -1.328125,1.29297 -1.328125,1.29296 -1.330078,1.29493 -1.328125,1.29296 -1.328125,1.29493 -1.328125,1.29296 -1.328125,1.29493 0.572265,3.17773 0.574219,3.17774 0.572266,3.17773 0.572265,3.17969 0.574219,3.17773 0.572266,3.17774 0.574219,3.17769 0.572265,3.1778 0.933594,5.1523 0.898437,4.8926 0.837891,4.5195 0.757813,4.0352 0.65625,3.4375 0.535156,2.7226 0.388672,1.8985 0.222656,0.9609 0,0.7402 0,0.7422 0,0.7403 0,0.7422 0,0.7421 0,0.7403 0,0.7422 0,0.7402 -5.679688,0.01 -5.625,0.01 -5.679687,0.01 -5.851563,0.01 -6.138671,0 -6.541016,0 -7.054687,0 -7.683594,0 -17.3359378,0 -17.3339842,0 -17.335938,0 -17.335937,0 -17.333985,0 -17.335937,0 -17.333985,0 -17.33594,0 -1.58593,-1.8828 -1.58399,-1.8828 -1.58594,-1.8828 -1.58593,-1.8828 -1.58399,-1.8828 -1.58594,-1.8829 -1.58398,-1.8828 -1.58594,-1.8828 -1.58594,-1.8828 -1.58593,-1.8828 -1.58399,-1.8828 -1.58593,-1.8828 -1.58594,-1.8828 -1.58399,-1.8829 -1.58593,-1.8828 -1.58594,-1.8828 -5.55469,-0.031 -5.55273,-0.031 -5.55469,-0.033 -5.55469,-0.031 -5.55273,-0.031 -5.55469,-0.031 -5.55273,-0.033 -5.55469,-0.031 8.00976,-14.20507 8.00977,-14.20507 8.00976,-14.20313 8.01172,-14.20508 8.00977,-14.20507 8.00977,-14.20313 8.00976,-14.20508 8.00977,-14.20508 10.54492,-18.70703 10.04101,-17.81836 9.414066,-16.6875 8.666016,-15.32422 7.792969,-13.71875 6.796875,-11.8789 5.679687,-9.79883 z m -58.249998,281.58397 17.4043,0.039 17.406245,0.041 17.404297,0.039 17.404297,0.041 17.404297,0.039 17.404296,0.041 17.4062505,0.039 17.4042965,0.041 6.300782,0.014 6.298828,0.014 6.300781,0.014 6.300781,0.016 6.298828,0.014 6.300782,0.014 6.298828,0.014 6.300781,0.014 0,0.6933 0,0.6914 0,0.6934 0,0.6914 0,0.6933 0,0.6915 0,0.6933 0,0.6914 -0.222656,0.961 -0.388672,1.8984 -0.535156,2.7246 -0.65625,3.4356 -0.757813,4.0351 -0.837891,4.5195 -0.898437,4.8926 -0.933594,5.1524 -0.572265,3.1777 -0.574219,3.1777 -0.572266,3.1797 -0.574219,3.1777 -0.572265,3.1778 -0.572266,3.1777 -0.574219,3.1778 -0.572265,3.1777 1.328125,1.2949 1.328125,1.293 1.328125,1.2949 1.330078,1.293 1.328125,1.2949 1.328125,1.293 1.328125,1.2949 1.328125,1.293 6.207031,6.3632 5.222657,6.0625 4.283203,5.8575 3.394531,5.7402 2.550781,5.7168 1.753906,5.7851 1.00586,5.9434 0.30664,6.1934 -0.335937,5.8691 -0.970703,5.7129 -1.640625,5.623 -2.339844,5.5977 -3.068359,5.6348 -3.830079,5.7382 -4.621093,5.9043 -5.445313,6.1329 -6.011718,6.1191 -6.509766,5.9531 -7.339844,6.0274 -8.5,6.3398 -9.996094,6.8887 -11.822265,7.6758 -13.982422,8.6992 -16.4726564,9.9629 -6.6406246,3.9902 -6.601563,3.9922 -6.390625,3.8906 -6.005859,3.6797 -5.445313,3.3633 -4.71289,2.9414 -3.806641,2.4101 -2.726563,1.7715 -1.291015,0.8594 -1.289063,0.8594 -1.291015,0.8613 -1.289063,0.8594 -1.291015,0.8594 -1.289063,0.8593 -1.291016,0.8594 -1.289062,0.8594 -8.900391,-15.1582 -9.308593,-16.6641 -9.613282,-17.7754 -9.814453,-18.498 -9.910151,-18.8262 -9.90235,-18.7656 -9.79297,-18.3106 -9.57617,-17.4629 -7.79297,-14.1796 -7.14844,-13.0821 -6.56445,-12.0644 -6.03711,-11.127 -5.57226,-10.2734 -5.16407,-9.4981 -4.81836,-8.8047 -4.52734,-8.1894 2.15039,-0.039 2.15234,-0.039 2.1504,-0.039 2.15234,-0.039 2.15039,-0.039 2.15234,-0.039 2.15039,-0.039 2.15235,-0.039 2.79101,0.043 2.79297,0.043 2.79102,0.043 2.79101,0.043 2.79102,0.043 2.79102,0.043 2.79296,0.043 2.79102,0.043 1.57812,-1.5722 1.58008,-1.5742 1.57813,-1.5723 1.58008,-1.5742 1.57812,-1.5742 1.57813,-1.5723 1.58007,-1.5742 1.57813,-1.5723 1.57812,-1.5742 1.58008,-1.5742 1.57813,-1.5723 1.58007,-1.5742 1.57813,-1.5723 1.57813,-1.5742 1.58007,-1.5723 z"
       id="path3552"
       inkscape:connector-curvature="0"
       sodipodi:nodetypes="cccccccccccccccccccccccccccccccccccccccccccccccccccccccccccccccccccccccccccccccccccccccccccccccccccccccccccccccccccccccccccccccccccccccccccccccccccccccccccccccccccccccccccccccccccccccccccccccccccccccccccccccccccccccccccccccccccccccccccccccccccccccccccccccccccccccccccccccccccccccccccccccccccccccccccccccccccccccccccccccccccccccccccccccccccccccccccccccccccccccccccccccccccccccccccccccccccccccccccccccccccccccccccccccccccccccccccccccccccccccccccccccccccccccccccccccccccccccccccccccccccccccccccccccccccccccccccccccccccccccccccccccccccccccccccccccccccccccccccccccccccccccccccccccccccccccccccccccccccccccccccccccccccccccccccccccccccccccccccccccccccccccccccccccccccccccccccccccccccccccccccccccccccccccccccccccccccccccccccccccccccccccccccccccccccccccccccccccccccccccccccccccccccccccccccccccccccccccccccccccccccccccccccccccccccccccccccccccccccccccccccccccccccccccccccccccccccccccccccccccccccccccccccccccccccccccccccccccccccccccccccccccccccccccccccccccccccccc" />
  </g>
</svg>
