  0
SECTION
  2
HEADER
  9
$ACADVER
  1
AC1014
  9
$HANDSEED
  5
FFFF
  9
$MEASUREMENT
 70
     1
  0
ENDSEC
  0
SECTION
  2
TABLES
  0
TABLE
  2
VPORT
  5
8
330
0
100
AcDbSymbolTable
 70
     4
  0
VPORT
  5
2E
330
8
100
AcDbSymbolTableRecord
100
AcDbViewportTableRecord
  2
*ACTIVE
 70
     0
 10
0.0
 20
0.0
 11
1.0
 21
1.0
 12
210.0
 22
148.5
 13
0.0
 23
0.0
 14
10.0
 24
10.0
 15
10.0
 25
10.0
 16
0.0
 26
0.0
 36
1.0
 17
0.0
 27
0.0
 37
0.0
 40
341.0
 41
1.24
 42
50.0
 43
0.0
 44
0.0
 50
0.0
 51
0.0
 71
     0
 72
   100
 73
     1
 74
     3
 75
     0
 76
     0
 77
     0
 78
     0
  0
ENDTAB
  0
TABLE
  2
LTYPE
  5
5
330
0
100
AcDbSymbolTable
 70
     1
  0
LTYPE
  5
14
330
5
100
AcDbSymbolTableRecord
100
AcDbLinetypeTableRecord
  2
BYBLOCK
 70
     0
  3

 72
    65
 73
     0
 40
0.0
  0
LTYPE
  5
15
330
5
100
AcDbSymbolTableRecord
100
AcDbLinetypeTableRecord
  2
BYLAYER
 70
     0
  3

 72
    65
 73
     0
 40
0.0
  0
LTYPE
  5
16
330
5
100
AcDbSymbolTableRecord
100
AcDbLinetypeTableRecord
  2
CONTINUOUS
 70
     0
  3
Solid line
 72
    65
 73
     0
 40
0.0
  0
ENDTAB
  0
TABLE
  2
LAYER
  5
2
100
AcDbSymbolTable
 70
2
  0
LAYER
  5
50
100
AcDbSymbolTableRecord
100
AcDbLayerTableRecord
  2
0
 70
0
  6
CONTINUOUS
  0
LAYER
  5
51
100
AcDbSymbolTableRecord
100
AcDbLayerTableRecord
  2
Layer_1
 70
0
  6
CONTINUOUS
  0
ENDTAB
  0
TABLE
  2
STYLE
  5
3
330
0
100
AcDbSymbolTable
 70
     1
  0
STYLE
  5
11
330
3
100
AcDbSymbolTableRecord
100
AcDbTextStyleTableRecord
  2
STANDARD
 70
     0
 40
0.0
 41
1.0
 50
0.0
 71
     0
 42
2.5
  3
txt
  4

  0
ENDTAB
  0
TABLE
  2
VIEW
  5
6
330
0
100
AcDbSymbolTable
 70
     0
  0
ENDTAB
  0
TABLE
  2
UCS
  5
7
330
0
100
AcDbSymbolTable
 70
     0
  0
ENDTAB
  0
TABLE
  2
APPID
  5
9
330
0
100
AcDbSymbolTable
 70
     2
  0
APPID
  5
12
330
9
100
AcDbSymbolTableRecord
100
AcDbRegAppTableRecord
  2
ACAD
 70
     0
  0
ENDTAB
  0
TABLE
  2
DIMSTYLE
  5
A
330
0
100
AcDbSymbolTable
 70
     1
  0
DIMSTYLE
105
27
330
A
100
AcDbSymbolTableRecord
100
AcDbDimStyleTableRecord
  2
ISO-25
 70
     0
  3

  4

  5

  6

  7

 40
1.0
 41
2.5
 42
0.625
 43
3.75
 44
1.25
 45
0.0
 46
0.0
 47
0.0
 48
0.0
140
2.5
141
2.5
142
0.0
143
0.03937007874016
144
1.0
145
0.0
146
1.0
147
0.625
 71
     0
 72
     0
 73
     0
 74
     0
 75
     0
 76
     0
 77
     1
 78
     8
170
     0
171
     3
172
     1
173
     0
174
     0
175
     0
176
     0
177
     0
178
     0
270
     2
271
     2
272
     2
273
     2
274
     3
340
11
275
     0
280
     0
281
     0
282
     0
283
     0
284
     8
285
     0
286
     0
287
     3
288
     0
  0
ENDTAB
  0
TABLE
  2
BLOCK_RECORD
  5
1
330
0
100
AcDbSymbolTable
 70
     1
  0
BLOCK_RECORD
  5
1F
330
1
100
AcDbSymbolTableRecord
100
AcDbBlockTableRecord
  2
*MODEL_SPACE
  0
BLOCK_RECORD
  5
1B
330
1
100
AcDbSymbolTableRecord
100
AcDbBlockTableRecord
  2
*PAPER_SPACE
  0
ENDTAB
  0
ENDSEC
  0
SECTION
  2
BLOCKS
  0
BLOCK
  5
20
330
1F
100
AcDbEntity
  8
0
100
AcDbBlockBegin
  2
*MODEL_SPACE
 70
     0
 10
0.0
 20
0.0
 30
0.0
  3
*MODEL_SPACE
  1

  0
ENDBLK
  5
21
330
1F
100
AcDbEntity
  8
0
100
AcDbBlockEnd
  0
BLOCK
  5
1C
330
1B
100
AcDbEntity
 67
     1
  8
0
100
AcDbBlockBegin
  2
*PAPER_SPACE
  1

  0
ENDBLK
  5
1D
330
1B
100
AcDbEntity
 67
     1
  8
0
100
AcDbBlockEnd
  0
ENDSEC
  0
SECTION
  2
ENTITIES
  0
LWPOLYLINE
  5
100
100
AcDbEntity
  8
Layer_1
 62
7
100
AcDbPolyline
 90
681
 70
1
 10
-27.494067
 20
105.736566
 30
0.0
 10
-27.593285
 20
105.735437
 30
0.0
 10
-27.691953
 20
105.734309
 30
0.0
 10
-27.791172
 20
105.732051
 30
0.0
 10
-27.890391
 20
105.729229
 30
0.0
 10
-27.990160
 20
105.725927
 30
0.0
 10
-28.089379
 20
105.721524
 30
0.0
 10
-28.390342
 20
105.708852
 30
0.0
 10
-28.690756
 20
105.695616
 30
0.0
 10
-28.991718
 20
105.682380
 30
0.0
 10
-29.292683
 20
105.669143
 30
0.0
 10
-29.593647
 20
105.655907
 30
0.0
 10
-29.894059
 20
105.642671
 30
0.0
 10
-30.195020
 20
105.629435
 30
0.0
 10
-30.495985
 20
105.616763
 30
0.0
 10
-30.576464
 20
105.306429
 30
0.0
 10
-30.656939
 20
104.996647
 30
0.0
 10
-30.737418
 20
104.686863
 30
0.0
 10
-30.817896
 20
104.377082
 30
0.0
 10
-30.898372
 20
104.066748
 30
0.0
 10
-30.978850
 20
103.756964
 30
0.0
 10
-31.059326
 20
103.447180
 30
0.0
 10
-31.139805
 20
103.137398
 30
0.0
 10
-31.300759
 20
102.471529
 30
0.0
 10
-31.429743
 20
101.831567
 30
0.0
 10
-31.528410
 20
101.204286
 30
0.0
 10
-31.597312
 20
100.577553
 30
0.0
 10
-31.638105
 20
99.938695
 30
0.0
 10
-31.651341
 20
99.275032
 30
0.0
 10
-31.638105
 20
98.573888
 30
0.0
 10
-31.600069
 20
97.823131
 30
0.0
 10
-31.399980
 20
95.944590
 30
0.0
 10
-31.040586
 20
94.170778
 30
0.0
 10
-30.507009
 20
92.472486
 30
0.0
 10
-29.784918
 20
90.821043
 30
0.0
 10
-28.859426
 20
89.186691
 30
0.0
 10
-27.716207
 20
87.540210
 30
0.0
 10
-26.340373
 20
85.853491
 30
0.0
 10
-24.717044
 20
84.096218
 30
0.0
 10
-24.179058
 20
83.544451
 30
0.0
 10
-23.674145
 20
83.030166
 30
0.0
 10
-23.212778
 20
82.563839
 30
0.0
 10
-22.806532
 20
82.157041
 30
0.0
 10
-22.466984
 20
81.820801
 30
0.0
 10
-22.205708
 20
81.567241
 30
0.0
 10
-22.033177
 20
81.406287
 30
0.0
 10
-21.960968
 20
81.350613
 30
0.0
 10
-21.884900
 20
81.262419
 30
0.0
 10
-21.808833
 20
81.174775
 30
0.0
 10
-21.732765
 20
81.086580
 30
0.0
 10
-21.656697
 20
80.998939
 30
0.0
 10
-21.580629
 20
80.910745
 30
0.0
 10
-21.504562
 20
80.822550
 30
0.0
 10
-21.428494
 20
80.734906
 30
0.0
 10
-21.352426
 20
80.646712
 30
0.0
 10
-23.018750
 20
77.692198
 30
0.0
 10
-24.976115
 20
74.302223
 30
0.0
 10
-27.183732
 20
70.528054
 30
0.0
 10
-29.600260
 20
66.423152
 30
0.0
 10
-32.183256
 20
62.039888
 30
0.0
 10
-34.891376
 20
57.430076
 30
0.0
 10
-37.683832
 20
52.646079
 30
0.0
 10
-40.518732
 20
47.740264
 30
0.0
 10
-44.212425
 20
41.272854
 30
0.0
 10
-47.720360
 20
35.073335
 30
0.0
 10
-50.958750
 20
29.304868
 30
0.0
 10
-53.843812
 20
24.128957
 30
0.0
 10
-56.291757
 20
19.709862
 30
0.0
 10
-58.219357
 20
16.209096
 30
0.0
 10
-59.543377
 20
13.789811
 30
0.0
 10
-60.180031
 20
12.614609
 30
0.0
 10
-62.983511
 20
12.601909
 30
0.0
 10
-65.207665
 20
12.579896
 30
0.0
 10
-66.911471
 20
12.547920
 30
0.0
 10
-68.154463
 20
12.504373
 30
0.0
 10
-68.996168
 20
12.447054
 30
0.0
 10
-69.496119
 20
12.375398
 30
0.0
 10
-69.713850
 20
12.287740
 30
0.0
 10
-69.708883
 20
12.182471
 30
0.0
 10
-69.554542
 20
12.028123
 30
0.0
 10
-69.257988
 20
11.758573
 30
0.0
 10
-68.835758
 20
11.388721
 30
0.0
 10
-68.306041
 20
10.932875
 30
0.0
 10
-67.685923
 20
10.406446
 30
0.0
 10
-66.993045
 20
9.824363
 30
0.0
 10
-66.244495
 20
9.200934
 30
0.0
 10
-65.457911
 20
8.551625
 30
0.0
 10
-65.186712
 20
8.259469
 30
0.0
 10
-64.916067
 20
7.967877
 30
0.0
 10
-64.644868
 20
7.676285
 30
0.0
 10
-64.374223
 20
7.384693
 30
0.0
 10
-64.103024
 20
7.093101
 30
0.0
 10
-63.832376
 20
6.801509
 30
0.0
 10
-63.561180
 20
6.509917
 30
0.0
 10
-63.290532
 20
6.218325
 30
0.0
 10
-63.370460
 20
6.013262
 30
0.0
 10
-63.449835
 20
5.808228
 30
0.0
 10
-63.529760
 20
5.603165
 30
0.0
 10
-63.609686
 20
5.398102
 30
0.0
 10
-63.689061
 20
5.193068
 30
0.0
 10
-63.768986
 20
4.988005
 30
0.0
 10
-63.848914
 20
4.782943
 30
0.0
 10
-63.928289
 20
4.577908
 30
0.0
 10
-63.965221
 20
4.209128
 30
0.0
 10
-64.002703
 20
3.840913
 30
0.0
 10
-64.039634
 20
3.472726
 30
0.0
 10
-64.076566
 20
3.104511
 30
0.0
 10
-64.113497
 20
2.736295
 30
0.0
 10
-64.150979
 20
2.367516
 30
0.0
 10
-64.187911
 20
1.999328
 30
0.0
 10
-64.224843
 20
1.631113
 30
0.0
 10
-64.164210
 20
1.209417
 30
0.0
 10
-64.103024
 20
0.788285
 30
0.0
 10
-64.042392
 20
0.367181
 30
0.0
 10
-63.981206
 20
-0.054516
 30
0.0
 10
-63.920570
 20
-0.475648
 30
0.0
 10
-63.859387
 20
-0.896780
 30
0.0
 10
-63.798752
 20
-1.318448
 30
0.0
 10
-63.737569
 20
-1.739580
 30
0.0
 10
-63.622363
 20
-2.019601
 30
0.0
 10
-63.506610
 20
-2.299622
 30
0.0
 10
-63.390853
 20
-2.579642
 30
0.0
 10
-63.275097
 20
-2.859635
 30
0.0
 10
-63.159344
 20
-3.139656
 30
0.0
 10
-63.043587
 20
-3.419677
 30
0.0
 10
-62.927834
 20
-3.699698
 30
0.0
 10
-62.812628
 20
-3.979719
 30
0.0
 10
-63.653783
 20
-4.638425
 30
0.0
 10
-64.717628
 20
-5.518168
 30
0.0
 10
-65.901087
 20
-6.526887
 30
0.0
 10
-67.099982
 20
-7.571984
 30
0.0
 10
-68.212335
 20
-8.559762
 30
0.0
 10
-69.133966
 20
-9.398724
 30
0.0
 10
-69.762903
 20
-9.995116
 30
0.0
 10
-69.995514
 20
-10.256962
 30
0.0
 10
-69.890784
 20
-10.286172
 30
0.0
 10
-69.589819
 20
-10.313265
 30
0.0
 10
-69.114673
 20
-10.338101
 30
0.0
 10
-68.485185
 20
-10.359550
 30
0.0
 10
-67.723958
 20
-10.377047
 30
0.0
 10
-66.850833
 20
-10.390312
 30
0.0
 10
-65.887306
 20
-10.398496
 30
0.0
 10
-64.854881
 20
-10.401883
 30
0.0
 10
-64.139956
 20
-10.389747
 30
0.0
 10
-63.425030
 20
-10.377612
 30
0.0
 10
-62.710653
 20
-10.365476
 30
0.0
 10
-61.995727
 20
-10.353341
 30
0.0
 10
-61.280802
 20
-10.341205
 30
0.0
 10
-60.566427
 20
-10.329070
 30
0.0
 10
-59.851502
 20
-10.316934
 30
0.0
 10
-59.136574
 20
-10.304798
 30
0.0
 10
-57.766252
 20
-12.876210
 30
0.0
 10
-56.276319
 20
-15.723239
 30
0.0
 10
-54.644722
 20
-18.862425
 30
0.0
 10
-52.851067
 20
-22.309177
 30
0.0
 10
-50.873858
 20
-26.081134
 30
0.0
 10
-48.691597
 20
-30.194297
 30
0.0
 10
-46.283335
 20
-34.665205
 30
0.0
 10
-43.627582
 20
-39.510396
 30
0.0
 10
-40.307060
 20
-45.558333
 30
0.0
 10
-37.063708
 20
-51.542856
 30
0.0
 10
-33.941625
 20
-57.359286
 30
0.0
 10
-30.987664
 20
-62.903965
 30
0.0
 10
-28.245367
 20
-68.073825
 30
0.0
 10
-25.761592
 20
-72.764668
 30
0.0
 10
-23.579881
 20
-76.872864
 30
0.0
 10
-21.747091
 20
-80.294809
 30
0.0
 10
-21.767487
 20
-80.317951
 30
0.0
 10
-21.787883
 20
-80.341093
 30
0.0
 10
-21.808279
 20
-80.364236
 30
0.0
 10
-21.828676
 20
-80.387378
 30
0.0
 10
-21.849622
 20
-80.410520
 30
0.0
 10
-21.870018
 20
-80.433662
 30
0.0
 10
-21.890415
 20
-80.456804
 30
0.0
 10
-21.910811
 20
-80.479947
 30
0.0
 10
-22.217837
 20
-80.783138
 30
0.0
 10
-22.524313
 20
-81.085737
 30
0.0
 10
-22.831340
 20
-81.388900
 30
0.0
 10
-23.138367
 20
-81.692091
 30
0.0
 10
-23.445394
 20
-81.994690
 30
0.0
 10
-23.751870
 20
-82.297881
 30
0.0
 10
-24.058897
 20
-82.600480
 30
0.0
 10
-24.365924
 20
-82.903643
 30
0.0
 10
-25.970511
 20
-84.585405
 30
0.0
 10
-27.365086
 20
-86.257798
 30
0.0
 10
-28.555160
 20
-87.931291
 30
0.0
 10
-29.545142
 20
-89.615790
 30
0.0
 10
-30.341096
 20
-91.321259
 30
0.0
 10
-30.947434
 20
-93.058140
 30
0.0
 10
-31.370767
 20
-94.835265
 30
0.0
 10
-31.614954
 20
-96.663641
 30
0.0
 10
-31.660155
 20
-97.571494
 30
0.0
 10
-31.651350
 20
-98.539431
 30
0.0
 10
-31.591267
 20
-99.540982
 30
0.0
 10
-31.483230
 20
-100.552466
 30
0.0
 10
-31.331092
 20
-101.547948
 30
0.0
 10
-31.137618
 20
-102.503214
 30
0.0
 10
-30.905555
 20
-103.392863
 30
0.0
 10
-30.639318
 20
-104.191580
 30
0.0
 10
-30.533484
 20
-104.432457
 30
0.0
 10
-30.406154
 20
-104.619316
 30
0.0
 10
-30.234177
 20
-104.759891
 30
0.0
 10
-29.994948
 20
-104.859657
 30
0.0
 10
-29.666975
 20
-104.925810
 30
0.0
 10
-29.227106
 20
-104.965490
 30
0.0
 10
-28.653289
 20
-104.983552
 30
0.0
 10
-27.922379
 20
-104.988350
 30
0.0
 10
-26.307869
 20
-104.916694
 30
0.0
 10
-24.738008
 20
-104.701189
 30
0.0
 10
-23.208937
 20
-104.340142
 30
0.0
 10
-21.716797
 20
-103.831916
 30
0.0
 10
-20.258281
 20
-103.175976
 30
0.0
 10
-18.830083
 20
-102.370090
 30
0.0
 10
-17.428342
 20
-101.413187
 30
0.0
 10
-16.049753
 20
-100.303574
 30
0.0
 10
-15.882183
 20
-100.158625
 30
0.0
 10
-15.715165
 20
-100.013647
 30
0.0
 10
-15.547596
 20
-99.868134
 30
0.0
 10
-15.380577
 20
-99.723156
 30
0.0
 10
-15.213008
 20
-99.578178
 30
0.0
 10
-15.045990
 20
-99.433201
 30
0.0
 10
-14.878420
 20
-99.287687
 30
0.0
 10
-14.711402
 20
-99.142710
 30
0.0
 10
-14.850860
 20
-98.812538
 30
0.0
 10
-14.990317
 20
-98.482366
 30
0.0
 10
-15.130326
 20
-98.152194
 30
0.0
 10
-15.269783
 20
-97.822559
 30
0.0
 10
-15.409240
 20
-97.492387
 30
0.0
 10
-15.548698
 20
-97.162215
 30
0.0
 10
-15.688707
 20
-96.832043
 30
0.0
 10
-15.828164
 20
-96.501843
 30
0.0
 10
-16.169918
 20
-95.680548
 30
0.0
 10
-16.427335
 20
-95.017439
 30
0.0
 10
-16.605929
 20
-94.472835
 30
0.0
 10
-16.713416
 20
-94.009257
 30
0.0
 10
-16.755860
 20
-93.587024
 30
0.0
 10
-16.739875
 20
-93.167557
 30
0.0
 10
-16.671524
 20
-92.711684
 30
0.0
 10
-16.557974
 20
-92.181416
 30
0.0
 10
-16.509467
 20
-91.971415
 30
0.0
 10
-16.460960
 20
-91.761413
 30
0.0
 10
-16.412453
 20
-91.551383
 30
0.0
 10
-16.363946
 20
-91.341382
 30
0.0
 10
-16.315439
 20
-91.131352
 30
0.0
 10
-16.266932
 20
-90.921350
 30
0.0
 10
-16.218425
 20
-90.711321
 30
0.0
 10
-16.169918
 20
-90.501319
 30
0.0
 10
-16.145664
 20
-90.471545
 30
0.0
 10
-16.080069
 20
-90.390519
 30
0.0
 10
-15.984709
 20
-90.274215
 30
0.0
 10
-15.872261
 20
-90.135305
 30
0.0
 10
-15.753199
 20
-89.989255
 30
0.0
 10
-15.640200
 20
-89.850345
 30
0.0
 10
-15.544839
 20
-89.732941
 30
0.0
 10
-15.478142
 20
-89.650786
 30
0.0
 10
-15.361836
 20
-89.877354
 30
0.0
 10
-15.254900
 20
-90.084590
 30
0.0
 10
-15.158989
 20
-90.270913
 30
0.0
 10
-15.075204
 20
-90.431864
 30
0.0
 10
-15.005200
 20
-90.564170
 30
0.0
 10
-14.951180
 20
-90.666137
 30
0.0
 10
-14.913698
 20
-90.732826
 30
0.0
 10
-14.895509
 20
-90.762036
 30
0.0
 10
-14.845348
 20
-90.796778
 30
0.0
 10
-14.745578
 20
-90.848594
 30
0.0
 10
-14.601711
 20
-90.914746
 30
0.0
 10
-14.419259
 20
-90.993543
 30
0.0
 10
-14.204836
 20
-91.081766
 30
0.0
 10
-13.964506
 20
-91.177665
 30
0.0
 10
-13.704332
 20
-91.277995
 30
0.0
 10
-13.429827
 20
-91.379962
 30
0.0
 10
-12.443152
 20
-91.664385
 30
0.0
 10
-11.551837
 20
-91.758083
 30
0.0
 10
-10.753677
 20
-91.661083
 30
0.0
 10
-10.048673
 20
-91.372229
 30
0.0
 10
-9.434619
 20
-90.891040
 30
0.0
 10
-8.910413
 20
-90.216896
 30
0.0
 10
-8.474953
 20
-89.348724
 30
0.0
 10
-8.127136
 20
-88.285988
 30
0.0
 10
-7.965079
 20
-87.658692
 30
0.0
 10
-7.854836
 20
-87.176939
 30
0.0
 10
-7.803022
 20
-86.808724
 30
0.0
 10
-7.814598
 20
-86.522663
 30
0.0
 10
-7.895627
 20
-86.285625
 30
0.0
 10
-8.051621
 20
-86.066790
 30
0.0
 10
-8.288644
 20
-85.833081
 30
0.0
 10
-8.612207
 20
-85.553060
 30
0.0
 10
-8.887263
 20
-85.318252
 30
0.0
 10
-9.156808
 20
-85.086745
 30
0.0
 10
-9.420289
 20
-84.859076
 30
0.0
 10
-9.679360
 20
-84.634173
 30
0.0
 10
-9.933470
 20
-84.412600
 30
0.0
 10
-10.183722
 20
-84.193201
 30
0.0
 10
-10.430115
 20
-83.976595
 30
0.0
 10
-10.672650
 20
-83.761598
 30
0.0
 10
-10.420744
 20
-83.456234
 30
0.0
 10
-10.189785
 20
-83.177878
 30
0.0
 10
-9.984182
 20
-82.930934
 30
0.0
 10
-9.806691
 20
-82.719267
 30
0.0
 10
-9.660619
 20
-82.547845
 30
0.0
 10
-9.550375
 20
-82.419406
 30
0.0
 10
-9.478166
 20
-82.340017
 30
0.0
 10
-9.447849
 20
-82.312359
 30
0.0
 10
-9.341465
 20
-82.263309
 30
0.0
 10
-9.093418
 20
-82.120533
 30
0.0
 10
-8.720245
 20
-81.893993
 30
0.0
 10
-8.237381
 20
-81.594132
 30
0.0
 10
-7.661361
 20
-81.230319
 30
0.0
 10
-7.008170
 20
-80.813590
 30
0.0
 10
-6.293795
 20
-80.353878
 30
0.0
 10
-5.534221
 20
-79.860554
 30
0.0
 10
-3.493071
 20
-78.561880
 30
0.0
 10
-1.389633
 20
-77.288578
 30
0.0
 10
0.794833
 20
-76.031250
 30
0.0
 10
3.079620
 20
-74.778888
 30
0.0
 10
5.484021
 20
-73.521560
 30
0.0
 10
8.027880
 20
-72.248258
 30
0.0
 10
10.729386
 20
-70.949613
 30
0.0
 10
13.608383
 20
-69.615097
 30
0.0
 10
18.787051
 20
-67.250949
 30
0.0
 10
22.705640
 20
-65.439647
 30
0.0
 10
25.591804
 20
-64.055008
 30
0.0
 10
27.673744
 20
-62.970203
 30
0.0
 10
29.179111
 20
-62.057411
 30
0.0
 10
30.336112
 20
-61.190340
 30
0.0
 10
31.372398
 20
-60.242243
 30
0.0
 10
32.516722
 20
-59.085809
 30
0.0
 10
33.927280
 20
-57.589805
 30
0.0
 10
35.259569
 20
-56.066229
 30
0.0
 10
36.513031
 20
-54.516208
 30
0.0
 10
37.688774
 20
-52.939206
 30
0.0
 10
38.785693
 20
-51.335168
 30
0.0
 10
39.804891
 20
-49.704121
 30
0.0
 10
40.745814
 20
-48.044965
 30
0.0
 10
41.608466
 20
-46.358800
 30
0.0
 10
42.328352
 20
-44.820887
 30
0.0
 10
42.928628
 20
-43.411441
 30
0.0
 10
43.420310
 20
-42.090725
 30
0.0
 10
43.815531
 20
-40.816859
 30
0.0
 10
44.125865
 20
-39.549060
 30
0.0
 10
44.361236
 20
-38.247649
 30
0.0
 10
44.534317
 20
-36.870179
 30
0.0
 10
44.655585
 20
-35.376913
 30
0.0
 10
44.706295
 20
-33.933854
 30
0.0
 10
44.668262
 20
-32.555819
 30
0.0
 10
44.538725
 20
-31.228472
 30
0.0
 10
44.314381
 20
-29.936430
 30
0.0
 10
43.991369
 20
-28.665330
 30
0.0
 10
43.567486
 20
-27.399732
 30
0.0
 10
43.039420
 20
-26.125330
 30
0.0
 10
42.403319
 20
-24.827756
 30
0.0
 10
41.735796
 20
-23.698868
 30
0.0
 10
40.891886
 20
-22.501088
 30
0.0
 10
39.904659
 20
-21.268567
 30
0.0
 10
38.806086
 20
-20.036046
 30
0.0
 10
37.628139
 20
-18.838267
 30
0.0
 10
36.403890
 20
-17.709914
 30
0.0
 10
35.165863
 20
-16.684658
 30
0.0
 10
33.945472
 20
-15.797746
 30
0.0
 10
33.675927
 20
-15.616418
 30
0.0
 10
33.405832
 20
-15.435598
 30
0.0
 10
33.136287
 20
-15.254271
 30
0.0
 10
32.866192
 20
-15.072915
 30
0.0
 10
32.596647
 20
-14.892123
 30
0.0
 10
32.326552
 20
-14.710767
 30
0.0
 10
32.057007
 20
-14.529976
 30
0.0
 10
31.786912
 20
-14.348620
 30
0.0
 10
31.867391
 20
-13.802915
 30
0.0
 10
31.947866
 20
-13.257746
 30
0.0
 10
32.028345
 20
-12.712041
 30
0.0
 10
32.108820
 20
-12.166364
 30
0.0
 10
32.189299
 20
-11.620660
 30
0.0
 10
32.269777
 20
-11.074955
 30
0.0
 10
32.350253
 20
-10.529786
 30
0.0
 10
32.430732
 20
-9.984081
 30
0.0
 10
32.560266
 20
-9.094968
 30
0.0
 10
32.681534
 20
-8.240597
 30
0.0
 10
32.791225
 20
-7.441880
 30
0.0
 10
32.887689
 20
-6.719786
 30
0.0
 10
32.968167
 20
-6.094156
 30
0.0
 10
33.028800
 20
-5.584829
 30
0.0
 10
33.068489
 20
-5.213876
 30
0.0
 10
33.083362
 20
-5.000008
 30
0.0
 10
33.083362
 20
-4.808182
 30
0.0
 10
33.083362
 20
-4.616356
 30
0.0
 10
33.083362
 20
-4.424529
 30
0.0
 10
33.083362
 20
-4.232703
 30
0.0
 10
33.083362
 20
-4.041441
 30
0.0
 10
33.083362
 20
-3.849614
 30
0.0
 10
33.083362
 20
-3.657788
 30
0.0
 10
33.083362
 20
-3.465961
 30
0.0
 10
34.607472
 20
-3.469912
 30
0.0
 10
36.132132
 20
-3.473299
 30
0.0
 10
37.656243
 20
-3.477250
 30
0.0
 10
39.180353
 20
-3.480637
 30
0.0
 10
40.704465
 20
-3.484588
 30
0.0
 10
42.228576
 20
-3.487975
 30
0.0
 10
43.753236
 20
-3.491926
 30
0.0
 10
45.277346
 20
-3.495877
 30
0.0
 10
44.863382
 20
-3.982626
 30
0.0
 10
44.448869
 20
-4.469882
 30
0.0
 10
44.034908
 20
-4.957167
 30
0.0
 10
43.620944
 20
-5.444424
 30
0.0
 10
43.206981
 20
-5.931172
 30
0.0
 10
42.793020
 20
-6.418429
 30
0.0
 10
42.378506
 20
-6.905714
 30
0.0
 10
41.964543
 20
-7.392971
 30
0.0
 10
41.280484
 20
-8.196090
 30
0.0
 10
40.605798
 20
-8.986002
 30
0.0
 10
39.958118
 20
-9.741709
 30
0.0
 10
39.354537
 20
-10.443398
 30
0.0
 10
38.812693
 20
-11.070693
 30
0.0
 10
38.350224
 20
-11.603726
 30
0.0
 10
37.984216
 20
-12.022092
 30
0.0
 10
37.731760
 20
-12.305952
 30
0.0
 10
37.464972
 20
-12.604712
 30
0.0
 10
37.269841
 20
-12.835118
 30
0.0
 10
37.144715
 20
-13.003238
 30
0.0
 10
37.089044
 20
-13.115139
 30
0.0
 10
37.100078
 20
-13.176325
 30
0.0
 10
37.176699
 20
-13.193823
 30
0.0
 10
37.317257
 20
-13.172938
 30
0.0
 10
37.520657
 20
-13.120586
 30
0.0
 10
37.731771
 20
-13.061037
 30
0.0
 10
38.061398
 20
-12.969541
 30
0.0
 10
38.493000
 20
-12.850471
 30
0.0
 10
39.009490
 20
-12.707723
 30
0.0
 10
39.594881
 20
-12.547308
 30
0.0
 10
40.232085
 20
-12.372584
 30
0.0
 10
40.904016
 20
-12.188462
 30
0.0
 10
41.594688
 20
-11.999966
 30
0.0
 10
44.951588
 20
-11.034230
 30
0.0
 10
48.375186
 20
-9.953291
 30
0.0
 10
51.829654
 20
-8.771485
 30
0.0
 10
55.279711
 20
-7.502050
 30
0.0
 10
58.688975
 20
-6.158728
 30
0.0
 10
62.022725
 20
-4.754786
 30
0.0
 10
65.245130
 20
-3.303994
 30
0.0
 10
68.319808
 20
-1.820098
 30
0.0
 10
68.848425
 20
-1.555514
 30
0.0
 10
69.377041
 20
-1.290395
 30
0.0
 10
69.906208
 20
-1.025812
 30
0.0
 10
70.434824
 20
-0.761228
 30
0.0
 10
70.963438
 20
-0.496645
 30
0.0
 10
71.492604
 20
-0.232062
 30
0.0
 10
72.021221
 20
0.032522
 30
0.0
 10
72.549837
 20
0.297105
 30
0.0
 10
72.286907
 20
0.449787
 30
0.0
 10
72.023975
 20
0.602470
 30
0.0
 10
71.760495
 20
0.755180
 30
0.0
 10
71.497566
 20
0.907862
 30
0.0
 10
71.234636
 20
1.060544
 30
0.0
 10
70.971707
 20
1.213227
 30
0.0
 10
70.708227
 20
1.365373
 30
0.0
 10
70.445297
 20
1.518055
 30
0.0
 10
67.950495
 20
2.900492
 30
0.0
 10
65.243476
 20
4.281293
 30
0.0
 10
62.372748
 20
5.640023
 30
0.0
 10
59.387365
 20
6.955800
 30
0.0
 10
56.334736
 20
8.207596
 30
0.0
 10
53.264466
 20
9.375630
 30
0.0
 10
50.223962
 20
10.439466
 30
0.0
 10
47.262283
 20
11.377093
 30
0.0
 10
45.851172
 20
11.787190
 30
0.0
 10
44.317692
 20
12.213289
 30
0.0
 10
42.745626
 20
12.634393
 30
0.0
 10
41.217658
 20
13.029617
 30
0.0
 10
39.817018
 20
13.378557
 30
0.0
 10
38.627496
 20
13.659114
 30
0.0
 10
37.731771
 20
13.850940
 30
0.0
 10
37.213631
 20
13.933631
 30
0.0
 10
37.194327
 20
13.933631
 30
0.0
 10
37.177788
 20
13.933631
 30
0.0
 10
37.162915
 20
13.933631
 30
0.0
 10
37.149679
 20
13.933631
 30
0.0
 10
37.139209
 20
13.933631
 30
0.0
 10
37.130939
 20
13.930809
 30
0.0
 10
37.124335
 20
13.927987
 30
0.0
 10
37.120469
 20
13.925165
 30
0.0
 10
37.184960
 20
13.825399
 30
0.0
 10
37.390564
 20
13.565218
 30
0.0
 10
37.722946
 20
13.161161
 30
0.0
 10
38.166125
 20
12.631458
 30
0.0
 10
38.706315
 20
11.994257
 30
0.0
 10
39.328085
 20
11.266631
 30
0.0
 10
40.016554
 20
10.466277
 30
0.0
 10
40.756835
 20
9.610805
 30
0.0
 10
41.505387
 20
8.744270
 30
0.0
 10
42.218108
 20
7.911404
 30
0.0
 10
42.877912
 20
7.131991
 30
0.0
 10
43.468262
 20
6.426436
 30
0.0
 10
43.973177
 20
5.814578
 30
0.0
 10
44.375014
 20
5.316286
 30
0.0
 10
44.657786
 20
4.951373
 30
0.0
 10
44.804960
 20
4.740242
 30
0.0
 10
44.815430
 20
4.606300
 30
0.0
 10
44.610929
 20
4.493862
 30
0.0
 10
44.088378
 20
4.400165
 30
0.0
 10
43.144147
 20
4.323541
 30
0.0
 10
41.675158
 20
4.262356
 30
0.0
 10
39.577233
 20
4.214942
 30
0.0
 10
36.747843
 20
4.179664
 30
0.0
 10
33.083365
 20
4.154829
 30
0.0
 10
33.083365
 20
4.360428
 30
0.0
 10
33.083365
 20
4.566591
 30
0.0
 10
33.083365
 20
4.772754
 30
0.0
 10
33.083365
 20
4.978890
 30
0.0
 10
33.083365
 20
5.184517
 30
0.0
 10
33.083365
 20
5.390652
 30
0.0
 10
33.083365
 20
5.596815
 30
0.0
 10
33.083365
 20
5.802978
 30
0.0
 10
33.068492
 20
6.016282
 30
0.0
 10
33.028803
 20
6.387799
 30
0.0
 10
32.968170
 20
6.896590
 30
0.0
 10
32.887692
 20
7.522756
 30
0.0
 10
32.791228
 20
8.244850
 30
0.0
 10
32.681537
 20
9.043567
 30
0.0
 10
32.560269
 20
9.897402
 30
0.0
 10
32.430734
 20
10.787051
 30
0.0
 10
32.350256
 20
11.332220
 30
0.0
 10
32.269780
 20
11.877925
 30
0.0
 10
32.189302
 20
12.423630
 30
0.0
 10
32.108823
 20
12.969334
 30
0.0
 10
32.028348
 20
13.514475
 30
0.0
 10
31.947869
 20
14.060180
 30
0.0
 10
31.867393
 20
14.605885
 30
0.0
 10
31.786915
 20
15.151581
 30
0.0
 10
32.057010
 20
15.332381
 30
0.0
 10
32.326555
 20
15.513731
 30
0.0
 10
32.596650
 20
15.695079
 30
0.0
 10
32.866195
 20
15.875879
 30
0.0
 10
33.136290
 20
16.057229
 30
0.0
 10
33.405835
 20
16.238027
 30
0.0
 10
33.675930
 20
16.419377
 30
0.0
 10
33.945475
 20
16.600727
 30
0.0
 10
35.165866
 20
17.487633
 30
0.0
 10
36.403893
 20
18.512343
 30
0.0
 10
37.628142
 20
19.641231
 30
0.0
 10
38.806089
 20
20.839022
 30
0.0
 10
39.904662
 20
22.071537
 30
0.0
 10
40.891889
 20
23.304055
 30
0.0
 10
41.735799
 20
24.501846
 30
0.0
 10
42.403322
 20
25.630735
 30
0.0
 10
43.039423
 20
26.928297
 30
0.0
 10
43.567489
 20
28.202705
 30
0.0
 10
43.991372
 20
29.467744
 30
0.0
 10
44.314384
 20
30.739397
 30
0.0
 10
44.538728
 20
32.031447
 30
0.0
 10
44.668816
 20
33.358772
 30
0.0
 10
44.706298
 20
34.736813
 30
0.0
 10
44.655588
 20
36.179894
 30
0.0
 10
44.534320
 20
37.673135
 30
0.0
 10
44.361239
 20
39.050071
 30
0.0
 10
44.125868
 20
40.352042
 30
0.0
 10
43.816087
 20
41.619837
 30
0.0
 10
43.420313
 20
42.893145
 30
0.0
 10
42.928631
 20
44.214408
 30
0.0
 10
42.328355
 20
45.623315
 30
0.0
 10
41.608468
 20
47.161756
 30
0.0
 10
40.745817
 20
48.847924
 30
0.0
 10
39.804893
 20
50.506530
 30
0.0
 10
38.785696
 20
52.138127
 30
0.0
 10
37.688777
 20
53.742162
 30
0.0
 10
36.513034
 20
55.319189
 30
0.0
 10
35.259572
 20
56.869207
 30
0.0
 10
33.927283
 20
58.392217
 30
0.0
 10
32.516725
 20
59.888765
 30
0.0
 10
31.372401
 20
61.045216
 30
0.0
 10
30.336115
 20
61.993304
 30
0.0
 10
29.179114
 20
62.860367
 30
0.0
 10
27.673195
 20
63.772628
 30
0.0
 10
25.591806
 20
64.857970
 30
0.0
 10
22.705643
 20
66.242623
 30
0.0
 10
18.787054
 20
68.053366
 30
0.0
 10
13.608386
 20
70.418078
 30
0.0
 10
10.723877
 20
71.755326
 30
0.0
 10
8.019063
 20
73.055645
 30
0.0
 10
5.473551
 20
74.329503
 30
0.0
 10
3.066945
 20
75.588479
 30
0.0
 10
0.778299
 20
76.843595
 30
0.0
 10
-1.411679
 20
78.105326
 30
0.0
 10
-3.523936
 20
79.384698
 30
0.0
 10
-5.579418
 20
80.692731
 30
0.0
 10
-6.055668
 20
81.003065
 30
0.0
 10
-6.531918
 20
81.313953
 30
0.0
 10
-7.008719
 20
81.624287
 30
0.0
 10
-7.484969
 20
81.935172
 30
0.0
 10
-7.961219
 20
82.245506
 30
0.0
 10
-8.437469
 20
82.556391
 30
0.0
 10
-8.914270
 20
82.866725
 30
0.0
 10
-9.390520
 20
83.177610
 30
0.0
 10
-9.541553
 20
83.358960
 30
0.0
 10
-9.693137
 20
83.539757
 30
0.0
 10
-9.844170
 20
83.721108
 30
0.0
 10
-9.995203
 20
83.902458
 30
0.0
 10
-10.146787
 20
84.083809
 30
0.0
 10
-10.297820
 20
84.265159
 30
0.0
 10
-10.449405
 20
84.446509
 30
0.0
 10
-10.600438
 20
84.627857
 30
0.0
 10
-10.365620
 20
84.835115
 30
0.0
 10
-10.127495
 20
85.044578
 30
0.0
 10
-9.886063
 20
85.256244
 30
0.0
 10
-9.640772
 20
85.470115
 30
0.0
 10
-9.391071
 20
85.686743
 30
0.0
 10
-9.136961
 20
85.906676
 30
0.0
 10
-8.877339
 20
86.129369
 30
0.0
 10
-8.612204
 20
86.355918
 30
0.0
 10
-8.288641
 20
86.635936
 30
0.0
 10
-8.051618
 20
86.869099
 30
0.0
 10
-7.895624
 20
87.088482
 30
0.0
 10
-7.814596
 20
87.324953
 30
0.0
 10
-7.803019
 20
87.611586
 30
0.0
 10
-7.854833
 20
87.979246
 30
0.0
 10
-7.965076
 20
88.461007
 30
0.0
 10
-8.127133
 20
89.088842
 30
0.0
 10
-8.381795
 20
89.931100
 30
0.0
 10
-8.671734
 20
90.643821
 30
0.0
 10
-9.002463
 20
91.230866
 30
0.0
 10
-9.378943
 20
91.698847
 30
0.0
 10
-9.807789
 20
92.053279
 30
0.0
 10
-10.292858
 20
92.299673
 30
0.0
 10
-10.841317
 20
92.442988
 30
0.0
 10
-11.457025
 20
92.489843
 30
0.0
 10
-12.117381
 20
92.477707
 30
0.0
 10
-12.694503
 20
92.430302
 30
0.0
 10
-13.204928
 20
92.328327
 30
0.0
 10
-13.666847
 20
92.154142
 30
0.0
 10
-14.098448
 20
91.889008
 30
0.0
 10
-14.517372
 20
91.514734
 30
0.0
 10
-14.940705
 20
91.013126
 30
0.0
 10
-15.386638
 20
90.365449
 30
0.0
 10
-15.484755
 20
90.482859
 30
0.0
 10
-15.582320
 20
90.599716
 30
0.0
 10
-15.680436
 20
90.717123
 30
0.0
 10
-15.778001
 20
90.834533
 30
0.0
 10
-15.876118
 20
90.951943
 30
0.0
 10
-15.974234
 20
91.069350
 30
0.0
 10
-16.071799
 20
91.186761
 30
0.0
 10
-16.169915
 20
91.304168
 30
0.0
 10
-16.218422
 20
91.514181
 30
0.0
 10
-16.266929
 20
91.724193
 30
0.0
 10
-16.315436
 20
91.934206
 30
0.0
 10
-16.363943
 20
92.144222
 30
0.0
 10
-16.412450
 20
92.354235
 30
0.0
 10
-16.460957
 20
92.564248
 30
0.0
 10
-16.509464
 20
92.774261
 30
0.0
 10
-16.557971
 20
92.984273
 30
0.0
 10
-16.671521
 20
93.514541
 30
0.0
 10
-16.739872
 20
93.969847
 30
0.0
 10
-16.755857
 20
94.389873
 30
0.0
 10
-16.713413
 20
94.812103
 30
0.0
 10
-16.605926
 20
95.275675
 30
0.0
 10
-16.427333
 20
95.819723
 30
0.0
 10
-16.169915
 20
96.483389
 30
0.0
 10
-15.828162
 20
97.304698
 30
0.0
 10
-15.688704
 20
97.634875
 30
0.0
 10
-15.548696
 20
97.964502
 30
0.0
 10
-15.409238
 20
98.294680
 30
0.0
 10
-15.269781
 20
98.624860
 30
0.0
 10
-15.130323
 20
98.955037
 30
0.0
 10
-14.990314
 20
99.285215
 30
0.0
 10
-14.850857
 20
99.615392
 30
0.0
 10
-14.711399
 20
99.945570
 30
0.0
 10
-14.878418
 20
100.090541
 30
0.0
 10
-15.045987
 20
100.235511
 30
0.0
 10
-15.213005
 20
100.380480
 30
0.0
 10
-15.380575
 20
100.525999
 30
0.0
 10
-15.547593
 20
100.670971
 30
0.0
 10
-15.715163
 20
100.815940
 30
0.0
 10
-15.882181
 20
100.960909
 30
0.0
 10
-16.049750
 20
101.106429
 30
0.0
 10
-17.378730
 20
102.177442
 30
0.0
 10
-18.731964
 20
103.108996
 30
0.0
 10
-20.107797
 20
103.899988
 30
0.0
 10
-21.506230
 20
104.549873
 30
0.0
 10
-22.925058
 20
105.058643
 30
0.0
 10
-24.363730
 20
105.425752
 30
0.0
 10
-25.821144
 20
105.650649
 30
0.0
 10
-27.296196
 20
105.735536
 30
0.0
 10
-27.394863
 20
105.736101
 30
0.0
 10
-27.494067
 20
105.736566
 30
0.0
  0
LWPOLYLINE
  5
101
100
AcDbEntity
  8
Layer_1
 62
7
100
AcDbPolyline
 90
132
 70
1
 10
-16.875456
 20
76.155599
 30
0.0
 10
-16.750330
 20
76.027716
 30
0.0
 10
-16.615833
 20
75.890466
 30
0.0
 10
-16.481337
 20
75.753213
 30
0.0
 10
-16.117535
 20
75.510676
 30
0.0
 10
-15.753732
 20
75.268143
 30
0.0
 10
-15.389379
 20
75.025607
 30
0.0
 10
-15.025577
 20
74.783074
 30
0.0
 10
-14.661775
 20
74.540537
 30
0.0
 10
-14.297973
 20
74.298004
 30
0.0
 10
-13.933620
 20
74.055468
 30
0.0
 10
-13.569818
 20
73.812935
 30
0.0
 10
-12.800321
 20
73.312981
 30
0.0
 10
-11.726554
 20
72.632783
 30
0.0
 10
-10.396471
 20
71.803202
 30
0.0
 10
-8.859683
 20
70.854010
 30
0.0
 10
-7.165247
 20
69.815519
 30
0.0
 10
-5.361671
 20
68.718050
 30
0.0
 10
-3.498563
 20
67.590815
 30
0.0
 10
-1.624431
 20
66.465234
 30
0.0
 10
3.024518
 20
63.653485
 30
0.0
 10
6.970668
 20
61.198372
 30
0.0
 10
10.307174
 20
59.032096
 30
0.0
 10
13.128294
 20
57.087960
 30
0.0
 10
15.527183
 20
55.298714
 30
0.0
 10
17.598650
 20
53.597665
 30
0.0
 10
19.435851
 20
51.917562
 30
0.0
 10
21.132491
 20
50.190605
 30
0.0
 10
22.669280
 20
48.459236
 30
0.0
 10
23.973455
 20
46.793465
 30
0.0
 10
25.054388
 20
45.173992
 30
0.0
 10
25.920347
 20
43.583737
 30
0.0
 10
26.580703
 20
42.003953
 30
0.0
 10
27.043724
 20
40.417006
 30
0.0
 10
27.317678
 20
38.804702
 30
0.0
 10
27.412487
 20
37.148297
 30
0.0
 10
27.325946
 20
35.399843
 30
0.0
 10
27.042070
 20
33.722495
 30
0.0
 10
26.547079
 20
32.090347
 30
0.0
 10
25.827192
 20
30.476939
 30
0.0
 10
24.869731
 20
28.856368
 30
0.0
 10
23.660365
 20
27.203825
 30
0.0
 10
22.186415
 20
25.492299
 30
0.0
 10
20.434653
 20
23.696993
 30
0.0
 10
20.059826
 20
23.331535
 30
0.0
 10
19.685000
 20
22.966631
 30
0.0
 10
19.310174
 20
22.601728
 30
0.0
 10
18.934796
 20
22.236270
 30
0.0
 10
18.559970
 20
21.871368
 30
0.0
 10
18.185143
 20
21.505910
 30
0.0
 10
17.810317
 20
21.141008
 30
0.0
 10
17.435490
 20
20.775550
 30
0.0
 10
17.596996
 20
19.878724
 30
0.0
 10
17.759054
 20
18.981895
 30
0.0
 10
17.920560
 20
18.085069
 30
0.0
 10
18.082066
 20
17.187690
 30
0.0
 10
18.244123
 20
16.290864
 30
0.0
 10
18.405629
 20
15.394035
 30
0.0
 10
18.567687
 20
14.497221
 30
0.0
 10
18.729193
 20
13.600375
 30
0.0
 10
18.992674
 20
12.146281
 30
0.0
 10
19.246232
 20
10.765481
 30
0.0
 10
19.482704
 20
9.489978
 30
0.0
 10
19.696576
 20
8.351154
 30
0.0
 10
19.881784
 20
7.381016
 30
0.0
 10
20.032817
 20
6.612637
 30
0.0
 10
20.142509
 20
6.076838
 30
0.0
 10
20.205347
 20
5.805651
 30
0.0
 10
20.205347
 20
5.596750
 30
0.0
 10
20.205347
 20
5.387285
 30
0.0
 10
20.205347
 20
5.178356
 30
0.0
 10
20.205347
 20
4.968890
 30
0.0
 10
20.205347
 20
4.759453
 30
0.0
 10
20.205347
 20
4.550524
 30
0.0
 10
20.205347
 20
4.341059
 30
0.0
 10
20.205347
 20
4.132158
 30
0.0
 10
18.602413
 20
4.129336
 30
0.0
 10
17.014913
 20
4.126514
 30
0.0
 10
15.411979
 20
4.123691
 30
0.0
 10
13.760538
 20
4.120869
 30
0.0
 10
12.028069
 20
4.120869
 30
0.0
 10
10.182049
 20
4.120869
 30
0.0
 10
8.191059
 20
4.120869
 30
0.0
 10
6.022578
 20
4.120869
 30
0.0
 10
1.129991
 20
4.120869
 30
0.0
 10
-3.762044
 20
4.120869
 30
0.0
 10
-8.654631
 20
4.120869
 30
0.0
 10
-13.547218
 20
4.120869
 30
0.0
 10
-18.439254
 20
4.120869
 30
0.0
 10
-23.331840
 20
4.120869
 30
0.0
 10
-28.223876
 20
4.120869
 30
0.0
 10
-33.116464
 20
4.120869
 30
0.0
 10
-33.564048
 20
4.652237
 30
0.0
 10
-34.011085
 20
5.183605
 30
0.0
 10
-34.458673
 20
5.714973
 30
0.0
 10
-34.906258
 20
6.246341
 30
0.0
 10
-35.353295
 20
6.777709
 30
0.0
 10
-35.800882
 20
7.309105
 30
0.0
 10
-36.247917
 20
7.840473
 30
0.0
 10
-36.695504
 20
8.371841
 30
0.0
 10
-37.143092
 20
8.903209
 30
0.0
 10
-37.590676
 20
9.434577
 30
0.0
 10
-38.037714
 20
9.965945
 30
0.0
 10
-38.485298
 20
10.497313
 30
0.0
 10
-38.932886
 20
11.028681
 30
0.0
 10
-39.379923
 20
11.560078
 30
0.0
 10
-39.827508
 20
12.091446
 30
0.0
 10
-40.275095
 20
12.622814
 30
0.0
 10
-41.842752
 20
12.631562
 30
0.0
 10
-43.409856
 20
12.640311
 30
0.0
 10
-44.977513
 20
12.649625
 30
0.0
 10
-46.545170
 20
12.658374
 30
0.0
 10
-48.112274
 20
12.667122
 30
0.0
 10
-49.679931
 20
12.675871
 30
0.0
 10
-51.247034
 20
12.685185
 30
0.0
 10
-52.814691
 20
12.693934
 30
0.0
 10
-50.554159
 20
16.702920
 30
0.0
 10
-48.293624
 20
20.711906
 30
0.0
 10
-46.033092
 20
24.720345
 30
0.0
 10
-43.772006
 20
28.729335
 30
0.0
 10
-41.511471
 20
32.738321
 30
0.0
 10
-39.250936
 20
36.746760
 30
0.0
 10
-36.990404
 20
40.755749
 30
0.0
 10
-34.729869
 20
44.764738
 30
0.0
 10
-31.753858
 20
50.044278
 30
0.0
 10
-28.920062
 20
55.073015
 30
0.0
 10
-26.263203
 20
59.782598
 30
0.0
 10
-23.817461
 20
64.107434
 30
0.0
 10
-21.618112
 20
67.979170
 30
0.0
 10
-19.699883
 20
71.331660
 30
0.0
 10
-18.096949
 20
74.097107
 30
0.0
 10
-16.875456
 20
76.155599
 30
0.0
  0
LWPOLYLINE
  5
102
100
AcDbEntity
  8
Layer_1
 62
7
100
AcDbPolyline
 90
137
 70
1
 10
-33.314900
 20
-3.313654
 30
0.0
 10
-28.403019
 20
-3.324661
 30
0.0
 10
-23.490590
 20
-3.336232
 30
0.0
 10
-18.578711
 20
-3.347239
 30
0.0
 10
-13.666832
 20
-3.358810
 30
0.0
 10
-8.754952
 20
-3.369817
 30
0.0
 10
-3.843073
 20
-3.381388
 30
0.0
 10
1.069358
 20
-3.392394
 30
0.0
 10
5.981237
 20
-3.403966
 30
0.0
 10
7.759458
 20
-3.407917
 30
0.0
 10
9.537127
 20
-3.411868
 30
0.0
 10
11.315347
 20
-3.415819
 30
0.0
 10
13.093568
 20
-3.420334
 30
0.0
 10
14.871237
 20
-3.424286
 30
0.0
 10
16.649458
 20
-3.428237
 30
0.0
 10
18.427127
 20
-3.432188
 30
0.0
 10
20.205347
 20
-3.436139
 30
0.0
 10
20.205347
 20
-3.631804
 30
0.0
 10
20.205347
 20
-3.826932
 30
0.0
 10
20.205347
 20
-4.022625
 30
0.0
 10
20.205347
 20
-4.217753
 30
0.0
 10
20.205347
 20
-4.413418
 30
0.0
 10
20.205347
 20
-4.608575
 30
0.0
 10
20.205347
 20
-4.804239
 30
0.0
 10
20.205347
 20
-4.999368
 30
0.0
 10
20.142509
 20
-5.270583
 30
0.0
 10
20.032817
 20
-5.806354
 30
0.0
 10
19.881784
 20
-6.575297
 30
0.0
 10
19.696576
 20
-7.544899
 30
0.0
 10
19.482704
 20
-8.683694
 30
0.0
 10
19.246232
 20
-9.959198
 30
0.0
 10
18.992674
 20
-11.339998
 30
0.0
 10
18.729193
 20
-12.794120
 30
0.0
 10
18.567687
 20
-13.690937
 30
0.0
 10
18.405629
 20
-14.587755
 30
0.0
 10
18.244123
 20
-15.485137
 30
0.0
 10
18.082066
 20
-16.381954
 30
0.0
 10
17.920560
 20
-17.278800
 30
0.0
 10
17.759054
 20
-18.175618
 30
0.0
 10
17.596996
 20
-19.072464
 30
0.0
 10
17.435490
 20
-19.969281
 30
0.0
 10
17.810317
 20
-20.334731
 30
0.0
 10
18.185143
 20
-20.699644
 30
0.0
 10
18.559970
 20
-21.065094
 30
0.0
 10
18.935347
 20
-21.430007
 30
0.0
 10
19.310174
 20
-21.795456
 30
0.0
 10
19.685000
 20
-22.160370
 30
0.0
 10
20.059826
 20
-22.525819
 30
0.0
 10
20.434653
 20
-22.890733
 30
0.0
 10
22.186415
 20
-24.686569
 30
0.0
 10
23.660365
 20
-26.397541
 30
0.0
 10
24.869180
 20
-28.050658
 30
0.0
 10
25.827192
 20
-29.670670
 30
0.0
 10
26.547079
 20
-31.284078
 30
0.0
 10
27.042070
 20
-32.916762
 30
0.0
 10
27.325946
 20
-34.594121
 30
0.0
 10
27.412487
 20
-36.342036
 30
0.0
 10
27.317678
 20
-37.998427
 30
0.0
 10
27.043724
 20
-39.610734
 30
0.0
 10
26.580703
 20
-41.197670
 30
0.0
 10
25.920347
 20
-42.777465
 30
0.0
 10
25.054388
 20
-44.367731
 30
0.0
 10
23.973455
 20
-45.987178
 30
0.0
 10
22.669280
 20
-47.653503
 30
0.0
 10
21.132491
 20
-49.384344
 30
0.0
 10
19.435851
 20
-51.111290
 30
0.0
 10
17.598650
 20
-52.791387
 30
0.0
 10
15.527183
 20
-54.492453
 30
0.0
 10
13.128294
 20
-56.281686
 30
0.0
 10
10.307174
 20
-58.225830
 30
0.0
 10
6.970668
 20
-60.392111
 30
0.0
 10
3.024518
 20
-62.847219
 30
0.0
 10
-1.624431
 20
-65.658970
 30
0.0
 10
-3.498563
 20
-66.785094
 30
0.0
 10
-5.361671
 20
-67.911781
 30
0.0
 10
-7.165247
 20
-69.009795
 30
0.0
 10
-8.860234
 20
-70.048288
 30
0.0
 10
-10.397023
 20
-70.997486
 30
0.0
 10
-11.727105
 20
-71.827614
 30
0.0
 10
-12.801424
 20
-72.507798
 30
0.0
 10
-13.570920
 20
-73.007755
 30
0.0
 10
-13.935273
 20
-73.250297
 30
0.0
 10
-14.299076
 20
-73.492838
 30
0.0
 10
-14.663429
 20
-73.735916
 30
0.0
 10
-15.027231
 20
-73.978458
 30
0.0
 10
-15.391584
 20
-74.221000
 30
0.0
 10
-15.755386
 20
-74.463514
 30
0.0
 10
-16.119740
 20
-74.706055
 30
0.0
 10
-16.483542
 20
-74.948597
 30
0.0
 10
-18.995430
 20
-70.670616
 30
0.0
 10
-21.622522
 20
-65.967637
 30
0.0
 10
-24.335603
 20
-60.951024
 30
0.0
 10
-27.105460
 20
-55.730477
 30
0.0
 10
-29.902325
 20
-50.417305
 30
0.0
 10
-32.696988
 20
-45.121236
 30
0.0
 10
-35.460782
 20
-39.953578
 30
0.0
 10
-38.163390
 20
-35.025159
 30
0.0
 10
-40.362739
 20
-31.023361
 30
0.0
 10
-42.380188
 20
-27.331302
 30
0.0
 10
-44.232822
 20
-23.926460
 30
0.0
 10
-45.936628
 20
-20.786173
 30
0.0
 10
-47.509244
 20
-17.886792
 30
0.0
 10
-48.966659
 20
-15.206217
 30
0.0
 10
-50.326507
 20
-12.721335
 30
0.0
 10
-51.604223
 20
-10.410104
 30
0.0
 10
-50.997335
 20
-10.399097
 30
0.0
 10
-50.389897
 20
-10.388091
 30
0.0
 10
-49.783007
 20
-10.377084
 30
0.0
 10
-49.175568
 20
-10.366077
 30
0.0
 10
-48.568681
 20
-10.355071
 30
0.0
 10
-47.961242
 20
-10.344064
 30
0.0
 10
-47.354355
 20
-10.333057
 30
0.0
 10
-46.746914
 20
-10.322051
 30
0.0
 10
-45.959228
 20
-10.334186
 30
0.0
 10
-45.170990
 20
-10.346322
 30
0.0
 10
-44.383302
 20
-10.358457
 30
0.0
 10
-43.595617
 20
-10.370593
 30
0.0
 10
-42.807930
 20
-10.382728
 30
0.0
 10
-42.020242
 20
-10.394864
 30
0.0
 10
-41.232006
 20
-10.407000
 30
0.0
 10
-40.444318
 20
-10.419135
 30
0.0
 10
-39.998938
 20
-9.975425
 30
0.0
 10
-39.553004
 20
-9.531151
 30
0.0
 10
-39.107621
 20
-9.087413
 30
0.0
 10
-38.661687
 20
-8.643139
 30
0.0
 10
-38.216307
 20
-8.198865
 30
0.0
 10
-37.770923
 20
-7.755127
 30
0.0
 10
-37.324992
 20
-7.310852
 30
0.0
 10
-36.879609
 20
-6.867114
 30
0.0
 10
-36.434228
 20
-6.422840
 30
0.0
 10
-35.988295
 20
-5.978566
 30
0.0
 10
-35.542911
 20
-5.534828
 30
0.0
 10
-35.096981
 20
-5.090554
 30
0.0
 10
-34.651597
 20
-4.646816
 30
0.0
 10
-34.206214
 20
-4.202542
 30
0.0
 10
-33.760283
 20
-3.758804
 30
0.0
 10
-33.314900
 20
-3.313654
 30
0.0
  0
ENDSEC
  0
SECTION
  2
OBJECTS
  0
DICTIONARY
  5
C
330
0
100
AcDbDictionary
  3
ACAD_GROUP
350
D
  3
ACAD_MLINESTYLE
350
17
  0
DICTIONARY
  5
D
330
C
100
AcDbDictionary
  0
DICTIONARY
  5
1A
330
C
100
AcDbDictionary
  0
DICTIONARY
  5
17
330
C
100
AcDbDictionary
  3
STANDARD
350
18
  0
DICTIONARY
  5
19
330
C
100
AcDbDictionary
  0
ENDSEC
  0
EOF
