<?xml version="1.0" encoding="UTF-8" standalone="no"?>
<!-- Created with Inkscape (http://www.inkscape.org/) -->

<svg
   xmlns:dc="http://purl.org/dc/elements/1.1/"
   xmlns:cc="http://creativecommons.org/ns#"
   xmlns:rdf="http://www.w3.org/1999/02/22-rdf-syntax-ns#"
   xmlns:svg="http://www.w3.org/2000/svg"
   xmlns="http://www.w3.org/2000/svg"
   xmlns:sodipodi="http://sodipodi.sourceforge.net/DTD/sodipodi-0.dtd"
   xmlns:inkscape="http://www.inkscape.org/namespaces/inkscape"
   width="210mm"
   height="297mm"
   viewBox="0 0 744.09448819 1052.3622047"
   id="svg3447"
   version="1.1"
   inkscape:version="0.91 r13725"
   sodipodi:docname="bug.svg">
  <defs
     id="defs3449" />
  <sodipodi:namedview
     id="base"
     pagecolor="#ffffff"
     bordercolor="#666666"
     borderopacity="1.0"
     inkscape:pageopacity="0.0"
     inkscape:pageshadow="2"
     inkscape:zoom="1.979899"
     inkscape:cx="-15.581146"
     inkscape:cy="-4.4687136"
     inkscape:document-units="px"
     inkscape:current-layer="layer1"
     showgrid="false"
     inkscape:window-width="2560"
     inkscape:window-height="1370"
     inkscape:window-x="0"
     inkscape:window-y="0"
     inkscape:window-maximized="1" />
  <metadata
     id="metadata3452">
    <rdf:RDF>
      <cc:Work
         rdf:about="">
        <dc:format>image/svg+xml</dc:format>
        <dc:type
           rdf:resource="http://purl.org/dc/dcmitype/StillImage" />
        <dc:title></dc:title>
      </cc:Work>
    </rdf:RDF>
  </metadata>
  <g
     inkscape:label="Layer 1"
     inkscape:groupmode="layer"
     id="layer1">
    <path
       style="fill:#000000"
       d="m -109.25231,1140.1289 -1.41249,-2.5496 -0.81127,-4.2118 -0.0984,-4.7714 0.72619,-4.228 1.14003,-3.0048 1.84487,-4.5204 1.82428,-4.2935 1.07825,-2.324 0.5149,-1.0875 0.51491,-1.0875 0.5149,-1.0874 0.51491,-1.0875 3.412935,-6.6207 3.182871,-5.3317 3.027935,-4.1574 2.948126,-3.098 2.35641,-1.6384 3.243643,-1.6542 3.65647,-1.4561 3.594887,-1.0443 3.361534,-0.7283 3.013628,-0.5867 2.861375,-0.4806 2.904773,-0.41 1.717194,-0.2249 1.416653,-0.1914 0.969185,-0.1375 0.374788,-0.063 -0.03238,-0.3217 -0.139499,-0.8409 -0.22421,-1.2325 -0.286511,-1.4962 -0.947713,-5.4678 -0.716827,-5.4528 -0.454872,-5.1565 -0.161848,-4.5789 -5e-4,-0.5247 -5e-4,-0.5247 -5e-4,-0.5248 -5e-4,-0.5247 -0.551055,-0.243 -0.551055,-0.2429 -0.551055,-0.243 -0.551055,-0.243 -1.083663,-0.4559 -1.321126,-0.5229 -1.391533,-0.5253 -1.294888,-0.4631 -0.811092,-0.2639 -0.811093,-0.264 -0.811092,-0.2639 -0.811093,-0.264 -0.619095,-0.162 -0.619095,-0.162 -0.619095,-0.162 -0.619095,-0.162 -1.436612,-0.3374 -1.360354,-0.201 -1.651589,-0.1016 -2.310315,-0.039 -3.024364,0.042 -2.216837,0.2976 -2.161497,0.7291 -2.858342,1.3373 -8.029277,4.7024 -8.58764,6.206 -7.71757,6.5886 -5.41905,5.8504 -0.32833,0.3979 -0.36437,0.3705 -0.35606,0.3016 -0.30337,0.1913 -0.34729,0.1349 -0.25708,0.01 -0.22806,-0.1335 -0.26021,-0.2913 -0.62598,-2.1891 0.17171,-3.4336 0.87261,-3.99 1.47674,-3.8585 0.66625,-1.212 0.91767,-1.308 1.41666,-1.7259 2.16323,-2.4654 9.85619,-10.5722 8.10149,-7.5339 6.680481,-4.7732 5.593176,-2.2904 1.628195,-0.1226 1.628195,-0.1226 1.628195,-0.1227 1.628195,-0.1226 4.526356,0.1953 4.914032,0.5285 5.134842,0.8391 5.18879,1.1266 0.801417,0.1844 0.673937,0.1329 0.47566,0.069 0.206586,-0.01 0.121351,-0.221 0.243586,-0.5129 0.33047,-0.7284 0.382003,-0.8673 1.012367,-2.076 1.241033,-2.1338 1.386041,-2.0582 1.447389,-1.8491 0.555116,-0.6637 0.454587,-0.568 0.30715,-0.4122 0.112807,-0.1958 -0.104356,-0.1094 -0.284139,-0.177 -0.420526,-0.2201 -0.513519,-0.2388 -1.924072,-0.9757 -2.506499,-1.4374 -2.574159,-1.5922 -2.12705,-1.4399 -2.137405,-1.6624 -1.630221,-1.5545 -1.331523,-1.6736 -1.241311,-2.0201 -2.316737,-5.01091 -2.327887,-6.79521 -2.388051,-8.74091 -2.497225,-10.848 -0.512531,-2.35935 -0.534724,-2.41682 -0.493592,-2.19056 -0.389133,-1.68055 -0.41886,-1.86727 -0.214058,-1.41701 -0.05781,-1.48496 0.0499,-2.07114 0.177189,-2.69657 0.355592,-2.25852 0.579054,-2.02709 0.847575,-2.00228 0.556112,-1.00121 0.61564,-0.88554 0.567851,-0.63226 0.412747,-0.24134 0.569151,0.20639 0.482763,0.60211 0.382313,0.97224 0.267803,1.31679 0.662974,3.27803 1.251791,5.21095 1.522346,5.87235 1.474639,5.26221 2.84737,8.86258 2.778314,7.19805 2.650112,5.3963 2.462764,3.45731 2.286562,1.95184 3.14499,2.08001 3.710794,2.03262 3.983974,1.80972 2.533138,0.9701 3.067504,1.0996 2.661055,0.9007 1.313793,0.3732 0.06934,-0.094 -0.08922,-0.2662 -0.235697,-0.4129 -0.370083,-0.5343 -0.820133,-1.3812 -0.739004,-1.7619 -0.604353,-1.99296 -0.41618,-2.07434 -0.11116,-1.15766 -0.06265,-1.59445 -0.01266,-1.96076 0.03884,-2.25658 0.173825,-3.58303 0.352595,-3.06003 0.606288,-3.01143 0.934902,-3.43718 0.892388,-2.48773 1.305163,-3.01962 1.465735,-3.0033 1.374104,-2.43878 2.161198,-3.07116 2.556249,-3.0583 2.715852,-2.78452 2.640011,-2.24978 0.816455,-0.62411 0.816455,-0.62412 0.816455,-0.62411 0.816455,-0.62411 0.247312,-0.0759 0.493823,-0.21742 0.668737,-0.32551 0.772058,-0.40019 3.006919,-1.43819 3.126411,-1.18336 3.1641233,-0.90143 3.1200562,-0.59238 2.5968654,-0.21449 3.15594634,-0.052 3.15014546,0.10559 2.5794628,0.25844 2.0973575,0.40937 2.205214,0.55266 1.948503,0.59518 1.327226,0.53697 0.288425,0.14768 0.246054,0.11635 0.177591,0.0733 0.08304,0.0187 0.620401,0.20816 1.320248,0.63194 1.642731,0.86505 1.58785,0.90753 1.037065,0.60006 0.746504,0.36884 0.498902,0.15572 0.294259,-0.0393 0.64591,0.60899 0.64591,0.60899 0.64591,0.609 0.64591,0.60899 0.770817,0.80721 0.770818,0.80722 0.770817,0.80721 0.770818,0.80721 3.710828,4.36618 3.023191,4.63516 2.394486,5.00905 1.824715,5.48785 0.748087,2.9951 0.491158,2.63081 0.294673,2.67457 0.158632,3.12644 0.01224,3.31177 -0.203462,2.7905 -0.435036,2.39825 -0.682489,2.13504 -0.236658,0.6221 -0.180207,0.5234 -0.106122,0.3697 -0.0144,0.1609 0.201905,-0.017 0.482809,-0.1156 0.691404,-0.1948 0.827692,-0.2549 6.192677,-2.16424 5.341853,-2.26707 4.530855,-2.38867 3.759685,-2.52907 1.307883,-1.14796 1.209101,-1.3883 1.201832,-1.74769 1.286074,-2.2261 2.320941,-5.06946 2.571705,-6.95508 2.604581,-8.20265 2.419573,-8.81218 0.423787,-1.62586 0.380882,-1.37378 0.296275,-0.97695 0.169966,-0.43533 0.02527,-0.10227 0.02527,-0.10227 0.02528,-0.10228 0.02527,-0.10227 0.134632,-1.27795 0.531282,-2.64701 0.64453,-2.72201 0.474376,-1.50294 0.181432,-0.22551 0.220027,-0.18467 0.230854,-0.12477 0.213917,-0.0458 0.492978,0.21402 0.604827,0.56536 0.61406,0.80159 0.520675,0.92276 0.259817,0.6819 0.259818,0.6819 0.259817,0.68189 0.259818,0.6819 0.478979,1.6935 0.322493,1.69551 0.18407,1.82298 0.06371,2.07588 -0.07784,1.95395 -0.46783,2.93037 -1.183441,5.58623 -2.22467,9.92154 -1.902656,7.86136 -1.902204,6.69851 -1.923092,5.6043 -1.965318,4.57872 -2.110203,3.3947 -3.014624,3.0751 -4.300676,3.0765 -5.968377,3.3986 -0.992253,0.5251 -0.992252,0.525 -0.992253,0.5251 -0.992252,0.525 0.164332,0.1568 0.164333,0.1568 0.164332,0.1568 0.164333,0.1568 1.659375,1.8093 1.695699,2.2586 1.618364,2.5432 1.427372,2.6633 0.322207,0.6586 0.275828,0.553 0.200135,0.3893 0.09513,0.1676 0.295596,-0.028 0.74597,-0.1438 1.083667,-0.2361 1.308687,-0.3049 3.63341,-0.7867 4.11847,-0.7597 4.072548,-0.6418 3.495642,-0.433 2.937396,-0.1684 3.147587,0.017 2.946428,0.1876 2.333919,0.3448 3.328836,1.1288 3.667604,2.012 4.098173,2.9538 4.62053,3.9544 5.05166,4.9276 5.79613,6.0931 5.09231,5.6911 2.94023,3.7218 1.93382,4.2299 1.17413,4.6977 0.22765,4.0058 -0.90566,2.154 -0.51966,0.066 -0.66124,-0.3424 -0.85973,-0.7938 -1.11509,-1.2876 -6.65791,-6.7379 -8.81042,-7.0894 -9.204633,-6.1487 -7.84054,-3.9162 -2.038466,-0.4855 -2.635899,-0.2809 -2.840042,-0.052 -2.650893,0.2002 -3.303034,0.6125 -3.529199,0.9537 -3.719836,1.284 -3.874951,1.6032 -0.731987,0.3268 -0.731988,0.3267 -0.731988,0.3268 -0.731987,0.3268 -0.03367,1.6237 -0.03367,1.6237 -0.03367,1.6238 -0.03367,1.6237 -0.168836,4.795 -0.304569,4.2606 -0.455732,3.8916 -0.622323,3.6881 -0.208879,1.138 -0.148414,0.9449 -0.07424,0.6535 0.01364,0.2637 0.227473,0.048 0.50794,0.066 0.71321,0.075 0.843287,0.076 4.74485,0.5722 5.180861,0.9113 4.968014,1.1207 4.106305,1.2 3.804881,1.5309 3.108363,1.771 2.639318,2.167 2.397748,2.7189 2.645442,3.783 2.815791,4.6707 2.83425,5.2906 2.70078,5.6427 0.3722,0.8458 0.37221,0.8459 0.3722,0.8458 0.37221,0.8459 0.56567,1.2076 1.12349,2.6382 1.26102,3.0638 0.97823,2.4843 0.78995,2.358 0.47399,2.1151 0.19961,2.1342 -0.0332,2.4157 -0.37085,3.3405 -0.68506,2.7887 -0.8999,1.9405 -1.01536,0.7957 -0.53873,-0.027 -0.43071,-0.3861 -0.47454,-0.9734 -0.67016,-1.7889 -1.20257,-2.9607 -1.72172,-3.7969 -1.89255,-3.892 -1.7151,-3.2463 -0.90662,-1.5756 -0.90663,-1.5756 -0.90662,-1.5756 -0.906623,-1.5756 -3.042232,-4.8655 -2.762742,-4.0469 -2.581247,-3.364 -2.497749,-2.8171 -1.298491,-1.3079 -1.021629,-0.9005 -0.945298,-0.6512 -1.069502,-0.5602 -2.211397,-0.9386 -2.0771,-0.5472 -2.50046,-0.2536 -3.481473,-0.057 -3.652395,0.091 -3.248873,0.3098 -3.418546,0.6072 -4.161426,0.9837 -0.817798,0.2074 -0.817797,0.2074 -0.817798,0.2075 -0.817797,0.2074 -0.347295,0.6558 -0.347295,0.6558 -0.347295,0.6559 -0.347295,0.6558 -7.964481,12.393 -9.441564,10.0655 -10.656444,7.5089 -11.609121,4.7228 -0.69073,0.1873 -0.69073,0.1873 -0.69073,0.1873 -0.69073,0.1873 -1.026608,0.1687 -1.0266073,0.1687 -1.0266076,0.1688 -1.0266076,0.1687 -3.6681191,0.3001 -4.3274534,0.024 -4.2823597,-0.2349 -3.5328378,-0.4765 -3.3006325,-0.7351 -2.900608,-0.8094 -2.78346,-0.9724 -2.949189,-1.2241 -8.690902,-4.8579 -8.116475,-6.5812 -7.337319,-8.1099 -6.353434,-9.4439 -0.647363,-1.0823 -0.507396,-0.6153 -0.617742,-0.3667 -0.978399,-0.3367 -2.945232,-0.7768 -3.773083,-0.7827 -3.906126,-0.6583 -3.344359,-0.4034 -4.530105,-0.1206 -4.006564,0.4202 -3.453818,0.9556 -2.871863,1.4855 -5.386432,5.5958 -6.617224,9.4646 -6.453511,11.1355 -4.89529,10.6086 -0.41767,1.0969 -0.37614,0.9832 -0.2934,0.7619 -0.16942,0.4332 -0.34598,0.577 -0.44342,0.2962 -0.51037,0.01 -0.54685,-0.294 -1.1e-4,-10e-5 -1.2e-4,-2e-4 -1.1e-4,-1e-4 z m 100.9735865,-5.5382 0,0 0,0 0,0 z m 76.9589405,-130.0593 -0.03478,-0.066 -0.09471,-0.107 -0.140176,-0.1335 -0.171175,-0.1452 -0.22748,-0.1778 -0.0874,-0.047 0.04626,0.089 0.17352,0.2328 0.222579,0.2666 0.16881,0.1515 0.107106,0.031 0.03746,-0.095 -2e-6,1e-4 -3e-6,10e-5 -2e-6,10e-5 z"
       id="path3520"
       inkscape:connector-curvature="0"
       sodipodi:nodetypes="ccccccccccccccccccccccccccccccccccccccccccccccccccccccccccccccccccccccccccccccccccccccccccccccccccccccccccccccccccccccccccccccccccccccccccccccccccccccccccccccccccccccccccccccccccccccccccccccccccccccccccccccccccccccccccccccccccccccccccccccccccccccccccccccccccccccccccccccccccccccccccccccccccccccccccccccccccccccccccccccccccccccccccccccccccccccccccccccccccccccccccccccccccccccccccccccccccccccccccccccccccccccccccccccccccccccccccccccccccccccccccccccccccccccccccccccccccccccccccccccccccccccccccccccccccccccccccccccccccc" />
  </g>
</svg>
