  0
SECTION
  2
HEADER
  9
$ACADVER
  1
AC1014
  9
$HANDSEED
  5
FFFF
  9
$MEASUREMENT
 70
     1
  0
ENDSEC
  0
SECTION
  2
TABLES
  0
TABLE
  2
VPORT
  5
8
330
0
100
AcDbSymbolTable
 70
     4
  0
VPORT
  5
2E
330
8
100
AcDbSymbolTableRecord
100
AcDbViewportTableRecord
  2
*ACTIVE
 70
     0
 10
0.0
 20
0.0
 11
1.0
 21
1.0
 12
210.0
 22
148.5
 13
0.0
 23
0.0
 14
10.0
 24
10.0
 15
10.0
 25
10.0
 16
0.0
 26
0.0
 36
1.0
 17
0.0
 27
0.0
 37
0.0
 40
341.0
 41
1.24
 42
50.0
 43
0.0
 44
0.0
 50
0.0
 51
0.0
 71
     0
 72
   100
 73
     1
 74
     3
 75
     0
 76
     0
 77
     0
 78
     0
  0
ENDTAB
  0
TABLE
  2
LTYPE
  5
5
330
0
100
AcDbSymbolTable
 70
     1
  0
LTYPE
  5
14
330
5
100
AcDbSymbolTableRecord
100
AcDbLinetypeTableRecord
  2
BYBLOCK
 70
     0
  3

 72
    65
 73
     0
 40
0.0
  0
LTYPE
  5
15
330
5
100
AcDbSymbolTableRecord
100
AcDbLinetypeTableRecord
  2
BYLAYER
 70
     0
  3

 72
    65
 73
     0
 40
0.0
  0
LTYPE
  5
16
330
5
100
AcDbSymbolTableRecord
100
AcDbLinetypeTableRecord
  2
CONTINUOUS
 70
     0
  3
Solid line
 72
    65
 73
     0
 40
0.0
  0
ENDTAB
  0
TABLE
  2
LAYER
  5
2
100
AcDbSymbolTable
 70
2
  0
LAYER
  5
50
100
AcDbSymbolTableRecord
100
AcDbLayerTableRecord
  2
0
 70
0
  6
CONTINUOUS
  0
LAYER
  5
51
100
AcDbSymbolTableRecord
100
AcDbLayerTableRecord
  2
Layer_1
 70
0
  6
CONTINUOUS
  0
ENDTAB
  0
TABLE
  2
STYLE
  5
3
330
0
100
AcDbSymbolTable
 70
     1
  0
STYLE
  5
11
330
3
100
AcDbSymbolTableRecord
100
AcDbTextStyleTableRecord
  2
STANDARD
 70
     0
 40
0.0
 41
1.0
 50
0.0
 71
     0
 42
2.5
  3
txt
  4

  0
ENDTAB
  0
TABLE
  2
VIEW
  5
6
330
0
100
AcDbSymbolTable
 70
     0
  0
ENDTAB
  0
TABLE
  2
UCS
  5
7
330
0
100
AcDbSymbolTable
 70
     0
  0
ENDTAB
  0
TABLE
  2
APPID
  5
9
330
0
100
AcDbSymbolTable
 70
     2
  0
APPID
  5
12
330
9
100
AcDbSymbolTableRecord
100
AcDbRegAppTableRecord
  2
ACAD
 70
     0
  0
ENDTAB
  0
TABLE
  2
DIMSTYLE
  5
A
330
0
100
AcDbSymbolTable
 70
     1
  0
DIMSTYLE
105
27
330
A
100
AcDbSymbolTableRecord
100
AcDbDimStyleTableRecord
  2
ISO-25
 70
     0
  3

  4

  5

  6

  7

 40
1.0
 41
2.5
 42
0.625
 43
3.75
 44
1.25
 45
0.0
 46
0.0
 47
0.0
 48
0.0
140
2.5
141
2.5
142
0.0
143
0.03937007874016
144
1.0
145
0.0
146
1.0
147
0.625
 71
     0
 72
     0
 73
     0
 74
     0
 75
     0
 76
     0
 77
     1
 78
     8
170
     0
171
     3
172
     1
173
     0
174
     0
175
     0
176
     0
177
     0
178
     0
270
     2
271
     2
272
     2
273
     2
274
     3
340
11
275
     0
280
     0
281
     0
282
     0
283
     0
284
     8
285
     0
286
     0
287
     3
288
     0
  0
ENDTAB
  0
TABLE
  2
BLOCK_RECORD
  5
1
330
0
100
AcDbSymbolTable
 70
     1
  0
BLOCK_RECORD
  5
1F
330
1
100
AcDbSymbolTableRecord
100
AcDbBlockTableRecord
  2
*MODEL_SPACE
  0
BLOCK_RECORD
  5
1B
330
1
100
AcDbSymbolTableRecord
100
AcDbBlockTableRecord
  2
*PAPER_SPACE
  0
ENDTAB
  0
ENDSEC
  0
SECTION
  2
BLOCKS
  0
BLOCK
  5
20
330
1F
100
AcDbEntity
  8
0
100
AcDbBlockBegin
  2
*MODEL_SPACE
 70
     0
 10
0.0
 20
0.0
 30
0.0
  3
*MODEL_SPACE
  1

  0
ENDBLK
  5
21
330
1F
100
AcDbEntity
  8
0
100
AcDbBlockEnd
  0
BLOCK
  5
1C
330
1B
100
AcDbEntity
 67
     1
  8
0
100
AcDbBlockBegin
  2
*PAPER_SPACE
  1

  0
ENDBLK
  5
1D
330
1B
100
AcDbEntity
 67
     1
  8
0
100
AcDbBlockEnd
  0
ENDSEC
  0
SECTION
  2
ENTITIES
  0
LWPOLYLINE
  5
100
100
AcDbEntity
  8
Layer_1
 62
7
100
AcDbPolyline
 90
493
 70
1
 10
-30.833430
 20
-24.769712
 30
0.0
 10
-31.232066
 20
-24.050158
 30
0.0
 10
-31.461024
 20
-22.861494
 30
0.0
 10
-31.488795
 20
-21.514899
 30
0.0
 10
-31.283848
 20
-20.321664
 30
0.0
 10
-30.962106
 20
-19.473642
 30
0.0
 10
-30.441443
 20
-18.197885
 30
0.0
 10
-29.926590
 20
-16.986164
 30
0.0
 10
-29.622284
 20
-16.330280
 30
0.0
 10
-29.476968
 20
-16.023363
 30
0.0
 10
-29.331649
 20
-15.716446
 30
0.0
 10
-29.186333
 20
-15.409558
 30
0.0
 10
-29.041014
 20
-15.102641
 30
0.0
 10
-28.077808
 20
-13.234132
 30
0.0
 10
-27.179531
 20
-11.729408
 30
0.0
 10
-26.324980
 20
-10.556098
 30
0.0
 10
-25.492954
 20
-9.681773
 30
0.0
 10
-24.827922
 20
-9.219380
 30
0.0
 10
-23.912494
 20
-8.752528
 30
0.0
 10
-22.880557
 20
-8.341584
 30
0.0
 10
-21.866000
 20
-8.046860
 30
0.0
 10
-20.917300
 20
-7.841317
 30
0.0
 10
-20.066788
 20
-7.675738
 30
0.0
 10
-19.259244
 20
-7.540102
 30
0.0
 10
-18.439453
 20
-7.424390
 30
0.0
 10
-17.954822
 20
-7.360919
 30
0.0
 10
-17.555011
 20
-7.306901
 30
0.0
 10
-17.281486
 20
-7.268096
 30
0.0
 10
-17.175712
 20
-7.250316
 30
0.0
 10
-17.184851
 20
-7.159525
 30
0.0
 10
-17.224220
 20
-6.922204
 30
0.0
 10
-17.287497
 20
-6.574365
 30
0.0
 10
-17.368357
 20
-6.152104
 30
0.0
 10
-17.635823
 20
-4.608970
 30
0.0
 10
-17.838127
 20
-3.070068
 30
0.0
 10
-17.966502
 20
-1.614790
 30
0.0
 10
-18.012179
 20
-0.322522
 30
0.0
 10
-18.012321
 20
-0.174440
 30
0.0
 10
-18.012462
 20
-0.026358
 30
0.0
 10
-18.012603
 20
0.121752
 30
0.0
 10
-18.012744
 20
0.269834
 30
0.0
 10
-18.168264
 20
0.338414
 30
0.0
 10
-18.323784
 20
0.406966
 30
0.0
 10
-18.479304
 20
0.475546
 30
0.0
 10
-18.634824
 20
0.544126
 30
0.0
 10
-18.940658
 20
0.672791
 30
0.0
 10
-19.313509
 20
0.820365
 30
0.0
 10
-19.706230
 20
0.968616
 30
0.0
 10
-20.071676
 20
1.099313
 30
0.0
 10
-20.300585
 20
1.173792
 30
0.0
 10
-20.529493
 20
1.248298
 30
0.0
 10
-20.758401
 20
1.322777
 30
0.0
 10
-20.987310
 20
1.397284
 30
0.0
 10
-21.162032
 20
1.443004
 30
0.0
 10
-21.336754
 20
1.488724
 30
0.0
 10
-21.511477
 20
1.534444
 30
0.0
 10
-21.686199
 20
1.580164
 30
0.0
 10
-22.091643
 20
1.675385
 30
0.0
 10
-22.475565
 20
1.732112
 30
0.0
 10
-22.941680
 20
1.760786
 30
0.0
 10
-23.593702
 20
1.771792
 30
0.0
 10
-24.447245
 20
1.759939
 30
0.0
 10
-25.072886
 20
1.675950
 30
0.0
 10
-25.682908
 20
1.470182
 30
0.0
 10
-26.489596
 20
1.092766
 30
0.0
 10
-28.755636
 20
-0.234356
 30
0.0
 10
-31.179259
 20
-1.985827
 30
0.0
 10
-33.357329
 20
-3.845276
 30
0.0
 10
-34.886705
 20
-5.496389
 30
0.0
 10
-34.979367
 20
-5.608686
 30
0.0
 10
-35.082201
 20
-5.713249
 30
0.0
 10
-35.182689
 20
-5.798367
 30
0.0
 10
-35.268306
 20
-5.852356
 30
0.0
 10
-35.366319
 20
-5.890428
 30
0.0
 10
-35.438873
 20
-5.893250
 30
0.0
 10
-35.503237
 20
-5.855574
 30
0.0
 10
-35.576674
 20
-5.773362
 30
0.0
 10
-35.753339
 20
-5.155550
 30
0.0
 10
-35.704879
 20
-4.186511
 30
0.0
 10
-35.458609
 20
-3.060445
 30
0.0
 10
-35.041840
 20
-1.971490
 30
0.0
 10
-34.853809
 20
-1.629437
 30
0.0
 10
-34.594823
 20
-1.260290
 30
0.0
 10
-34.195010
 20
-0.773203
 30
0.0
 10
-33.584498
 20
-0.077412
 30
0.0
 10
-30.802862
 20
2.906298
 30
0.0
 10
-28.516442
 20
5.032532
 30
0.0
 10
-26.631062
 20
6.379635
 30
0.0
 10
-25.052543
 20
7.026036
 30
0.0
 10
-24.593030
 20
7.060637
 30
0.0
 10
-24.133517
 20
7.095237
 30
0.0
 10
-23.674005
 20
7.129866
 30
0.0
 10
-23.214492
 20
7.164466
 30
0.0
 10
-21.937053
 20
7.109348
 30
0.0
 10
-20.550204
 20
6.960194
 30
0.0
 10
-19.101038
 20
6.723381
 30
0.0
 10
-17.636646
 20
6.405430
 30
0.0
 10
-17.410468
 20
6.353388
 30
0.0
 10
-17.220268
 20
6.315881
 30
0.0
 10
-17.086027
 20
6.296407
 30
0.0
 10
-17.027723
 20
6.299230
 30
0.0
 10
-16.993475
 20
6.361601
 30
0.0
 10
-16.924730
 20
6.506352
 30
0.0
 10
-16.831464
 20
6.711923
 30
0.0
 10
-16.723654
 20
6.956694
 30
0.0
 10
-16.437942
 20
7.542588
 30
0.0
 10
-16.087695
 20
8.144794
 30
0.0
 10
-15.696523
 20
8.725663
 30
0.0
 10
-15.288038
 20
9.247520
 30
0.0
 10
-15.131372
 20
9.434831
 30
0.0
 10
-15.003077
 20
9.595134
 30
0.0
 10
-14.916393
 20
9.711466
 30
0.0
 10
-14.884556
 20
9.766725
 30
0.0
 10
-14.914008
 20
9.797600
 30
0.0
 10
-14.994198
 20
9.847553
 30
0.0
 10
-15.112880
 20
9.909670
 30
0.0
 10
-15.257806
 20
9.977065
 30
0.0
 10
-15.800822
 20
10.252429
 30
0.0
 10
-16.508212
 20
10.658095
 30
0.0
 10
-17.234697
 20
11.107450
 30
0.0
 10
-17.834997
 20
11.513821
 30
0.0
 10
-18.438221
 20
11.982988
 30
0.0
 10
-18.898305
 20
12.421702
 30
0.0
 10
-19.274091
 20
12.894029
 30
0.0
 10
-19.624416
 20
13.464146
 30
0.0
 10
-20.278251
 20
14.878336
 30
0.0
 10
-20.935232
 20
16.796096
 30
0.0
 10
-21.609193
 20
19.262975
 30
0.0
 10
-22.313966
 20
22.324521
 30
0.0
 10
-22.458613
 20
22.990382
 30
0.0
 10
-22.609524
 20
23.672463
 30
0.0
 10
-22.748827
 20
24.290687
 30
0.0
 10
-22.858649
 20
24.764976
 30
0.0
 10
-22.976861
 20
25.291961
 30
0.0
 10
-23.037273
 20
25.691873
 30
0.0
 10
-23.053588
 20
26.110961
 30
0.0
 10
-23.039505
 20
26.695483
 30
0.0
 10
-22.989498
 20
27.456515
 30
0.0
 10
-22.889142
 20
28.093920
 30
0.0
 10
-22.725720
 20
28.666010
 30
0.0
 10
-22.486516
 20
29.231097
 30
0.0
 10
-22.329569
 20
29.513661
 30
0.0
 10
-22.155821
 20
29.763580
 30
0.0
 10
-21.995561
 20
29.942018
 30
0.0
 10
-21.879075
 20
30.010130
 30
0.0
 10
-21.718448
 20
29.951882
 30
0.0
 10
-21.582201
 20
29.781953
 30
0.0
 10
-21.474304
 20
29.507565
 30
0.0
 10
-21.398724
 20
29.135938
 30
0.0
 10
-21.211618
 20
28.210805
 30
0.0
 10
-20.858335
 20
26.740159
 30
0.0
 10
-20.428695
 20
25.082851
 30
0.0
 10
-20.012519
 20
23.597739
 30
0.0
 10
-19.208928
 20
21.096522
 30
0.0
 10
-18.424826
 20
19.065072
 30
0.0
 10
-17.676906
 20
17.542116
 30
0.0
 10
-16.981859
 20
16.566387
 30
0.0
 10
-16.336540
 20
16.015534
 30
0.0
 10
-15.448954
 20
15.428509
 30
0.0
 10
-14.401686
 20
14.854858
 30
0.0
 10
-13.277320
 20
14.344115
 30
0.0
 10
-12.562412
 20
14.070331
 30
0.0
 10
-11.696694
 20
13.760000
 30
0.0
 10
-10.945685
 20
13.505802
 30
0.0
 10
-10.574904
 20
13.400477
 30
0.0
 10
-10.555334
 20
13.427006
 30
0.0
 10
-10.580514
 20
13.502133
 30
0.0
 10
-10.647033
 20
13.618663
 30
0.0
 10
-10.751479
 20
13.769454
 30
0.0
 10
-10.982939
 20
14.159260
 30
0.0
 10
-11.191502
 20
14.656507
 30
0.0
 10
-11.362064
 20
15.218964
 30
0.0
 10
-11.479519
 20
15.804389
 30
0.0
 10
-11.510891
 20
16.131107
 30
0.0
 10
-11.528572
 20
16.581096
 30
0.0
 10
-11.532145
 20
17.134466
 30
0.0
 10
-11.521183
 20
17.771323
 30
0.0
 10
-11.472126
 20
18.782534
 30
0.0
 10
-11.372616
 20
19.646142
 30
0.0
 10
-11.201508
 20
20.496035
 30
0.0
 10
-10.937658
 20
21.466083
 30
0.0
 10
-10.685806
 20
22.168176
 30
0.0
 10
-10.317460
 20
23.020380
 30
0.0
 10
-9.903797
 20
23.867978
 30
0.0
 10
-9.515995
 20
24.556256
 30
0.0
 10
-8.906056
 20
25.423005
 30
0.0
 10
-8.184626
 20
26.286125
 30
0.0
 10
-7.418152
 20
27.071979
 30
0.0
 10
-6.673083
 20
27.706917
 30
0.0
 10
-6.442661
 20
27.883055
 30
0.0
 10
-6.212239
 20
28.059195
 30
0.0
 10
-5.981817
 20
28.235333
 30
0.0
 10
-5.751396
 20
28.411470
 30
0.0
 10
-5.681599
 20
28.432891
 30
0.0
 10
-5.542231
 20
28.494252
 30
0.0
 10
-5.353498
 20
28.586118
 30
0.0
 10
-5.135607
 20
28.699061
 30
0.0
 10
-4.286987
 20
29.104950
 30
0.0
 10
-3.404645
 20
29.438920
 30
0.0
 10
-2.511659
 20
29.693324
 30
0.0
 10
-1.631109
 20
29.860507
 30
0.0
 10
-0.898216
 20
29.921040
 30
0.0
 10
-0.007538
 20
29.935716
 30
0.0
 10
0.881503
 20
29.905916
 30
0.0
 10
1.609485
 20
29.832979
 30
0.0
 10
2.201406
 20
29.717445
 30
0.0
 10
2.823766
 20
29.561472
 30
0.0
 10
3.373677
 20
29.393499
 30
0.0
 10
3.748249
 20
29.241955
 30
0.0
 10
3.829649
 20
29.200276
 30
0.0
 10
3.899091
 20
29.167439
 30
0.0
 10
3.949211
 20
29.146753
 30
0.0
 10
3.972647
 20
29.141475
 30
0.0
 10
4.147738
 20
29.082728
 30
0.0
 10
4.520341
 20
28.904380
 30
0.0
 10
4.983957
 20
28.660244
 30
0.0
 10
5.432083
 20
28.404119
 30
0.0
 10
5.724766
 20
28.234768
 30
0.0
 10
5.935446
 20
28.130673
 30
0.0
 10
6.076247
 20
28.086726
 30
0.0
 10
6.159294
 20
28.097817
 30
0.0
 10
6.341584
 20
27.925947
 30
0.0
 10
6.523874
 20
27.754076
 30
0.0
 10
6.706164
 20
27.582203
 30
0.0
 10
6.888454
 20
27.410332
 30
0.0
 10
7.105996
 20
27.182520
 30
0.0
 10
7.323538
 20
26.954704
 30
0.0
 10
7.541080
 20
26.726892
 30
0.0
 10
7.758622
 20
26.499079
 30
0.0
 10
8.805900
 20
25.266846
 30
0.0
 10
9.659111
 20
23.958701
 30
0.0
 10
10.334889
 20
22.545036
 30
0.0
 10
10.849864
 20
20.996242
 30
0.0
 10
11.060990
 20
20.150959
 30
0.0
 10
11.199606
 20
19.408486
 30
0.0
 10
11.282769
 20
18.653663
 30
0.0
 10
11.327539
 20
17.771312
 30
0.0
 10
11.330993
 20
16.836657
 30
0.0
 10
11.273572
 20
16.049116
 30
0.0
 10
11.150795
 20
15.372276
 30
0.0
 10
10.958181
 20
14.769720
 30
0.0
 10
10.891391
 20
14.594150
 30
0.0
 10
10.840533
 20
14.446435
 30
0.0
 10
10.810583
 20
14.342097
 30
0.0
 10
10.806519
 20
14.296688
 30
0.0
 10
10.863501
 20
14.301485
 30
0.0
 10
10.999760
 20
14.334110
 30
0.0
 10
11.194890
 20
14.389087
 30
0.0
 10
11.428483
 20
14.461026
 30
0.0
 10
13.176194
 20
15.071822
 30
0.0
 10
14.683784
 20
15.711640
 30
0.0
 10
15.962492
 20
16.385776
 30
0.0
 10
17.023558
 20
17.099535
 30
0.0
 10
17.392672
 20
17.423515
 30
0.0
 10
17.733907
 20
17.815324
 30
0.0
 10
18.073091
 20
18.308561
 30
0.0
 10
18.436050
 20
18.936816
 30
0.0
 10
19.091071
 20
20.367530
 30
0.0
 10
19.816863
 20
22.330409
 30
0.0
 10
20.551934
 20
24.645379
 30
0.0
 10
21.234791
 20
27.132372
 30
0.0
 10
21.354393
 20
27.591225
 30
0.0
 10
21.461886
 20
27.978937
 30
0.0
 10
21.545502
 20
28.254654
 30
0.0
 10
21.593470
 20
28.377514
 30
0.0
 10
21.600602
 20
28.406376
 30
0.0
 10
21.607733
 20
28.435239
 30
0.0
 10
21.614868
 20
28.464105
 30
0.0
 10
21.622000
 20
28.492968
 30
0.0
 10
21.659996
 20
28.853634
 30
0.0
 10
21.809935
 20
29.600679
 30
0.0
 10
21.991836
 20
30.368890
 30
0.0
 10
22.125716
 20
30.793054
 30
0.0
 10
22.176920
 20
30.856697
 30
0.0
 10
22.239016
 20
30.908815
 30
0.0
 10
22.304168
 20
30.944028
 30
0.0
 10
22.364541
 20
30.956954
 30
0.0
 10
22.503670
 20
30.896553
 30
0.0
 10
22.674366
 20
30.736996
 30
0.0
 10
22.847667
 20
30.510769
 30
0.0
 10
22.994613
 20
30.250346
 30
0.0
 10
23.067939
 20
30.057898
 30
0.0
 10
23.141265
 20
29.865451
 30
0.0
 10
23.214592
 20
29.673007
 30
0.0
 10
23.287918
 20
29.480559
 30
0.0
 10
23.423097
 20
29.002616
 30
0.0
 10
23.514111
 20
28.524105
 30
0.0
 10
23.566060
 20
28.009620
 30
0.0
 10
23.584040
 20
27.423760
 30
0.0
 10
23.562072
 20
26.872312
 30
0.0
 10
23.430040
 20
26.045297
 30
0.0
 10
23.096047
 20
24.468739
 30
0.0
 10
22.468195
 20
21.668659
 30
0.0
 10
21.931224
 20
19.450009
 30
0.0
 10
21.394379
 20
17.559541
 30
0.0
 10
20.851640
 20
15.977883
 30
0.0
 10
20.296984
 20
14.685666
 30
0.0
 10
19.701437
 20
13.727606
 30
0.0
 10
18.850644
 20
12.859745
 30
0.0
 10
17.636897
 20
11.991488
 30
0.0
 10
15.952489
 20
11.032328
 30
0.0
 10
15.672453
 20
10.884133
 30
0.0
 10
15.392417
 20
10.735966
 30
0.0
 10
15.112381
 20
10.587771
 30
0.0
 10
14.832346
 20
10.439605
 30
0.0
 10
14.878724
 20
10.395352
 30
0.0
 10
14.925102
 20
10.351100
 30
0.0
 10
14.971481
 20
10.306847
 30
0.0
 10
15.017859
 20
10.262595
 30
0.0
 10
15.486171
 20
9.751970
 30
0.0
 10
15.964735
 20
9.114543
 30
0.0
 10
16.421474
 20
8.396795
 30
0.0
 10
16.824310
 20
7.645153
 30
0.0
 10
16.915244
 20
7.459281
 30
0.0
 10
16.993089
 20
7.303213
 30
0.0
 10
17.049571
 20
7.193343
 30
0.0
 10
17.076419
 20
7.146043
 30
0.0
 10
17.159843
 20
7.153945
 30
0.0
 10
17.370372
 20
7.194529
 30
0.0
 10
17.676207
 20
7.261161
 30
0.0
 10
18.045547
 20
7.347211
 30
0.0
 10
19.070976
 20
7.569235
 30
0.0
 10
20.233300
 20
7.783639
 30
0.0
 10
21.382664
 20
7.964770
 30
0.0
 10
22.369212
 20
8.086972
 30
0.0
 10
23.198210
 20
8.134498
 30
0.0
 10
24.086529
 20
8.129700
 30
0.0
 10
24.918076
 20
8.076755
 30
0.0
 10
25.576760
 20
7.979445
 30
0.0
 10
26.516232
 20
7.660873
 30
0.0
 10
27.551311
 20
7.093042
 30
0.0
 10
28.707907
 20
6.259414
 30
0.0
 10
30.011923
 20
5.143394
 30
0.0
 10
31.437614
 20
3.752716
 30
0.0
 10
33.073410
 20
2.033108
 30
0.0
 10
34.510573
 20
0.426953
 30
0.0
 10
35.340372
 20
-0.623422
 30
0.0
 10
35.886139
 20
-1.817194
 30
0.0
 10
36.217504
 20
-3.142989
 30
0.0
 10
36.281752
 20
-4.273515
 30
0.0
 10
36.026155
 20
-4.881421
 30
0.0
 10
35.879495
 20
-4.900048
 30
0.0
 10
35.692878
 20
-4.803415
 30
0.0
 10
35.450243
 20
-4.579387
 30
0.0
 10
35.135540
 20
-4.215998
 30
0.0
 10
33.256530
 20
-2.314413
 30
0.0
 10
30.770034
 20
-0.313627
 30
0.0
 10
28.172282
 20
1.421673
 30
0.0
 10
25.959507
 20
2.526912
 30
0.0
 10
25.384207
 20
2.663931
 30
0.0
 10
24.640298
 20
2.743207
 30
0.0
 10
23.838775
 20
2.757883
 30
0.0
 10
23.090634
 20
2.701382
 30
0.0
 10
22.158444
 20
2.528521
 30
0.0
 10
21.162426
 20
2.259365
 30
0.0
 10
20.112605
 20
1.896992
 30
0.0
 10
19.019008
 20
1.444533
 30
0.0
 10
18.812425
 20
1.352303
 30
0.0
 10
18.605842
 20
1.260101
 30
0.0
 10
18.399258
 20
1.167871
 30
0.0
 10
18.192675
 20
1.075641
 30
0.0
 10
18.183173
 20
0.617396
 30
0.0
 10
18.173671
 20
0.159152
 30
0.0
 10
18.164168
 20
-0.299120
 30
0.0
 10
18.154666
 20
-0.757365
 30
0.0
 10
18.107017
 20
-2.110620
 30
0.0
 10
18.021060
 20
-3.313056
 30
0.0
 10
17.892443
 20
-4.411352
 30
0.0
 10
17.716809
 20
-5.452216
 30
0.0
 10
17.657859
 20
-5.773385
 30
0.0
 10
17.615973
 20
-6.040057
 30
0.0
 10
17.595021
 20
-6.224489
 30
0.0
 10
17.598871
 20
-6.298911
 30
0.0
 10
17.663069
 20
-6.312457
 30
0.0
 10
17.806421
 20
-6.331084
 30
0.0
 10
18.007704
 20
-6.352251
 30
0.0
 10
18.245699
 20
-6.373700
 30
0.0
 10
19.584801
 20
-6.535187
 30
0.0
 10
21.046955
 20
-6.792376
 30
0.0
 10
22.449039
 20
-7.108663
 30
0.0
 10
23.607929
 20
-7.447329
 30
0.0
 10
24.681751
 20
-7.879383
 30
0.0
 10
25.559000
 20
-8.379199
 30
0.0
 10
26.303875
 20
-8.990775
 30
0.0
 10
26.980572
 20
-9.758109
 30
0.0
 10
27.727175
 20
-10.825755
 30
0.0
 10
28.521854
 20
-12.143931
 30
0.0
 10
29.321742
 20
-13.637055
 30
0.0
 10
30.083962
 20
-15.229551
 30
0.0
 10
30.189005
 20
-15.468254
 30
0.0
 10
30.294051
 20
-15.706986
 30
0.0
 10
30.399094
 20
-15.945690
 30
0.0
 10
30.504140
 20
-16.184421
 30
0.0
 10
30.663785
 20
-16.525233
 30
0.0
 10
30.980859
 20
-17.269792
 30
0.0
 10
31.336747
 20
-18.134464
 30
0.0
 10
31.612825
 20
-18.835589
 30
0.0
 10
31.835766
 20
-19.501069
 30
0.0
 10
31.969537
 20
-20.097997
 30
0.0
 10
32.025871
 20
-20.700316
 30
0.0
 10
32.016501
 20
-21.382080
 30
0.0
 10
31.911839
 20
-22.324843
 30
0.0
 10
31.718500
 20
-23.111876
 30
0.0
 10
31.464528
 20
-23.659529
 30
0.0
 10
31.177971
 20
-23.884093
 30
0.0
 10
31.025930
 20
-23.876473
 30
0.0
 10
30.904374
 20
-23.767507
 30
0.0
 10
30.770448
 20
-23.492792
 30
0.0
 10
30.581314
 20
-22.987924
 30
0.0
 10
30.241922
 20
-22.152349
 30
0.0
 10
29.756014
 20
-21.080779
 30
0.0
 10
29.221895
 20
-19.982371
 30
0.0
 10
28.737855
 20
-19.066193
 30
0.0
 10
28.481987
 20
-18.621523
 30
0.0
 10
28.226116
 20
-18.176854
 30
0.0
 10
27.970247
 20
-17.732185
 30
0.0
 10
27.714378
 20
-17.287515
 30
0.0
 10
26.855793
 20
-15.914363
 30
0.0
 10
26.076086
 20
-14.772238
 30
0.0
 10
25.347600
 20
-13.822842
 30
0.0
 10
24.642680
 20
-13.027794
 30
0.0
 10
24.276217
 20
-12.658676
 30
0.0
 10
23.987891
 20
-12.404535
 30
0.0
 10
23.721107
 20
-12.220751
 30
0.0
 10
23.419269
 20
-12.062651
 30
0.0
 10
22.795164
 20
-11.797757
 30
0.0
 10
22.208960
 20
-11.643325
 30
0.0
 10
21.503275
 20
-11.571753
 30
0.0
 10
20.520726
 20
-11.555667
 30
0.0
 10
19.489939
 20
-11.581349
 30
0.0
 10
18.573035
 20
-11.668781
 30
0.0
 10
17.608245
 20
-11.840147
 30
0.0
 10
16.433798
 20
-12.117769
 30
0.0
 10
16.202997
 20
-12.176301
 30
0.0
 10
15.972197
 20
-12.234834
 30
0.0
 10
15.741396
 20
-12.293395
 30
0.0
 10
15.510596
 20
-12.351928
 30
0.0
 10
15.412581
 20
-12.537010
 30
0.0
 10
15.314567
 20
-12.722091
 30
0.0
 10
15.216552
 20
-12.907201
 30
0.0
 10
15.118538
 20
-13.092282
 30
0.0
 10
12.870785
 20
-16.589862
 30
0.0
 10
10.206165
 20
-19.430570
 30
0.0
 10
7.198680
 20
-21.549748
 30
0.0
 10
3.922328
 20
-22.882627
 30
0.0
 10
3.727389
 20
-22.935487
 30
0.0
 10
3.532449
 20
-22.988348
 30
0.0
 10
3.337510
 20
-23.041208
 30
0.0
 10
3.142571
 20
-23.094068
 30
0.0
 10
2.852839
 20
-23.141679
 30
0.0
 10
2.563108
 20
-23.189290
 30
0.0
 10
2.273376
 20
-23.236929
 30
0.0
 10
1.983645
 20
-23.284540
 30
0.0
 10
0.948420
 20
-23.369235
 30
0.0
 10
-0.272883
 20
-23.376008
 30
0.0
 10
-1.481461
 20
-23.309714
 30
0.0
 10
-2.478506
 20
-23.175235
 30
0.0
 10
-3.410018
 20
-22.967774
 30
0.0
 10
-4.228634
 20
-22.739343
 30
0.0
 10
-5.014188
 20
-22.464910
 30
0.0
 10
-5.846515
 20
-22.119442
 30
0.0
 10
-8.299280
 20
-20.748435
 30
0.0
 10
-10.589930
 20
-18.891074
 30
0.0
 10
-12.660684
 20
-16.602280
 30
0.0
 10
-14.453765
 20
-13.937001
 30
0.0
 10
-14.636465
 20
-13.631552
 30
0.0
 10
-14.779663
 20
-13.457901
 30
0.0
 10
-14.954004
 20
-13.354410
 30
0.0
 10
-15.230130
 20
-13.259386
 30
0.0
 10
-16.061340
 20
-13.040155
 30
0.0
 10
-17.126188
 20
-12.819260
 30
0.0
 10
-18.228583
 20
-12.633473
 30
0.0
 10
-19.172436
 20
-12.519625
 30
0.0
 10
-20.450932
 20
-12.485589
 30
0.0
 10
-21.581673
 20
-12.604179
 30
0.0
 10
-22.556418
 20
-12.873870
 30
0.0
 10
-23.366921
 20
-13.293111
 30
0.0
 10
-24.887092
 20
-14.872370
 30
0.0
 10
-26.754620
 20
-17.543491
 30
0.0
 10
-28.575944
 20
-20.686176
 30
0.0
 10
-29.957503
 20
-23.680159
 30
0.0
 10
-30.075379
 20
-23.989729
 30
0.0
 10
-30.181534
 20
-24.267209
 30
0.0
 10
-30.264338
 20
-24.482235
 30
0.0
 10
-30.312152
 20
-24.604493
 30
0.0
 10
-30.409796
 20
-24.767335
 30
0.0
 10
-30.534939
 20
-24.850930
 30
0.0
 10
-30.678976
 20
-24.853752
 30
0.0
 10
-30.833309
 20
-24.770779
 30
0.0
 10
-30.833341
 20
-24.770750
 30
0.0
 10
-30.833374
 20
-24.770694
 30
0.0
 10
-30.833405
 20
-24.770666
 30
0.0
 10
-30.833430
 20
-24.769712
 30
0.0
  0
LWPOLYLINE
  5
101
100
AcDbEntity
  8
Layer_1
 62
7
100
AcDbPolyline
 90
5
 70
1
 10
-2.336440
 20
-23.206709
 30
0.0
 10
-2.336440
 20
-23.206709
 30
0.0
 10
-2.336440
 20
-23.206709
 30
0.0
 10
-2.336440
 20
-23.206709
 30
0.0
 10
-2.336440
 20
-23.206709
 30
0.0
  0
LWPOLYLINE
  5
102
100
AcDbEntity
  8
Layer_1
 62
7
100
AcDbPolyline
 90
17
 70
1
 10
19.383083
 20
13.498916
 30
0.0
 10
19.373268
 20
13.517543
 30
0.0
 10
19.346539
 20
13.547740
 30
0.0
 10
19.306978
 20
13.585417
 30
0.0
 10
19.258668
 20
13.626396
 30
0.0
 10
19.194468
 20
13.676575
 30
0.0
 10
19.169802
 20
13.689839
 30
0.0
 10
19.182858
 20
13.664722
 30
0.0
 10
19.231829
 20
13.599020
 30
0.0
 10
19.294646
 20
13.523780
 30
0.0
 10
19.342288
 20
13.481023
 30
0.0
 10
19.372515
 20
13.472274
 30
0.0
 10
19.383087
 20
13.499085
 30
0.0
 10
19.383087
 20
13.499057
 30
0.0
 10
19.383086
 20
13.499029
 30
0.0
 10
19.383085
 20
13.499001
 30
0.0
 10
19.383083
 20
13.498916
 30
0.0
  0
ENDSEC
  0
SECTION
  2
OBJECTS
  0
DICTIONARY
  5
C
330
0
100
AcDbDictionary
  3
ACAD_GROUP
350
D
  3
ACAD_MLINESTYLE
350
17
  0
DICTIONARY
  5
D
330
C
100
AcDbDictionary
  0
DICTIONARY
  5
1A
330
C
100
AcDbDictionary
  0
DICTIONARY
  5
17
330
C
100
AcDbDictionary
  3
STANDARD
350
18
  0
DICTIONARY
  5
19
330
C
100
AcDbDictionary
  0
ENDSEC
  0
EOF
