  0
SECTION
  2
HEADER
  9
$ACADVER
  1
AC1014
  9
$HANDSEED
  5
FFFF
  9
$MEASUREMENT
 70
     1
  0
ENDSEC
  0
SECTION
  2
TABLES
  0
TABLE
  2
VPORT
  5
8
330
0
100
AcDbSymbolTable
 70
     4
  0
VPORT
  5
2E
330
8
100
AcDbSymbolTableRecord
100
AcDbViewportTableRecord
  2
*ACTIVE
 70
     0
 10
0.0
 20
0.0
 11
1.0
 21
1.0
 12
210.0
 22
148.5
 13
0.0
 23
0.0
 14
10.0
 24
10.0
 15
10.0
 25
10.0
 16
0.0
 26
0.0
 36
1.0
 17
0.0
 27
0.0
 37
0.0
 40
341.0
 41
1.24
 42
50.0
 43
0.0
 44
0.0
 50
0.0
 51
0.0
 71
     0
 72
   100
 73
     1
 74
     3
 75
     0
 76
     0
 77
     0
 78
     0
  0
ENDTAB
  0
TABLE
  2
LTYPE
  5
5
330
0
100
AcDbSymbolTable
 70
     1
  0
LTYPE
  5
14
330
5
100
AcDbSymbolTableRecord
100
AcDbLinetypeTableRecord
  2
BYBLOCK
 70
     0
  3

 72
    65
 73
     0
 40
0.0
  0
LTYPE
  5
15
330
5
100
AcDbSymbolTableRecord
100
AcDbLinetypeTableRecord
  2
BYLAYER
 70
     0
  3

 72
    65
 73
     0
 40
0.0
  0
LTYPE
  5
16
330
5
100
AcDbSymbolTableRecord
100
AcDbLinetypeTableRecord
  2
CONTINUOUS
 70
     0
  3
Solid line
 72
    65
 73
     0
 40
0.0
  0
ENDTAB
  0
TABLE
  2
LAYER
  5
2
100
AcDbSymbolTable
 70
1
  0
LAYER
  5
50
100
AcDbSymbolTableRecord
100
AcDbLayerTableRecord
  2
0
 70
0
  6
CONTINUOUS
  0
ENDTAB
  0
TABLE
  2
STYLE
  5
3
330
0
100
AcDbSymbolTable
 70
     1
  0
STYLE
  5
11
330
3
100
AcDbSymbolTableRecord
100
AcDbTextStyleTableRecord
  2
STANDARD
 70
     0
 40
0.0
 41
1.0
 50
0.0
 71
     0
 42
2.5
  3
txt
  4

  0
ENDTAB
  0
TABLE
  2
VIEW
  5
6
330
0
100
AcDbSymbolTable
 70
     0
  0
ENDTAB
  0
TABLE
  2
UCS
  5
7
330
0
100
AcDbSymbolTable
 70
     0
  0
ENDTAB
  0
TABLE
  2
APPID
  5
9
330
0
100
AcDbSymbolTable
 70
     2
  0
APPID
  5
12
330
9
100
AcDbSymbolTableRecord
100
AcDbRegAppTableRecord
  2
ACAD
 70
     0
  0
ENDTAB
  0
TABLE
  2
DIMSTYLE
  5
A
330
0
100
AcDbSymbolTable
 70
     1
  0
DIMSTYLE
105
27
330
A
100
AcDbSymbolTableRecord
100
AcDbDimStyleTableRecord
  2
ISO-25
 70
     0
  3

  4

  5

  6

  7

 40
1.0
 41
2.5
 42
0.625
 43
3.75
 44
1.25
 45
0.0
 46
0.0
 47
0.0
 48
0.0
140
2.5
141
2.5
142
0.0
143
0.03937007874016
144
1.0
145
0.0
146
1.0
147
0.625
 71
     0
 72
     0
 73
     0
 74
     0
 75
     0
 76
     0
 77
     1
 78
     8
170
     0
171
     3
172
     1
173
     0
174
     0
175
     0
176
     0
177
     0
178
     0
270
     2
271
     2
272
     2
273
     2
274
     3
340
11
275
     0
280
     0
281
     0
282
     0
283
     0
284
     8
285
     0
286
     0
287
     3
288
     0
  0
ENDTAB
  0
TABLE
  2
BLOCK_RECORD
  5
1
330
0
100
AcDbSymbolTable
 70
     1
  0
BLOCK_RECORD
  5
1F
330
1
100
AcDbSymbolTableRecord
100
AcDbBlockTableRecord
  2
*MODEL_SPACE
  0
BLOCK_RECORD
  5
1B
330
1
100
AcDbSymbolTableRecord
100
AcDbBlockTableRecord
  2
*PAPER_SPACE
  0
ENDTAB
  0
ENDSEC
  0
SECTION
  2
BLOCKS
  0
BLOCK
  5
20
330
1F
100
AcDbEntity
  8
0
100
AcDbBlockBegin
  2
*MODEL_SPACE
 70
     0
 10
0.0
 20
0.0
 30
0.0
  3
*MODEL_SPACE
  1

  0
ENDBLK
  5
21
330
1F
100
AcDbEntity
  8
0
100
AcDbBlockEnd
  0
BLOCK
  5
1C
330
1B
100
AcDbEntity
 67
     1
  8
0
100
AcDbBlockBegin
  2
*PAPER_SPACE
  1

  0
ENDBLK
  5
1D
330
1B
100
AcDbEntity
 67
     1
  8
0
100
AcDbBlockEnd
  0
ENDSEC
  0
SECTION
  2
ENTITIES
  0
LWPOLYLINE
  5
100
100
AcDbEntity
  8
0
 62
7
100
AcDbPolyline
 90
40
 70
0
 10
94.841488
 20
47.375464
 30
0.0
 10
78.627589
 20
63.995928
 30
0.0
 10
69.935573
 20
75.512928
 30
0.0
 10
71.239965
 20
86.912600
 30
0.0
 10
71.279325
 20
105.201768
 30
0.0
 10
70.242157
 20
112.319136
 30
0.0
 10
74.668917
 20
107.023880
 30
0.0
 10
78.867813
 20
101.500760
 30
0.0
 10
77.907197
 20
92.037232
 30
0.0
 10
76.946589
 20
82.573704
 30
0.0
 10
82.238424
 20
73.796520
 30
0.0
 10
87.530264
 20
65.019336
 30
0.0
 10
89.677808
 20
69.996520
 30
0.0
 10
92.418336
 20
74.973704
 30
0.0
 10
95.132424
 20
71.354344
 30
0.0
 10
99.223080
 20
71.410584
 30
0.0
 10
102.913144
 20
71.414584
 30
0.0
 10
105.124160
 20
67.773328
 30
0.0
 10
107.475920
 20
71.373328
 30
0.0
 10
109.965856
 20
74.973328
 30
0.0
 10
111.920856
 20
71.373328
 30
0.0
 10
113.871504
 20
67.773328
 30
0.0
 10
115.905520
 20
71.828496
 30
0.0
 10
117.363736
 20
75.883656
 30
0.0
 10
119.807472
 20
71.628496
 30
0.0
 10
122.251208
 20
67.373328
 30
0.0
 10
126.584096
 20
76.554088
 30
0.0
 10
130.916976
 20
85.734840
 30
0.0
 10
129.344896
 20
93.617872
 30
0.0
 10
127.772824
 20
101.500904
 30
0.0
 10
132.584976
 20
107.037120
 30
0.0
 10
137.618608
 20
112.573704
 30
0.0
 10
136.263224
 20
107.001584
 30
0.0
 10
136.252184
 20
89.607544
 30
0.0
 10
137.605312
 20
77.379656
 30
0.0
 10
129.878024
 20
64.619928
 30
0.0
 10
115.984752
 20
47.219928
 30
0.0
 10
105.984752
 20
42.222856
 30
0.0
 10
94.841520
 20
47.375464
 30
0.0
 10
94.841488
 20
47.375464
 30
0.0
  0
LWPOLYLINE
  5
101
100
AcDbEntity
  8
0
 62
7
100
AcDbPolyline
 90
68
 70
0
 10
83.967152
 20
87.754240
 30
0.0
 10
83.558208
 20
98.158040
 30
0.0
 10
74.473245
 20
112.375984
 30
0.0
 10
67.631197
 20
118.944624
 30
0.0
 10
67.397285
 20
125.050520
 30
0.0
 10
67.163373
 20
131.156416
 30
0.0
 10
62.294261
 20
132.916952
 30
0.0
 10
51.497901
 20
139.315248
 30
0.0
 10
43.767013
 20
150.018538
 30
0.0
 10
43.779013
 20
165.298206
 30
0.0
 10
45.585581
 20
171.222704
 30
0.0
 10
53.795253
 20
176.298206
 30
0.0
 10
62.415997
 20
181.373708
 30
0.0
 10
57.664837
 20
174.979948
 30
0.0
 10
52.502605
 20
168.586187
 30
0.0
 10
54.600397
 20
162.187238
 30
0.0
 10
56.698181
 20
155.788289
 30
0.0
 10
63.130797
 20
153.083070
 30
0.0
 10
69.836341
 20
150.615378
 30
0.0
 10
71.436341
 20
156.063086
 30
0.0
 10
79.227061
 20
166.361073
 30
0.0
 10
85.690720
 20
171.448886
 30
0.0
 10
96.027064
 20
173.180249
 30
0.0
 10
106.363408
 20
174.911611
 30
0.0
 10
115.904696
 20
173.107486
 30
0.0
 10
130.033592
 20
167.338534
 30
0.0
 10
136.032728
 20
157.373708
 30
0.0
 10
137.903832
 20
150.842482
 30
0.0
 10
143.963408
 20
152.073170
 30
0.0
 10
149.563408
 20
153.835082
 30
0.0
 10
150.844824
 20
161.195658
 30
0.0
 10
152.126240
 20
168.556233
 30
0.0
 10
148.273776
 20
174.964970
 30
0.0
 10
144.992360
 20
181.320204
 30
0.0
 10
153.539248
 20
176.320204
 30
0.0
 10
161.515088
 20
171.373708
 30
0.0
 10
163.646984
 20
163.640610
 30
0.0
 10
165.778880
 20
155.907511
 30
0.0
 10
163.775048
 20
148.840610
 30
0.0
 10
161.771224
 20
141.773704
 30
0.0
 10
154.067312
 20
136.489520
 30
0.0
 10
142.163408
 20
129.825224
 30
0.0
 10
137.963408
 20
128.445120
 30
0.0
 10
137.963408
 20
123.788568
 30
0.0
 10
137.963408
 20
119.132016
 30
0.0
 10
133.027544
 20
114.856000
 30
0.0
 10
125.303288
 20
106.221040
 30
0.0
 10
123.431304
 20
98.435776
 30
0.0
 10
123.395624
 20
88.885328
 30
0.0
 10
122.443528
 20
82.761192
 30
0.0
 10
119.911520
 20
85.777104
 30
0.0
 10
117.379512
 20
88.793008
 30
0.0
 10
115.962784
 20
85.083360
 30
0.0
 10
114.014136
 20
81.373704
 30
0.0
 10
111.655736
 20
85.133192
 30
0.0
 10
109.829232
 20
88.892672
 30
0.0
 10
107.761792
 20
85.133192
 30
0.0
 10
105.163408
 20
81.373704
 30
0.0
 10
102.584736
 20
85.097344
 30
0.0
 10
100.537000
 20
88.820992
 30
0.0
 10
98.159152
 20
84.657528
 30
0.0
 10
95.781304
 20
80.494072
 30
0.0
 10
93.188960
 20
84.533888
 30
0.0
 10
90.346048
 20
88.573704
 30
0.0
 10
87.743136
 20
84.499304
 30
0.0
 10
85.390800
 20
80.424912
 30
0.0
 10
83.967184
 20
87.754240
 30
0.0
 10
83.967152
 20
87.754240
 30
0.0
  0
LWPOLYLINE
  5
102
100
AcDbEntity
  8
0
 62
7
100
AcDbPolyline
 90
11
 70
0
 10
105.454512
 20
102.973704
 30
0.0
 10
108.896456
 20
101.612944
 30
0.0
 10
108.751160
 20
106.973704
 30
0.0
 10
107.767504
 20
109.773704
 30
0.0
 10
106.625936
 20
107.020544
 30
0.0
 10
105.484368
 20
104.267384
 30
0.0
 10
104.426816
 20
106.820544
 30
0.0
 10
101.954568
 20
107.973704
 30
0.0
 10
101.434240
 20
103.373704
 30
0.0
 10
102.506032
 20
101.573704
 30
0.0
 10
105.454512
 20
102.973704
 30
0.0
  0
LWPOLYLINE
  5
103
100
AcDbEntity
  8
0
 62
7
100
AcDbPolyline
 90
7
 70
0
 10
92.687368
 20
115.973040
 30
0.0
 10
83.964400
 20
125.693408
 30
0.0
 10
76.765429
 20
133.614440
 30
0.0
 10
75.810573
 20
129.314560
 30
0.0
 10
75.247677
 20
124.622728
 30
0.0
 10
93.887368
 20
114.190536
 30
0.0
 10
92.687368
 20
115.973040
 30
0.0
  0
LWPOLYLINE
  5
104
100
AcDbEntity
  8
0
 62
7
100
AcDbPolyline
 90
6
 70
0
 10
129.770504
 20
124.112208
 30
0.0
 10
129.294592
 20
129.408152
 30
0.0
 10
127.811544
 20
133.771200
 30
0.0
 10
121.687456
 20
124.338768
 30
0.0
 10
115.563376
 20
114.473424
 30
0.0
 10
129.770504
 20
124.112208
 30
0.0
  0
ENDSEC
  0
SECTION
  2
OBJECTS
  0
DICTIONARY
  5
C
330
0
100
AcDbDictionary
  3
ACAD_GROUP
350
D
  3
ACAD_MLINESTYLE
350
17
  0
DICTIONARY
  5
D
330
C
100
AcDbDictionary
  0
DICTIONARY
  5
1A
330
C
100
AcDbDictionary
  0
DICTIONARY
  5
17
330
C
100
AcDbDictionary
  3
STANDARD
350
18
  0
DICTIONARY
  5
19
330
C
100
AcDbDictionary
  0
ENDSEC
  0
EOF
