  0
SECTION
  2
HEADER
  9
$ACADVER
  1
AC1014
  9
$HANDSEED
  5
FFFF
  9
$MEASUREMENT
 70
     1
  0
ENDSEC
  0
SECTION
  2
TABLES
  0
TABLE
  2
VPORT
  5
8
330
0
100
AcDbSymbolTable
 70
     4
  0
VPORT
  5
2E
330
8
100
AcDbSymbolTableRecord
100
AcDbViewportTableRecord
  2
*ACTIVE
 70
     0
 10
0.0
 20
0.0
 11
1.0
 21
1.0
 12
210.0
 22
148.5
 13
0.0
 23
0.0
 14
10.0
 24
10.0
 15
10.0
 25
10.0
 16
0.0
 26
0.0
 36
1.0
 17
0.0
 27
0.0
 37
0.0
 40
341.0
 41
1.24
 42
50.0
 43
0.0
 44
0.0
 50
0.0
 51
0.0
 71
     0
 72
   100
 73
     1
 74
     3
 75
     0
 76
     0
 77
     0
 78
     0
  0
ENDTAB
  0
TABLE
  2
LTYPE
  5
5
330
0
100
AcDbSymbolTable
 70
     1
  0
LTYPE
  5
14
330
5
100
AcDbSymbolTableRecord
100
AcDbLinetypeTableRecord
  2
BYBLOCK
 70
     0
  3

 72
    65
 73
     0
 40
0.0
  0
LTYPE
  5
15
330
5
100
AcDbSymbolTableRecord
100
AcDbLinetypeTableRecord
  2
BYLAYER
 70
     0
  3

 72
    65
 73
     0
 40
0.0
  0
LTYPE
  5
16
330
5
100
AcDbSymbolTableRecord
100
AcDbLinetypeTableRecord
  2
CONTINUOUS
 70
     0
  3
Solid line
 72
    65
 73
     0
 40
0.0
  0
ENDTAB
  0
TABLE
  2
LAYER
  5
2
100
AcDbSymbolTable
 70
2
  0
LAYER
  5
50
100
AcDbSymbolTableRecord
100
AcDbLayerTableRecord
  2
0
 70
0
  6
CONTINUOUS
  0
LAYER
  5
51
100
AcDbSymbolTableRecord
100
AcDbLayerTableRecord
  2
Layer_1
 70
0
  6
CONTINUOUS
  0
ENDTAB
  0
TABLE
  2
STYLE
  5
3
330
0
100
AcDbSymbolTable
 70
     1
  0
STYLE
  5
11
330
3
100
AcDbSymbolTableRecord
100
AcDbTextStyleTableRecord
  2
STANDARD
 70
     0
 40
0.0
 41
1.0
 50
0.0
 71
     0
 42
2.5
  3
txt
  4

  0
ENDTAB
  0
TABLE
  2
VIEW
  5
6
330
0
100
AcDbSymbolTable
 70
     0
  0
ENDTAB
  0
TABLE
  2
UCS
  5
7
330
0
100
AcDbSymbolTable
 70
     0
  0
ENDTAB
  0
TABLE
  2
APPID
  5
9
330
0
100
AcDbSymbolTable
 70
     2
  0
APPID
  5
12
330
9
100
AcDbSymbolTableRecord
100
AcDbRegAppTableRecord
  2
ACAD
 70
     0
  0
ENDTAB
  0
TABLE
  2
DIMSTYLE
  5
A
330
0
100
AcDbSymbolTable
 70
     1
  0
DIMSTYLE
105
27
330
A
100
AcDbSymbolTableRecord
100
AcDbDimStyleTableRecord
  2
ISO-25
 70
     0
  3

  4

  5

  6

  7

 40
1.0
 41
2.5
 42
0.625
 43
3.75
 44
1.25
 45
0.0
 46
0.0
 47
0.0
 48
0.0
140
2.5
141
2.5
142
0.0
143
0.03937007874016
144
1.0
145
0.0
146
1.0
147
0.625
 71
     0
 72
     0
 73
     0
 74
     0
 75
     0
 76
     0
 77
     1
 78
     8
170
     0
171
     3
172
     1
173
     0
174
     0
175
     0
176
     0
177
     0
178
     0
270
     2
271
     2
272
     2
273
     2
274
     3
340
11
275
     0
280
     0
281
     0
282
     0
283
     0
284
     8
285
     0
286
     0
287
     3
288
     0
  0
ENDTAB
  0
TABLE
  2
BLOCK_RECORD
  5
1
330
0
100
AcDbSymbolTable
 70
     1
  0
BLOCK_RECORD
  5
1F
330
1
100
AcDbSymbolTableRecord
100
AcDbBlockTableRecord
  2
*MODEL_SPACE
  0
BLOCK_RECORD
  5
1B
330
1
100
AcDbSymbolTableRecord
100
AcDbBlockTableRecord
  2
*PAPER_SPACE
  0
ENDTAB
  0
ENDSEC
  0
SECTION
  2
BLOCKS
  0
BLOCK
  5
20
330
1F
100
AcDbEntity
  8
0
100
AcDbBlockBegin
  2
*MODEL_SPACE
 70
     0
 10
0.0
 20
0.0
 30
0.0
  3
*MODEL_SPACE
  1

  0
ENDBLK
  5
21
330
1F
100
AcDbEntity
  8
0
100
AcDbBlockEnd
  0
BLOCK
  5
1C
330
1B
100
AcDbEntity
 67
     1
  8
0
100
AcDbBlockBegin
  2
*PAPER_SPACE
  1

  0
ENDBLK
  5
1D
330
1B
100
AcDbEntity
 67
     1
  8
0
100
AcDbBlockEnd
  0
ENDSEC
  0
SECTION
  2
ENTITIES
  0
LWPOLYLINE
  5
100
100
AcDbEntity
  8
Layer_1
 62
7
100
AcDbPolyline
 90
793
 70
1
 10
12.803987
 20
-155.056782
 30
0.0
 10
1.374202
 20
-141.464113
 30
0.0
 10
-12.247307
 20
-128.790840
 30
0.0
 10
-27.676818
 20
-117.355449
 30
0.0
 10
-44.530614
 20
-107.476345
 30
0.0
 10
-48.615225
 20
-105.426537
 30
0.0
 10
-52.313233
 20
-103.668236
 30
0.0
 10
-55.030215
 20
-102.474944
 30
0.0
 10
-56.171744
 20
-102.120191
 30
0.0
 10
-55.927422
 20
-102.804410
 30
0.0
 10
-54.999238
 20
-104.186283
 30
0.0
 10
-53.689100
 20
-105.854414
 30
0.0
 10
-52.298922
 20
-107.397436
 30
0.0
 10
-51.406400
 20
-108.236539
 30
0.0
 10
-50.341917
 20
-109.141484
 30
0.0
 10
-49.238947
 20
-110.003419
 30
0.0
 10
-48.230971
 20
-110.713547
 30
0.0
 10
-47.400134
 20
-111.276383
 30
0.0
 10
-46.779454
 20
-111.737336
 30
0.0
 10
-46.428747
 20
-112.048768
 30
0.0
 10
-46.407835
 20
-112.163153
 30
0.0
 10
-48.315629
 20
-112.001948
 30
0.0
 10
-51.095614
 20
-111.603873
 30
0.0
 10
-53.948892
 20
-111.097228
 30
0.0
 10
-56.076571
 20
-110.610310
 30
0.0
 10
-60.227300
 20
-109.011154
 30
0.0
 10
-65.301851
 20
-106.195197
 30
0.0
 10
-72.014213
 20
-101.720846
 30
0.0
 10
-81.078383
 20
-95.146451
 30
0.0
 10
-84.096679
 20
-92.914582
 30
0.0
 10
-86.577548
 20
-91.093006
 30
0.0
 10
-88.264323
 20
-89.869291
 30
0.0
 10
-88.900341
 20
-89.430943
 30
0.0
 10
-88.989944
 20
-89.701877
 30
0.0
 10
-89.188928
 20
-90.409210
 30
0.0
 10
-89.467857
 20
-91.445558
 30
0.0
 10
-89.797300
 20
-92.703620
 30
0.0
 10
-92.829329
 20
-101.301774
 30
0.0
 10
-97.650864
 20
-110.720179
 30
0.0
 10
-104.159617
 20
-120.783038
 30
0.0
 10
-112.253299
 20
-131.314443
 30
0.0
 10
-113.349667
 20
-132.630219
 30
0.0
 10
-114.256422
 20
-133.698769
 30
0.0
 10
-114.879354
 20
-134.410505
 30
0.0
 10
-115.124261
 20
-134.655784
 30
0.0
 10
-115.004746
 20
-134.155094
 30
0.0
 10
-114.635401
 20
-132.835790
 30
0.0
 10
-114.073582
 20
-130.898391
 30
0.0
 10
-113.376628
 20
-128.543472
 30
0.0
 10
-110.195244
 20
-117.332222
 30
0.0
 10
-107.970407
 20
-108.129774
 30
0.0
 10
-106.606721
 20
-100.488269
 30
0.0
 10
-106.008794
 20
-93.959820
 30
0.0
 10
-106.115048
 20
-88.105571
 30
0.0
 10
-107.046979
 20
-82.479528
 30
0.0
 10
-108.974241
 20
-76.386237
 30
0.0
 10
-112.066496
 20
-69.130360
 30
0.0
 10
-113.263708
 20
-66.650220
 30
0.0
 10
-114.147862
 20
-65.140105
 30
0.0
 10
-114.868827
 20
-64.388858
 30
0.0
 10
-115.576466
 20
-64.185375
 30
0.0
 10
-117.164584
 20
-65.178741
 30
0.0
 10
-118.702726
 20
-67.869166
 30
0.0
 10
-120.005114
 20
-71.822139
 30
0.0
 10
-120.885960
 20
-76.603153
 30
0.0
 10
-121.018040
 20
-77.651214
 30
0.0
 10
-121.138995
 20
-78.522857
 30
0.0
 10
-121.235433
 20
-79.127179
 30
0.0
 10
-121.293972
 20
-79.373334
 30
0.0
 10
-121.729497
 20
-77.947293
 30
0.0
 10
-122.578111
 20
-74.460550
 30
0.0
 10
-123.482075
 20
-70.444613
 30
0.0
 10
-124.083648
 20
-67.430931
 30
0.0
 10
-124.684378
 20
-63.513066
 30
0.0
 10
-125.031669
 20
-60.250605
 30
0.0
 10
-125.188647
 20
-56.803571
 30
0.0
 10
-125.218438
 20
-52.332042
 30
0.0
 10
-125.140333
 20
-47.293077
 30
0.0
 10
-124.885210
 20
-43.306350
 30
0.0
 10
-124.379609
 20
-39.632014
 30
0.0
 10
-123.550059
 20
-35.530196
 30
0.0
 10
-118.932805
 20
-21.488794
 30
0.0
 10
-111.565495
 20
-8.350531
 30
0.0
 10
-101.512830
 20
3.790697
 30
0.0
 10
-88.839494
 20
14.841021
 30
0.0
 10
-82.629683
 20
19.213879
 30
0.0
 10
-76.151573
 20
23.237939
 30
0.0
 10
-69.590330
 20
26.805403
 30
0.0
 10
-63.131110
 20
29.808462
 30
0.0
 10
-62.027173
 20
30.284478
 30
0.0
 10
-61.088338
 20
30.706126
 30
0.0
 10
-60.413945
 20
31.027642
 30
0.0
 10
-60.103345
 20
31.203261
 30
0.0
 10
-60.681794
 20
31.761005
 30
0.0
 10
-62.428080
 20
33.122962
 30
0.0
 10
-65.071856
 20
35.084465
 30
0.0
 10
-68.342767
 20
37.440840
 30
0.0
 10
-71.627616
 20
39.783965
 30
0.0
 10
-74.309362
 20
41.709403
 30
0.0
 10
-76.111845
 20
43.017992
 30
0.0
 10
-76.758916
 20
43.510560
 30
0.0
 10
-76.559421
 20
43.492441
 30
0.0
 10
-76.056871
 20
43.410532
 30
0.0
 10
-75.327154
 20
43.278045
 30
0.0
 10
-74.446161
 20
43.108179
 30
0.0
 10
-69.639104
 20
42.767282
 30
0.0
 10
-61.462694
 20
42.629990
 30
0.0
 10
-52.616628
 20
42.706020
 30
0.0
 10
-45.800605
 20
43.005088
 30
0.0
 10
-24.912259
 20
45.326804
 30
0.0
 10
-6.634925
 20
48.506206
 30
0.0
 10
8.588584
 20
52.449158
 30
0.0
 10
20.315453
 20
57.061511
 30
0.0
 10
23.913213
 20
59.128579
 30
0.0
 10
26.803059
 20
61.347061
 30
0.0
 10
28.870673
 20
63.613539
 30
0.0
 10
30.001743
 20
65.824595
 30
0.0
 10
29.369845
 20
71.244021
 30
0.0
 10
24.304826
 20
76.775879
 30
0.0
 10
14.744071
 20
82.468250
 30
0.0
 10
0.624941
 20
88.369198
 30
0.0
 10
-1.247636
 20
89.043240
 30
0.0
 10
-2.799561
 20
89.577868
 30
0.0
 10
-3.869379
 20
89.919140
 30
0.0
 10
-4.295632
 20
90.013111
 30
0.0
 10
-4.263333
 20
89.885154
 30
0.0
 10
-4.084657
 20
89.622157
 30
0.0
 10
-3.788823
 20
89.262465
 30
0.0
 10
-3.405051
 20
88.844429
 30
0.0
 10
-2.088866
 20
87.297318
 30
0.0
 10
-0.632645
 20
85.315195
 30
0.0
 10
0.706371
 20
83.268796
 30
0.0
 10
1.670941
 20
81.528859
 30
0.0
 10
2.010431
 20
80.711324
 30
0.0
 10
2.305606
 20
79.812663
 30
0.0
 10
2.529560
 20
78.925433
 30
0.0
 10
2.655389
 20
78.142193
 30
0.0
 10
2.695076
 20
77.732242
 30
0.0
 10
2.734764
 20
77.322289
 30
0.0
 10
2.774451
 20
76.912339
 30
0.0
 10
2.814139
 20
76.502388
 30
0.0
 10
2.601541
 20
76.790405
 30
0.0
 10
2.388943
 20
77.078421
 30
0.0
 10
2.176345
 20
77.366440
 30
0.0
 10
1.963747
 20
77.654456
 30
0.0
 10
1.547485
 20
78.173378
 30
0.0
 10
1.042718
 20
78.734636
 30
0.0
 10
0.513149
 20
79.270658
 30
0.0
 10
0.022481
 20
79.713868
 30
0.0
 10
-1.164144
 20
80.527363
 30
0.0
 10
-2.704749
 20
81.395873
 30
0.0
 10
-4.078911
 20
82.047914
 30
0.0
 10
-4.766209
 20
82.211998
 30
0.0
 10
-4.772548
 20
81.976238
 30
0.0
 10
-4.696761
 20
81.427352
 30
0.0
 10
-4.552404
 20
80.647191
 30
0.0
 10
-4.353035
 20
79.717599
 30
0.0
 10
-3.662136
 20
76.512444
 30
0.0
 10
-3.266177
 20
74.054977
 30
0.0
 10
-3.086374
 20
71.684739
 30
0.0
 10
-3.043947
 20
68.741277
 30
0.0
 10
-3.066556
 20
66.553917
 30
0.0
 10
-3.137695
 20
64.908304
 30
0.0
 10
-3.262332
 20
63.732790
 30
0.0
 10
-3.445437
 20
62.955722
 30
0.0
 10
-3.545816
 20
62.673499
 30
0.0
 10
-3.646196
 20
62.391277
 30
0.0
 10
-3.746575
 20
62.109055
 30
0.0
 10
-3.846954
 20
61.826833
 30
0.0
 10
-3.931995
 20
62.144333
 30
0.0
 10
-4.017036
 20
62.461833
 30
0.0
 10
-4.102076
 20
62.779333
 30
0.0
 10
-4.187117
 20
63.096833
 30
0.0
 10
-5.438715
 20
66.331511
 30
0.0
 10
-7.596499
 20
70.046089
 30
0.0
 10
-10.678964
 20
74.268577
 30
0.0
 10
-14.704608
 20
79.026990
 30
0.0
 10
-15.458332
 20
79.869807
 30
0.0
 10
-16.212055
 20
80.712622
 30
0.0
 10
-16.965779
 20
81.555439
 30
0.0
 10
-17.719503
 20
82.398256
 30
0.0
 10
-17.760404
 20
81.767106
 30
0.0
 10
-17.801305
 20
81.135955
 30
0.0
 10
-17.842206
 20
80.504807
 30
0.0
 10
-17.883107
 20
79.873657
 30
0.0
 10
-17.975763
 20
78.804325
 30
0.0
 10
-18.107079
 20
77.759045
 30
0.0
 10
-18.259583
 20
76.857700
 30
0.0
 10
-18.415802
 20
76.220166
 30
0.0
 10
-20.611641
 20
71.838387
 30
0.0
 10
-24.076202
 20
68.270787
 30
0.0
 10
-28.826084
 20
65.504572
 30
0.0
 10
-34.877880
 20
63.526939
 30
0.0
 10
-38.160254
 20
62.868157
 30
0.0
 10
-41.807928
 20
62.462900
 30
0.0
 10
-46.771506
 20
62.242047
 30
0.0
 10
-54.001596
 20
62.136484
 30
0.0
 10
-61.170901
 20
62.031455
 30
0.0
 10
-65.978602
 20
61.795588
 30
0.0
 10
-69.572188
 20
61.333559
 30
0.0
 10
-73.099151
 20
60.550054
 30
0.0
 10
-77.003726
 20
59.326993
 30
0.0
 10
-80.511601
 20
57.690076
 30
0.0
 10
-83.789728
 20
55.546288
 30
0.0
 10
-87.005058
 20
52.802616
 30
0.0
 10
-90.658645
 20
49.419105
 30
0.0
 10
-93.023345
 20
47.575389
 30
0.0
 10
-94.784762
 20
46.843494
 30
0.0
 10
-96.628497
 20
46.795446
 30
0.0
 10
-98.508811
 20
47.156326
 30
0.0
 10
-100.411483
 20
47.989971
 30
0.0
 10
-102.393368
 20
49.328173
 30
0.0
 10
-104.511331
 20
51.202716
 30
0.0
 10
-106.113046
 20
52.909912
 30
0.0
 10
-106.972596
 20
54.437914
 30
0.0
 10
-107.287836
 20
56.369349
 30
0.0
 10
-107.256619
 20
59.286833
 30
0.0
 10
-107.089013
 20
61.718603
 30
0.0
 10
-106.689970
 20
63.548067
 30
0.0
 10
-105.879645
 20
65.309215
 30
0.0
 10
-104.478198
 20
67.536027
 30
0.0
 10
-102.605114
 20
70.074932
 30
0.0
 10
-100.696973
 20
71.863327
 30
0.0
 10
-98.251438
 20
73.269863
 30
0.0
 10
-94.766169
 20
74.663183
 30
0.0
 10
-91.312822
 20
75.965542
 30
0.0
 10
-87.542564
 20
77.467586
 30
0.0
 10
-84.138555
 20
78.890759
 30
0.0
 10
-81.783947
 20
79.956515
 30
0.0
 10
-80.043674
 20
80.910321
 30
0.0
 10
-78.916377
 20
81.839942
 30
0.0
 10
-78.167359
 20
83.007721
 30
0.0
 10
-77.561931
 20
84.675995
 30
0.0
 10
-76.782317
 20
86.697584
 30
0.0
 10
-75.511736
 20
88.172294
 30
0.0
 10
-73.093862
 20
89.620156
 30
0.0
 10
-68.872365
 20
91.561216
 30
0.0
 10
-65.379667
 20
93.225209
 30
0.0
 10
-62.519746
 20
94.919674
 30
0.0
 10
-59.840195
 20
96.948708
 30
0.0
 10
-56.888617
 20
99.616402
 30
0.0
 10
-53.830646
 20
102.651124
 30
0.0
 10
-51.328664
 20
105.382186
 30
0.0
 10
-49.457090
 20
107.723287
 30
0.0
 10
-48.290350
 20
109.588124
 30
0.0
 10
-47.852569
 20
110.540073
 30
0.0
 10
-47.608286
 20
111.287364
 30
0.0
 10
-47.522268
 20
111.984041
 30
0.0
 10
-47.559281
 20
112.784146
 30
0.0
 10
-48.049978
 20
114.609430
 30
0.0
 10
-49.140626
 20
115.868454
 30
0.0
 10
-50.869409
 20
116.588019
 30
0.0
 10
-53.274507
 20
116.794919
 30
0.0
 10
-56.050591
 20
116.540755
 30
0.0
 10
-59.240208
 20
115.854713
 30
0.0
 10
-62.837754
 20
114.738281
 30
0.0
 10
-66.837627
 20
113.192945
 30
0.0
 10
-67.575153
 20
112.883949
 30
0.0
 10
-68.312676
 20
112.574955
 30
0.0
 10
-69.050201
 20
112.265958
 30
0.0
 10
-69.787724
 20
111.956964
 30
0.0
 10
-69.352905
 20
112.534586
 30
0.0
 10
-68.918085
 20
113.112207
 30
0.0
 10
-68.483265
 20
113.689831
 30
0.0
 10
-68.048445
 20
114.267453
 30
0.0
 10
-65.931361
 20
116.811937
 30
0.0
 10
-63.472869
 20
119.365072
 30
0.0
 10
-61.056316
 20
121.553965
 30
0.0
 10
-59.065058
 20
123.005722
 30
0.0
 10
-55.153455
 20
124.740067
 30
0.0
 10
-50.765800
 20
125.708823
 30
0.0
 10
-46.012218
 20
125.898028
 30
0.0
 10
-41.002836
 20
125.293728
 30
0.0
 10
-39.058928
 20
124.838303
 30
0.0
 10
-36.913622
 20
124.227605
 30
0.0
 10
-34.960853
 20
123.582364
 30
0.0
 10
-33.594559
 20
123.023304
 30
0.0
 10
-33.103252
 20
122.845634
 30
0.0
 10
-32.571591
 20
123.042628
 30
0.0
 10
-31.682475
 20
123.835133
 30
0.0
 10
-30.118795
 20
125.443989
 30
0.0
 10
-25.704755
 20
129.796047
 30
0.0
 10
-20.581676
 20
134.426840
 30
0.0
 10
-15.043108
 20
139.080721
 30
0.0
 10
-9.382602
 20
143.502045
 30
0.0
 10
-3.218066
 20
147.944130
 30
0.0
 10
2.840944
 20
151.919817
 30
0.0
 10
9.029511
 20
155.575594
 30
0.0
 10
15.582719
 20
159.057942
 30
0.0
 10
19.881273
 20
161.113454
 30
0.0
 10
24.771343
 20
163.283819
 30
0.0
 10
29.250996
 20
165.138621
 30
0.0
 10
32.318300
 20
166.247429
 30
0.0
 10
32.195903
 20
165.950280
 30
0.0
 10
31.352846
 20
164.982148
 30
0.0
 10
29.907363
 20
163.471119
 30
0.0
 10
27.977693
 20
161.545274
 30
0.0
 10
21.519407
 20
155.020353
 30
0.0
 10
15.317003
 20
148.421986
 30
0.0
 10
10.203174
 20
142.659734
 30
0.0
 10
7.010614
 20
138.643155
 30
0.0
 10
6.358423
 20
137.589546
 30
0.0
 10
6.152017
 20
136.923530
 30
0.0
 10
6.393834
 20
136.575189
 30
0.0
 10
7.086306
 20
136.474611
 30
0.0
 10
8.364652
 20
136.307727
 30
0.0
 10
9.946582
 20
135.872123
 30
0.0
 10
11.535302
 20
135.265370
 30
0.0
 10
12.834016
 20
134.585045
 30
0.0
 10
13.134625
 20
134.389939
 30
0.0
 10
13.435234
 20
134.194834
 30
0.0
 10
13.735843
 20
133.999728
 30
0.0
 10
14.036452
 20
133.804622
 30
0.0
 10
13.442303
 20
133.718849
 30
0.0
 10
12.848155
 20
133.633076
 30
0.0
 10
12.254007
 20
133.547303
 30
0.0
 10
11.659858
 20
133.461530
 30
0.0
 10
9.500789
 20
133.021780
 30
0.0
 10
7.344014
 20
132.341161
 30
0.0
 10
5.288050
 20
131.456287
 30
0.0
 10
3.431416
 20
130.403765
 30
0.0
 10
1.750892
 20
129.094093
 30
0.0
 10
-0.297980
 20
127.234847
 30
0.0
 10
-2.129760
 20
125.385504
 30
0.0
 10
-3.159010
 20
124.105550
 30
0.0
 10
-3.240974
 20
123.952388
 30
0.0
 10
-3.322938
 20
123.799226
 30
0.0
 10
-3.404903
 20
123.646067
 30
0.0
 10
-3.486867
 20
123.492905
 30
0.0
 10
-3.149280
 20
123.625140
 30
0.0
 10
-2.811693
 20
123.757375
 30
0.0
 10
-2.474106
 20
123.889613
 30
0.0
 10
-2.136518
 20
124.021849
 30
0.0
 10
1.782777
 20
125.208731
 30
0.0
 10
7.976629
 20
126.663592
 30
0.0
 10
15.813221
 20
128.249501
 30
0.0
 10
24.660736
 20
129.829527
 30
0.0
 10
26.995216
 20
130.218057
 30
0.0
 10
28.935585
 20
130.536229
 30
0.0
 10
30.279580
 20
130.751209
 30
0.0
 10
30.824949
 20
130.830166
 30
0.0
 10
30.774672
 20
130.728916
 30
0.0
 10
30.496863
 20
130.453241
 30
0.0
 10
30.036951
 20
130.045238
 30
0.0
 10
29.440367
 20
129.547017
 30
0.0
 10
28.442782
 20
128.665987
 30
0.0
 10
27.727093
 20
127.902181
 30
0.0
 10
27.382117
 20
127.364584
 30
0.0
 10
27.496674
 20
127.162175
 30
0.0
 10
27.861074
 20
127.231085
 30
0.0
 10
28.689459
 20
127.417964
 30
0.0
 10
29.858796
 20
127.694302
 30
0.0
 10
31.246053
 20
128.031594
 30
0.0
 10
39.052955
 20
129.625103
 30
0.0
 10
48.639739
 20
131.039157
 30
0.0
 10
59.513290
 20
132.211429
 30
0.0
 10
71.180498
 20
133.079579
 30
0.0
 10
81.271842
 20
133.537736
 30
0.0
 10
92.861698
 20
133.860259
 30
0.0
 10
104.370678
 20
134.014550
 30
0.0
 10
114.219387
 20
133.968000
 30
0.0
 10
115.383553
 20
133.946354
 30
0.0
 10
116.547720
 20
133.924707
 30
0.0
 10
117.711887
 20
133.903061
 30
0.0
 10
118.876053
 20
133.881414
 30
0.0
 10
118.205775
 20
133.754567
 30
0.0
 10
117.535498
 20
133.627722
 30
0.0
 10
116.865220
 20
133.500875
 30
0.0
 10
116.194942
 20
133.374030
 30
0.0
 10
107.744207
 20
131.549325
 30
0.0
 10
98.111327
 20
129.041188
 30
0.0
 10
87.148589
 20
125.808434
 30
0.0
 10
74.708275
 20
121.809895
 30
0.0
 10
68.883420
 20
119.836713
 30
0.0
 10
62.489704
 20
117.619894
 30
0.0
 10
57.289915
 20
115.776752
 30
0.0
 10
55.046841
 20
114.924601
 30
0.0
 10
56.056629
 20
114.909051
 30
0.0
 10
58.840938
 20
114.896323
 30
0.0
 10
62.973752
 20
114.887715
 30
0.0
 10
68.029063
 20
114.884554
 30
0.0
 10
76.493495
 20
114.841408
 30
0.0
 10
82.356357
 20
114.651255
 30
0.0
 10
87.193609
 20
114.223008
 30
0.0
 10
92.581211
 20
113.465594
 30
0.0
 10
95.795477
 20
112.913675
 30
0.0
 10
98.882824
 20
112.283295
 30
0.0
 10
101.477245
 20
111.655503
 30
0.0
 10
103.212720
 20
111.111353
 30
0.0
 10
103.302582
 20
110.978314
 30
0.0
 10
102.746102
 20
110.887469
 30
0.0
 10
101.470432
 20
110.833042
 30
0.0
 10
99.402720
 20
110.809251
 30
0.0
 10
91.679362
 20
110.477468
 30
0.0
 10
84.504155
 20
109.555476
 30
0.0
 10
77.934344
 20
108.053365
 30
0.0
 10
72.027164
 20
105.981230
 30
0.0
 10
70.912960
 20
105.500708
 30
0.0
 10
69.965514
 20
105.076076
 30
0.0
 10
69.285079
 20
104.753361
 30
0.0
 10
68.971911
 20
104.578580
 30
0.0
 10
69.100229
 20
104.354662
 30
0.0
 10
69.621897
 20
103.898154
 30
0.0
 10
70.453572
 20
103.275510
 30
0.0
 10
71.511911
 20
102.553187
 30
0.0
 10
80.153443
 20
95.559238
 30
0.0
 10
88.586821
 20
86.098085
 30
0.0
 10
96.687172
 20
74.330098
 30
0.0
 10
104.329614
 20
60.415660
 30
0.0
 10
106.606815
 20
55.762131
 30
0.0
 10
107.080042
 20
54.135487
 30
0.0
 10
105.390908
 20
55.441092
 30
0.0
 10
101.181030
 20
59.584320
 30
0.0
 10
89.609519
 20
70.487598
 30
0.0
 10
79.725611
 20
78.605232
 30
0.0
 10
71.378759
 20
84.049211
 30
0.0
 10
64.418425
 20
86.931524
 30
0.0
 10
62.910946
 20
87.221428
 30
0.0
 10
61.408438
 20
87.352625
 30
0.0
 10
60.210492
 20
87.314762
 30
0.0
 10
59.616696
 20
87.097488
 30
0.0
 10
59.660065
 20
86.818979
 30
0.0
 10
59.901698
 20
86.260549
 30
0.0
 10
60.302059
 20
85.503228
 30
0.0
 10
60.821616
 20
84.628043
 30
0.0
 10
65.601591
 20
76.311826
 30
0.0
 10
70.249963
 20
67.031123
 30
0.0
 10
74.383232
 20
57.603005
 30
0.0
 10
77.617902
 20
48.844548
 30
0.0
 10
80.218681
 20
39.738440
 30
0.0
 10
81.943717
 20
31.121095
 30
0.0
 10
82.766606
 20
23.164259
 30
0.0
 10
82.660959
 20
16.039684
 30
0.0
 10
81.375998
 20
7.830703
 30
0.0
 10
78.998510
 20
0.704451
 30
0.0
 10
75.443913
 20
-5.529584
 30
0.0
 10
70.627624
 20
-11.061930
 30
0.0
 10
68.403324
 20
-13.109311
 30
0.0
 10
66.611633
 20
-14.602690
 30
0.0
 10
65.471791
 20
-15.372846
 30
0.0
 10
65.203031
 20
-15.250475
 30
0.0
 10
65.558196
 20
-13.407931
 30
0.0
 10
66.109554
 20
-9.719145
 30
0.0
 10
66.690602
 20
-5.366403
 30
0.0
 10
67.134842
 20
-1.532132
 30
0.0
 10
67.423886
 20
3.467096
 30
0.0
 10
67.490191
 20
9.564055
 30
0.0
 10
67.342798
 20
15.425856
 30
0.0
 10
66.990739
 20
19.719466
 30
0.0
 10
65.942532
 20
25.092091
 30
0.0
 10
64.505366
 20
29.624072
 30
0.0
 10
62.682391
 20
33.307450
 30
0.0
 10
60.476768
 20
36.134267
 30
0.0
 10
59.735444
 20
36.842430
 30
0.0
 10
59.035874
 20
37.451714
 30
0.0
 10
58.456805
 20
37.897160
 30
0.0
 10
58.076976
 20
38.113813
 30
0.0
 10
57.602832
 20
38.201742
 30
0.0
 10
56.884178
 20
37.854818
 30
0.0
 10
55.333251
 20
36.678578
 30
0.0
 10
52.362287
 20
34.278552
 30
0.0
 10
28.934117
 20
16.898096
 30
0.0
 10
6.715870
 20
3.495600
 30
0.0
 10
-13.054421
 20
-5.275133
 30
0.0
 10
-29.138721
 20
-8.760408
 30
0.0
 10
-29.882250
 20
-8.793992
 30
0.0
 10
-30.625779
 20
-8.827577
 30
0.0
 10
-31.369307
 20
-8.861161
 30
0.0
 10
-32.112836
 20
-8.894746
 30
0.0
 10
-31.666806
 20
-8.682035
 30
0.0
 10
-31.220774
 20
-8.469324
 30
0.0
 10
-30.774744
 20
-8.256585
 30
0.0
 10
-30.328711
 20
-8.043874
 30
0.0
 10
-28.235181
 20
-6.927092
 30
0.0
 10
-26.261883
 20
-5.636151
 30
0.0
 10
-24.440571
 20
-4.193883
 30
0.0
 10
-22.803003
 20
-2.623175
 30
0.0
 10
-21.931999
 20
-1.667232
 30
0.0
 10
-21.409103
 20
-1.006606
 30
0.0
 10
-21.203526
 20
-0.596029
 30
0.0
 10
-21.284478
 20
-0.390205
 30
0.0
 10
-22.653139
 20
-0.048293
 30
0.0
 10
-25.054201
 20
0.223854
 30
0.0
 10
-27.881512
 20
0.376932
 30
0.0
 10
-30.528920
 20
0.361692
 30
0.0
 10
-38.616085
 20
-1.140380
 30
0.0
 10
-45.750985
 20
-4.757904
 30
0.0
 10
-51.827805
 20
-10.416573
 30
0.0
 10
-56.740732
 20
-18.042104
 30
0.0
 10
-58.585435
 20
-22.316727
 30
0.0
 10
-59.945475
 20
-26.807277
 30
0.0
 10
-60.826395
 20
-31.536644
 30
0.0
 10
-61.233738
 20
-36.527631
 30
0.0
 10
-61.258348
 20
-39.833893
 30
0.0
 10
-61.079001
 20
-42.631167
 30
0.0
 10
-60.679727
 20
-45.063640
 30
0.0
 10
-60.044581
 20
-47.275416
 30
0.0
 10
-59.891740
 20
-47.749521
 30
0.0
 10
-59.786864
 20
-48.158066
 30
0.0
 10
-59.739338
 20
-48.457447
 30
0.0
 10
-59.758557
 20
-48.604090
 30
0.0
 10
-60.737047
 20
-48.379497
 30
0.0
 10
-62.744180
 20
-47.283487
 30
0.0
 10
-65.307624
 20
-45.603051
 30
0.0
 10
-67.955052
 20
-43.625069
 30
0.0
 10
-71.060727
 20
-40.959508
 30
0.0
 10
-74.517275
 20
-37.675683
 30
0.0
 10
-78.231000
 20
-33.866276
 30
0.0
 10
-82.108214
 20
-29.623968
 30
0.0
 10
-83.204504
 20
-28.403046
 30
0.0
 10
-83.664295
 20
-28.164851
 30
0.0
 10
-83.608609
 20
-29.125902
 30
0.0
 10
-83.158476
 20
-31.502665
 30
0.0
 10
-82.598093
 20
-33.950886
 30
0.0
 10
-81.855583
 20
-36.351271
 30
0.0
 10
-80.890781
 20
-38.818316
 30
0.0
 10
-79.663521
 20
-41.466520
 30
0.0
 10
-72.952059
 20
-50.945716
 30
0.0
 10
-63.698579
 20
-57.591823
 30
0.0
 10
-52.132469
 20
-61.290882
 30
0.0
 10
-38.483122
 20
-61.928930
 30
0.0
 10
-36.785157
 20
-61.828684
 30
0.0
 10
-35.380625
 20
-61.760641
 30
0.0
 10
-34.415447
 20
-61.730838
 30
0.0
 10
-34.035554
 20
-61.745231
 30
0.0
 10
-34.933438
 20
-62.336882
 30
0.0
 10
-37.270148
 20
-63.544878
 30
0.0
 10
-40.119438
 20
-64.909733
 30
0.0
 10
-42.555052
 20
-65.971904
 30
0.0
 10
-46.709451
 20
-67.451172
 30
0.0
 10
-50.654587
 20
-68.503353
 30
0.0
 10
-54.597638
 20
-69.173687
 30
0.0
 10
-58.745774
 20
-69.507415
 30
0.0
 10
-59.830114
 20
-69.552740
 30
0.0
 10
-60.914454
 20
-69.598065
 30
0.0
 10
-61.998795
 20
-69.643361
 30
0.0
 10
-63.083135
 20
-69.688686
 30
0.0
 10
-62.898429
 20
-69.873034
 30
0.0
 10
-62.713720
 20
-70.057409
 30
0.0
 10
-62.529014
 20
-70.241757
 30
0.0
 10
-62.344305
 20
-70.426105
 30
0.0
 10
-58.074545
 20
-72.067876
 30
0.0
 10
-50.351088
 20
-72.527390
 30
0.0
 10
-40.078595
 20
-71.817234
 30
0.0
 10
-28.161720
 20
-69.950052
 30
0.0
 10
-19.628371
 20
-68.050047
 30
0.0
 10
-13.321859
 20
-66.128396
 30
0.0
 10
-9.165702
 20
-64.156651
 30
0.0
 10
-7.083417
 20
-62.106391
 30
0.0
 10
-5.936222
 20
-59.365505
 30
0.0
 10
-5.144256
 20
-56.448654
 30
0.0
 10
-4.764890
 20
-53.636479
 30
0.0
 10
-4.855498
 20
-51.209622
 30
0.0
 10
-5.752654
 20
-48.084152
 30
0.0
 10
-7.397121
 20
-45.421075
 30
0.0
 10
-9.852504
 20
-43.143739
 30
0.0
 10
-13.182408
 20
-41.175521
 30
0.0
 10
-13.959916
 20
-40.798049
 30
0.0
 10
-14.737425
 20
-40.420577
 30
0.0
 10
-15.514933
 20
-40.043104
 30
0.0
 10
-16.292441
 20
-39.665632
 30
0.0
 10
-16.082771
 20
-39.579639
 30
0.0
 10
-15.873101
 20
-39.493646
 30
0.0
 10
-15.663431
 20
-39.407653
 30
0.0
 10
-15.453761
 20
-39.321660
 30
0.0
 10
-14.128763
 20
-39.038478
 30
0.0
 10
-12.332531
 20
-38.974131
 30
0.0
 10
-10.440849
 20
-39.120294
 30
0.0
 10
-8.829497
 20
-39.468641
 30
0.0
 10
-4.831891
 20
-41.318382
 30
0.0
 10
-0.442449
 20
-44.290746
 30
0.0
 10
4.155288
 20
-48.244285
 30
0.0
 10
8.777783
 20
-53.037575
 30
0.0
 10
9.576515
 20
-53.910093
 30
0.0
 10
10.273625
 20
-54.616721
 30
0.0
 10
10.794130
 20
-55.085125
 30
0.0
 10
11.063049
 20
-55.242916
 30
0.0
 10
11.329126
 20
-55.164148
 30
0.0
 10
11.841929
 20
-54.988464
 30
0.0
 10
12.527649
 20
-54.741887
 30
0.0
 10
13.312473
 20
-54.450379
 30
0.0
 10
15.804766
 20
-53.647288
 30
0.0
 10
19.186997
 20
-52.747055
 30
0.0
 10
23.057028
 20
-51.849419
 30
0.0
 10
27.012725
 20
-51.054061
 30
0.0
 10
28.668467
 20
-50.733964
 30
0.0
 10
30.151567
 20
-50.418920
 30
0.0
 10
31.299969
 20
-50.145249
 30
0.0
 10
31.951614
 20
-49.949189
 30
0.0
 10
33.362483
 20
-48.799698
 30
0.0
 10
32.400111
 20
-47.483611
 30
0.0
 10
29.026271
 20
-45.976036
 30
0.0
 10
23.202725
 20
-44.252138
 30
0.0
 10
22.285503
 20
-44.013096
 30
0.0
 10
21.368280
 20
-43.774026
 30
0.0
 10
20.451058
 20
-43.534983
 30
0.0
 10
19.533836
 20
-43.295913
 30
0.0
 10
21.121336
 20
-43.327748
 30
0.0
 10
22.708836
 20
-43.359611
 30
0.0
 10
24.296336
 20
-43.391445
 30
0.0
 10
25.883836
 20
-43.423280
 30
0.0
 10
32.005875
 20
-43.676010
 30
0.0
 10
37.625735
 20
-44.183474
 30
0.0
 10
42.820207
 20
-44.954787
 30
0.0
 10
47.666086
 20
-45.999037
 30
0.0
 10
48.750760
 20
-46.266387
 30
0.0
 10
49.684331
 20
-46.485306
 30
0.0
 10
50.367252
 20
-46.633247
 30
0.0
 10
50.699975
 20
-46.687575
 30
0.0
 10
50.981461
 20
-46.360197
 30
0.0
 10
50.955609
 20
-45.506701
 30
0.0
 10
50.653451
 20
-44.320041
 30
0.0
 10
50.106008
 20
-42.993201
 30
0.0
 10
45.941136
 20
-37.961490
 30
0.0
 10
38.060712
 20
-31.495891
 30
0.0
 10
27.272257
 20
-24.192009
 30
0.0
 10
14.383277
 20
-16.645415
 30
0.0
 10
12.821742
 20
-15.784552
 30
0.0
 10
11.542978
 20
-15.065055
 30
0.0
 10
10.678946
 20
-14.562191
 30
0.0
 10
10.361611
 20
-14.351258
 30
0.0
 10
12.158136
 20
-14.882824
 30
0.0
 10
16.491558
 20
-16.342618
 30
0.0
 10
21.777645
 20
-18.186517
 30
0.0
 10
26.432163
 20
-19.870481
 30
0.0
 10
47.424101
 20
-28.367599
 30
0.0
 10
66.800389
 20
-37.532681
 30
0.0
 10
84.023539
 20
-47.090729
 30
0.0
 10
98.556056
 20
-56.766888
 30
0.0
 10
104.444654
 20
-61.405153
 30
0.0
 10
110.116169
 20
-66.376583
 30
0.0
 10
115.147692
 20
-71.290551
 30
0.0
 10
119.116312
 20
-75.756464
 30
0.0
 10
123.275071
 20
-81.527852
 30
0.0
 10
126.586929
 20
-87.385431
 30
0.0
 10
129.005060
 20
-93.233611
 30
0.0
 10
130.482643
 20
-98.976692
 30
0.0
 10
130.837433
 20
-102.072162
 30
0.0
 10
130.932033
 20
-105.546826
 30
0.0
 10
130.770264
 20
-109.005233
 30
0.0
 10
130.355953
 20
-112.052020
 30
0.0
 10
128.847791
 20
-117.606068
 30
0.0
 10
126.534721
 20
-123.114764
 30
0.0
 10
123.394406
 20
-128.623177
 30
0.0
 10
119.404517
 20
-134.176464
 30
0.0
 10
115.574008
 20
-138.486900
 30
0.0
 10
110.513532
 20
-143.427652
 30
0.0
 10
104.844131
 20
-148.423550
 30
0.0
 10
99.186851
 20
-152.899509
 30
0.0
 10
98.921223
 20
-153.095851
 30
0.0
 10
98.655596
 20
-153.292222
 30
0.0
 10
98.389968
 20
-153.488564
 30
0.0
 10
98.124341
 20
-153.684906
 30
0.0
 10
98.308293
 20
-153.204281
 30
0.0
 10
98.492246
 20
-152.723629
 30
0.0
 10
98.676198
 20
-152.243004
 30
0.0
 10
98.860151
 20
-151.762351
 30
0.0
 10
104.208338
 20
-136.608034
 30
0.0
 10
106.706696
 20
-125.518648
 30
0.0
 10
106.618327
 20
-116.275447
 30
0.0
 10
104.206173
 20
-106.659797
 30
0.0
 10
103.133082
 20
-103.768797
 30
0.0
 10
101.877470
 20
-100.916885
 30
0.0
 10
100.628679
 20
-98.502277
 30
0.0
 10
99.576064
 20
-96.923131
 30
0.0
 10
99.362069
 20
-96.676186
 30
0.0
 10
99.148074
 20
-96.429242
 30
0.0
 10
98.934079
 20
-96.182297
 30
0.0
 10
98.720084
 20
-95.935353
 30
0.0
 10
98.717177
 20
-96.188675
 30
0.0
 10
98.714298
 20
-96.441998
 30
0.0
 10
98.711419
 20
-96.695293
 30
0.0
 10
98.708541
 20
-96.948615
 30
0.0
 10
98.431633
 20
-98.341608
 30
0.0
 10
97.687599
 20
-99.933793
 30
0.0
 10
96.563889
 20
-101.573701
 30
0.0
 10
95.147969
 20
-103.109950
 30
0.0
 10
94.420064
 20
-103.775938
 30
0.0
 10
93.793728
 20
-104.321247
 30
0.0
 10
93.335738
 20
-104.689547
 30
0.0
 10
93.112864
 20
-104.824619
 30
0.0
 10
92.969955
 20
-104.640723
 30
0.0
 10
92.729691
 20
-104.140428
 30
0.0
 10
92.425588
 20
-103.400131
 30
0.0
 10
92.091163
 20
-102.496286
 30
0.0
 10
88.829665
 20
-95.610769
 30
0.0
 10
84.199045
 20
-89.423555
 30
0.0
 10
78.332014
 20
-84.080354
 30
0.0
 10
71.361292
 20
-79.726992
 30
0.0
 10
67.416348
 20
-78.016048
 30
0.0
 10
62.682267
 20
-76.425726
 30
0.0
 10
57.691647
 20
-75.114916
 30
0.0
 10
52.977083
 20
-74.242539
 30
0.0
 10
46.292644
 20
-73.596815
 30
0.0
 10
41.057523
 20
-73.774869
 30
0.0
 10
36.747716
 20
-74.845253
 30
0.0
 10
32.839229
 20
-76.876491
 30
0.0
 10
30.170355
 20
-79.038087
 30
0.0
 10
28.617046
 20
-81.306731
 30
0.0
 10
28.182317
 20
-83.675365
 30
0.0
 10
28.869181
 20
-86.137021
 30
0.0
 10
31.274137
 20
-89.050316
 30
0.0
 10
34.982557
 20
-91.381867
 30
0.0
 10
39.382145
 20
-92.845104
 30
0.0
 10
43.860599
 20
-93.153432
 30
0.0
 10
44.742572
 20
-93.051775
 30
0.0
 10
45.619642
 20
-92.903835
 30
0.0
 10
46.390335
 20
-92.729478
 30
0.0
 10
46.953190
 20
-92.548517
 30
0.0
 10
47.361721
 20
-92.389739
 30
0.0
 10
47.712266
 20
-92.275693
 30
0.0
 10
47.967511
 20
-92.217019
 30
0.0
 10
48.090151
 20
-92.224356
 30
0.0
 10
48.001883
 20
-92.385618
 30
0.0
 10
47.682876
 20
-92.746044
 30
0.0
 10
47.183529
 20
-93.252238
 30
0.0
 10
46.554241
 20
-93.850831
 30
0.0
 10
43.435652
 20
-96.108440
 30
0.0
 10
39.469484
 20
-97.892338
 30
0.0
 10
34.654183
 20
-99.203063
 30
0.0
 10
28.988194
 20
-100.041178
 30
0.0
 10
27.720706
 20
-100.172807
 30
0.0
 10
26.668845
 20
-100.294106
 30
0.0
 10
25.942142
 20
-100.391613
 30
0.0
 10
25.650125
 20
-100.451840
 30
0.0
 10
25.743998
 20
-100.582734
 30
0.0
 10
26.067948
 20
-100.872661
 30
0.0
 10
26.571042
 20
-101.278723
 30
0.0
 10
27.202347
 20
-101.758077
 30
0.0
 10
32.467503
 20
-105.220266
 30
0.0
 10
38.112037
 20
-108.156083
 30
0.0
 10
43.837384
 20
-110.428734
 30
0.0
 10
49.344967
 20
-111.901511
 30
0.0
 10
53.215041
 20
-112.388795
 30
0.0
 10
57.163677
 20
-112.402907
 30
0.0
 10
60.966320
 20
-111.956177
 30
0.0
 10
64.398418
 20
-111.061250
 30
0.0
 10
65.058381
 20
-110.831634
 30
0.0
 10
65.611618
 20
-110.643618
 30
0.0
 10
66.000131
 20
-110.516561
 30
0.0
 10
66.165920
 20
-110.469910
 30
0.0
 10
66.028266
 20
-110.936593
 30
0.0
 10
65.429241
 20
-112.058652
 30
0.0
 10
64.607472
 20
-113.419161
 30
0.0
 10
63.801575
 20
-114.601164
 30
0.0
 10
58.016372
 20
-119.112909
 30
0.0
 10
50.062825
 20
-120.230453
 30
0.0
 10
40.010713
 20
-117.958282
 30
0.0
 10
27.929803
 20
-112.300827
 30
0.0
 10
21.896711
 20
-108.668345
 30
0.0
 10
15.551697
 20
-104.398915
 30
0.0
 10
9.106831
 20
-99.642229
 30
0.0
 10
2.774179
 20
-94.547920
 30
0.0
 10
1.167738
 20
-93.201777
 30
0.0
 10
-0.205269
 20
-92.057507
 30
0.0
 10
-1.199082
 20
-91.236127
 30
0.0
 10
-1.667942
 20
-90.858739
 30
0.0
 10
-3.379651
 20
-91.184537
 30
0.0
 10
-7.381933
 20
-92.361516
 30
0.0
 10
-12.771676
 20
-94.108557
 30
0.0
 10
-18.645782
 20
-96.144451
 30
0.0
 10
-19.230109
 20
-96.354114
 30
0.0
 10
-19.814436
 20
-96.563777
 30
0.0
 10
-20.398763
 20
-96.773440
 30
0.0
 10
-20.983090
 20
-96.983103
 30
0.0
 10
-19.975197
 20
-98.016318
 30
0.0
 10
-18.967304
 20
-99.049534
 30
0.0
 10
-17.959410
 20
-100.082749
 30
0.0
 10
-16.951517
 20
-101.115965
 30
0.0
 10
-15.144973
 20
-103.021304
 30
0.0
 10
-13.206446
 20
-105.153972
 30
0.0
 10
-11.368514
 20
-107.253339
 30
0.0
 10
-9.863732
 20
-109.058799
 30
0.0
 10
-6.978055
 20
-112.877717
 30
0.0
 10
-3.724747
 20
-117.524055
 30
0.0
 10
-0.595668
 20
-122.273657
 30
0.0
 10
1.917324
 20
-126.402455
 30
0.0
 10
4.183413
 20
-130.632995
 30
0.0
 10
6.706518
 20
-135.746156
 30
0.0
 10
9.110119
 20
-140.953212
 30
0.0
 10
11.017693
 20
-145.465466
 30
0.0
 10
12.464405
 20
-149.337555
 30
0.0
 10
13.918877
 20
-153.509674
 30
0.0
 10
15.008727
 20
-156.878194
 30
0.0
 10
15.361573
 20
-158.339484
 30
0.0
 10
15.131994
 20
-158.108231
 30
0.0
 10
14.573245
 20
-157.412243
 30
0.0
 10
13.769243
 20
-156.359215
 30
0.0
 10
12.803905
 20
-155.056873
 30
0.0
 10
12.803934
 20
-155.056873
 30
0.0
 10
12.803962
 20
-155.056873
 30
0.0
 10
12.803990
 20
-155.056873
 30
0.0
 10
12.803987
 20
-155.056782
 30
0.0
  0
LWPOLYLINE
  5
101
100
AcDbEntity
  8
Layer_1
 62
7
100
AcDbPolyline
 90
25
 70
1
 10
-45.984990
 20
87.579611
 30
0.0
 10
-41.572815
 20
92.280219
 30
0.0
 10
-38.531413
 20
95.699079
 30
0.0
 10
-36.771817
 20
97.941106
 30
0.0
 10
-36.205058
 20
99.111213
 30
0.0
 10
-36.784966
 20
99.535210
 30
0.0
 10
-38.562867
 20
99.108323
 30
0.0
 10
-41.596031
 20
97.810014
 30
0.0
 10
-45.941725
 20
95.619746
 30
0.0
 10
-51.582010
 20
92.436680
 30
0.0
 10
-55.796205
 20
89.599715
 30
0.0
 10
-58.434551
 20
87.222794
 30
0.0
 10
-59.347281
 20
85.419871
 30
0.0
 10
-58.974569
 20
85.212923
 30
0.0
 10
-57.758968
 20
85.061694
 30
0.0
 10
-55.554282
 20
84.955167
 30
0.0
 10
-52.214312
 20
84.882322
 30
0.0
 10
-51.313007
 20
84.868719
 30
0.0
 10
-50.411702
 20
84.855116
 30
0.0
 10
-49.510397
 20
84.841513
 30
0.0
 10
-48.609092
 20
84.827910
 30
0.0
 10
-47.953066
 20
85.515827
 30
0.0
 10
-47.297041
 20
86.203743
 30
0.0
 10
-46.641015
 20
86.891660
 30
0.0
 10
-45.984990
 20
87.579611
 30
0.0
  0
ENDSEC
  0
SECTION
  2
OBJECTS
  0
DICTIONARY
  5
C
330
0
100
AcDbDictionary
  3
ACAD_GROUP
350
D
  3
ACAD_MLINESTYLE
350
17
  0
DICTIONARY
  5
D
330
C
100
AcDbDictionary
  0
DICTIONARY
  5
1A
330
C
100
AcDbDictionary
  0
DICTIONARY
  5
17
330
C
100
AcDbDictionary
  3
STANDARD
350
18
  0
DICTIONARY
  5
19
330
C
100
AcDbDictionary
  0
ENDSEC
  0
EOF
