  0
SECTION
  2
HEADER
  9
$ACADVER
  1
AC1014
  9
$HANDSEED
  5
FFFF
  9
$MEASUREMENT
 70
     1
  0
ENDSEC
  0
SECTION
  2
TABLES
  0
TABLE
  2
VPORT
  5
8
330
0
100
AcDbSymbolTable
 70
     4
  0
VPORT
  5
2E
330
8
100
AcDbSymbolTableRecord
100
AcDbViewportTableRecord
  2
*ACTIVE
 70
     0
 10
0.0
 20
0.0
 11
1.0
 21
1.0
 12
210.0
 22
148.5
 13
0.0
 23
0.0
 14
10.0
 24
10.0
 15
10.0
 25
10.0
 16
0.0
 26
0.0
 36
1.0
 17
0.0
 27
0.0
 37
0.0
 40
341.0
 41
1.24
 42
50.0
 43
0.0
 44
0.0
 50
0.0
 51
0.0
 71
     0
 72
   100
 73
     1
 74
     3
 75
     0
 76
     0
 77
     0
 78
     0
  0
ENDTAB
  0
TABLE
  2
LTYPE
  5
5
330
0
100
AcDbSymbolTable
 70
     1
  0
LTYPE
  5
14
330
5
100
AcDbSymbolTableRecord
100
AcDbLinetypeTableRecord
  2
BYBLOCK
 70
     0
  3

 72
    65
 73
     0
 40
0.0
  0
LTYPE
  5
15
330
5
100
AcDbSymbolTableRecord
100
AcDbLinetypeTableRecord
  2
BYLAYER
 70
     0
  3

 72
    65
 73
     0
 40
0.0
  0
LTYPE
  5
16
330
5
100
AcDbSymbolTableRecord
100
AcDbLinetypeTableRecord
  2
CONTINUOUS
 70
     0
  3
Solid line
 72
    65
 73
     0
 40
0.0
  0
ENDTAB
  0
TABLE
  2
LAYER
  5
2
100
AcDbSymbolTable
 70
2
  0
LAYER
  5
50
100
AcDbSymbolTableRecord
100
AcDbLayerTableRecord
  2
0
 70
0
  6
CONTINUOUS
  0
LAYER
  5
51
100
AcDbSymbolTableRecord
100
AcDbLayerTableRecord
  2
Layer_1
 70
0
  6
CONTINUOUS
  0
ENDTAB
  0
TABLE
  2
STYLE
  5
3
330
0
100
AcDbSymbolTable
 70
     1
  0
STYLE
  5
11
330
3
100
AcDbSymbolTableRecord
100
AcDbTextStyleTableRecord
  2
STANDARD
 70
     0
 40
0.0
 41
1.0
 50
0.0
 71
     0
 42
2.5
  3
txt
  4

  0
ENDTAB
  0
TABLE
  2
VIEW
  5
6
330
0
100
AcDbSymbolTable
 70
     0
  0
ENDTAB
  0
TABLE
  2
UCS
  5
7
330
0
100
AcDbSymbolTable
 70
     0
  0
ENDTAB
  0
TABLE
  2
APPID
  5
9
330
0
100
AcDbSymbolTable
 70
     2
  0
APPID
  5
12
330
9
100
AcDbSymbolTableRecord
100
AcDbRegAppTableRecord
  2
ACAD
 70
     0
  0
ENDTAB
  0
TABLE
  2
DIMSTYLE
  5
A
330
0
100
AcDbSymbolTable
 70
     1
  0
DIMSTYLE
105
27
330
A
100
AcDbSymbolTableRecord
100
AcDbDimStyleTableRecord
  2
ISO-25
 70
     0
  3

  4

  5

  6

  7

 40
1.0
 41
2.5
 42
0.625
 43
3.75
 44
1.25
 45
0.0
 46
0.0
 47
0.0
 48
0.0
140
2.5
141
2.5
142
0.0
143
0.03937007874016
144
1.0
145
0.0
146
1.0
147
0.625
 71
     0
 72
     0
 73
     0
 74
     0
 75
     0
 76
     0
 77
     1
 78
     8
170
     0
171
     3
172
     1
173
     0
174
     0
175
     0
176
     0
177
     0
178
     0
270
     2
271
     2
272
     2
273
     2
274
     3
340
11
275
     0
280
     0
281
     0
282
     0
283
     0
284
     8
285
     0
286
     0
287
     3
288
     0
  0
ENDTAB
  0
TABLE
  2
BLOCK_RECORD
  5
1
330
0
100
AcDbSymbolTable
 70
     1
  0
BLOCK_RECORD
  5
1F
330
1
100
AcDbSymbolTableRecord
100
AcDbBlockTableRecord
  2
*MODEL_SPACE
  0
BLOCK_RECORD
  5
1B
330
1
100
AcDbSymbolTableRecord
100
AcDbBlockTableRecord
  2
*PAPER_SPACE
  0
ENDTAB
  0
ENDSEC
  0
SECTION
  2
BLOCKS
  0
BLOCK
  5
20
330
1F
100
AcDbEntity
  8
0
100
AcDbBlockBegin
  2
*MODEL_SPACE
 70
     0
 10
0.0
 20
0.0
 30
0.0
  3
*MODEL_SPACE
  1

  0
ENDBLK
  5
21
330
1F
100
AcDbEntity
  8
0
100
AcDbBlockEnd
  0
BLOCK
  5
1C
330
1B
100
AcDbEntity
 67
     1
  8
0
100
AcDbBlockBegin
  2
*PAPER_SPACE
  1

  0
ENDBLK
  5
1D
330
1B
100
AcDbEntity
 67
     1
  8
0
100
AcDbBlockEnd
  0
ENDSEC
  0
SECTION
  2
ENTITIES
  0
LWPOLYLINE
  5
100
100
AcDbEntity
  8
Layer_1
 62
7
100
AcDbPolyline
 90
1057
 70
1
 10
-27.254899
 20
-47.292202
 30
0.0
 10
-27.374996
 20
-44.315266
 30
0.0
 10
-27.180156
 20
-41.385150
 30
0.0
 10
-26.678858
 20
-38.526154
 30
0.0
 10
-25.879585
 20
-35.762606
 30
0.0
 10
-24.790818
 20
-33.118776
 30
0.0
 10
-23.421042
 20
-30.618965
 30
0.0
 10
-21.778740
 20
-28.287442
 30
0.0
 10
-19.872395
 20
-26.148565
 30
0.0
 10
-19.080856
 20
-25.380582
 30
0.0
 10
-18.290254
 20
-24.677143
 30
0.0
 10
-17.417339
 20
-23.980985
 30
0.0
 10
-16.378862
 20
-23.234874
 30
0.0
 10
-15.091571
 20
-22.381576
 30
0.0
 10
-13.472218
 20
-21.363769
 30
0.0
 10
-11.437553
 20
-20.124278
 30
0.0
 10
-8.904325
 20
-18.605809
 30
0.0
 10
-7.779540
 20
-17.932286
 30
0.0
 10
-6.638147
 20
-17.244595
 30
0.0
 10
-5.511709
 20
-16.562012
 30
0.0
 10
-4.431792
 20
-15.903842
 30
0.0
 10
-3.429960
 20
-15.289359
 30
0.0
 10
-2.537776
 20
-14.737869
 30
0.0
 10
-1.786806
 20
-14.268703
 30
0.0
 10
-1.208613
 20
-13.901108
 30
0.0
 10
-0.380255
 20
-13.341179
 30
0.0
 10
0.435110
 20
-12.742953
 30
0.0
 10
1.207443
 20
-12.133042
 30
0.0
 10
1.906708
 20
-11.538062
 30
0.0
 10
2.502867
 20
-10.984680
 30
0.0
 10
2.965884
 20
-10.499512
 30
0.0
 10
3.265721
 20
-10.109170
 30
0.0
 10
3.372342
 20
-9.840297
 30
0.0
 10
3.422744
 20
-9.768020
 30
0.0
 10
3.567197
 20
-9.654144
 30
0.0
 10
3.795572
 20
-9.504453
 30
0.0
 10
4.097741
 20
-9.324818
 30
0.0
 10
4.463576
 20
-9.120998
 30
0.0
 10
4.882947
 20
-8.898804
 30
0.0
 10
5.345727
 20
-8.664108
 30
0.0
 10
5.841786
 20
-8.422667
 30
0.0
 10
7.502765
 20
-7.510779
 30
0.0
 10
9.028521
 20
-6.429924
 30
0.0
 10
10.407018
 20
-5.195343
 30
0.0
 10
11.626215
 20
-3.822247
 30
0.0
 10
12.674073
 20
-2.325877
 30
0.0
 10
13.538554
 20
-0.721472
 30
0.0
 10
14.207618
 20
0.975700
 30
0.0
 10
14.669226
 20
2.750426
 30
0.0
 10
14.821608
 20
3.772522
 30
0.0
 10
14.906374
 20
4.894751
 30
0.0
 10
14.926398
 20
6.070376
 30
0.0
 10
14.884554
 20
7.252576
 30
0.0
 10
14.783714
 20
8.394532
 30
0.0
 10
14.626751
 20
9.449479
 30
0.0
 10
14.416539
 20
10.370596
 30
0.0
 10
14.155950
 20
11.111118
 30
0.0
 10
13.852897
 20
11.730512
 30
0.0
 10
13.504816
 20
12.343555
 30
0.0
 10
13.119840
 20
12.939749
 30
0.0
 10
12.706103
 20
13.508512
 30
0.0
 10
12.271740
 20
14.039343
 30
0.0
 10
11.824886
 20
14.521633
 30
0.0
 10
11.373673
 20
14.944890
 30
0.0
 10
10.926236
 20
15.298540
 30
0.0
 10
10.817010
 20
15.376317
 30
0.0
 10
10.707784
 20
15.454095
 30
0.0
 10
10.598558
 20
15.531870
 30
0.0
 10
10.489332
 20
15.609648
 30
0.0
 10
10.380106
 20
15.687425
 30
0.0
 10
10.270880
 20
15.765203
 30
0.0
 10
10.161654
 20
15.842978
 30
0.0
 10
10.052428
 20
15.920755
 30
0.0
 10
10.079990
 20
15.834830
 30
0.0
 10
10.107549
 20
15.748904
 30
0.0
 10
10.135111
 20
15.662976
 30
0.0
 10
10.162670
 20
15.577051
 30
0.0
 10
10.190231
 20
15.491125
 30
0.0
 10
10.217793
 20
15.405200
 30
0.0
 10
10.245352
 20
15.319272
 30
0.0
 10
10.272914
 20
15.233347
 30
0.0
 10
10.812667
 20
13.435839
 30
0.0
 10
11.235643
 20
11.765168
 30
0.0
 10
11.543476
 20
10.204451
 30
0.0
 10
11.737802
 20
8.736811
 30
0.0
 10
11.820256
 20
7.345427
 30
0.0
 10
11.792468
 20
6.013367
 30
0.0
 10
11.656075
 20
4.723780
 30
0.0
 10
11.412707
 20
3.459792
 30
0.0
 10
11.213241
 20
2.690510
 30
0.0
 10
10.985841
 20
1.964607
 30
0.0
 10
10.724719
 20
1.270058
 30
0.0
 10
10.424087
 20
0.594841
 30
0.0
 10
10.078157
 20
-0.073066
 30
0.0
 10
9.681140
 20
-0.745686
 30
0.0
 10
9.227250
 20
-1.435070
 30
0.0
 10
8.710697
 20
-2.153185
 30
0.0
 10
8.241272
 20
-2.716077
 30
0.0
 10
7.627726
 20
-3.357850
 30
0.0
 10
6.925577
 20
-4.030668
 30
0.0
 10
6.190338
 20
-4.686694
 30
0.0
 10
5.477524
 20
-5.278119
 30
0.0
 10
4.842650
 20
-5.757134
 30
0.0
 10
4.341231
 20
-6.075876
 30
0.0
 10
4.028780
 20
-6.186564
 30
0.0
 10
3.970363
 20
-6.165962
 30
0.0
 10
3.893457
 20
-6.111126
 30
0.0
 10
3.801348
 20
-6.025782
 30
0.0
 10
3.697321
 20
-5.913711
 30
0.0
 10
3.584661
 20
-5.778640
 30
0.0
 10
3.466656
 20
-5.624321
 30
0.0
 10
3.346589
 20
-5.454508
 30
0.0
 10
3.227746
 20
-5.272926
 30
0.0
 10
2.879408
 20
-4.809037
 30
0.0
 10
2.444641
 20
-4.386974
 30
0.0
 10
1.924043
 20
-4.007018
 30
0.0
 10
1.318211
 20
-3.669452
 30
0.0
 10
0.627742
 20
-3.374614
 30
0.0
 10
-0.146765
 20
-3.122759
 30
0.0
 10
-1.004712
 20
-2.914169
 30
0.0
 10
-1.945503
 20
-2.749154
 30
0.0
 10
-3.379731
 20
-2.613405
 30
0.0
 10
-5.024959
 20
-2.608042
 30
0.0
 10
-6.955089
 20
-2.743791
 30
0.0
 10
-9.244023
 20
-3.031602
 30
0.0
 10
-11.965666
 20
-3.482367
 30
0.0
 10
-15.193918
 20
-4.107038
 30
0.0
 10
-19.002683
 20
-4.916451
 30
0.0
 10
-23.465865
 20
-5.921501
 30
0.0
 10
-24.711882
 20
-6.203723
 30
0.0
 10
-25.909063
 20
-6.466980
 30
0.0
 10
-27.028720
 20
-6.705570
 30
0.0
 10
-28.042166
 20
-6.913709
 30
0.0
 10
-28.920713
 20
-7.085611
 30
0.0
 10
-29.635675
 20
-7.215546
 30
0.0
 10
-30.158362
 20
-7.297729
 30
0.0
 10
-30.460091
 20
-7.326403
 30
0.0
 10
-30.803880
 20
-7.330918
 30
0.0
 10
-31.053345
 20
-7.356601
 30
0.0
 10
-31.211604
 20
-7.420919
 30
0.0
 10
-31.281764
 20
-7.541795
 30
0.0
 10
-31.266948
 20
-7.737036
 30
0.0
 10
-31.170253
 20
-8.024367
 30
0.0
 10
-30.994801
 20
-8.421594
 30
0.0
 10
-30.743702
 20
-8.946528
 30
0.0
 10
-30.535018
 20
-9.461442
 30
0.0
 10
-30.365138
 20
-10.046602
 30
0.0
 10
-30.237155
 20
-10.669636
 30
0.0
 10
-30.154174
 20
-11.298257
 30
0.0
 10
-30.119280
 20
-11.900153
 30
0.0
 10
-30.135564
 20
-12.443007
 30
0.0
 10
-30.206145
 20
-12.894450
 30
0.0
 10
-30.334107
 20
-13.222223
 30
0.0
 10
-30.395443
 20
-13.286880
 30
0.0
 10
-30.464660
 20
-13.294782
 30
0.0
 10
-30.541890
 20
-13.245929
 30
0.0
 10
-30.627257
 20
-13.140040
 30
0.0
 10
-30.720884
 20
-12.976943
 30
0.0
 10
-30.822896
 20
-12.756415
 30
0.0
 10
-30.933426
 20
-12.478285
 30
0.0
 10
-31.052591
 20
-12.142356
 30
0.0
 10
-31.288388
 20
-11.518701
 30
0.0
 10
-31.553544
 20
-10.964868
 30
0.0
 10
-31.856956
 20
-10.470923
 30
0.0
 10
-32.207518
 20
-10.026903
 30
0.0
 10
-32.614127
 20
-9.622845
 30
0.0
 10
-33.085684
 20
-9.248760
 30
0.0
 10
-33.631081
 20
-8.894712
 30
0.0
 10
-34.259220
 20
-8.550739
 30
0.0
 10
-34.558229
 20
-8.388405
 30
0.0
 10
-34.884743
 20
-8.193107
 30
0.0
 10
-35.228216
 20
-7.972268
 30
0.0
 10
-35.578098
 20
-7.733283
 30
0.0
 10
-35.923843
 20
-7.483572
 30
0.0
 10
-36.254904
 20
-7.230560
 30
0.0
 10
-36.560731
 20
-6.981640
 30
0.0
 10
-36.830781
 20
-6.744235
 30
0.0
 10
-37.076918
 20
-6.521025
 30
0.0
 10
-37.314219
 20
-6.312774
 30
0.0
 10
-37.536938
 20
-6.124052
 30
0.0
 10
-37.739333
 20
-5.959431
 30
0.0
 10
-37.915663
 20
-5.823457
 30
0.0
 10
-38.060186
 20
-5.720700
 30
0.0
 10
-38.167157
 20
-5.655704
 30
0.0
 10
-38.230835
 20
-5.633126
 30
0.0
 10
-38.380949
 20
-5.723127
 30
0.0
 10
-38.549255
 20
-5.970156
 30
0.0
 10
-38.724221
 20
-6.339698
 30
0.0
 10
-38.894314
 20
-6.797236
 30
0.0
 10
-39.048001
 20
-7.308312
 30
0.0
 10
-39.173742
 20
-7.838354
 30
0.0
 10
-39.260009
 20
-8.352902
 30
0.0
 10
-39.295267
 20
-8.817439
 30
0.0
 10
-39.302266
 20
-9.139624
 30
0.0
 10
-39.314684
 20
-9.383549
 30
0.0
 10
-39.334552
 20
-9.553023
 30
0.0
 10
-39.363914
 20
-9.651886
 30
0.0
 10
-39.404839
 20
-9.684003
 30
0.0
 10
-39.459390
 20
-9.653156
 30
0.0
 10
-39.529616
 20
-9.563212
 30
0.0
 10
-39.617581
 20
-9.418008
 30
0.0
 10
-39.751736
 20
-9.062634
 30
0.0
 10
-39.845744
 20
-8.563806
 30
0.0
 10
-39.899874
 20
-7.957988
 30
0.0
 10
-39.914409
 20
-7.281699
 30
0.0
 10
-39.889601
 20
-6.571402
 30
0.0
 10
-39.825726
 20
-5.863617
 30
0.0
 10
-39.723056
 20
-5.194750
 30
0.0
 10
-39.581861
 20
-4.601378
 30
0.0
 10
-39.488078
 20
-4.329429
 30
0.0
 10
-39.353684
 20
-4.005494
 30
0.0
 10
-39.184971
 20
-3.641681
 30
0.0
 10
-38.988237
 20
-3.250098
 30
0.0
 10
-38.769772
 20
-2.842851
 30
0.0
 10
-38.535877
 20
-2.432049
 30
0.0
 10
-38.292847
 20
-2.029826
 30
0.0
 10
-38.046975
 20
-1.648261
 30
0.0
 10
-37.898374
 20
-1.425729
 30
0.0
 10
-37.749770
 20
-1.203197
 30
0.0
 10
-37.601169
 20
-0.980664
 30
0.0
 10
-37.452567
 20
-0.758104
 30
0.0
 10
-37.303963
 20
-0.535572
 30
0.0
 10
-37.155362
 20
-0.313040
 30
0.0
 10
-37.006758
 20
-0.090507
 30
0.0
 10
-36.858156
 20
0.132025
 30
0.0
 10
-36.826723
 20
-0.025455
 30
0.0
 10
-36.795289
 20
-0.182935
 30
0.0
 10
-36.763855
 20
-0.340415
 30
0.0
 10
-36.732421
 20
-0.497867
 30
0.0
 10
-36.700987
 20
-0.655347
 30
0.0
 10
-36.669553
 20
-0.812827
 30
0.0
 10
-36.638119
 20
-0.970307
 30
0.0
 10
-36.606685
 20
-1.127787
 30
0.0
 10
-36.575251
 20
-1.285267
 30
0.0
 10
-36.543817
 20
-1.442719
 30
0.0
 10
-36.512383
 20
-1.600199
 30
0.0
 10
-36.480952
 20
-1.757679
 30
0.0
 10
-36.449518
 20
-1.915159
 30
0.0
 10
-36.418085
 20
-2.072610
 30
0.0
 10
-36.386651
 20
-2.230090
 30
0.0
 10
-36.355217
 20
-2.387570
 30
0.0
 10
-36.297593
 20
-2.299856
 30
0.0
 10
-36.239968
 20
-2.212169
 30
0.0
 10
-36.182344
 20
-2.124455
 30
0.0
 10
-36.124720
 20
-2.036740
 30
0.0
 10
-36.067096
 20
-1.949054
 30
0.0
 10
-36.009472
 20
-1.861339
 30
0.0
 10
-35.951848
 20
-1.773652
 30
0.0
 10
-35.894224
 20
-1.685938
 30
0.0
 10
-35.535714
 20
-1.168822
 30
0.0
 10
-35.110414
 20
-0.600172
 30
0.0
 10
-34.648379
 20
-0.015436
 30
0.0
 10
-34.179656
 20
0.550052
 30
0.0
 10
-33.734295
 20
1.060903
 30
0.0
 10
-33.342342
 20
1.481724
 30
0.0
 10
-33.033851
 20
1.777126
 30
0.0
 10
-32.838863
 20
1.911746
 30
0.0
 10
-32.763803
 20
1.916544
 30
0.0
 10
-32.688611
 20
1.883242
 30
0.0
 10
-32.614700
 20
1.814210
 30
0.0
 10
-32.543470
 20
1.711877
 30
0.0
 10
-32.476335
 20
1.578583
 30
0.0
 10
-32.414703
 20
1.416813
 30
0.0
 10
-32.359977
 20
1.228882
 30
0.0
 10
-32.313566
 20
1.017215
 30
0.0
 10
-32.271980
 20
0.815228
 30
0.0
 10
-32.226071
 20
0.626930
 30
0.0
 10
-32.177354
 20
0.456439
 30
0.0
 10
-32.127342
 20
0.307849
 30
0.0
 10
-32.077546
 20
0.185280
 30
0.0
 10
-32.029481
 20
0.092881
 30
0.0
 10
-31.984661
 20
0.034686
 30
0.0
 10
-31.944600
 20
0.014931
 30
0.0
 10
-31.880668
 20
0.047499
 30
0.0
 10
-31.767438
 20
0.138883
 30
0.0
 10
-31.611216
 20
0.282732
 30
0.0
 10
-31.418317
 20
0.472695
 30
0.0
 10
-31.195049
 20
0.702452
 30
0.0
 10
-30.947723
 20
0.965681
 30
0.0
 10
-30.682646
 20
1.256031
 30
0.0
 10
-30.406130
 20
1.567153
 30
0.0
 10
-29.932028
 20
2.083930
 30
0.0
 10
-29.507475
 20
2.498374
 30
0.0
 10
-29.136686
 20
2.808197
 30
0.0
 10
-28.823871
 20
3.011228
 30
0.0
 10
-28.573241
 20
3.105236
 30
0.0
 10
-28.389006
 20
3.088020
 30
0.0
 10
-28.275375
 20
2.957295
 30
0.0
 10
-28.236564
 20
2.710887
 30
0.0
 10
-28.231230
 20
2.615524
 30
0.0
 10
-28.215967
 20
2.499502
 30
0.0
 10
-28.191837
 20
2.367253
 30
0.0
 10
-28.159909
 20
2.223292
 30
0.0
 10
-28.121254
 20
2.072077
 30
0.0
 10
-28.076942
 20
1.918068
 30
0.0
 10
-28.028043
 20
1.765781
 30
0.0
 10
-27.975628
 20
1.619646
 30
0.0
 10
-27.885696
 20
1.401489
 30
0.0
 10
-27.792093
 20
1.261591
 30
0.0
 10
-27.670624
 20
1.213077
 30
0.0
 10
-27.497096
 20
1.269070
 30
0.0
 10
-27.247315
 20
1.442721
 30
0.0
 10
-26.897090
 20
1.747126
 30
0.0
 10
-26.422223
 20
2.195408
 30
0.0
 10
-25.798521
 20
2.800718
 30
0.0
 10
-25.558998
 20
3.034144
 30
0.0
 10
-25.319475
 20
3.267570
 30
0.0
 10
-25.079952
 20
3.500968
 30
0.0
 10
-24.840428
 20
3.734394
 30
0.0
 10
-24.600905
 20
3.967820
 30
0.0
 10
-24.361382
 20
4.201246
 30
0.0
 10
-24.121859
 20
4.434644
 30
0.0
 10
-23.882336
 20
4.668070
 30
0.0
 10
-23.851866
 20
4.514738
 30
0.0
 10
-23.821397
 20
4.361435
 30
0.0
 10
-23.790927
 20
4.208104
 30
0.0
 10
-23.760457
 20
4.054773
 30
0.0
 10
-23.729987
 20
3.901441
 30
0.0
 10
-23.699518
 20
3.748138
 30
0.0
 10
-23.669048
 20
3.594807
 30
0.0
 10
-23.638578
 20
3.441476
 30
0.0
 10
-23.561847
 20
3.076562
 30
0.0
 10
-23.489902
 20
2.795356
 30
0.0
 10
-23.416013
 20
2.589757
 30
0.0
 10
-23.333448
 20
2.451666
 30
0.0
 10
-23.235476
 20
2.373067
 30
0.0
 10
-23.115364
 20
2.345974
 30
0.0
 10
-22.966381
 20
2.362060
 30
0.0
 10
-22.781797
 20
2.413340
 30
0.0
 10
-21.583272
 20
2.790276
 30
0.0
 10
-20.549270
 20
3.086976
 30
0.0
 10
-19.631808
 20
3.310835
 30
0.0
 10
-18.782903
 20
3.469274
 30
0.0
 10
-17.954574
 20
3.569661
 30
0.0
 10
-17.098839
 20
3.619417
 30
0.0
 10
-16.167716
 20
3.625908
 30
0.0
 10
-15.113223
 20
3.596613
 30
0.0
 10
-14.479924
 20
3.567883
 30
0.0
 10
-13.870396
 20
3.533085
 30
0.0
 10
-13.299318
 20
3.493630
 30
0.0
 10
-12.781368
 20
3.450761
 30
0.0
 10
-12.331224
 20
3.405887
 30
0.0
 10
-11.963567
 20
3.360280
 30
0.0
 10
-11.693073
 20
3.315294
 30
0.0
 10
-11.534423
 20
3.272283
 30
0.0
 10
-11.403202
 20
3.229216
 30
0.0
 10
-11.288560
 20
3.222161
 30
0.0
 10
-11.187123
 20
3.255011
 30
0.0
 10
-11.095516
 20
3.331578
 30
0.0
 10
-11.010364
 20
3.455671
 30
0.0
 10
-10.928291
 20
3.631157
 30
0.0
 10
-10.845924
 20
3.861846
 30
0.0
 10
-10.759886
 20
4.151575
 30
0.0
 10
-10.635525
 20
4.641146
 30
0.0
 10
-10.546751
 20
5.094169
 30
0.0
 10
-10.493573
 20
5.522893
 30
0.0
 10
-10.475996
 20
5.939622
 30
0.0
 10
-10.494030
 20
6.356577
 30
0.0
 10
-10.547680
 20
6.786063
 30
0.0
 10
-10.636955
 20
7.240300
 30
0.0
 10
-10.761862
 20
7.731592
 30
0.0
 10
-11.137743
 20
8.626434
 30
0.0
 10
-11.735988
 20
9.503863
 30
0.0
 10
-12.504776
 20
10.326428
 30
0.0
 10
-13.392291
 20
11.056706
 30
0.0
 10
-14.346712
 20
11.657218
 30
0.0
 10
-15.316223
 20
12.090571
 30
0.0
 10
-16.249003
 20
12.319284
 30
0.0
 10
-17.093236
 20
12.306019
 30
0.0
 10
-17.656752
 20
12.139847
 30
0.0
 10
-18.317125
 20
11.843739
 30
0.0
 10
-19.046803
 20
11.436690
 30
0.0
 10
-19.818237
 20
10.937636
 30
0.0
 10
-20.603878
 20
10.365516
 30
0.0
 10
-21.376175
 20
9.739321
 30
0.0
 10
-22.107580
 20
9.077961
 30
0.0
 10
-22.770542
 20
8.400402
 30
0.0
 10
-23.065045
 20
8.084962
 30
0.0
 10
-23.346672
 20
7.797547
 30
0.0
 10
-23.608767
 20
7.543971
 30
0.0
 10
-23.844676
 20
7.330074
 30
0.0
 10
-24.047741
 20
7.161588
 30
0.0
 10
-24.211307
 20
7.044324
 30
0.0
 10
-24.328719
 20
6.984126
 30
0.0
 10
-24.393320
 20
6.986949
 30
0.0
 10
-24.428543
 20
7.039752
 30
0.0
 10
-24.461757
 20
7.123347
 30
0.0
 10
-24.492210
 20
7.233442
 30
0.0
 10
-24.519151
 20
7.365747
 30
0.0
 10
-24.541825
 20
7.516031
 30
0.0
 10
-24.559481
 20
7.679917
 30
0.0
 10
-24.571365
 20
7.853202
 30
0.0
 10
-24.576727
 20
8.031566
 30
0.0
 10
-24.581099
 20
8.306507
 30
0.0
 10
-24.590672
 20
8.507506
 30
0.0
 10
-24.609818
 20
8.637751
 30
0.0
 10
-24.642913
 20
8.700348
 30
0.0
 10
-24.694331
 20
8.697526
 30
0.0
 10
-24.768443
 20
8.634280
 30
0.0
 10
-24.869623
 20
8.512840
 30
0.0
 10
-25.002246
 20
8.336338
 30
0.0
 10
-25.305163
 20
7.950173
 30
0.0
 10
-25.653443
 20
7.545523
 30
0.0
 10
-26.025008
 20
7.144005
 30
0.0
 10
-26.397775
 20
6.767126
 30
0.0
 10
-26.749664
 20
6.436474
 30
0.0
 10
-27.058594
 20
6.173612
 30
0.0
 10
-27.302485
 20
6.000074
 30
0.0
 10
-27.459255
 20
5.937449
 30
0.0
 10
-27.511744
 20
5.960591
 30
0.0
 10
-27.556463
 20
6.026631
 30
0.0
 10
-27.592737
 20
6.131025
 30
0.0
 10
-27.619893
 20
6.269173
 30
0.0
 10
-27.637255
 20
6.436418
 30
0.0
 10
-27.644147
 20
6.628131
 30
0.0
 10
-27.639896
 20
6.839685
 30
0.0
 10
-27.623827
 20
7.066451
 30
0.0
 10
-27.603645
 20
7.293216
 30
0.0
 10
-27.587609
 20
7.504770
 30
0.0
 10
-27.575872
 20
7.696484
 30
0.0
 10
-27.568582
 20
7.863728
 30
0.0
 10
-27.565901
 20
8.001876
 30
0.0
 10
-27.567961
 20
8.106270
 30
0.0
 10
-27.574926
 20
8.172310
 30
0.0
 10
-27.586943
 20
8.195452
 30
0.0
 10
-27.610582
 20
8.176826
 30
0.0
 10
-27.650850
 20
8.123175
 30
0.0
 10
-27.705564
 20
8.038339
 30
0.0
 10
-27.772540
 20
7.926100
 30
0.0
 10
-27.849595
 20
7.790210
 30
0.0
 10
-27.934543
 20
7.634451
 30
0.0
 10
-28.025202
 20
7.462578
 30
0.0
 10
-28.119387
 20
7.278315
 30
0.0
 10
-28.357736
 20
6.874906
 30
0.0
 10
-28.691407
 20
6.403031
 30
0.0
 10
-29.086891
 20
5.900421
 30
0.0
 10
-29.510667
 20
5.404726
 30
0.0
 10
-29.929228
 20
4.953594
 30
0.0
 10
-30.309057
 20
4.584730
 30
0.0
 10
-30.616640
 20
4.335781
 30
0.0
 10
-30.818465
 20
4.244426
 30
0.0
 10
-30.862306
 20
4.271802
 30
0.0
 10
-30.906612
 20
4.350231
 30
0.0
 10
-30.950170
 20
4.474211
 30
0.0
 10
-30.991764
 20
4.638239
 30
0.0
 10
-31.030183
 20
4.836839
 30
0.0
 10
-31.064210
 20
5.064507
 30
0.0
 10
-31.092638
 20
5.315713
 30
0.0
 10
-31.114257
 20
5.585010
 30
0.0
 10
-31.125038
 20
5.752593
 30
0.0
 10
-31.135818
 20
5.920149
 30
0.0
 10
-31.146599
 20
6.087732
 30
0.0
 10
-31.157380
 20
6.255288
 30
0.0
 10
-31.168161
 20
6.422871
 30
0.0
 10
-31.178942
 20
6.590426
 30
0.0
 10
-31.189723
 20
6.758010
 30
0.0
 10
-31.200504
 20
6.925565
 30
0.0
 10
-31.257165
 20
6.801021
 30
0.0
 10
-31.313824
 20
6.676504
 30
0.0
 10
-31.370486
 20
6.551960
 30
0.0
 10
-31.427148
 20
6.427415
 30
0.0
 10
-31.483807
 20
6.302870
 30
0.0
 10
-31.540469
 20
6.178354
 30
0.0
 10
-31.597128
 20
6.053809
 30
0.0
 10
-31.653789
 20
5.929264
 30
0.0
 10
-31.878365
 20
5.512507
 30
0.0
 10
-32.182643
 20
5.054884
 30
0.0
 10
-32.539891
 20
4.586141
 30
0.0
 10
-32.923374
 20
4.135996
 30
0.0
 10
-33.306361
 20
3.734140
 30
0.0
 10
-33.662111
 20
3.410290
 30
0.0
 10
-33.963894
 20
3.194192
 30
0.0
 10
-34.184973
 20
3.115565
 30
0.0
 10
-34.237709
 20
3.137014
 30
0.0
 10
-34.287690
 20
3.198934
 30
0.0
 10
-34.333769
 20
3.296808
 30
0.0
 10
-34.374790
 20
3.426320
 30
0.0
 10
-34.409605
 20
3.583095
 30
0.0
 10
-34.437065
 20
3.762814
 30
0.0
 10
-34.456030
 20
3.961160
 30
0.0
 10
-34.465344
 20
4.173758
 30
0.0
 10
-34.492663
 20
4.883038
 30
0.0
 10
-34.552000
 20
5.394369
 30
0.0
 10
-34.654923
 20
5.709188
 30
0.0
 10
-34.813002
 20
5.828822
 30
0.0
 10
-35.037803
 20
5.754682
 30
0.0
 10
-35.340890
 20
5.488123
 30
0.0
 10
-35.733831
 20
5.030528
 30
0.0
 10
-36.228191
 20
4.383251
 30
0.0
 10
-36.511438
 20
4.009702
 30
0.0
 10
-36.797309
 20
3.649614
 30
0.0
 10
-37.078002
 20
3.311738
 30
0.0
 10
-37.345715
 20
3.004737
 30
0.0
 10
-37.592645
 20
2.737388
 30
0.0
 10
-37.810984
 20
2.518327
 30
0.0
 10
-37.992935
 20
2.356303
 30
0.0
 10
-38.130691
 20
2.260037
 30
0.0
 10
-38.300351
 20
2.176160
 30
0.0
 10
-38.431020
 20
2.135774
 30
0.0
 10
-38.527743
 20
2.149321
 30
0.0
 10
-38.595564
 20
2.227017
 30
0.0
 10
-38.639532
 20
2.379332
 30
0.0
 10
-38.664678
 20
2.616653
 30
0.0
 10
-38.676079
 20
2.949365
 30
0.0
 10
-38.678619
 20
3.387825
 30
0.0
 10
-38.682570
 20
3.810227
 30
0.0
 10
-38.697528
 20
4.140822
 30
0.0
 10
-38.728070
 20
4.390561
 30
0.0
 10
-38.778794
 20
4.570336
 30
0.0
 10
-38.854297
 20
4.691099
 30
0.0
 10
-38.959171
 20
4.763828
 30
0.0
 10
-39.098013
 20
4.799444
 30
0.0
 10
-39.275415
 20
4.808758
 30
0.0
 10
-39.778027
 20
4.742548
 30
0.0
 10
-40.338983
 20
4.555971
 30
0.0
 10
-40.932057
 20
4.267088
 30
0.0
 10
-41.531020
 20
3.894047
 30
0.0
 10
-42.109649
 20
3.454881
 30
0.0
 10
-42.641722
 20
2.967709
 30
0.0
 10
-43.101008
 20
2.450593
 30
0.0
 10
-43.461287
 20
1.921652
 30
0.0
 10
-43.558010
 20
1.752291
 30
0.0
 10
-43.654736
 20
1.582929
 30
0.0
 10
-43.751459
 20
1.413568
 30
0.0
 10
-43.848183
 20
1.244234
 30
0.0
 10
-43.944906
 20
1.074873
 30
0.0
 10
-44.041632
 20
0.905511
 30
0.0
 10
-44.138355
 20
0.736150
 30
0.0
 10
-44.235078
 20
0.566788
 30
0.0
 10
-44.316104
 20
0.893658
 30
0.0
 10
-44.397133
 20
1.220500
 30
0.0
 10
-44.478159
 20
1.547369
 30
0.0
 10
-44.559188
 20
1.874239
 30
0.0
 10
-44.640214
 20
2.201081
 30
0.0
 10
-44.721240
 20
2.527950
 30
0.0
 10
-44.802269
 20
2.854792
 30
0.0
 10
-44.883295
 20
3.181662
 30
0.0
 10
-45.204006
 20
4.398294
 30
0.0
 10
-45.583776
 20
5.712320
 30
0.0
 10
-46.003965
 20
7.068737
 30
0.0
 10
-46.445934
 20
8.412481
 30
0.0
 10
-46.891043
 20
9.688521
 30
0.0
 10
-47.320656
 20
10.841794
 30
0.0
 10
-47.716131
 20
11.817267
 30
0.0
 10
-48.058834
 20
12.559878
 30
0.0
 10
-48.174319
 20
12.791526
 30
0.0
 10
-48.279681
 20
13.013212
 30
0.0
 10
-48.372781
 20
13.219685
 30
0.0
 10
-48.451481
 20
13.405670
 30
0.0
 10
-48.513652
 20
13.565916
 30
0.0
 10
-48.557153
 20
13.695202
 30
0.0
 10
-48.579844
 20
13.788278
 30
0.0
 10
-48.579601
 20
13.839869
 30
0.0
 10
-48.493287
 20
13.924253
 30
0.0
 10
-48.340122
 20
13.945138
 30
0.0
 10
-48.128576
 20
13.906388
 30
0.0
 10
-47.867117
 20
13.811505
 30
0.0
 10
-47.564217
 20
13.664185
 30
0.0
 10
-47.228344
 20
13.467984
 30
0.0
 10
-46.867969
 20
13.226600
 30
0.0
 10
-46.491561
 20
12.943644
 30
0.0
 10
-46.273837
 20
12.774141
 30
0.0
 10
-46.068083
 20
12.619907
 30
0.0
 10
-45.878983
 20
12.484045
 30
0.0
 10
-45.711236
 20
12.369632
 30
0.0
 10
-45.569529
 20
12.279801
 30
0.0
 10
-45.458554
 20
12.217627
 30
0.0
 10
-45.383006
 20
12.186216
 30
0.0
 10
-45.347576
 20
12.189038
 30
0.0
 10
-45.323220
 20
12.234843
 30
0.0
 10
-45.279447
 20
12.327666
 30
0.0
 10
-45.218704
 20
12.461890
 30
0.0
 10
-45.143461
 20
12.631958
 30
0.0
 10
-45.056178
 20
12.832194
 30
0.0
 10
-44.959325
 20
13.057012
 30
0.0
 10
-44.855360
 20
13.300796
 30
0.0
 10
-44.746750
 20
13.557929
 30
0.0
 10
-44.372554
 20
14.368753
 30
0.0
 10
-43.920970
 20
15.217853
 30
0.0
 10
-43.413092
 20
16.074346
 30
0.0
 10
-42.870023
 20
16.907319
 30
0.0
 10
-42.312863
 20
17.685866
 30
0.0
 10
-41.762710
 20
18.379083
 30
0.0
 10
-41.240669
 20
18.956061
 30
0.0
 10
-40.767834
 20
19.385897
 30
0.0
 10
-39.988991
 20
19.966896
 30
0.0
 10
-39.317427
 20
20.411142
 30
0.0
 10
-38.772419
 20
20.713741
 30
0.0
 10
-38.373255
 20
20.869801
 30
0.0
 10
-38.139216
 20
20.874430
 30
0.0
 10
-38.089588
 20
20.722727
 30
0.0
 10
-38.243650
 20
20.409807
 30
0.0
 10
-38.620690
 20
19.930772
 30
0.0
 10
-38.913434
 20
19.535051
 30
0.0
 10
-39.182352
 20
19.057223
 30
0.0
 10
-39.416597
 20
18.532694
 30
0.0
 10
-39.605313
 20
17.996864
 30
0.0
 10
-39.737650
 20
17.485147
 30
0.0
 10
-39.802758
 20
17.032945
 30
0.0
 10
-39.789776
 20
16.675663
 30
0.0
 10
-39.687871
 20
16.448711
 30
0.0
 10
-39.625362
 20
16.439906
 30
0.0
 10
-39.514412
 20
16.482826
 30
0.0
 10
-39.361210
 20
16.572886
 30
0.0
 10
-39.171952
 20
16.705491
 30
0.0
 10
-38.952829
 20
16.876041
 30
0.0
 10
-38.710031
 20
17.079943
 30
0.0
 10
-38.449754
 20
17.312599
 30
0.0
 10
-38.178186
 20
17.569416
 30
0.0
 10
-37.120634
 20
18.494213
 30
0.0
 10
-35.807858
 20
19.467837
 30
0.0
 10
-34.263603
 20
20.476956
 30
0.0
 10
-32.511604
 20
21.508233
 30
0.0
 10
-30.575610
 20
22.548329
 30
0.0
 10
-28.479362
 20
23.583915
 30
0.0
 10
-26.246603
 20
24.601651
 30
0.0
 10
-23.901073
 20
25.588201
 30
0.0
 10
-22.325701
 20
26.280419
 30
0.0
 10
-21.018126
 20
26.985910
 30
0.0
 10
-19.960480
 20
27.725360
 30
0.0
 10
-19.134892
 20
28.519457
 30
0.0
 10
-18.523491
 20
29.388891
 30
0.0
 10
-18.108407
 20
30.354350
 30
0.0
 10
-17.871769
 20
31.436517
 30
0.0
 10
-17.795707
 20
32.656087
 30
0.0
 10
-17.799542
 20
33.022948
 30
0.0
 10
-17.817827
 20
33.308449
 30
0.0
 10
-17.859139
 20
33.525540
 30
0.0
 10
-17.932057
 20
33.687158
 30
0.0
 10
-18.045159
 20
33.806241
 30
0.0
 10
-18.207024
 20
33.895734
 30
0.0
 10
-18.426229
 20
33.968576
 30
0.0
 10
-18.711354
 20
34.037709
 30
0.0
 10
-19.004778
 20
34.105942
 30
0.0
 10
-19.201478
 20
34.165982
 30
0.0
 10
-19.290783
 20
34.227193
 30
0.0
 10
-19.262023
 20
34.298934
 30
0.0
 10
-19.104527
 20
34.390560
 30
0.0
 10
-18.807626
 20
34.511433
 30
0.0
 10
-18.360647
 20
34.670911
 30
0.0
 10
-17.752922
 20
34.878356
 30
0.0
 10
-16.568329
 20
35.317711
 30
0.0
 10
-15.356467
 20
35.838253
 30
0.0
 10
-14.139665
 20
36.427361
 30
0.0
 10
-12.940250
 20
37.072410
 30
0.0
 10
-11.780550
 20
37.760784
 30
0.0
 10
-10.682893
 20
38.479864
 30
0.0
 10
-9.669607
 20
39.217026
 30
0.0
 10
-8.763021
 20
39.959651
 30
0.0
 10
-6.417218
 20
41.854816
 30
0.0
 10
-3.808736
 20
43.675262
 30
0.0
 10
-1.001115
 20
45.389203
 30
0.0
 10
1.942108
 20
46.964847
 30
0.0
 10
4.957394
 20
48.370404
 30
0.0
 10
7.981203
 20
49.574084
 30
0.0
 10
10.949998
 20
50.544096
 30
0.0
 10
13.800240
 20
51.248653
 30
0.0
 10
14.919841
 20
51.460596
 30
0.0
 10
15.733638
 20
51.580058
 30
0.0
 10
16.242048
 20
51.606079
 30
0.0
 10
16.445488
 20
51.537733
 30
0.0
 10
16.344374
 20
51.374070
 30
0.0
 10
15.939124
 20
51.114143
 30
0.0
 10
15.230155
 20
50.757002
 30
0.0
 10
14.217883
 20
50.301704
 30
0.0
 10
12.283513
 20
49.438686
 30
0.0
 10
10.599599
 20
48.629159
 30
0.0
 10
9.116316
 20
47.841288
 30
0.0
 10
7.783835
 20
47.043243
 30
0.0
 10
6.552327
 20
46.203183
 30
0.0
 10
5.371966
 20
45.289277
 30
0.0
 10
4.192923
 20
44.269687
 30
0.0
 10
2.965370
 20
43.112581
 30
0.0
 10
2.026201
 20
42.193307
 30
0.0
 10
1.317735
 20
41.487797
 30
0.0
 10
0.823221
 20
40.974285
 30
0.0
 10
0.525908
 20
40.631015
 30
0.0
 10
0.409045
 20
40.436223
 30
0.0
 10
0.455881
 20
40.368145
 30
0.0
 10
0.649665
 20
40.405023
 30
0.0
 10
0.973646
 20
40.525095
 30
0.0
 10
1.242601
 20
40.633321
 30
0.0
 10
1.575063
 20
40.766993
 30
0.0
 10
1.957922
 20
40.920846
 30
0.0
 10
2.378071
 20
41.089615
 30
0.0
 10
2.822403
 20
41.268039
 30
0.0
 10
3.277811
 20
41.450846
 30
0.0
 10
3.731185
 20
41.632780
 30
0.0
 10
4.169420
 20
41.808571
 30
0.0
 10
5.930175
 20
42.473689
 30
0.0
 10
7.817992
 20
43.109708
 30
0.0
 10
9.812174
 20
43.711341
 30
0.0
 10
11.892022
 20
44.273302
 30
0.0
 10
14.036840
 20
44.790305
 30
0.0
 10
16.225931
 20
45.257061
 30
0.0
 10
18.438596
 20
45.668284
 30
0.0
 10
20.654139
 20
46.018691
 30
0.0
 10
22.163845
 20
46.271342
 30
0.0
 10
23.626991
 20
46.588238
 30
0.0
 10
25.046554
 20
46.970429
 30
0.0
 10
26.425510
 20
47.418976
 30
0.0
 10
27.766832
 20
47.934932
 30
0.0
 10
29.073496
 20
48.519349
 30
0.0
 10
30.348480
 20
49.173287
 30
0.0
 10
31.594756
 20
49.897796
 30
0.0
 10
33.049169
 20
50.881617
 30
0.0
 10
34.475077
 20
52.012521
 30
0.0
 10
35.843177
 20
53.258086
 30
0.0
 10
37.124170
 20
54.585900
 30
0.0
 10
38.288751
 20
55.963545
 30
0.0
 10
39.307613
 20
57.358600
 30
0.0
 10
40.151458
 20
58.738650
 30
0.0
 10
40.790979
 20
60.071278
 30
0.0
 10
40.976952
 20
60.519229
 30
0.0
 10
41.130523
 20
60.863704
 30
0.0
 10
41.256981
 20
61.110951
 30
0.0
 10
41.361618
 20
61.267226
 30
0.0
 10
41.449728
 20
61.338783
 30
0.0
 10
41.526599
 20
61.331869
 30
0.0
 10
41.597522
 20
61.252753
 30
0.0
 10
41.667787
 20
61.107683
 30
0.0
 10
41.713574
 20
60.943401
 30
0.0
 10
41.756232
 20
60.689923
 30
0.0
 10
41.794829
 20
60.359963
 30
0.0
 10
41.828442
 20
59.966238
 30
0.0
 10
41.856128
 20
59.521458
 30
0.0
 10
41.876984
 20
59.038339
 30
0.0
 10
41.890051
 20
58.529594
 30
0.0
 10
41.894425
 20
58.007937
 30
0.0
 10
41.837380
 20
56.572524
 30
0.0
 10
41.658897
 20
55.245608
 30
0.0
 10
41.345368
 20
53.997396
 30
0.0
 10
40.883189
 20
52.798090
 30
0.0
 10
40.258747
 20
51.617895
 30
0.0
 10
39.458441
 20
50.427016
 30
0.0
 10
38.468665
 20
49.195653
 30
0.0
 10
37.275808
 20
47.894016
 30
0.0
 10
35.665758
 20
46.366307
 30
0.0
 10
33.945859
 20
45.008962
 30
0.0
 10
32.113125
 20
43.820592
 30
0.0
 10
30.164575
 20
42.799800
 30
0.0
 10
28.097225
 20
41.945194
 30
0.0
 10
25.908092
 20
41.255384
 30
0.0
 10
23.594195
 20
40.728972
 30
0.0
 10
21.152549
 20
40.364569
 30
0.0
 10
19.681607
 20
40.185756
 30
0.0
 10
18.303977
 20
39.993566
 30
0.0
 10
17.028784
 20
39.789798
 30
0.0
 10
15.865150
 20
39.576252
 30
0.0
 10
14.822200
 20
39.354722
 30
0.0
 10
13.909056
 20
39.127014
 30
0.0
 10
13.134842
 20
38.894920
 30
0.0
 10
12.508681
 20
38.660243
 30
0.0
 10
12.247489
 20
38.544394
 30
0.0
 10
12.009082
 20
38.431056
 30
0.0
 10
11.798301
 20
38.323084
 30
0.0
 10
11.619988
 20
38.223335
 30
0.0
 10
11.478985
 20
38.134667
 30
0.0
 10
11.380134
 20
38.059937
 30
0.0
 10
11.328276
 20
38.002002
 30
0.0
 10
11.328252
 20
37.963716
 30
0.0
 10
11.420819
 20
37.946218
 30
0.0
 10
11.634327
 20
37.947912
 30
0.0
 10
11.955012
 20
37.967413
 30
0.0
 10
12.369108
 20
38.003431
 30
0.0
 10
12.862850
 20
38.054640
 30
0.0
 10
13.422474
 20
38.119717
 30
0.0
 10
14.034215
 20
38.197337
 30
0.0
 10
14.684306
 20
38.286181
 30
0.0
 10
15.589645
 20
38.398389
 30
0.0
 10
16.621026
 20
38.495846
 30
0.0
 10
17.792314
 20
38.579175
 30
0.0
 10
19.117371
 20
38.648997
 30
0.0
 10
20.610060
 20
38.705938
 30
0.0
 10
22.284244
 20
38.750625
 30
0.0
 10
24.153786
 20
38.783676
 30
0.0
 10
26.232549
 20
38.805718
 30
0.0
 10
28.720814
 20
38.828804
 30
0.0
 10
30.728907
 20
38.859348
 30
0.0
 10
32.342450
 20
38.902559
 30
0.0
 10
33.647057
 20
38.963658
 30
0.0
 10
34.728349
 20
39.047850
 30
0.0
 10
35.671945
 20
39.160353
 30
0.0
 10
36.563459
 20
39.306380
 30
0.0
 10
37.488516
 20
39.491145
 30
0.0
 10
38.697669
 20
39.767009
 30
0.0
 10
39.830252
 20
40.064784
 30
0.0
 10
40.881600
 20
40.382722
 30
0.0
 10
41.847054
 20
40.719080
 30
0.0
 10
42.721943
 20
41.072106
 30
0.0
 10
43.501610
 20
41.440056
 30
0.0
 10
44.181388
 20
41.821180
 30
0.0
 10
44.756616
 20
42.213737
 30
0.0
 10
45.183119
 20
42.511290
 30
0.0
 10
45.480397
 20
42.655872
 30
0.0
 10
45.648647
 20
42.649297
 30
0.0
 10
45.688065
 20
42.493391
 30
0.0
 10
45.598846
 20
42.189971
 30
0.0
 10
45.381193
 20
41.740849
 30
0.0
 10
45.035299
 20
41.147843
 30
0.0
 10
44.561363
 20
40.412770
 30
0.0
 10
43.999995
 20
39.636191
 30
0.0
 10
43.381576
 20
38.904507
 30
0.0
 10
42.701304
 20
38.213813
 30
0.0
 10
41.954386
 20
37.560209
 30
0.0
 10
41.136024
 20
36.939786
 30
0.0
 10
40.241416
 20
36.348643
 30
0.0
 10
39.265771
 20
35.782872
 30
0.0
 10
38.204291
 20
35.238570
 30
0.0
 10
36.966834
 20
34.687113
 30
0.0
 10
35.694319
 20
34.222691
 30
0.0
 10
34.337039
 20
33.836278
 30
0.0
 10
32.845280
 20
33.518857
 30
0.0
 10
31.169329
 20
33.261406
 30
0.0
 10
29.259478
 20
33.054904
 30
0.0
 10
27.066009
 20
32.890323
 30
0.0
 10
24.539216
 20
32.758649
 30
0.0
 10
23.307367
 20
32.701643
 30
0.0
 10
22.133106
 20
32.641064
 30
0.0
 10
21.043925
 20
32.578761
 30
0.0
 10
20.067316
 20
32.516590
 30
0.0
 10
19.230772
 20
32.456409
 30
0.0
 10
18.561782
 20
32.400075
 30
0.0
 10
18.087840
 20
32.349436
 30
0.0
 10
17.836438
 20
32.306352
 30
0.0
 10
17.629652
 20
32.226991
 30
0.0
 10
17.454543
 20
32.125868
 30
0.0
 10
17.317253
 20
32.012942
 30
0.0
 10
17.223926
 20
31.898176
 30
0.0
 10
17.180704
 20
31.791530
 30
0.0
 10
17.193732
 20
31.702966
 30
0.0
 10
17.269151
 20
31.642444
 30
0.0
 10
17.413105
 20
31.619922
 30
0.0
 10
17.495946
 20
31.611512
 30
0.0
 10
17.651175
 20
31.587523
 30
0.0
 10
17.869821
 20
31.549618
 30
0.0
 10
18.142914
 20
31.499481
 30
0.0
 10
18.461482
 20
31.438792
 30
0.0
 10
18.816554
 20
31.369236
 30
0.0
 10
19.199160
 20
31.292488
 30
0.0
 10
19.600327
 20
31.210232
 30
0.0
 10
20.083578
 20
31.118625
 30
0.0
 10
20.701435
 20
31.015083
 30
0.0
 10
21.428433
 20
30.903165
 30
0.0
 10
22.239105
 20
30.786430
 30
0.0
 10
23.107986
 20
30.668433
 30
0.0
 10
24.009609
 20
30.552738
 30
0.0
 10
24.918507
 20
30.442903
 30
0.0
 10
25.809216
 20
30.342486
 30
0.0
 10
28.086566
 20
30.057343
 30
0.0
 10
30.044552
 20
29.718193
 30
0.0
 10
31.739889
 20
29.301842
 30
0.0
 10
33.229292
 20
28.785102
 30
0.0
 10
34.569478
 20
28.144776
 30
0.0
 10
35.817159
 20
27.357678
 30
0.0
 10
37.029053
 20
26.400612
 30
0.0
 10
38.261876
 20
25.250387
 30
0.0
 10
38.831389
 20
24.669802
 30
0.0
 10
39.325963
 20
24.129474
 30
0.0
 10
39.763346
 20
23.603998
 30
0.0
 10
40.161299
 20
23.067962
 30
0.0
 10
40.537572
 20
22.495957
 30
0.0
 10
40.909919
 20
21.862574
 30
0.0
 10
41.296095
 20
21.142405
 30
0.0
 10
41.713854
 20
20.310039
 30
0.0
 10
42.007300
 20
19.702160
 30
0.0
 10
42.288540
 20
19.102452
 30
0.0
 10
42.550883
 20
18.526372
 30
0.0
 10
42.787642
 20
17.989376
 30
0.0
 10
42.992123
 20
17.506920
 30
0.0
 10
43.157638
 20
17.094464
 30
0.0
 10
43.277495
 20
16.767464
 30
0.0
 10
43.345005
 20
16.541379
 30
0.0
 10
43.396886
 20
16.287283
 30
0.0
 10
43.405438
 20
16.119849
 30
0.0
 10
43.352665
 20
16.047953
 30
0.0
 10
43.220579
 20
16.080465
 30
0.0
 10
42.991198
 20
16.226261
 30
0.0
 10
42.646528
 20
16.494214
 30
0.0
 10
42.168582
 20
16.893197
 30
0.0
 10
41.539373
 20
17.432083
 30
0.0
 10
40.212740
 20
18.535403
 30
0.0
 10
38.924042
 20
19.528535
 30
0.0
 10
37.669835
 20
20.413550
 30
0.0
 10
36.446665
 20
21.192522
 30
0.0
 10
35.251078
 20
21.867525
 30
0.0
 10
34.079627
 20
22.440633
 30
0.0
 10
32.928863
 20
22.913920
 30
0.0
 10
31.795332
 20
23.289459
 30
0.0
 10
30.852190
 20
23.545073
 30
0.0
 10
30.164192
 20
23.685724
 30
0.0
 10
29.729626
 20
23.706411
 30
0.0
 10
29.546788
 20
23.602147
 30
0.0
 10
29.613974
 20
23.367928
 30
0.0
 10
29.929471
 20
22.998759
 30
0.0
 10
30.491570
 20
22.489641
 30
0.0
 10
31.298570
 20
21.835577
 30
0.0
 10
34.567773
 20
18.818698
 30
0.0
 10
37.217921
 20
15.402889
 30
0.0
 10
39.237975
 20
11.632338
 30
0.0
 10
40.616902
 20
7.551207
 30
0.0
 10
41.343660
 20
3.203658
 30
0.0
 10
41.407214
 20
-1.366056
 30
0.0
 10
40.796527
 20
-6.113824
 30
0.0
 10
39.500563
 20
-10.995422
 30
0.0
 10
39.271627
 20
-11.673319
 30
0.0
 10
39.035006
 20
-12.355817
 30
0.0
 10
38.797525
 20
-13.024458
 30
0.0
 10
38.566012
 20
-13.660644
 30
0.0
 10
38.347293
 20
-14.245944
 30
0.0
 10
38.148196
 20
-14.761762
 30
0.0
 10
37.975547
 20
-15.189611
 30
0.0
 10
37.836172
 20
-15.510977
 30
0.0
 10
37.763164
 20
-15.669727
 30
0.0
 10
37.690155
 20
-15.828477
 30
0.0
 10
37.617147
 20
-15.987227
 30
0.0
 10
37.544139
 20
-16.145977
 30
0.0
 10
37.471134
 20
-16.304727
 30
0.0
 10
37.398126
 20
-16.463477
 30
0.0
 10
37.325118
 20
-16.622227
 30
0.0
 10
37.252110
 20
-16.780977
 30
0.0
 10
37.276776
 20
-16.639866
 30
0.0
 10
37.301442
 20
-16.498755
 30
0.0
 10
37.326109
 20
-16.357644
 30
0.0
 10
37.350775
 20
-16.216533
 30
0.0
 10
37.375441
 20
-16.075422
 30
0.0
 10
37.400107
 20
-15.934310
 30
0.0
 10
37.424773
 20
-15.793199
 30
0.0
 10
37.449440
 20
-15.652088
 30
0.0
 10
37.488821
 20
-15.330270
 30
0.0
 10
37.525058
 20
-14.846316
 30
0.0
 10
37.557392
 20
-14.223959
 30
0.0
 10
37.585078
 20
-13.486908
 30
0.0
 10
37.607346
 20
-12.658924
 30
0.0
 10
37.623432
 20
-11.763715
 30
0.0
 10
37.632576
 20
-10.824988
 30
0.0
 10
37.633988
 20
-9.866533
 30
0.0
 10
37.610817
 20
-8.139107
 30
0.0
 10
37.549081
 20
-6.596847
 30
0.0
 10
37.445381
 20
-5.216668
 30
0.0
 10
37.296328
 20
-3.975426
 30
0.0
 10
37.098539
 20
-2.850065
 30
0.0
 10
36.848625
 20
-1.817442
 30
0.0
 10
36.543199
 20
-0.854443
 30
0.0
 10
36.178875
 20
0.062017
 30
0.0
 10
36.112070
 20
0.214417
 30
0.0
 10
36.045266
 20
0.366817
 30
0.0
 10
35.978461
 20
0.519217
 30
0.0
 10
35.911653
 20
0.671645
 30
0.0
 10
35.844848
 20
0.824045
 30
0.0
 10
35.778043
 20
0.976445
 30
0.0
 10
35.711239
 20
1.128845
 30
0.0
 10
35.644434
 20
1.281245
 30
0.0
 10
35.621771
 20
0.763537
 30
0.0
 10
35.599109
 20
0.245828
 30
0.0
 10
35.576446
 20
-0.271908
 30
0.0
 10
35.553784
 20
-0.789617
 30
0.0
 10
35.531122
 20
-1.307325
 30
0.0
 10
35.508459
 20
-1.825034
 30
0.0
 10
35.485797
 20
-2.342770
 30
0.0
 10
35.463134
 20
-2.860479
 30
0.0
 10
35.176625
 20
-6.970481
 30
0.0
 10
34.691319
 20
-10.760754
 30
0.0
 10
34.008222
 20
-14.228249
 30
0.0
 10
33.128344
 20
-17.369890
 30
0.0
 10
32.052688
 20
-20.182630
 30
0.0
 10
30.782261
 20
-22.663420
 30
0.0
 10
29.318070
 20
-24.809127
 30
0.0
 10
27.661119
 20
-26.616760
 30
0.0
 10
27.363759
 20
-26.888851
 30
0.0
 10
27.080664
 20
-27.137009
 30
0.0
 10
26.818435
 20
-27.356182
 30
0.0
 10
26.583675
 20
-27.541377
 30
0.0
 10
26.382986
 20
-27.687568
 30
0.0
 10
26.222972
 20
-27.789704
 30
0.0
 10
26.110232
 20
-27.842790
 30
0.0
 10
26.051371
 20
-27.842790
 30
0.0
 10
26.039882
 20
-27.759337
 30
0.0
 10
26.062911
 20
-27.576146
 30
0.0
 10
26.117540
 20
-27.304733
 30
0.0
 10
26.200852
 20
-26.956669
 30
0.0
 10
26.309930
 20
-26.543467
 30
0.0
 10
26.441858
 20
-26.076700
 30
0.0
 10
26.593717
 20
-25.567881
 30
0.0
 10
26.762591
 20
-25.028583
 30
0.0
 10
27.168852
 20
-23.685770
 30
0.0
 10
27.546683
 20
-22.292213
 30
0.0
 10
27.888151
 20
-20.887254
 30
0.0
 10
28.185323
 20
-19.510235
 30
0.0
 10
28.430267
 20
-18.200470
 30
0.0
 10
28.615046
 20
-16.997244
 30
0.0
 10
28.731734
 20
-15.939927
 30
0.0
 10
28.772391
 20
-15.067804
 30
0.0
 10
28.768863
 20
-14.744800
 30
0.0
 10
28.758760
 20
-14.450273
 30
0.0
 10
28.742814
 20
-14.190205
 30
0.0
 10
28.721704
 20
-13.970495
 30
0.0
 10
28.696135
 20
-13.797154
 30
0.0
 10
28.666834
 20
-13.676138
 30
0.0
 10
28.634500
 20
-13.613400
 30
0.0
 10
28.599840
 20
-13.616222
 30
0.0
 10
28.546873
 20
-13.692958
 30
0.0
 10
28.462065
 20
-13.845894
 30
0.0
 10
28.349808
 20
-14.065886
 30
0.0
 10
28.214487
 20
-14.343706
 30
0.0
 10
28.060488
 20
-14.670265
 30
0.0
 10
27.892197
 20
-15.036364
 30
0.0
 10
27.714003
 20
-15.432802
 30
0.0
 10
27.530292
 20
-15.850490
 30
0.0
 10
26.620568
 20
-17.721624
 30
0.0
 10
25.557453
 20
-19.502615
 30
0.0
 10
24.337222
 20
-21.197473
 30
0.0
 10
22.956148
 20
-22.810232
 30
0.0
 10
21.410506
 20
-24.344900
 30
0.0
 10
19.696569
 20
-25.805456
 30
0.0
 10
17.810612
 20
-27.195937
 30
0.0
 10
15.748909
 20
-28.520321
 30
0.0
 10
14.587471
 20
-29.179310
 30
0.0
 10
13.324673
 20
-29.815269
 30
0.0
 10
11.920828
 20
-30.443383
 30
0.0
 10
10.336247
 20
-31.078722
 30
0.0
 10
8.531244
 20
-31.736497
 30
0.0
 10
6.466131
 20
-32.431836
 30
0.0
 10
4.101221
 20
-33.179838
 30
0.0
 10
1.396825
 20
-33.995686
 30
0.0
 10
-3.917638
 20
-35.598285
 30
0.0
 10
-8.267084
 20
-36.988427
 30
0.0
 10
-11.801386
 20
-38.232575
 30
0.0
 10
-14.670413
 20
-39.397222
 30
0.0
 10
-17.024037
 20
-40.548801
 30
0.0
 10
-19.012127
 20
-41.753806
 30
0.0
 10
-20.784554
 20
-43.078670
 30
0.0
 10
-22.491189
 20
-44.589913
 30
0.0
 10
-22.852917
 20
-44.937272
 30
0.0
 10
-23.247700
 20
-45.327021
 30
0.0
 10
-23.662798
 20
-45.745952
 30
0.0
 10
-24.085473
 20
-46.180828
 30
0.0
 10
-24.502985
 20
-46.618442
 30
0.0
 10
-24.902595
 20
-47.045529
 30
0.0
 10
-25.271565
 20
-47.448881
 30
0.0
 10
-25.597158
 20
-47.815262
 30
0.0
 10
-25.778766
 20
-48.023429
 30
0.0
 10
-25.960376
 20
-48.231596
 30
0.0
 10
-26.141985
 20
-48.439791
 30
0.0
 10
-26.323593
 20
-48.647958
 30
0.0
 10
-26.505202
 20
-48.856125
 30
0.0
 10
-26.686811
 20
-49.064292
 30
0.0
 10
-26.868420
 20
-49.272488
 30
0.0
 10
-27.050029
 20
-49.480655
 30
0.0
 10
-27.075632
 20
-49.207407
 30
0.0
 10
-27.101236
 20
-48.934188
 30
0.0
 10
-27.126839
 20
-48.660940
 30
0.0
 10
-27.152442
 20
-48.387693
 30
0.0
 10
-27.178045
 20
-48.114474
 30
0.0
 10
-27.203648
 20
-47.841226
 30
0.0
 10
-27.229252
 20
-47.568007
 30
0.0
 10
-27.254899
 20
-47.292202
 30
0.0
  0
LWPOLYLINE
  5
101
100
AcDbEntity
  8
Layer_1
 62
7
100
AcDbPolyline
 90
41
 70
1
 10
-4.702733
 20
23.835576
 30
0.0
 10
-3.949968
 20
24.075826
 30
0.0
 10
-3.397467
 20
24.290416
 30
0.0
 10
-3.041074
 20
24.491407
 30
0.0
 10
-2.876632
 20
24.690862
 30
0.0
 10
-2.899983
 20
24.900841
 30
0.0
 10
-3.106974
 20
25.133406
 30
0.0
 10
-3.493446
 20
25.400622
 30
0.0
 10
-4.055243
 20
25.714549
 30
0.0
 10
-5.147561
 20
26.213044
 30
0.0
 10
-6.199022
 20
26.545601
 30
0.0
 10
-7.187346
 20
26.714155
 30
0.0
 10
-8.090249
 20
26.720646
 30
0.0
 10
-8.885447
 20
26.566985
 30
0.0
 10
-9.550658
 20
26.255112
 30
0.0
 10
-10.063599
 20
25.786962
 30
0.0
 10
-10.401987
 20
25.164461
 30
0.0
 10
-10.472105
 20
24.994171
 30
0.0
 10
-10.560897
 20
24.827886
 30
0.0
 10
-10.664747
 20
24.669774
 30
0.0
 10
-10.780041
 20
24.524009
 30
0.0
 10
-10.903163
 20
24.394757
 30
0.0
 10
-11.030498
 20
24.286192
 30
0.0
 10
-11.158432
 20
24.202479
 30
0.0
 10
-11.283350
 20
24.147790
 30
0.0
 10
-11.399067
 20
24.104669
 30
0.0
 10
-11.500635
 20
24.054106
 30
0.0
 10
-11.586287
 20
23.997950
 30
0.0
 10
-11.654257
 20
23.938042
 30
0.0
 10
-11.702778
 20
23.876233
 30
0.0
 10
-11.730086
 20
23.814364
 30
0.0
 10
-11.734410
 20
23.754282
 30
0.0
 10
-11.713988
 20
23.697832
 30
0.0
 10
-11.400399
 20
23.566962
 30
0.0
 10
-10.719665
 20
23.482459
 30
0.0
 10
-9.774955
 20
23.442294
 30
0.0
 10
-8.669440
 20
23.444551
 30
0.0
 10
-7.506290
 20
23.486981
 30
0.0
 10
-6.388675
 20
23.567665
 30
0.0
 10
-5.419766
 20
23.684581
 30
0.0
 10
-4.702733
 20
23.835576
 30
0.0
  0
ENDSEC
  0
SECTION
  2
OBJECTS
  0
DICTIONARY
  5
C
330
0
100
AcDbDictionary
  3
ACAD_GROUP
350
D
  3
ACAD_MLINESTYLE
350
17
  0
DICTIONARY
  5
D
330
C
100
AcDbDictionary
  0
DICTIONARY
  5
1A
330
C
100
AcDbDictionary
  0
DICTIONARY
  5
17
330
C
100
AcDbDictionary
  3
STANDARD
350
18
  0
DICTIONARY
  5
19
330
C
100
AcDbDictionary
  0
ENDSEC
  0
EOF
