  0
SECTION
  2
HEADER
  9
$ACADVER
  1
AC1014
  9
$HANDSEED
  5
FFFF
  9
$MEASUREMENT
 70
     1
  0
ENDSEC
  0
SECTION
  2
TABLES
  0
TABLE
  2
VPORT
  5
8
330
0
100
AcDbSymbolTable
 70
     4
  0
VPORT
  5
2E
330
8
100
AcDbSymbolTableRecord
100
AcDbViewportTableRecord
  2
*ACTIVE
 70
     0
 10
0.0
 20
0.0
 11
1.0
 21
1.0
 12
210.0
 22
148.5
 13
0.0
 23
0.0
 14
10.0
 24
10.0
 15
10.0
 25
10.0
 16
0.0
 26
0.0
 36
1.0
 17
0.0
 27
0.0
 37
0.0
 40
341.0
 41
1.24
 42
50.0
 43
0.0
 44
0.0
 50
0.0
 51
0.0
 71
     0
 72
   100
 73
     1
 74
     3
 75
     0
 76
     0
 77
     0
 78
     0
  0
ENDTAB
  0
TABLE
  2
LTYPE
  5
5
330
0
100
AcDbSymbolTable
 70
     1
  0
LTYPE
  5
14
330
5
100
AcDbSymbolTableRecord
100
AcDbLinetypeTableRecord
  2
BYBLOCK
 70
     0
  3

 72
    65
 73
     0
 40
0.0
  0
LTYPE
  5
15
330
5
100
AcDbSymbolTableRecord
100
AcDbLinetypeTableRecord
  2
BYLAYER
 70
     0
  3

 72
    65
 73
     0
 40
0.0
  0
LTYPE
  5
16
330
5
100
AcDbSymbolTableRecord
100
AcDbLinetypeTableRecord
  2
CONTINUOUS
 70
     0
  3
Solid line
 72
    65
 73
     0
 40
0.0
  0
ENDTAB
  0
TABLE
  2
LAYER
  5
2
100
AcDbSymbolTable
 70
2
  0
LAYER
  5
50
100
AcDbSymbolTableRecord
100
AcDbLayerTableRecord
  2
0
 70
0
  6
CONTINUOUS
  0
LAYER
  5
51
100
AcDbSymbolTableRecord
100
AcDbLayerTableRecord
  2
Layer_1
 70
0
  6
CONTINUOUS
  0
ENDTAB
  0
TABLE
  2
STYLE
  5
3
330
0
100
AcDbSymbolTable
 70
     1
  0
STYLE
  5
11
330
3
100
AcDbSymbolTableRecord
100
AcDbTextStyleTableRecord
  2
STANDARD
 70
     0
 40
0.0
 41
1.0
 50
0.0
 71
     0
 42
2.5
  3
txt
  4

  0
ENDTAB
  0
TABLE
  2
VIEW
  5
6
330
0
100
AcDbSymbolTable
 70
     0
  0
ENDTAB
  0
TABLE
  2
UCS
  5
7
330
0
100
AcDbSymbolTable
 70
     0
  0
ENDTAB
  0
TABLE
  2
APPID
  5
9
330
0
100
AcDbSymbolTable
 70
     2
  0
APPID
  5
12
330
9
100
AcDbSymbolTableRecord
100
AcDbRegAppTableRecord
  2
ACAD
 70
     0
  0
ENDTAB
  0
TABLE
  2
DIMSTYLE
  5
A
330
0
100
AcDbSymbolTable
 70
     1
  0
DIMSTYLE
105
27
330
A
100
AcDbSymbolTableRecord
100
AcDbDimStyleTableRecord
  2
ISO-25
 70
     0
  3

  4

  5

  6

  7

 40
1.0
 41
2.5
 42
0.625
 43
3.75
 44
1.25
 45
0.0
 46
0.0
 47
0.0
 48
0.0
140
2.5
141
2.5
142
0.0
143
0.03937007874016
144
1.0
145
0.0
146
1.0
147
0.625
 71
     0
 72
     0
 73
     0
 74
     0
 75
     0
 76
     0
 77
     1
 78
     8
170
     0
171
     3
172
     1
173
     0
174
     0
175
     0
176
     0
177
     0
178
     0
270
     2
271
     2
272
     2
273
     2
274
     3
340
11
275
     0
280
     0
281
     0
282
     0
283
     0
284
     8
285
     0
286
     0
287
     3
288
     0
  0
ENDTAB
  0
TABLE
  2
BLOCK_RECORD
  5
1
330
0
100
AcDbSymbolTable
 70
     1
  0
BLOCK_RECORD
  5
1F
330
1
100
AcDbSymbolTableRecord
100
AcDbBlockTableRecord
  2
*MODEL_SPACE
  0
BLOCK_RECORD
  5
1B
330
1
100
AcDbSymbolTableRecord
100
AcDbBlockTableRecord
  2
*PAPER_SPACE
  0
ENDTAB
  0
ENDSEC
  0
SECTION
  2
BLOCKS
  0
BLOCK
  5
20
330
1F
100
AcDbEntity
  8
0
100
AcDbBlockBegin
  2
*MODEL_SPACE
 70
     0
 10
0.0
 20
0.0
 30
0.0
  3
*MODEL_SPACE
  1

  0
ENDBLK
  5
21
330
1F
100
AcDbEntity
  8
0
100
AcDbBlockEnd
  0
BLOCK
  5
1C
330
1B
100
AcDbEntity
 67
     1
  8
0
100
AcDbBlockBegin
  2
*PAPER_SPACE
  1

  0
ENDBLK
  5
1D
330
1B
100
AcDbEntity
 67
     1
  8
0
100
AcDbBlockEnd
  0
ENDSEC
  0
SECTION
  2
ENTITIES
  0
LWPOLYLINE
  5
100
100
AcDbEntity
  8
Layer_1
 62
7
100
AcDbPolyline
 90
417
 70
0
 10
22.639358
 20
0.940704
 30
0.0
 10
22.198010
 20
1.038325
 30
0.0
 10
21.775429
 20
1.138119
 30
0.0
 10
21.368108
 20
1.241384
 30
0.0
 10
20.972541
 20
1.349447
 30
0.0
 10
20.585220
 20
1.463662
 30
0.0
 10
20.202638
 20
1.585356
 30
0.0
 10
19.821290
 20
1.715828
 30
0.0
 10
19.437668
 20
1.856403
 30
0.0
 10
19.048266
 20
2.008436
 30
0.0
 10
18.649576
 20
2.173254
 30
0.0
 10
18.238092
 20
2.352182
 30
0.0
 10
17.810308
 20
2.546521
 30
0.0
 10
17.362715
 20
2.757651
 30
0.0
 10
16.891809
 20
2.986844
 30
0.0
 10
16.394081
 20
3.235425
 30
0.0
 10
15.866025
 20
3.504778
 30
0.0
 10
14.461399
 20
4.284671
 30
0.0
 10
13.122057
 20
5.144630
 30
0.0
 10
11.848670
 20
6.083640
 30
0.0
 10
10.641914
 20
7.100656
 30
0.0
 10
9.502462
 20
8.194690
 30
0.0
 10
8.430988
 20
9.364699
 30
0.0
 10
7.428166
 20
10.609666
 30
0.0
 10
6.494669
 20
11.928603
 30
0.0
 10
5.631171
 20
13.320467
 30
0.0
 10
4.838347
 20
14.784255
 30
0.0
 10
4.116870
 20
16.318945
 30
0.0
 10
3.467413
 20
17.923523
 30
0.0
 10
2.890651
 20
19.596971
 30
0.0
 10
2.387257
 20
21.338270
 30
0.0
 10
1.957906
 20
23.146406
 30
0.0
 10
1.603270
 20
25.020362
 30
0.0
 10
1.481412
 20
25.856199
 30
0.0
 10
1.381883
 20
26.756536
 30
0.0
 10
1.304365
 20
27.712203
 30
0.0
 10
1.248542
 20
28.714038
 30
0.0
 10
1.214098
 20
29.752873
 30
0.0
 10
1.200715
 20
30.819549
 30
0.0
 10
1.208077
 20
31.904893
 30
0.0
 10
1.235866
 20
32.999743
 30
0.0
 10
1.283768
 20
34.094938
 30
0.0
 10
1.351463
 20
35.181310
 30
0.0
 10
1.438637
 20
36.249690
 30
0.0
 10
1.544971
 20
37.290918
 30
0.0
 10
1.670150
 20
38.295830
 30
0.0
 10
1.813856
 20
39.255255
 30
0.0
 10
1.975774
 20
40.160032
 30
0.0
 10
2.155585
 20
41.000995
 30
0.0
 10
2.467743
 20
42.270244
 30
0.0
 10
2.809327
 20
43.539931
 30
0.0
 10
3.177511
 20
44.803304
 30
0.0
 10
3.569469
 20
46.053616
 30
0.0
 10
3.982373
 20
47.284116
 30
0.0
 10
4.413399
 20
48.488054
 30
0.0
 10
4.859718
 20
49.658681
 30
0.0
 10
5.318506
 20
50.789243
 30
0.0
 10
5.786935
 20
51.872996
 30
0.0
 10
6.262179
 20
52.903186
 30
0.0
 10
6.741412
 20
53.873065
 30
0.0
 10
7.221806
 20
54.775886
 30
0.0
 10
7.700537
 20
55.604894
 30
0.0
 10
8.174777
 20
56.353339
 30
0.0
 10
8.641700
 20
57.014475
 30
0.0
 10
9.098480
 20
57.581550
 30
0.0
 10
9.335885
 20
57.843133
 30
0.0
 10
9.569222
 20
58.078936
 30
0.0
 10
9.796398
 20
58.288268
 30
0.0
 10
10.015324
 20
58.470440
 30
0.0
 10
10.223911
 20
58.624762
 30
0.0
 10
10.420066
 20
58.750548
 30
0.0
 10
10.601699
 20
58.847102
 30
0.0
 10
10.766722
 20
58.913743
 30
0.0
 10
10.913041
 20
58.949775
 30
0.0
 10
11.038568
 20
58.954516
 30
0.0
 10
11.141213
 20
58.927253
 30
0.0
 10
11.218884
 20
58.867329
 30
0.0
 10
11.269491
 20
58.774041
 30
0.0
 10
11.290942
 20
58.646699
 30
0.0
 10
11.281149
 20
58.484613
 30
0.0
 10
11.238022
 20
58.287097
 30
0.0
 10
11.044773
 20
57.511223
 30
0.0
 10
10.892106
 20
56.708420
 30
0.0
 10
10.779581
 20
55.882564
 30
0.0
 10
10.706757
 20
55.037526
 30
0.0
 10
10.673194
 20
54.177183
 30
0.0
 10
10.678452
 20
53.305404
 30
0.0
 10
10.722091
 20
52.426067
 30
0.0
 10
10.803671
 20
51.543044
 30
0.0
 10
10.922751
 20
50.660211
 30
0.0
 10
11.078892
 20
49.781436
 30
0.0
 10
11.271652
 20
48.910594
 30
0.0
 10
11.500593
 20
48.051563
 30
0.0
 10
11.765274
 20
47.208213
 30
0.0
 10
12.065255
 20
46.384417
 30
0.0
 10
12.400095
 20
45.584052
 30
0.0
 10
12.769354
 20
44.810986
 30
0.0
 10
13.032236
 20
44.306901
 30
0.0
 10
13.294148
 20
43.830004
 30
0.0
 10
13.558304
 20
43.376521
 30
0.0
 10
13.827917
 20
42.942678
 30
0.0
 10
14.106201
 20
42.524701
 30
0.0
 10
14.396369
 20
42.118815
 30
0.0
 10
14.701637
 20
41.721243
 30
0.0
 10
15.025217
 20
41.328217
 30
0.0
 10
15.370323
 20
40.935959
 30
0.0
 10
15.740169
 20
40.540696
 30
0.0
 10
16.137969
 20
40.138653
 30
0.0
 10
16.566936
 20
39.726059
 30
0.0
 10
17.030285
 20
39.299135
 30
0.0
 10
17.531228
 20
38.854110
 30
0.0
 10
18.072981
 20
38.387208
 30
0.0
 10
18.658756
 20
37.894656
 30
0.0
 10
18.779503
 20
37.794019
 30
0.0
 10
18.886106
 20
37.703987
 30
0.0
 10
18.978679
 20
37.625416
 30
0.0
 10
19.057340
 20
37.559170
 30
0.0
 10
19.122203
 20
37.506101
 30
0.0
 10
19.173384
 20
37.467070
 30
0.0
 10
19.211000
 20
37.442940
 30
0.0
 10
19.235167
 20
37.434558
 30
0.0
 10
19.246002
 20
37.442799
 30
0.0
 10
19.243631
 20
37.468509
 30
0.0
 10
19.228145
 20
37.512539
 30
0.0
 10
19.199674
 20
37.575759
 30
0.0
 10
19.158333
 20
37.659023
 30
0.0
 10
19.104238
 20
37.763192
 30
0.0
 10
19.037505
 20
37.889119
 30
0.0
 10
18.958251
 20
38.037670
 30
0.0
 10
18.916323
 20
38.130346
 30
0.0
 10
18.875146
 20
38.249255
 30
0.0
 10
18.834871
 20
38.393208
 30
0.0
 10
18.795645
 20
38.561011
 30
0.0
 10
18.757617
 20
38.751480
 30
0.0
 10
18.720938
 20
38.963424
 30
0.0
 10
18.685757
 20
39.195653
 30
0.0
 10
18.652221
 20
39.446977
 30
0.0
 10
18.620481
 20
39.716212
 30
0.0
 10
18.590685
 20
40.002162
 30
0.0
 10
18.562982
 20
40.303640
 30
0.0
 10
18.537523
 20
40.619461
 30
0.0
 10
18.514454
 20
40.948428
 30
0.0
 10
18.493928
 20
41.289361
 30
0.0
 10
18.476091
 20
41.641063
 30
0.0
 10
18.461094
 20
42.002347
 30
0.0
 10
18.439307
 20
43.094739
 30
0.0
 10
18.459483
 20
44.129445
 30
0.0
 10
18.525205
 20
45.114519
 30
0.0
 10
18.640052
 20
46.058025
 30
0.0
 10
18.807602
 20
46.968025
 30
0.0
 10
19.031436
 20
47.852580
 30
0.0
 10
19.315132
 20
48.719747
 30
0.0
 10
19.662271
 20
49.577590
 30
0.0
 10
20.076431
 20
50.434171
 30
0.0
 10
20.561192
 20
51.297548
 30
0.0
 10
21.120134
 20
52.175784
 30
0.0
 10
21.756836
 20
53.076939
 30
0.0
 10
22.474878
 20
54.009074
 30
0.0
 10
23.277839
 20
54.980249
 30
0.0
 10
24.169299
 20
55.998526
 30
0.0
 10
25.152836
 20
57.071967
 30
0.0
 10
25.936846
 20
57.927461
 30
0.0
 10
26.651472
 20
58.742440
 30
0.0
 10
27.299308
 20
59.522333
 30
0.0
 10
27.882950
 20
60.272570
 30
0.0
 10
28.404993
 20
60.998581
 30
0.0
 10
28.868026
 20
61.705790
 30
0.0
 10
29.274649
 20
62.399631
 30
0.0
 10
29.627458
 20
63.085527
 30
0.0
 10
29.929041
 20
63.768911
 30
0.0
 10
30.181994
 20
64.455211
 30
0.0
 10
30.388916
 20
65.149856
 30
0.0
 10
30.552396
 20
65.858270
 30
0.0
 10
30.675033
 20
66.585890
 30
0.0
 10
30.759418
 20
67.338136
 30
0.0
 10
30.808146
 20
68.120442
 30
0.0
 10
30.823810
 20
68.938237
 30
0.0
 10
30.825221
 20
69.122884
 30
0.0
 10
30.829426
 20
69.304099
 30
0.0
 10
30.836284
 20
69.480863
 30
0.0
 10
30.845625
 20
69.652169
 30
0.0
 10
30.857338
 20
69.817004
 30
0.0
 10
30.871251
 20
69.974354
 30
0.0
 10
30.887225
 20
70.123207
 30
0.0
 10
30.905146
 20
70.262548
 30
0.0
 10
30.924845
 20
70.391366
 30
0.0
 10
30.946181
 20
70.508649
 30
0.0
 10
30.969041
 20
70.613384
 30
0.0
 10
30.993256
 20
70.704556
 30
0.0
 10
31.018684
 20
70.781157
 30
0.0
 10
31.045185
 20
70.842173
 30
0.0
 10
31.072617
 20
70.886587
 30
0.0
 10
31.100845
 20
70.913398
 30
0.0
 10
31.188833
 20
70.923530
 30
0.0
 10
31.305278
 20
70.867331
 30
0.0
 10
31.447100
 20
70.749794
 30
0.0
 10
31.611210
 20
70.575897
 30
0.0
 10
31.794530
 20
70.350630
 30
0.0
 10
31.993973
 20
70.078974
 30
0.0
 10
32.206459
 20
69.765916
 30
0.0
 10
32.428906
 20
69.416440
 30
0.0
 10
32.658226
 20
69.035528
 30
0.0
 10
32.891341
 20
68.628168
 30
0.0
 10
33.125165
 20
68.199343
 30
0.0
 10
33.356616
 20
67.754033
 30
0.0
 10
33.582611
 20
67.297231
 30
0.0
 10
33.800069
 20
66.833915
 30
0.0
 10
34.005902
 20
66.369072
 30
0.0
 10
34.197031
 20
65.907684
 30
0.0
 10
34.528188
 20
65.014674
 30
0.0
 10
34.824214
 20
64.084599
 30
0.0
 10
35.085001
 20
63.119292
 30
0.0
 10
35.310443
 20
62.120581
 30
0.0
 10
35.500438
 20
61.090303
 30
0.0
 10
35.654875
 20
60.030288
 30
0.0
 10
35.773654
 20
58.942369
 30
0.0
 10
35.856664
 20
57.828376
 30
0.0
 10
35.903801
 20
56.690143
 30
0.0
 10
35.914949
 20
55.529501
 30
0.0
 10
35.890029
 20
54.348285
 30
0.0
 10
35.828911
 20
53.148322
 30
0.0
 10
35.731496
 20
51.931450
 30
0.0
 10
35.597680
 20
50.699496
 30
0.0
 10
35.427356
 20
49.454298
 30
0.0
 10
35.220417
 20
48.197681
 30
0.0
 10
35.151467
 20
47.809213
 30
0.0
 10
35.085137
 20
47.430951
 30
0.0
 10
35.021741
 20
47.064883
 30
0.0
 10
34.961594
 20
46.712995
 30
0.0
 10
34.905005
 20
46.377274
 30
0.0
 10
34.852295
 20
46.059712
 30
0.0
 10
34.803775
 20
45.762292
 30
0.0
 10
34.759760
 20
45.487007
 30
0.0
 10
34.720562
 20
45.235843
 30
0.0
 10
34.686500
 20
45.010785
 30
0.0
 10
34.657883
 20
44.813828
 30
0.0
 10
34.635023
 20
44.646953
 30
0.0
 10
34.618259
 20
44.512152
 30
0.0
 10
34.607873
 20
44.411413
 30
0.0
 10
34.604204
 20
44.346722
 30
0.0
 10
34.607535
 20
44.320080
 30
0.0
 10
34.618090
 20
44.317202
 30
0.0
 10
34.635616
 20
44.322282
 30
0.0
 10
34.659718
 20
44.334953
 30
0.0
 10
34.689992
 20
44.354850
 30
0.0
 10
34.726031
 20
44.381605
 30
0.0
 10
34.767439
 20
44.414867
 30
0.0
 10
34.813814
 20
44.454274
 30
0.0
 10
34.864755
 20
44.499461
 30
0.0
 10
34.919862
 20
44.550063
 30
0.0
 10
34.978733
 20
44.605726
 30
0.0
 10
35.040969
 20
44.666085
 30
0.0
 10
35.106171
 20
44.730776
 30
0.0
 10
35.173938
 20
44.799440
 30
0.0
 10
35.243867
 20
44.871715
 30
0.0
 10
35.315557
 20
44.947237
 30
0.0
 10
35.388613
 20
45.025647
 30
0.0
 10
35.473102
 20
45.127476
 30
0.0
 10
35.564624
 20
45.257117
 30
0.0
 10
35.662653
 20
45.413381
 30
0.0
 10
35.766666
 20
45.595084
 30
0.0
 10
35.876135
 20
45.801033
 30
0.0
 10
35.990536
 20
46.030037
 30
0.0
 10
36.109344
 20
46.280910
 30
0.0
 10
36.232031
 20
46.552464
 30
0.0
 10
36.358072
 20
46.843503
 30
0.0
 10
36.486940
 20
47.152844
 30
0.0
 10
36.618111
 20
47.479296
 30
0.0
 10
36.751060
 20
47.821671
 30
0.0
 10
36.885260
 20
48.178775
 30
0.0
 10
37.020182
 20
48.549423
 30
0.0
 10
37.155304
 20
48.932427
 30
0.0
 10
37.290102
 20
49.326592
 30
0.0
 10
37.655741
 20
50.371656
 30
0.0
 10
38.028573
 20
51.354881
 30
0.0
 10
38.409915
 20
52.278087
 30
0.0
 10
38.801077
 20
53.143086
 30
0.0
 10
39.203371
 20
53.951704
 30
0.0
 10
39.618114
 20
54.705757
 30
0.0
 10
40.046612
 20
55.407059
 30
0.0
 10
40.490183
 20
56.057432
 30
0.0
 10
40.950138
 20
56.658695
 30
0.0
 10
41.427790
 20
57.212666
 30
0.0
 10
41.924451
 20
57.721163
 30
0.0
 10
42.441431
 20
58.186002
 30
0.0
 10
42.980049
 20
58.609006
 30
0.0
 10
43.541609
 20
58.991992
 30
0.0
 10
44.127432
 20
59.336775
 30
0.0
 10
44.738827
 20
59.645176
 30
0.0
 10
45.146525
 20
59.831076
 30
0.0
 10
45.508043
 20
59.986558
 30
0.0
 10
45.824773
 20
60.110670
 30
0.0
 10
46.098105
 20
60.202455
 30
0.0
 10
46.329429
 20
60.260954
 30
0.0
 10
46.520137
 20
60.285225
 30
0.0
 10
46.671617
 20
60.274275
 30
0.0
 10
46.785266
 20
60.227177
 30
0.0
 10
46.862467
 20
60.142968
 30
0.0
 10
46.904617
 20
60.020690
 30
0.0
 10
46.913112
 20
59.859383
 30
0.0
 10
46.889321
 20
59.658096
 30
0.0
 10
46.834654
 20
59.415868
 30
0.0
 10
46.750499
 20
59.131743
 30
0.0
 10
46.638242
 20
58.804763
 30
0.0
 10
46.499278
 20
58.433974
 30
0.0
 10
46.360013
 20
58.053556
 30
0.0
 10
46.232813
 20
57.664882
 30
0.0
 10
46.117790
 20
57.269026
 30
0.0
 10
46.015064
 20
56.867059
 30
0.0
 10
45.924756
 20
56.460058
 30
0.0
 10
45.846984
 20
56.049095
 30
0.0
 10
45.781864
 20
55.635241
 30
0.0
 10
45.729517
 20
55.219573
 30
0.0
 10
45.690060
 20
54.803163
 30
0.0
 10
45.663616
 20
54.387085
 30
0.0
 10
45.650295
 20
53.972411
 30
0.0
 10
45.650219
 20
53.560214
 30
0.0
 10
45.663511
 20
53.151570
 30
0.0
 10
45.690294
 20
52.747552
 30
0.0
 10
45.730666
 20
52.349232
 30
0.0
 10
45.784757
 20
51.957683
 30
0.0
 10
45.873733
 20
51.426320
 30
0.0
 10
45.972132
 20
50.910929
 30
0.0
 10
46.082795
 20
50.404210
 30
0.0
 10
46.208544
 20
49.898857
 30
0.0
 10
46.352221
 20
49.387572
 30
0.0
 10
46.516655
 20
48.863048
 30
0.0
 10
46.704680
 20
48.317987
 30
0.0
 10
46.919129
 20
47.745081
 30
0.0
 10
47.162834
 20
47.137036
 30
0.0
 10
47.438627
 20
46.486539
 30
0.0
 10
47.749345
 20
45.786298
 30
0.0
 10
48.097819
 20
45.029003
 30
0.0
 10
48.486879
 20
44.207355
 30
0.0
 10
48.919362
 20
43.314051
 30
0.0
 10
49.398101
 20
42.341787
 30
0.0
 10
49.925928
 20
41.283262
 30
0.0
 10
50.575013
 20
39.975834
 30
0.0
 10
51.157932
 20
38.772751
 30
0.0
 10
51.678036
 20
37.662506
 30
0.0
 10
52.138677
 20
36.633589
 30
0.0
 10
52.543206
 20
35.674490
 30
0.0
 10
52.894976
 20
34.773702
 30
0.0
 10
53.197337
 20
33.919712
 30
0.0
 10
53.453640
 20
33.101013
 30
0.0
 10
53.667237
 20
32.306098
 30
0.0
 10
53.841481
 20
31.523453
 30
0.0
 10
53.979722
 20
30.741573
 30
0.0
 10
54.085316
 20
29.948947
 30
0.0
 10
54.161606
 20
29.134067
 30
0.0
 10
54.211952
 20
28.285422
 30
0.0
 10
54.239694
 20
27.391505
 30
0.0
 10
54.248189
 20
26.440806
 30
0.0
 10
54.245931
 20
26.109279
 30
0.0
 10
54.239214
 20
25.766283
 30
0.0
 10
54.228292
 20
25.414318
 30
0.0
 10
54.213363
 20
25.055893
 30
0.0
 10
54.194652
 20
24.693512
 30
0.0
 10
54.172384
 20
24.329682
 30
0.0
 10
54.146758
 20
23.966911
 30
0.0
 10
54.117977
 20
23.607701
 30
0.0
 10
54.086261
 20
23.254562
 30
0.0
 10
54.051822
 20
22.910000
 30
0.0
 10
54.014876
 20
22.576515
 30
0.0
 10
53.975633
 20
22.256619
 30
0.0
 10
53.934307
 20
21.952818
 30
0.0
 10
53.891113
 20
21.667615
 30
0.0
 10
53.846259
 20
21.403517
 30
0.0
 10
53.799964
 20
21.163030
 30
0.0
 10
53.341528
 20
19.298419
 30
0.0
 10
52.748638
 20
17.486846
 30
0.0
 10
52.027114
 20
15.734127
 30
0.0
 10
51.182768
 20
14.046077
 30
0.0
 10
50.221417
 20
12.428520
 30
0.0
 10
49.148874
 20
10.887248
 30
0.0
 10
47.970957
 20
9.428103
 30
0.0
 10
46.693481
 20
8.056870
 30
0.0
 10
45.322259
 20
6.779391
 30
0.0
 10
43.863106
 20
5.601480
 30
0.0
 10
42.321839
 20
4.528923
 30
0.0
 10
40.704274
 20
3.567589
 30
0.0
 10
39.016224
 20
2.723237
 30
0.0
 10
37.263505
 20
2.001708
 30
0.0
 10
35.451929
 20
1.408815
 30
0.0
 10
33.587318
 20
0.950373
 30
0.0
 10
33.049976
 20
0.853063
 30
0.0
 10
32.450852
 20
0.768622
 30
0.0
 10
31.798989
 20
0.697022
 30
0.0
 10
31.103427
 20
0.638320
 30
0.0
 10
30.373211
 20
0.592487
 30
0.0
 10
29.617374
 20
0.559552
 30
0.0
 10
28.844969
 20
0.539514
 30
0.0
 10
28.065028
 20
0.532459
 30
0.0
 10
27.286597
 20
0.538385
 30
0.0
 10
26.518716
 20
0.557012
 30
0.0
 10
25.770427
 20
0.588649
 30
0.0
 10
25.050771
 20
0.633212
 30
0.0
 10
24.368790
 20
0.690701
 30
0.0
 10
23.733525
 20
0.761172
 30
0.0
 10
23.154017
 20
0.844596
 30
0.0
 10
22.639308
 20
0.940975
 30
0.0
 10
22.639308
 20
0.940975
 30
0.0
 10
22.639308
 20
0.940975
 30
0.0
 10
22.639308
 20
0.940975
 30
0.0
 10
22.639308
 20
0.940975
 30
0.0
 10
22.639308
 20
0.940975
 30
0.0
 10
22.639308
 20
0.940975
 30
0.0
 10
22.639308
 20
0.940975
 30
0.0
 10
22.639308
 20
0.940947
 30
0.0
 10
22.639308
 20
0.940947
 30
0.0
 10
22.639308
 20
0.940947
 30
0.0
 10
22.639308
 20
0.940947
 30
0.0
 10
22.639308
 20
0.940947
 30
0.0
 10
22.639308
 20
0.940947
 30
0.0
 10
22.639308
 20
0.940947
 30
0.0
 10
22.639308
 20
0.940947
 30
0.0
 10
22.639358
 20
0.940704
 30
0.0
  0
LWPOLYLINE
  5
101
100
AcDbEntity
  8
Layer_1
 62
7
100
AcDbPolyline
 90
145
 70
0
 10
14.803171
 20
50.846012
 30
0.0
 10
14.560457
 20
51.978494
 30
0.0
 10
14.377075
 20
53.089086
 30
0.0
 10
14.253261
 20
54.178929
 30
0.0
 10
14.189256
 20
55.249164
 30
0.0
 10
14.185296
 20
56.300930
 30
0.0
 10
14.241621
 20
57.335373
 30
0.0
 10
14.358468
 20
58.353628
 30
0.0
 10
14.536076
 20
59.356838
 30
0.0
 10
14.774683
 20
60.346143
 30
0.0
 10
15.074528
 20
61.322685
 30
0.0
 10
15.435848
 20
62.287606
 30
0.0
 10
15.858882
 20
63.242045
 30
0.0
 10
16.343868
 20
64.187139
 30
0.0
 10
16.891045
 20
65.124035
 30
0.0
 10
17.500651
 20
66.053873
 30
0.0
 10
18.172924
 20
66.977789
 30
0.0
 10
18.888897
 20
67.919920
 30
0.0
 10
19.539813
 20
68.787161
 30
0.0
 10
20.129344
 20
69.585635
 30
0.0
 10
20.661161
 20
70.321468
 30
0.0
 10
21.138934
 20
71.000785
 30
0.0
 10
21.566334
 20
71.629706
 30
0.0
 10
21.947031
 20
72.214358
 30
0.0
 10
22.284698
 20
72.760864
 30
0.0
 10
22.583003
 20
73.275349
 30
0.0
 10
22.845618
 20
73.763935
 30
0.0
 10
23.076214
 20
74.232749
 30
0.0
 10
23.278462
 20
74.687911
 30
0.0
 10
23.456032
 20
75.135549
 30
0.0
 10
23.612596
 20
75.581785
 30
0.0
 10
23.751823
 20
76.032742
 30
0.0
 10
23.877385
 20
76.494545
 30
0.0
 10
23.922063
 20
76.661929
 30
0.0
 10
23.968497
 20
76.821621
 30
0.0
 10
24.016509
 20
76.973282
 30
0.0
 10
24.065921
 20
77.116577
 30
0.0
 10
24.116555
 20
77.251166
 30
0.0
 10
24.168234
 20
77.376713
 30
0.0
 10
24.220779
 20
77.492881
 30
0.0
 10
24.274013
 20
77.599335
 30
0.0
 10
24.327758
 20
77.695731
 30
0.0
 10
24.381835
 20
77.781738
 30
0.0
 10
24.436068
 20
77.857018
 30
0.0
 10
24.490278
 20
77.921230
 30
0.0
 10
24.544287
 20
77.974042
 30
0.0
 10
24.597917
 20
78.015111
 30
0.0
 10
24.650992
 20
78.044103
 30
0.0
 10
24.703331
 20
78.060670
 30
0.0
 10
24.835047
 20
78.055929
 30
0.0
 10
24.975582
 20
77.993752
 30
0.0
 10
25.123484
 20
77.877324
 30
0.0
 10
25.277303
 20
77.709842
 30
0.0
 10
25.435586
 20
77.494498
 30
0.0
 10
25.596882
 20
77.234490
 30
0.0
 10
25.759740
 20
76.933014
 30
0.0
 10
25.922707
 20
76.593267
 30
0.0
 10
26.084332
 20
76.218442
 30
0.0
 10
26.243163
 20
75.811734
 30
0.0
 10
26.397749
 20
75.376341
 30
0.0
 10
26.546638
 20
74.915461
 30
0.0
 10
26.688378
 20
74.432286
 30
0.0
 10
26.821517
 20
73.930012
 30
0.0
 10
26.944606
 20
73.411835
 30
0.0
 10
27.056190
 20
72.880952
 30
0.0
 10
27.127872
 20
72.508512
 30
0.0
 10
27.190820
 20
72.163425
 30
0.0
 10
27.245160
 20
71.842219
 30
0.0
 10
27.291022
 20
71.541424
 30
0.0
 10
27.328532
 20
71.257568
 30
0.0
 10
27.357820
 20
70.987176
 30
0.0
 10
27.379012
 20
70.726781
 30
0.0
 10
27.392237
 20
70.472911
 30
0.0
 10
27.397624
 20
70.222089
 30
0.0
 10
27.395310
 20
69.970849
 30
0.0
 10
27.385404
 20
69.715717
 30
0.0
 10
27.368042
 20
69.453225
 30
0.0
 10
27.343353
 20
69.179896
 30
0.0
 10
27.311466
 20
68.892258
 30
0.0
 10
27.272508
 20
68.586845
 30
0.0
 10
27.226608
 20
68.260181
 30
0.0
 10
27.108314
 20
67.530406
 30
0.0
 10
26.968709
 20
66.825369
 30
0.0
 10
26.805571
 20
66.140724
 30
0.0
 10
26.616679
 20
65.472119
 30
0.0
 10
26.399810
 20
64.815208
 30
0.0
 10
26.152742
 20
64.165642
 30
0.0
 10
25.873254
 20
63.519074
 30
0.0
 10
25.559123
 20
62.871154
 30
0.0
 10
25.208126
 20
62.217536
 30
0.0
 10
24.818043
 20
61.553870
 30
0.0
 10
24.386650
 20
60.875812
 30
0.0
 10
23.911726
 20
60.179008
 30
0.0
 10
23.391049
 20
59.459110
 30
0.0
 10
22.822397
 20
58.711774
 30
0.0
 10
22.203547
 20
57.932652
 30
0.0
 10
21.532278
 20
57.117391
 30
0.0
 10
21.070934
 20
56.561537
 30
0.0
 10
20.640096
 20
56.033240
 30
0.0
 10
20.238025
 20
55.529885
 30
0.0
 10
19.862982
 20
55.048865
 30
0.0
 10
19.513226
 20
54.587567
 30
0.0
 10
19.187019
 20
54.143381
 30
0.0
 10
18.882620
 20
53.713689
 30
0.0
 10
18.598292
 20
53.295882
 30
0.0
 10
18.332293
 20
52.887351
 30
0.0
 10
18.082884
 20
52.485480
 30
0.0
 10
17.848327
 20
52.087657
 30
0.0
 10
17.626880
 20
51.691276
 30
0.0
 10
17.416806
 20
51.293718
 30
0.0
 10
17.216365
 20
50.892375
 30
0.0
 10
17.023816
 20
50.484635
 30
0.0
 10
16.837421
 20
50.067883
 30
0.0
 10
16.752895
 20
49.877366
 30
0.0
 10
16.667741
 20
49.692192
 30
0.0
 10
16.582528
 20
49.513316
 30
0.0
 10
16.497825
 20
49.341703
 30
0.0
 10
16.414200
 20
49.178307
 30
0.0
 10
16.332222
 20
49.024090
 30
0.0
 10
16.252461
 20
48.880010
 30
0.0
 10
16.175484
 20
48.747024
 30
0.0
 10
16.101860
 20
48.626092
 30
0.0
 10
16.032158
 20
48.518173
 30
0.0
 10
15.966947
 20
48.424226
 30
0.0
 10
15.906795
 20
48.345213
 30
0.0
 10
15.852272
 20
48.282088
 30
0.0
 10
15.803945
 20
48.235809
 30
0.0
 10
15.762385
 20
48.207341
 30
0.0
 10
15.728158
 20
48.197633
 30
0.0
 10
15.694887
 20
48.211377
 30
0.0
 10
15.656131
 20
48.251693
 30
0.0
 10
15.612364
 20
48.317222
 30
0.0
 10
15.564060
 20
48.406610
 30
0.0
 10
15.511694
 20
48.518500
 30
0.0
 10
15.455740
 20
48.651531
 30
0.0
 10
15.396672
 20
48.804346
 30
0.0
 10
15.334964
 20
48.975590
 30
0.0
 10
15.271091
 20
49.163905
 30
0.0
 10
15.205527
 20
49.367930
 30
0.0
 10
15.138745
 20
49.586307
 30
0.0
 10
15.071221
 20
49.817685
 30
0.0
 10
15.003428
 20
50.060698
 30
0.0
 10
14.935841
 20
50.313992
 30
0.0
 10
14.868933
 20
50.576208
 30
0.0
 10
14.803171
 20
50.846012
 30
0.0
  0
LWPOLYLINE
  5
102
100
AcDbEntity
  8
Layer_1
 62
7
100
AcDbPolyline
 90
145
 70
0
 10
37.983597
 20
57.538302
 30
0.0
 10
37.999769
 20
57.650068
 30
0.0
 10
38.008489
 20
57.785241
 30
0.0
 10
38.009901
 20
57.942792
 30
0.0
 10
38.004171
 20
58.121695
 30
0.0
 10
37.991415
 20
58.320924
 30
0.0
 10
37.971801
 20
58.539449
 30
0.0
 10
37.945441
 20
58.776242
 30
0.0
 10
37.912489
 20
59.030279
 30
0.0
 10
37.873085
 20
59.300529
 30
0.0
 10
37.827373
 20
59.585966
 30
0.0
 10
37.775495
 20
59.885562
 30
0.0
 10
37.717592
 20
60.198289
 30
0.0
 10
37.653801
 20
60.523121
 30
0.0
 10
37.584273
 20
60.859031
 30
0.0
 10
37.509142
 20
61.204990
 30
0.0
 10
37.428554
 20
61.559969
 30
0.0
 10
37.243772
 20
62.399535
 30
0.0
 10
37.093531
 20
63.181497
 30
0.0
 10
36.978776
 20
63.911044
 30
0.0
 10
36.900454
 20
64.593367
 30
0.0
 10
36.859512
 20
65.233656
 30
0.0
 10
36.856972
 20
65.837100
 30
0.0
 10
36.893624
 20
66.408891
 30
0.0
 10
36.970493
 20
66.954224
 30
0.0
 10
37.088524
 20
67.478282
 30
0.0
 10
37.248663
 20
67.986262
 30
0.0
 10
37.451857
 20
68.483349
 30
0.0
 10
37.699053
 20
68.974737
 30
0.0
 10
37.991195
 20
69.465617
 30
0.0
 10
38.329229
 20
69.961177
 30
0.0
 10
38.714101
 20
70.466612
 30
0.0
 10
39.146759
 20
70.987106
 30
0.0
 10
39.253482
 20
71.109291
 30
0.0
 10
39.359863
 20
71.228050
 30
0.0
 10
39.465233
 20
71.342768
 30
0.0
 10
39.568936
 20
71.452829
 30
0.0
 10
39.670301
 20
71.557618
 30
0.0
 10
39.768667
 20
71.656523
 30
0.0
 10
39.863372
 20
71.748925
 30
0.0
 10
39.953754
 20
71.834213
 30
0.0
 10
40.039143
 20
71.911770
 30
0.0
 10
40.118879
 20
71.980982
 30
0.0
 10
40.192297
 20
72.041231
 30
0.0
 10
40.258735
 20
72.091907
 30
0.0
 10
40.317527
 20
72.132392
 30
0.0
 10
40.368011
 20
72.162070
 30
0.0
 10
40.409523
 20
72.180330
 30
0.0
 10
40.441397
 20
72.186567
 30
0.0
 10
40.467926
 20
72.178891
 30
0.0
 10
40.493778
 20
72.156341
 30
0.0
 10
40.518811
 20
72.119678
 30
0.0
 10
40.542885
 20
72.069668
 30
0.0
 10
40.565857
 20
72.007071
 30
0.0
 10
40.587589
 20
71.932643
 30
0.0
 10
40.607965
 20
71.847147
 30
0.0
 10
40.626846
 20
71.751341
 30
0.0
 10
40.644089
 20
71.645987
 30
0.0
 10
40.659527
 20
71.531840
 30
0.0
 10
40.673074
 20
71.409666
 30
0.0
 10
40.684560
 20
71.280219
 30
0.0
 10
40.693873
 20
71.144261
 30
0.0
 10
40.700844
 20
71.002549
 30
0.0
 10
40.705360
 20
70.855850
 30
0.0
 10
40.707335
 20
70.704915
 30
0.0
 10
40.711512
 20
70.540071
 30
0.0
 10
40.722632
 20
70.352557
 30
0.0
 10
40.740355
 20
70.144506
 30
0.0
 10
40.764316
 20
69.918054
 30
0.0
 10
40.794141
 20
69.675334
 30
0.0
 10
40.829481
 20
69.418481
 30
0.0
 10
40.869977
 20
69.149627
 30
0.0
 10
40.915271
 20
68.870910
 30
0.0
 10
40.965001
 20
68.584463
 30
0.0
 10
41.018810
 20
68.292417
 30
0.0
 10
41.076341
 20
67.996910
 30
0.0
 10
41.137233
 20
67.700075
 30
0.0
 10
41.201128
 20
67.404046
 30
0.0
 10
41.267668
 20
67.110956
 30
0.0
 10
41.336491
 20
66.822942
 30
0.0
 10
41.407241
 20
66.542137
 30
0.0
 10
41.477991
 20
66.262350
 30
0.0
 10
41.546814
 20
65.977328
 30
0.0
 10
41.613353
 20
65.689103
 30
0.0
 10
41.677249
 20
65.399707
 30
0.0
 10
41.738141
 20
65.111174
 30
0.0
 10
41.795669
 20
64.825537
 30
0.0
 10
41.849480
 20
64.544833
 30
0.0
 10
41.899211
 20
64.271092
 30
0.0
 10
41.944502
 20
64.006348
 30
0.0
 10
41.984998
 20
63.752635
 30
0.0
 10
42.020338
 20
63.511984
 30
0.0
 10
42.050163
 20
63.286435
 30
0.0
 10
42.074124
 20
63.078017
 30
0.0
 10
42.091847
 20
62.888762
 30
0.0
 10
42.102967
 20
62.720707
 30
0.0
 10
42.107144
 20
62.575882
 30
0.0
 10
42.095488
 20
62.259629
 30
0.0
 10
42.058672
 20
61.931035
 30
0.0
 10
41.997980
 20
61.592735
 30
0.0
 10
41.914705
 20
61.247366
 30
0.0
 10
41.810141
 20
60.897562
 30
0.0
 10
41.685577
 20
60.545959
 30
0.0
 10
41.542304
 20
60.195188
 30
0.0
 10
41.381615
 20
59.847888
 30
0.0
 10
41.204803
 20
59.506692
 30
0.0
 10
41.013160
 20
59.174235
 30
0.0
 10
40.807973
 20
58.853153
 30
0.0
 10
40.590538
 20
58.546081
 30
0.0
 10
40.362147
 20
58.255652
 30
0.0
 10
40.124089
 20
57.984504
 30
0.0
 10
39.877656
 20
57.735268
 30
0.0
 10
39.624141
 20
57.510583
 30
0.0
 10
39.378718
 20
57.313301
 30
0.0
 10
39.153169
 20
57.142542
 30
0.0
 10
38.947324
 20
56.998307
 30
0.0
 10
38.761001
 20
56.880600
 30
0.0
 10
38.594027
 20
56.789423
 30
0.0
 10
38.446225
 20
56.724777
 30
0.0
 10
38.317416
 20
56.686671
 30
0.0
 10
38.207422
 20
56.675100
 30
0.0
 10
38.116073
 20
56.690086
 30
0.0
 10
38.043183
 20
56.731607
 30
0.0
 10
37.988584
 20
56.799673
 30
0.0
 10
37.952093
 20
56.894291
 30
0.0
 10
37.933523
 20
57.015463
 30
0.0
 10
37.932676
 20
57.163195
 30
0.0
 10
37.949440
 20
57.337484
 30
0.0
 10
37.983626
 20
57.538336
 30
0.0
 10
37.983626
 20
57.538336
 30
0.0
 10
37.983626
 20
57.538336
 30
0.0
 10
37.983626
 20
57.538339
 30
0.0
 10
37.983626
 20
57.538339
 30
0.0
 10
37.983626
 20
57.538339
 30
0.0
 10
37.983626
 20
57.538339
 30
0.0
 10
37.983626
 20
57.538339
 30
0.0
 10
37.983626
 20
57.538339
 30
0.0
 10
37.983626
 20
57.538342
 30
0.0
 10
37.983626
 20
57.538342
 30
0.0
 10
37.983626
 20
57.538342
 30
0.0
 10
37.983626
 20
57.538342
 30
0.0
 10
37.983626
 20
57.538342
 30
0.0
 10
37.983626
 20
57.538345
 30
0.0
 10
37.983626
 20
57.538345
 30
0.0
 10
37.983597
 20
57.538302
 30
0.0
  0
ENDSEC
  0
SECTION
  2
OBJECTS
  0
DICTIONARY
  5
C
330
0
100
AcDbDictionary
  3
ACAD_GROUP
350
D
  3
ACAD_MLINESTYLE
350
17
  0
DICTIONARY
  5
D
330
C
100
AcDbDictionary
  0
DICTIONARY
  5
1A
330
C
100
AcDbDictionary
  0
DICTIONARY
  5
17
330
C
100
AcDbDictionary
  3
STANDARD
350
18
  0
DICTIONARY
  5
19
330
C
100
AcDbDictionary
  0
ENDSEC
  0
EOF
