  0
SECTION
  2
HEADER
  9
$ACADVER
  1
AC1014
  9
$HANDSEED
  5
FFFF
  9
$MEASUREMENT
 70
     1
  0
ENDSEC
  0
SECTION
  2
TABLES
  0
TABLE
  2
VPORT
  5
8
330
0
100
AcDbSymbolTable
 70
     4
  0
VPORT
  5
2E
330
8
100
AcDbSymbolTableRecord
100
AcDbViewportTableRecord
  2
*ACTIVE
 70
     0
 10
0.0
 20
0.0
 11
1.0
 21
1.0
 12
210.0
 22
148.5
 13
0.0
 23
0.0
 14
10.0
 24
10.0
 15
10.0
 25
10.0
 16
0.0
 26
0.0
 36
1.0
 17
0.0
 27
0.0
 37
0.0
 40
341.0
 41
1.24
 42
50.0
 43
0.0
 44
0.0
 50
0.0
 51
0.0
 71
     0
 72
   100
 73
     1
 74
     3
 75
     0
 76
     0
 77
     0
 78
     0
  0
ENDTAB
  0
TABLE
  2
LTYPE
  5
5
330
0
100
AcDbSymbolTable
 70
     1
  0
LTYPE
  5
14
330
5
100
AcDbSymbolTableRecord
100
AcDbLinetypeTableRecord
  2
BYBLOCK
 70
     0
  3

 72
    65
 73
     0
 40
0.0
  0
LTYPE
  5
15
330
5
100
AcDbSymbolTableRecord
100
AcDbLinetypeTableRecord
  2
BYLAYER
 70
     0
  3

 72
    65
 73
     0
 40
0.0
  0
LTYPE
  5
16
330
5
100
AcDbSymbolTableRecord
100
AcDbLinetypeTableRecord
  2
CONTINUOUS
 70
     0
  3
Solid line
 72
    65
 73
     0
 40
0.0
  0
ENDTAB
  0
TABLE
  2
LAYER
  5
2
100
AcDbSymbolTable
 70
1
  0
LAYER
  5
50
100
AcDbSymbolTableRecord
100
AcDbLayerTableRecord
  2
0
 70
0
  6
CONTINUOUS
  0
ENDTAB
  0
TABLE
  2
STYLE
  5
3
330
0
100
AcDbSymbolTable
 70
     1
  0
STYLE
  5
11
330
3
100
AcDbSymbolTableRecord
100
AcDbTextStyleTableRecord
  2
STANDARD
 70
     0
 40
0.0
 41
1.0
 50
0.0
 71
     0
 42
2.5
  3
txt
  4

  0
ENDTAB
  0
TABLE
  2
VIEW
  5
6
330
0
100
AcDbSymbolTable
 70
     0
  0
ENDTAB
  0
TABLE
  2
UCS
  5
7
330
0
100
AcDbSymbolTable
 70
     0
  0
ENDTAB
  0
TABLE
  2
APPID
  5
9
330
0
100
AcDbSymbolTable
 70
     2
  0
APPID
  5
12
330
9
100
AcDbSymbolTableRecord
100
AcDbRegAppTableRecord
  2
ACAD
 70
     0
  0
ENDTAB
  0
TABLE
  2
DIMSTYLE
  5
A
330
0
100
AcDbSymbolTable
 70
     1
  0
DIMSTYLE
105
27
330
A
100
AcDbSymbolTableRecord
100
AcDbDimStyleTableRecord
  2
ISO-25
 70
     0
  3

  4

  5

  6

  7

 40
1.0
 41
2.5
 42
0.625
 43
3.75
 44
1.25
 45
0.0
 46
0.0
 47
0.0
 48
0.0
140
2.5
141
2.5
142
0.0
143
0.03937007874016
144
1.0
145
0.0
146
1.0
147
0.625
 71
     0
 72
     0
 73
     0
 74
     0
 75
     0
 76
     0
 77
     1
 78
     8
170
     0
171
     3
172
     1
173
     0
174
     0
175
     0
176
     0
177
     0
178
     0
270
     2
271
     2
272
     2
273
     2
274
     3
340
11
275
     0
280
     0
281
     0
282
     0
283
     0
284
     8
285
     0
286
     0
287
     3
288
     0
  0
ENDTAB
  0
TABLE
  2
BLOCK_RECORD
  5
1
330
0
100
AcDbSymbolTable
 70
     1
  0
BLOCK_RECORD
  5
1F
330
1
100
AcDbSymbolTableRecord
100
AcDbBlockTableRecord
  2
*MODEL_SPACE
  0
BLOCK_RECORD
  5
1B
330
1
100
AcDbSymbolTableRecord
100
AcDbBlockTableRecord
  2
*PAPER_SPACE
  0
ENDTAB
  0
ENDSEC
  0
SECTION
  2
BLOCKS
  0
BLOCK
  5
20
330
1F
100
AcDbEntity
  8
0
100
AcDbBlockBegin
  2
*MODEL_SPACE
 70
     0
 10
0.0
 20
0.0
 30
0.0
  3
*MODEL_SPACE
  1

  0
ENDBLK
  5
21
330
1F
100
AcDbEntity
  8
0
100
AcDbBlockEnd
  0
BLOCK
  5
1C
330
1B
100
AcDbEntity
 67
     1
  8
0
100
AcDbBlockBegin
  2
*PAPER_SPACE
  1

  0
ENDBLK
  5
1D
330
1B
100
AcDbEntity
 67
     1
  8
0
100
AcDbBlockEnd
  0
ENDSEC
  0
SECTION
  2
ENTITIES
  0
LWPOLYLINE
  5
100
100
AcDbEntity
  8
0
 62
7
100
AcDbPolyline
 90
417
 70
0
 10
145.334384
 20
160.139794
 30
0.0
 10
143.875528
 20
159.634461
 30
0.0
 10
142.416496
 20
159.123840
 30
0.0
 10
140.957072
 20
158.609152
 30
0.0
 10
139.497072
 20
158.091615
 30
0.0
 10
138.036304
 20
157.572447
 30
0.0
 10
136.574560
 20
157.052867
 30
0.0
 10
135.111648
 20
156.534096
 30
0.0
 10
133.647376
 20
156.017351
 30
0.0
 10
132.181536
 20
155.503851
 30
0.0
 10
130.713944
 20
154.994817
 30
0.0
 10
129.244400
 20
154.491465
 30
0.0
 10
127.772704
 20
153.995016
 30
0.0
 10
126.298656
 20
153.506689
 30
0.0
 10
124.822072
 20
153.027701
 30
0.0
 10
123.342744
 20
152.559273
 30
0.0
 10
121.860480
 20
152.102623
 30
0.0
 10
120.375088
 20
151.658971
 30
0.0
 10
118.886360
 20
151.229535
 30
0.0
 10
117.394112
 20
150.815533
 30
0.0
 10
115.898136
 20
150.418186
 30
0.0
 10
114.398248
 20
150.038711
 30
0.0
 10
112.894240
 20
149.678328
 30
0.0
 10
111.385920
 20
149.338257
 30
0.0
 10
109.873088
 20
149.019715
 30
0.0
 10
108.355560
 20
148.723923
 30
0.0
 10
106.833120
 20
148.452097
 30
0.0
 10
105.305592
 20
148.205459
 30
0.0
 10
103.772760
 20
147.985226
 30
0.0
 10
102.234440
 20
147.792618
 30
0.0
 10
100.690440
 20
147.628853
 30
0.0
 10
99.140544
 20
147.495151
 30
0.0
 10
97.584576
 20
147.392730
 30
0.0
 10
96.585832
 20
147.572691
 30
0.0
 10
95.604784
 20
147.813163
 30
0.0
 10
94.640072
 20
148.109187
 30
0.0
 10
93.690328
 20
148.455801
 30
0.0
 10
92.754184
 20
148.848047
 30
0.0
 10
91.830272
 20
149.280963
 30
0.0
 10
90.917232
 20
149.749590
 30
0.0
 10
90.013704
 20
150.248967
 30
0.0
 10
89.118312
 20
150.774134
 30
0.0
 10
88.229696
 20
151.320131
 30
0.0
 10
87.346488
 20
151.881997
 30
0.0
 10
86.467328
 20
152.454773
 30
0.0
 10
85.590848
 20
153.033498
 30
0.0
 10
84.715688
 20
153.613211
 30
0.0
 10
83.840472
 20
154.188953
 30
0.0
 10
82.963840
 20
154.755763
 30
0.0
 10
82.084424
 20
155.308683
 30
0.0
 10
81.200872
 20
155.842749
 30
0.0
 10
80.311800
 20
156.353003
 30
0.0
 10
79.415855
 20
156.834486
 30
0.0
 10
78.511669
 20
157.282235
 30
0.0
 10
77.597875
 20
157.691291
 30
0.0
 10
76.673110
 20
158.056694
 30
0.0
 10
75.736008
 20
158.373483
 30
0.0
 10
74.785204
 20
158.636699
 30
0.0
 10
73.819333
 20
158.841382
 30
0.0
 10
72.837028
 20
158.982570
 30
0.0
 10
71.836926
 20
159.055306
 30
0.0
 10
70.817661
 20
159.054625
 30
0.0
 10
69.777868
 20
158.975569
 30
0.0
 10
68.716181
 20
158.813178
 30
0.0
 10
67.631236
 20
158.562492
 30
0.0
 10
65.984829
 20
158.273570
 30
0.0
 10
64.340798
 20
157.973747
 30
0.0
 10
62.699062
 20
157.663432
 30
0.0
 10
61.059534
 20
157.343036
 30
0.0
 10
59.422130
 20
157.012967
 30
0.0
 10
57.786769
 20
156.673633
 30
0.0
 10
56.153365
 20
156.325445
 30
0.0
 10
54.521835
 20
155.968811
 30
0.0
 10
52.892095
 20
155.604141
 30
0.0
 10
51.264062
 20
155.231844
 30
0.0
 10
49.637650
 20
154.852329
 30
0.0
 10
48.012778
 20
154.466005
 30
0.0
 10
46.389361
 20
154.073282
 30
0.0
 10
44.767314
 20
153.674567
 30
0.0
 10
43.146555
 20
153.270272
 30
0.0
 10
41.526999
 20
152.860804
 30
0.0
 10
39.908562
 20
152.446574
 30
0.0
 10
38.291162
 20
152.027990
 30
0.0
 10
36.674714
 20
151.605461
 30
0.0
 10
35.059134
 20
151.179396
 30
0.0
 10
33.444338
 20
150.750206
 30
0.0
 10
31.830243
 20
150.318298
 30
0.0
 10
30.216765
 20
149.884082
 30
0.0
 10
28.603819
 20
149.447967
 30
0.0
 10
26.991323
 20
149.010363
 30
0.0
 10
25.379193
 20
148.571679
 30
0.0
 10
23.767343
 20
148.132323
 30
0.0
 10
22.155692
 20
147.692705
 30
0.0
 10
20.544154
 20
147.253235
 30
0.0
 10
18.932647
 20
146.814320
 30
0.0
 10
17.321086
 20
146.376371
 30
0.0
 10
15.709388
 20
145.939796
 30
0.0
 10
15.353187
 20
146.791860
 30
0.0
 10
14.990348
 20
147.551403
 30
0.0
 10
14.622951
 20
148.220907
 30
0.0
 10
14.253078
 20
148.802859
 30
0.0
 10
13.882811
 20
149.299743
 30
0.0
 10
13.514231
 20
149.714041
 30
0.0
 10
13.149418
 20
150.048239
 30
0.0
 10
12.790456
 20
150.304821
 30
0.0
 10
12.439424
 20
150.486271
 30
0.0
 10
12.098405
 20
150.595072
 30
0.0
 10
11.769480
 20
150.633712
 30
0.0
 10
11.454730
 20
150.604672
 30
0.0
 10
11.156237
 20
150.510435
 30
0.0
 10
10.876082
 20
150.353487
 30
0.0
 10
10.616346
 20
150.136312
 30
0.0
 10
10.379111
 20
149.861394
 30
0.0
 10
10.166458
 20
149.531217
 30
0.0
 10
9.980470
 20
149.148266
 30
0.0
 10
9.823226
 20
148.715025
 30
0.0
 10
9.696810
 20
148.233977
 30
0.0
 10
9.603301
 20
147.707608
 30
0.0
 10
9.544781
 20
147.138401
 30
0.0
 10
9.523333
 20
146.528840
 30
0.0
 10
9.541037
 20
145.881410
 30
0.0
 10
9.599973
 20
145.198595
 30
0.0
 10
9.702226
 20
144.482879
 30
0.0
 10
9.849874
 20
143.736746
 30
0.0
 10
10.045001
 20
142.962680
 30
0.0
 10
10.289687
 20
142.163167
 30
0.0
 10
10.586014
 20
141.340688
 30
0.0
 10
10.936062
 20
140.497731
 30
0.0
 10
11.341915
 20
139.636776
 30
0.0
 10
12.791669
 20
135.655664
 30
0.0
 10
14.243799
 20
131.674419
 30
0.0
 10
15.698158
 20
127.693055
 30
0.0
 10
17.154598
 20
123.711584
 30
0.0
 10
18.612973
 20
119.730019
 30
0.0
 10
20.073135
 20
115.748374
 30
0.0
 10
21.534939
 20
111.766661
 30
0.0
 10
22.998236
 20
107.784893
 30
0.0
 10
24.462880
 20
103.803083
 30
0.0
 10
25.928724
 20
99.821245
 30
0.0
 10
27.395620
 20
95.839391
 30
0.0
 10
28.863422
 20
91.857534
 30
0.0
 10
30.331983
 20
87.875689
 30
0.0
 10
31.801155
 20
83.893865
 30
0.0
 10
33.270793
 20
79.912073
 30
0.0
 10
34.740747
 20
75.930337
 30
0.0
 10
36.210873
 20
71.948665
 30
0.0
 10
37.681022
 20
67.967057
 30
0.0
 10
39.151047
 20
63.985545
 30
0.0
 10
40.620802
 20
60.004137
 30
0.0
 10
42.090140
 20
56.022841
 30
0.0
 10
43.558913
 20
52.041665
 30
0.0
 10
45.026975
 20
48.060633
 30
0.0
 10
46.494178
 20
44.079761
 30
0.0
 10
47.960376
 20
40.099049
 30
0.0
 10
49.425422
 20
36.118513
 30
0.0
 10
50.889167
 20
32.138169
 30
0.0
 10
52.351467
 20
28.158033
 30
0.0
 10
53.812173
 20
24.178121
 30
0.0
 10
55.271138
 20
20.198433
 30
0.0
 10
56.728216
 20
16.218985
 30
0.0
 10
58.183259
 20
12.239801
 30
0.0
 10
59.166183
 20
11.641585
 30
0.0
 10
60.034709
 20
11.198849
 30
0.0
 10
60.793947
 20
10.903633
 30
0.0
 10
61.449009
 20
10.748001
 30
0.0
 10
62.005003
 20
10.724001
 30
0.0
 10
62.467042
 20
10.823665
 30
0.0
 10
62.840234
 20
11.039057
 30
0.0
 10
63.129692
 20
11.362225
 30
0.0
 10
63.340525
 20
11.785209
 30
0.0
 10
63.477844
 20
12.300065
 30
0.0
 10
63.546756
 20
12.898849
 30
0.0
 10
63.552356
 20
13.573593
 30
0.0
 10
63.499796
 20
14.316361
 30
0.0
 10
63.394162
 20
15.119201
 30
0.0
 10
63.240567
 20
15.974153
 30
0.0
 10
63.044120
 20
16.873273
 30
0.0
 10
62.809932
 20
17.808609
 30
0.0
 10
62.543114
 20
18.772209
 30
0.0
 10
62.248774
 20
19.756121
 30
0.0
 10
61.932026
 20
20.752401
 30
0.0
 10
61.597979
 20
21.753097
 30
0.0
 10
61.251744
 20
22.750249
 30
0.0
 10
60.898430
 20
23.735913
 30
0.0
 10
60.543148
 20
24.702129
 30
0.0
 10
60.191010
 20
25.640961
 30
0.0
 10
59.847124
 20
26.544457
 30
0.0
 10
59.516602
 20
27.404657
 30
0.0
 10
59.204555
 20
28.213609
 30
0.0
 10
58.916092
 20
28.963369
 30
0.0
 10
58.656325
 20
29.645985
 30
0.0
 10
58.430362
 20
30.253505
 30
0.0
 10
58.243317
 20
30.777977
 30
0.0
 10
57.629255
 20
32.464033
 30
0.0
 10
57.014894
 20
34.149977
 30
0.0
 10
56.400282
 20
35.835833
 30
0.0
 10
55.785466
 20
37.521617
 30
0.0
 10
55.170495
 20
39.207353
 30
0.0
 10
54.555418
 20
40.893041
 30
0.0
 10
53.940282
 20
42.578713
 30
0.0
 10
53.325138
 20
44.264385
 30
0.0
 10
52.710031
 20
45.950073
 30
0.0
 10
52.095011
 20
47.635785
 30
0.0
 10
51.480126
 20
49.321553
 30
0.0
 10
50.865426
 20
51.007385
 30
0.0
 10
50.250956
 20
52.693305
 30
0.0
 10
49.636767
 20
54.379321
 30
0.0
 10
49.022906
 20
56.065457
 30
0.0
 10
48.409422
 20
57.751729
 30
0.0
 10
47.796364
 20
59.438161
 30
0.0
 10
47.183779
 20
61.124753
 30
0.0
 10
46.571716
 20
62.811545
 30
0.0
 10
45.960223
 20
64.498537
 30
0.0
 10
45.349350
 20
66.185753
 30
0.0
 10
44.739142
 20
67.873201
 30
0.0
 10
44.129650
 20
69.560921
 30
0.0
 10
43.520921
 20
71.248905
 30
0.0
 10
42.913004
 20
72.937185
 30
0.0
 10
42.305948
 20
74.625777
 30
0.0
 10
41.699800
 20
76.314697
 30
0.0
 10
41.094609
 20
78.003961
 30
0.0
 10
40.490423
 20
79.693585
 30
0.0
 10
39.887291
 20
81.383593
 30
0.0
 10
39.285261
 20
83.073993
 30
0.0
 10
38.684381
 20
84.764809
 30
0.0
 10
40.189756
 20
85.325689
 30
0.0
 10
41.697924
 20
85.887537
 30
0.0
 10
43.208934
 20
86.449265
 30
0.0
 10
44.722831
 20
87.009777
 30
0.0
 10
46.239664
 20
87.567985
 30
0.0
 10
47.759479
 20
88.122817
 30
0.0
 10
49.282325
 20
88.673169
 30
0.0
 10
50.808246
 20
89.217969
 30
0.0
 10
52.337293
 20
89.756113
 30
0.0
 10
53.869511
 20
90.286529
 30
0.0
 10
55.404947
 20
90.808124
 30
0.0
 10
56.943650
 20
91.319810
 30
0.0
 10
58.485666
 20
91.820500
 30
0.0
 10
60.031041
 20
92.309109
 30
0.0
 10
61.579824
 20
92.784547
 30
0.0
 10
63.132062
 20
93.245729
 30
0.0
 10
64.687802
 20
93.691567
 30
0.0
 10
66.247091
 20
94.120974
 30
0.0
 10
67.809977
 20
94.532863
 30
0.0
 10
69.376506
 20
94.926147
 30
0.0
 10
70.946726
 20
95.299738
 30
0.0
 10
72.520685
 20
95.652550
 30
0.0
 10
74.098428
 20
95.983495
 30
0.0
 10
75.680004
 20
96.291487
 30
0.0
 10
77.265460
 20
96.575438
 30
0.0
 10
78.854842
 20
96.834260
 30
0.0
 10
80.448201
 20
97.066868
 30
0.0
 10
82.045577
 20
97.272174
 30
0.0
 10
83.647025
 20
97.449090
 30
0.0
 10
85.252585
 20
97.596529
 30
0.0
 10
86.862313
 20
97.713405
 30
0.0
 10
88.476249
 20
97.798631
 30
0.0
 10
89.383833
 20
97.536202
 30
0.0
 10
90.280921
 20
97.228628
 30
0.0
 10
91.168537
 20
96.880263
 30
0.0
 10
92.047697
 20
96.495462
 30
0.0
 10
92.919433
 20
96.078576
 30
0.0
 10
93.784761
 20
95.633960
 30
0.0
 10
94.644705
 20
95.165968
 30
0.0
 10
95.500273
 20
94.678954
 30
0.0
 10
96.352505
 20
94.177269
 30
0.0
 10
97.202417
 20
93.665270
 30
0.0
 10
98.051017
 20
93.147308
 30
0.0
 10
98.899345
 20
92.627738
 30
0.0
 10
99.748409
 20
92.110914
 30
0.0
 10
100.599241
 20
91.601188
 30
0.0
 10
101.452857
 20
91.102915
 30
0.0
 10
102.310273
 20
90.620449
 30
0.0
 10
103.172521
 20
90.158137
 30
0.0
 10
104.040609
 20
89.720345
 30
0.0
 10
104.915569
 20
89.311417
 30
0.0
 10
105.798425
 20
88.935713
 30
0.0
 10
106.690185
 20
88.597585
 30
0.0
 10
107.591881
 20
88.301377
 30
0.0
 10
108.504529
 20
88.051457
 30
0.0
 10
109.429153
 20
87.852169
 30
0.0
 10
110.366777
 20
87.707873
 30
0.0
 10
111.318417
 20
87.622913
 30
0.0
 10
112.285097
 20
87.601633
 30
0.0
 10
113.267841
 20
87.648433
 30
0.0
 10
114.267665
 20
87.767625
 30
0.0
 10
115.285593
 20
87.963577
 30
0.0
 10
116.322641
 20
88.240633
 30
0.0
 10
117.379841
 20
88.603161
 30
0.0
 10
118.884001
 20
88.820913
 30
0.0
 10
120.382849
 20
89.060801
 30
0.0
 10
121.876633
 20
89.321769
 30
0.0
 10
123.365585
 20
89.602761
 30
0.0
 10
124.849961
 20
89.902737
 30
0.0
 10
126.330009
 20
90.220633
 30
0.0
 10
127.805969
 20
90.555401
 30
0.0
 10
129.278097
 20
90.905990
 30
0.0
 10
130.746625
 20
91.271339
 30
0.0
 10
132.211809
 20
91.650400
 30
0.0
 10
133.673889
 20
92.042119
 30
0.0
 10
135.133121
 20
92.445443
 30
0.0
 10
136.589745
 20
92.859319
 30
0.0
 10
138.044001
 20
93.282695
 30
0.0
 10
139.496145
 20
93.714516
 30
0.0
 10
140.946425
 20
94.153731
 30
0.0
 10
142.395073
 20
94.599286
 30
0.0
 10
143.842345
 20
95.050127
 30
0.0
 10
145.288489
 20
95.505204
 30
0.0
 10
146.733753
 20
95.963461
 30
0.0
 10
148.178369
 20
96.423847
 30
0.0
 10
149.622601
 20
96.885307
 30
0.0
 10
151.066681
 20
97.346789
 30
0.0
 10
152.510865
 20
97.807240
 30
0.0
 10
153.955393
 20
98.265607
 30
0.0
 10
155.400513
 20
98.720838
 30
0.0
 10
156.846473
 20
99.171879
 30
0.0
 10
158.293521
 20
99.617676
 30
0.0
 10
159.741889
 20
100.057177
 30
0.0
 10
161.191841
 20
100.489330
 30
0.0
 10
162.643617
 20
100.913079
 30
0.0
 10
164.097465
 20
101.327375
 30
0.0
 10
164.130665
 20
102.135837
 30
0.0
 10
164.125065
 20
102.950615
 30
0.0
 10
164.082345
 20
103.771375
 30
0.0
 10
164.004825
 20
104.597783
 30
0.0
 10
163.894569
 20
105.429505
 30
0.0
 10
163.753673
 20
106.266205
 30
0.0
 10
163.584209
 20
107.107550
 30
0.0
 10
163.388289
 20
107.953205
 30
0.0
 10
163.167977
 20
108.802836
 30
0.0
 10
162.925377
 20
109.656109
 30
0.0
 10
162.662569
 20
110.512689
 30
0.0
 10
162.381649
 20
111.372242
 30
0.0
 10
162.084697
 20
112.234433
 30
0.0
 10
161.773801
 20
113.098929
 30
0.0
 10
161.451049
 20
113.965395
 30
0.0
 10
161.118537
 20
114.833497
 30
0.0
 10
160.778345
 20
115.702899
 30
0.0
 10
160.432569
 20
116.573269
 30
0.0
 10
160.083281
 20
117.444271
 30
0.0
 10
159.732585
 20
118.315572
 30
0.0
 10
159.382561
 20
119.186837
 30
0.0
 10
159.035297
 20
120.057731
 30
0.0
 10
158.692881
 20
120.927921
 30
0.0
 10
158.357409
 20
121.797071
 30
0.0
 10
158.030953
 20
122.664848
 30
0.0
 10
157.715617
 20
123.530918
 30
0.0
 10
157.413481
 20
124.394946
 30
0.0
 10
157.126633
 20
125.256596
 30
0.0
 10
156.857169
 20
126.115537
 30
0.0
 10
156.607161
 20
126.971432
 30
0.0
 10
156.378705
 20
127.823948
 30
0.0
 10
156.173897
 20
128.672751
 30
0.0
 10
155.835849
 20
129.656329
 30
0.0
 10
155.497793
 20
130.639907
 30
0.0
 10
155.159729
 20
131.623483
 30
0.0
 10
154.821657
 20
132.607054
 30
0.0
 10
154.483569
 20
133.590620
 30
0.0
 10
154.145465
 20
134.574180
 30
0.0
 10
153.807337
 20
135.557731
 30
0.0
 10
153.469177
 20
136.541274
 30
0.0
 10
153.130993
 20
137.524805
 30
0.0
 10
152.792769
 20
138.508324
 30
0.0
 10
152.454505
 20
139.491830
 30
0.0
 10
152.116193
 20
140.475321
 30
0.0
 10
151.777841
 20
141.458795
 30
0.0
 10
151.439433
 20
142.442251
 30
0.0
 10
151.100969
 20
143.425687
 30
0.0
 10
150.762449
 20
144.409103
 30
0.0
 10
150.423857
 20
145.392498
 30
0.0
 10
150.085201
 20
146.375868
 30
0.0
 10
149.746473
 20
147.359214
 30
0.0
 10
149.407665
 20
148.342532
 30
0.0
 10
149.068785
 20
149.325824
 30
0.0
 10
148.729809
 20
150.309086
 30
0.0
 10
148.390753
 20
151.292318
 30
0.0
 10
148.051601
 20
152.275517
 30
0.0
 10
147.712353
 20
153.258683
 30
0.0
 10
147.373001
 20
154.241815
 30
0.0
 10
147.033545
 20
155.224909
 30
0.0
 10
146.693985
 20
156.207967
 30
0.0
 10
146.354305
 20
157.190985
 30
0.0
 10
146.014513
 20
158.173963
 30
0.0
 10
145.674593
 20
159.156899
 30
0.0
 10
145.334553
 20
160.139791
 30
0.0
 10
145.334553
 20
160.139791
 30
0.0
 10
145.334553
 20
160.139791
 30
0.0
 10
145.334553
 20
160.139791
 30
0.0
 10
145.334553
 20
160.139791
 30
0.0
 10
145.334553
 20
160.139791
 30
0.0
 10
145.334553
 20
160.139791
 30
0.0
 10
145.334553
 20
160.139791
 30
0.0
 10
145.334553
 20
160.139791
 30
0.0
 10
145.334545
 20
160.139791
 30
0.0
 10
145.334545
 20
160.139791
 30
0.0
 10
145.334545
 20
160.139791
 30
0.0
 10
145.334545
 20
160.139791
 30
0.0
 10
145.334545
 20
160.139791
 30
0.0
 10
145.334545
 20
160.139791
 30
0.0
 10
145.334545
 20
160.139791
 30
0.0
 10
145.334545
 20
160.139791
 30
0.0
 10
145.334545
 20
160.139792
 30
0.0
 10
145.334545
 20
160.139792
 30
0.0
 10
145.334545
 20
160.139792
 30
0.0
 10
145.334545
 20
160.139792
 30
0.0
 10
145.334545
 20
160.139792
 30
0.0
 10
145.334545
 20
160.139792
 30
0.0
 10
145.334545
 20
160.139792
 30
0.0
 10
145.334537
 20
160.139792
 30
0.0
 10
145.334537
 20
160.139792
 30
0.0
 10
145.334537
 20
160.139792
 30
0.0
 10
145.334537
 20
160.139792
 30
0.0
 10
145.334537
 20
160.139792
 30
0.0
 10
145.334537
 20
160.139792
 30
0.0
 10
145.334537
 20
160.139792
 30
0.0
 10
145.334537
 20
160.139792
 30
0.0
 10
145.334384
 20
160.139794
 30
0.0
  0
ENDSEC
  0
SECTION
  2
OBJECTS
  0
DICTIONARY
  5
C
330
0
100
AcDbDictionary
  3
ACAD_GROUP
350
D
  3
ACAD_MLINESTYLE
350
17
  0
DICTIONARY
  5
D
330
C
100
AcDbDictionary
  0
DICTIONARY
  5
1A
330
C
100
AcDbDictionary
  0
DICTIONARY
  5
17
330
C
100
AcDbDictionary
  3
STANDARD
350
18
  0
DICTIONARY
  5
19
330
C
100
AcDbDictionary
  0
ENDSEC
  0
EOF
