<?xml version="1.0" encoding="UTF-8" standalone="no"?>
<svg
   xmlns:dc="http://purl.org/dc/elements/1.1/"
   xmlns:cc="http://creativecommons.org/ns#"
   xmlns:rdf="http://www.w3.org/1999/02/22-rdf-syntax-ns#"
   xmlns:svg="http://www.w3.org/2000/svg"
   xmlns="http://www.w3.org/2000/svg"
   xmlns:sodipodi="http://sodipodi.sourceforge.net/DTD/sodipodi-0.dtd"
   xmlns:inkscape="http://www.inkscape.org/namespaces/inkscape"
   width="213.33333333333331"
   height="213.33333333333331"
   id="svg3190"
   version="1.1"
   inkscape:version="0.48.4 r9939"
   sodipodi:docname="flag.svg">
  <defs
     id="defs3205" />
  <sodipodi:namedview
     pagecolor="#ffffff"
     bordercolor="#666666"
     borderopacity="1"
     objecttolerance="10"
     gridtolerance="10"
     guidetolerance="10"
     inkscape:pageopacity="0"
     inkscape:pageshadow="2"
     inkscape:window-width="2560"
     inkscape:window-height="1375"
     id="namedview3203"
     showgrid="false"
     inkscape:zoom="3.1289476"
     inkscape:cx="87.61025"
     inkscape:cy="112.3192"
     inkscape:window-x="0"
     inkscape:window-y="0"
     inkscape:window-maximized="1"
     inkscape:current-layer="svg3190" />
  <metadata
     id="metadata4">image/svg+xmlWaving White FlagNicu BuculeiNicu Buculeiflag<rdf:RDF>
  <cc:Work
     rdf:about="">
    <dc:format>image/svg+xml</dc:format>
    <dc:type
       rdf:resource="http://purl.org/dc/dcmitype/StillImage" />
    <dc:title></dc:title>
  </cc:Work>
</rdf:RDF>
</metadata>
  <path
     style="fill:#000000;fill-opacity:1;fill-rule:evenodd;stroke-width:2.5;stroke-miterlimit:4"
     inkscape:connector-curvature="0"
     d="m 181.66798,13.158591 -1.82357,0.631666 -1.82379,0.638276 -1.82428,0.64336 -1.825,0.646922 -1.82596,0.64896 -1.82718,0.649474 -1.82864,0.648464 -1.83034,0.645932 -1.8323,0.641874 -1.83449,0.636293 -1.83693,0.62919 -1.83962,0.620561 -1.84256,0.610409 -1.84573,0.598735 -1.84916,0.585535 -1.85283,0.570812 -1.85674,0.554566 -1.86091,0.536795 -1.86531,0.517502 -1.86997,0.496684 -1.87486,0.474343 -1.88001,0.450479 -1.8854,0.425089 -1.89104,0.398177 -1.89691,0.369741 -1.90305,0.339782 -1.90941,0.308298 -1.91604,0.275291 -1.9229,0.24076 -1.93,0.204706 -1.93737,0.167128 -1.94496,0.128026 -1.24843,-0.224951 -1.22631,-0.30059 -1.20589,-0.37003 -1.18718,-0.433268 -1.17018,-0.490307 -1.15489,-0.541146 -1.1413,-0.585783 -1.12941,-0.624222 -1.11924,-0.656458 -1.11077,-0.682496 -1.10401,-0.702333 -1.09895,-0.71597 -1.0956,-0.723406 -1.09395,-0.724642 -1.09402,-0.719677 -1.09579,-0.708513 -1.09927,-0.691149 -1.10444,-0.667583 -1.11134,-0.637818 -1.119931,-0.601853 -1.130233,-0.559686 -1.142242,-0.51132 -1.155956,-0.456754 -1.171378,-0.395987 -1.188505,-0.32902 -1.207339,-0.255853 -1.227881,-0.176485 -1.250127,-0.09092 -1.274082,8.51e-4 -1.299741,0.09882 -1.327109,0.202989 -1.356181,0.313357 -2.058009,0.361153 -2.055038,0.374779 -2.052171,0.387893 -2.04941,0.400495 -2.046754,0.412587 -2.044202,0.424167 -2.041755,0.435235 -2.039412,0.445792 -2.037175,0.455838 -2.035042,0.465371 -2.033014,0.474394 -2.03109,0.482905 -2.029272,0.490904 -2.027558,0.498393 -2.025949,0.505369 -2.024445,0.511835 -2.023046,0.517788 -2.02175,0.52323 -2.02056,0.528161 -2.019476,0.532581 -2.018494,0.536488 -2.017619,0.539885 -2.016848,0.54277 -2.016182,0.545143 -2.01562,0.547005 -2.015163,0.548356 -2.014812,0.549194 -2.014564,0.549523 -2.014422,0.549338 -2.014384,0.548643 -2.014451,0.547437 -2.014623,0.545718 -0.445251,-1.06508 -0.453549,-0.949428 -0.459246,-0.836881 -0.462341,-0.72744 -0.462834,-0.621104 -0.460725,-0.517873 -0.456016,-0.417748 -0.448703,-0.320727 -0.43879,-0.226812 -0.426274,-0.136002 -0.411156,-0.0483 -0.393438,0.0363 -0.373116,0.117796 -0.350194,0.196185 -0.32467,0.271469 -0.296543,0.343648 -0.265816,0.412721 -0.232485,0.478689 -0.196555,0.541551 -0.158021,0.60131 -0.116886,0.657961 -0.07315,0.711509 -0.02681,0.761951 0.02213,0.809288 0.07367,0.853519 0.127816,0.894645 0.184561,0.932666 0.243908,0.967582 0.305858,0.999392 0.370408,1.028098 0.437561,1.053697 0.507316,1.076193 1.812192,4.97639 1.815163,4.976556 1.817948,4.976705 1.82055,4.976839 1.822969,4.976956 1.825203,4.977057 1.827255,4.977141 1.829121,4.97721 1.830805,4.977262 1.832305,4.977298 1.83362,4.977317 1.834753,4.977322 1.835701,4.977306 1.836465,4.97728 1.837047,4.97724 1.837443,4.97717 1.837657,4.97709 1.837686,4.97701 1.837532,4.97689 1.837194,4.97676 1.836672,4.97662 1.835966,4.97647 1.835078,4.97629 1.834004,4.97609 1.832747,4.97589 1.831307,4.97567 1.829682,4.97543 1.827875,4.97517 1.825882,4.97489 1.823707,4.97461 1.821347,4.97431 1.818804,4.97398 1.228655,0.74777 1.085657,0.55342 0.949048,0.36902 0.818827,0.19454 0.694993,0.03 0.577548,-0.12458 0.466491,-0.26924 0.361822,-0.40396 0.263541,-0.52873 0.171649,-0.64357 0.08614,-0.74848 0.007,-0.84343 -0.0657,-0.92846 -0.132042,-1.00355 -0.191994,-1.06869 -0.245559,-1.1239 -0.292735,-1.16917 -0.333523,-1.2045 -0.367924,-1.22989 -0.395935,-1.24535 -0.417559,-1.25087 -0.432794,-1.24644 -0.441643,-1.23208 -0.444102,-1.20777 -0.440173,-1.17354 -0.429857,-1.12937 -0.413152,-1.07525 -0.390059,-1.01119 -0.360579,-0.9372 -0.324709,-0.85327 -0.282453,-0.7594 -0.233807,-0.65559 -0.767577,-2.10757 -0.767951,-2.10743 -0.768266,-2.10732 -0.76852,-2.10723 -0.768713,-2.10717 -0.768846,-2.10711 -0.76892,-2.10709 -0.768931,-2.10709 -0.768883,-2.10711 -0.768775,-2.10714 -0.768606,-2.10721 -0.768376,-2.10729 -0.768087,-2.1074 -0.767736,-2.10752 -0.767326,-2.10767 -0.766855,-2.10784 -0.766323,-2.10804 -0.765731,-2.10824 -0.765079,-2.10849 -0.764366,-2.10874 -0.763592,-2.10902 -0.76276,-2.10931 -0.761865,-2.10965 -0.760911,-2.10998 -0.759896,-2.11035 -0.75882,-2.11074 -0.757685,-2.11115 -0.756489,-2.11158 -0.755232,-2.11203 -0.753915,-2.11251 -0.752538,-2.113 -0.7511,-2.11352 1.881719,-0.7011 1.88521,-0.70231 1.888762,-0.70216 1.892372,-0.70064 1.896041,-0.69776 1.899769,-0.69354 1.903557,-0.68794 1.907402,-0.681 1.911308,-0.67268 1.915273,-0.66302 1.919295,-0.651994 1.923378,-0.639607 1.92752,-0.625863 1.931719,-0.610761 1.935979,-0.594298 1.940298,-0.576477 1.944675,-0.557297 1.949111,-0.536759 1.953607,-0.514861 1.958162,-0.491605 1.962775,-0.466989 1.967448,-0.441015 1.972179,-0.413682 1.97697,-0.384989 1.98182,-0.354939 1.986728,-0.323528 1.991698,-0.29076 1.99672,-0.256632 2.00181,-0.221145 2.00695,-0.184299 2.01216,-0.146095 2.01742,-0.106532 1.13448,0.328036 1.12136,0.384467 1.10952,0.435456 1.09895,0.481002 1.08967,0.521107 1.08166,0.55577 1.07493,0.58499 1.06946,0.608768 1.06529,0.627106 1.06239,0.639999 1.06075,0.647452 1.06041,0.649463 1.06133,0.64603 1.06354,0.637157 1.06702,0.622842 1.07177,0.603082 1.07781,0.57789 1.08511,0.54724 1.0937,0.51116 1.10357,0.46963 1.1147,0.42266 1.12712,0.37026 1.14081,0.3124 1.15578,0.24911 1.17203,0.18037 1.18955,0.1062 1.20835,0.0266 1.22843,-0.0585 1.24978,-0.14899 1.27241,-0.24494 1.29631,-0.34632 1.3215,-0.45316 1.8802,-0.27219 1.87356,-0.29986 1.86723,-0.32621 1.86119,-0.35124 1.85547,-0.37497 1.85006,-0.39737 1.84495,-0.41846 1.84016,-0.438236 1.83566,-0.456687 1.83148,-0.473826 1.8276,-0.489648 1.82404,-0.504155 1.82078,-0.517346 1.81782,-0.529219 1.81518,-0.539777 1.81285,-0.549018 1.81081,-0.556944 1.80909,-0.563552 1.80768,-0.568846 1.80658,-0.572821 1.80577,-0.575482 1.80529,-0.576825 1.8051,-0.576853 1.80523,-0.575564 1.80566,-0.572959 1.8064,-0.569038 1.80745,-0.563801 1.80881,-0.557247 1.81046,-0.549376 1.81244,-0.540191 1.81472,-0.529687 1.81731,-0.517869 0.0415,-1.010578 -0.007,-1.018473 -0.0534,-1.02595 -0.0969,-1.03301 -0.13782,-1.039652 -0.17612,-1.045875 -0.21183,-1.051681 -0.2449,-1.057069 -0.27539,-1.062039 -0.30325,-1.066591 -0.32851,-1.070725 -0.35115,-1.074441 -0.37119,-1.077739 -0.38862,-1.08062 -0.40344,-1.083083 -0.41564,-1.085127 -0.42524,-1.086753 -0.43222,-1.087962 -0.43661,-1.088753 -0.43837,-1.089126 -0.43753,-1.089081 -0.43408,-1.088618 -0.42802,-1.087737 -0.41934,-1.086438 -0.40807,-1.084721 -0.39417,-1.082587 -0.37767,-1.080035 -0.35856,-1.077063 -0.33683,-1.073676 -0.31251,-1.069869 -0.28557,-1.065645 -0.25601,-1.061003 -0.42256,-1.229473 -0.42257,-1.229472 -0.42258,-1.22947 -0.42259,-1.229464 -0.42261,-1.229458 -0.42263,-1.22945 -0.42266,-1.229439 -0.4227,-1.229428 -0.42273,-1.229414 -0.42278,-1.229399 -0.42283,-1.229382 -0.42289,-1.229364 -0.42294,-1.229342 -0.42301,-1.22932 -0.42308,-1.229296 -0.42315,-1.22927 -0.42324,-1.229243 -0.42332,-1.229213 -0.42341,-1.229182 -0.42351,-1.229148 -0.4236,-1.229115 -0.42372,-1.229077 -0.42382,-1.22904 -0.42394,-1.228999 -0.42406,-1.228958 -0.42419,-1.228914 -0.42432,-1.228868 -0.42445,-1.228822 -0.4246,-1.228773 -0.42474,-1.228722 -0.4249,-1.22867 -0.42505,-1.228616 0,0 0,0 0,0 0,0 0,0 0,0 0,0 0,0 -1e-5,0 0,0 0,0 0,0 0,0 0,0 0,0 0,0 0,-1e-6 0,0 0,0 0,0 0,0 0,0 0,0 -1e-5,0 0,0 0,0 0,0 0,0 0,0 0,0 0,0 z"
     id="path908"
     stroke-miterlimit="4"
     sodipodi:nodetypes="ccccccccccccccccccccccccccccccccccccccccccccccccccccccccccccccccccccccccccccccccccccccccccccccccccccccccccccccccccccccccccccccccccccccccccccccccccccccccccccccccccccccccccccccccccccccccccccccccccccccccccccccccccccccccccccccccccccccccccccccccccccccccccccccccccccccccccccccccccccccccccccccccccccccccccccccccccccccccccccccccccccccccccccccccccccccccccccccccccccccccccccccccccccccccccccccccccccccccccccccccccccccccccccccccc" />
</svg>
