  0
SECTION
  2
HEADER
  9
$ACADVER
  1
AC1014
  9
$HANDSEED
  5
FFFF
  9
$MEASUREMENT
 70
     1
  0
ENDSEC
  0
SECTION
  2
TABLES
  0
TABLE
  2
VPORT
  5
8
330
0
100
AcDbSymbolTable
 70
     4
  0
VPORT
  5
2E
330
8
100
AcDbSymbolTableRecord
100
AcDbViewportTableRecord
  2
*ACTIVE
 70
     0
 10
0.0
 20
0.0
 11
1.0
 21
1.0
 12
210.0
 22
148.5
 13
0.0
 23
0.0
 14
10.0
 24
10.0
 15
10.0
 25
10.0
 16
0.0
 26
0.0
 36
1.0
 17
0.0
 27
0.0
 37
0.0
 40
341.0
 41
1.24
 42
50.0
 43
0.0
 44
0.0
 50
0.0
 51
0.0
 71
     0
 72
   100
 73
     1
 74
     3
 75
     0
 76
     0
 77
     0
 78
     0
  0
ENDTAB
  0
TABLE
  2
LTYPE
  5
5
330
0
100
AcDbSymbolTable
 70
     1
  0
LTYPE
  5
14
330
5
100
AcDbSymbolTableRecord
100
AcDbLinetypeTableRecord
  2
BYBLOCK
 70
     0
  3

 72
    65
 73
     0
 40
0.0
  0
LTYPE
  5
15
330
5
100
AcDbSymbolTableRecord
100
AcDbLinetypeTableRecord
  2
BYLAYER
 70
     0
  3

 72
    65
 73
     0
 40
0.0
  0
LTYPE
  5
16
330
5
100
AcDbSymbolTableRecord
100
AcDbLinetypeTableRecord
  2
CONTINUOUS
 70
     0
  3
Solid line
 72
    65
 73
     0
 40
0.0
  0
ENDTAB
  0
TABLE
  2
LAYER
  5
2
100
AcDbSymbolTable
 70
2
  0
LAYER
  5
50
100
AcDbSymbolTableRecord
100
AcDbLayerTableRecord
  2
0
 70
0
  6
CONTINUOUS
  0
LAYER
  5
51
100
AcDbSymbolTableRecord
100
AcDbLayerTableRecord
  2
Layer_1
 70
0
  6
CONTINUOUS
  0
ENDTAB
  0
TABLE
  2
STYLE
  5
3
330
0
100
AcDbSymbolTable
 70
     1
  0
STYLE
  5
11
330
3
100
AcDbSymbolTableRecord
100
AcDbTextStyleTableRecord
  2
STANDARD
 70
     0
 40
0.0
 41
1.0
 50
0.0
 71
     0
 42
2.5
  3
txt
  4

  0
ENDTAB
  0
TABLE
  2
VIEW
  5
6
330
0
100
AcDbSymbolTable
 70
     0
  0
ENDTAB
  0
TABLE
  2
UCS
  5
7
330
0
100
AcDbSymbolTable
 70
     0
  0
ENDTAB
  0
TABLE
  2
APPID
  5
9
330
0
100
AcDbSymbolTable
 70
     2
  0
APPID
  5
12
330
9
100
AcDbSymbolTableRecord
100
AcDbRegAppTableRecord
  2
ACAD
 70
     0
  0
ENDTAB
  0
TABLE
  2
DIMSTYLE
  5
A
330
0
100
AcDbSymbolTable
 70
     1
  0
DIMSTYLE
105
27
330
A
100
AcDbSymbolTableRecord
100
AcDbDimStyleTableRecord
  2
ISO-25
 70
     0
  3

  4

  5

  6

  7

 40
1.0
 41
2.5
 42
0.625
 43
3.75
 44
1.25
 45
0.0
 46
0.0
 47
0.0
 48
0.0
140
2.5
141
2.5
142
0.0
143
0.03937007874016
144
1.0
145
0.0
146
1.0
147
0.625
 71
     0
 72
     0
 73
     0
 74
     0
 75
     0
 76
     0
 77
     1
 78
     8
170
     0
171
     3
172
     1
173
     0
174
     0
175
     0
176
     0
177
     0
178
     0
270
     2
271
     2
272
     2
273
     2
274
     3
340
11
275
     0
280
     0
281
     0
282
     0
283
     0
284
     8
285
     0
286
     0
287
     3
288
     0
  0
ENDTAB
  0
TABLE
  2
BLOCK_RECORD
  5
1
330
0
100
AcDbSymbolTable
 70
     1
  0
BLOCK_RECORD
  5
1F
330
1
100
AcDbSymbolTableRecord
100
AcDbBlockTableRecord
  2
*MODEL_SPACE
  0
BLOCK_RECORD
  5
1B
330
1
100
AcDbSymbolTableRecord
100
AcDbBlockTableRecord
  2
*PAPER_SPACE
  0
ENDTAB
  0
ENDSEC
  0
SECTION
  2
BLOCKS
  0
BLOCK
  5
20
330
1F
100
AcDbEntity
  8
0
100
AcDbBlockBegin
  2
*MODEL_SPACE
 70
     0
 10
0.0
 20
0.0
 30
0.0
  3
*MODEL_SPACE
  1

  0
ENDBLK
  5
21
330
1F
100
AcDbEntity
  8
0
100
AcDbBlockEnd
  0
BLOCK
  5
1C
330
1B
100
AcDbEntity
 67
     1
  8
0
100
AcDbBlockBegin
  2
*PAPER_SPACE
  1

  0
ENDBLK
  5
1D
330
1B
100
AcDbEntity
 67
     1
  8
0
100
AcDbBlockEnd
  0
ENDSEC
  0
SECTION
  2
ENTITIES
  0
LWPOLYLINE
  5
100
100
AcDbEntity
  8
Layer_1
 62
7
100
AcDbPolyline
 90
793
 70
1
 10
57.927215
 20
152.298272
 30
0.0
 10
56.218988
 20
152.290454
 30
0.0
 10
54.524244
 20
152.264602
 30
0.0
 10
52.879504
 20
152.221276
 30
0.0
 10
51.321287
 20
152.161086
 30
0.0
 10
49.886116
 20
152.084629
 30
0.0
 10
48.610509
 20
151.992501
 30
0.0
 10
47.530989
 20
151.885290
 30
0.0
 10
46.684077
 20
151.763602
 30
0.0
 10
46.512855
 20
151.732941
 30
0.0
 10
46.341634
 20
151.702277
 30
0.0
 10
46.170413
 20
151.671617
 30
0.0
 10
45.999191
 20
151.640956
 30
0.0
 10
45.827970
 20
151.610296
 30
0.0
 10
45.656748
 20
151.579635
 30
0.0
 10
45.485527
 20
151.548972
 30
0.0
 10
45.314306
 20
151.518311
 30
0.0
 10
45.013273
 20
150.487469
 30
0.0
 10
44.712241
 20
149.456630
 30
0.0
 10
44.411209
 20
148.425788
 30
0.0
 10
44.110176
 20
147.394945
 30
0.0
 10
43.809144
 20
146.364103
 30
0.0
 10
43.508112
 20
145.333261
 30
0.0
 10
43.207079
 20
144.302422
 30
0.0
 10
42.906047
 20
143.271580
 30
0.0
 10
42.420128
 20
141.613104
 30
0.0
 10
41.962742
 20
140.062163
 30
0.0
 10
41.544189
 20
138.652965
 30
0.0
 10
41.174783
 20
137.419725
 30
0.0
 10
40.864827
 20
136.396655
 30
0.0
 10
40.624625
 20
135.617967
 30
0.0
 10
40.464483
 20
135.117875
 30
0.0
 10
40.394709
 20
134.930590
 30
0.0
 10
40.305236
 20
134.893373
 30
0.0
 10
40.088639
 20
134.823388
 30
0.0
 10
39.759165
 20
134.724680
 30
0.0
 10
39.331076
 20
134.601310
 30
0.0
 10
38.818622
 20
134.457331
 30
0.0
 10
38.236065
 20
134.296792
 30
0.0
 10
37.597653
 20
134.123753
 30
0.0
 10
36.917644
 20
133.942262
 30
0.0
 10
35.758885
 20
133.614325
 30
0.0
 10
34.383057
 20
133.190769
 30
0.0
 10
32.863062
 20
132.696770
 30
0.0
 10
31.271789
 20
132.157500
 30
0.0
 10
29.682141
 20
131.598138
 30
0.0
 10
28.167014
 20
131.043856
 30
0.0
 10
26.799303
 20
130.519829
 30
0.0
 10
25.651905
 20
130.051233
 30
0.0
 10
25.419410
 20
130.082794
 30
0.0
 10
24.984806
 20
130.288257
 30
0.0
 10
24.350079
 20
130.666266
 30
0.0
 10
23.517216
 20
131.215464
 30
0.0
 10
22.488202
 20
131.934496
 30
0.0
 10
21.265023
 20
132.822009
 30
0.0
 10
19.849668
 20
133.876648
 30
0.0
 10
18.244123
 20
135.097056
 30
0.0
 10
17.384365
 20
135.755966
 30
0.0
 10
16.524607
 20
136.414875
 30
0.0
 10
15.664849
 20
137.073782
 30
0.0
 10
14.805091
 20
137.732692
 30
0.0
 10
13.945333
 20
138.391602
 30
0.0
 10
13.085575
 20
139.050509
 30
0.0
 10
12.225817
 20
139.709419
 30
0.0
 10
11.366059
 20
140.368329
 30
0.0
 10
11.079290
 20
140.208890
 30
0.0
 10
10.792520
 20
140.049452
 30
0.0
 10
10.505750
 20
139.890013
 30
0.0
 10
10.218980
 20
139.730572
 30
0.0
 10
9.932210
 20
139.571133
 30
0.0
 10
9.645441
 20
139.411694
 30
0.0
 10
9.358671
 20
139.252256
 30
0.0
 10
9.071901
 20
139.092817
 30
0.0
 10
7.085672
 20
137.940363
 30
0.0
 10
5.043671
 20
136.663795
 30
0.0
 10
2.971086
 20
135.281437
 30
0.0
 10
0.893106
 20
133.811615
 30
0.0
 10
-1.165082
 20
132.272649
 30
0.0
 10
-3.178290
 20
130.682866
 30
0.0
 10
-5.121331
 20
129.060588
 30
0.0
 10
-6.969015
 20
127.424139
 30
0.0
 10
-7.213823
 20
127.200416
 30
0.0
 10
-7.458632
 20
126.976690
 30
0.0
 10
-7.703440
 20
126.752967
 30
0.0
 10
-7.948248
 20
126.529241
 30
0.0
 10
-8.193057
 20
126.305517
 30
0.0
 10
-8.437866
 20
126.081794
 30
0.0
 10
-8.682674
 20
125.858068
 30
0.0
 10
-8.927482
 20
125.634345
 30
0.0
 10
-8.574222
 20
124.643192
 30
0.0
 10
-8.220962
 20
123.652036
 30
0.0
 10
-7.867702
 20
122.660883
 30
0.0
 10
-7.514442
 20
121.669727
 30
0.0
 10
-7.161182
 20
120.678574
 30
0.0
 10
-6.807922
 20
119.687420
 30
0.0
 10
-6.454662
 20
118.696264
 30
0.0
 10
-6.101402
 20
117.705111
 30
0.0
 10
-5.533752
 20
116.104434
 30
0.0
 10
-5.004212
 20
114.595897
 30
0.0
 10
-4.524365
 20
113.213607
 30
0.0
 10
-4.105792
 20
111.991666
 30
0.0
 10
-3.760075
 20
110.964177
 30
0.0
 10
-3.498794
 20
110.165248
 30
0.0
 10
-3.333533
 20
109.628981
 30
0.0
 10
-3.275872
 20
109.389479
 30
0.0
 10
-3.319673
 20
109.259668
 30
0.0
 10
-3.445205
 20
109.037779
 30
0.0
 10
-3.643665
 20
108.735872
 30
0.0
 10
-3.906250
 20
108.366005
 30
0.0
 10
-4.224155
 20
107.940242
 30
0.0
 10
-4.588576
 20
107.470647
 30
0.0
 10
-4.990710
 20
106.969276
 30
0.0
 10
-5.421754
 20
106.448195
 30
0.0
 10
-5.904404
 20
105.856542
 30
0.0
 10
-6.454439
 20
105.152925
 30
0.0
 10
-7.052685
 20
104.363592
 30
0.0
 10
-7.679970
 20
103.514780
 30
0.0
 10
-8.317123
 20
102.632743
 30
0.0
 10
-8.944972
 20
101.743717
 30
0.0
 10
-9.544342
 20
100.873951
 30
0.0
 10
-10.096059
 20
100.049687
 30
0.0
 10
-10.412112
 20
99.569235
 30
0.0
 10
-10.728165
 20
99.088782
 30
0.0
 10
-11.044218
 20
98.608327
 30
0.0
 10
-11.360271
 20
98.127875
 30
0.0
 10
-11.676324
 20
97.647423
 30
0.0
 10
-11.992377
 20
97.166968
 30
0.0
 10
-12.308430
 20
96.686515
 30
0.0
 10
-12.624484
 20
96.206063
 30
0.0
 10
-13.710791
 20
96.232733
 30
0.0
 10
-14.797099
 20
96.259403
 30
0.0
 10
-15.883406
 20
96.286073
 30
0.0
 10
-16.969713
 20
96.312743
 30
0.0
 10
-18.056021
 20
96.339413
 30
0.0
 10
-19.142329
 20
96.366083
 30
0.0
 10
-20.228636
 20
96.392753
 30
0.0
 10
-21.314944
 20
96.419423
 30
0.0
 10
-22.401251
 20
96.446093
 30
0.0
 10
-23.487559
 20
96.472763
 30
0.0
 10
-24.573866
 20
96.499433
 30
0.0
 10
-25.660174
 20
96.526103
 30
0.0
 10
-26.746481
 20
96.552773
 30
0.0
 10
-27.832789
 20
96.579443
 30
0.0
 10
-28.919097
 20
96.606113
 30
0.0
 10
-30.005404
 20
96.632783
 30
0.0
 10
-30.136730
 20
96.336918
 30
0.0
 10
-30.268057
 20
96.041053
 30
0.0
 10
-30.399386
 20
95.745188
 30
0.0
 10
-30.530713
 20
95.449324
 30
0.0
 10
-30.662039
 20
95.153459
 30
0.0
 10
-30.793368
 20
94.857594
 30
0.0
 10
-30.924695
 20
94.561729
 30
0.0
 10
-31.056021
 20
94.265864
 30
0.0
 10
-32.261570
 20
91.336875
 30
0.0
 10
-33.474324
 20
88.018458
 30
0.0
 10
-34.629177
 20
84.537664
 30
0.0
 10
-35.661016
 20
81.121553
 30
0.0
 10
-36.504736
 20
77.997178
 30
0.0
 10
-37.095230
 20
75.391590
 30
0.0
 10
-37.367382
 20
73.531844
 30
0.0
 10
-37.256091
 20
72.644998
 30
0.0
 10
-37.055267
 20
72.487772
 30
0.0
 10
-36.596746
 20
72.154213
 30
0.0
 10
-35.909944
 20
71.664981
 30
0.0
 10
-35.024283
 20
71.040739
 30
0.0
 10
-33.969187
 20
70.302147
 30
0.0
 10
-32.774072
 20
69.469868
 30
0.0
 10
-31.468359
 20
68.564561
 30
0.0
 10
-30.081471
 20
67.606888
 30
0.0
 10
-28.594942
 20
66.572261
 30
0.0
 10
-27.262526
 20
65.624243
 30
0.0
 10
-26.098940
 20
64.774198
 30
0.0
 10
-25.118900
 20
64.033492
 30
0.0
 10
-24.337123
 20
63.413483
 30
0.0
 10
-23.768325
 20
62.925538
 30
0.0
 10
-23.427223
 20
62.581018
 30
0.0
 10
-23.328533
 20
62.391289
 30
0.0
 10
-23.352660
 20
62.139699
 30
0.0
 10
-23.374840
 20
61.604524
 30
0.0
 10
-23.394610
 20
60.818958
 30
0.0
 10
-23.411501
 20
59.816205
 30
0.0
 10
-23.425050
 20
58.629458
 30
0.0
 10
-23.434790
 20
57.291917
 30
0.0
 10
-23.440256
 20
55.836779
 30
0.0
 10
-23.440990
 20
54.297245
 30
0.0
 10
-23.439946
 20
53.345366
 30
0.0
 10
-23.438902
 20
52.393487
 30
0.0
 10
-23.437857
 20
51.441605
 30
0.0
 10
-23.436813
 20
50.489726
 30
0.0
 10
-23.435769
 20
49.537847
 30
0.0
 10
-23.434725
 20
48.585965
 30
0.0
 10
-23.433680
 20
47.634086
 30
0.0
 10
-23.432636
 20
46.682207
 30
0.0
 10
-24.311549
 20
46.078074
 30
0.0
 10
-25.190462
 20
45.473943
 30
0.0
 10
-26.069375
 20
44.869810
 30
0.0
 10
-26.948287
 20
44.265679
 30
0.0
 10
-27.827200
 20
43.661546
 30
0.0
 10
-28.706112
 20
43.057415
 30
0.0
 10
-29.585025
 20
42.453282
 30
0.0
 10
-30.463938
 20
41.849151
 30
0.0
 10
-31.876382
 20
40.871553
 30
0.0
 10
-33.194066
 20
39.946511
 30
0.0
 10
-34.388154
 20
39.095204
 30
0.0
 10
-35.429802
 20
38.338804
 30
0.0
 10
-36.290174
 20
37.698495
 30
0.0
 10
-36.940428
 20
37.195457
 30
0.0
 10
-37.351730
 20
36.850872
 30
0.0
 10
-37.495240
 20
36.685916
 30
0.0
 10
-37.467159
 20
36.509594
 30
0.0
 10
-37.386655
 20
36.132433
 30
0.0
 10
-37.259375
 20
35.577900
 30
0.0
 10
-37.090965
 20
34.869463
 30
0.0
 10
-36.887065
 20
34.030583
 30
0.0
 10
-36.653323
 20
33.084726
 30
0.0
 10
-36.395375
 20
32.055363
 30
0.0
 10
-36.118865
 20
30.965957
 30
0.0
 10
-35.568545
 20
28.902430
 30
0.0
 10
-34.970460
 20
26.829186
 30
0.0
 10
-34.332231
 20
24.768478
 30
0.0
 10
-33.661482
 20
22.742571
 30
0.0
 10
-32.965833
 20
20.773727
 30
0.0
 10
-32.252906
 20
18.884201
 30
0.0
 10
-31.530321
 20
17.096259
 30
0.0
 10
-30.805701
 20
15.432158
 30
0.0
 10
-30.672789
 20
15.138980
 30
0.0
 10
-30.539879
 20
14.845802
 30
0.0
 10
-30.406966
 20
14.552624
 30
0.0
 10
-30.274054
 20
14.259451
 30
0.0
 10
-30.141141
 20
13.966279
 30
0.0
 10
-30.008231
 20
13.673078
 30
0.0
 10
-29.875319
 20
13.379906
 30
0.0
 10
-29.742406
 20
13.086733
 30
0.0
 10
-29.378052
 20
13.105924
 30
0.0
 10
-29.013700
 20
13.125115
 30
0.0
 10
-28.649346
 20
13.144307
 30
0.0
 10
-28.284994
 20
13.163498
 30
0.0
 10
-27.920640
 20
13.182689
 30
0.0
 10
-27.556286
 20
13.201880
 30
0.0
 10
-27.191933
 20
13.221071
 30
0.0
 10
-26.827580
 20
13.240262
 30
0.0
 10
-26.125767
 20
13.274552
 30
0.0
 10
-25.246132
 20
13.313301
 30
0.0
 10
-24.224005
 20
13.355239
 30
0.0
 10
-23.094719
 20
13.398984
 30
0.0
 10
-21.893607
 20
13.443208
 30
0.0
 10
-20.656001
 20
13.486586
 30
0.0
 10
-19.417233
 20
13.527790
 30
0.0
 10
-18.212636
 20
13.565467
 30
0.0
 10
-17.500052
 20
13.586916
 30
0.0
 10
-16.787469
 20
13.608365
 30
0.0
 10
-16.074885
 20
13.629813
 30
0.0
 10
-15.362302
 20
13.651262
 30
0.0
 10
-14.649718
 20
13.672711
 30
0.0
 10
-13.937135
 20
13.694160
 30
0.0
 10
-13.224551
 20
13.715609
 30
0.0
 10
-12.511967
 20
13.737058
 30
0.0
 10
-12.181721
 20
13.242266
 30
0.0
 10
-11.851474
 20
12.747502
 30
0.0
 10
-11.521227
 20
12.252710
 30
0.0
 10
-11.190980
 20
11.757918
 30
0.0
 10
-10.860733
 20
11.263126
 30
0.0
 10
-10.530486
 20
10.768362
 30
0.0
 10
-10.200240
 20
10.273570
 30
0.0
 10
-9.869993
 20
9.778778
 30
0.0
 10
-9.294728
 20
8.930870
 30
0.0
 10
-8.672013
 20
8.037693
 30
0.0
 10
-8.021626
 20
7.126143
 30
0.0
 10
-7.363345
 20
6.223004
 30
0.0
 10
-6.716949
 20
5.355199
 30
0.0
 10
-6.102215
 20
4.549511
 30
0.0
 10
-5.538925
 20
3.832836
 30
0.0
 10
-5.046859
 20
3.231985
 30
0.0
 10
-4.774214
 20
2.908361
 30
0.0
 10
-4.501569
 20
2.584708
 30
0.0
 10
-4.228924
 20
2.261084
 30
0.0
 10
-3.956280
 20
1.937460
 30
0.0
 10
-3.683635
 20
1.613835
 30
0.0
 10
-3.410990
 20
1.290183
 30
0.0
 10
-3.138345
 20
0.966559
 30
0.0
 10
-2.865700
 20
0.642935
 30
0.0
 10
-3.223715
 20
-0.374194
 30
0.0
 10
-3.581729
 20
-1.391323
 30
0.0
 10
-3.939743
 20
-2.408452
 30
0.0
 10
-4.297758
 20
-3.425581
 30
0.0
 10
-4.655772
 20
-4.442710
 30
0.0
 10
-5.013786
 20
-5.459839
 30
0.0
 10
-5.371800
 20
-6.476968
 30
0.0
 10
-5.729815
 20
-7.494097
 30
0.0
 10
-6.087898
 20
-8.511310
 30
0.0
 10
-6.445981
 20
-9.528495
 30
0.0
 10
-6.804065
 20
-10.545709
 30
0.0
 10
-7.162148
 20
-11.562894
 30
0.0
 10
-7.520231
 20
-12.580108
 30
0.0
 10
-7.878314
 20
-13.597293
 30
0.0
 10
-8.236397
 20
-14.614507
 30
0.0
 10
-8.594481
 20
-15.631692
 30
0.0
 10
-8.471560
 20
-15.763151
 30
0.0
 10
-8.348639
 20
-15.894639
 30
0.0
 10
-8.225717
 20
-16.026098
 30
0.0
 10
-8.102796
 20
-16.157557
 30
0.0
 10
-7.979876
 20
-16.289016
 30
0.0
 10
-7.856955
 20
-16.420503
 30
0.0
 10
-7.734034
 20
-16.551962
 30
0.0
 10
-7.611113
 20
-16.683421
 30
0.0
 10
-5.723538
 20
-18.456652
 30
0.0
 10
-3.104440
 20
-20.595360
 30
0.0
 10
-0.039646
 20
-22.903402
 30
0.0
 10
3.185018
 20
-25.184604
 30
0.0
 10
6.283726
 20
-27.242822
 30
0.0
 10
8.970651
 20
-28.881941
 30
0.0
 10
10.959968
 20
-29.905758
 30
0.0
 10
11.965849
 20
-30.118187
 30
0.0
 10
12.186891
 20
-29.961017
 30
0.0
 10
12.642964
 20
-29.620149
 30
0.0
 10
13.306223
 20
-29.116919
 30
0.0
 10
14.148822
 20
-28.472719
 30
0.0
 10
15.142918
 20
-27.708856
 30
0.0
 10
16.260662
 20
-26.846723
 30
0.0
 10
17.474211
 20
-25.907685
 30
0.0
 10
18.755719
 20
-24.913050
 30
0.0
 10
20.035450
 20
-23.924284
 30
0.0
 10
21.243913
 20
-23.002038
 30
0.0
 10
22.353615
 20
-22.166435
 30
0.0
 10
23.337066
 20
-21.437737
 30
0.0
 10
24.166772
 20
-20.836067
 30
0.0
 10
24.815240
 20
-20.381605
 30
0.0
 10
25.254980
 20
-20.094557
 30
0.0
 10
25.458497
 20
-19.995102
 30
0.0
 10
25.612156
 20
-20.025412
 30
0.0
 10
25.908999
 20
-20.110389
 30
0.0
 10
26.331550
 20
-20.244135
 30
0.0
 10
26.862334
 20
-20.420749
 30
0.0
 10
27.483875
 20
-20.634250
 30
0.0
 10
28.178698
 20
-20.878768
 30
0.0
 10
28.929327
 20
-21.148346
 30
0.0
 10
29.718288
 20
-21.437088
 30
0.0
 10
30.570808
 20
-21.744174
 30
0.0
 10
31.503603
 20
-22.066387
 30
0.0
 10
32.486428
 20
-22.394075
 30
0.0
 10
33.489040
 20
-22.717699
 30
0.0
 10
34.481192
 20
-23.027608
 30
0.0
 10
35.432639
 20
-23.314233
 30
0.0
 10
36.313139
 20
-23.567979
 30
0.0
 10
37.092447
 20
-23.779194
 30
0.0
 10
37.794074
 20
-23.963005
 30
0.0
 10
38.451960
 20
-24.138180
 30
0.0
 10
39.051462
 20
-24.300627
 30
0.0
 10
39.577950
 20
-24.446198
 30
0.0
 10
40.016789
 20
-24.570827
 30
0.0
 10
40.353333
 20
-24.670423
 30
0.0
 10
40.572956
 20
-24.740838
 30
0.0
 10
40.661015
 20
-24.778006
 30
0.0
 10
40.726180
 20
-24.958657
 30
0.0
 10
40.880208
 20
-25.440354
 30
0.0
 10
41.113064
 20
-26.190133
 30
0.0
 10
41.414706
 20
-27.175117
 30
0.0
 10
41.775098
 20
-28.362313
 30
0.0
 10
42.184205
 20
-29.718843
 30
0.0
 10
42.631987
 20
-31.211742
 30
0.0
 10
43.108409
 20
-32.808103
 30
0.0
 10
43.591455
 20
-34.411267
 30
0.0
 10
44.058234
 20
-35.923639
 30
0.0
 10
44.497368
 20
-37.310959
 30
0.0
 10
44.897492
 20
-38.538880
 30
0.0
 10
45.247236
 20
-39.573111
 30
0.0
 10
45.535227
 20
-40.379364
 30
0.0
 10
45.750096
 20
-40.923291
 30
0.0
 10
45.880472
 20
-41.170602
 30
0.0
 10
46.053333
 20
-41.266811
 30
0.0
 10
46.381859
 20
-41.366013
 30
0.0
 10
46.852727
 20
-41.466173
 30
0.0
 10
47.452602
 20
-41.565403
 30
0.0
 10
48.168154
 20
-41.661669
 30
0.0
 10
48.986056
 20
-41.752996
 30
0.0
 10
49.892975
 20
-41.837465
 30
0.0
 10
50.875585
 20
-41.913072
 30
0.0
 10
51.843641
 20
-41.977983
 30
0.0
 10
52.837224
 20
-42.040439
 30
0.0
 10
53.828121
 20
-42.098944
 30
0.0
 10
54.788116
 20
-42.151973
 30
0.0
 10
55.688992
 20
-42.198032
 30
0.0
 10
56.502535
 20
-42.235567
 30
0.0
 10
57.200527
 20
-42.263225
 30
0.0
 10
57.754752
 20
-42.279312
 30
0.0
 10
59.232194
 20
-42.270845
 30
0.0
 10
61.091101
 20
-42.203676
 30
0.0
 10
63.158472
 20
-42.090929
 30
0.0
 10
65.261304
 20
-41.945782
 30
0.0
 10
67.226595
 20
-41.781331
 30
0.0
 10
68.881343
 20
-41.610812
 30
0.0
 10
70.052546
 20
-41.447349
 30
0.0
 10
70.567200
 20
-41.304121
 30
0.0
 10
70.672190
 20
-41.084863
 30
0.0
 10
70.860790
 20
-40.568791
 30
0.0
 10
71.122394
 20
-39.789435
 30
0.0
 10
71.446385
 20
-38.780434
 30
0.0
 10
71.822155
 20
-37.575317
 30
0.0
 10
72.239099
 20
-36.207668
 30
0.0
 10
72.686599
 20
-34.711100
 30
0.0
 10
73.154052
 20
-33.119141
 30
0.0
 10
73.620427
 20
-31.528056
 30
0.0
 10
74.064837
 20
-30.033915
 30
0.0
 10
74.476893
 20
-28.670161
 30
0.0
 10
74.846194
 20
-27.470181
 30
0.0
 10
75.162351
 20
-26.467389
 30
0.0
 10
75.414965
 20
-25.695144
 30
0.0
 10
75.593643
 20
-25.186918
 30
0.0
 10
75.687990
 20
-24.976042
 30
0.0
 10
75.822997
 20
-24.901140
 30
0.0
 10
76.118218
 20
-24.782550
 30
0.0
 10
76.555087
 20
-24.626340
 30
0.0
 10
77.115049
 20
-24.438606
 30
0.0
 10
77.779536
 20
-24.225415
 30
0.0
 10
78.529993
 20
-23.992836
 30
0.0
 10
79.347859
 20
-23.746936
 30
0.0
 10
80.214569
 20
-23.493811
 30
0.0
 10
81.143043
 20
-23.220027
 30
0.0
 10
82.137922
 20
-22.914860
 30
0.0
 10
83.168225
 20
-22.588611
 30
0.0
 10
84.202970
 20
-22.251497
 30
0.0
 10
85.211178
 20
-21.913733
 30
0.0
 10
86.161866
 20
-21.585565
 30
0.0
 10
87.024058
 20
-21.277265
 30
0.0
 10
87.766771
 20
-20.999023
 30
0.0
 10
88.174393
 20
-20.841571
 30
0.0
 10
88.582018
 20
-20.684147
 30
0.0
 10
88.989640
 20
-20.526695
 30
0.0
 10
89.397265
 20
-20.369272
 30
0.0
 10
89.804887
 20
-20.211820
 30
0.0
 10
90.212511
 20
-20.054368
 30
0.0
 10
90.620136
 20
-19.896945
 30
0.0
 10
91.027758
 20
-19.739493
 30
0.0
 10
91.428697
 20
-20.045422
 30
0.0
 10
91.829639
 20
-20.351351
 30
0.0
 10
92.230578
 20
-20.657280
 30
0.0
 10
92.631520
 20
-20.963180
 30
0.0
 10
93.032459
 20
-21.269109
 30
0.0
 10
93.433401
 20
-21.575038
 30
0.0
 10
93.834343
 20
-21.880967
 30
0.0
 10
94.235282
 20
-22.186896
 30
0.0
 10
94.954226
 20
-22.735846
 30
0.0
 10
95.769303
 20
-23.358824
 30
0.0
 10
96.652360
 20
-24.034266
 30
0.0
 10
97.575232
 20
-24.740612
 30
0.0
 10
98.509769
 20
-25.456271
 30
0.0
 10
99.427809
 20
-26.159766
 30
0.0
 10
100.301197
 20
-26.829451
 30
0.0
 10
101.101771
 20
-27.443821
 30
0.0
 10
101.559211
 20
-27.795075
 30
0.0
 10
102.016651
 20
-28.146357
 30
0.0
 10
102.474090
 20
-28.497611
 30
0.0
 10
102.931528
 20
-28.848864
 30
0.0
 10
103.388967
 20
-29.200118
 30
0.0
 10
103.846407
 20
-29.551400
 30
0.0
 10
104.303847
 20
-29.902654
 30
0.0
 10
104.761287
 20
-30.253908
 30
0.0
 10
105.075550
 20
-30.076136
 30
0.0
 10
105.389810
 20
-29.898392
 30
0.0
 10
105.704073
 20
-29.720621
 30
0.0
 10
106.018333
 20
-29.542849
 30
0.0
 10
106.332596
 20
-29.365077
 30
0.0
 10
106.646859
 20
-29.187333
 30
0.0
 10
106.961119
 20
-29.009562
 30
0.0
 10
107.275382
 20
-28.831790
 30
0.0
 10
109.228851
 20
-27.690907
 30
0.0
 10
111.148193
 20
-26.496034
 30
0.0
 10
113.043866
 20
-25.239524
 30
0.0
 10
114.926319
 20
-23.913842
 30
0.0
 10
116.806009
 20
-22.511339
 30
0.0
 10
118.693387
 20
-21.024479
 30
0.0
 10
120.598907
 20
-19.445643
 30
0.0
 10
122.533021
 20
-17.767239
 30
0.0
 10
122.847145
 20
-17.488743
 30
0.0
 10
123.161267
 20
-17.210246
 30
0.0
 10
123.475392
 20
-16.931749
 30
0.0
 10
123.789514
 20
-16.653252
 30
0.0
 10
124.103638
 20
-16.374727
 30
0.0
 10
124.417763
 20
-16.096230
 30
0.0
 10
124.731885
 20
-15.817733
 30
0.0
 10
125.046009
 20
-15.539236
 30
0.0
 10
124.680072
 20
-14.516463
 30
0.0
 10
124.314134
 20
-13.493689
 30
0.0
 10
123.948196
 20
-12.470888
 30
0.0
 10
123.582255
 20
-11.448115
 30
0.0
 10
123.216318
 20
-10.425341
 30
0.0
 10
122.850380
 20
-9.402540
 30
0.0
 10
122.484442
 20
-8.379766
 30
0.0
 10
122.118504
 20
-7.356993
 30
0.0
 10
121.752566
 20
-6.334135
 30
0.0
 10
121.386629
 20
-5.311277
 30
0.0
 10
121.020691
 20
-4.288447
 30
0.0
 10
120.654753
 20
-3.265589
 30
0.0
 10
120.288815
 20
-2.242731
 30
0.0
 10
119.922877
 20
-1.219901
 30
0.0
 10
119.556940
 20
-0.197043
 30
0.0
 10
119.191002
 20
0.825815
 30
0.0
 10
119.457789
 20
1.152261
 30
0.0
 10
119.724577
 20
1.478736
 30
0.0
 10
119.991367
 20
1.805182
 30
0.0
 10
120.258154
 20
2.131629
 30
0.0
 10
120.524942
 20
2.458103
 30
0.0
 10
120.791729
 20
2.784550
 30
0.0
 10
121.058520
 20
3.111024
 30
0.0
 10
121.325307
 20
3.437471
 30
0.0
 10
121.807030
 20
4.041483
 30
0.0
 10
122.358814
 20
4.758243
 30
0.0
 10
122.961265
 20
5.561080
 30
0.0
 10
123.594992
 20
6.423382
 30
0.0
 10
124.240598
 20
7.318506
 30
0.0
 10
124.878685
 20
8.219755
 30
0.0
 10
125.489863
 20
9.100485
 30
0.0
 10
126.054734
 20
9.934085
 30
0.0
 10
126.379123
 20
10.419649
 30
0.0
 10
126.703515
 20
10.905184
 30
0.0
 10
127.027904
 20
11.390747
 30
0.0
 10
127.352295
 20
11.876282
 30
0.0
 10
127.676685
 20
12.361845
 30
0.0
 10
128.001074
 20
12.847409
 30
0.0
 10
128.325465
 20
13.332944
 30
0.0
 10
128.649854
 20
13.818507
 30
0.0
 10
129.455455
 20
13.813992
 30
0.0
 10
130.261058
 20
13.809476
 30
0.0
 10
131.066659
 20
13.804961
 30
0.0
 10
131.872259
 20
13.800445
 30
0.0
 10
132.677860
 20
13.795929
 30
0.0
 10
133.483463
 20
13.791414
 30
0.0
 10
134.289064
 20
13.786898
 30
0.0
 10
135.094664
 20
13.782383
 30
0.0
 10
136.434300
 20
13.770529
 30
0.0
 10
137.771085
 20
13.750774
 30
0.0
 10
139.069536
 20
13.724245
 30
0.0
 10
140.294171
 20
13.692072
 30
0.0
 10
141.409505
 20
13.655213
 30
0.0
 10
142.380056
 20
13.614743
 30
0.0
 10
143.170346
 20
13.571676
 30
0.0
 10
143.744885
 20
13.527085
 30
0.0
 10
144.020563
 20
13.499709
 30
0.0
 10
144.296238
 20
13.472333
 30
0.0
 10
144.571915
 20
13.444958
 30
0.0
 10
144.847590
 20
13.417582
 30
0.0
 10
145.123267
 20
13.390207
 30
0.0
 10
145.398945
 20
13.362831
 30
0.0
 10
145.674619
 20
13.335456
 30
0.0
 10
145.950297
 20
13.308080
 30
0.0
 10
146.108014
 20
13.649569
 30
0.0
 10
146.265731
 20
13.991030
 30
0.0
 10
146.423448
 20
14.332519
 30
0.0
 10
146.581165
 20
14.673979
 30
0.0
 10
146.738879
 20
15.015465
 30
0.0
 10
146.896596
 20
15.356940
 30
0.0
 10
147.054313
 20
15.698418
 30
0.0
 10
147.212031
 20
16.039895
 30
0.0
 10
148.258375
 20
18.549314
 30
0.0
 10
149.388864
 20
21.661593
 30
0.0
 10
150.522988
 20
25.099370
 30
0.0
 10
151.580238
 20
28.585274
 30
0.0
 10
152.480103
 20
31.841944
 30
0.0
 10
153.142073
 20
34.592013
 30
0.0
 10
153.485639
 20
36.558111
 30
0.0
 10
153.430289
 20
37.462876
 30
0.0
 10
153.238787
 20
37.610831
 30
0.0
 10
152.791062
 20
37.933747
 30
0.0
 10
152.116144
 20
38.411343
 30
0.0
 10
151.243073
 20
39.023331
 30
0.0
 10
150.200880
 20
39.749427
 30
0.0
 10
149.018603
 20
40.569339
 30
0.0
 10
147.725274
 20
41.462786
 30
0.0
 10
146.349929
 20
42.409481
 30
0.0
 10
145.497406
 20
42.995284
 30
0.0
 10
144.644881
 20
43.581090
 30
0.0
 10
143.792358
 20
44.166893
 30
0.0
 10
142.939835
 20
44.752699
 30
0.0
 10
142.087312
 20
45.338502
 30
0.0
 10
141.234790
 20
45.924305
 30
0.0
 10
140.382264
 20
46.510111
 30
0.0
 10
139.529741
 20
47.095914
 30
0.0
 10
139.523053
 20
48.115800
 30
0.0
 10
139.516364
 20
49.135686
 30
0.0
 10
139.509675
 20
50.155572
 30
0.0
 10
139.502987
 20
51.175458
 30
0.0
 10
139.496298
 20
52.195345
 30
0.0
 10
139.489609
 20
53.215231
 30
0.0
 10
139.482921
 20
54.235117
 30
0.0
 10
139.476232
 20
55.255003
 30
0.0
 10
139.469543
 20
56.274889
 30
0.0
 10
139.462855
 20
57.294776
 30
0.0
 10
139.456166
 20
58.314662
 30
0.0
 10
139.449477
 20
59.334548
 30
0.0
 10
139.442789
 20
60.354431
 30
0.0
 10
139.436100
 20
61.374318
 30
0.0
 10
139.429411
 20
62.394204
 30
0.0
 10
139.422723
 20
63.414090
 30
0.0
 10
140.238520
 20
63.973367
 30
0.0
 10
141.054320
 20
64.532644
 30
0.0
 10
141.870117
 20
65.091921
 30
0.0
 10
142.685917
 20
65.651198
 30
0.0
 10
143.501714
 20
66.210475
 30
0.0
 10
144.317514
 20
66.769752
 30
0.0
 10
145.133311
 20
67.329029
 30
0.0
 10
145.949111
 20
67.888306
 30
0.0
 10
147.272785
 20
68.796519
 30
0.0
 10
148.532114
 20
69.661993
 30
0.0
 10
149.697796
 20
70.464478
 30
0.0
 10
150.740517
 20
71.183724
 30
0.0
 10
151.630967
 20
71.799482
 30
0.0
 10
152.339842
 20
72.291503
 30
0.0
 10
152.837826
 20
72.639537
 30
0.0
 10
153.095616
 20
72.823337
 30
0.0
 10
153.284917
 20
72.989221
 30
0.0
 10
153.409718
 20
73.196736
 30
0.0
 10
153.463755
 20
73.499290
 30
0.0
 10
153.440782
 20
73.950287
 30
0.0
 10
153.334520
 20
74.603134
 30
0.0
 10
153.138720
 20
75.511235
 30
0.0
 10
152.847119
 20
76.728000
 30
0.0
 10
152.453459
 20
78.306827
 30
0.0
 10
151.913150
 20
80.381290
 30
0.0
 10
151.350032
 20
82.394373
 30
0.0
 10
150.761909
 20
84.352634
 30
0.0
 10
150.146597
 20
86.262632
 30
0.0
 10
149.501900
 20
88.130929
 30
0.0
 10
148.825628
 20
89.964089
 30
0.0
 10
148.115590
 20
91.768672
 30
0.0
 10
147.369601
 20
93.551235
 30
0.0
 10
147.091999
 20
94.191809
 30
0.0
 10
146.828174
 20
94.794249
 30
0.0
 10
146.584247
 20
95.345023
 30
0.0
 10
146.366346
 20
95.830600
 30
0.0
 10
146.180590
 20
96.237446
 30
0.0
 10
146.033109
 20
96.552025
 30
0.0
 10
145.930025
 20
96.760807
 30
0.0
 10
145.877461
 20
96.850258
 30
0.0
 10
145.677379
 20
96.869900
 30
0.0
 10
145.151523
 20
96.878621
 30
0.0
 10
144.335656
 20
96.876928
 30
0.0
 10
143.265537
 20
96.865272
 30
0.0
 10
141.976927
 20
96.844162
 30
0.0
 10
140.505592
 20
96.814088
 30
0.0
 10
138.887291
 20
96.775548
 30
0.0
 10
137.157788
 20
96.729038
 30
0.0
 10
136.083125
 20
96.698515
 30
0.0
 10
135.008462
 20
96.667990
 30
0.0
 10
133.933800
 20
96.637465
 30
0.0
 10
132.859134
 20
96.606943
 30
0.0
 10
131.784471
 20
96.576420
 30
0.0
 10
130.709809
 20
96.545895
 30
0.0
 10
129.635146
 20
96.515373
 30
0.0
 10
128.560483
 20
96.484848
 30
0.0
 10
128.240226
 20
96.969917
 30
0.0
 10
127.919971
 20
97.454987
 30
0.0
 10
127.599714
 20
97.940056
 30
0.0
 10
127.279457
 20
98.425126
 30
0.0
 10
126.959202
 20
98.910195
 30
0.0
 10
126.638945
 20
99.395264
 30
0.0
 10
126.318690
 20
99.880334
 30
0.0
 10
125.998433
 20
100.365403
 30
0.0
 10
125.438657
 20
101.198120
 30
0.0
 10
124.829308
 20
102.077809
 30
0.0
 10
124.189959
 20
102.977867
 30
0.0
 10
123.540184
 20
103.871693
 30
0.0
 10
122.899551
 20
104.732685
 30
0.0
 10
122.287631
 20
105.534244
 30
0.0
 10
121.723997
 20
106.249768
 30
0.0
 10
121.228217
 20
106.852656
 30
0.0
 10
120.952266
 20
107.178561
 30
0.0
 10
120.676312
 20
107.504468
 30
0.0
 10
120.400361
 20
107.830376
 30
0.0
 10
120.124407
 20
108.156280
 30
0.0
 10
119.848455
 20
108.482185
 30
0.0
 10
119.572504
 20
108.808092
 30
0.0
 10
119.296550
 20
109.134000
 30
0.0
 10
119.020599
 20
109.459904
 30
0.0
 10
119.133047
 20
109.795458
 30
0.0
 10
119.245493
 20
110.131009
 30
0.0
 10
119.357942
 20
110.466560
 30
0.0
 10
119.470390
 20
110.802114
 30
0.0
 10
119.582839
 20
111.137667
 30
0.0
 10
119.695285
 20
111.473218
 30
0.0
 10
119.807733
 20
111.808769
 30
0.0
 10
119.920182
 20
112.144323
 30
0.0
 10
120.140699
 20
112.796118
 30
0.0
 10
120.423421
 20
113.621686
 30
0.0
 10
120.756655
 20
114.587400
 30
0.0
 10
121.128700
 20
115.659641
 30
0.0
 10
121.527858
 20
116.804786
 30
0.0
 10
121.942440
 20
117.989216
 30
0.0
 10
122.360741
 20
119.179310
 30
0.0
 10
122.771067
 20
120.341445
 30
0.0
 10
123.014910
 20
121.030533
 30
0.0
 10
123.258755
 20
121.719621
 30
0.0
 10
123.502598
 20
122.408709
 30
0.0
 10
123.746441
 20
123.097797
 30
0.0
 10
123.990287
 20
123.786884
 30
0.0
 10
124.234129
 20
124.475972
 30
0.0
 10
124.477975
 20
125.165060
 30
0.0
 10
124.721818
 20
125.854148
 30
0.0
 10
124.538196
 20
126.030949
 30
0.0
 10
124.354571
 20
126.207753
 30
0.0
 10
124.170948
 20
126.384557
 30
0.0
 10
123.987323
 20
126.561357
 30
0.0
 10
123.803701
 20
126.738158
 30
0.0
 10
123.620079
 20
126.914962
 30
0.0
 10
123.436454
 20
127.091766
 30
0.0
 10
123.252831
 20
127.268567
 30
0.0
 10
121.710306
 20
128.660975
 30
0.0
 10
119.801451
 20
130.237127
 30
0.0
 10
117.625845
 20
131.925259
 30
0.0
 10
115.283065
 20
133.653622
 30
0.0
 10
112.872698
 20
135.350452
 30
0.0
 10
110.494315
 20
136.943991
 30
0.0
 10
108.247508
 20
138.362497
 30
0.0
 10
106.231854
 20
139.534210
 30
0.0
 10
106.007716
 20
139.657200
 30
0.0
 10
105.783578
 20
139.780189
 30
0.0
 10
105.559440
 20
139.903179
 30
0.0
 10
105.335302
 20
140.026171
 30
0.0
 10
105.111164
 20
140.149161
 30
0.0
 10
104.887026
 20
140.272150
 30
0.0
 10
104.662888
 20
140.395140
 30
0.0
 10
104.438749
 20
140.518130
 30
0.0
 10
103.582504
 20
139.854950
 30
0.0
 10
102.726262
 20
139.191767
 30
0.0
 10
101.870016
 20
138.528587
 30
0.0
 10
101.013774
 20
137.865407
 30
0.0
 10
100.157529
 20
137.202225
 30
0.0
 10
99.301286
 20
136.539045
 30
0.0
 10
98.445041
 20
135.875862
 30
0.0
 10
97.588798
 20
135.212682
 30
0.0
 10
96.732624
 20
134.549502
 30
0.0
 10
95.876449
 20
133.886320
 30
0.0
 10
95.020274
 20
133.223140
 30
0.0
 10
94.164097
 20
132.559957
 30
0.0
 10
93.307922
 20
131.896777
 30
0.0
 10
92.451747
 20
131.233597
 30
0.0
 10
91.595572
 20
130.570414
 30
0.0
 10
90.739398
 20
129.907235
 30
0.0
 10
90.585056
 20
129.972690
 30
0.0
 10
90.430717
 20
130.038149
 30
0.0
 10
90.276375
 20
130.103605
 30
0.0
 10
90.122037
 20
130.169063
 30
0.0
 10
89.967695
 20
130.234519
 30
0.0
 10
89.813356
 20
130.299975
 30
0.0
 10
89.659014
 20
130.365434
 30
0.0
 10
89.504676
 20
130.430889
 30
0.0
 10
88.471223
 20
130.840253
 30
0.0
 10
87.119596
 20
131.333560
 30
0.0
 10
85.550497
 20
131.877831
 30
0.0
 10
83.864614
 20
132.440091
 30
0.0
 10
82.162647
 20
132.987366
 30
0.0
 10
80.545291
 20
133.486670
 30
0.0
 10
79.113239
 20
133.905031
 30
0.0
 10
77.967188
 20
134.209470
 30
0.0
 10
77.187820
 20
134.405134
 30
0.0
 10
76.578455
 20
134.576421
 30
0.0
 10
76.113714
 20
134.738506
 30
0.0
 10
75.768217
 20
134.906561
 30
0.0
 10
75.516585
 20
135.095760
 30
0.0
 10
75.333443
 20
135.321276
 30
0.0
 10
75.193407
 20
135.598277
 30
0.0
 10
75.071103
 20
135.941942
 30
0.0
 10
74.956312
 20
136.312401
 30
0.0
 10
74.765166
 20
136.942154
 30
0.0
 10
74.507858
 20
137.797104
 30
0.0
 10
74.194583
 20
138.843158
 30
0.0
 10
73.835531
 20
140.046215
 30
0.0
 10
73.440903
 20
141.372185
 30
0.0
 10
73.020885
 20
142.786968
 30
0.0
 10
72.585673
 20
144.256471
 30
0.0
 10
72.155869
 20
145.705112
 30
0.0
 10
71.751351
 20
147.060097
 30
0.0
 10
71.381225
 20
148.291526
 30
0.0
 10
71.054604
 20
149.369485
 30
0.0
 10
70.780600
 20
150.264070
 30
0.0
 10
70.568321
 20
150.945374
 30
0.0
 10
70.426877
 20
151.383485
 30
0.0
 10
70.365378
 20
151.548497
 30
0.0
 10
70.242989
 20
151.575224
 30
0.0
 10
69.927053
 20
151.617038
 30
0.0
 10
69.438904
 20
151.671803
 30
0.0
 10
68.799888
 20
151.737394
 30
0.0
 10
68.031338
 20
151.811684
 30
0.0
 10
67.154600
 20
151.892554
 30
0.0
 10
66.191009
 20
151.977873
 30
0.0
 10
65.161905
 20
152.065523
 30
0.0
 10
64.424704
 20
152.120373
 30
0.0
 10
63.623964
 20
152.167594
 30
0.0
 10
62.767577
 20
152.207323
 30
0.0
 10
61.863433
 20
152.239688
 30
0.0
 10
60.919431
 20
152.264834
 30
0.0
 10
59.943464
 20
152.282868
 30
0.0
 10
58.943424
 20
152.293931
 30
0.0
 10
57.927215
 20
152.298272
 30
0.0
  0
LWPOLYLINE
  5
101
100
AcDbEntity
  8
Layer_1
 62
7
100
AcDbPolyline
 90
33
 70
1
 10
58.649306
 20
91.338272
 30
0.0
 10
65.759008
 20
90.621551
 30
0.0
 10
72.381008
 20
88.565969
 30
0.0
 10
78.373447
 20
85.313380
 30
0.0
 10
83.594462
 20
81.005650
 30
0.0
 10
87.902192
 20
75.784635
 30
0.0
 10
91.154781
 20
69.792197
 30
0.0
 10
93.210363
 20
63.170196
 30
0.0
 10
93.927083
 20
56.060494
 30
0.0
 10
93.210363
 20
48.950791
 30
0.0
 10
91.154781
 20
42.328791
 30
0.0
 10
87.902192
 20
36.336352
 30
0.0
 10
83.594462
 20
31.115337
 30
0.0
 10
78.373447
 20
26.807607
 30
0.0
 10
72.381008
 20
23.555019
 30
0.0
 10
65.759008
 20
21.499436
 30
0.0
 10
58.649306
 20
20.782716
 30
0.0
 10
51.539603
 20
21.499436
 30
0.0
 10
44.917603
 20
23.555019
 30
0.0
 10
38.925164
 20
26.807607
 30
0.0
 10
33.704149
 20
31.115337
 30
0.0
 10
29.396419
 20
36.336352
 30
0.0
 10
26.143831
 20
42.328791
 30
0.0
 10
24.088247
 20
48.950791
 30
0.0
 10
23.371528
 20
56.060494
 30
0.0
 10
24.088247
 20
63.170196
 30
0.0
 10
26.143831
 20
69.792197
 30
0.0
 10
29.396419
 20
75.784635
 30
0.0
 10
33.704149
 20
81.005650
 30
0.0
 10
38.925164
 20
85.313380
 30
0.0
 10
44.917603
 20
88.565969
 30
0.0
 10
51.539603
 20
90.621551
 30
0.0
 10
58.649306
 20
91.338272
 30
0.0
  0
LWPOLYLINE
  5
102
100
AcDbEntity
  8
Layer_1
 62
7
100
AcDbPolyline
 90
617
 70
1
 10
-65.233573
 20
27.860872
 30
0.0
 10
-65.580700
 20
27.859743
 30
0.0
 10
-65.927828
 20
27.858614
 30
0.0
 10
-66.274956
 20
27.857485
 30
0.0
 10
-66.622083
 20
27.856356
 30
0.0
 10
-66.969211
 20
27.855227
 30
0.0
 10
-67.316339
 20
27.854099
 30
0.0
 10
-67.663466
 20
27.852970
 30
0.0
 10
-68.010594
 20
27.851841
 30
0.0
 10
-68.360479
 20
27.059677
 30
0.0
 10
-68.710361
 20
26.267510
 30
0.0
 10
-69.060246
 20
25.475346
 30
0.0
 10
-69.410128
 20
24.683179
 30
0.0
 10
-69.760013
 20
23.891016
 30
0.0
 10
-70.109898
 20
23.098849
 30
0.0
 10
-70.459781
 20
22.306682
 30
0.0
 10
-70.809666
 20
21.514518
 30
0.0
 10
-71.732013
 20
19.431978
 30
0.0
 10
-72.442183
 20
17.861499
 30
0.0
 10
-72.986940
 20
16.727533
 30
0.0
 10
-73.413056
 20
15.954526
 30
0.0
 10
-73.767304
 20
15.466928
 30
0.0
 10
-74.096462
 20
15.189193
 30
0.0
 10
-74.447304
 20
15.045773
 30
0.0
 10
-74.866610
 20
14.961121
 30
0.0
 10
-76.232673
 20
14.718158
 30
0.0
 10
-77.524506
 20
14.470395
 30
0.0
 10
-78.745035
 20
14.217157
 30
0.0
 10
-79.897190
 20
13.957739
 30
0.0
 10
-80.983901
 20
13.691462
 30
0.0
 10
-82.008091
 20
13.417594
 30
0.0
 10
-82.972693
 20
13.135513
 30
0.0
 10
-83.880633
 20
12.844457
 30
0.0
 10
-84.209227
 20
12.734080
 30
0.0
 10
-84.537818
 20
12.623703
 30
0.0
 10
-84.866412
 20
12.513325
 30
0.0
 10
-85.195006
 20
12.402920
 30
0.0
 10
-85.523601
 20
12.292543
 30
0.0
 10
-85.852195
 20
12.182166
 30
0.0
 10
-86.180786
 20
12.071789
 30
0.0
 10
-86.509380
 20
11.961412
 30
0.0
 10
-87.197918
 20
12.513721
 30
0.0
 10
-87.886453
 20
13.066058
 30
0.0
 10
-88.574990
 20
13.618367
 30
0.0
 10
-89.263528
 20
14.170675
 30
0.0
 10
-89.952065
 20
14.722984
 30
0.0
 10
-90.640600
 20
15.275313
 30
0.0
 10
-91.329137
 20
15.827630
 30
0.0
 10
-92.017675
 20
16.379948
 30
0.0
 10
-92.706213
 20
16.932197
 30
0.0
 10
-93.394747
 20
17.484447
 30
0.0
 10
-94.083285
 20
18.036694
 30
0.0
 10
-94.771820
 20
18.588943
 30
0.0
 10
-95.460357
 20
19.141193
 30
0.0
 10
-96.148895
 20
19.693443
 30
0.0
 10
-96.837429
 20
20.245689
 30
0.0
 10
-97.525967
 20
20.797939
 30
0.0
 10
-97.709728
 20
20.705198
 30
0.0
 10
-97.893491
 20
20.612454
 30
0.0
 10
-98.077251
 20
20.519713
 30
0.0
 10
-98.261012
 20
20.426972
 30
0.0
 10
-98.444775
 20
20.334228
 30
0.0
 10
-98.628536
 20
20.241487
 30
0.0
 10
-98.812299
 20
20.148743
 30
0.0
 10
-98.996060
 20
20.056002
 30
0.0
 10
-100.591747
 20
19.178226
 30
0.0
 10
-102.395474
 20
18.064038
 30
0.0
 10
-104.320396
 20
16.777159
 30
0.0
 10
-106.279673
 20
15.381307
 30
0.0
 10
-108.186468
 20
13.940213
 30
0.0
 10
-109.953933
 20
12.517559
 30
0.0
 10
-111.495233
 20
11.177116
 30
0.0
 10
-112.723524
 20
9.982554
 30
0.0
 10
-112.844515
 20
9.854877
 30
0.0
 10
-112.965507
 20
9.727199
 30
0.0
 10
-113.086498
 20
9.599522
 30
0.0
 10
-113.207492
 20
9.471845
 30
0.0
 10
-113.328484
 20
9.344167
 30
0.0
 10
-113.449475
 20
9.216490
 30
0.0
 10
-113.570467
 20
9.088813
 30
0.0
 10
-113.691458
 20
8.961135
 30
0.0
 10
-113.411302
 20
8.235655
 30
0.0
 10
-113.131148
 20
7.510203
 30
0.0
 10
-112.850992
 20
6.784722
 30
0.0
 10
-112.570836
 20
6.059270
 30
0.0
 10
-112.290682
 20
5.333790
 30
0.0
 10
-112.010526
 20
4.608337
 30
0.0
 10
-111.730372
 20
3.882857
 30
0.0
 10
-111.450216
 20
3.157405
 30
0.0
 10
-110.995257
 20
1.976728
 30
0.0
 10
-110.561763
 20
0.846456
 30
0.0
 10
-110.159865
 20
-0.206571
 30
0.0
 10
-109.799704
 20
-1.155600
 30
0.0
 10
-109.491413
 20
-1.973819
 30
0.0
 10
-109.245129
 20
-2.634416
 30
0.0
 10
-109.070984
 20
-3.110610
 30
0.0
 10
-108.979118
 20
-3.375616
 30
0.0
 10
-108.949857
 20
-3.605571
 30
0.0
 10
-108.992822
 20
-3.898264
 30
0.0
 10
-109.113320
 20
-4.264306
 30
0.0
 10
-109.316650
 20
-4.714337
 30
0.0
 10
-109.608115
 20
-5.259055
 30
0.0
 10
-109.993021
 20
-5.909069
 30
0.0
 10
-110.476671
 20
-6.675020
 30
0.0
 10
-111.064367
 20
-7.567604
 30
0.0
 10
-111.551486
 20
-8.307167
 30
0.0
 10
-112.048598
 20
-9.082263
 30
0.0
 10
-112.541770
 20
-9.869804
 30
0.0
 10
-113.017074
 20
-10.646761
 30
0.0
 10
-113.460575
 20
-11.390078
 30
0.0
 10
-113.858342
 20
-12.076725
 30
0.0
 10
-114.196447
 20
-12.683644
 30
0.0
 10
-114.460954
 20
-13.187777
 30
0.0
 10
-114.679259
 20
-13.622541
 30
0.0
 10
-114.884925
 20
-14.030634
 30
0.0
 10
-115.073309
 20
-14.402942
 30
0.0
 10
-115.239752
 20
-14.730319
 30
0.0
 10
-115.379610
 20
-15.003708
 30
0.0
 10
-115.488229
 20
-15.213964
 30
0.0
 10
-115.560960
 20
-15.351970
 30
0.0
 10
-115.593151
 20
-15.408641
 30
0.0
 10
-115.743603
 20
-15.436919
 30
0.0
 10
-116.155213
 20
-15.493505
 30
0.0
 10
-116.799583
 20
-15.575067
 30
0.0
 10
-117.648301
 20
-15.678135
 30
0.0
 10
-118.672968
 20
-15.799321
 30
0.0
 10
-119.845181
 20
-15.935267
 30
0.0
 10
-121.136531
 20
-16.082503
 30
0.0
 10
-122.518619
 20
-16.237668
 30
0.0
 10
-123.904375
 20
-16.396221
 30
0.0
 10
-125.206232
 20
-16.553193
 30
0.0
 10
-126.395043
 20
-16.704520
 30
0.0
 10
-127.441658
 20
-16.846083
 30
0.0
 10
-128.316934
 20
-16.973817
 30
0.0
 10
-128.991718
 20
-17.083629
 30
0.0
 10
-129.436868
 20
-17.171429
 30
0.0
 10
-129.623233
 20
-17.233151
 30
0.0
 10
-129.788302
 20
-17.580030
 30
0.0
 10
-130.023356
 20
-18.320440
 30
0.0
 10
-130.309781
 20
-19.376121
 30
0.0
 10
-130.628969
 20
-20.668783
 30
0.0
 10
-130.962313
 20
-22.120195
 30
0.0
 10
-131.291197
 20
-23.652041
 30
0.0
 10
-131.597019
 20
-25.186088
 30
0.0
 10
-131.861168
 20
-26.644048
 30
0.0
 10
-131.971675
 20
-27.355051
 30
0.0
 10
-132.078027
 20
-28.156139
 30
0.0
 10
-132.177669
 20
-29.019936
 30
0.0
 10
-132.268045
 20
-29.919068
 30
0.0
 10
-132.346590
 20
-30.826102
 30
0.0
 10
-132.410753
 20
-31.713691
 30
0.0
 10
-132.457975
 20
-32.554431
 30
0.0
 10
-132.485689
 20
-33.320918
 30
0.0
 10
-132.496103
 20
-33.757403
 30
0.0
 10
-132.506517
 20
-34.193916
 30
0.0
 10
-132.516931
 20
-34.630401
 30
0.0
 10
-132.527345
 20
-35.066914
 30
0.0
 10
-132.537759
 20
-35.503399
 30
0.0
 10
-132.548173
 20
-35.939884
 30
0.0
 10
-132.558587
 20
-36.376397
 30
0.0
 10
-132.569001
 20
-36.812882
 30
0.0
 10
-131.777799
 20
-37.170768
 30
0.0
 10
-130.986601
 20
-37.528626
 30
0.0
 10
-130.195399
 20
-37.886512
 30
0.0
 10
-129.404197
 20
-38.244398
 30
0.0
 10
-128.612999
 20
-38.602255
 30
0.0
 10
-127.821797
 20
-38.960141
 30
0.0
 10
-127.030599
 20
-39.317999
 30
0.0
 10
-126.239397
 20
-39.675885
 30
0.0
 10
-125.448195
 20
-40.033828
 30
0.0
 10
-124.656997
 20
-40.391770
 30
0.0
 10
-123.865795
 20
-40.749713
 30
0.0
 10
-123.074594
 20
-41.107683
 30
0.0
 10
-122.283392
 20
-41.465626
 30
0.0
 10
-121.492191
 20
-41.823568
 30
0.0
 10
-120.700992
 20
-42.181511
 30
0.0
 10
-119.909790
 20
-42.539453
 30
0.0
 10
-119.813465
 20
-43.029560
 30
0.0
 10
-119.717140
 20
-43.519667
 30
0.0
 10
-119.620815
 20
-44.009746
 30
0.0
 10
-119.524489
 20
-44.499853
 30
0.0
 10
-119.428167
 20
-44.989960
 30
0.0
 10
-119.331842
 20
-45.480067
 30
0.0
 10
-119.235516
 20
-45.970146
 30
0.0
 10
-119.139191
 20
-46.460253
 30
0.0
 10
-118.969090
 20
-47.293232
 30
0.0
 10
-118.780848
 20
-48.157848
 30
0.0
 10
-118.580699
 20
-49.028927
 30
0.0
 10
-118.374874
 20
-49.881267
 30
0.0
 10
-118.169608
 20
-50.689720
 30
0.0
 10
-117.971133
 20
-51.429058
 30
0.0
 10
-117.785684
 20
-52.074105
 30
0.0
 10
-117.619492
 20
-52.599687
 30
0.0
 10
-117.469025
 20
-53.054827
 30
0.0
 10
-117.328645
 20
-53.497944
 30
0.0
 10
-117.201431
 20
-53.918032
 30
0.0
 10
-117.090452
 20
-54.304084
 30
0.0
 10
-116.998787
 20
-54.645065
 30
0.0
 10
-116.929504
 20
-54.929968
 30
0.0
 10
-116.885680
 20
-55.147731
 30
0.0
 10
-116.870384
 20
-55.287403
 30
0.0
 10
-116.956786
 20
-55.488542
 30
0.0
 10
-117.204419
 20
-55.882581
 30
0.0
 10
-117.595921
 20
-56.446066
 30
0.0
 10
-118.113926
 20
-57.155685
 30
0.0
 10
-118.741071
 20
-57.988015
 30
0.0
 10
-119.459993
 20
-58.919687
 30
0.0
 10
-120.253331
 20
-59.927305
 30
0.0
 10
-121.103717
 20
-60.987529
 30
0.0
 10
-121.954109
 20
-62.045383
 30
0.0
 10
-122.747447
 20
-63.046284
 30
0.0
 10
-123.466369
 20
-63.967288
 30
0.0
 10
-124.093515
 20
-64.785507
 30
0.0
 10
-124.611517
 20
-65.478024
 30
0.0
 10
-125.003015
 20
-66.021951
 30
0.0
 10
-125.250648
 20
-66.394399
 30
0.0
 10
-125.337051
 20
-66.572425
 30
0.0
 10
-125.290930
 20
-66.720479
 30
0.0
 10
-125.158754
 20
-67.007019
 30
0.0
 10
-124.949788
 20
-67.415169
 30
0.0
 10
-124.673306
 20
-67.928023
 30
0.0
 10
-124.338577
 20
-68.528705
 30
0.0
 10
-123.954873
 20
-69.200337
 30
0.0
 10
-123.531463
 20
-69.926043
 30
0.0
 10
-123.077619
 20
-70.688918
 30
0.0
 10
-122.277008
 20
-71.988467
 30
0.0
 10
-121.465724
 20
-73.234760
 30
0.0
 10
-120.625842
 20
-74.451590
 30
0.0
 10
-119.739433
 20
-75.662775
 30
0.0
 10
-118.788567
 20
-76.892135
 30
0.0
 10
-117.755323
 20
-78.163461
 30
0.0
 10
-116.621769
 20
-79.500517
 30
0.0
 10
-115.369978
 20
-80.927179
 30
0.0
 10
-115.177672
 20
-81.143191
 30
0.0
 10
-114.985365
 20
-81.359204
 30
0.0
 10
-114.793062
 20
-81.575217
 30
0.0
 10
-114.600756
 20
-81.791230
 30
0.0
 10
-114.408450
 20
-82.007215
 30
0.0
 10
-114.216143
 20
-82.223228
 30
0.0
 10
-114.023840
 20
-82.439241
 30
0.0
 10
-113.831534
 20
-82.655253
 30
0.0
 10
-113.002782
 20
-82.334988
 30
0.0
 10
-112.174028
 20
-82.014750
 30
0.0
 10
-111.345277
 20
-81.694484
 30
0.0
 10
-110.516526
 20
-81.374219
 30
0.0
 10
-109.687775
 20
-81.053953
 30
0.0
 10
-108.859021
 20
-80.733687
 30
0.0
 10
-108.030270
 20
-80.413449
 30
0.0
 10
-107.201518
 20
-80.093184
 30
0.0
 10
-106.372767
 20
-79.772918
 30
0.0
 10
-105.544013
 20
-79.452680
 30
0.0
 10
-104.715262
 20
-79.132415
 30
0.0
 10
-103.886511
 20
-78.812177
 30
0.0
 10
-103.057757
 20
-78.491911
 30
0.0
 10
-102.229006
 20
-78.171645
 30
0.0
 10
-101.400252
 20
-77.851408
 30
0.0
 10
-100.571500
 20
-77.531142
 30
0.0
 10
-100.454643
 20
-77.616994
 30
0.0
 10
-100.337787
 20
-77.702846
 30
0.0
 10
-100.220927
 20
-77.788698
 30
0.0
 10
-100.104070
 20
-77.874550
 30
0.0
 10
-99.987213
 20
-77.960402
 30
0.0
 10
-99.870356
 20
-78.046254
 30
0.0
 10
-99.753496
 20
-78.132106
 30
0.0
 10
-99.636639
 20
-78.217958
 30
0.0
 10
-98.689403
 20
-78.900230
 30
0.0
 10
-97.710306
 20
-79.579201
 30
0.0
 10
-96.711070
 20
-80.247475
 30
0.0
 10
-95.703421
 20
-80.897602
 30
0.0
 10
-94.699082
 20
-81.522188
 30
0.0
 10
-93.709775
 20
-82.113810
 30
0.0
 10
-92.747228
 20
-82.665018
 30
0.0
 10
-91.823162
 20
-83.168418
 30
0.0
 10
-91.492431
 20
-83.343565
 30
0.0
 10
-91.161703
 20
-83.518712
 30
0.0
 10
-90.830973
 20
-83.693859
 30
0.0
 10
-90.500245
 20
-83.869035
 30
0.0
 10
-90.169515
 20
-84.044182
 30
0.0
 10
-89.838787
 20
-84.219329
 30
0.0
 10
-89.508056
 20
-84.394476
 30
0.0
 10
-89.177328
 20
-84.569623
 30
0.0
 10
-89.084517
 20
-85.436553
 30
0.0
 10
-88.991705
 20
-86.303484
 30
0.0
 10
-88.898897
 20
-87.170386
 30
0.0
 10
-88.806085
 20
-88.037316
 30
0.0
 10
-88.713273
 20
-88.904246
 30
0.0
 10
-88.620462
 20
-89.771176
 30
0.0
 10
-88.527653
 20
-90.638078
 30
0.0
 10
-88.434841
 20
-91.505009
 30
0.0
 10
-88.282853
 20
-92.900823
 30
0.0
 10
-88.135567
 20
-94.208218
 30
0.0
 10
-87.996590
 20
-95.398151
 30
0.0
 10
-87.869536
 20
-96.441696
 30
0.0
 10
-87.758022
 20
-97.309840
 30
0.0
 10
-87.665664
 20
-97.973627
 30
0.0
 10
-87.596085
 20
-98.404044
 30
0.0
 10
-87.552897
 20
-98.572135
 30
0.0
 10
-87.449262
 20
-98.617150
 30
0.0
 10
-87.206438
 20
-98.694817
 30
0.0
 10
-86.840190
 20
-98.800933
 30
0.0
 10
-86.366277
 20
-98.931207
 30
0.0
 10
-85.800466
 20
-99.081405
 30
0.0
 10
-85.158521
 20
-99.247267
 30
0.0
 10
-84.456202
 20
-99.424531
 30
0.0
 10
-83.709273
 20
-99.608963
 30
0.0
 10
-82.539755
 20
-99.885626
 30
0.0
 10
-81.406960
 20
-100.133530
 30
0.0
 10
-80.273765
 20
-100.358941
 30
0.0
 10
-79.103039
 20
-100.568124
 30
0.0
 10
-77.857660
 20
-100.767401
 30
0.0
 10
-76.500499
 20
-100.963037
 30
0.0
 10
-74.994431
 20
-101.161270
 30
0.0
 10
-73.302328
 20
-101.368449
 30
0.0
 10
-73.045639
 20
-101.394696
 30
0.0
 10
-72.720934
 20
-101.421225
 30
0.0
 10
-72.341415
 20
-101.447472
 30
0.0
 10
-71.920289
 20
-101.472589
 30
0.0
 10
-71.470760
 20
-101.495732
 30
0.0
 10
-71.006030
 20
-101.516334
 30
0.0
 10
-70.539302
 20
-101.533549
 30
0.0
 10
-70.083782
 20
-101.546814
 30
0.0
 10
-69.813754
 20
-101.553305
 30
0.0
 10
-69.543730
 20
-101.560078
 30
0.0
 10
-69.273702
 20
-101.566569
 30
0.0
 10
-69.003675
 20
-101.573343
 30
0.0
 10
-68.733650
 20
-101.579834
 30
0.0
 10
-68.463623
 20
-101.586325
 30
0.0
 10
-68.193598
 20
-101.593098
 30
0.0
 10
-67.923571
 20
-101.599589
 30
0.0
 10
-67.557289
 20
-100.783798
 30
0.0
 10
-67.191007
 20
-99.968006
 30
0.0
 10
-66.824725
 20
-99.152187
 30
0.0
 10
-66.458440
 20
-98.336395
 30
0.0
 10
-66.092157
 20
-97.520603
 30
0.0
 10
-65.725875
 20
-96.704812
 30
0.0
 10
-65.359593
 20
-95.888992
 30
0.0
 10
-64.993311
 20
-95.073201
 30
0.0
 10
-64.088634
 20
-93.069225
 30
0.0
 10
-63.373660
 20
-91.520757
 30
0.0
 10
-62.814251
 20
-90.369713
 30
0.0
 10
-62.376262
 20
-89.557957
 30
0.0
 10
-62.025561
 20
-89.027295
 30
0.0
 10
-61.728000
 20
-88.719645
 30
0.0
 10
-61.449444
 20
-88.576840
 30
0.0
 10
-61.155749
 20
-88.540744
 30
0.0
 10
-60.529803
 20
-88.496661
 30
0.0
 10
-59.685806
 20
-88.377055
 30
0.0
 10
-58.663064
 20
-88.190647
 30
0.0
 10
-57.500873
 20
-87.946158
 30
0.0
 10
-56.238538
 20
-87.652337
 30
0.0
 10
-54.915364
 20
-87.317847
 30
0.0
 10
-53.570649
 20
-86.951466
 30
0.0
 10
-52.243699
 20
-86.561886
 30
0.0
 10
-51.860399
 20
-86.444905
 30
0.0
 10
-51.477096
 20
-86.327896
 30
0.0
 10
-51.093796
 20
-86.210887
 30
0.0
 10
-50.710493
 20
-86.093905
 30
0.0
 10
-50.327193
 20
-85.976924
 30
0.0
 10
-49.943893
 20
-85.859915
 30
0.0
 10
-49.560590
 20
-85.742934
 30
0.0
 10
-49.177290
 20
-85.625925
 30
0.0
 10
-48.507701
 20
-86.161215
 30
0.0
 10
-47.838112
 20
-86.696535
 30
0.0
 10
-47.168522
 20
-87.231825
 30
0.0
 10
-46.498936
 20
-87.767116
 30
0.0
 10
-45.829347
 20
-88.302407
 30
0.0
 10
-45.159758
 20
-88.837726
 30
0.0
 10
-44.490169
 20
-89.373017
 30
0.0
 10
-43.820580
 20
-89.908308
 30
0.0
 10
-42.735760
 20
-90.768634
 30
0.0
 10
-41.706710
 20
-91.571274
 30
0.0
 10
-40.757167
 20
-92.298617
 30
0.0
 10
-39.910868
 20
-92.933109
 30
0.0
 10
-39.191548
 20
-93.457196
 30
0.0
 10
-38.622944
 20
-93.853295
 30
0.0
 10
-38.228789
 20
-94.103824
 30
0.0
 10
-38.032820
 20
-94.191256
 30
0.0
 10
-37.539289
 20
-94.024265
 30
0.0
 10
-36.638509
 20
-93.566162
 30
0.0
 10
-35.434595
 20
-92.881265
 30
0.0
 10
-34.031645
 20
-92.033949
 30
0.0
 10
-32.533773
 20
-91.088561
 30
0.0
 10
-31.045082
 20
-90.109363
 30
0.0
 10
-29.669681
 20
-89.160758
 30
0.0
 10
-28.511678
 20
-88.307036
 30
0.0
 10
-27.977333
 20
-87.886045
 30
0.0
 10
-27.400005
 20
-87.417584
 30
0.0
 10
-26.797968
 20
-86.917289
 30
0.0
 10
-26.189496
 20
-86.400850
 30
0.0
 10
-25.592865
 20
-85.883960
 30
0.0
 10
-25.026348
 20
-85.382254
 30
0.0
 10
-24.508220
 20
-84.911423
 30
0.0
 10
-24.056756
 20
-84.487130
 30
0.0
 10
-23.807055
 20
-84.247269
 30
0.0
 10
-23.557355
 20
-84.007437
 30
0.0
 10
-23.307654
 20
-83.767576
 30
0.0
 10
-23.057954
 20
-83.527743
 30
0.0
 10
-22.808253
 20
-83.287883
 30
0.0
 10
-22.558553
 20
-83.048022
 30
0.0
 10
-22.308852
 20
-82.808190
 30
0.0
 10
-22.059152
 20
-82.568329
 30
0.0
 10
-22.362320
 20
-81.784429
 30
0.0
 10
-22.665488
 20
-81.000528
 30
0.0
 10
-22.968657
 20
-80.216628
 30
0.0
 10
-23.271825
 20
-79.432755
 30
0.0
 10
-23.574994
 20
-78.648855
 30
0.0
 10
-23.878162
 20
-77.864955
 30
0.0
 10
-24.181331
 20
-77.081054
 30
0.0
 10
-24.484499
 20
-76.297154
 30
0.0
 10
-24.971678
 20
-75.028424
 30
0.0
 10
-25.426235
 20
-73.827483
 30
0.0
 10
-25.838203
 20
-72.721793
 30
0.0
 10
-26.197617
 20
-71.738954
 30
0.0
 10
-26.494509
 20
-70.906427
 30
0.0
 10
-26.718914
 20
-70.251756
 30
0.0
 10
-26.860866
 20
-69.802487
 30
0.0
 10
-26.910397
 20
-69.586107
 30
0.0
 10
-26.877627
 20
-69.452813
 30
0.0
 10
-26.783185
 20
-69.241711
 30
0.0
 10
-26.633698
 20
-68.963553
 30
0.0
 10
-26.435796
 20
-68.629232
 30
0.0
 10
-26.196105
 20
-68.249502
 30
0.0
 10
-25.921253
 20
-67.835228
 30
0.0
 10
-25.617869
 20
-67.397248
 30
0.0
 10
-25.292581
 20
-66.946341
 30
0.0
 10
-24.931279
 20
-66.437664
 30
0.0
 10
-24.524670
 20
-65.834075
 30
0.0
 10
-24.086626
 20
-65.158012
 30
0.0
 10
-23.631017
 20
-64.431939
 30
0.0
 10
-23.171712
 20
-63.678264
 30
0.0
 10
-22.722581
 20
-62.919425
 30
0.0
 10
-22.297495
 20
-62.177886
 30
0.0
 10
-21.910324
 20
-61.476084
 30
0.0
 10
-21.469650
 20
-60.676521
 30
0.0
 10
-21.070504
 20
-59.990805
 30
0.0
 10
-20.709974
 20
-59.414903
 30
0.0
 10
-20.385149
 20
-58.944918
 30
0.0
 10
-20.093116
 20
-58.576872
 30
0.0
 10
-19.830964
 20
-58.306785
 30
0.0
 10
-19.595781
 20
-58.130735
 30
0.0
 10
-19.384655
 20
-58.044770
 30
0.0
 10
-19.119830
 20
-58.001026
 30
0.0
 10
-18.657015
 20
-57.938203
 30
0.0
 10
-18.021770
 20
-57.859265
 30
0.0
 10
-17.239657
 20
-57.767148
 30
0.0
 10
-16.336235
 20
-57.664814
 30
0.0
 10
-15.337064
 20
-57.555199
 30
0.0
 10
-14.267705
 20
-57.441266
 30
0.0
 10
-13.153718
 20
-57.325978
 30
0.0
 10
-10.705956
 20
-57.078921
 30
0.0
 10
-8.905170
 20
-56.882353
 30
0.0
 10
-7.641825
 20
-56.694393
 30
0.0
 10
-6.806387
 20
-56.473046
 30
0.0
 10
-6.289321
 20
-56.176374
 30
0.0
 10
-5.981092
 20
-55.762439
 30
0.0
 10
-5.772167
 20
-55.189302
 30
0.0
 10
-5.553010
 20
-54.415025
 30
0.0
 10
-4.977860
 20
-52.174830
 30
0.0
 10
-4.434684
 20
-49.556739
 30
0.0
 10
-3.949018
 20
-46.757151
 30
0.0
 10
-3.546396
 20
-43.972408
 30
0.0
 10
-3.252353
 20
-41.398880
 30
0.0
 10
-3.092423
 20
-39.232994
 30
0.0
 10
-3.092142
 20
-37.671063
 30
0.0
 10
-3.277043
 20
-36.909515
 30
0.0
 10
-3.461655
 20
-36.791602
 30
0.0
 10
-3.875032
 20
-36.573416
 30
0.0
 10
-4.490883
 20
-36.267487
 30
0.0
 10
-5.282918
 20
-35.886318
 30
0.0
 10
-6.224849
 20
-35.442439
 30
0.0
 10
-7.290387
 20
-34.948353
 30
0.0
 10
-8.453242
 20
-34.416589
 30
0.0
 10
-9.687125
 20
-33.859652
 30
0.0
 10
-10.451178
 20
-33.517063
 30
0.0
 10
-11.215232
 20
-33.174501
 30
0.0
 10
-11.979285
 20
-32.831912
 30
0.0
 10
-12.743338
 20
-32.489350
 30
0.0
 10
-13.507391
 20
-32.146761
 30
0.0
 10
-14.271445
 20
-31.804171
 30
0.0
 10
-15.035498
 20
-31.461610
 30
0.0
 10
-15.799551
 20
-31.119020
 30
0.0
 10
-15.897599
 20
-30.638622
 30
0.0
 10
-15.995646
 20
-30.158251
 30
0.0
 10
-16.093693
 20
-29.677881
 30
0.0
 10
-16.191741
 20
-29.197482
 30
0.0
 10
-16.289788
 20
-28.717112
 30
0.0
 10
-16.387836
 20
-28.236713
 30
0.0
 10
-16.485883
 20
-27.756343
 30
0.0
 10
-16.583931
 20
-27.275944
 30
0.0
 10
-16.758894
 20
-26.450585
 30
0.0
 10
-16.955764
 20
-25.577361
 30
0.0
 10
-17.167827
 20
-24.682773
 30
0.0
 10
-17.388367
 20
-23.793322
 30
0.0
 10
-17.610671
 20
-22.935507
 30
0.0
 10
-17.828026
 20
-22.135802
 30
0.0
 10
-18.033720
 20
-21.420736
 30
0.0
 10
-18.221040
 20
-20.816780
 30
0.0
 10
-18.327631
 20
-20.489854
 30
0.0
 10
-18.434222
 20
-20.162900
 30
0.0
 10
-18.540814
 20
-19.835973
 30
0.0
 10
-18.647405
 20
-19.509047
 30
0.0
 10
-18.753996
 20
-19.182093
 30
0.0
 10
-18.860587
 20
-18.855167
 30
0.0
 10
-18.967179
 20
-18.528212
 30
0.0
 10
-19.073770
 20
-18.201286
 30
0.0
 10
-18.913228
 20
-17.995461
 30
0.0
 10
-18.752687
 20
-17.789665
 30
0.0
 10
-18.592146
 20
-17.583868
 30
0.0
 10
-18.431604
 20
-17.378044
 30
0.0
 10
-18.271063
 20
-17.172219
 30
0.0
 10
-18.110521
 20
-16.966423
 30
0.0
 10
-17.949980
 20
-16.760626
 30
0.0
 10
-17.789438
 20
-16.554801
 30
0.0
 10
-17.467927
 20
-16.143971
 30
0.0
 10
-17.045235
 20
-15.605745
 30
0.0
 10
-16.539394
 20
-14.962983
 30
0.0
 10
-15.968436
 20
-14.238519
 30
0.0
 10
-15.350391
 20
-13.455239
 30
0.0
 10
-14.703290
 20
-12.635977
 30
0.0
 10
-14.045165
 20
-11.803562
 30
0.0
 10
-13.394048
 20
-10.980913
 30
0.0
 10
-13.005234
 20
-10.489846
 30
0.0
 10
-12.616421
 20
-9.998779
 30
0.0
 10
-12.227607
 20
-9.507713
 30
0.0
 10
-11.838794
 20
-9.016646
 30
0.0
 10
-11.449980
 20
-8.525607
 30
0.0
 10
-11.061167
 20
-8.034541
 30
0.0
 10
-10.672353
 20
-7.543474
 30
0.0
 10
-10.283540
 20
-7.052407
 30
0.0
 10
-10.459998
 20
-6.732904
 30
0.0
 10
-10.636455
 20
-6.413400
 30
0.0
 10
-10.812913
 20
-6.093896
 30
0.0
 10
-10.989371
 20
-5.774421
 30
0.0
 10
-11.165829
 20
-5.454917
 30
0.0
 10
-11.342287
 20
-5.135413
 30
0.0
 10
-11.518744
 20
-4.815909
 30
0.0
 10
-11.695202
 20
-4.496405
 30
0.0
 10
-12.841004
 20
-2.578141
 30
0.0
 10
-14.260203
 20
-0.437824
 30
0.0
 10
-15.837918
 20
1.777282
 30
0.0
 10
-17.459269
 20
3.919856
 30
0.0
 10
-19.009374
 20
5.842693
 30
0.0
 10
-20.373353
 20
7.398499
 30
0.0
 10
-21.436324
 20
8.439956
 30
0.0
 10
-22.083405
 20
8.819855
 30
0.0
 10
-22.298325
 20
8.770494
 30
0.0
 10
-22.748742
 20
8.629073
 30
0.0
 10
-23.406920
 20
8.405468
 30
0.0
 10
-24.245126
 20
8.109615
 30
0.0
 10
-25.235622
 20
7.751446
 30
0.0
 10
-26.350675
 20
7.340898
 30
0.0
 10
-27.562549
 20
6.887846
 30
0.0
 10
-28.843509
 20
6.402227
 30
0.0
 10
-29.635193
 20
6.100079
 30
0.0
 10
-30.426874
 20
5.797961
 30
0.0
 10
-31.218559
 20
5.495813
 30
0.0
 10
-32.010243
 20
5.193666
 30
0.0
 10
-32.801924
 20
4.891547
 30
0.0
 10
-33.593608
 20
4.589400
 30
0.0
 10
-34.385290
 20
4.287281
 30
0.0
 10
-35.176974
 20
3.985134
 30
0.0
 10
-35.575432
 20
4.259991
 30
0.0
 10
-35.973893
 20
4.534847
 30
0.0
 10
-36.372351
 20
4.809675
 30
0.0
 10
-36.770812
 20
5.084531
 30
0.0
 10
-37.169271
 20
5.359387
 30
0.0
 10
-37.567732
 20
5.634215
 30
0.0
 10
-37.966190
 20
5.909071
 30
0.0
 10
-38.364651
 20
6.183928
 30
0.0
 10
-39.055715
 20
6.651062
 30
0.0
 10
-39.798439
 20
7.136033
 30
0.0
 10
-40.569566
 20
7.624616
 30
0.0
 10
-41.345835
 20
8.102757
 30
0.0
 10
-42.103994
 20
8.556288
 30
0.0
 10
-42.820782
 20
8.971098
 30
0.0
 10
-43.472938
 20
9.333020
 30
0.0
 10
-44.037208
 20
9.627942
 30
0.0
 10
-44.347886
 20
9.783531
 30
0.0
 10
-44.658565
 20
9.939092
 30
0.0
 10
-44.969244
 20
10.094681
 30
0.0
 10
-45.279922
 20
10.250242
 30
0.0
 10
-45.590601
 20
10.405831
 30
0.0
 10
-45.901280
 20
10.561420
 30
0.0
 10
-46.211958
 20
10.716981
 30
0.0
 10
-46.522637
 20
10.872570
 30
0.0
 10
-46.621717
 20
11.745625
 30
0.0
 10
-46.720800
 20
12.618679
 30
0.0
 10
-46.819879
 20
13.491733
 30
0.0
 10
-46.918959
 20
14.364788
 30
0.0
 10
-47.018042
 20
15.237854
 30
0.0
 10
-47.117121
 20
16.110911
 30
0.0
 10
-47.216204
 20
16.983965
 30
0.0
 10
-47.315284
 20
17.857023
 30
0.0
 10
-47.476763
 20
19.262331
 30
0.0
 10
-47.631754
 20
20.577698
 30
0.0
 10
-47.776559
 20
21.774027
 30
0.0
 10
-47.907476
 20
22.822220
 30
0.0
 10
-48.020803
 20
23.693183
 30
0.0
 10
-48.112830
 20
24.357817
 30
0.0
 10
-48.179855
 20
24.787026
 30
0.0
 10
-48.218175
 20
24.951714
 30
0.0
 10
-48.309186
 20
24.991324
 30
0.0
 10
-48.527245
 20
25.062060
 30
0.0
 10
-48.858054
 20
25.159952
 30
0.0
 10
-49.287317
 20
25.281036
 30
0.0
 10
-49.800739
 20
25.421346
 30
0.0
 10
-50.384016
 20
25.576921
 30
0.0
 10
-51.022854
 20
25.743793
 30
0.0
 10
-51.702959
 20
25.917995
 30
0.0
 10
-53.443525
 20
26.331261
 30
0.0
 10
-55.247867
 20
26.707029
 30
0.0
 10
-57.077062
 20
27.039707
 30
0.0
 10
-58.892194
 20
27.323704
 30
0.0
 10
-60.654339
 20
27.553425
 30
0.0
 10
-62.324575
 20
27.723280
 30
0.0
 10
-63.863982
 20
27.827677
 30
0.0
 10
-65.233573
 20
27.860872
 30
0.0
  0
LWPOLYLINE
  5
103
100
AcDbEntity
  8
Layer_1
 62
7
100
AcDbPolyline
 90
33
 70
1
 10
-68.393688
 20
-12.204219
 30
0.0
 10
-63.274702
 20
-12.720262
 30
0.0
 10
-58.506862
 20
-14.200264
 30
0.0
 10
-54.192305
 20
-16.542144
 30
0.0
 10
-50.433176
 20
-19.643710
 30
0.0
 10
-47.331610
 20
-23.402825
 30
0.0
 10
-44.989747
 20
-27.717382
 30
0.0
 10
-43.509726
 20
-32.485244
 30
0.0
 10
-42.993688
 20
-37.604219
 30
0.0
 10
-43.509726
 20
-42.723194
 30
0.0
 10
-44.989747
 20
-47.491056
 30
0.0
 10
-47.331610
 20
-51.805613
 30
0.0
 10
-50.433176
 20
-55.564728
 30
0.0
 10
-54.192305
 20
-58.666294
 30
0.0
 10
-58.506862
 20
-61.008174
 30
0.0
 10
-63.274702
 20
-62.488176
 30
0.0
 10
-68.393688
 20
-63.004219
 30
0.0
 10
-73.512674
 20
-62.488176
 30
0.0
 10
-78.280514
 20
-61.008174
 30
0.0
 10
-82.595071
 20
-58.666294
 30
0.0
 10
-86.354200
 20
-55.564728
 30
0.0
 10
-89.455766
 20
-51.805613
 30
0.0
 10
-91.797629
 20
-47.491056
 30
0.0
 10
-93.277650
 20
-42.723194
 30
0.0
 10
-93.793688
 20
-37.604219
 30
0.0
 10
-93.277650
 20
-32.485244
 30
0.0
 10
-91.797629
 20
-27.717382
 30
0.0
 10
-89.455766
 20
-23.402825
 30
0.0
 10
-86.354200
 20
-19.643710
 30
0.0
 10
-82.595071
 20
-16.542144
 30
0.0
 10
-78.280514
 20
-14.200264
 30
0.0
 10
-73.512674
 20
-12.720262
 30
0.0
 10
-68.393688
 20
-12.204219
 30
0.0
  0
ENDSEC
  0
SECTION
  2
OBJECTS
  0
DICTIONARY
  5
C
330
0
100
AcDbDictionary
  3
ACAD_GROUP
350
D
  3
ACAD_MLINESTYLE
350
17
  0
DICTIONARY
  5
D
330
C
100
AcDbDictionary
  0
DICTIONARY
  5
1A
330
C
100
AcDbDictionary
  0
DICTIONARY
  5
17
330
C
100
AcDbDictionary
  3
STANDARD
350
18
  0
DICTIONARY
  5
19
330
C
100
AcDbDictionary
  0
ENDSEC
  0
EOF
