  0
SECTION
  2
HEADER
  9
$ACADVER
  1
AC1014
  9
$HANDSEED
  5
FFFF
  9
$MEASUREMENT
 70
     1
  0
ENDSEC
  0
SECTION
  2
TABLES
  0
TABLE
  2
VPORT
  5
8
330
0
100
AcDbSymbolTable
 70
     4
  0
VPORT
  5
2E
330
8
100
AcDbSymbolTableRecord
100
AcDbViewportTableRecord
  2
*ACTIVE
 70
     0
 10
0.0
 20
0.0
 11
1.0
 21
1.0
 12
210.0
 22
148.5
 13
0.0
 23
0.0
 14
10.0
 24
10.0
 15
10.0
 25
10.0
 16
0.0
 26
0.0
 36
1.0
 17
0.0
 27
0.0
 37
0.0
 40
341.0
 41
1.24
 42
50.0
 43
0.0
 44
0.0
 50
0.0
 51
0.0
 71
     0
 72
   100
 73
     1
 74
     3
 75
     0
 76
     0
 77
     0
 78
     0
  0
ENDTAB
  0
TABLE
  2
LTYPE
  5
5
330
0
100
AcDbSymbolTable
 70
     1
  0
LTYPE
  5
14
330
5
100
AcDbSymbolTableRecord
100
AcDbLinetypeTableRecord
  2
BYBLOCK
 70
     0
  3

 72
    65
 73
     0
 40
0.0
  0
LTYPE
  5
15
330
5
100
AcDbSymbolTableRecord
100
AcDbLinetypeTableRecord
  2
BYLAYER
 70
     0
  3

 72
    65
 73
     0
 40
0.0
  0
LTYPE
  5
16
330
5
100
AcDbSymbolTableRecord
100
AcDbLinetypeTableRecord
  2
CONTINUOUS
 70
     0
  3
Solid line
 72
    65
 73
     0
 40
0.0
  0
ENDTAB
  0
TABLE
  2
LAYER
  5
2
100
AcDbSymbolTable
 70
2
  0
LAYER
  5
50
100
AcDbSymbolTableRecord
100
AcDbLayerTableRecord
  2
0
 70
0
  6
CONTINUOUS
  0
LAYER
  5
51
100
AcDbSymbolTableRecord
100
AcDbLayerTableRecord
  2
Layer_1
 70
0
  6
CONTINUOUS
  0
ENDTAB
  0
TABLE
  2
STYLE
  5
3
330
0
100
AcDbSymbolTable
 70
     1
  0
STYLE
  5
11
330
3
100
AcDbSymbolTableRecord
100
AcDbTextStyleTableRecord
  2
STANDARD
 70
     0
 40
0.0
 41
1.0
 50
0.0
 71
     0
 42
2.5
  3
txt
  4

  0
ENDTAB
  0
TABLE
  2
VIEW
  5
6
330
0
100
AcDbSymbolTable
 70
     0
  0
ENDTAB
  0
TABLE
  2
UCS
  5
7
330
0
100
AcDbSymbolTable
 70
     0
  0
ENDTAB
  0
TABLE
  2
APPID
  5
9
330
0
100
AcDbSymbolTable
 70
     2
  0
APPID
  5
12
330
9
100
AcDbSymbolTableRecord
100
AcDbRegAppTableRecord
  2
ACAD
 70
     0
  0
ENDTAB
  0
TABLE
  2
DIMSTYLE
  5
A
330
0
100
AcDbSymbolTable
 70
     1
  0
DIMSTYLE
105
27
330
A
100
AcDbSymbolTableRecord
100
AcDbDimStyleTableRecord
  2
ISO-25
 70
     0
  3

  4

  5

  6

  7

 40
1.0
 41
2.5
 42
0.625
 43
3.75
 44
1.25
 45
0.0
 46
0.0
 47
0.0
 48
0.0
140
2.5
141
2.5
142
0.0
143
0.03937007874016
144
1.0
145
0.0
146
1.0
147
0.625
 71
     0
 72
     0
 73
     0
 74
     0
 75
     0
 76
     0
 77
     1
 78
     8
170
     0
171
     3
172
     1
173
     0
174
     0
175
     0
176
     0
177
     0
178
     0
270
     2
271
     2
272
     2
273
     2
274
     3
340
11
275
     0
280
     0
281
     0
282
     0
283
     0
284
     8
285
     0
286
     0
287
     3
288
     0
  0
ENDTAB
  0
TABLE
  2
BLOCK_RECORD
  5
1
330
0
100
AcDbSymbolTable
 70
     1
  0
BLOCK_RECORD
  5
1F
330
1
100
AcDbSymbolTableRecord
100
AcDbBlockTableRecord
  2
*MODEL_SPACE
  0
BLOCK_RECORD
  5
1B
330
1
100
AcDbSymbolTableRecord
100
AcDbBlockTableRecord
  2
*PAPER_SPACE
  0
ENDTAB
  0
ENDSEC
  0
SECTION
  2
BLOCKS
  0
BLOCK
  5
20
330
1F
100
AcDbEntity
  8
0
100
AcDbBlockBegin
  2
*MODEL_SPACE
 70
     0
 10
0.0
 20
0.0
 30
0.0
  3
*MODEL_SPACE
  1

  0
ENDBLK
  5
21
330
1F
100
AcDbEntity
  8
0
100
AcDbBlockEnd
  0
BLOCK
  5
1C
330
1B
100
AcDbEntity
 67
     1
  8
0
100
AcDbBlockBegin
  2
*PAPER_SPACE
  1

  0
ENDBLK
  5
1D
330
1B
100
AcDbEntity
 67
     1
  8
0
100
AcDbBlockEnd
  0
ENDSEC
  0
SECTION
  2
ENTITIES
  0
LWPOLYLINE
  5
100
100
AcDbEntity
  8
Layer_1
 62
7
100
AcDbPolyline
 90
673
 70
1
 10
-1.528686
 20
-128.378570
 30
0.0
 10
-2.158365
 20
-127.501931
 30
0.0
 10
-2.864976
 20
-126.016398
 30
0.0
 10
-3.678655
 20
-123.821160
 30
0.0
 10
-4.629537
 20
-120.815437
 30
0.0
 10
-5.747758
 20
-116.898362
 30
0.0
 10
-7.063456
 20
-111.969125
 30
0.0
 10
-8.606767
 20
-105.926889
 30
0.0
 10
-10.407826
 20
-98.670814
 30
0.0
 10
-12.096565
 20
-91.918083
 30
0.0
 10
-13.652262
 20
-85.953345
 30
0.0
 10
-15.082480
 20
-80.751876
 30
0.0
 10
-16.394782
 20
-76.288983
 30
0.0
 10
-17.596733
 20
-72.540000
 30
0.0
 10
-18.695894
 20
-69.480175
 30
0.0
 10
-19.699830
 20
-67.084842
 30
0.0
 10
-20.616103
 20
-65.329278
 30
0.0
 10
-20.924258
 20
-64.861495
 30
0.0
 10
-21.260483
 20
-64.423289
 30
0.0
 10
-21.613495
 20
-64.024791
 30
0.0
 10
-21.972015
 20
-63.676021
 30
0.0
 10
-22.324761
 20
-63.387166
 30
0.0
 10
-22.660451
 20
-63.168331
 30
0.0
 10
-22.967806
 20
-63.029591
 30
0.0
 10
-23.235542
 20
-62.981105
 30
0.0
 10
-23.488162
 20
-63.029111
 30
0.0
 10
-23.775319
 20
-63.165537
 30
0.0
 10
-24.085145
 20
-63.378982
 30
0.0
 10
-24.405769
 20
-63.658156
 30
0.0
 10
-24.725321
 20
-63.991658
 30
0.0
 10
-25.031931
 20
-64.368142
 30
0.0
 10
-25.313729
 20
-64.776208
 30
0.0
 10
-25.558845
 20
-65.204564
 30
0.0
 10
-26.066351
 20
-66.420801
 30
0.0
 10
-26.577972
 20
-68.081397
 30
0.0
 10
-27.086591
 20
-70.148562
 30
0.0
 10
-27.585093
 20
-72.584534
 30
0.0
 10
-28.066367
 20
-75.351498
 30
0.0
 10
-28.523291
 20
-78.411746
 30
0.0
 10
-28.948758
 20
-81.727434
 30
0.0
 10
-29.335643
 20
-85.260771
 30
0.0
 10
-29.747218
 20
-89.314752
 30
0.0
 10
-30.095836
 20
-92.653328
 30
0.0
 10
-30.395579
 20
-95.390715
 30
0.0
 10
-30.660532
 20
-97.641070
 30
0.0
 10
-30.904775
 20
-99.518582
 30
0.0
 10
-31.142401
 20
-101.137436
 30
0.0
 10
-31.387486
 20
-102.611850
 30
0.0
 10
-31.654118
 20
-104.055953
 30
0.0
 10
-32.049929
 20
-105.870049
 30
0.0
 10
-32.467948
 20
-107.309778
 30
0.0
 10
-32.908675
 20
-108.375590
 30
0.0
 10
-33.372597
 20
-109.068078
 30
0.0
 10
-33.860215
 20
-109.387780
 30
0.0
 10
-34.372019
 20
-109.335174
 30
0.0
 10
-34.908507
 20
-108.910824
 30
0.0
 10
-35.470171
 20
-108.115268
 30
0.0
 10
-36.091207
 20
-106.853904
 30
0.0
 10
-36.733494
 20
-105.142650
 30
0.0
 10
-37.404706
 20
-102.950263
 30
0.0
 10
-38.112505
 20
-100.245473
 30
0.0
 10
-38.864560
 20
-96.997011
 30
0.0
 10
-39.668537
 20
-93.173605
 30
0.0
 10
-40.532098
 20
-88.743986
 30
0.0
 10
-41.462918
 20
-83.676912
 30
0.0
 10
-41.626211
 20
-82.766322
 30
0.0
 10
-41.792951
 20
-81.837670
 30
0.0
 10
-41.958469
 20
-80.916920
 30
0.0
 10
-42.118074
 20
-80.030065
 30
0.0
 10
-42.267093
 20
-79.203125
 30
0.0
 10
-42.400847
 20
-78.462038
 30
0.0
 10
-42.514653
 20
-77.832852
 30
0.0
 10
-42.603832
 20
-77.341475
 30
0.0
 10
-42.698224
 20
-76.822073
 30
0.0
 10
-42.826960
 20
-76.112594
 30
0.0
 10
-42.984316
 20
-75.244564
 30
0.0
 10
-43.164568
 20
-74.249617
 30
0.0
 10
-43.361988
 20
-73.159449
 30
0.0
 10
-43.570844
 20
-72.005584
 30
0.0
 10
-43.785417
 20
-70.819686
 30
0.0
 10
-43.999974
 20
-69.633337
 30
0.0
 10
-44.866743
 20
-64.931543
 30
0.0
 10
-45.683339
 20
-60.693101
 30
0.0
 10
-46.452824
 20
-56.904381
 30
0.0
 10
-47.178242
 20
-53.551722
 30
0.0
 10
-47.862654
 20
-50.621550
 30
0.0
 10
-48.509109
 20
-48.100233
 30
0.0
 10
-49.120665
 20
-45.974140
 30
0.0
 10
-49.700372
 20
-44.229668
 30
0.0
 10
-50.055131
 20
-43.276773
 30
0.0
 10
-50.377053
 20
-42.472439
 30
0.0
 10
-50.675994
 20
-41.798803
 30
0.0
 10
-50.961804
 20
-41.238140
 30
0.0
 10
-51.244348
 20
-40.772615
 30
0.0
 10
-51.533470
 20
-40.384475
 30
0.0
 10
-51.839038
 20
-40.055883
 30
0.0
 10
-52.170900
 20
-39.769089
 30
0.0
 10
-52.364668
 20
-39.623519
 30
0.0
 10
-52.531597
 20
-39.513452
 30
0.0
 10
-52.680246
 20
-39.437083
 30
0.0
 10
-52.819181
 20
-39.392633
 30
0.0
 10
-52.956962
 20
-39.378240
 30
0.0
 10
-53.102154
 20
-39.392068
 30
0.0
 10
-53.263320
 20
-39.432313
 30
0.0
 10
-53.449025
 20
-39.497140
 30
0.0
 10
-53.587009
 20
-39.565579
 30
0.0
 10
-53.739867
 20
-39.669352
 30
0.0
 10
-53.902534
 20
-39.803294
 30
0.0
 10
-54.069931
 20
-39.962270
 30
0.0
 10
-54.236990
 20
-40.141171
 30
0.0
 10
-54.398638
 20
-40.334888
 30
0.0
 10
-54.549808
 20
-40.538314
 30
0.0
 10
-54.685427
 20
-40.746284
 30
0.0
 10
-55.170143
 20
-41.636271
 30
0.0
 10
-55.622692
 20
-42.675752
 30
0.0
 10
-56.060693
 20
-43.931726
 30
0.0
 10
-56.501775
 20
-45.471050
 30
0.0
 10
-56.963564
 20
-47.360698
 30
0.0
 10
-57.463684
 20
-49.667638
 30
0.0
 10
-58.019755
 20
-52.458732
 30
0.0
 10
-58.649407
 20
-55.800976
 30
0.0
 10
-59.081777
 20
-58.090166
 30
0.0
 10
-59.487099
 20
-60.128685
 30
0.0
 10
-59.866078
 20
-61.919526
 30
0.0
 10
-60.219421
 20
-63.465624
 30
0.0
 10
-60.547840
 20
-64.769970
 30
0.0
 10
-60.852042
 20
-65.835500
 30
0.0
 10
-61.132734
 20
-66.665206
 30
0.0
 10
-61.390623
 20
-67.261993
 30
0.0
 10
-62.292428
 20
-68.462876
 30
0.0
 10
-63.184377
 20
-68.502444
 30
0.0
 10
-64.073651
 20
-67.356989
 30
0.0
 10
-64.967434
 20
-65.002804
 30
0.0
 10
-65.872910
 20
-61.416211
 30
0.0
 10
-66.797267
 20
-56.573419
 30
0.0
 10
-67.747679
 20
-50.450749
 30
0.0
 10
-68.731333
 20
-43.024494
 30
0.0
 10
-69.210261
 20
-39.165529
 30
0.0
 10
-69.611234
 20
-35.942946
 30
0.0
 10
-69.945772
 20
-33.265532
 30
0.0
 10
-70.225404
 20
-31.042044
 30
0.0
 10
-70.461646
 20
-29.181268
 30
0.0
 10
-70.666034
 20
-27.591990
 30
0.0
 10
-70.850080
 20
-26.182911
 30
0.0
 10
-71.025314
 20
-24.862873
 30
0.0
 10
-71.371835
 20
-22.325724
 30
0.0
 10
-71.731203
 20
-19.795517
 30
0.0
 10
-72.097031
 20
-17.313260
 30
0.0
 10
-72.462929
 20
-14.919930
 30
0.0
 10
-72.822506
 20
-12.656536
 30
0.0
 10
-73.169382
 20
-10.564113
 30
0.0
 10
-73.497169
 20
-8.683666
 30
0.0
 10
-73.799471
 20
-7.056147
 30
0.0
 10
-73.949659
 20
-6.276339
 30
0.0
 10
-74.089774
 20
-5.543718
 30
0.0
 10
-74.216743
 20
-4.874654
 30
0.0
 10
-74.327506
 20
-4.285543
 30
0.0
 10
-74.418994
 20
-3.792811
 30
0.0
 10
-74.488142
 20
-3.412884
 30
0.0
 10
-74.531878
 20
-3.162129
 30
0.0
 10
-74.547146
 20
-3.056973
 30
0.0
 10
-74.641109
 20
-2.707356
 30
0.0
 10
-74.735072
 20
-2.357768
 30
0.0
 10
-74.829035
 20
-2.008179
 30
0.0
 10
-74.923001
 20
-1.658590
 30
0.0
 10
-75.016961
 20
-1.309002
 30
0.0
 10
-75.110927
 20
-0.959385
 30
0.0
 10
-75.204887
 20
-0.609796
 30
0.0
 10
-75.298853
 20
-0.260179
 30
0.0
 10
-75.782257
 20
1.500351
 30
0.0
 10
-76.311689
 20
3.121548
 30
0.0
 10
-76.874537
 20
4.578464
 30
0.0
 10
-77.458195
 20
5.846263
 30
0.0
 10
-78.050057
 20
6.899996
 30
0.0
 10
-78.637514
 20
7.714772
 30
0.0
 10
-79.207961
 20
8.265726
 30
0.0
 10
-79.748792
 20
8.527910
 30
0.0
 10
-80.568684
 20
8.590338
 30
0.0
 10
-81.314835
 20
8.373309
 30
0.0
 10
-82.023610
 20
7.817557
 30
0.0
 10
-82.731384
 20
6.863843
 30
0.0
 10
-83.474529
 20
5.452817
 30
0.0
 10
-84.289420
 20
3.525239
 30
0.0
 10
-85.212422
 20
1.021815
 30
0.0
 10
-86.279908
 20
-2.116722
 30
0.0
 10
-86.981242
 20
-4.211714
 30
0.0
 10
-87.584782
 20
-5.962874
 30
0.0
 10
-88.107593
 20
-7.412452
 30
0.0
 10
-88.566729
 20
-8.602894
 30
0.0
 10
-88.979254
 20
-9.576532
 30
0.0
 10
-89.362229
 20
-10.375701
 30
0.0
 10
-89.732716
 20
-11.042733
 30
0.0
 10
-90.107773
 20
-11.620075
 30
0.0
 10
-91.048967
 20
-12.570035
 30
0.0
 10
-92.036381
 20
-12.817996
 30
0.0
 10
-93.060193
 20
-12.377447
 30
0.0
 10
-94.110584
 20
-11.261766
 30
0.0
 10
-95.177740
 20
-9.484359
 30
0.0
 10
-96.251832
 20
-7.058659
 30
0.0
 10
-97.323049
 20
-3.998043
 30
0.0
 10
-98.381566
 20
-0.316003
 30
0.0
 10
-99.164665
 20
2.865658
 30
0.0
 10
-99.906743
 20
6.292089
 30
0.0
 10
-100.603485
 20
9.936114
 30
0.0
 10
-101.250581
 20
13.770470
 30
0.0
 10
-101.843719
 20
17.767911
 30
0.0
 10
-102.378586
 20
21.901259
 30
0.0
 10
-102.850871
 20
26.143273
 30
0.0
 10
-103.256263
 20
30.466728
 30
0.0
 10
-103.457965
 20
33.531159
 30
0.0
 10
-103.602022
 20
37.159654
 30
0.0
 10
-103.688439
 20
41.133964
 30
0.0
 10
-103.717220
 20
45.235838
 30
0.0
 10
-103.688365
 20
49.247020
 30
0.0
 10
-103.601878
 20
52.949256
 30
0.0
 10
-103.457759
 20
56.124296
 30
0.0
 10
-103.256009
 20
58.553888
 30
0.0
 10
-102.774945
 20
62.171940
 30
0.0
 10
-102.211765
 20
65.435766
 30
0.0
 10
-101.561765
 20
68.359944
 30
0.0
 10
-100.820234
 20
70.959053
 30
0.0
 10
-99.982460
 20
73.247672
 30
0.0
 10
-99.043738
 20
75.240378
 30
0.0
 10
-97.999364
 20
76.951751
 30
0.0
 10
-96.844620
 20
78.396370
 30
0.0
 10
-95.970042
 20
79.240726
 30
0.0
 10
-95.050048
 20
79.920861
 30
0.0
 10
-94.080869
 20
80.437757
 30
0.0
 10
-93.058742
 20
80.792400
 30
0.0
 10
-91.979897
 20
80.985773
 30
0.0
 10
-90.840566
 20
81.018855
 30
0.0
 10
-89.636981
 20
80.892632
 30
0.0
 10
-88.365381
 20
80.608087
 30
0.0
 10
-86.714429
 20
80.031509
 30
0.0
 10
-84.749578
 20
79.152334
 30
0.0
 10
-82.564179
 20
78.026081
 30
0.0
 10
-80.251574
 20
76.708284
 30
0.0
 10
-77.905110
 20
75.254475
 30
0.0
 10
-75.618134
 20
73.720177
 30
0.0
 10
-73.483989
 20
72.160924
 30
0.0
 10
-71.596019
 20
70.632245
 30
0.0
 10
-69.960185
 20
69.164532
 30
0.0
 10
-68.431839
 20
67.664566
 30
0.0
 10
-66.971215
 20
66.082431
 30
0.0
 10
-65.538536
 20
64.368221
 30
0.0
 10
-64.094030
 20
62.472035
 30
0.0
 10
-62.597922
 20
60.343953
 30
0.0
 10
-61.010436
 20
57.934074
 30
0.0
 10
-59.291804
 20
55.192491
 30
0.0
 10
-58.043298
 20
53.194239
 30
0.0
 10
-56.969409
 20
51.558109
 30
0.0
 10
-56.031105
 20
50.239353
 30
0.0
 10
-55.189351
 20
49.193209
 30
0.0
 10
-54.405121
 20
48.374928
 30
0.0
 10
-53.639379
 20
47.739750
 30
0.0
 10
-52.853096
 20
47.242920
 30
0.0
 10
-52.007239
 20
46.839690
 30
0.0
 10
-51.047726
 20
46.503605
 30
0.0
 10
-50.081236
 20
46.295862
 30
0.0
 10
-49.103531
 20
46.216947
 30
0.0
 10
-48.110374
 20
46.267346
 30
0.0
 10
-47.097529
 20
46.447550
 30
0.0
 10
-46.060758
 20
46.758043
 30
0.0
 10
-44.995823
 20
47.199314
 30
0.0
 10
-43.898493
 20
47.771847
 30
0.0
 10
-43.527743
 20
48.038798
 30
0.0
 10
-43.156993
 20
48.305755
 30
0.0
 10
-42.786244
 20
48.572706
 30
0.0
 10
-42.415494
 20
48.839660
 30
0.0
 10
-42.044744
 20
49.106614
 30
0.0
 10
-41.673992
 20
49.373566
 30
0.0
 10
-41.303245
 20
49.640520
 30
0.0
 10
-40.932495
 20
49.907474
 30
0.0
 10
-39.823091
 20
50.898771
 30
0.0
 10
-38.700479
 20
52.065119
 30
0.0
 10
-37.589674
 20
53.371794
 30
0.0
 10
-36.515695
 20
54.784068
 30
0.0
 10
-35.503556
 20
56.267222
 30
0.0
 10
-34.578282
 20
57.786528
 30
0.0
 10
-33.764889
 20
59.307268
 30
0.0
 10
-33.088402
 20
60.794715
 30
0.0
 10
-32.986545
 20
61.042565
 30
0.0
 10
-32.884683
 20
61.290416
 30
0.0
 10
-32.782826
 20
61.538266
 30
0.0
 10
-32.680969
 20
61.786119
 30
0.0
 10
-32.579110
 20
62.033967
 30
0.0
 10
-32.477250
 20
62.281817
 30
0.0
 10
-32.375393
 20
62.529671
 30
0.0
 10
-32.273534
 20
62.777521
 30
0.0
 10
-32.251944
 20
63.543054
 30
0.0
 10
-32.230325
 20
64.308588
 30
0.0
 10
-32.208735
 20
65.074121
 30
0.0
 10
-32.187117
 20
65.839655
 30
0.0
 10
-32.165527
 20
66.605188
 30
0.0
 10
-32.143909
 20
67.370721
 30
0.0
 10
-32.122319
 20
68.136255
 30
0.0
 10
-32.100701
 20
68.901788
 30
0.0
 10
-32.047045
 20
70.662434
 30
0.0
 10
-31.992581
 20
72.102310
 30
0.0
 10
-31.933004
 20
73.270103
 30
0.0
 10
-31.864009
 20
74.214500
 30
0.0
 10
-31.781287
 20
74.984191
 30
0.0
 10
-31.680523
 20
75.627858
 30
0.0
 10
-31.557412
 20
76.194193
 30
0.0
 10
-31.407639
 20
76.731883
 30
0.0
 10
-30.700176
 20
78.748936
 30
0.0
 10
-29.820641
 20
80.731768
 30
0.0
 10
-28.775276
 20
82.671331
 30
0.0
 10
-27.570328
 20
84.558583
 30
0.0
 10
-26.212043
 20
86.384476
 30
0.0
 10
-24.706664
 20
88.139957
 30
0.0
 10
-23.060438
 20
89.815990
 30
0.0
 10
-21.279611
 20
91.403518
 30
0.0
 10
-19.745627
 20
92.633640
 30
0.0
 10
-18.253183
 20
93.723461
 30
0.0
 10
-16.771954
 20
94.689127
 30
0.0
 10
-15.271615
 20
95.546769
 30
0.0
 10
-13.721844
 20
96.312534
 30
0.0
 10
-12.092314
 20
97.002556
 30
0.0
 10
-10.352704
 20
97.632979
 30
0.0
 10
-8.472686
 20
98.219944
 30
0.0
 10
-5.337426
 20
98.972281
 30
0.0
 10
-2.098364
 20
99.439195
 30
0.0
 10
1.224117
 20
99.622117
 30
0.0
 10
4.609636
 20
99.522490
 30
0.0
 10
8.037811
 20
99.141750
 30
0.0
 10
11.488259
 20
98.481327
 30
0.0
 10
14.940599
 20
97.542670
 30
0.0
 10
18.374450
 20
96.327207
 30
0.0
 10
20.734790
 20
95.329207
 30
0.0
 10
22.940709
 20
94.263934
 30
0.0
 10
25.001335
 20
93.125195
 30
0.0
 10
26.925796
 20
91.906817
 30
0.0
 10
28.723220
 20
90.602600
 30
0.0
 10
30.402733
 20
89.206368
 30
0.0
 10
31.973466
 20
87.711925
 30
0.0
 10
33.444544
 20
86.113094
 30
0.0
 10
35.072927
 20
84.050690
 30
0.0
 10
36.532501
 20
81.833431
 30
0.0
 10
37.829829
 20
79.444823
 30
0.0
 10
38.971482
 20
76.868397
 30
0.0
 10
39.964027
 20
74.087664
 30
0.0
 10
40.814024
 20
71.086146
 30
0.0
 10
41.528043
 20
67.847364
 30
0.0
 10
42.112652
 20
64.354836
 30
0.0
 10
42.544509
 20
61.365402
 30
0.0
 10
42.893087
 20
58.976998
 30
0.0
 10
43.169933
 20
57.116739
 30
0.0
 10
43.386601
 20
55.711740
 30
0.0
 10
43.554639
 20
54.689103
 30
0.0
 10
43.685593
 20
53.975952
 30
0.0
 10
43.791017
 20
53.499395
 30
0.0
 10
43.882460
 20
53.186546
 30
0.0
 10
43.913648
 20
53.096379
 30
0.0
 10
43.944834
 20
53.006209
 30
0.0
 10
43.976022
 20
52.916041
 30
0.0
 10
44.007210
 20
52.825874
 30
0.0
 10
44.038399
 20
52.735704
 30
0.0
 10
44.069587
 20
52.645537
 30
0.0
 10
44.100773
 20
52.555367
 30
0.0
 10
44.131961
 20
52.465200
 30
0.0
 10
44.188905
 20
52.313110
 30
0.0
 10
44.245849
 20
52.161021
 30
0.0
 10
44.302787
 20
52.008931
 30
0.0
 10
44.359731
 20
51.856842
 30
0.0
 10
44.416675
 20
51.704752
 30
0.0
 10
44.473616
 20
51.552663
 30
0.0
 10
44.530560
 20
51.400573
 30
0.0
 10
44.587501
 20
51.248483
 30
0.0
 10
45.441926
 20
50.041758
 30
0.0
 10
46.488974
 20
49.319009
 30
0.0
 10
47.708597
 20
49.073837
 30
0.0
 10
49.080728
 20
49.299858
 30
0.0
 10
50.585319
 20
49.990670
 30
0.0
 10
52.202309
 20
51.139887
 30
0.0
 10
53.911638
 20
52.741114
 30
0.0
 10
55.693254
 20
54.787962
 30
0.0
 10
58.548490
 20
58.526168
 30
0.0
 10
61.494024
 20
62.694751
 30
0.0
 10
64.494870
 20
67.235856
 30
0.0
 10
67.516045
 20
72.091633
 30
0.0
 10
70.522569
 20
77.204233
 30
0.0
 10
73.479465
 20
82.515804
 30
0.0
 10
76.351742
 20
87.968493
 30
0.0
 10
79.104428
 20
93.504451
 30
0.0
 10
79.884518
 20
95.093097
 30
0.0
 10
80.626847
 20
96.546959
 30
0.0
 10
81.329101
 20
97.862055
 30
0.0
 10
81.988976
 20
99.034407
 30
0.0
 10
82.604158
 20
100.060030
 30
0.0
 10
83.172345
 20
100.934950
 30
0.0
 10
83.691222
 20
101.655181
 30
0.0
 10
84.158480
 20
102.216747
 30
0.0
 10
85.046653
 20
103.032406
 30
0.0
 10
85.991519
 20
103.605546
 30
0.0
 10
86.989353
 20
103.936279
 30
0.0
 10
88.036423
 20
104.024722
 30
0.0
 10
89.129001
 20
103.870987
 30
0.0
 10
90.263359
 20
103.475185
 30
0.0
 10
91.435772
 20
102.837430
 30
0.0
 10
92.642512
 20
101.957839
 30
0.0
 10
94.805226
 20
99.810405
 30
0.0
 10
96.880796
 20
97.034603
 30
0.0
 10
98.814215
 20
93.759154
 30
0.0
 10
100.550466
 20
90.112781
 30
0.0
 10
102.034532
 20
86.224210
 30
0.0
 10
103.211404
 20
82.222158
 30
0.0
 10
104.026064
 20
78.235351
 30
0.0
 10
104.423498
 20
74.392509
 30
0.0
 10
104.476494
 20
72.694271
 30
0.0
 10
104.449965
 20
71.126222
 30
0.0
 10
104.314950
 20
69.528364
 30
0.0
 10
104.042422
 20
67.740687
 30
0.0
 10
103.603371
 20
65.603192
 30
0.0
 10
102.968792
 20
62.955871
 30
0.0
 10
102.109679
 20
59.638727
 30
0.0
 10
100.997027
 20
55.491754
 30
0.0
 10
100.051509
 20
51.932122
 30
0.0
 10
99.159483
 20
48.431065
 30
0.0
 10
98.306740
 20
44.925749
 30
0.0
 10
97.479084
 20
41.353355
 30
0.0
 10
96.662308
 20
37.651048
 30
0.0
 10
95.842215
 20
33.756003
 30
0.0
 10
95.004599
 20
29.605397
 30
0.0
 10
94.135259
 20
25.136400
 30
0.0
 10
93.326314
 20
20.963155
 30
0.0
 10
92.648397
 20
17.606381
 30
0.0
 10
92.074551
 20
14.964863
 30
0.0
 10
91.577826
 20
12.937407
 30
0.0
 10
91.131269
 20
11.422748
 30
0.0
 10
90.707921
 20
10.319739
 30
0.0
 10
90.280837
 20
9.527146
 30
0.0
 10
89.823056
 20
8.943736
 30
0.0
 10
89.559867
 20
8.714008
 30
0.0
 10
89.266974
 20
8.548230
 30
0.0
 10
88.950955
 20
8.446517
 30
0.0
 10
88.618396
 20
8.408982
 30
0.0
 10
88.275868
 20
8.435793
 30
0.0
 10
87.929960
 20
8.526922
 30
0.0
 10
87.587243
 20
8.682512
 30
0.0
 10
87.254309
 20
8.902730
 30
0.0
 10
86.748812
 20
9.374859
 30
0.0
 10
86.232235
 20
10.031618
 30
0.0
 10
85.686683
 20
10.909725
 30
0.0
 10
85.094259
 20
12.045980
 30
0.0
 10
84.437070
 20
13.477128
 30
0.0
 10
83.697219
 20
15.239973
 30
0.0
 10
82.856812
 20
17.371239
 30
0.0
 10
81.897951
 20
19.907709
 30
0.0
 10
80.957970
 20
22.355904
 30
0.0
 10
80.084572
 20
24.463690
 30
0.0
 10
79.266184
 20
26.251635
 30
0.0
 10
78.491232
 20
27.740315
 30
0.0
 10
77.748144
 20
28.950303
 30
0.0
 10
77.025353
 20
29.902171
 30
0.0
 10
76.311283
 20
30.616492
 30
0.0
 10
75.594365
 20
31.113841
 30
0.0
 10
75.224061
 20
31.279571
 30
0.0
 10
74.825442
 20
31.390004
 30
0.0
 10
74.407220
 20
31.445656
 30
0.0
 10
73.978101
 20
31.447067
 30
0.0
 10
73.546803
 20
31.394700
 30
0.0
 10
73.122031
 20
31.289101
 30
0.0
 10
72.712501
 20
31.130780
 30
0.0
 10
72.326926
 20
30.920257
 30
0.0
 10
71.575462
 20
30.324559
 30
0.0
 10
70.800668
 20
29.491351
 30
0.0
 10
70.016664
 20
28.444807
 30
0.0
 10
69.237558
 20
27.209094
 30
0.0
 10
68.477463
 20
25.808394
 30
0.0
 10
67.750495
 20
24.266871
 30
0.0
 10
67.070769
 20
22.608699
 30
0.0
 10
66.452394
 20
20.858055
 30
0.0
 10
65.353633
 20
17.346443
 30
0.0
 10
64.454967
 20
14.126550
 30
0.0
 10
63.736700
 20
11.075248
 30
0.0
 10
63.179136
 20
8.069384
 30
0.0
 10
62.762576
 20
4.985880
 30
0.0
 10
62.467315
 20
1.701576
 30
0.0
 10
62.273663
 20
-1.906692
 30
0.0
 10
62.161917
 20
-5.962000
 30
0.0
 10
62.130567
 20
-7.439602
 30
0.0
 10
62.091375
 20
-8.845210
 30
0.0
 10
62.045915
 20
-10.146113
 30
0.0
 10
61.995756
 20
-11.309659
 30
0.0
 10
61.942466
 20
-12.303081
 30
0.0
 10
61.887614
 20
-13.093699
 30
0.0
 10
61.832769
 20
-13.648830
 30
0.0
 10
61.779497
 20
-13.935737
 30
0.0
 10
61.719034
 20
-14.078316
 30
0.0
 10
61.643590
 20
-14.219878
 30
0.0
 10
61.556175
 20
-14.356671
 30
0.0
 10
61.459804
 20
-14.485026
 30
0.0
 10
61.357490
 20
-14.601217
 30
0.0
 10
61.252241
 20
-14.701519
 30
0.0
 10
61.147071
 20
-14.782234
 30
0.0
 10
61.044991
 20
-14.839666
 30
0.0
 10
60.497881
 20
-14.944314
 30
0.0
 10
59.879241
 20
-14.770437
 30
0.0
 10
59.159603
 20
-14.285777
 30
0.0
 10
58.309499
 20
-13.458160
 30
0.0
 10
57.299454
 20
-12.255499
 30
0.0
 10
56.099989
 20
-10.645562
 30
0.0
 10
54.681634
 20
-8.596205
 30
0.0
 10
53.014922
 20
-6.075227
 30
0.0
 10
52.331098
 20
-5.029763
 30
0.0
 10
51.653790
 20
-4.004506
 30
0.0
 10
51.000640
 20
-3.025534
 30
0.0
 10
50.389282
 20
-2.118782
 30
0.0
 10
49.837357
 20
-1.310272
 30
0.0
 10
49.362507
 20
-0.626080
 30
0.0
 10
48.982362
 20
-0.092116
 30
0.0
 10
48.714570
 20
0.265544
 30
0.0
 10
48.426347
 20
0.572687
 30
0.0
 10
48.138125
 20
0.879801
 30
0.0
 10
47.849909
 20
1.186943
 30
0.0
 10
47.561686
 20
1.494086
 30
0.0
 10
47.273464
 20
1.801228
 30
0.0
 10
46.985247
 20
2.108342
 30
0.0
 10
46.697025
 20
2.415485
 30
0.0
 10
46.408803
 20
2.722599
 30
0.0
 10
46.060656
 20
3.006656
 30
0.0
 10
45.758182
 20
3.235877
 30
0.0
 10
45.490700
 20
3.415455
 30
0.0
 10
45.247515
 20
3.550696
 30
0.0
 10
45.017936
 20
3.646764
 30
0.0
 10
44.791280
 20
3.708909
 30
0.0
 10
44.556852
 20
3.742353
 30
0.0
 10
44.303970
 20
3.752513
 30
0.0
 10
43.292587
 20
3.491006
 30
0.0
 10
42.452936
 20
2.674932
 30
0.0
 10
41.776198
 20
1.256850
 30
0.0
 10
41.253537
 20
-0.810513
 30
0.0
 10
40.876135
 20
-3.574625
 30
0.0
 10
40.635168
 20
-7.082817
 30
0.0
 10
40.521808
 20
-11.382472
 30
0.0
 10
40.527227
 20
-16.520921
 30
0.0
 10
40.681978
 20
-31.757336
 30
0.0
 10
40.777191
 20
-44.585691
 30
0.0
 10
40.810344
 20
-55.326307
 30
0.0
 10
40.778907
 20
-64.299534
 30
0.0
 10
40.680369
 20
-71.825639
 30
0.0
 10
40.512201
 20
-78.225000
 30
0.0
 10
40.271883
 20
-83.817854
 30
0.0
 10
39.956895
 20
-88.924552
 30
0.0
 10
39.786724
 20
-91.284099
 30
0.0
 10
39.650436
 20
-93.109004
 30
0.0
 10
39.544179
 20
-94.473013
 30
0.0
 10
39.464090
 20
-95.449981
 30
0.0
 10
39.406316
 20
-96.113627
 30
0.0
 10
39.366997
 20
-96.537779
 30
0.0
 10
39.342274
 20
-96.796210
 30
0.0
 10
39.328304
 20
-96.962749
 30
0.0
 10
39.326047
 20
-96.996192
 30
0.0
 10
39.323789
 20
-97.029636
 30
0.0
 10
39.321531
 20
-97.063079
 30
0.0
 10
39.319273
 20
-97.096522
 30
0.0
 10
39.317016
 20
-97.129937
 30
0.0
 10
39.314758
 20
-97.163381
 30
0.0
 10
39.312500
 20
-97.196824
 30
0.0
 10
39.310242
 20
-97.230296
 30
0.0
 10
39.270113
 20
-97.483336
 30
0.0
 10
39.229984
 20
-97.736405
 30
0.0
 10
39.189852
 20
-97.989502
 30
0.0
 10
39.149726
 20
-98.242570
 30
0.0
 10
39.109596
 20
-98.495667
 30
0.0
 10
39.069464
 20
-98.748736
 30
0.0
 10
39.029338
 20
-99.001804
 30
0.0
 10
38.989206
 20
-99.254873
 30
0.0
 10
38.721648
 20
-100.878102
 30
0.0
 10
38.425670
 20
-102.541774
 30
0.0
 10
38.109477
 20
-104.178522
 30
0.0
 10
37.781255
 20
-105.720895
 30
0.0
 10
37.449207
 20
-107.101554
 30
0.0
 10
37.121521
 20
-108.253105
 30
0.0
 10
36.806398
 20
-109.108126
 30
0.0
 10
36.512029
 20
-109.599249
 30
0.0
 10
36.244234
 20
-109.820285
 30
0.0
 10
36.004607
 20
-109.871029
 30
0.0
 10
35.775632
 20
-109.712589
 30
0.0
 10
35.539784
 20
-109.306161
 30
0.0
 10
35.279553
 20
-108.612910
 30
0.0
 10
34.977411
 20
-107.593975
 30
0.0
 10
34.615842
 20
-106.210522
 30
0.0
 10
34.177334
 20
-104.423745
 30
0.0
 10
33.731556
 20
-102.598360
 30
0.0
 10
33.310726
 20
-100.921565
 30
0.0
 10
32.914014
 20
-99.390368
 30
0.0
 10
32.540600
 20
-98.001722
 30
0.0
 10
32.189651
 20
-96.752691
 30
0.0
 10
31.860352
 20
-95.640227
 30
0.0
 10
31.551872
 20
-94.661340
 30
0.0
 10
31.263384
 20
-93.813064
 30
0.0
 10
31.163345
 20
-93.528641
 30
0.0
 10
31.066218
 20
-93.246644
 30
0.0
 10
30.974400
 20
-92.974441
 30
0.0
 10
30.890289
 20
-92.719397
 30
0.0
 10
30.816282
 20
-92.488849
 30
0.0
 10
30.754774
 20
-92.290221
 30
0.0
 10
30.708168
 20
-92.130822
 30
0.0
 10
30.678854
 20
-92.018018
 30
0.0
 10
30.656389
 20
-91.926776
 30
0.0
 10
30.629380
 20
-91.829155
 30
0.0
 10
30.598844
 20
-91.728204
 30
0.0
 10
30.565812
 20
-91.626914
 30
0.0
 10
30.531311
 20
-91.528362
 30
0.0
 10
30.496366
 20
-91.435540
 30
0.0
 10
30.462000
 20
-91.351466
 30
0.0
 10
30.429237
 20
-91.279217
 30
0.0
 10
30.374497
 20
-91.159554
 30
0.0
 10
30.277161
 20
-90.939590
 30
0.0
 10
30.142668
 20
-90.631912
 30
0.0
 10
29.976459
 20
-90.249049
 30
0.0
 10
29.783972
 20
-89.803590
 30
0.0
 10
29.570643
 20
-89.308064
 30
0.0
 10
29.341911
 20
-88.775031
 30
0.0
 10
29.103216
 20
-88.217106
 30
0.0
 10
27.770172
 20
-85.248805
 30
0.0
 10
26.368247
 20
-82.435868
 30
0.0
 10
24.875627
 20
-79.744766
 30
0.0
 10
23.270495
 20
-77.141859
 30
0.0
 10
21.531037
 20
-74.593533
 30
0.0
 10
19.635436
 20
-72.066205
 30
0.0
 10
17.561877
 20
-69.526290
 30
0.0
 10
15.288545
 20
-66.940118
 30
0.0
 10
14.361307
 20
-65.950450
 30
0.0
 10
13.457822
 20
-65.047000
 30
0.0
 10
12.588480
 20
-64.238236
 30
0.0
 10
11.763670
 20
-63.532652
 30
0.0
 10
10.993782
 20
-62.938659
 30
0.0
 10
10.289204
 20
-62.464751
 30
0.0
 10
9.660327
 20
-62.119424
 30
0.0
 10
9.117539
 20
-61.911144
 30
0.0
 10
8.399153
 20
-61.771162
 30
0.0
 10
7.713507
 20
-61.756768
 30
0.0
 10
7.060634
 20
-61.868020
 30
0.0
 10
6.440573
 20
-62.104861
 30
0.0
 10
5.853359
 20
-62.467235
 30
0.0
 10
5.299030
 20
-62.955169
 30
0.0
 10
4.777620
 20
-63.568607
 30
0.0
 10
4.289166
 20
-64.307578
 30
0.0
 10
3.233096
 20
-66.493276
 30
0.0
 10
2.374755
 20
-69.226090
 30
0.0
 10
1.698557
 20
-72.681619
 30
0.0
 10
1.188913
 20
-77.035433
 30
0.0
 10
0.830238
 20
-82.463074
 30
0.0
 10
0.606943
 20
-89.140170
 30
0.0
 10
0.503442
 20
-97.242262
 30
0.0
 10
0.504148
 20
-106.944892
 30
0.0
 10
0.521222
 20
-111.557109
 30
0.0
 10
0.526362
 20
-115.375435
 30
0.0
 10
0.518532
 20
-118.476605
 30
0.0
 10
0.496699
 20
-120.937442
 30
0.0
 10
0.459830
 20
-122.834737
 30
0.0
 10
0.406891
 20
-124.245199
 30
0.0
 10
0.336848
 20
-125.245705
 30
0.0
 10
0.248668
 20
-125.912992
 30
0.0
 10
0.078155
 20
-126.715773
 30
0.0
 10
-0.109454
 20
-127.380519
 30
0.0
 10
-0.312987
 20
-127.905537
 30
0.0
 10
-0.531273
 20
-128.289246
 30
0.0
 10
-0.763143
 20
-128.529982
 30
0.0
 10
-1.007425
 20
-128.626163
 30
0.0
 10
-1.262950
 20
-128.576153
 30
0.0
 10
-1.528546
 20
-128.378316
 30
0.0
 10
-1.528550
 20
-128.378316
 30
0.0
 10
-1.528553
 20
-128.378316
 30
0.0
 10
-1.528557
 20
-128.378316
 30
0.0
 10
-1.528560
 20
-128.378316
 30
0.0
 10
-1.528564
 20
-128.378316
 30
0.0
 10
-1.528567
 20
-128.378316
 30
0.0
 10
-1.528571
 20
-128.378316
 30
0.0
 10
-1.528686
 20
-128.378570
 30
0.0
  0
LWPOLYLINE
  5
101
100
AcDbEntity
  8
Layer_1
 62
7
100
AcDbPolyline
 90
209
 70
1
 10
11.823935
 20
5.245242
 30
0.0
 10
12.464619
 20
7.816992
 30
0.0
 10
13.129405
 20
10.483936
 30
0.0
 10
13.813949
 20
13.228660
 30
0.0
 10
14.513908
 20
16.033808
 30
0.0
 10
15.224939
 20
18.881935
 30
0.0
 10
15.942699
 20
21.755652
 30
0.0
 10
16.662844
 20
24.637547
 30
0.0
 10
17.381033
 20
27.510219
 30
0.0
 10
17.750013
 20
28.987661
 30
0.0
 10
18.110271
 20
30.433824
 30
0.0
 10
18.452775
 20
31.812214
 30
0.0
 10
18.768495
 20
33.086321
 30
0.0
 10
19.048399
 20
34.219646
 30
0.0
 10
19.283455
 20
35.175682
 30
0.0
 10
19.464630
 20
35.917932
 30
0.0
 10
19.582895
 20
36.409891
 30
0.0
 10
19.633689
 20
36.624831
 30
0.0
 10
19.684484
 20
36.839769
 30
0.0
 10
19.735278
 20
37.054704
 30
0.0
 10
19.786072
 20
37.269644
 30
0.0
 10
19.836866
 20
37.484582
 30
0.0
 10
19.887660
 20
37.699520
 30
0.0
 10
19.938454
 20
37.914454
 30
0.0
 10
19.989249
 20
38.129395
 30
0.0
 10
19.779587
 20
38.613996
 30
0.0
 10
19.569925
 20
39.098597
 30
0.0
 10
19.360263
 20
39.583198
 30
0.0
 10
19.150601
 20
40.067799
 30
0.0
 10
18.940939
 20
40.552400
 30
0.0
 10
18.731277
 20
41.037003
 30
0.0
 10
18.521615
 20
41.521604
 30
0.0
 10
18.311953
 20
42.006205
 30
0.0
 10
17.223954
 20
44.518646
 30
0.0
 10
16.412044
 20
46.389356
 30
0.0
 10
15.833681
 20
47.718183
 30
0.0
 10
15.446319
 20
48.604973
 30
0.0
 10
15.207419
 20
49.149574
 30
0.0
 10
15.074437
 20
49.451840
 30
0.0
 10
15.004834
 20
49.611617
 30
0.0
 10
14.956068
 20
49.728751
 30
0.0
 10
14.947141
 20
49.750679
 30
0.0
 10
14.938214
 20
49.772608
 30
0.0
 10
14.929287
 20
49.794537
 30
0.0
 10
14.920361
 20
49.816465
 30
0.0
 10
14.911434
 20
49.838394
 30
0.0
 10
14.902507
 20
49.860323
 30
0.0
 10
14.893581
 20
49.882251
 30
0.0
 10
14.884654
 20
49.904180
 30
0.0
 10
14.797065
 20
50.085053
 30
0.0
 10
14.709445
 20
50.291042
 30
0.0
 10
14.615181
 20
50.530722
 30
0.0
 10
14.507660
 20
50.812693
 30
0.0
 10
14.380266
 20
51.145534
 30
0.0
 10
14.226386
 20
51.537835
 30
0.0
 10
14.039406
 20
51.998184
 30
0.0
 10
13.812712
 20
52.535171
 30
0.0
 10
13.619348
 20
52.984192
 30
0.0
 10
13.435607
 20
53.410029
 30
0.0
 10
13.265748
 20
53.802871
 30
0.0
 10
13.114035
 20
54.152897
 30
0.0
 10
12.984726
 20
54.450292
 30
0.0
 10
12.882085
 20
54.685239
 30
0.0
 10
12.810372
 20
54.847920
 30
0.0
 10
12.773848
 20
54.928523
 30
0.0
 10
12.740893
 20
54.943029
 30
0.0
 10
12.679389
 20
54.916303
 30
0.0
 10
12.592881
 20
54.851792
 30
0.0
 10
12.484916
 20
54.752964
 30
0.0
 10
12.359039
 20
54.623288
 30
0.0
 10
12.218797
 20
54.466223
 30
0.0
 10
12.067735
 20
54.285240
 30
0.0
 10
11.909400
 20
54.083801
 30
0.0
 10
11.721437
 20
53.837822
 30
0.0
 10
11.485440
 20
53.529189
 30
0.0
 10
11.210912
 20
53.170318
 30
0.0
 10
10.907354
 20
52.773621
 30
0.0
 10
10.584267
 20
52.351518
 30
0.0
 10
10.251155
 20
51.916419
 30
0.0
 10
9.917518
 20
51.480744
 30
0.0
 10
9.592860
 20
51.056903
 30
0.0
 10
9.207836
 20
50.552896
 30
0.0
 10
8.701189
 20
49.887456
 30
0.0
 10
8.094553
 20
49.089111
 30
0.0
 10
7.409559
 20
48.186384
 30
0.0
 10
6.667840
 20
47.207804
 30
0.0
 10
5.891028
 20
46.181889
 30
0.0
 10
5.100755
 20
45.137176
 30
0.0
 10
4.318654
 20
44.102177
 30
0.0
 10
3.562769
 20
43.107064
 30
0.0
 10
2.847631
 20
42.176656
 30
0.0
 10
2.189604
 20
41.331463
 30
0.0
 10
1.605052
 20
40.591993
 30
0.0
 10
1.110340
 20
39.978757
 30
0.0
 10
0.721833
 20
39.512267
 30
0.0
 10
0.455894
 20
39.213035
 30
0.0
 10
0.328887
 20
39.101566
 30
0.0
 10
0.145247
 20
39.221180
 30
0.0
 10
-0.283007
 20
39.584225
 30
0.0
 10
-0.928129
 20
40.164781
 30
0.0
 10
-1.762372
 20
40.936916
 30
0.0
 10
-2.757993
 20
41.874709
 30
0.0
 10
-3.887244
 20
42.952228
 30
0.0
 10
-5.122380
 20
44.143550
 30
0.0
 10
-6.435655
 20
45.422745
 30
0.0
 10
-8.958412
 20
47.891459
 30
0.0
 10
-10.861290
 20
49.751825
 30
0.0
 10
-12.233805
 20
51.089892
 30
0.0
 10
-13.165472
 20
51.991713
 30
0.0
 10
-13.745806
 20
52.543336
 30
0.0
 10
-14.064323
 20
52.830816
 30
0.0
 10
-14.210538
 20
52.940200
 30
0.0
 10
-14.273967
 20
52.957528
 30
0.0
 10
-14.864044
 20
52.312961
 30
0.0
 10
-16.215924
 20
50.611785
 30
0.0
 10
-18.068068
 20
48.202789
 30
0.0
 10
-20.158933
 20
45.434759
 30
0.0
 10
-22.226981
 20
42.656490
 30
0.0
 10
-24.010668
 20
40.216767
 30
0.0
 10
-25.248455
 20
38.464378
 30
0.0
 10
-25.678801
 20
37.748118
 30
0.0
 10
-25.574223
 20
37.524914
 30
0.0
 10
-25.326681
 20
36.955824
 30
0.0
 10
-24.952318
 20
36.079107
 30
0.0
 10
-24.467278
 20
34.933019
 30
0.0
 10
-23.887701
 20
33.555820
 30
0.0
 10
-23.229733
 20
31.985775
 30
0.0
 10
-22.509514
 20
30.261138
 30
0.0
 10
-21.743188
 20
28.420166
 30
0.0
 10
-20.944364
 20
26.498853
 30
0.0
 10
-20.131006
 20
24.543962
 30
0.0
 10
-19.325789
 20
22.609893
 30
0.0
 10
-18.551385
 20
20.751051
 30
0.0
 10
-17.830466
 20
19.021836
 30
0.0
 10
-17.185707
 20
17.476658
 30
0.0
 10
-16.639779
 20
16.169918
 30
0.0
 10
-16.215355
 20
15.156015
 30
0.0
 10
-15.835851
 20
14.250135
 30
0.0
 10
-15.418659
 20
13.253016
 30
0.0
 10
-14.977425
 20
12.197307
 30
0.0
 10
-14.525793
 20
11.115775
 30
0.0
 10
-14.077410
 20
10.041045
 30
0.0
 10
-13.645921
 20
9.005825
 30
0.0
 10
-13.244971
 20
8.042827
 30
0.0
 10
-12.888207
 20
7.184758
 30
0.0
 10
-12.563424
 20
6.410707
 30
0.0
 10
-12.254118
 20
5.688557
 30
0.0
 10
-11.967510
 20
5.034112
 30
0.0
 10
-11.710821
 20
4.463176
 30
0.0
 10
-11.491273
 20
3.991555
 30
0.0
 10
-11.316087
 20
3.635052
 30
0.0
 10
-11.192484
 20
3.409500
 30
0.0
 10
-11.127688
 20
3.330703
 30
0.0
 10
-11.092863
 20
3.338323
 30
0.0
 10
-11.055161
 20
3.359772
 30
0.0
 10
-11.015782
 20
3.393808
 30
0.0
 10
-10.975922
 20
3.438879
 30
0.0
 10
-10.936781
 20
3.493461
 30
0.0
 10
-10.899555
 20
3.556086
 30
0.0
 10
-10.865445
 20
3.625259
 30
0.0
 10
-10.835647
 20
3.699455
 30
0.0
 10
-10.777434
 20
3.842654
 30
0.0
 10
-10.661905
 20
4.109580
 30
0.0
 10
-10.495966
 20
4.484823
 30
0.0
 10
-10.286522
 20
4.953030
 30
0.0
 10
-10.040479
 20
5.498819
 30
0.0
 10
-9.764742
 20
6.106810
 30
0.0
 10
-9.466219
 20
6.761651
 30
0.0
 10
-9.151814
 20
7.447930
 30
0.0
 10
-8.824204
 20
8.163336
 30
0.0
 10
-8.487835
 20
8.901544
 30
0.0
 10
-8.152265
 20
9.641362
 30
0.0
 10
-7.827055
 20
10.361593
 30
0.0
 10
-7.521763
 20
11.040958
 30
0.0
 10
-7.245949
 20
11.658291
 30
0.0
 10
-7.009172
 20
12.192340
 30
0.0
 10
-6.820992
 20
12.621882
 30
0.0
 10
-6.661183
 20
12.985610
 30
0.0
 10
-6.505701
 20
13.330994
 30
0.0
 10
-6.358406
 20
13.650074
 30
0.0
 10
-6.223159
 20
13.934780
 30
0.0
 10
-6.103820
 20
14.177209
 30
0.0
 10
-6.004249
 20
14.369318
 30
0.0
 10
-5.928308
 20
14.503119
 30
0.0
 10
-5.879858
 20
14.570655
 30
0.0
 10
-5.680171
 20
14.461689
 30
0.0
 10
-5.170780
 20
14.089776
 30
0.0
 10
-4.385939
 20
13.482321
 30
0.0
 10
-3.359899
 20
12.666840
 30
0.0
 10
-2.126912
 20
11.670793
 30
0.0
 10
-0.721231
 20
10.521613
 30
0.0
 10
0.822893
 20
9.246815
 30
0.0
 10
2.471208
 20
7.873832
 30
0.0
 10
4.117658
 20
6.498902
 30
0.0
 10
5.656448
 20
5.218572
 30
0.0
 10
7.053700
 20
4.060671
 30
0.0
 10
8.275534
 20
3.053053
 30
0.0
 10
9.288074
 20
2.223574
 30
0.0
 10
10.057440
 20
1.600117
 30
0.0
 10
10.549754
 20
1.210481
 30
0.0
 10
10.731138
 20
1.082578
 30
0.0
 10
10.766231
 20
1.178223
 30
0.0
 10
10.839290
 20
1.429372
 30
0.0
 10
10.945833
 20
1.818924
 30
0.0
 10
11.081378
 20
2.329802
 30
0.0
 10
11.241443
 20
2.944962
 30
0.0
 10
11.421545
 20
3.647300
 30
0.0
 10
11.617202
 20
4.419742
 30
0.0
 10
11.823935
 20
5.245242
 30
0.0
  0
LWPOLYLINE
  5
102
100
AcDbEntity
  8
Layer_1
 62
7
100
AcDbPolyline
 90
73
 70
1
 10
-3.080303
 20
64.317450
 30
0.0
 10
-3.101323
 20
64.393963
 30
0.0
 10
-3.161561
 20
64.548316
 30
0.0
 10
-3.256795
 20
64.771198
 30
0.0
 10
-3.382801
 20
65.053299
 30
0.0
 10
-3.535357
 20
65.385305
 30
0.0
 10
-3.710237
 20
65.757909
 30
0.0
 10
-3.903219
 20
66.161794
 30
0.0
 10
-4.110078
 20
66.587651
 30
0.0
 10
-4.350636
 20
67.079062
 30
0.0
 10
-4.640218
 20
67.670820
 30
0.0
 10
-4.967825
 20
68.340440
 30
0.0
 10
-5.322461
 20
69.065440
 30
0.0
 10
-5.693127
 20
69.823334
 30
0.0
 10
-6.068826
 20
70.591639
 30
0.0
 10
-6.438560
 20
71.347870
 30
0.0
 10
-6.791332
 20
72.069544
 30
0.0
 10
-7.887586
 20
74.312191
 30
0.0
 10
-8.814342
 20
76.207556
 30
0.0
 10
-9.588385
 20
77.789917
 30
0.0
 10
-10.226496
 20
79.093547
 30
0.0
 10
-10.745462
 20
80.152721
 30
0.0
 10
-11.162064
 20
81.001713
 30
0.0
 10
-11.493087
 20
81.674805
 30
0.0
 10
-11.755315
 20
82.206263
 30
0.0
 10
-11.833635
 20
82.364649
 30
0.0
 10
-11.911956
 20
82.523035
 30
0.0
 10
-11.990276
 20
82.681421
 30
0.0
 10
-12.068596
 20
82.839807
 30
0.0
 10
-12.146916
 20
82.998196
 30
0.0
 10
-12.225237
 20
83.156582
 30
0.0
 10
-12.303557
 20
83.314967
 30
0.0
 10
-12.381877
 20
83.473353
 30
0.0
 10
-12.969353
 20
82.473161
 30
0.0
 10
-13.556829
 20
81.472965
 30
0.0
 10
-14.144304
 20
80.472770
 30
0.0
 10
-14.731780
 20
79.472577
 30
0.0
 10
-15.319256
 20
78.472381
 30
0.0
 10
-15.906731
 20
77.472189
 30
0.0
 10
-16.494207
 20
76.471993
 30
0.0
 10
-17.081683
 20
75.471797
 30
0.0
 10
-18.024073
 20
73.863032
 30
0.0
 10
-18.899952
 20
72.359439
 30
0.0
 10
-19.690383
 20
70.994133
 30
0.0
 10
-20.376430
 20
69.800212
 30
0.0
 10
-20.939160
 20
68.810786
 30
0.0
 10
-21.359637
 20
68.058951
 30
0.0
 10
-21.618927
 20
67.577822
 30
0.0
 10
-21.698096
 20
67.400499
 30
0.0
 10
-21.565644
 20
67.366460
 30
0.0
 10
-21.218425
 20
67.295978
 30
0.0
 10
-20.680028
 20
67.193370
 30
0.0
 10
-19.974047
 20
67.062944
 30
0.0
 10
-19.124072
 20
66.909017
 30
0.0
 10
-18.153694
 20
66.735894
 30
0.0
 10
-17.086506
 20
66.547891
 30
0.0
 10
-15.946098
 20
66.349317
 30
0.0
 10
-14.740395
 20
66.140227
 30
0.0
 10
-13.486048
 20
65.922078
 30
0.0
 10
-12.219775
 20
65.701298
 30
0.0
 10
-10.978291
 20
65.484309
 30
0.0
 10
-9.798313
 20
65.277541
 30
0.0
 10
-8.716555
 20
65.087417
 30
0.0
 10
-7.769734
 20
64.920361
 30
0.0
 10
-6.994565
 20
64.782800
 30
0.0
 10
-5.740764
 20
64.560127
 30
0.0
 10
-4.787779
 20
64.394251
 30
0.0
 10
-4.094420
 20
64.280272
 30
0.0
 10
-3.619495
 20
64.213295
 30
0.0
 10
-3.321812
 20
64.188432
 30
0.0
 10
-3.160181
 20
64.200765
 30
0.0
 10
-3.093409
 20
64.245407
 30
0.0
 10
-3.080303
 20
64.317450
 30
0.0
  0
LWPOLYLINE
  5
103
100
AcDbEntity
  8
Layer_1
 62
7
100
AcDbPolyline
 90
57
 70
1
 10
16.490995
 20
64.457539
 30
0.0
 10
17.879154
 20
64.521581
 30
0.0
 10
19.307988
 20
64.585978
 30
0.0
 10
20.736659
 20
64.648993
 30
0.0
 10
22.124327
 20
64.708880
 30
0.0
 10
23.430151
 20
64.763897
 30
0.0
 10
24.613293
 20
64.812304
 30
0.0
 10
25.632913
 20
64.852359
 30
0.0
 10
26.448170
 20
64.882314
 30
0.0
 10
27.131768
 20
64.907968
 30
0.0
 10
27.774048
 20
64.935711
 30
0.0
 10
28.360627
 20
64.964650
 30
0.0
 10
28.877122
 20
64.993911
 30
0.0
 10
29.309153
 20
65.022610
 30
0.0
 10
29.642339
 20
65.049873
 30
0.0
 10
29.862297
 20
65.074821
 30
0.0
 10
29.954643
 20
65.096580
 30
0.0
 10
29.719075
 20
65.820768
 30
0.0
 10
28.995316
 20
67.645668
 30
0.0
 10
27.940121
 20
70.202251
 30
0.0
 10
26.710264
 20
73.121502
 30
0.0
 10
25.462513
 20
76.034399
 30
0.0
 10
24.353632
 20
78.571918
 30
0.0
 10
23.540390
 20
80.365048
 30
0.0
 10
23.179553
 20
81.044761
 30
0.0
 10
23.087498
 20
80.983341
 30
0.0
 10
22.893558
 20
80.807307
 30
0.0
 10
22.609705
 20
80.529002
 30
0.0
 10
22.247910
 20
80.160770
 30
0.0
 10
21.820143
 20
79.714952
 30
0.0
 10
21.338375
 20
79.203893
 30
0.0
 10
20.814578
 20
78.639937
 30
0.0
 10
20.260722
 20
78.035422
 30
0.0
 10
19.706243
 20
77.426604
 30
0.0
 10
19.180653
 20
76.850295
 30
0.0
 10
18.696049
 20
76.319706
 30
0.0
 10
18.264530
 20
75.848048
 30
0.0
 10
17.898193
 20
75.448528
 30
0.0
 10
17.609136
 20
75.134358
 30
0.0
 10
17.409455
 20
74.918746
 30
0.0
 10
17.311250
 20
74.814903
 30
0.0
 10
16.670363
 20
74.132800
 30
0.0
 10
15.481933
 20
72.836302
 30
0.0
 10
13.941061
 20
71.141507
 30
0.0
 10
12.242848
 20
69.264512
 30
0.0
 10
10.582396
 20
67.421406
 30
0.0
 10
9.154805
 20
65.828295
 30
0.0
 10
8.155176
 20
64.701272
 30
0.0
 10
7.778611
 20
64.256433
 30
0.0
 10
7.863791
 20
64.203691
 30
0.0
 10
8.148449
 20
64.171188
 30
0.0
 10
8.676254
 20
64.159927
 30
0.0
 10
9.490878
 20
64.170906
 30
0.0
 10
10.635993
 20
64.205153
 30
0.0
 10
12.155270
 20
64.263666
 30
0.0
 10
14.092380
 20
64.347453
 30
0.0
 10
16.490995
 20
64.457539
 30
0.0
  0
ENDSEC
  0
SECTION
  2
OBJECTS
  0
DICTIONARY
  5
C
330
0
100
AcDbDictionary
  3
ACAD_GROUP
350
D
  3
ACAD_MLINESTYLE
350
17
  0
DICTIONARY
  5
D
330
C
100
AcDbDictionary
  0
DICTIONARY
  5
1A
330
C
100
AcDbDictionary
  0
DICTIONARY
  5
17
330
C
100
AcDbDictionary
  3
STANDARD
350
18
  0
DICTIONARY
  5
19
330
C
100
AcDbDictionary
  0
ENDSEC
  0
EOF
