  0
SECTION
  2
HEADER
  9
$ACADVER
  1
AC1014
  9
$HANDSEED
  5
FFFF
  9
$MEASUREMENT
 70
     1
  0
ENDSEC
  0
SECTION
  2
TABLES
  0
TABLE
  2
VPORT
  5
8
330
0
100
AcDbSymbolTable
 70
     4
  0
VPORT
  5
2E
330
8
100
AcDbSymbolTableRecord
100
AcDbViewportTableRecord
  2
*ACTIVE
 70
     0
 10
0.0
 20
0.0
 11
1.0
 21
1.0
 12
210.0
 22
148.5
 13
0.0
 23
0.0
 14
10.0
 24
10.0
 15
10.0
 25
10.0
 16
0.0
 26
0.0
 36
1.0
 17
0.0
 27
0.0
 37
0.0
 40
341.0
 41
1.24
 42
50.0
 43
0.0
 44
0.0
 50
0.0
 51
0.0
 71
     0
 72
   100
 73
     1
 74
     3
 75
     0
 76
     0
 77
     0
 78
     0
  0
ENDTAB
  0
TABLE
  2
LTYPE
  5
5
330
0
100
AcDbSymbolTable
 70
     1
  0
LTYPE
  5
14
330
5
100
AcDbSymbolTableRecord
100
AcDbLinetypeTableRecord
  2
BYBLOCK
 70
     0
  3

 72
    65
 73
     0
 40
0.0
  0
LTYPE
  5
15
330
5
100
AcDbSymbolTableRecord
100
AcDbLinetypeTableRecord
  2
BYLAYER
 70
     0
  3

 72
    65
 73
     0
 40
0.0
  0
LTYPE
  5
16
330
5
100
AcDbSymbolTableRecord
100
AcDbLinetypeTableRecord
  2
CONTINUOUS
 70
     0
  3
Solid line
 72
    65
 73
     0
 40
0.0
  0
ENDTAB
  0
TABLE
  2
LAYER
  5
2
100
AcDbSymbolTable
 70
2
  0
LAYER
  5
50
100
AcDbSymbolTableRecord
100
AcDbLayerTableRecord
  2
0
 70
0
  6
CONTINUOUS
  0
LAYER
  5
51
100
AcDbSymbolTableRecord
100
AcDbLayerTableRecord
  2
Layer_1
 70
0
  6
CONTINUOUS
  0
ENDTAB
  0
TABLE
  2
STYLE
  5
3
330
0
100
AcDbSymbolTable
 70
     1
  0
STYLE
  5
11
330
3
100
AcDbSymbolTableRecord
100
AcDbTextStyleTableRecord
  2
STANDARD
 70
     0
 40
0.0
 41
1.0
 50
0.0
 71
     0
 42
2.5
  3
txt
  4

  0
ENDTAB
  0
TABLE
  2
VIEW
  5
6
330
0
100
AcDbSymbolTable
 70
     0
  0
ENDTAB
  0
TABLE
  2
UCS
  5
7
330
0
100
AcDbSymbolTable
 70
     0
  0
ENDTAB
  0
TABLE
  2
APPID
  5
9
330
0
100
AcDbSymbolTable
 70
     2
  0
APPID
  5
12
330
9
100
AcDbSymbolTableRecord
100
AcDbRegAppTableRecord
  2
ACAD
 70
     0
  0
ENDTAB
  0
TABLE
  2
DIMSTYLE
  5
A
330
0
100
AcDbSymbolTable
 70
     1
  0
DIMSTYLE
105
27
330
A
100
AcDbSymbolTableRecord
100
AcDbDimStyleTableRecord
  2
ISO-25
 70
     0
  3

  4

  5

  6

  7

 40
1.0
 41
2.5
 42
0.625
 43
3.75
 44
1.25
 45
0.0
 46
0.0
 47
0.0
 48
0.0
140
2.5
141
2.5
142
0.0
143
0.03937007874016
144
1.0
145
0.0
146
1.0
147
0.625
 71
     0
 72
     0
 73
     0
 74
     0
 75
     0
 76
     0
 77
     1
 78
     8
170
     0
171
     3
172
     1
173
     0
174
     0
175
     0
176
     0
177
     0
178
     0
270
     2
271
     2
272
     2
273
     2
274
     3
340
11
275
     0
280
     0
281
     0
282
     0
283
     0
284
     8
285
     0
286
     0
287
     3
288
     0
  0
ENDTAB
  0
TABLE
  2
BLOCK_RECORD
  5
1
330
0
100
AcDbSymbolTable
 70
     1
  0
BLOCK_RECORD
  5
1F
330
1
100
AcDbSymbolTableRecord
100
AcDbBlockTableRecord
  2
*MODEL_SPACE
  0
BLOCK_RECORD
  5
1B
330
1
100
AcDbSymbolTableRecord
100
AcDbBlockTableRecord
  2
*PAPER_SPACE
  0
ENDTAB
  0
ENDSEC
  0
SECTION
  2
BLOCKS
  0
BLOCK
  5
20
330
1F
100
AcDbEntity
  8
0
100
AcDbBlockBegin
  2
*MODEL_SPACE
 70
     0
 10
0.0
 20
0.0
 30
0.0
  3
*MODEL_SPACE
  1

  0
ENDBLK
  5
21
330
1F
100
AcDbEntity
  8
0
100
AcDbBlockEnd
  0
BLOCK
  5
1C
330
1B
100
AcDbEntity
 67
     1
  8
0
100
AcDbBlockBegin
  2
*PAPER_SPACE
  1

  0
ENDBLK
  5
1D
330
1B
100
AcDbEntity
 67
     1
  8
0
100
AcDbBlockEnd
  0
ENDSEC
  0
SECTION
  2
ENTITIES
  0
LWPOLYLINE
  5
100
100
AcDbEntity
  8
Layer_1
 62
7
100
AcDbPolyline
 90
266
 70
0
 10
376.494432
 20
296.710748
 30
0.0
 10
366.743760
 20
301.322036
 30
0.0
 10
356.289392
 20
307.371636
 30
0.0
 10
345.295328
 20
314.730028
 30
0.0
 10
333.925560
 20
323.267700
 30
0.0
 10
322.344080
 20
332.855148
 30
0.0
 10
310.714888
 20
343.362860
 30
0.0
 10
299.201976
 20
354.661324
 30
0.0
 10
287.969344
 20
366.621028
 30
0.0
 10
286.972656
 20
367.726916
 30
0.0
 10
285.975968
 20
368.832804
 30
0.0
 10
284.979280
 20
369.938692
 30
0.0
 10
283.982592
 20
371.044572
 30
0.0
 10
282.985904
 20
372.150460
 30
0.0
 10
281.989216
 20
373.256348
 30
0.0
 10
280.992528
 20
374.362236
 30
0.0
 10
279.995840
 20
375.468124
 30
0.0
 10
279.662056
 20
375.213532
 30
0.0
 10
279.328264
 20
374.958940
 30
0.0
 10
278.994480
 20
374.704348
 30
0.0
 10
278.660688
 20
374.449756
 30
0.0
 10
278.326904
 20
374.195164
 30
0.0
 10
277.993112
 20
373.940572
 30
0.0
 10
277.659328
 20
373.685980
 30
0.0
 10
277.325536
 20
373.431388
 30
0.0
 10
272.728704
 20
370.096308
 30
0.0
 10
267.926024
 20
366.935404
 30
0.0
 10
262.983256
 20
363.982396
 30
0.0
 10
257.966184
 20
361.271004
 30
0.0
 10
252.940600
 20
358.834940
 30
0.0
 10
247.972280
 20
356.707932
 30
0.0
 10
243.127008
 20
354.923684
 30
0.0
 10
238.470560
 20
353.515924
 30
0.0
 10
236.882256
 20
353.101988
 30
0.0
 10
235.387120
 20
352.729220
 30
0.0
 10
234.018824
 20
352.404804
 30
0.0
 10
232.811056
 20
352.135956
 30
0.0
 10
231.797504
 20
351.929868
 30
0.0
 10
231.011832
 20
351.793748
 30
0.0
 10
230.487736
 20
351.734788
 30
0.0
 10
230.258888
 20
351.760228
 30
0.0
 10
230.232328
 20
351.902868
 30
0.0
 10
230.288008
 20
352.179900
 30
0.0
 10
230.418960
 20
352.574956
 30
0.0
 10
230.618208
 20
353.071684
 30
0.0
 10
230.878776
 20
353.653724
 30
0.0
 10
231.193696
 20
354.304724
 30
0.0
 10
231.555992
 20
355.008316
 30
0.0
 10
231.958704
 20
355.748164
 30
0.0
 10
232.923616
 20
357.751692
 30
0.0
 10
233.900048
 20
360.309404
 30
0.0
 10
234.873472
 20
363.364244
 30
0.0
 10
235.829336
 20
366.859164
 30
0.0
 10
236.753096
 20
370.737108
 30
0.0
 10
237.630200
 20
374.941036
 30
0.0
 10
238.446120
 20
379.413892
 30
0.0
 10
239.186296
 20
384.098620
 30
0.0
 10
239.607112
 20
387.086900
 30
0.0
 10
239.915304
 20
389.615692
 30
0.0
 10
240.113936
 20
391.844988
 30
0.0
 10
240.206104
 20
393.934780
 30
0.0
 10
240.194904
 20
396.045052
 30
0.0
 10
240.083384
 20
398.335796
 30
0.0
 10
239.874656
 20
400.966988
 30
0.0
 10
239.571792
 20
404.098620
 30
0.0
 10
239.300536
 20
406.942828
 30
0.0
 10
239.104472
 20
409.442292
 30
0.0
 10
238.983216
 20
411.673564
 30
0.0
 10
238.936416
 20
413.713164
 30
0.0
 10
238.963616
 20
415.637644
 30
0.0
 10
239.064520
 20
417.523524
 30
0.0
 10
239.238728
 20
419.447356
 30
0.0
 10
239.485856
 20
421.485668
 30
0.0
 10
241.655200
 20
432.070524
 30
0.0
 10
245.201664
 20
442.058932
 30
0.0
 10
250.030832
 20
451.336108
 30
0.0
 10
256.048296
 20
459.787268
 30
0.0
 10
263.159648
 20
467.297636
 30
0.0
 10
271.270464
 20
473.752420
 30
0.0
 10
280.286336
 20
479.036852
 30
0.0
 10
290.112856
 20
483.036132
 30
0.0
 10
295.005640
 20
484.422444
 30
0.0
 10
300.067584
 20
485.462468
 30
0.0
 10
305.249792
 20
486.154652
 30
0.0
 10
310.503360
 20
486.497444
 30
0.0
 10
315.779408
 20
486.489284
 30
0.0
 10
321.029040
 20
486.128636
 30
0.0
 10
326.203344
 20
485.413924
 30
0.0
 10
331.253440
 20
484.343612
 30
0.0
 10
334.519480
 20
483.380908
 30
0.0
 10
338.086176
 20
482.078684
 30
0.0
 10
341.826720
 20
480.500092
 30
0.0
 10
345.614352
 20
478.708292
 30
0.0
 10
349.322280
 20
476.766428
 30
0.0
 10
352.823728
 20
474.737660
 30
0.0
 10
355.991904
 20
472.685132
 30
0.0
 10
358.700040
 20
470.672004
 30
0.0
 10
359.344688
 20
470.150012
 30
0.0
 10
359.989344
 20
469.628020
 30
0.0
 10
360.633992
 20
469.106028
 30
0.0
 10
361.278640
 20
468.584036
 30
0.0
 10
361.923288
 20
468.062052
 30
0.0
 10
362.567944
 20
467.540060
 30
0.0
 10
363.212592
 20
467.018068
 30
0.0
 10
363.857240
 20
466.496076
 30
0.0
 10
364.347104
 20
467.028828
 30
0.0
 10
364.836968
 20
467.561572
 30
0.0
 10
365.326832
 20
468.094324
 30
0.0
 10
365.816704
 20
468.627076
 30
0.0
 10
366.306568
 20
469.159828
 30
0.0
 10
366.796432
 20
469.692572
 30
0.0
 10
367.286296
 20
470.225324
 30
0.0
 10
367.776160
 20
470.758076
 30
0.0
 10
369.779008
 20
473.042316
 30
0.0
 10
371.735432
 20
475.475452
 30
0.0
 10
373.601728
 20
477.990852
 30
0.0
 10
375.334184
 20
480.521900
 30
0.0
 10
376.889104
 20
483.001972
 30
0.0
 10
378.222760
 20
485.364428
 30
0.0
 10
379.291464
 20
487.542652
 30
0.0
 10
380.051496
 20
489.470020
 30
0.0
 10
380.467512
 20
490.700412
 30
0.0
 10
380.805472
 20
491.618756
 30
0.0
 10
381.089456
 20
492.248340
 30
0.0
 10
381.343536
 20
492.612484
 30
0.0
 10
381.591800
 20
492.734484
 30
0.0
 10
381.858312
 20
492.637644
 30
0.0
 10
382.167160
 20
492.345252
 30
0.0
 10
382.542424
 20
491.880628
 30
0.0
 10
383.356080
 20
490.669540
 30
0.0
 10
384.215208
 20
489.116372
 30
0.0
 10
385.096952
 20
487.277660
 30
0.0
 10
385.978480
 20
485.209964
 30
0.0
 10
386.836952
 20
482.969812
 30
0.0
 10
387.649536
 20
480.613748
 30
0.0
 10
388.393392
 20
478.198316
 30
0.0
 10
389.045672
 20
475.780068
 30
0.0
 10
390.153408
 20
471.172780
 30
0.0
 10
391.017400
 20
467.069828
 30
0.0
 10
391.666920
 20
463.144428
 30
0.0
 10
392.131256
 20
459.069788
 30
0.0
 10
392.439680
 20
454.519100
 30
0.0
 10
392.621472
 20
449.165588
 30
0.0
 10
392.705904
 20
442.682460
 30
0.0
 10
392.722224
 20
434.742916
 30
0.0
 10
392.657584
 20
426.207388
 30
0.0
 10
392.466008
 20
418.774132
 30
0.0
 10
392.126168
 20
412.247228
 30
0.0
 10
391.616744
 20
406.430756
 30
0.0
 10
390.916424
 20
401.128772
 30
0.0
 10
390.003880
 20
396.145364
 30
0.0
 10
388.857808
 20
391.284596
 30
0.0
 10
387.456880
 20
386.350540
 30
0.0
 10
387.243744
 20
385.651492
 30
0.0
 10
387.030608
 20
384.952444
 30
0.0
 10
386.817472
 20
384.253396
 30
0.0
 10
386.604336
 20
383.554348
 30
0.0
 10
386.391192
 20
382.855308
 30
0.0
 10
386.178056
 20
382.156260
 30
0.0
 10
385.964920
 20
381.457212
 30
0.0
 10
385.751784
 20
380.758164
 30
0.0
 10
385.120544
 20
381.457212
 30
0.0
 10
384.489304
 20
382.156260
 30
0.0
 10
383.858064
 20
382.855308
 30
0.0
 10
383.226824
 20
383.554348
 30
0.0
 10
382.595576
 20
384.253396
 30
0.0
 10
381.964336
 20
384.952444
 30
0.0
 10
381.333096
 20
385.651492
 30
0.0
 10
380.701856
 20
386.350540
 30
0.0
 10
379.061688
 20
388.175340
 30
0.0
 10
377.842528
 20
389.575036
 30
0.0
 10
377.004640
 20
390.629916
 30
0.0
 10
376.508312
 20
391.420300
 30
0.0
 10
376.313816
 20
392.026484
 30
0.0
 10
376.381416
 20
392.528780
 30
0.0
 10
376.671416
 20
393.007492
 30
0.0
 10
377.144072
 20
393.542916
 30
0.0
 10
377.964416
 20
394.538132
 30
0.0
 10
378.657808
 20
395.638212
 30
0.0
 10
379.230048
 20
396.864116
 30
0.0
 10
379.686912
 20
398.236788
 30
0.0
 10
380.034176
 20
399.777180
 30
0.0
 10
380.277632
 20
401.506244
 30
0.0
 10
380.423056
 20
403.444924
 30
0.0
 10
380.476256
 20
405.614180
 30
0.0
 10
380.246152
 20
409.321092
 30
0.0
 10
379.520456
 20
412.681148
 30
0.0
 10
378.291808
 20
415.703692
 30
0.0
 10
376.552832
 20
418.398068
 30
0.0
 10
374.296184
 20
420.773628
 30
0.0
 10
371.514472
 20
422.839724
 30
0.0
 10
368.200352
 20
424.605684
 30
0.0
 10
364.346448
 20
426.080868
 30
0.0
 10
361.567880
 20
426.759460
 30
0.0
 10
357.908952
 20
427.347708
 30
0.0
 10
353.732784
 20
427.823164
 30
0.0
 10
349.402488
 20
428.163372
 30
0.0
 10
345.281184
 20
428.345860
 30
0.0
 10
341.731992
 20
428.348260
 30
0.0
 10
339.118032
 20
428.147964
 30
0.0
 10
337.802408
 20
427.722580
 30
0.0
 10
337.487120
 20
427.041516
 30
0.0
 10
337.060912
 20
425.628956
 30
0.0
 10
336.569928
 20
423.697524
 30
0.0
 10
336.060312
 20
421.459820
 30
0.0
 10
335.578224
 20
419.128476
 30
0.0
 10
335.169800
 20
416.916100
 30
0.0
 10
334.881192
 20
415.035316
 30
0.0
 10
334.758552
 20
413.698732
 30
0.0
 10
334.849280
 20
413.525316
 30
0.0
 10
335.115416
 20
413.278476
 30
0.0
 10
335.538152
 20
412.969700
 30
0.0
 10
336.098696
 20
412.610476
 30
0.0
 10
336.778232
 20
412.212276
 30
0.0
 10
337.557968
 20
411.786604
 30
0.0
 10
338.419096
 20
411.344924
 30
0.0
 10
339.342816
 20
410.898732
 30
0.0
 10
340.761416
 20
410.260004
 30
0.0
 10
342.037936
 20
409.759460
 30
0.0
 10
343.269496
 20
409.380772
 30
0.0
 10
344.553192
 20
409.107580
 30
0.0
 10
345.986160
 20
408.923556
 30
0.0
 10
347.665512
 20
408.812348
 30
0.0
 10
349.688360
 20
408.757628
 30
0.0
 10
352.151824
 20
408.742988
 30
0.0
 10
354.509608
 20
408.733388
 30
0.0
 10
356.367688
 20
408.699308
 30
0.0
 10
357.776240
 20
408.632988
 30
0.0
 10
358.785456
 20
408.526564
 30
0.0
 10
359.445520
 20
408.372188
 30
0.0
 10
359.806608
 20
408.162020
 30
0.0
 10
359.918912
 20
407.888212
 30
0.0
 10
359.832616
 20
407.542932
 30
0.0
 10
359.482408
 20
405.495236
 30
0.0
 10
359.210224
 20
401.495860
 30
0.0
 10
359.021048
 20
396.119052
 30
0.0
 10
358.919872
 20
389.939012
 30
0.0
 10
358.911712
 20
383.529980
 30
0.0
 10
359.001504
 20
377.466180
 30
0.0
 10
359.194256
 20
372.321844
 30
0.0
 10
359.494960
 20
368.671180
 30
0.0
 10
360.835304
 20
360.112756
 30
0.0
 10
362.611016
 20
351.465356
 30
0.0
 10
364.801160
 20
342.793804
 30
0.0
 10
367.384792
 20
334.162940
 30
0.0
 10
370.340992
 20
325.637588
 30
0.0
 10
373.648816
 20
317.282580
 30
0.0
 10
377.287328
 20
309.162756
 30
0.0
 10
381.235608
 20
301.342932
 30
0.0
 10
382.074728
 20
299.741524
 30
0.0
 10
382.791816
 20
298.301468
 30
0.0
 10
383.380432
 20
297.038972
 30
0.0
 10
383.834136
 20
295.970260
 30
0.0
 10
384.146472
 20
295.111548
 30
0.0
 10
384.311000
 20
294.479052
 30
0.0
 10
384.321240
 20
294.088988
 30
0.0
 10
384.170816
 20
293.957572
 30
0.0
 10
383.828616
 20
294.016372
 30
0.0
 10
383.247064
 20
294.179316
 30
0.0
 10
382.457632
 20
294.435068
 30
0.0
 10
381.491816
 20
294.772332
 30
0.0
 10
380.381096
 20
295.179828
 30
0.0
 10
379.156968
 20
295.646252
 30
0.0
 10
377.850904
 20
296.160316
 30
0.0
 10
376.494392
 20
296.710732
 30
0.0
 10
376.494432
 20
296.710748
 30
0.0
  0
LWPOLYLINE
  5
101
100
AcDbEntity
  8
Layer_1
 62
7
100
AcDbPolyline
 90
137
 70
0
 10
217.164056
 20
439.942884
 30
0.0
 10
217.269768
 20
444.808468
 30
0.0
 10
217.593128
 20
449.873948
 30
0.0
 10
218.125512
 20
455.083964
 30
0.0
 10
218.858288
 20
460.383140
 30
0.0
 10
219.782832
 20
465.716116
 30
0.0
 10
220.890496
 20
471.027532
 30
0.0
 10
222.172672
 20
476.262012
 30
0.0
 10
223.620704
 20
481.364188
 30
0.0
 10
228.519672
 20
494.526076
 30
0.0
 10
234.771984
 20
506.294252
 30
0.0
 10
242.370984
 20
516.662996
 30
0.0
 10
251.310016
 20
525.626596
 30
0.0
 10
261.582432
 20
533.179308
 30
0.0
 10
273.181560
 20
539.315428
 30
0.0
 10
286.100752
 20
544.029228
 30
0.0
 10
300.333344
 20
547.314980
 30
0.0
 10
304.781400
 20
547.897404
 30
0.0
 10
310.196616
 20
548.311436
 30
0.0
 10
316.272480
 20
548.557348
 30
0.0
 10
322.702480
 20
548.635428
 30
0.0
 10
329.180112
 20
548.545908
 30
0.0
 10
335.398856
 20
548.289084
 30
0.0
 10
341.052200
 20
547.865228
 30
0.0
 10
345.833640
 20
547.274604
 30
0.0
 10
349.919616
 20
546.573492
 30
0.0
 10
354.039880
 20
545.766356
 30
0.0
 10
358.135056
 20
544.868332
 30
0.0
 10
362.145784
 20
543.894556
 30
0.0
 10
366.012688
 20
542.860156
 30
0.0
 10
369.676400
 20
541.780276
 30
0.0
 10
373.077552
 20
540.670044
 30
0.0
 10
376.156776
 20
539.544596
 30
0.0
 10
379.212944
 20
538.355940
 30
0.0
 10
381.425896
 20
537.432532
 30
0.0
 10
382.841816
 20
536.659876
 30
0.0
 10
383.506848
 20
535.923468
 30
0.0
 10
383.467168
 20
535.108812
 30
0.0
 10
382.768936
 20
534.101396
 30
0.0
 10
381.458328
 20
532.786724
 30
0.0
 10
379.581496
 20
531.050292
 30
0.0
 10
375.702568
 20
527.187172
 30
0.0
 10
371.328672
 20
522.381956
 30
0.0
 10
366.716680
 20
516.962412
 30
0.0
 10
362.123448
 20
511.256324
 30
0.0
 10
357.805856
 20
505.591484
 30
0.0
 10
354.020744
 20
500.295652
 30
0.0
 10
351.025000
 20
495.696628
 30
0.0
 10
349.075480
 20
492.122180
 30
0.0
 10
348.855328
 20
491.683588
 30
0.0
 10
348.615936
 20
491.288924
 30
0.0
 10
348.364960
 20
490.945788
 30
0.0
 10
348.110088
 20
490.661788
 30
0.0
 10
347.858984
 20
490.444516
 30
0.0
 10
347.619320
 20
490.301572
 30
0.0
 10
347.398768
 20
490.240532
 30
0.0
 10
347.205000
 20
490.269012
 30
0.0
 10
345.327848
 20
490.996300
 30
0.0
 10
342.860920
 20
491.846188
 30
0.0
 10
339.999920
 20
492.761260
 30
0.0
 10
336.940536
 20
493.684100
 30
0.0
 10
333.878488
 20
494.557284
 30
0.0
 10
331.009456
 20
495.323404
 30
0.0
 10
328.529160
 20
495.925036
 30
0.0
 10
326.633288
 20
496.304756
 30
0.0
 10
323.516952
 20
496.695572
 30
0.0
 10
319.911080
 20
496.955236
 30
0.0
 10
315.978320
 20
497.086052
 30
0.0
 10
311.881296
 20
497.090052
 30
0.0
 10
307.782648
 20
496.970060
 30
0.0
 10
303.845008
 20
496.728100
 30
0.0
 10
300.231016
 20
496.366476
 30
0.0
 10
297.103312
 20
495.887484
 30
0.0
 10
292.559912
 20
494.880404
 30
0.0
 10
287.995512
 20
493.586836
 30
0.0
 10
283.458376
 20
492.027780
 30
0.0
 10
278.996760
 20
490.224236
 30
0.0
 10
274.658912
 20
488.197220
 30
0.0
 10
270.493088
 20
485.967732
 30
0.0
 10
266.547552
 20
483.556780
 30
0.0
 10
262.870552
 20
480.985372
 30
0.0
 10
262.336512
 20
480.584900
 30
0.0
 10
261.802480
 20
480.184420
 30
0.0
 10
261.268440
 20
479.783948
 30
0.0
 10
260.734408
 20
479.383468
 30
0.0
 10
260.200368
 20
478.982996
 30
0.0
 10
259.666328
 20
478.582524
 30
0.0
 10
259.132296
 20
478.182044
 30
0.0
 10
258.598256
 20
477.781572
 30
0.0
 10
258.670416
 20
478.466636
 30
0.0
 10
258.742576
 20
479.151700
 30
0.0
 10
258.814736
 20
479.836764
 30
0.0
 10
258.886896
 20
480.521828
 30
0.0
 10
258.959056
 20
481.206884
 30
0.0
 10
259.031216
 20
481.891948
 30
0.0
 10
259.103376
 20
482.577012
 30
0.0
 10
259.175536
 20
483.262076
 30
0.0
 10
259.247696
 20
483.947140
 30
0.0
 10
259.319856
 20
484.632204
 30
0.0
 10
259.392016
 20
485.317260
 30
0.0
 10
259.464176
 20
486.002324
 30
0.0
 10
259.536336
 20
486.687388
 30
0.0
 10
259.608496
 20
487.372444
 30
0.0
 10
259.680656
 20
488.057508
 30
0.0
 10
259.752816
 20
488.742572
 30
0.0
 10
259.514688
 20
488.543284
 30
0.0
 10
259.276560
 20
488.344004
 30
0.0
 10
259.038432
 20
488.144716
 30
0.0
 10
258.800296
 20
487.945436
 30
0.0
 10
258.562168
 20
487.746148
 30
0.0
 10
258.324040
 20
487.546860
 30
0.0
 10
258.085912
 20
487.347580
 30
0.0
 10
257.847784
 20
487.148292
 30
0.0
 10
251.017000
 20
481.195604
 30
0.0
 10
244.792024
 20
475.276204
 30
0.0
 10
239.167640
 20
469.383620
 30
0.0
 10
234.138640
 20
463.511396
 30
0.0
 10
229.699792
 20
457.653068
 30
0.0
 10
225.845888
 20
451.802172
 30
0.0
 10
222.571704
 20
445.952244
 30
0.0
 10
219.872040
 20
440.096820
 30
0.0
 10
219.534536
 20
439.277540
 30
0.0
 10
219.197040
 20
438.458260
 30
0.0
 10
218.859536
 20
437.638980
 30
0.0
 10
218.522040
 20
436.819692
 30
0.0
 10
218.184536
 20
436.000412
 30
0.0
 10
217.847032
 20
435.181132
 30
0.0
 10
217.509536
 20
434.361852
 30
0.0
 10
217.172032
 20
433.542572
 30
0.0
 10
217.171232
 20
434.342572
 30
0.0
 10
217.170432
 20
435.142572
 30
0.0
 10
217.169632
 20
435.942572
 30
0.0
 10
217.168832
 20
436.742572
 30
0.0
 10
217.168032
 20
437.542580
 30
0.0
 10
217.167232
 20
438.342580
 30
0.0
 10
217.166432
 20
439.142580
 30
0.0
 10
217.164056
 20
439.942884
 30
0.0
  0
ENDSEC
  0
SECTION
  2
OBJECTS
  0
DICTIONARY
  5
C
330
0
100
AcDbDictionary
  3
ACAD_GROUP
350
D
  3
ACAD_MLINESTYLE
350
17
  0
DICTIONARY
  5
D
330
C
100
AcDbDictionary
  0
DICTIONARY
  5
1A
330
C
100
AcDbDictionary
  0
DICTIONARY
  5
17
330
C
100
AcDbDictionary
  3
STANDARD
350
18
  0
DICTIONARY
  5
19
330
C
100
AcDbDictionary
  0
ENDSEC
  0
EOF
