  0
SECTION
  2
HEADER
  9
$ACADVER
  1
AC1014
  9
$HANDSEED
  5
FFFF
  9
$MEASUREMENT
 70
     1
  0
ENDSEC
  0
SECTION
  2
TABLES
  0
TABLE
  2
VPORT
  5
8
330
0
100
AcDbSymbolTable
 70
     4
  0
VPORT
  5
2E
330
8
100
AcDbSymbolTableRecord
100
AcDbViewportTableRecord
  2
*ACTIVE
 70
     0
 10
0.0
 20
0.0
 11
1.0
 21
1.0
 12
210.0
 22
148.5
 13
0.0
 23
0.0
 14
10.0
 24
10.0
 15
10.0
 25
10.0
 16
0.0
 26
0.0
 36
1.0
 17
0.0
 27
0.0
 37
0.0
 40
341.0
 41
1.24
 42
50.0
 43
0.0
 44
0.0
 50
0.0
 51
0.0
 71
     0
 72
   100
 73
     1
 74
     3
 75
     0
 76
     0
 77
     0
 78
     0
  0
ENDTAB
  0
TABLE
  2
LTYPE
  5
5
330
0
100
AcDbSymbolTable
 70
     1
  0
LTYPE
  5
14
330
5
100
AcDbSymbolTableRecord
100
AcDbLinetypeTableRecord
  2
BYBLOCK
 70
     0
  3

 72
    65
 73
     0
 40
0.0
  0
LTYPE
  5
15
330
5
100
AcDbSymbolTableRecord
100
AcDbLinetypeTableRecord
  2
BYLAYER
 70
     0
  3

 72
    65
 73
     0
 40
0.0
  0
LTYPE
  5
16
330
5
100
AcDbSymbolTableRecord
100
AcDbLinetypeTableRecord
  2
CONTINUOUS
 70
     0
  3
Solid line
 72
    65
 73
     0
 40
0.0
  0
ENDTAB
  0
TABLE
  2
LAYER
  5
2
100
AcDbSymbolTable
 70
2
  0
LAYER
  5
50
100
AcDbSymbolTableRecord
100
AcDbLayerTableRecord
  2
0
 70
0
  6
CONTINUOUS
  0
LAYER
  5
51
100
AcDbSymbolTableRecord
100
AcDbLayerTableRecord
  2
Layer_1
 70
0
  6
CONTINUOUS
  0
ENDTAB
  0
TABLE
  2
STYLE
  5
3
330
0
100
AcDbSymbolTable
 70
     1
  0
STYLE
  5
11
330
3
100
AcDbSymbolTableRecord
100
AcDbTextStyleTableRecord
  2
STANDARD
 70
     0
 40
0.0
 41
1.0
 50
0.0
 71
     0
 42
2.5
  3
txt
  4

  0
ENDTAB
  0
TABLE
  2
VIEW
  5
6
330
0
100
AcDbSymbolTable
 70
     0
  0
ENDTAB
  0
TABLE
  2
UCS
  5
7
330
0
100
AcDbSymbolTable
 70
     0
  0
ENDTAB
  0
TABLE
  2
APPID
  5
9
330
0
100
AcDbSymbolTable
 70
     2
  0
APPID
  5
12
330
9
100
AcDbSymbolTableRecord
100
AcDbRegAppTableRecord
  2
ACAD
 70
     0
  0
ENDTAB
  0
TABLE
  2
DIMSTYLE
  5
A
330
0
100
AcDbSymbolTable
 70
     1
  0
DIMSTYLE
105
27
330
A
100
AcDbSymbolTableRecord
100
AcDbDimStyleTableRecord
  2
ISO-25
 70
     0
  3

  4

  5

  6

  7

 40
1.0
 41
2.5
 42
0.625
 43
3.75
 44
1.25
 45
0.0
 46
0.0
 47
0.0
 48
0.0
140
2.5
141
2.5
142
0.0
143
0.03937007874016
144
1.0
145
0.0
146
1.0
147
0.625
 71
     0
 72
     0
 73
     0
 74
     0
 75
     0
 76
     0
 77
     1
 78
     8
170
     0
171
     3
172
     1
173
     0
174
     0
175
     0
176
     0
177
     0
178
     0
270
     2
271
     2
272
     2
273
     2
274
     3
340
11
275
     0
280
     0
281
     0
282
     0
283
     0
284
     8
285
     0
286
     0
287
     3
288
     0
  0
ENDTAB
  0
TABLE
  2
BLOCK_RECORD
  5
1
330
0
100
AcDbSymbolTable
 70
     1
  0
BLOCK_RECORD
  5
1F
330
1
100
AcDbSymbolTableRecord
100
AcDbBlockTableRecord
  2
*MODEL_SPACE
  0
BLOCK_RECORD
  5
1B
330
1
100
AcDbSymbolTableRecord
100
AcDbBlockTableRecord
  2
*PAPER_SPACE
  0
ENDTAB
  0
ENDSEC
  0
SECTION
  2
BLOCKS
  0
BLOCK
  5
20
330
1F
100
AcDbEntity
  8
0
100
AcDbBlockBegin
  2
*MODEL_SPACE
 70
     0
 10
0.0
 20
0.0
 30
0.0
  3
*MODEL_SPACE
  1

  0
ENDBLK
  5
21
330
1F
100
AcDbEntity
  8
0
100
AcDbBlockEnd
  0
BLOCK
  5
1C
330
1B
100
AcDbEntity
 67
     1
  8
0
100
AcDbBlockBegin
  2
*PAPER_SPACE
  1

  0
ENDBLK
  5
1D
330
1B
100
AcDbEntity
 67
     1
  8
0
100
AcDbBlockEnd
  0
ENDSEC
  0
SECTION
  2
ENTITIES
  0
LWPOLYLINE
  5
100
100
AcDbEntity
  8
Layer_1
 62
7
100
AcDbPolyline
 90
193
 70
0
 10
480.708440
 20
171.785356
 30
0.0
 10
478.627936
 20
173.120412
 30
0.0
 10
475.438664
 20
175.496908
 30
0.0
 10
471.574984
 20
178.578708
 30
0.0
 10
467.471224
 20
182.029660
 30
0.0
 10
463.324824
 20
185.598772
 30
0.0
 10
459.345048
 20
189.002292
 30
0.0
 10
455.983952
 20
191.854940
 30
0.0
 10
453.693632
 20
193.771436
 30
0.0
 10
452.083080
 20
195.111956
 30
0.0
 10
450.572832
 20
196.396364
 30
0.0
 10
449.332288
 20
197.478876
 30
0.0
 10
448.530848
 20
198.213740
 30
0.0
 10
446.742224
 20
199.795004
 30
0.0
 10
442.813784
 20
203.182076
 30
0.0
 10
437.325448
 20
207.877228
 30
0.0
 10
430.857136
 20
213.382724
 30
0.0
 10
405.945488
 20
234.614276
 30
0.0
 10
387.428888
 20
250.603036
 30
0.0
 10
373.126416
 20
263.252076
 30
0.0
 10
360.857128
 20
274.464468
 30
0.0
 10
331.133504
 20
303.202876
 30
0.0
 10
305.681048
 20
330.261068
 30
0.0
 10
284.241096
 20
355.929908
 30
0.0
 10
266.554968
 20
380.500252
 30
0.0
 10
257.719360
 20
394.107732
 30
0.0
 10
251.314384
 20
404.637108
 30
0.0
 10
245.893896
 20
414.593596
 30
0.0
 10
240.011736
 20
426.482444
 30
0.0
 10
232.802592
 20
442.469500
 30
0.0
 10
226.540880
 20
458.166964
 30
0.0
 10
222.127816
 20
471.153212
 30
0.0
 10
220.464632
 20
479.006620
 30
0.0
 10
221.126360
 20
482.011020
 30
0.0
 10
222.757192
 20
485.687636
 30
0.0
 10
224.844648
 20
489.064348
 30
0.0
 10
226.876272
 20
491.169044
 30
0.0
 10
228.306256
 20
492.400428
 30
0.0
 10
228.489008
 20
493.369100
 30
0.0
 10
227.519912
 20
493.893900
 30
0.0
 10
225.494344
 20
493.793676
 30
0.0
 10
222.200240
 20
492.874124
 30
0.0
 10
219.154024
 20
491.434636
 30
0.0
 10
216.495504
 20
489.556532
 30
0.0
 10
214.364504
 20
487.321116
 30
0.0
 10
212.293592
 20
482.883636
 30
0.0
 10
211.751656
 20
476.499772
 30
0.0
 10
212.760792
 20
467.439156
 30
0.0
 10
215.343088
 20
454.971436
 30
0.0
 10
224.216800
 20
427.052068
 30
0.0
 10
237.843040
 20
398.669348
 30
0.0
 10
256.157840
 20
369.937676
 30
0.0
 10
279.097216
 20
340.971436
 30
0.0
 10
289.834944
 20
329.251876
 30
0.0
 10
304.800464
 20
313.744980
 30
0.0
 10
321.684360
 20
296.803612
 30
0.0
 10
338.177184
 20
280.780620
 30
0.0
 10
346.167592
 20
273.083476
 30
0.0
 10
352.619160
 20
266.693172
 30
0.0
 10
356.872632
 20
262.275308
 30
0.0
 10
358.268760
 20
260.495500
 30
0.0
 10
355.119608
 20
258.341452
 30
0.0
 10
348.880456
 20
254.515676
 30
0.0
 10
341.282544
 20
250.054972
 30
0.0
 10
334.057128
 20
245.996100
 30
0.0
 10
313.696904
 20
235.873604
 30
0.0
 10
294.045592
 20
228.077612
 30
0.0
 10
274.703144
 20
222.470636
 30
0.0
 10
255.269536
 20
218.915164
 30
0.0
 10
245.564544
 20
218.228052
 30
0.0
 10
234.507024
 20
218.378516
 30
0.0
 10
223.427656
 20
219.302004
 30
0.0
 10
213.657128
 20
220.933948
 30
0.0
 10
190.212080
 20
228.694436
 30
0.0
 10
168.847912
 20
240.992628
 30
0.0
 10
149.226528
 20
258.070844
 30
0.0
 10
131.009824
 20
280.171436
 30
0.0
 10
122.028976
 20
294.298212
 30
0.0
 10
114.821864
 20
309.263356
 30
0.0
 10
109.053400
 20
325.882532
 30
0.0
 10
104.388464
 20
344.971436
 30
0.0
 10
100.952504
 20
368.289884
 30
0.0
 10
99.815224
 20
393.167428
 30
0.0
 10
100.976368
 20
419.046980
 30
0.0
 10
104.435664
 20
445.371436
 30
0.0
 10
106.895048
 20
457.902796
 30
0.0
 10
109.962944
 20
470.805060
 30
0.0
 10
113.668280
 20
484.190516
 30
0.0
 10
118.039976
 20
498.171436
 30
0.0
 10
124.214392
 20
517.214724
 30
0.0
 10
128.043528
 20
530.102428
 30
0.0
 10
130.391256
 20
540.024628
 30
0.0
 10
132.121440
 20
550.171436
 30
0.0
 10
133.066040
 20
559.553316
 30
0.0
 10
133.460216
 20
570.541044
 30
0.0
 10
133.287768
 20
581.529900
 30
0.0
 10
132.532520
 20
590.915156
 30
0.0
 10
128.286544
 20
610.265156
 30
0.0
 10
120.793600
 20
628.792116
 30
0.0
 10
110.213368
 20
646.178740
 30
0.0
 10
96.705528
 20
662.107740
 30
0.0
 10
93.813440
 20
665.050332
 30
0.0
 10
91.445072
 20
667.491252
 30
0.0
 10
89.844816
 20
669.176412
 30
0.0
 10
89.257088
 20
669.851700
 30
0.0
 10
89.651616
 20
669.778020
 30
0.0
 10
90.725840
 20
669.423836
 30
0.0
 10
92.315680
 20
668.846540
 30
0.0
 10
94.257088
 20
668.103492
 30
0.0
 10
99.005744
 20
666.252004
 30
0.0
 10
103.638688
 20
664.460252
 30
0.0
 10
108.730840
 20
662.506828
 30
0.0
 10
114.857088
 20
660.170348
 30
0.0
 10
121.561552
 20
657.586140
 30
0.0
 10
127.909032
 20
655.082084
 30
0.0
 10
133.230536
 20
652.925380
 30
0.0
 10
136.857088
 20
651.383228
 30
0.0
 10
138.483344
 20
650.680828
 30
0.0
 10
141.137088
 20
649.563668
 30
0.0
 10
144.450840
 20
648.185412
 30
0.0
 10
148.057088
 20
646.699732
 30
0.0
 10
187.273360
 20
630.038436
 30
0.0
 10
224.577136
 20
613.001532
 30
0.0
 10
259.766760
 20
595.684556
 30
0.0
 10
292.640560
 20
578.183068
 30
0.0
 10
315.280392
 20
565.124036
 30
0.0
 10
337.471016
 20
551.432620
 30
0.0
 10
357.207664
 20
538.387268
 30
0.0
 10
372.485560
 20
527.266388
 30
0.0
 10
375.179312
 20
525.159372
 30
0.0
 10
378.098936
 20
522.893092
 30
0.0
 10
380.892584
 20
520.739732
 30
0.0
 10
383.208424
 20
518.971460
 30
0.0
 10
390.907144
 20
512.589076
 30
0.0
 10
400.910632
 20
503.646516
 30
0.0
 10
410.540672
 20
494.597948
 30
0.0
 10
417.119040
 20
487.897556
 30
0.0
 10
433.477688
 20
467.586252
 30
0.0
 10
446.551024
 20
447.257604
 30
0.0
 10
456.673008
 20
426.317404
 30
0.0
 10
464.177608
 20
404.171460
 30
0.0
 10
465.372032
 20
399.442820
 30
0.0
 10
466.029112
 20
395.237276
 30
0.0
 10
466.302088
 20
389.998820
 30
0.0
 10
466.344168
 20
382.171460
 30
0.0
 10
466.268168
 20
374.372788
 30
0.0
 10
465.982144
 20
369.251220
 30
0.0
 10
465.332480
 20
365.320404
 30
0.0
 10
464.165544
 20
361.094020
 30
0.0
 10
458.650976
 20
347.037692
 30
0.0
 10
450.802456
 20
333.825564
 30
0.0
 10
440.392456
 20
321.134868
 30
0.0
 10
427.193448
 20
308.642804
 30
0.0
 10
420.288864
 20
302.858196
 30
0.0
 10
414.230680
 20
298.007908
 30
0.0
 10
408.717176
 20
293.857228
 30
0.0
 10
403.446608
 20
290.171460
 30
0.0
 10
401.367240
 20
288.734036
 30
0.0
 10
399.661560
 20
287.481516
 30
0.0
 10
398.505784
 20
286.548476
 30
0.0
 10
398.076128
 20
286.069516
 30
0.0
 10
399.571184
 20
284.383732
 30
0.0
 10
403.912272
 20
280.413580
 30
0.0
 10
410.830528
 20
274.397516
 30
0.0
 10
420.057088
 20
266.574028
 30
0.0
 10
424.631776
 20
262.713604
 30
0.0
 10
429.399592
 20
258.662892
 30
0.0
 10
433.796152
 20
254.902892
 30
0.0
 10
437.257088
 20
251.914620
 30
0.0
 10
440.276152
 20
249.286020
 30
0.0
 10
443.469584
 20
246.505316
 30
0.0
 10
446.456776
 20
243.903964
 30
0.0
 10
448.857088
 20
241.813396
 30
0.0
 10
451.162712
 20
239.818700
 30
0.0
 10
453.892088
 20
237.478380
 30
0.0
 10
456.703960
 20
235.084004
 30
0.0
 10
459.257088
 20
232.927164
 30
0.0
 10
473.322008
 20
221.010244
 30
0.0
 10
485.661272
 20
210.375612
 30
0.0
 10
494.743160
 20
202.357052
 30
0.0
 10
499.035936
 20
198.288388
 30
0.0
 10
500.622016
 20
195.897460
 30
0.0
 10
501.600048
 20
193.132444
 30
0.0
 10
502.009848
 20
189.818940
 30
0.0
 10
501.891256
 20
185.782532
 30
0.0
 10
499.444848
 20
178.332980
 30
0.0
 10
494.284616
 20
172.978868
 30
0.0
 10
487.631984
 20
170.527300
 30
0.0
 10
480.708400
 20
171.785380
 30
0.0
 10
480.708408
 20
171.785380
 30
0.0
 10
480.708416
 20
171.785380
 30
0.0
 10
480.708432
 20
171.785380
 30
0.0
 10
480.708440
 20
171.785356
 30
0.0
  0
ENDSEC
  0
SECTION
  2
OBJECTS
  0
DICTIONARY
  5
C
330
0
100
AcDbDictionary
  3
ACAD_GROUP
350
D
  3
ACAD_MLINESTYLE
350
17
  0
DICTIONARY
  5
D
330
C
100
AcDbDictionary
  0
DICTIONARY
  5
1A
330
C
100
AcDbDictionary
  0
DICTIONARY
  5
17
330
C
100
AcDbDictionary
  3
STANDARD
350
18
  0
DICTIONARY
  5
19
330
C
100
AcDbDictionary
  0
ENDSEC
  0
EOF
