  0
SECTION
  2
HEADER
  9
$ACADVER
  1
AC1014
  9
$HANDSEED
  5
FFFF
  9
$MEASUREMENT
 70
     1
  0
ENDSEC
  0
SECTION
  2
TABLES
  0
TABLE
  2
VPORT
  5
8
330
0
100
AcDbSymbolTable
 70
     4
  0
VPORT
  5
2E
330
8
100
AcDbSymbolTableRecord
100
AcDbViewportTableRecord
  2
*ACTIVE
 70
     0
 10
0.0
 20
0.0
 11
1.0
 21
1.0
 12
210.0
 22
148.5
 13
0.0
 23
0.0
 14
10.0
 24
10.0
 15
10.0
 25
10.0
 16
0.0
 26
0.0
 36
1.0
 17
0.0
 27
0.0
 37
0.0
 40
341.0
 41
1.24
 42
50.0
 43
0.0
 44
0.0
 50
0.0
 51
0.0
 71
     0
 72
   100
 73
     1
 74
     3
 75
     0
 76
     0
 77
     0
 78
     0
  0
ENDTAB
  0
TABLE
  2
LTYPE
  5
5
330
0
100
AcDbSymbolTable
 70
     1
  0
LTYPE
  5
14
330
5
100
AcDbSymbolTableRecord
100
AcDbLinetypeTableRecord
  2
BYBLOCK
 70
     0
  3

 72
    65
 73
     0
 40
0.0
  0
LTYPE
  5
15
330
5
100
AcDbSymbolTableRecord
100
AcDbLinetypeTableRecord
  2
BYLAYER
 70
     0
  3

 72
    65
 73
     0
 40
0.0
  0
LTYPE
  5
16
330
5
100
AcDbSymbolTableRecord
100
AcDbLinetypeTableRecord
  2
CONTINUOUS
 70
     0
  3
Solid line
 72
    65
 73
     0
 40
0.0
  0
ENDTAB
  0
TABLE
  2
LAYER
  5
2
100
AcDbSymbolTable
 70
2
  0
LAYER
  5
50
100
AcDbSymbolTableRecord
100
AcDbLayerTableRecord
  2
0
 70
0
  6
CONTINUOUS
  0
LAYER
  5
51
100
AcDbSymbolTableRecord
100
AcDbLayerTableRecord
  2
Layer_1
 70
0
  6
CONTINUOUS
  0
ENDTAB
  0
TABLE
  2
STYLE
  5
3
330
0
100
AcDbSymbolTable
 70
     1
  0
STYLE
  5
11
330
3
100
AcDbSymbolTableRecord
100
AcDbTextStyleTableRecord
  2
STANDARD
 70
     0
 40
0.0
 41
1.0
 50
0.0
 71
     0
 42
2.5
  3
txt
  4

  0
ENDTAB
  0
TABLE
  2
VIEW
  5
6
330
0
100
AcDbSymbolTable
 70
     0
  0
ENDTAB
  0
TABLE
  2
UCS
  5
7
330
0
100
AcDbSymbolTable
 70
     0
  0
ENDTAB
  0
TABLE
  2
APPID
  5
9
330
0
100
AcDbSymbolTable
 70
     2
  0
APPID
  5
12
330
9
100
AcDbSymbolTableRecord
100
AcDbRegAppTableRecord
  2
ACAD
 70
     0
  0
ENDTAB
  0
TABLE
  2
DIMSTYLE
  5
A
330
0
100
AcDbSymbolTable
 70
     1
  0
DIMSTYLE
105
27
330
A
100
AcDbSymbolTableRecord
100
AcDbDimStyleTableRecord
  2
ISO-25
 70
     0
  3

  4

  5

  6

  7

 40
1.0
 41
2.5
 42
0.625
 43
3.75
 44
1.25
 45
0.0
 46
0.0
 47
0.0
 48
0.0
140
2.5
141
2.5
142
0.0
143
0.03937007874016
144
1.0
145
0.0
146
1.0
147
0.625
 71
     0
 72
     0
 73
     0
 74
     0
 75
     0
 76
     0
 77
     1
 78
     8
170
     0
171
     3
172
     1
173
     0
174
     0
175
     0
176
     0
177
     0
178
     0
270
     2
271
     2
272
     2
273
     2
274
     3
340
11
275
     0
280
     0
281
     0
282
     0
283
     0
284
     8
285
     0
286
     0
287
     3
288
     0
  0
ENDTAB
  0
TABLE
  2
BLOCK_RECORD
  5
1
330
0
100
AcDbSymbolTable
 70
     1
  0
BLOCK_RECORD
  5
1F
330
1
100
AcDbSymbolTableRecord
100
AcDbBlockTableRecord
  2
*MODEL_SPACE
  0
BLOCK_RECORD
  5
1B
330
1
100
AcDbSymbolTableRecord
100
AcDbBlockTableRecord
  2
*PAPER_SPACE
  0
ENDTAB
  0
ENDSEC
  0
SECTION
  2
BLOCKS
  0
BLOCK
  5
20
330
1F
100
AcDbEntity
  8
0
100
AcDbBlockBegin
  2
*MODEL_SPACE
 70
     0
 10
0.0
 20
0.0
 30
0.0
  3
*MODEL_SPACE
  1

  0
ENDBLK
  5
21
330
1F
100
AcDbEntity
  8
0
100
AcDbBlockEnd
  0
BLOCK
  5
1C
330
1B
100
AcDbEntity
 67
     1
  8
0
100
AcDbBlockBegin
  2
*PAPER_SPACE
  1

  0
ENDBLK
  5
1D
330
1B
100
AcDbEntity
 67
     1
  8
0
100
AcDbBlockEnd
  0
ENDSEC
  0
SECTION
  2
ENTITIES
  0
LWPOLYLINE
  5
100
100
AcDbEntity
  8
Layer_1
 62
7
100
AcDbPolyline
 90
857
 70
1
 10
-11.329211
 20
-69.969407
 30
0.0
 10
-11.287200
 20
-69.904806
 30
0.0
 10
-11.166794
 20
-69.763300
 30
0.0
 10
-10.976437
 20
-69.553750
 30
0.0
 10
-10.724570
 20
-69.285074
 30
0.0
 10
-10.419636
 20
-68.966192
 30
0.0
 10
-10.070078
 20
-68.606020
 30
0.0
 10
-9.684337
 20
-68.213448
 30
0.0
 10
-9.270857
 20
-67.797396
 30
0.0
 10
-6.090286
 20
-64.305630
 30
0.0
 10
-3.417565
 20
-60.715566
 30
0.0
 10
-1.262708
 20
-57.054608
 30
0.0
 10
0.364274
 20
-53.350102
 30
0.0
 10
1.453366
 20
-49.629454
 30
0.0
 10
1.994556
 20
-45.920010
 30
0.0
 10
1.977831
 20
-42.249173
 30
0.0
 10
1.393177
 20
-38.644292
 30
0.0
 10
0.808958
 20
-36.694109
 30
0.0
 10
0.008856
 20
-34.692081
 30
0.0
 10
-0.980923
 20
-32.679921
 30
0.0
 10
-2.134171
 20
-30.699285
 30
0.0
 10
-3.424684
 20
-28.791886
 30
0.0
 10
-4.826255
 20
-26.999408
 30
0.0
 10
-6.312679
 20
-25.363564
 30
0.0
 10
-7.857748
 20
-23.926037
 30
0.0
 10
-8.618652
 20
-23.317622
 30
0.0
 10
-9.325934
 20
-22.827515
 30
0.0
 10
-9.986587
 20
-22.453288
 30
0.0
 10
-10.607607
 20
-22.192628
 30
0.0
 10
-11.195988
 20
-22.043106
 30
0.0
 10
-11.758725
 20
-22.002410
 30
0.0
 10
-12.302812
 20
-22.068140
 30
0.0
 10
-12.835245
 20
-22.237896
 30
0.0
 10
-12.955524
 20
-22.288160
 30
0.0
 10
-13.075803
 20
-22.338424
 30
0.0
 10
-13.196082
 20
-22.388659
 30
0.0
 10
-13.316360
 20
-22.438923
 30
0.0
 10
-13.436639
 20
-22.489187
 30
0.0
 10
-13.556918
 20
-22.539451
 30
0.0
 10
-13.677197
 20
-22.589686
 30
0.0
 10
-13.797476
 20
-22.639950
 30
0.0
 10
-13.836822
 20
-22.508632
 30
0.0
 10
-13.876169
 20
-22.377314
 30
0.0
 10
-13.915515
 20
-22.245968
 30
0.0
 10
-13.954861
 20
-22.114650
 30
0.0
 10
-13.994208
 20
-21.983332
 30
0.0
 10
-14.033554
 20
-21.852014
 30
0.0
 10
-14.072901
 20
-21.720668
 30
0.0
 10
-14.112247
 20
-21.589350
 30
0.0
 10
-14.347972
 20
-20.960530
 30
0.0
 10
-14.693590
 20
-20.249725
 30
0.0
 10
-15.124031
 20
-19.493962
 30
0.0
 10
-15.614223
 20
-18.730213
 30
0.0
 10
-16.139097
 20
-17.995504
 30
0.0
 10
-16.673579
 20
-17.326863
 30
0.0
 10
-17.192599
 20
-16.761289
 30
0.0
 10
-17.671086
 20
-16.335783
 30
0.0
 10
-17.906033
 20
-16.163853
 30
0.0
 10
-18.175326
 20
-15.979308
 30
0.0
 10
-18.469489
 20
-15.787933
 30
0.0
 10
-18.779045
 20
-15.595458
 30
0.0
 10
-19.094518
 20
-15.407667
 30
0.0
 10
-19.406429
 20
-15.230318
 30
0.0
 10
-19.705303
 20
-15.069198
 30
0.0
 10
-19.981662
 20
-14.930034
 30
0.0
 10
-20.140415
 20
-14.853524
 30
0.0
 10
-20.299168
 20
-14.777013
 30
0.0
 10
-20.457922
 20
-14.700503
 30
0.0
 10
-20.616675
 20
-14.623992
 30
0.0
 10
-20.775428
 20
-14.547454
 30
0.0
 10
-20.934181
 20
-14.470943
 30
0.0
 10
-21.092934
 20
-14.394433
 30
0.0
 10
-21.251687
 20
-14.317922
 30
0.0
 10
-21.088296
 20
-14.272174
 30
0.0
 10
-20.924904
 20
-14.226426
 30
0.0
 10
-20.761513
 20
-14.180678
 30
0.0
 10
-20.598121
 20
-14.134958
 30
0.0
 10
-20.434730
 20
-14.089209
 30
0.0
 10
-20.271338
 20
-14.043461
 30
0.0
 10
-20.107947
 20
-13.997713
 30
0.0
 10
-19.944555
 20
-13.951965
 30
0.0
 10
-18.678607
 20
-13.711765
 30
0.0
 10
-17.252483
 20
-13.649056
 30
0.0
 10
-15.685081
 20
-13.759856
 30
0.0
 10
-13.995299
 20
-14.040244
 30
0.0
 10
-12.202033
 20
-14.486296
 30
0.0
 10
-10.324183
 20
-15.094090
 30
0.0
 10
-8.380647
 20
-15.859618
 30
0.0
 10
-6.390322
 20
-16.778985
 30
0.0
 10
-5.305305
 20
-17.335075
 30
0.0
 10
-4.306368
 20
-17.889473
 30
0.0
 10
-3.362180
 20
-18.464105
 30
0.0
 10
-2.441408
 20
-19.081015
 30
0.0
 10
-1.512722
 20
-19.762186
 30
0.0
 10
-0.544788
 20
-20.529577
 30
0.0
 10
0.493724
 20
-21.405228
 30
0.0
 10
1.634147
 20
-22.411068
 30
0.0
 10
2.656856
 20
-23.312514
 30
0.0
 10
3.622047
 20
-24.129688
 30
0.0
 10
4.533668
 20
-24.865498
 30
0.0
 10
5.395665
 20
-25.522822
 30
0.0
 10
6.211985
 20
-26.104623
 30
0.0
 10
6.986574
 20
-26.613780
 30
0.0
 10
7.723378
 20
-27.053200
 30
0.0
 10
8.426344
 20
-27.425846
 30
0.0
 10
8.901886
 20
-27.651822
 30
0.0
 10
9.330816
 20
-27.829537
 30
0.0
 10
9.744101
 20
-27.964608
 30
0.0
 10
10.172707
 20
-28.062681
 30
0.0
 10
10.647601
 20
-28.129426
 30
0.0
 10
11.199750
 20
-28.170461
 30
0.0
 10
11.860120
 20
-28.191628
 30
0.0
 10
12.659678
 20
-28.198119
 30
0.0
 10
13.735646
 20
-28.178081
 30
0.0
 10
14.664243
 20
-28.103123
 30
0.0
 10
15.489405
 20
-27.956763
 30
0.0
 10
16.255071
 20
-27.722377
 30
0.0
 10
17.005177
 20
-27.383287
 30
0.0
 10
17.783663
 20
-26.922926
 30
0.0
 10
18.634465
 20
-26.324643
 30
0.0
 10
19.601520
 20
-25.571787
 30
0.0
 10
20.276887
 20
-24.977851
 30
0.0
 10
21.054508
 20
-24.209642
 30
0.0
 10
21.891598
 20
-23.317058
 30
0.0
 10
22.745376
 20
-22.349910
 30
0.0
 10
23.573056
 20
-21.358040
 30
0.0
 10
24.331857
 20
-20.391316
 30
0.0
 10
24.978995
 20
-19.499550
 30
0.0
 10
25.471689
 20
-18.732640
 30
0.0
 10
25.538607
 20
-18.617916
 30
0.0
 10
25.605525
 20
-18.503165
 30
0.0
 10
25.672443
 20
-18.388442
 30
0.0
 10
25.739361
 20
-18.273718
 30
0.0
 10
25.806279
 20
-18.158967
 30
0.0
 10
25.873197
 20
-18.044243
 30
0.0
 10
25.940115
 20
-17.929492
 30
0.0
 10
26.007033
 20
-17.814768
 30
0.0
 10
25.728449
 20
-17.838193
 30
0.0
 10
25.449864
 20
-17.861617
 30
0.0
 10
25.171279
 20
-17.885042
 30
0.0
 10
24.892694
 20
-17.908466
 30
0.0
 10
24.614110
 20
-17.931891
 30
0.0
 10
24.335525
 20
-17.955315
 30
0.0
 10
24.056940
 20
-17.978740
 30
0.0
 10
23.778356
 20
-18.002164
 30
0.0
 10
23.311940
 20
-18.043284
 30
0.0
 10
22.840627
 20
-18.088383
 30
0.0
 10
22.377318
 20
-18.135937
 30
0.0
 10
21.934918
 20
-18.184508
 30
0.0
 10
21.526328
 20
-18.232598
 30
0.0
 10
21.164452
 20
-18.278798
 30
0.0
 10
20.862194
 20
-18.321611
 30
0.0
 10
20.632455
 20
-18.359570
 30
0.0
 10
20.437373
 20
-18.390389
 30
0.0
 10
20.260399
 20
-18.407604
 30
0.0
 10
20.103969
 20
-18.411556
 30
0.0
 10
19.970520
 20
-18.402524
 30
0.0
 10
19.862485
 20
-18.381076
 30
0.0
 10
19.782303
 20
-18.347237
 30
0.0
 10
19.732406
 20
-18.301404
 30
0.0
 10
19.715233
 20
-18.243887
 30
0.0
 10
19.777438
 20
-18.137574
 30
0.0
 10
19.955719
 20
-17.943744
 30
0.0
 10
20.237575
 20
-17.673375
 30
0.0
 10
20.610506
 20
-17.337531
 30
0.0
 10
21.062012
 20
-16.947161
 30
0.0
 10
21.579591
 20
-16.513301
 30
0.0
 10
22.150744
 20
-16.046957
 30
0.0
 10
22.762971
 20
-15.559164
 30
0.0
 10
24.041011
 20
-14.522985
 30
0.0
 10
25.221692
 20
-13.505235
 30
0.0
 10
26.293521
 20
-12.517852
 30
0.0
 10
27.245007
 20
-11.572747
 30
0.0
 10
28.064656
 20
-10.681828
 30
0.0
 10
28.740975
 20
-9.857005
 30
0.0
 10
29.262473
 20
-9.110188
 30
0.0
 10
29.617659
 20
-8.453288
 30
0.0
 10
30.069056
 20
-7.187211
 30
0.0
 10
30.396708
 20
-5.746184
 30
0.0
 10
30.600162
 20
-4.176380
 30
0.0
 10
30.678969
 20
-2.524081
 30
0.0
 10
30.632679
 20
-0.835546
 30
0.0
 10
30.460843
 20
0.843027
 30
0.0
 10
30.163008
 20
2.465410
 30
0.0
 10
29.738726
 20
3.985318
 30
0.0
 10
29.569396
 20
4.470627
 30
0.0
 10
29.376480
 20
4.990198
 30
0.0
 10
29.166696
 20
5.527860
 30
0.0
 10
28.946766
 20
6.067469
 30
0.0
 10
28.723415
 20
6.592882
 30
0.0
 10
28.503358
 20
7.087984
 30
0.0
 10
28.293322
 20
7.536576
 30
0.0
 10
28.100024
 20
7.922515
 30
0.0
 10
27.652290
 20
8.651270
 30
0.0
 10
27.024050
 20
9.505754
 30
0.0
 10
26.278758
 20
10.417303
 30
0.0
 10
25.479867
 20
11.317169
 30
0.0
 10
24.690830
 20
12.136658
 30
0.0
 10
23.975101
 20
12.807076
 30
0.0
 10
23.396131
 20
13.259704
 30
0.0
 10
23.017374
 20
13.425849
 30
0.0
 10
22.868401
 20
13.393534
 30
0.0
 10
22.585289
 20
13.300909
 30
0.0
 10
22.184542
 20
13.154464
 30
0.0
 10
21.682661
 20
12.960690
 30
0.0
 10
21.096151
 20
12.726107
 30
0.0
 10
20.441512
 20
12.457177
 30
0.0
 10
19.735248
 20
12.160421
 30
0.0
 10
18.993862
 20
11.842328
 30
0.0
 10
18.047635
 20
11.440077
 30
0.0
 10
17.203354
 20
11.098785
 30
0.0
 10
16.448829
 20
10.814503
 30
0.0
 10
15.771870
 20
10.583363
 30
0.0
 10
15.160287
 20
10.401442
 30
0.0
 10
14.601890
 20
10.264819
 30
0.0
 10
14.084489
 20
10.169597
 30
0.0
 10
13.595893
 20
10.111882
 30
0.0
 10
13.377781
 20
10.093538
 30
0.0
 10
13.159670
 20
10.075194
 30
0.0
 10
12.941558
 20
10.056849
 30
0.0
 10
12.723446
 20
10.038505
 30
0.0
 10
12.505334
 20
10.020160
 30
0.0
 10
12.287222
 20
10.001816
 30
0.0
 10
12.069110
 20
9.983471
 30
0.0
 10
11.850998
 20
9.965127
 30
0.0
 10
11.487027
 20
10.313869
 30
0.0
 10
11.123055
 20
10.662611
 30
0.0
 10
10.759084
 20
11.011381
 30
0.0
 10
10.395112
 20
11.360123
 30
0.0
 10
10.031141
 20
11.708865
 30
0.0
 10
9.667170
 20
12.057607
 30
0.0
 10
9.303198
 20
12.406377
 30
0.0
 10
8.939227
 20
12.755119
 30
0.0
 10
7.325485
 20
14.251913
 30
0.0
 10
5.878948
 20
15.473749
 30
0.0
 10
4.545302
 20
16.448816
 30
0.0
 10
3.270235
 20
17.205343
 30
0.0
 10
1.999433
 20
17.771552
 30
0.0
 10
0.678578
 20
18.175660
 30
0.0
 10
-0.746643
 20
18.445891
 30
0.0
 10
-2.330544
 20
18.610468
 30
0.0
 10
-2.634461
 20
18.632369
 30
0.0
 10
-2.938378
 20
18.654269
 30
0.0
 10
-3.242294
 20
18.676170
 30
0.0
 10
-3.546211
 20
18.698070
 30
0.0
 10
-3.850128
 20
18.719971
 30
0.0
 10
-4.154044
 20
18.741871
 30
0.0
 10
-4.457961
 20
18.763772
 30
0.0
 10
-4.761878
 20
18.785672
 30
0.0
 10
-4.870328
 20
18.565350
 30
0.0
 10
-4.978779
 20
18.345024
 30
0.0
 10
-5.087230
 20
18.124699
 30
0.0
 10
-5.195681
 20
17.904377
 30
0.0
 10
-5.304132
 20
17.684054
 30
0.0
 10
-5.412583
 20
17.463729
 30
0.0
 10
-5.521034
 20
17.243404
 30
0.0
 10
-5.629485
 20
17.023081
 30
0.0
 10
-5.984801
 20
16.262428
 30
0.0
 10
-6.286713
 20
15.530114
 30
0.0
 10
-6.537225
 20
14.818277
 30
0.0
 10
-6.738345
 20
14.119043
 30
0.0
 10
-6.892077
 20
13.424522
 30
0.0
 10
-7.000423
 20
12.726869
 30
0.0
 10
-7.065389
 20
12.018209
 30
0.0
 10
-7.088977
 20
11.290640
 30
0.0
 10
-7.228960
 20
9.171123
 30
0.0
 10
-7.627353
 20
7.224241
 30
0.0
 10
-8.283748
 20
5.450587
 30
0.0
 10
-9.197735
 20
3.850726
 30
0.0
 10
-10.368906
 20
2.425278
 30
0.0
 10
-11.796852
 20
1.174808
 30
0.0
 10
-13.481164
 20
0.099936
 30
0.0
 10
-15.421433
 20
-0.798772
 30
0.0
 10
-18.238483
 20
-2.037304
 30
0.0
 10
-21.260290
 20
-3.606799
 30
0.0
 10
-24.389726
 20
-5.441384
 30
0.0
 10
-27.529664
 20
-7.475190
 30
0.0
 10
-30.582976
 20
-9.642290
 30
0.0
 10
-33.452539
 20
-11.876869
 30
0.0
 10
-36.041219
 20
-14.113001
 30
0.0
 10
-38.251894
 20
-16.284814
 30
0.0
 10
-38.750434
 20
-16.795184
 30
0.0
 10
-39.293466
 20
-17.316590
 30
0.0
 10
-39.851944
 20
-17.824674
 30
0.0
 10
-40.396817
 20
-18.295026
 30
0.0
 10
-40.899034
 20
-18.703289
 30
0.0
 10
-41.329544
 20
-19.025078
 30
0.0
 10
-41.659304
 20
-19.236011
 30
0.0
 10
-41.859259
 20
-19.311760
 30
0.0
 10
-42.037138
 20
-19.155917
 30
0.0
 10
-42.112127
 20
-18.720758
 30
0.0
 10
-42.092033
 20
-18.054827
 30
0.0
 10
-41.984653
 20
-17.206608
 30
0.0
 10
-41.797788
 20
-16.224672
 30
0.0
 10
-41.539244
 20
-15.157533
 30
0.0
 10
-41.216822
 20
-14.053706
 30
0.0
 10
-40.838325
 20
-12.961760
 30
0.0
 10
-39.248311
 20
-9.149954
 30
0.0
 10
-37.424404
 20
-5.517669
 30
0.0
 10
-35.366508
 20
-2.064793
 30
0.0
 10
-33.074533
 20
1.208816
 30
0.0
 10
-30.548390
 20
4.303298
 30
0.0
 10
-27.787987
 20
7.218710
 30
0.0
 10
-24.793233
 20
9.955221
 30
0.0
 10
-21.564036
 20
12.512944
 30
0.0
 10
-21.212776
 20
12.775891
 30
0.0
 10
-20.889356
 20
13.025460
 30
0.0
 10
-20.600550
 20
13.255894
 30
0.0
 10
-20.353130
 20
13.461437
 30
0.0
 10
-20.153870
 20
13.636302
 30
0.0
 10
-20.009541
 20
13.774732
 30
0.0
 10
-19.926917
 20
13.870941
 30
0.0
 10
-19.912772
 20
13.919201
 30
0.0
 10
-19.956721
 20
13.935006
 30
0.0
 10
-20.040602
 20
13.938675
 30
0.0
 10
-20.159514
 20
13.930490
 30
0.0
 10
-20.308554
 20
13.911581
 30
0.0
 10
-20.482819
 20
13.882371
 30
0.0
 10
-20.677409
 20
13.843679
 30
0.0
 10
-20.887421
 20
13.796265
 30
0.0
 10
-21.107952
 20
13.740837
 30
0.0
 10
-21.965359
 20
13.556743
 30
0.0
 10
-23.059958
 20
13.384644
 30
0.0
 10
-24.310012
 20
13.231369
 30
0.0
 10
-25.633786
 20
13.103833
 30
0.0
 10
-26.949542
 20
13.008922
 30
0.0
 10
-28.175543
 20
12.953550
 30
0.0
 10
-29.230053
 20
12.944519
 30
0.0
 10
-30.031335
 20
12.988828
 30
0.0
 10
-30.830030
 20
13.093842
 30
0.0
 10
-31.486936
 20
13.217089
 30
0.0
 10
-32.018687
 20
13.367796
 30
0.0
 10
-32.441919
 20
13.555304
 30
0.0
 10
-32.773268
 20
13.788871
 30
0.0
 10
-33.029365
 20
14.077782
 30
0.0
 10
-33.226850
 20
14.431322
 30
0.0
 10
-33.382354
 20
14.858776
 30
0.0
 10
-33.470351
 20
15.178226
 30
0.0
 10
-33.526121
 20
15.458359
 30
0.0
 10
-33.547316
 20
15.716469
 30
0.0
 10
-33.531540
 20
15.969842
 30
0.0
 10
-33.476475
 20
16.235766
 30
0.0
 10
-33.379746
 20
16.531532
 30
0.0
 10
-33.238999
 20
16.874426
 30
0.0
 10
-33.051869
 20
17.281738
 30
0.0
 10
-32.780397
 20
17.853932
 30
0.0
 10
-32.574849
 20
18.272733
 30
0.0
 10
-32.418986
 20
18.552226
 30
0.0
 10
-32.296566
 20
18.706497
 30
0.0
 10
-32.191351
 20
18.749629
 30
0.0
 10
-32.087093
 20
18.695705
 30
0.0
 10
-31.967557
 20
18.558808
 30
0.0
 10
-31.816498
 20
18.353025
 30
0.0
 10
-31.697245
 20
18.203021
 30
0.0
 10
-31.600626
 20
18.122074
 30
0.0
 10
-31.521742
 20
18.121510
 30
0.0
 10
-31.455702
 20
18.212298
 30
0.0
 10
-31.397610
 20
18.405761
 30
0.0
 10
-31.342573
 20
18.713113
 30
0.0
 10
-31.285700
 20
19.145556
 30
0.0
 10
-31.222093
 20
19.714302
 30
0.0
 10
-31.144225
 20
20.345334
 30
0.0
 10
-31.059527
 20
20.848259
 30
0.0
 10
-30.968064
 20
21.222971
 30
0.0
 10
-30.869893
 20
21.469357
 30
0.0
 10
-30.765079
 20
21.587303
 30
0.0
 10
-30.653686
 20
21.576692
 30
0.0
 10
-30.535771
 20
21.437426
 30
0.0
 10
-30.411401
 20
21.169389
 30
0.0
 10
-30.286337
 20
20.923505
 30
0.0
 10
-30.161013
 20
20.813467
 30
0.0
 10
-30.043406
 20
20.824728
 30
0.0
 10
-29.941490
 20
20.942778
 30
0.0
 10
-29.863238
 20
21.153071
 30
0.0
 10
-29.816626
 20
21.441073
 30
0.0
 10
-29.809627
 20
21.792253
 30
0.0
 10
-29.850222
 20
22.192077
 30
0.0
 10
-29.898118
 20
22.574246
 30
0.0
 10
-29.907036
 20
22.875794
 30
0.0
 10
-29.877388
 20
23.096250
 30
0.0
 10
-29.809610
 20
23.235125
 30
0.0
 10
-29.704121
 20
23.291945
 30
0.0
 10
-29.561350
 20
23.266235
 30
0.0
 10
-29.381719
 20
23.157500
 30
0.0
 10
-29.165655
 20
22.965270
 30
0.0
 10
-29.075477
 20
22.886550
 30
0.0
 10
-29.001613
 20
22.849762
 30
0.0
 10
-28.942745
 20
22.857636
 30
0.0
 10
-28.897544
 20
22.912873
 30
0.0
 10
-28.864690
 20
23.018204
 30
0.0
 10
-28.842875
 20
23.176350
 30
0.0
 10
-28.830739
 20
23.390037
 30
0.0
 10
-28.826986
 20
23.661981
 30
0.0
 10
-28.822272
 20
23.935609
 30
0.0
 10
-28.807089
 20
24.155466
 30
0.0
 10
-28.779770
 20
24.324938
 30
0.0
 10
-28.738664
 20
24.447405
 30
0.0
 10
-28.682141
 20
24.526253
 30
0.0
 10
-28.608560
 20
24.564861
 30
0.0
 10
-28.516281
 20
24.566554
 30
0.0
 10
-28.403664
 20
24.534835
 30
0.0
 10
-28.293670
 20
24.503034
 30
0.0
 10
-28.202625
 20
24.501059
 30
0.0
 10
-28.129205
 20
24.531231
 30
0.0
 10
-28.072093
 20
24.595685
 30
0.0
 10
-28.029968
 20
24.696625
 30
0.0
 10
-28.001513
 20
24.836246
 30
0.0
 10
-27.985406
 20
25.016746
 30
0.0
 10
-27.980332
 20
25.240328
 30
0.0
 10
-27.975181
 20
25.460702
 30
0.0
 10
-27.959002
 20
25.639681
 30
0.0
 10
-27.930694
 20
25.779164
 30
0.0
 10
-27.889161
 20
25.881043
 30
0.0
 10
-27.833304
 20
25.947216
 30
0.0
 10
-27.762026
 20
25.979573
 30
0.0
 10
-27.674228
 20
25.980137
 30
0.0
 10
-27.568814
 20
25.950546
 30
0.0
 10
-27.469128
 20
25.924949
 30
0.0
 10
-27.376676
 20
25.927489
 30
0.0
 10
-27.291397
 20
25.958231
 30
0.0
 10
-27.213230
 20
26.017230
 30
0.0
 10
-27.142115
 20
26.104547
 30
0.0
 10
-27.077991
 20
26.220241
 30
0.0
 10
-27.020799
 20
26.364369
 30
0.0
 10
-26.970477
 20
26.536993
 30
0.0
 10
-26.935721
 20
26.689291
 30
0.0
 10
-26.908659
 20
26.836733
 30
0.0
 10
-26.889496
 20
26.975707
 30
0.0
 10
-26.878444
 20
27.102606
 30
0.0
 10
-26.875707
 20
27.213815
 30
0.0
 10
-26.881504
 20
27.305727
 30
0.0
 10
-26.896038
 20
27.374730
 30
0.0
 10
-26.919519
 20
27.417216
 30
0.0
 10
-27.073527
 20
27.480789
 30
0.0
 10
-27.297147
 20
27.462078
 30
0.0
 10
-27.562595
 20
27.376773
 30
0.0
 10
-27.842086
 20
27.240550
 30
0.0
 10
-28.107834
 20
27.069083
 30
0.0
 10
-28.332054
 20
26.878058
 30
0.0
 10
-28.486963
 20
26.683153
 30
0.0
 10
-28.544774
 20
26.500044
 30
0.0
 10
-28.548894
 20
26.382843
 30
0.0
 10
-28.561650
 20
26.293333
 30
0.0
 10
-28.583607
 20
26.231182
 30
0.0
 10
-28.615312
 20
26.196063
 30
0.0
 10
-28.657324
 20
26.187653
 30
0.0
 10
-28.710201
 20
26.205602
 30
0.0
 10
-28.774500
 20
26.249597
 30
0.0
 10
-28.850779
 20
26.319306
 30
0.0
 10
-29.043122
 20
26.455225
 30
0.0
 10
-29.262583
 20
26.520452
 30
0.0
 10
-29.492896
 20
26.521298
 30
0.0
 10
-29.717799
 20
26.464086
 30
0.0
 10
-29.921033
 20
26.355123
 30
0.0
 10
-30.086333
 20
26.200717
 30
0.0
 10
-30.197441
 20
26.007183
 30
0.0
 10
-30.238090
 20
25.780832
 30
0.0
 10
-30.244299
 20
25.648015
 30
0.0
 10
-30.263179
 20
25.539828
 30
0.0
 10
-30.295062
 20
25.455960
 30
0.0
 10
-30.340291
 20
25.396095
 30
0.0
 10
-30.399199
 20
25.359920
 30
0.0
 10
-30.472128
 20
25.347135
 30
0.0
 10
-30.559420
 20
25.357408
 30
0.0
 10
-30.661412
 20
25.390428
 30
0.0
 10
-31.161323
 20
25.595765
 30
0.0
 10
-31.521939
 20
25.739120
 30
0.0
 10
-31.756324
 20
25.808227
 30
0.0
 10
-31.877541
 20
25.790842
 30
0.0
 10
-31.898680
 20
25.674688
 30
0.0
 10
-31.832772
 20
25.447511
 30
0.0
 10
-31.692900
 20
25.097053
 30
0.0
 10
-31.492130
 20
24.611055
 30
0.0
 10
-31.461492
 20
24.388892
 30
0.0
 10
-31.556658
 20
24.219765
 30
0.0
 10
-31.755667
 20
24.105629
 30
0.0
 10
-32.036548
 20
24.048448
 30
0.0
 10
-32.377340
 20
24.050141
 30
0.0
 10
-32.756077
 20
24.112741
 30
0.0
 10
-33.150787
 20
24.238171
 30
0.0
 10
-33.539511
 20
24.428389
 30
0.0
 10
-33.900476
 20
24.613236
 30
0.0
 10
-34.204602
 20
24.715325
 30
0.0
 10
-34.443353
 20
24.740160
 30
0.0
 10
-34.608199
 20
24.693283
 30
0.0
 10
-34.690614
 20
24.580199
 30
0.0
 10
-34.682063
 20
24.406432
 30
0.0
 10
-34.574019
 20
24.177499
 30
0.0
 10
-34.357953
 20
23.898915
 30
0.0
 10
-34.162421
 20
23.671977
 30
0.0
 10
-34.026404
 20
23.488109
 30
0.0
 10
-33.950102
 20
23.346109
 30
0.0
 10
-33.933733
 20
23.244780
 30
0.0
 10
-33.977475
 20
23.182920
 30
0.0
 10
-34.081542
 20
23.159326
 30
0.0
 10
-34.246131
 20
23.172788
 30
0.0
 10
-34.471446
 20
23.222132
 30
0.0
 10
-34.586305
 20
23.245839
 30
0.0
 10
-34.692776
 20
23.255547
 30
0.0
 10
-34.788723
 20
23.251850
 30
0.0
 10
-34.872012
 20
23.235396
 30
0.0
 10
-34.940508
 20
23.206807
 30
0.0
 10
-34.992075
 20
23.166726
 30
0.0
 10
-35.024582
 20
23.115782
 30
0.0
 10
-35.035899
 20
23.054610
 30
0.0
 10
-35.030141
 20
22.991305
 30
0.0
 10
-35.013631
 20
22.932247
 30
0.0
 10
-34.987526
 20
22.878730
 30
0.0
 10
-34.952993
 20
22.832044
 30
0.0
 10
-34.911185
 20
22.793482
 30
0.0
 10
-34.863255
 20
22.764339
 30
0.0
 10
-34.810366
 20
22.745910
 30
0.0
 10
-34.753674
 20
22.739476
 30
0.0
 10
-34.696981
 20
22.733718
 30
0.0
 10
-34.644092
 20
22.717208
 30
0.0
 10
-34.596163
 20
22.691103
 30
0.0
 10
-34.554354
 20
22.656570
 30
0.0
 10
-34.519822
 20
22.614762
 30
0.0
 10
-34.493716
 20
22.566832
 30
0.0
 10
-34.477206
 20
22.513943
 30
0.0
 10
-34.471449
 20
22.457250
 30
0.0
 10
-34.500249
 20
22.400558
 30
0.0
 10
-34.582794
 20
22.347669
 30
0.0
 10
-34.713293
 20
22.299739
 30
0.0
 10
-34.885963
 20
22.257931
 30
0.0
 10
-35.095010
 20
22.223398
 30
0.0
 10
-35.334651
 20
22.197293
 30
0.0
 10
-35.599099
 20
22.180783
 30
0.0
 10
-35.882560
 20
22.175025
 30
0.0
 10
-36.249296
 20
22.169945
 30
0.0
 10
-36.552829
 20
22.153859
 30
0.0
 10
-36.797567
 20
22.125416
 30
0.0
 10
-36.987923
 20
22.083303
 30
0.0
 10
-37.128300
 20
22.026196
 30
0.0
 10
-37.223112
 20
21.952775
 30
0.0
 10
-37.276766
 20
21.861714
 30
0.0
 10
-37.293671
 20
21.751692
 30
0.0
 10
-37.306794
 20
21.586586
 30
0.0
 10
-37.350177
 20
21.465141
 30
0.0
 10
-37.429871
 20
21.386736
 30
0.0
 10
-37.551913
 20
21.350747
 30
0.0
 10
-37.722349
 20
21.356561
 30
0.0
 10
-37.947221
 20
21.403534
 30
0.0
 10
-38.232573
 20
21.491051
 30
0.0
 10
-38.584448
 20
21.618489
 30
0.0
 10
-38.946756
 20
21.746183
 30
0.0
 10
-39.204245
 20
21.811532
 30
0.0
 10
-39.356735
 20
21.810967
 30
0.0
 10
-39.404041
 20
21.740736
 30
0.0
 10
-39.345985
 20
21.597266
 30
0.0
 10
-39.182381
 20
21.376921
 30
0.0
 10
-38.913045
 20
21.076069
 30
0.0
 10
-38.537797
 20
20.691081
 30
0.0
 10
-38.411093
 20
20.564378
 30
0.0
 10
-38.284389
 20
20.437674
 30
0.0
 10
-38.157686
 20
20.310970
 30
0.0
 10
-38.030982
 20
20.184267
 30
0.0
 10
-37.904278
 20
20.057560
 30
0.0
 10
-37.777575
 20
19.930856
 30
0.0
 10
-37.650871
 20
19.804153
 30
0.0
 10
-37.524167
 20
19.677449
 30
0.0
 10
-37.688102
 20
19.652868
 30
0.0
 10
-37.852039
 20
19.628286
 30
0.0
 10
-38.015973
 20
19.603704
 30
0.0
 10
-38.179911
 20
19.579123
 30
0.0
 10
-38.343845
 20
19.554541
 30
0.0
 10
-38.507782
 20
19.529960
 30
0.0
 10
-38.671717
 20
19.505378
 30
0.0
 10
-38.835654
 20
19.480797
 30
0.0
 10
-39.505401
 20
19.403567
 30
0.0
 10
-40.130792
 20
19.379380
 30
0.0
 10
-40.711692
 20
19.408218
 30
0.0
 10
-41.247982
 20
19.490048
 30
0.0
 10
-41.739537
 20
19.624848
 30
0.0
 10
-42.186225
 20
19.812594
 30
0.0
 10
-42.587920
 20
20.053259
 30
0.0
 10
-42.944499
 20
20.346818
 30
0.0
 10
-43.155438
 20
20.533028
 30
0.0
 10
-43.373305
 20
20.692368
 30
0.0
 10
-43.602774
 20
20.826669
 30
0.0
 10
-43.848516
 20
20.937760
 30
0.0
 10
-44.115205
 20
21.027476
 30
0.0
 10
-44.407511
 20
21.097645
 30
0.0
 10
-44.730108
 20
21.150096
 30
0.0
 10
-45.087667
 20
21.186663
 30
0.0
 10
-45.980716
 20
21.307209
 30
0.0
 10
-47.310912
 20
21.550874
 30
0.0
 10
-48.945704
 20
21.887492
 30
0.0
 10
-50.752535
 20
22.286895
 30
0.0
 10
-52.598859
 20
22.718916
 30
0.0
 10
-54.352119
 20
23.153388
 30
0.0
 10
-55.879760
 20
23.560138
 30
0.0
 10
-57.049232
 20
23.909004
 30
0.0
 10
-58.243515
 20
24.324625
 30
0.0
 10
-59.250828
 20
24.730189
 30
0.0
 10
-60.079720
 20
25.131721
 30
0.0
 10
-60.738737
 20
25.535242
 30
0.0
 10
-61.236428
 20
25.946773
 30
0.0
 10
-61.581337
 20
26.372339
 30
0.0
 10
-61.782017
 20
26.817962
 30
0.0
 10
-61.847010
 20
27.289663
 30
0.0
 10
-61.387978
 20
28.442602
 30
0.0
 10
-60.076635
 20
30.122711
 30
0.0
 10
-58.011621
 20
32.244076
 30
0.0
 10
-55.291566
 20
34.720794
 30
0.0
 10
-52.015110
 20
37.466949
 30
0.0
 10
-48.280887
 20
40.396633
 30
0.0
 10
-44.187530
 20
43.423940
 30
0.0
 10
-39.833677
 20
46.462960
 30
0.0
 10
-36.631216
 20
48.497153
 30
0.0
 10
-33.335047
 20
50.321127
 30
0.0
 10
-29.935471
 20
51.938446
 30
0.0
 10
-26.422788
 20
53.352682
 30
0.0
 10
-22.787299
 20
54.567403
 30
0.0
 10
-19.019304
 20
55.586171
 30
0.0
 10
-15.109104
 20
56.412560
 30
0.0
 10
-11.047000
 20
57.050134
 30
0.0
 10
-8.531869
 20
57.299345
 30
0.0
 10
-5.782643
 20
57.421412
 30
0.0
 10
-2.837762
 20
57.418589
 30
0.0
 10
0.264332
 20
57.293139
 30
0.0
 10
3.485198
 20
57.047318
 30
0.0
 10
6.786394
 20
56.683381
 30
0.0
 10
10.129480
 20
56.203586
 30
0.0
 10
13.476015
 20
55.610191
 30
0.0
 10
13.913197
 20
55.525067
 30
0.0
 10
14.350380
 20
55.439944
 30
0.0
 10
14.787563
 20
55.354820
 30
0.0
 10
15.224745
 20
55.269696
 30
0.0
 10
15.661928
 20
55.184572
 30
0.0
 10
16.099111
 20
55.099448
 30
0.0
 10
16.536293
 20
55.014324
 30
0.0
 10
16.973476
 20
54.929200
 30
0.0
 10
17.100738
 20
55.026542
 30
0.0
 10
17.227999
 20
55.123883
 30
0.0
 10
17.355261
 20
55.221224
 30
0.0
 10
17.482523
 20
55.318563
 30
0.0
 10
17.609785
 20
55.415904
 30
0.0
 10
17.737047
 20
55.513245
 30
0.0
 10
17.864308
 20
55.610586
 30
0.0
 10
17.991570
 20
55.707928
 30
0.0
 10
20.076231
 20
57.152392
 30
0.0
 10
22.399313
 20
58.491316
 30
0.0
 10
24.914589
 20
59.707674
 30
0.0
 10
27.575831
 20
60.784445
 30
0.0
 10
30.336812
 20
61.704602
 30
0.0
 10
33.151310
 20
62.451125
 30
0.0
 10
35.973095
 20
63.006985
 30
0.0
 10
38.755944
 20
63.355159
 30
0.0
 10
40.061047
 20
63.438635
 30
0.0
 10
41.461369
 20
63.474392
 30
0.0
 10
42.916106
 20
63.464515
 30
0.0
 10
44.384463
 20
63.411076
 30
0.0
 10
45.825639
 20
63.316159
 30
0.0
 10
47.198836
 20
63.181841
 30
0.0
 10
48.463257
 20
63.010207
 30
0.0
 10
49.578097
 20
62.803339
 30
0.0
 10
50.298994
 20
62.630904
 30
0.0
 10
51.087670
 20
62.416824
 30
0.0
 10
51.896050
 20
62.177065
 30
0.0
 10
52.676067
 20
61.927595
 30
0.0
 10
53.379650
 20
61.684370
 30
0.0
 10
53.958730
 20
61.463359
 30
0.0
 10
54.365238
 20
61.280524
 30
0.0
 10
54.551101
 20
61.151831
 30
0.0
 10
54.540376
 20
61.071778
 30
0.0
 10
54.459669
 20
60.923194
 30
0.0
 10
54.315801
 20
60.714618
 30
0.0
 10
54.115595
 20
60.454581
 30
0.0
 10
53.865874
 20
60.151621
 30
0.0
 10
53.573455
 20
59.814278
 30
0.0
 10
53.245168
 20
59.451083
 30
0.0
 10
52.887830
 20
59.070577
 30
0.0
 10
51.680793
 20
57.705053
 30
0.0
 10
50.464094
 20
56.134763
 30
0.0
 10
49.268643
 20
54.411568
 30
0.0
 10
48.125347
 20
52.587334
 30
0.0
 10
47.065111
 20
50.713929
 30
0.0
 10
46.118848
 20
48.843219
 30
0.0
 10
45.317467
 20
47.027068
 30
0.0
 10
44.691871
 20
45.317341
 30
0.0
 10
44.589983
 20
45.003668
 30
0.0
 10
44.491896
 20
44.707433
 30
0.0
 10
44.399979
 20
44.435379
 30
0.0
 10
44.316594
 20
44.194246
 30
0.0
 10
44.244102
 20
43.990775
 30
0.0
 10
44.184867
 20
43.831709
 30
0.0
 10
44.141255
 20
43.723787
 30
0.0
 10
44.115629
 20
43.673752
 30
0.0
 10
44.082666
 20
43.664467
 30
0.0
 10
44.018026
 20
43.673329
 30
0.0
 10
43.925547
 20
43.698898
 30
0.0
 10
43.809068
 20
43.739710
 30
0.0
 10
43.672430
 20
43.794329
 30
0.0
 10
43.519466
 20
43.861306
 30
0.0
 10
43.354016
 20
43.939193
 30
0.0
 10
43.179916
 20
44.026547
 30
0.0
 10
42.744836
 20
44.243962
 30
0.0
 10
42.432323
 20
44.379488
 30
0.0
 10
42.241956
 20
44.428307
 30
0.0
 10
42.173305
 20
44.385595
 30
0.0
 10
42.225951
 20
44.246530
 30
0.0
 10
42.399467
 20
44.006292
 30
0.0
 10
42.693430
 20
43.660056
 30
0.0
 10
43.107410
 20
43.203005
 30
0.0
 10
44.191174
 20
41.890610
 30
0.0
 10
45.381718
 20
40.214424
 30
0.0
 10
46.623879
 20
38.272301
 30
0.0
 10
47.862496
 20
36.162100
 30
0.0
 10
49.042414
 20
33.981674
 30
0.0
 10
50.108466
 20
31.828882
 30
0.0
 10
51.005501
 20
29.801584
 30
0.0
 10
51.678355
 20
27.997631
 30
0.0
 10
51.757547
 20
27.755304
 30
0.0
 10
51.836741
 20
27.512977
 30
0.0
 10
51.915933
 20
27.270649
 30
0.0
 10
51.995127
 20
27.028322
 30
0.0
 10
52.074318
 20
26.785995
 30
0.0
 10
52.153510
 20
26.543667
 30
0.0
 10
52.232704
 20
26.301340
 30
0.0
 10
52.311896
 20
26.059013
 30
0.0
 10
52.630559
 20
25.945689
 30
0.0
 10
52.949219
 20
25.832369
 30
0.0
 10
53.267881
 20
25.719045
 30
0.0
 10
53.586541
 20
25.605724
 30
0.0
 10
53.905204
 20
25.492401
 30
0.0
 10
54.223864
 20
25.379080
 30
0.0
 10
54.542527
 20
25.265757
 30
0.0
 10
54.861187
 20
25.152436
 30
0.0
 10
56.546903
 20
24.501874
 30
0.0
 10
58.170223
 20
23.781192
 30
0.0
 10
59.673121
 20
23.025818
 30
0.0
 10
60.997570
 20
22.271190
 30
0.0
 10
62.085539
 20
21.552740
 30
0.0
 10
62.879010
 20
20.905897
 30
0.0
 10
63.319948
 20
20.366097
 30
0.0
 10
63.350332
 20
19.968770
 30
0.0
 10
63.234139
 20
19.886993
 30
0.0
 10
62.990172
 20
19.817541
 30
0.0
 10
62.612036
 20
19.759979
 30
0.0
 10
62.093343
 20
19.713864
 30
0.0
 10
61.427696
 20
19.678759
 30
0.0
 10
60.608704
 20
19.654233
 30
0.0
 10
59.629975
 20
19.639840
 30
0.0
 10
58.485112
 20
19.635127
 30
0.0
 10
57.007453
 20
19.633151
 30
0.0
 10
55.882831
 20
19.623415
 30
0.0
 10
55.065665
 20
19.600527
 30
0.0
 10
54.510385
 20
19.559043
 30
0.0
 10
54.171410
 20
19.493502
 30
0.0
 10
54.003166
 20
19.398458
 30
0.0
 10
53.960074
 20
19.268458
 30
0.0
 10
53.996562
 20
19.098052
 30
0.0
 10
54.290785
 20
17.863962
 30
0.0
 10
54.507757
 20
16.308579
 30
0.0
 10
54.646706
 20
14.508583
 30
0.0
 10
54.706859
 20
12.540591
 30
0.0
 10
54.687442
 20
10.481328
 30
0.0
 10
54.587671
 20
8.407446
 30
0.0
 10
54.406775
 20
6.395597
 30
0.0
 10
54.143981
 20
4.522460
 30
0.0
 10
53.577564
 20
1.697387
 30
0.0
 10
52.857539
 20
-0.999331
 30
0.0
 10
51.963337
 20
-3.611918
 30
0.0
 10
50.874397
 20
-6.184628
 30
0.0
 10
49.570149
 20
-8.761740
 30
0.0
 10
48.030035
 20
-11.387479
 30
0.0
 10
46.233484
 20
-14.106098
 30
0.0
 10
44.159932
 20
-16.961876
 30
0.0
 10
42.994129
 20
-18.515566
 30
0.0
 10
42.054433
 20
-19.794230
 30
0.0
 10
41.308701
 20
-20.848612
 30
0.0
 10
40.724783
 20
-21.729484
 30
0.0
 10
40.270535
 20
-22.487561
 30
0.0
 10
39.913812
 20
-23.173587
 30
0.0
 10
39.622462
 20
-23.838362
 30
0.0
 10
39.364342
 20
-24.532600
 30
0.0
 10
38.922740
 20
-25.717397
 30
0.0
 10
38.371905
 20
-27.057021
 30
0.0
 10
37.736199
 20
-28.500390
 30
0.0
 10
37.039977
 20
-29.996479
 30
0.0
 10
36.307602
 20
-31.494232
 30
0.0
 10
35.563429
 20
-32.942596
 30
0.0
 10
34.831822
 20
-34.290546
 30
0.0
 10
34.137135
 20
-35.487027
 30
0.0
 10
33.546238
 20
-36.430045
 30
0.0
 10
32.953210
 20
-37.315686
 30
0.0
 10
32.377677
 20
-38.119596
 30
0.0
 10
31.839273
 20
-38.817447
 30
0.0
 10
31.357630
 20
-39.384827
 30
0.0
 10
30.952378
 20
-39.797436
 30
0.0
 10
30.643148
 20
-40.030918
 30
0.0
 10
30.449571
 20
-40.060918
 30
0.0
 10
30.412643
 20
-39.994032
 30
0.0
 10
30.394129
 20
-39.856307
 30
0.0
 10
30.393282
 20
-39.656155
 30
0.0
 10
30.409425
 20
-39.401958
 30
0.0
 10
30.441796
 20
-39.102096
 30
0.0
 10
30.489655
 20
-38.765038
 30
0.0
 10
30.552266
 20
-38.399137
 30
0.0
 10
30.628890
 20
-38.012803
 30
0.0
 10
30.735558
 20
-37.476073
 30
0.0
 10
30.814010
 20
-36.996662
 30
0.0
 10
30.864636
 20
-36.557920
 30
0.0
 10
30.887834
 20
-36.143166
 30
0.0
 10
30.883996
 20
-35.735722
 30
0.0
 10
30.853493
 20
-35.318992
 30
0.0
 10
30.796733
 20
-34.876270
 30
0.0
 10
30.714107
 20
-34.390933
 30
0.0
 10
30.645648
 20
-34.039820
 30
0.0
 10
30.573354
 20
-33.698613
 30
0.0
 10
30.499412
 20
-33.375779
 30
0.0
 10
30.426006
 20
-33.079756
 30
0.0
 10
30.355318
 20
-32.818983
 30
0.0
 10
30.289537
 20
-32.601898
 30
0.0
 10
30.230846
 20
-32.436939
 30
0.0
 10
30.181429
 20
-32.332573
 30
0.0
 10
29.656902
 20
-32.380946
 30
0.0
 10
28.508534
 20
-32.917761
 30
0.0
 10
26.932400
 20
-33.815679
 30
0.0
 10
25.124578
 20
-34.947475
 30
0.0
 10
23.281147
 20
-36.185838
 30
0.0
 10
21.598186
 20
-37.403486
 30
0.0
 10
20.271772
 20
-38.473136
 30
0.0
 10
19.497982
 20
-39.267535
 30
0.0
 10
19.334475
 20
-39.529381
 30
0.0
 10
19.080903
 20
-39.974078
 30
0.0
 10
18.750040
 20
-40.577582
 30
0.0
 10
18.354661
 20
-41.315819
 30
0.0
 10
17.907540
 20
-42.164716
 30
0.0
 10
17.421451
 20
-43.100226
 30
0.0
 10
16.909169
 20
-44.098276
 30
0.0
 10
16.383468
 20
-45.134822
 30
0.0
 10
15.141324
 20
-47.549149
 30
0.0
 10
14.004298
 20
-49.641798
 30
0.0
 10
12.932824
 20
-51.471106
 30
0.0
 10
11.887332
 20
-53.095380
 30
0.0
 10
10.828254
 20
-54.572926
 30
0.0
 10
9.716023
 20
-55.962080
 30
0.0
 10
8.511069
 20
-57.321150
 30
0.0
 10
7.173826
 20
-58.708469
 30
0.0
 10
5.827802
 20
-59.996503
 30
0.0
 10
4.386666
 20
-61.257952
 30
0.0
 10
2.861187
 20
-62.485111
 30
0.0
 10
1.262138
 20
-63.670331
 30
0.0
 10
-0.399710
 20
-64.805937
 30
0.0
 10
-2.113585
 20
-65.884252
 30
0.0
 10
-3.868716
 20
-66.897655
 30
0.0
 10
-5.654331
 20
-67.838415
 30
0.0
 10
-6.591389
 20
-68.290337
 30
0.0
 10
-7.559637
 20
-68.725383
 30
0.0
 10
-8.510953
 20
-69.125433
 30
0.0
 10
-9.397214
 20
-69.472453
 30
0.0
 10
-10.170298
 20
-69.748354
 30
0.0
 10
-10.782082
 20
-69.935100
 30
0.0
 10
-11.184442
 20
-70.014602
 30
0.0
 10
-11.329211
 20
-69.969407
 30
0.0
  0
ENDSEC
  0
SECTION
  2
OBJECTS
  0
DICTIONARY
  5
C
330
0
100
AcDbDictionary
  3
ACAD_GROUP
350
D
  3
ACAD_MLINESTYLE
350
17
  0
DICTIONARY
  5
D
330
C
100
AcDbDictionary
  0
DICTIONARY
  5
1A
330
C
100
AcDbDictionary
  0
DICTIONARY
  5
17
330
C
100
AcDbDictionary
  3
STANDARD
350
18
  0
DICTIONARY
  5
19
330
C
100
AcDbDictionary
  0
ENDSEC
  0
EOF
