<?xml version="1.0" encoding="UTF-8" standalone="no"?>
<!-- Created with Inkscape (http://www.inkscape.org/) -->

<svg
   xmlns:dc="http://purl.org/dc/elements/1.1/"
   xmlns:cc="http://creativecommons.org/ns#"
   xmlns:rdf="http://www.w3.org/1999/02/22-rdf-syntax-ns#"
   xmlns:svg="http://www.w3.org/2000/svg"
   xmlns="http://www.w3.org/2000/svg"
   xmlns:sodipodi="http://sodipodi.sourceforge.net/DTD/sodipodi-0.dtd"
   xmlns:inkscape="http://www.inkscape.org/namespaces/inkscape"
   width="210mm"
   height="297mm"
   viewBox="0 0 744.09448819 1052.3622047"
   id="svg2"
   version="1.1"
   inkscape:version="0.91 r13725"
   sodipodi:docname="shark.svg">
  <defs
     id="defs4" />
  <sodipodi:namedview
     id="base"
     pagecolor="#ffffff"
     bordercolor="#666666"
     borderopacity="1.0"
     inkscape:pageopacity="0.0"
     inkscape:pageshadow="2"
     inkscape:zoom="1.979899"
     inkscape:cx="-66.345043"
     inkscape:cy="30.601549"
     inkscape:document-units="px"
     inkscape:current-layer="layer1"
     showgrid="false"
     inkscape:window-width="2560"
     inkscape:window-height="1370"
     inkscape:window-x="0"
     inkscape:window-y="0"
     inkscape:window-maximized="1" />
  <metadata
     id="metadata7">
    <rdf:RDF>
      <cc:Work
         rdf:about="">
        <dc:format>image/svg+xml</dc:format>
        <dc:type
           rdf:resource="http://purl.org/dc/dcmitype/StillImage" />
        <dc:title></dc:title>
      </cc:Work>
    </rdf:RDF>
  </metadata>
  <g
     inkscape:label="Layer 1"
     inkscape:groupmode="layer"
     id="layer1">
    <path
       style="fill:#000000"
       d="m -40.142874,1300.2853 0.148859,-0.2289 0.426634,-0.5014 0.674495,-0.7425 0.892442,-0.952 1.080474,-1.1299 1.238593,-1.2762 1.366797,-1.391 1.465086,-1.4742 11.269739,-12.3724 9.470271,-12.7207 7.6353228,-12.9719 5.7648955,-13.1262 3.8589888,-13.1834 1.9176028,-13.1437 -0.059263,-13.0069 -2.0716075,-12.7732 -2.0700692,-6.9101 -2.8350071,-7.0938 -3.5070888,-7.1297 -4.0863143,-7.018 -4.5726833,-6.7585 -4.966197,-6.3513 -5.266855,-5.7963 -5.474655,-5.0936 -2.696118,-2.1558 -2.506116,-1.7366 -2.340897,-1.326 -2.200464,-0.9236 -2.084814,-0.5298 -1.993949,-0.1442 -1.927869,0.2329 -1.886573,0.6015 -0.426185,0.1781 -0.426185,0.1781 -0.426185,0.178 -0.426185,0.1781 -0.426185,0.1781 -0.426185,0.1781 -0.426185,0.178 -0.426185,0.1781 -0.139416,-0.4653 -0.139416,-0.4653 -0.139417,-0.4654 -0.139416,-0.4653 -0.139416,-0.4653 -0.139416,-0.4653 -0.139417,-0.4654 -0.139416,-0.4653 -0.835248,-2.2281 -1.224631,-2.5186 -1.525182,-2.6779 -1.736903,-2.7062 -1.859788,-2.6033 -1.893835,-2.3692 -1.839048,-2.004 -1.695425,-1.5077 -0.832488,-0.6092 -0.954189,-0.6539 -1.04231,-0.6781 -1.096853,-0.682 -1.117815,-0.6654 -1.105198,-0.6284 -1.059002,-0.5709 -0.979225,-0.4931 -0.562511,-0.2711 -0.562511,-0.2711 -0.562512,-0.2711 -0.562511,-0.2711 -0.562511,-0.2712 -0.562511,-0.2711 -0.562512,-0.2711 -0.562511,-0.2711 0.578946,-0.1621 0.578947,-0.1621 0.578946,-0.1621 0.578946,-0.162 0.578946,-0.1621 0.578947,-0.1621 0.578946,-0.1621 0.578946,-0.1621 4.485645,-0.8511 5.053194,-0.2222 5.553785,0.3926 5.987419,0.9935 6.354091,1.5805 6.653799,2.1536 6.886546,2.7125 7.052331,3.2576 3.844549,1.9704 3.53954,1.9644 3.345549,2.0361 3.2625763,2.1859 3.2906222,2.4136 3.4296862,2.7191 3.6797683,3.1027 4.0408687,3.564 3.6237704,3.1941 3.4199699,2.8955 3.230153,2.6072 3.05432,2.3291 2.892471,2.0615 2.744606,1.8041 2.610724,1.557 2.490826,1.3204 1.684991,0.8007 1.519831,0.6297 1.464395,0.4786 1.518683,0.3475 1.682695,0.2365 1.956433,0.1454 2.339893,0.075 2.833079,0.023 3.812486,-0.071 3.290303,-0.2656 2.923803,-0.5186 2.712989,-0.8305 2.657859,-1.2015 2.758413,-1.6312 3.014652,-2.1199 3.426575,-2.6676 2.393032,-2.1045 2.755348,-2.722 2.966069,-3.1627 3.025196,-3.4269 2.932727,-3.5145 2.688663,-3.4254 2.293009,-3.1598 1.745766,-2.7174 0.237111,-0.4065 0.237112,-0.4066 0.237111,-0.4065 0.237111,-0.4065 0.237111,-0.4066 0.237111,-0.4065 0.237112,-0.4066 0.237111,-0.4065 -0.987111,0.083 -0.987112,0.083 -0.987111,0.083 -0.987111,0.083 -0.987111,0.083 -0.987111,0.083 -0.987112,0.083 -0.987111,0.083 -1.652652,0.1457 -1.670008,0.1598 -1.641645,0.1685 -1.567561,0.1721 -1.447759,0.1704 -1.282237,0.1637 -1.070995,0.1517 -0.814033,0.1345 -0.691237,0.1092 -0.627073,0.061 -0.554279,0.014 -0.472853,-0.032 -0.382799,-0.076 -0.284112,-0.1199 -0.176797,-0.1624 -0.06085,-0.2038 0.220411,-0.3767 0.631703,-0.6868 0.998703,-0.958 1.321409,-1.19 1.599823,-1.3832 1.833944,-1.5373 2.023771,-1.6524 2.169306,-1.7284 4.528488,-3.6715 4.183515,-3.6062 3.797821,-3.4986 3.371406,-3.3488 2.904268,-3.1568 2.396406,-2.9226 1.84783,-2.6462 1.25853,-2.3276 1.59944,-4.4861 1.16097,-5.106 0.7209,-5.5623 0.27924,-5.8546 -0.16402,-5.983 -0.60887,-5.9477 -1.05532,-5.7486 -1.50336,-5.3855 -0.59999,-1.7196 -0.68356,-1.841 -0.74333,-1.9051 -0.77928,-1.912 -0.7914,-1.8617 -0.77973,-1.7543 -0.74422,-1.5895 -0.684914,-1.3675 -1.586462,-2.5822 -2.226046,-3.0277 -2.640798,-3.2299 -2.830716,-3.1885 -2.7958,-2.9037 -2.53605,-2.3755 -2.051468,-1.6038 -1.34205,-0.5887 -0.527858,0.1145 -1.003152,0.3282 -1.419971,0.5189 -1.778317,0.6866 -2.078188,0.8312 -2.319586,0.9529 -2.502509,1.0515 -2.626959,1.1271 -3.352772,1.4253 -2.991546,1.2093 -2.673514,1.0073 -2.398674,0.819 -2.167027,0.6446 -1.978573,0.4841 -1.833311,0.3374 -1.731243,0.2045 -0.772838,0.065 -0.772837,0.065 -0.772838,0.065 -0.772837,0.065 -0.772838,0.065 -0.772837,0.065 -0.772837,0.065 -0.772838,0.065 -1.289662,-1.2357 -1.289663,-1.2357 -1.289663,-1.2358 -1.289662,-1.2357 -1.289663,-1.2357 -1.289662,-1.2357 -1.289662,-1.2358 -1.289663,-1.2357 -5.717982,-5.3036 -5.125526,-4.32934 -4.725516,-3.45496 -4.517954,-2.68061 -4.5028442,-2.00625 -4.6801933,-1.43188 -5.049995,-0.95751 -5.6122498,-0.58315 -1.07687,-0.0776 -1.0768697,-0.0776 -1.07687,-0.0776 -1.07687,-0.0776 -1.07687,-0.0776 -1.07687,-0.0776 -1.07687,-0.0776 -1.07687,-0.0776 -0.384275,0.78067 -0.384275,0.78068 -0.384275,0.78068 -0.384275,0.78067 -0.384275,0.78067 -0.384275,0.78068 -0.384275,0.78068 -0.384275,0.78067 -1.258995,2.69523 -1.069765,2.59481 -0.887643,2.52226 -0.71263,2.4776 -0.544717,2.4609 -0.383904,2.472 -0.230193,2.511 -0.08358,2.578 -0.496004,7.5101 -1.41163,6.8984 -2.325808,6.2846 -3.238538,5.6688 -4.149817,5.0508 -5.05965,4.4308 -5.968034,3.8086 -6.874969,3.1844 -9.981675,4.3885 -10.70719,5.5612 -11.088552,6.5005 -11.125765,7.2064 -10.818824,7.6787 -10.16774,7.9178 -9.17249,7.9233 -7.8331,7.6954 -1.76648,1.8084 -1.92413,1.8475 -1.97886,1.8003 -1.93065,1.6666 -1.77951,1.4466 -1.52543,1.1402 -1.16844,0.7474 -0.7085,0.2684 -0.63028,-0.5522 -0.26571,-1.5419 0.0712,-2.3596 0.38048,-3.0055 0.66212,-3.4793 0.9161,-3.7812 1.14244,-3.9112 1.34113,-3.8691 5.63391,-13.5064 6.46266,-12.8703 7.29176,-12.2346 8.12117,-11.5994 8.9509,-10.9647 9.780955,-10.3302 10.611335,-9.6963 11.442036,-9.0628 1.244623,-0.9317 1.145975,-0.8843 1.023328,-0.8165 0.876684,-0.7283 0.706042,-0.6196 0.511401,-0.4905 0.292762,-0.3409 0.05012,-0.171 -0.155725,-0.056 -0.297217,-0.013 -0.421341,0.029 -0.528093,0.067 -0.617477,0.1035 -0.689492,0.1371 -0.744135,0.168 -0.78141,0.1964 -3.038056,0.6523 -3.8785,0.6098 -4.429327,0.5431 -4.690536,0.4519 -4.662127,0.3363 -4.344098,0.1962 -3.736452,0.032 -2.83919,-0.157 -2.83002,-0.3721 -2.32762,-0.4367 -1.88416,-0.534 -1.49964,-0.6644 -1.17407,-0.8276 -0.90743,-1.0237 -0.69975,-1.2527 -0.551,-1.5146 -0.3118,-1.13191 -0.19761,-0.9926 -0.0751,-0.91456 0.0559,-0.89778 0.19511,-0.94225 0.34274,-1.04799 0.49871,-1.21498 0.66306,-1.44323 0.96191,-2.02746 0.72832,-1.48394 0.55227,-0.99033 0.43377,-0.54663 0.37281,-0.15283 0.36942,0.19107 0.42355,0.48507 0.53525,0.72915 0.42255,0.53151 0.34235,0.28682 0.27951,0.002 0.234,-0.32169 0.20584,-0.6855 0.19501,-1.08904 0.20152,-1.53228 0.22538,-2.01524 0.27591,-2.23594 0.30011,-1.78202 0.32408,-1.32772 0.34785,-0.87302 0.37139,-0.41792 0.3947,0.0376 0.41781,0.49346 0.44068,0.94974 0.44314,0.87124 0.44406,0.3899 0.41672,-0.0399 0.36112,-0.41829 0.27727,-0.74513 0.16516,-1.02048 0.0248,-1.24434 -0.14384,-1.4167 -0.16971,-1.35414 -0.0316,-1.06848 0.10505,-0.78114 0.24016,-0.49208 0.37378,-0.20133 0.50588,0.0911 0.63649,0.38528 0.76558,0.68113 0.31953,0.27893 0.26172,0.13035 0.20859,-0.0279 0.16016,-0.19572 0.11641,-0.37322 0.0773,-0.56036 0.043,-0.75716 0.0133,-0.96358 0.0167,-0.96955 0.0538,-0.77902 0.0968,-0.60049 0.14565,-0.43394 0.20028,-0.27938 0.26072,-0.1368 0.32697,-0.006 0.39904,0.11239 0.38974,0.11268 0.322602,0.007 0.260149,-0.10691 0.202367,-0.22838 0.149259,-0.35766 0.100827,-0.49472 0.05707,-0.63957 0.01798,-0.79222 0.01825,-0.78085 0.05733,-0.63418 0.100302,-0.49423 0.147165,-0.36099 0.197918,-0.23447 0.252561,-0.11465 0.311094,-0.002 0.373516,0.10485 0.353215,0.0907 0.327586,-0.009 0.302171,-0.10893 0.27697,-0.20905 0.251983,-0.30939 0.227209,-0.40994 0.202651,-0.51069 0.178305,-0.61166 0.12315,-0.53964 0.09589,-0.52243 0.0679,-0.49243 0.03916,-0.44964 0.0097,-0.39405 -0.02054,-0.32567 -0.0515,-0.2445 -0.0832,-0.15054 -0.545697,-0.22526 -0.792355,0.0663 -0.940565,0.30226 -0.990321,0.48268 -0.941628,0.60756 -0.79448,0.67686 -0.54889,0.69061 -0.20484,0.64881 -0.0146,0.41528 -0.0452,0.31716 -0.0778,0.22022 -0.11234,0.12444 -0.14886,0.0298 -0.18736,-0.0636 -0.22783,-0.15589 -0.27028,-0.247 -0.68153,-0.4816 -0.77762,-0.23112 -0.81607,-0.003 -0.7969,0.20272 -0.72012,0.38609 -0.58571,0.54711 -0.39369,0.68575 -0.14403,0.80203 -0.022,0.47061 -0.0669,0.38334 -0.11297,0.29717 -0.16026,0.21212 -0.20873,0.12818 -0.25841,0.0453 -0.3093,-0.0364 -0.36139,-0.117 -1.77134,-0.72757 -1.27777,-0.50795 -0.8305,-0.24487 -0.42951,0.0616 -0.0749,0.41157 0.23353,0.80496 0.49561,1.24178 0.71139,1.72204 0.10856,0.78719 -0.3372,0.59927 -0.70515,0.40442 -0.99525,0.20261 -1.20753,-0.006 -1.34198,-0.22181 -1.39858,-0.44444 -1.37737,-0.674 -1.27901,-0.65497 -1.07761,-0.36173 -0.84597,-0.088 -0.5841,0.1661 -0.29202,0.40069 0.0303,0.61571 0.38283,0.81118 0.76559,0.98711 0.69283,0.80411 0.48195,0.6515 0.27036,0.50315 0.058,0.35904 -0.15499,0.21919 -0.36874,0.0836 -0.58319,-0.0477 -0.79836,-0.17484 -0.40698,-0.084 -0.37726,-0.0344 -0.33997,0.0131 -0.29512,0.0583 -0.2427,0.1013 -0.18272,0.14202 -0.11518,0.18051 -0.0401,0.21675 0.0204,0.22431 0.0585,0.20926 0.0925,0.18963 0.12236,0.16542 0.14814,0.13664 0.16983,0.10326 0.1874,0.0653 0.20088,0.0228 0.20088,0.0204 0.1874,0.0585 0.16983,0.0925 0.14814,0.12236 0.12236,0.14814 0.0925,0.16983 0.0585,0.1874 0.0204,0.20088 -0.10205,0.20088 -0.29248,0.1874 -0.4624,0.16983 -0.61182,0.14814 -0.74072,0.12236 -0.84912,0.0925 -0.93702,0.0585 -1.00439,0.0204 -1.29946,0.018 -1.07551,0.057 -0.86718,0.10078 -0.67449,0.14922 -0.4974,0.20235 -0.33595,0.26015 -0.19011,0.32266 -0.0599,0.38984 -0.0465,0.58502 -0.15372,0.43032 -0.28238,0.27781 -0.43243,0.12752 -0.60391,-0.0206 -0.79679,-0.16644 -1.01109,-0.3101 -1.2468,-0.45155 -1.28377,-0.45246 -0.91236,-0.23155 -0.54032,0.002 -0.16762,0.24885 0.20571,0.50836 0.5797,0.78075 0.95434,1.06601 1.32962,1.36413 0.44895,0.44895 0.44895,0.44895 0.44895,0.44895 0.44895,0.44895 0.44895,0.44896 0.44895,0.44895 0.44895,0.44895 0.44895,0.44895 -0.58087,0.0871 -0.58088,0.0871 -0.58087,0.0871 -0.58088,0.0871 -0.58087,0.0871 -0.58088,0.0871 -0.58087,0.0871 -0.58088,0.0871 -2.37312,0.27365 -2.21595,0.0857 -2.05831,-0.10218 -1.90024,-0.28995 -1.74173,-0.47764 -1.58275,-0.66524 -1.42333,-0.85275 -1.26347,-1.04017 -0.74742,-0.6598 -0.77197,-0.56459 -0.81308,-0.47587 -0.87074,-0.39363 -0.94496,-0.31789 -1.03573,-0.24863 -1.14306,-0.18585 -1.26694,-0.12957 -3.16435,-0.42713 -4.71329,-0.86338 -5.79257,-1.19274 -6.40216,-1.41521 -6.54209,-1.53078 -6.21234,-1.53947 -5.4129,-1.44124 -4.1438,-1.23614 -4.23171,-1.47267 -3.56922,-1.43704 -2.93702,-1.42275 -2.3351,-1.4298 -1.76347,-1.45818 -1.22212,-1.50791 -0.71107,-1.57898 -0.23029,-1.67138 1.62649,-4.08522 4.64649,-5.95314 7.31698,-7.51665 9.63799,-8.77577 11.60949,-9.73047 13.2315,-10.38077 14.50402,-10.72668 15.42704,-10.76818 11.3473,-7.20777 11.67934,-6.4629 12.04574,-5.73066 12.446515,-5.01107 12.881657,-4.30413 13.351163,-3.60981 13.855039,-2.92815 14.393282,-2.25912 8.911879,-0.88303 9.741353,-0.43252 10.434617,0.01 10.9916714,0.44451 11.4125176,0.87102 11.697154,1.28954 11.84558,1.70006 11.857798,2.10258 1.549073,0.30162 1.549072,0.30162 1.549073,0.30162 1.549072,0.30162 1.549073,0.30162 1.549072,0.30162 1.549073,0.30162 1.549072,0.30162 0.450928,-0.34491 0.450927,-0.34491 0.450928,-0.34491 0.450927,-0.3449 0.450928,-0.34491 0.450927,-0.34491 0.450928,-0.34491 0.450927,-0.34491 7.386594,-5.11818 8.231393,-4.74422 8.912395,-4.30993 9.429598,-3.81533 9.783004,-3.2604 9.97263,-2.64516 9.99845,-1.96958 9.86049,-1.23369 4.62438,-0.29578 4.96177,-0.1267 5.15458,0.035 5.20284,0.18935 5.10653,0.33632 4.86566,0.47593 4.48023,0.60815 3.95022,0.733 2.55436,0.61099 2.79452,0.75855 2.86434,0.84954 2.76384,0.88395 2.49301,0.86182 2.05186,0.78311 1.44038,0.64784 0.65857,0.456 -0.038,0.28365 -0.28597,0.52648 -0.50977,0.73905 -0.70939,0.92139 -0.88484,1.07348 -1.03613,1.19531 -1.16322,1.28691 -1.26616,1.34825 -4.2769,4.83847 -4.31114,5.56402 -4.23585,6.10581 -4.05105,6.46382 -3.75674,6.63805 -3.3529,6.6285 -2.83954,6.43518 -2.21668,6.05809 -0.36102,1.11144 -0.34755,1.04965 -0.32569,0.96397 -0.29546,0.85441 -0.25686,0.72096 -0.20989,0.56362 -0.15453,0.3824 -0.0908,0.17729 -0.1168,0.0329 -0.22904,-0.0314 -0.32768,-0.0906 -0.41272,-0.14461 -0.48415,-0.19353 -0.542,-0.23732 -0.58624,-0.27598 -0.61689,-0.30952 -1.54162,-0.77037 -1.10733,-0.48021 -0.67453,-0.17298 -0.24325,0.15134 0.18654,0.49275 0.61482,0.85124 1.0416,1.22682 1.46686,1.61947 3.84011,4.65022 4.21846,5.93924 4.40136,6.88154 4.3888,7.47709 4.18081,7.72592 3.77735,7.628 3.17847,7.18334 2.38413,6.39196 0.2806,0.85864 0.28061,0.85864 0.2806,0.85864 0.28061,0.85864 0.2806,0.85864 0.2806,0.85864 0.28061,0.85864 0.2806,0.85864 1.12912,0.40154 1.12911,0.40153 1.12912,0.40154 1.12911,0.40153 1.12912,0.40154 1.12911,0.40153 1.12912,0.40154 1.12911,0.40153 5.97301,2.30514 5.75192,2.5536 5.32523,2.67652 4.69293,2.67388 3.85501,2.54569 2.81151,2.29196 1.56238,1.91268 0.10766,1.40785 -0.41171,0.28976 -0.86445,0.24609 -1.33985,0.20396 -1.83789,0.1634 -2.35859,0.12439 -2.90194,0.0869 -3.46794,0.051 -4.0566,0.0167 -5.2358,0.007 -3.98488,0.0345 -2.89547,0.0811 -1.96753,0.14699 -1.20109,0.23223 -0.59614,0.33677 -0.15269,0.46063 0.12929,0.6038 1.04252,4.37276 0.7688,5.5112 0.49234,6.37794 0.21314,6.9732 -0.0688,7.2966 -0.35352,7.3484 -0.64097,7.1286 -0.93116,6.6371 -2.00699,10.0101 -2.55127,9.5553 -3.16843,9.2572 -3.85845,9.1159 -4.62135,9.1315 -5.4571,9.3038 -6.36573,9.6329 -7.34723,10.1189 -4.1308,5.5052 -3.32963,4.5307 -2.64236,3.736 -2.069,3.1212 -1.60954,2.6861 -1.26398,2.4308 -1.03234,2.3555 -0.9146,2.4599 -1.56473,4.1981 -1.95178,4.7467 -2.2525,5.1143 -2.46693,5.3011 -2.59503,5.307 -2.63683,5.132 -2.59231,4.7762 -2.46149,4.2395 -2.09373,3.3414 -2.10128,3.1381 -2.03929,2.8485 -1.90773,2.4727 -1.70661,2.0104 -1.43593,1.462 -1.0957,0.8273 -0.6859,0.1063 -0.13085,-0.237 -0.0656,-0.488 -0.003,-0.7092 0.0572,-0.9007 0.1147,-1.0625 0.16958,-1.1943 0.22185,-1.2965 0.2715,-1.3689 0.37796,-1.9018 0.27798,-1.6987 0.17938,-1.5546 0.0822,-1.4696 -0.0136,-1.4437 -0.10808,-1.4766 -0.20112,-1.5687 -0.29277,-1.7197 -0.24257,-1.2441 -0.25616,-1.209 -0.262,-1.1439 -0.2601,-1.0489 -0.25047,-0.924 -0.23308,-0.7692 -0.20796,-0.5845 -0.1751,-0.3698 -1.85856,0.1714 -4.06902,1.9021 -5.584729,3.1816 -6.405667,4.0103 -6.531841,4.3879 -5.963249,4.3145 -4.699894,3.7901 -2.741774,2.8148 -0.579356,0.9278 -0.898484,1.5757 -1.172348,2.1384 -1.400949,2.6158 -1.584287,3.0079 -1.722362,3.3148 -1.815173,3.5364 -1.862721,3.6728 -4.401298,8.5547 -4.02883,7.4149 -3.796563,6.4818 -3.704499,5.7553 -3.752637,5.2354 -3.940978,4.9222 -4.26952,4.8156 -4.738265,4.9157 -4.769374,4.5639 -5.10639,4.4697 -5.405239,4.3482 -5.6659222,4.1996 -5.8884373,4.0238 -6.0727861,3.8208 -6.2189684,3.5908 -6.326983,3.3334 -3.320282,1.6013 -3.4308,1.5415 -3.370806,1.4175 -3.140296,1.2296 -2.739274,0.9776 -2.167736,0.6617 -1.425686,0.2817 z"
       id="path3401"
       inkscape:connector-curvature="0"
       sodipodi:nodetypes="ccccccccccccccccccccccccccccccccccccccccccccccccccccccccccccccccccccccccccccccccccccccccccccccccccccccccccccccccccccccccccccccccccccccccccccccccccccccccccccccccccccccccccccccccccccccccccccccccccccccccccccccccccccccccccccccccccccccccccccccccccccccccccccccccccccccccccccccccccccccccccccccccccccccccccccccccccccccccccccccccccccccccccccccccccccccccccccccccccccccccccccccccccccccccccccccccccccccccccccccccccccccccccccccccccccccccccccccccccccccccccccccccccccccccccccccccccccccccccccccccccccccccccccccccccccccccccccccccccccccccccccccccccccccccccccccccccccccccccccccccccccccccccccccccccccccccccccccccccccccccccccccccccccccccccccccccccccccccccccccccccccccccccccccccccccccccccccccccccccccccccccccccccccccccccccccccccccccccccccccccccccccccccccccccccccccccccccccccccccccccccccccccccccccccccccccccccccccccccccccccccccccccccccccccccccccccccccccccccccccccccccccccccccccccc" />
  </g>
</svg>
