  0
SECTION
  2
HEADER
  9
$ACADVER
  1
AC1014
  9
$HANDSEED
  5
FFFF
  9
$MEASUREMENT
 70
     1
  0
ENDSEC
  0
SECTION
  2
TABLES
  0
TABLE
  2
VPORT
  5
8
330
0
100
AcDbSymbolTable
 70
     4
  0
VPORT
  5
2E
330
8
100
AcDbSymbolTableRecord
100
AcDbViewportTableRecord
  2
*ACTIVE
 70
     0
 10
0.0
 20
0.0
 11
1.0
 21
1.0
 12
210.0
 22
148.5
 13
0.0
 23
0.0
 14
10.0
 24
10.0
 15
10.0
 25
10.0
 16
0.0
 26
0.0
 36
1.0
 17
0.0
 27
0.0
 37
0.0
 40
341.0
 41
1.24
 42
50.0
 43
0.0
 44
0.0
 50
0.0
 51
0.0
 71
     0
 72
   100
 73
     1
 74
     3
 75
     0
 76
     0
 77
     0
 78
     0
  0
ENDTAB
  0
TABLE
  2
LTYPE
  5
5
330
0
100
AcDbSymbolTable
 70
     1
  0
LTYPE
  5
14
330
5
100
AcDbSymbolTableRecord
100
AcDbLinetypeTableRecord
  2
BYBLOCK
 70
     0
  3

 72
    65
 73
     0
 40
0.0
  0
LTYPE
  5
15
330
5
100
AcDbSymbolTableRecord
100
AcDbLinetypeTableRecord
  2
BYLAYER
 70
     0
  3

 72
    65
 73
     0
 40
0.0
  0
LTYPE
  5
16
330
5
100
AcDbSymbolTableRecord
100
AcDbLinetypeTableRecord
  2
CONTINUOUS
 70
     0
  3
Solid line
 72
    65
 73
     0
 40
0.0
  0
ENDTAB
  0
TABLE
  2
LAYER
  5
2
100
AcDbSymbolTable
 70
1
  0
LAYER
  5
50
100
AcDbSymbolTableRecord
100
AcDbLayerTableRecord
  2
0
 70
0
  6
CONTINUOUS
  0
ENDTAB
  0
TABLE
  2
STYLE
  5
3
330
0
100
AcDbSymbolTable
 70
     1
  0
STYLE
  5
11
330
3
100
AcDbSymbolTableRecord
100
AcDbTextStyleTableRecord
  2
STANDARD
 70
     0
 40
0.0
 41
1.0
 50
0.0
 71
     0
 42
2.5
  3
txt
  4

  0
ENDTAB
  0
TABLE
  2
VIEW
  5
6
330
0
100
AcDbSymbolTable
 70
     0
  0
ENDTAB
  0
TABLE
  2
UCS
  5
7
330
0
100
AcDbSymbolTable
 70
     0
  0
ENDTAB
  0
TABLE
  2
APPID
  5
9
330
0
100
AcDbSymbolTable
 70
     2
  0
APPID
  5
12
330
9
100
AcDbSymbolTableRecord
100
AcDbRegAppTableRecord
  2
ACAD
 70
     0
  0
ENDTAB
  0
TABLE
  2
DIMSTYLE
  5
A
330
0
100
AcDbSymbolTable
 70
     1
  0
DIMSTYLE
105
27
330
A
100
AcDbSymbolTableRecord
100
AcDbDimStyleTableRecord
  2
ISO-25
 70
     0
  3

  4

  5

  6

  7

 40
1.0
 41
2.5
 42
0.625
 43
3.75
 44
1.25
 45
0.0
 46
0.0
 47
0.0
 48
0.0
140
2.5
141
2.5
142
0.0
143
0.03937007874016
144
1.0
145
0.0
146
1.0
147
0.625
 71
     0
 72
     0
 73
     0
 74
     0
 75
     0
 76
     0
 77
     1
 78
     8
170
     0
171
     3
172
     1
173
     0
174
     0
175
     0
176
     0
177
     0
178
     0
270
     2
271
     2
272
     2
273
     2
274
     3
340
11
275
     0
280
     0
281
     0
282
     0
283
     0
284
     8
285
     0
286
     0
287
     3
288
     0
  0
ENDTAB
  0
TABLE
  2
BLOCK_RECORD
  5
1
330
0
100
AcDbSymbolTable
 70
     1
  0
BLOCK_RECORD
  5
1F
330
1
100
AcDbSymbolTableRecord
100
AcDbBlockTableRecord
  2
*MODEL_SPACE
  0
BLOCK_RECORD
  5
1B
330
1
100
AcDbSymbolTableRecord
100
AcDbBlockTableRecord
  2
*PAPER_SPACE
  0
ENDTAB
  0
ENDSEC
  0
SECTION
  2
BLOCKS
  0
BLOCK
  5
20
330
1F
100
AcDbEntity
  8
0
100
AcDbBlockBegin
  2
*MODEL_SPACE
 70
     0
 10
0.0
 20
0.0
 30
0.0
  3
*MODEL_SPACE
  1

  0
ENDBLK
  5
21
330
1F
100
AcDbEntity
  8
0
100
AcDbBlockEnd
  0
BLOCK
  5
1C
330
1B
100
AcDbEntity
 67
     1
  8
0
100
AcDbBlockBegin
  2
*PAPER_SPACE
  1

  0
ENDBLK
  5
1D
330
1B
100
AcDbEntity
 67
     1
  8
0
100
AcDbBlockEnd
  0
ENDSEC
  0
SECTION
  2
ENTITIES
  0
LWPOLYLINE
  5
100
100
AcDbEntity
  8
0
 62
7
100
AcDbPolyline
 90
144
 70
0
 10
627.105429
 20
1488.127607
 30
0.0
 10
632.305429
 20
1488.127607
 30
0.0
 10
654.705429
 20
1476.527607
 30
0.0
 10
684.305429
 20
1461.327607
 30
0.0
 10
733.305429
 20
1437.927607
 30
0.0
 10
776.505429
 20
1417.927607
 30
0.0
 10
798.705429
 20
1408.527607
 30
0.0
 10
830.705429
 20
1394.927607
 30
0.0
 10
863.105429
 20
1382.927607
 30
0.0
 10
889.905429
 20
1373.327607
 30
0.0
 10
903.905429
 20
1368.527607
 30
0.0
 10
925.505429
 20
1361.727607
 30
0.0
 10
959.105429
 20
1352.127607
 30
0.0
 10
998.705429
 20
1342.127607
 30
0.0
 10
1023.505429
 20
1336.527607
 30
0.0
 10
1059.105429
 20
1329.727607
 30
0.0
 10
1096.705429
 20
1322.927607
 30
0.0
 10
1133.905429
 20
1316.927607
 30
0.0
 10
1163.905429
 20
1312.127607
 30
0.0
 10
1192.705429
 20
1306.527607
 30
0.0
 10
1221.305429
 20
1300.727607
 30
0.0
 10
1221.505429
 20
1300.527607
 30
0.0
 10
1220.305429
 20
1240.927607
 30
0.0
 10
1214.305429
 20
1086.927607
 30
0.0
 10
1206.705429
 20
954.927607
 30
0.0
 10
1200.305429
 20
890.527607
 30
0.0
 10
1191.905429
 20
839.727607
 30
0.0
 10
1181.505429
 20
791.327607
 30
0.0
 10
1171.505429
 20
748.527607
 30
0.0
 10
1161.105429
 20
708.927607
 30
0.0
 10
1153.905429
 20
683.327607
 30
0.0
 10
1150.305429
 20
672.127607
 30
0.0
 10
1144.705429
 20
655.327607
 30
0.0
 10
1134.705429
 20
626.527607
 30
0.0
 10
1123.505429
 20
596.527607
 30
0.0
 10
1112.705429
 20
569.727607
 30
0.0
 10
1096.305429
 20
532.127607
 30
0.0
 10
1084.305429
 20
506.527607
 30
0.0
 10
1069.705429
 20
480.327607
 30
0.0
 10
1054.505429
 20
453.527607
 30
0.0
 10
1042.105429
 20
432.327607
 30
0.0
 10
1029.305429
 20
410.727607
 30
0.0
 10
1020.105429
 20
396.327607
 30
0.0
 10
1010.105429
 20
381.127607
 30
0.0
 10
1001.305429
 20
368.327607
 30
0.0
 10
991.705429
 20
354.727607
 30
0.0
 10
984.505429
 20
344.327607
 30
0.0
 10
976.905429
 20
333.527607
 30
0.0
 10
967.305429
 20
320.327607
 30
0.0
 10
957.305429
 20
306.727607
 30
0.0
 10
948.105429
 20
294.727607
 30
0.0
 10
931.905429
 20
275.727607
 30
0.0
 10
902.705429
 20
243.727607
 30
0.0
 10
873.105429
 20
212.927607
 30
0.0
 10
856.105429
 20
196.727607
 30
0.0
 10
836.505429
 20
179.527607
 30
0.0
 10
817.705429
 20
162.727607
 30
0.0
 10
800.905429
 20
147.927607
 30
0.0
 10
783.305429
 20
132.727607
 30
0.0
 10
773.705429
 20
124.727607
 30
0.0
 10
758.705429
 20
112.127607
 30
0.0
 10
744.105429
 20
100.327607
 30
0.0
 10
734.505429
 20
93.527607
 30
0.0
 10
717.705429
 20
83.127607
 30
0.0
 10
701.705429
 20
73.127607
 30
0.0
 10
693.105429
 20
67.727607
 30
0.0
 10
683.105429
 20
61.327607
 30
0.0
 10
675.505429
 20
56.127607
 30
0.0
 10
665.105429
 20
50.527607
 30
0.0
 10
645.905429
 20
41.327607
 30
0.0
 10
630.305429
 20
34.527607
 30
0.0
 10
625.905429
 20
32.927607
 30
0.0
 10
621.105429
 20
34.127607
 30
0.0
 10
610.705429
 20
38.127607
 30
0.0
 10
591.905429
 20
47.727607
 30
0.0
 10
576.705429
 20
56.127607
 30
0.0
 10
566.505429
 20
63.127607
 30
0.0
 10
554.105429
 20
71.127607
 30
0.0
 10
537.705429
 20
81.127607
 30
0.0
 10
520.905429
 20
91.527607
 30
0.0
 10
511.305429
 20
98.327607
 30
0.0
 10
499.905429
 20
107.327607
 30
0.0
 10
482.905429
 20
121.527607
 30
0.0
 10
464.505429
 20
137.127607
 30
0.0
 10
441.705429
 20
157.127607
 30
0.0
 10
422.505429
 20
173.927607
 30
0.0
 10
404.105429
 20
189.927607
 30
0.0
 10
388.305429
 20
204.127607
 30
0.0
 10
374.105429
 20
218.327607
 30
0.0
 10
356.505429
 20
236.327607
 30
0.0
 10
334.505429
 20
260.327607
 30
0.0
 10
314.105429
 20
283.127607
 30
0.0
 10
304.105429
 20
295.527607
 30
0.0
 10
293.705429
 20
308.727607
 30
0.0
 10
286.105429
 20
319.127607
 30
0.0
 10
278.105429
 20
330.327607
 30
0.0
 10
270.505429
 20
340.727607
 30
0.0
 10
264.705429
 20
348.927607
 30
0.0
 10
258.105429
 20
358.327607
 30
0.0
 10
250.905429
 20
368.727607
 30
0.0
 10
242.905429
 20
380.727607
 30
0.0
 10
235.305429
 20
392.327607
 30
0.0
 10
226.905429
 20
405.527607
 30
0.0
 10
219.305429
 20
417.927607
 30
0.0
 10
209.305429
 20
435.127607
 30
0.0
 10
198.505429
 20
453.127607
 30
0.0
 10
185.505429
 20
476.127607
 30
0.0
 10
169.905429
 20
504.527607
 30
0.0
 10
160.705429
 20
522.527607
 30
0.0
 10
149.505429
 20
547.727607
 30
0.0
 10
142.305429
 20
564.927607
 30
0.0
 10
135.105429
 20
583.327607
 30
0.0
 10
123.905429
 20
611.727607
 30
0.0
 10
112.705429
 20
643.327607
 30
0.0
 10
98.305429
 20
688.527607
 30
0.0
 10
82.305429
 20
746.927607
 30
0.0
 10
69.905429
 20
798.127607
 30
0.0
 10
59.905429
 20
846.927607
 30
0.0
 10
52.305429
 20
888.927607
 30
0.0
 10
47.105429
 20
950.127607
 30
0.0
 10
41.905429
 20
1027.327607
 30
0.0
 10
39.105429
 20
1082.527607
 30
0.0
 10
34.705429
 20
1178.127607
 30
0.0
 10
31.905429
 20
1272.127607
 30
0.0
 10
31.905429
 20
1299.727607
 30
0.0
 10
34.505429
 20
1301.127607
 30
0.0
 10
48.705429
 20
1304.527607
 30
0.0
 10
80.705429
 20
1309.727607
 30
0.0
 10
142.705429
 20
1320.127607
 30
0.0
 10
202.305429
 20
1330.527607
 30
0.0
 10
249.905429
 20
1340.527607
 30
0.0
 10
301.105429
 20
1353.327607
 30
0.0
 10
338.305429
 20
1364.527607
 30
0.0
 10
362.705429
 20
1372.527607
 30
0.0
 10
379.505429
 20
1378.127607
 30
0.0
 10
411.505429
 20
1390.127607
 30
0.0
 10
456.505429
 20
1408.727607
 30
0.0
 10
478.905429
 20
1418.327607
 30
0.0
 10
499.105429
 20
1427.327607
 30
0.0
 10
533.105429
 20
1443.327607
 30
0.0
 10
563.105429
 20
1457.727607
 30
0.0
 10
599.905429
 20
1476.527607
 30
0.0
 10
621.905429
 20
1488.127607
 30
0.0
 10
627.105429
 20
1488.127607
 30
0.0
  0
ENDSEC
  0
SECTION
  2
OBJECTS
  0
DICTIONARY
  5
C
330
0
100
AcDbDictionary
  3
ACAD_GROUP
350
D
  3
ACAD_MLINESTYLE
350
17
  0
DICTIONARY
  5
D
330
C
100
AcDbDictionary
  0
DICTIONARY
  5
1A
330
C
100
AcDbDictionary
  0
DICTIONARY
  5
17
330
C
100
AcDbDictionary
  3
STANDARD
350
18
  0
DICTIONARY
  5
19
330
C
100
AcDbDictionary
  0
ENDSEC
  0
EOF
