  0
SECTION
  2
HEADER
  9
$ACADVER
  1
AC1014
  9
$HANDSEED
  5
FFFF
  9
$MEASUREMENT
 70
     1
  0
ENDSEC
  0
SECTION
  2
TABLES
  0
TABLE
  2
VPORT
  5
8
330
0
100
AcDbSymbolTable
 70
     4
  0
VPORT
  5
2E
330
8
100
AcDbSymbolTableRecord
100
AcDbViewportTableRecord
  2
*ACTIVE
 70
     0
 10
0.0
 20
0.0
 11
1.0
 21
1.0
 12
210.0
 22
148.5
 13
0.0
 23
0.0
 14
10.0
 24
10.0
 15
10.0
 25
10.0
 16
0.0
 26
0.0
 36
1.0
 17
0.0
 27
0.0
 37
0.0
 40
341.0
 41
1.24
 42
50.0
 43
0.0
 44
0.0
 50
0.0
 51
0.0
 71
     0
 72
   100
 73
     1
 74
     3
 75
     0
 76
     0
 77
     0
 78
     0
  0
ENDTAB
  0
TABLE
  2
LTYPE
  5
5
330
0
100
AcDbSymbolTable
 70
     1
  0
LTYPE
  5
14
330
5
100
AcDbSymbolTableRecord
100
AcDbLinetypeTableRecord
  2
BYBLOCK
 70
     0
  3

 72
    65
 73
     0
 40
0.0
  0
LTYPE
  5
15
330
5
100
AcDbSymbolTableRecord
100
AcDbLinetypeTableRecord
  2
BYLAYER
 70
     0
  3

 72
    65
 73
     0
 40
0.0
  0
LTYPE
  5
16
330
5
100
AcDbSymbolTableRecord
100
AcDbLinetypeTableRecord
  2
CONTINUOUS
 70
     0
  3
Solid line
 72
    65
 73
     0
 40
0.0
  0
ENDTAB
  0
TABLE
  2
LAYER
  5
2
100
AcDbSymbolTable
 70
2
  0
LAYER
  5
50
100
AcDbSymbolTableRecord
100
AcDbLayerTableRecord
  2
0
 70
0
  6
CONTINUOUS
  0
LAYER
  5
51
100
AcDbSymbolTableRecord
100
AcDbLayerTableRecord
  2
Layer_1
 70
0
  6
CONTINUOUS
  0
ENDTAB
  0
TABLE
  2
STYLE
  5
3
330
0
100
AcDbSymbolTable
 70
     1
  0
STYLE
  5
11
330
3
100
AcDbSymbolTableRecord
100
AcDbTextStyleTableRecord
  2
STANDARD
 70
     0
 40
0.0
 41
1.0
 50
0.0
 71
     0
 42
2.5
  3
txt
  4

  0
ENDTAB
  0
TABLE
  2
VIEW
  5
6
330
0
100
AcDbSymbolTable
 70
     0
  0
ENDTAB
  0
TABLE
  2
UCS
  5
7
330
0
100
AcDbSymbolTable
 70
     0
  0
ENDTAB
  0
TABLE
  2
APPID
  5
9
330
0
100
AcDbSymbolTable
 70
     2
  0
APPID
  5
12
330
9
100
AcDbSymbolTableRecord
100
AcDbRegAppTableRecord
  2
ACAD
 70
     0
  0
ENDTAB
  0
TABLE
  2
DIMSTYLE
  5
A
330
0
100
AcDbSymbolTable
 70
     1
  0
DIMSTYLE
105
27
330
A
100
AcDbSymbolTableRecord
100
AcDbDimStyleTableRecord
  2
ISO-25
 70
     0
  3

  4

  5

  6

  7

 40
1.0
 41
2.5
 42
0.625
 43
3.75
 44
1.25
 45
0.0
 46
0.0
 47
0.0
 48
0.0
140
2.5
141
2.5
142
0.0
143
0.03937007874016
144
1.0
145
0.0
146
1.0
147
0.625
 71
     0
 72
     0
 73
     0
 74
     0
 75
     0
 76
     0
 77
     1
 78
     8
170
     0
171
     3
172
     1
173
     0
174
     0
175
     0
176
     0
177
     0
178
     0
270
     2
271
     2
272
     2
273
     2
274
     3
340
11
275
     0
280
     0
281
     0
282
     0
283
     0
284
     8
285
     0
286
     0
287
     3
288
     0
  0
ENDTAB
  0
TABLE
  2
BLOCK_RECORD
  5
1
330
0
100
AcDbSymbolTable
 70
     1
  0
BLOCK_RECORD
  5
1F
330
1
100
AcDbSymbolTableRecord
100
AcDbBlockTableRecord
  2
*MODEL_SPACE
  0
BLOCK_RECORD
  5
1B
330
1
100
AcDbSymbolTableRecord
100
AcDbBlockTableRecord
  2
*PAPER_SPACE
  0
ENDTAB
  0
ENDSEC
  0
SECTION
  2
BLOCKS
  0
BLOCK
  5
20
330
1F
100
AcDbEntity
  8
0
100
AcDbBlockBegin
  2
*MODEL_SPACE
 70
     0
 10
0.0
 20
0.0
 30
0.0
  3
*MODEL_SPACE
  1

  0
ENDBLK
  5
21
330
1F
100
AcDbEntity
  8
0
100
AcDbBlockEnd
  0
BLOCK
  5
1C
330
1B
100
AcDbEntity
 67
     1
  8
0
100
AcDbBlockBegin
  2
*PAPER_SPACE
  1

  0
ENDBLK
  5
1D
330
1B
100
AcDbEntity
 67
     1
  8
0
100
AcDbBlockEnd
  0
ENDSEC
  0
SECTION
  2
ENTITIES
  0
LWPOLYLINE
  5
100
100
AcDbEntity
  8
Layer_1
 62
7
100
AcDbPolyline
 90
777
 70
0
 10
50.540778
 20
120.286236
 30
0.0
 10
48.399317
 20
120.885772
 30
0.0
 10
46.420008
 20
121.528604
 30
0.0
 10
44.536631
 20
122.246332
 30
0.0
 10
42.682967
 20
123.070564
 30
0.0
 10
40.792794
 20
124.032892
 30
0.0
 10
38.799892
 20
125.164932
 30
0.0
 10
36.638040
 20
126.498268
 30
0.0
 10
34.241018
 20
128.064516
 30
0.0
 10
29.897647
 20
131.358068
 30
0.0
 10
25.868824
 20
135.193116
 30
0.0
 10
22.214449
 20
139.473812
 30
0.0
 10
18.994425
 20
144.104300
 30
0.0
 10
16.268654
 20
148.988708
 30
0.0
 10
14.097038
 20
154.031196
 30
0.0
 10
12.539479
 20
159.135900
 30
0.0
 10
11.655879
 20
164.206964
 30
0.0
 10
11.603823
 20
164.703396
 30
0.0
 10
11.551767
 20
165.199836
 30
0.0
 10
11.499711
 20
165.696268
 30
0.0
 10
11.447655
 20
166.192700
 30
0.0
 10
11.395599
 20
166.689140
 30
0.0
 10
11.343543
 20
167.185572
 30
0.0
 10
11.291487
 20
167.682012
 30
0.0
 10
11.239431
 20
168.178444
 30
0.0
 10
11.828780
 20
168.148524
 30
0.0
 10
12.418129
 20
168.118604
 30
0.0
 10
13.007478
 20
168.088684
 30
0.0
 10
13.596826
 20
168.058764
 30
0.0
 10
14.186174
 20
168.028844
 30
0.0
 10
14.775523
 20
167.998924
 30
0.0
 10
15.364872
 20
167.969004
 30
0.0
 10
15.954221
 20
167.939084
 30
0.0
 10
17.113080
 20
167.913964
 30
0.0
 10
18.420959
 20
167.946204
 30
0.0
 10
19.853257
 20
168.033164
 30
0.0
 10
21.385371
 20
168.172292
 30
0.0
 10
22.992700
 20
168.361020
 30
0.0
 10
24.650641
 20
168.596780
 30
0.0
 10
26.334592
 20
168.876996
 30
0.0
 10
28.019951
 20
169.199116
 30
0.0
 10
29.530930
 20
169.500284
 30
0.0
 10
31.006863
 20
169.781252
 30
0.0
 10
32.410706
 20
170.035860
 30
0.0
 10
33.705414
 20
170.257964
 30
0.0
 10
34.853942
 20
170.441420
 30
0.0
 10
35.819246
 20
170.580068
 30
0.0
 10
36.564282
 20
170.667764
 30
0.0
 10
37.052006
 20
170.698324
 30
0.0
 10
37.503538
 20
170.743524
 30
0.0
 10
38.144846
 20
170.873132
 30
0.0
 10
38.946160
 20
171.078036
 30
0.0
 10
39.877704
 20
171.349156
 30
0.0
 10
40.909705
 20
171.677396
 30
0.0
 10
42.012389
 20
172.053668
 30
0.0
 10
43.155982
 20
172.468892
 30
0.0
 10
44.310712
 20
172.913972
 30
0.0
 10
46.372022
 20
173.781340
 30
0.0
 10
48.278631
 20
174.752156
 30
0.0
 10
50.277751
 20
176.026380
 30
0.0
 10
52.616594
 20
177.803996
 30
0.0
 10
55.542373
 20
180.284972
 30
0.0
 10
59.302300
 20
183.669284
 30
0.0
 10
64.143587
 20
188.156900
 30
0.0
 10
70.313448
 20
193.947804
 30
0.0
 10
81.241086
 20
204.646812
 30
0.0
 10
90.539918
 20
214.665820
 30
0.0
 10
98.262894
 20
224.089092
 30
0.0
 10
104.462966
 20
233.000908
 30
0.0
 10
109.193078
 20
241.485524
 30
0.0
 10
112.506174
 20
249.627212
 30
0.0
 10
114.455198
 20
257.510236
 30
0.0
 10
115.093110
 20
265.218868
 30
0.0
 10
114.870198
 20
269.620364
 30
0.0
 10
114.205846
 20
274.027956
 30
0.0
 10
113.106598
 20
278.425244
 30
0.0
 10
111.579030
 20
282.795804
 30
0.0
 10
109.629694
 20
287.123220
 30
0.0
 10
107.265150
 20
291.391092
 30
0.0
 10
104.491950
 20
295.583004
 30
0.0
 10
101.316670
 20
299.682532
 30
0.0
 10
100.757398
 20
300.362460
 30
0.0
 10
100.235646
 20
301.014132
 30
0.0
 10
99.762838
 20
301.622052
 30
0.0
 10
99.350382
 20
302.170716
 30
0.0
 10
99.009710
 20
302.644604
 30
0.0
 10
98.752230
 20
303.028236
 30
0.0
 10
98.589374
 20
303.306084
 30
0.0
 10
98.532574
 20
303.462660
 30
0.0
 10
98.595054
 20
303.551268
 30
0.0
 10
98.774062
 20
303.634316
 30
0.0
 10
99.057062
 20
303.709996
 30
0.0
 10
99.431502
 20
303.776396
 30
0.0
 10
99.884838
 20
303.831676
 30
0.0
 10
100.404518
 20
303.874076
 30
0.0
 10
100.977990
 20
303.901676
 30
0.0
 10
101.592702
 20
303.912636
 30
0.0
 10
102.560110
 20
303.966316
 30
0.0
 10
104.144430
 20
304.116164
 30
0.0
 10
106.262222
 20
304.351788
 30
0.0
 10
108.830070
 20
304.662780
 30
0.0
 10
111.764542
 20
305.038732
 30
0.0
 10
114.982198
 20
305.469228
 30
0.0
 10
118.399622
 20
305.943860
 30
0.0
 10
121.933382
 20
306.452228
 30
0.0
 10
128.997918
 20
307.445028
 30
0.0
 10
135.307774
 20
308.243020
 30
0.0
 10
140.893222
 20
308.848332
 30
0.0
 10
145.784566
 20
309.263092
 30
0.0
 10
150.012086
 20
309.489436
 30
0.0
 10
153.606078
 20
309.529516
 30
0.0
 10
156.596830
 20
309.385404
 30
0.0
 10
159.014622
 20
309.059268
 30
0.0
 10
159.509638
 20
308.963004
 30
0.0
 10
160.004654
 20
308.866740
 30
0.0
 10
160.499670
 20
308.770468
 30
0.0
 10
160.994694
 20
308.674204
 30
0.0
 10
161.489710
 20
308.577940
 30
0.0
 10
161.984726
 20
308.481676
 30
0.0
 10
162.479742
 20
308.385404
 30
0.0
 10
162.974758
 20
308.289140
 30
0.0
 10
163.823558
 20
309.207540
 30
0.0
 10
164.672358
 20
310.125932
 30
0.0
 10
165.521158
 20
311.044332
 30
0.0
 10
166.369958
 20
311.962732
 30
0.0
 10
167.218758
 20
312.881124
 30
0.0
 10
168.067558
 20
313.799524
 30
0.0
 10
168.916358
 20
314.717916
 30
0.0
 10
169.765158
 20
315.636316
 30
0.0
 10
171.725902
 20
317.714740
 30
0.0
 10
174.708574
 20
320.818484
 30
0.0
 10
178.565414
 20
324.796324
 30
0.0
 10
183.148654
 20
329.497052
 30
0.0
 10
188.310534
 20
334.769452
 30
0.0
 10
193.903310
 20
340.462300
 30
0.0
 10
199.779214
 20
346.424380
 30
0.0
 10
205.790486
 20
352.504484
 30
0.0
 10
211.765534
 20
358.545260
 30
0.0
 10
217.537638
 20
364.394676
 30
0.0
 10
222.966310
 20
369.909396
 30
0.0
 10
227.911078
 20
374.946116
 30
0.0
 10
232.231454
 20
379.361516
 30
0.0
 10
235.786958
 20
383.012276
 30
0.0
 10
238.437110
 20
385.755068
 30
0.0
 10
240.041422
 20
387.446588
 30
0.0
 10
241.138206
 20
388.630668
 30
0.0
 10
242.333750
 20
389.919148
 30
0.0
 10
243.589574
 20
391.270668
 30
0.0
 10
244.867182
 20
392.643892
 30
0.0
 10
246.128086
 20
393.997476
 30
0.0
 10
247.333790
 20
395.290068
 30
0.0
 10
248.445814
 20
396.480332
 30
0.0
 10
249.425662
 20
397.526924
 30
0.0
 10
250.313134
 20
398.479772
 30
0.0
 10
251.160406
 20
399.401372
 30
0.0
 10
251.947558
 20
400.269228
 30
0.0
 10
252.654654
 20
401.060828
 30
0.0
 10
253.261774
 20
401.753660
 30
0.0
 10
253.748990
 20
402.325212
 30
0.0
 10
254.096374
 20
402.752996
 30
0.0
 10
254.283998
 20
403.014484
 30
0.0
 10
254.155366
 20
403.394924
 30
0.0
 10
253.561718
 20
404.141244
 30
0.0
 10
252.528070
 20
405.229788
 30
0.0
 10
251.079454
 20
406.636892
 30
0.0
 10
249.240878
 20
408.338884
 30
0.0
 10
247.037358
 20
410.312108
 30
0.0
 10
244.493926
 20
412.532900
 30
0.0
 10
241.635598
 20
414.977588
 30
0.0
 10
219.145694
 20
434.093652
 30
0.0
 10
199.989542
 20
450.514116
 30
0.0
 10
183.619806
 20
464.728636
 30
0.0
 10
169.489134
 20
477.226908
 30
0.0
 10
157.050166
 20
488.498596
 30
0.0
 10
145.755566
 20
499.033372
 30
0.0
 10
135.057982
 20
509.320908
 30
0.0
 10
124.410054
 20
519.850892
 30
0.0
 10
115.214270
 20
529.154980
 30
0.0
 10
106.818486
 20
537.870436
 30
0.0
 10
99.102678
 20
546.133196
 30
0.0
 10
91.946854
 20
554.079164
 30
0.0
 10
85.230998
 20
561.844276
 30
0.0
 10
78.835084
 20
569.564452
 30
0.0
 10
72.639114
 20
577.375620
 30
0.0
 10
66.523072
 20
585.413692
 30
0.0
 10
57.169230
 20
598.408836
 30
0.0
 10
48.666052
 20
611.195468
 30
0.0
 10
40.978752
 20
623.840508
 30
0.0
 10
34.072539
 20
636.410868
 30
0.0
 10
27.912625
 20
648.973460
 30
0.0
 10
22.464220
 20
661.595188
 30
0.0
 10
17.692534
 20
674.342972
 30
0.0
 10
13.562781
 20
687.283724
 30
0.0
 10
13.145296
 20
688.727436
 30
0.0
 10
12.763078
 20
690.081548
 30
0.0
 10
12.423973
 20
691.315900
 30
0.0
 10
12.135826
 20
692.400348
 30
0.0
 10
11.906484
 20
693.304724
 30
0.0
 10
11.743794
 20
693.998884
 30
0.0
 10
11.655599
 20
694.452668
 30
0.0
 10
11.649759
 20
694.635916
 30
0.0
 10
12.313921
 20
694.550524
 30
0.0
 10
13.964237
 20
694.141668
 30
0.0
 10
16.381334
 20
693.474244
 30
0.0
 10
19.345835
 20
692.613140
 30
0.0
 10
22.638368
 20
691.623268
 30
0.0
 10
26.039556
 20
690.569500
 30
0.0
 10
29.330025
 20
689.516756
 30
0.0
 10
32.290401
 20
688.529916
 30
0.0
 10
51.152965
 20
681.173796
 30
0.0
 10
70.342014
 20
671.918508
 30
0.0
 10
89.834752
 20
660.780020
 30
0.0
 10
109.608368
 20
647.774276
 30
0.0
 10
129.640080
 20
632.917236
 30
0.0
 10
149.907064
 20
616.224868
 30
0.0
 10
170.386544
 20
597.713132
 30
0.0
 10
191.055704
 20
577.397972
 30
0.0
 10
200.662888
 20
567.469268
 30
0.0
 10
210.235056
 20
557.330972
 30
0.0
 10
220.119432
 20
546.592748
 30
0.0
 10
230.663216
 20
534.864276
 30
0.0
 10
242.213632
 20
521.755212
 30
0.0
 10
255.117904
 20
506.875244
 30
0.0
 10
269.723232
 20
489.834028
 30
0.0
 10
286.376848
 20
470.241236
 30
0.0
 10
288.901776
 20
467.273588
 30
0.0
 10
291.277152
 20
464.505036
 30
0.0
 10
293.449560
 20
461.996172
 30
0.0
 10
295.365592
 20
459.807588
 30
0.0
 10
296.971848
 20
457.999876
 30
0.0
 10
298.214912
 20
456.633636
 30
0.0
 10
299.041392
 20
455.769460
 30
0.0
 10
299.397872
 20
455.467932
 30
0.0
 10
299.785888
 20
455.805932
 30
0.0
 10
300.702736
 20
456.774660
 30
0.0
 10
302.088680
 20
458.306188
 30
0.0
 10
303.883984
 20
460.332596
 30
0.0
 10
306.028888
 20
462.785948
 30
0.0
 10
308.463664
 20
465.598332
 30
0.0
 10
311.128560
 20
468.701820
 30
0.0
 10
313.963832
 20
472.028484
 30
0.0
 10
316.969704
 20
475.568236
 30
0.0
 10
320.123552
 20
479.282444
 30
0.0
 10
323.331344
 20
483.060356
 30
0.0
 10
326.499048
 20
486.791228
 30
0.0
 10
329.532640
 20
490.364308
 30
0.0
 10
332.338096
 20
493.668868
 30
0.0
 10
334.821384
 20
496.594140
 30
0.0
 10
336.888480
 20
499.029388
 30
0.0
 10
350.033736
 20
514.343924
 30
0.0
 10
363.073984
 20
529.197212
 30
0.0
 10
375.888928
 20
543.460284
 30
0.0
 10
388.358288
 20
557.004164
 30
0.0
 10
400.361768
 20
569.699884
 30
0.0
 10
411.779080
 20
581.418468
 30
0.0
 10
422.489944
 20
592.030948
 30
0.0
 10
432.374064
 20
601.408356
 30
0.0
 10
450.855936
 20
617.888260
 30
0.0
 10
468.884152
 20
632.725132
 30
0.0
 10
486.549240
 20
645.976460
 30
0.0
 10
503.941704
 20
657.699732
 30
0.0
 10
521.152056
 20
667.952412
 30
0.0
 10
538.270800
 20
676.792004
 30
0.0
 10
555.388456
 20
684.275972
 30
0.0
 10
572.595528
 20
690.461812
 30
0.0
 10
577.241752
 20
691.949188
 30
0.0
 10
580.824552
 20
693.075012
 30
0.0
 10
583.473368
 20
693.870372
 30
0.0
 10
585.317656
 20
694.366348
 30
0.0
 10
586.486864
 20
694.594028
 30
0.0
 10
587.110448
 20
694.584508
 30
0.0
 10
587.317856
 20
694.368852
 30
0.0
 10
587.238496
 20
693.978156
 30
0.0
 10
587.132912
 20
693.673564
 30
0.0
 10
586.974984
 20
693.177636
 30
0.0
 10
586.772424
 20
692.516364
 30
0.0
 10
586.532936
 20
691.715748
 30
0.0
 10
586.264224
 20
690.801788
 30
0.0
 10
585.973992
 20
689.800468
 30
0.0
 10
585.669952
 20
688.737804
 30
0.0
 10
585.359800
 20
687.639780
 30
0.0
 10
577.843544
 20
665.197596
 30
0.0
 10
567.810920
 20
642.515340
 30
0.0
 10
555.234240
 20
619.553500
 30
0.0
 10
540.085816
 20
596.272604
 30
0.0
 10
522.337952
 20
572.633140
 30
0.0
 10
501.962952
 20
548.595612
 30
0.0
 10
478.933136
 20
524.120548
 30
0.0
 10
453.220816
 20
499.168428
 30
0.0
 10
444.145560
 20
490.753860
 30
0.0
 10
435.652624
 20
482.967692
 30
0.0
 10
427.383320
 20
475.493140
 30
0.0
 10
418.978976
 20
468.013412
 30
0.0
 10
410.080912
 20
460.211732
 30
0.0
 10
400.330448
 20
451.771316
 30
0.0
 10
389.368912
 20
442.375380
 30
0.0
 10
376.837616
 20
431.707148
 30
0.0
 10
365.172496
 20
421.804564
 30
0.0
 10
356.650296
 20
414.557004
 30
0.0
 10
350.797696
 20
409.530244
 30
0.0
 10
347.141384
 20
406.290052
 30
0.0
 10
345.208048
 20
404.402204
 30
0.0
 10
344.524376
 20
403.432484
 30
0.0
 10
344.617056
 20
402.946660
 30
0.0
 10
345.012776
 20
402.510516
 30
0.0
 10
346.540632
 20
400.617660
 30
0.0
 10
349.329608
 20
397.495252
 30
0.0
 10
353.356336
 20
393.167652
 30
0.0
 10
358.597456
 20
387.659220
 30
0.0
 10
365.029592
 20
380.994340
 30
0.0
 10
372.629400
 20
373.197356
 30
0.0
 10
381.373496
 20
364.292636
 30
0.0
 10
391.238528
 20
354.304556
 30
0.0
 10
397.471112
 20
348.000220
 30
0.0
 10
403.568192
 20
341.814868
 30
0.0
 10
409.376120
 20
335.905620
 30
0.0
 10
414.741240
 20
330.429580
 30
0.0
 10
419.509896
 20
325.543860
 30
0.0
 10
423.528440
 20
321.405572
 30
0.0
 10
426.643216
 20
318.171812
 30
0.0
 10
428.700576
 20
315.999708
 30
0.0
 10
429.595984
 20
315.036732
 30
0.0
 10
430.491400
 20
314.073756
 30
0.0
 10
431.386808
 20
313.110780
 30
0.0
 10
432.282224
 20
312.147796
 30
0.0
 10
433.177632
 20
311.184820
 30
0.0
 10
434.073048
 20
310.221844
 30
0.0
 10
434.968456
 20
309.258868
 30
0.0
 10
435.863872
 20
308.295892
 30
0.0
 10
436.358888
 20
308.391740
 30
0.0
 10
436.853904
 20
308.487580
 30
0.0
 10
437.348920
 20
308.583428
 30
0.0
 10
437.843936
 20
308.679268
 30
0.0
 10
438.338960
 20
308.775116
 30
0.0
 10
438.833976
 20
308.870964
 30
0.0
 10
439.328992
 20
308.966804
 30
0.0
 10
439.824008
 20
309.062652
 30
0.0
 10
442.252064
 20
309.388460
 30
0.0
 10
445.253736
 20
309.531716
 30
0.0
 10
448.857432
 20
309.490436
 30
0.0
 10
453.091536
 20
309.262556
 30
0.0
 10
457.984448
 20
308.846108
 30
0.0
 10
463.564576
 20
308.239084
 30
0.0
 10
469.860312
 20
307.439476
 30
0.0
 10
476.900048
 20
306.445276
 30
0.0
 10
480.432864
 20
305.934564
 30
0.0
 10
483.849616
 20
305.458124
 30
0.0
 10
487.066872
 20
305.026364
 30
0.0
 10
490.001208
 20
304.649732
 30
0.0
 10
492.569192
 20
304.338636
 30
0.0
 10
494.687384
 20
304.103516
 30
0.0
 10
496.272376
 20
303.954796
 30
0.0
 10
497.240728
 20
303.902876
 30
0.0
 10
497.856480
 20
303.894556
 30
0.0
 10
498.430928
 20
303.870636
 30
0.0
 10
498.951488
 20
303.832876
 30
0.0
 10
499.405592
 20
303.782876
 30
0.0
 10
499.780672
 20
303.722316
 30
0.0
 10
500.064152
 20
303.652956
 30
0.0
 10
500.243464
 20
303.576396
 30
0.0
 10
500.306024
 20
303.494324
 30
0.0
 10
500.239384
 20
303.330412
 30
0.0
 10
500.048328
 20
303.019300
 30
0.0
 10
499.746272
 20
302.579108
 30
0.0
 10
499.346608
 20
302.027948
 30
0.0
 10
498.862744
 20
301.383964
 30
0.0
 10
498.308072
 20
300.665252
 30
0.0
 10
497.695976
 20
299.889948
 30
0.0
 10
497.039872
 20
299.076172
 30
0.0
 10
495.354984
 20
296.912020
 30
0.0
 10
493.733008
 20
294.638500
 30
0.0
 10
492.188504
 20
292.280932
 30
0.0
 10
490.736032
 20
289.864628
 30
0.0
 10
489.390144
 20
287.414892
 30
0.0
 10
488.165384
 20
284.957036
 30
0.0
 10
487.076328
 20
282.516372
 30
0.0
 10
486.137512
 20
280.118212
 30
0.0
 10
485.561000
 20
278.467164
 30
0.0
 10
485.107936
 20
276.989876
 30
0.0
 10
484.763424
 20
275.578604
 30
0.0
 10
484.512520
 20
274.125620
 30
0.0
 10
484.340328
 20
272.523164
 30
0.0
 10
484.231912
 20
270.663508
 30
0.0
 10
484.172392
 20
268.438908
 30
0.0
 10
484.146792
 20
265.741620
 30
0.0
 10
484.149992
 20
263.148964
 30
0.0
 10
484.191592
 20
260.953740
 30
0.0
 10
484.281592
 20
259.070492
 30
0.0
 10
484.429768
 20
257.413764
 30
0.0
 10
484.645936
 20
255.898100
 30
0.0
 10
484.939912
 20
254.438036
 30
0.0
 10
485.321520
 20
252.948124
 30
0.0
 10
485.800560
 20
251.342892
 30
0.0
 10
488.378008
 20
244.292748
 30
0.0
 10
491.714856
 20
237.343772
 30
0.0
 10
495.969688
 20
230.293124
 30
0.0
 10
501.301080
 20
222.937972
 30
0.0
 10
507.867632
 20
215.075484
 30
0.0
 10
515.827912
 20
206.502844
 30
0.0
 10
525.340504
 20
197.017196
 30
0.0
 10
536.564008
 20
186.415732
 30
0.0
 10
540.348032
 20
182.928916
 30
0.0
 10
543.360456
 20
180.204884
 30
0.0
 10
545.765544
 20
178.119740
 30
0.0
 10
547.727584
 20
176.549588
 30
0.0
 10
549.410840
 20
175.370556
 30
0.0
 10
550.979584
 20
174.458732
 30
0.0
 10
552.598096
 20
173.690236
 30
0.0
 10
554.430648
 20
172.941180
 30
0.0
 10
555.615360
 20
172.490660
 30
0.0
 10
556.785840
 20
172.070372
 30
0.0
 10
557.911808
 20
171.689500
 30
0.0
 10
558.962984
 20
171.357252
 30
0.0
 10
559.909072
 20
171.082820
 30
0.0
 10
560.719800
 20
170.875412
 30
0.0
 10
561.364880
 20
170.744220
 30
0.0
 10
561.814024
 20
170.698460
 30
0.0
 10
562.296264
 20
170.667900
 30
0.0
 10
563.036184
 20
170.580204
 30
0.0
 10
563.996856
 20
170.441548
 30
0.0
 10
565.141344
 20
170.258100
 30
0.0
 10
566.432712
 20
170.035996
 30
0.0
 10
567.834032
 20
169.781388
 30
0.0
 10
569.308368
 20
169.500420
 30
0.0
 10
570.818784
 20
169.199252
 30
0.0
 10
572.491456
 20
168.879700
 30
0.0
 10
574.167928
 20
168.600796
 30
0.0
 10
575.821312
 20
168.365356
 30
0.0
 10
577.424720
 20
168.176220
 30
0.0
 10
578.951272
 20
168.036212
 30
0.0
 10
580.374088
 20
167.948156
 30
0.0
 10
581.666272
 20
167.914876
 30
0.0
 10
582.800944
 20
167.939196
 30
0.0
 10
583.379840
 20
167.969116
 30
0.0
 10
583.958736
 20
167.999036
 30
0.0
 10
584.537632
 20
168.028956
 30
0.0
 10
585.116528
 20
168.058876
 30
0.0
 10
585.695424
 20
168.088796
 30
0.0
 10
586.274320
 20
168.118716
 30
0.0
 10
586.853216
 20
168.148636
 30
0.0
 10
587.432112
 20
168.178556
 30
0.0
 10
587.431912
 20
167.900444
 30
0.0
 10
587.431712
 20
167.622332
 30
0.0
 10
587.431512
 20
167.344220
 30
0.0
 10
587.431312
 20
167.066100
 30
0.0
 10
587.431112
 20
166.787988
 30
0.0
 10
587.430912
 20
166.509876
 30
0.0
 10
587.430712
 20
166.231764
 30
0.0
 10
587.430512
 20
165.953652
 30
0.0
 10
587.317672
 20
164.485548
 30
0.0
 10
587.006032
 20
162.575772
 30
0.0
 10
586.533224
 20
160.364572
 30
0.0
 10
585.936864
 20
157.992212
 30
0.0
 10
585.254576
 20
155.598940
 30
0.0
 10
584.523992
 20
153.325020
 30
0.0
 10
583.782728
 20
151.310684
 30
0.0
 10
583.068408
 20
149.696204
 30
0.0
 10
580.729736
 20
145.457476
 30
0.0
 10
578.112688
 20
141.481188
 30
0.0
 10
575.220080
 20
137.770148
 30
0.0
 10
572.054704
 20
134.327156
 30
0.0
 10
568.619360
 20
131.155028
 30
0.0
 10
564.916864
 20
128.256556
 30
0.0
 10
560.950008
 20
125.634572
 30
0.0
 10
556.721600
 20
123.291860
 30
0.0
 10
555.049488
 20
122.538548
 30
0.0
 10
553.027144
 20
121.772020
 30
0.0
 10
550.781416
 20
121.027276
 30
0.0
 10
548.439160
 20
120.339316
 30
0.0
 10
546.127232
 20
119.743132
 30
0.0
 10
543.972480
 20
119.273732
 30
0.0
 10
542.101752
 20
118.966108
 30
0.0
 10
540.641912
 20
118.855284
 30
0.0
 10
540.325088
 20
118.855084
 30
0.0
 10
540.008272
 20
118.854884
 30
0.0
 10
539.691448
 20
118.854684
 30
0.0
 10
539.374632
 20
118.854484
 30
0.0
 10
539.057808
 20
118.854284
 30
0.0
 10
538.740992
 20
118.854084
 30
0.0
 10
538.424168
 20
118.853884
 30
0.0
 10
538.107352
 20
118.853684
 30
0.0
 10
538.135752
 20
119.461404
 30
0.0
 10
538.164152
 20
120.069132
 30
0.0
 10
538.192552
 20
120.676852
 30
0.0
 10
538.220952
 20
121.284580
 30
0.0
 10
538.249352
 20
121.892300
 30
0.0
 10
538.277752
 20
122.500028
 30
0.0
 10
538.306152
 20
123.107748
 30
0.0
 10
538.334552
 20
123.715476
 30
0.0
 10
538.360152
 20
124.919700
 30
0.0
 10
538.330312
 20
126.219348
 30
0.0
 10
538.246624
 20
127.600300
 30
0.0
 10
538.110632
 20
129.048404
 30
0.0
 10
537.923880
 20
130.549548
 30
0.0
 10
537.687912
 20
132.089588
 30
0.0
 10
537.404280
 20
133.654404
 30
0.0
 10
537.074520
 20
135.229860
 30
0.0
 10
536.775776
 20
136.610028
 30
0.0
 10
536.497072
 20
137.982396
 30
0.0
 10
536.244520
 20
139.310876
 30
0.0
 10
536.024208
 20
140.559348
 30
0.0
 10
535.842240
 20
141.691724
 30
0.0
 10
535.704712
 20
142.671892
 30
0.0
 10
535.617720
 20
143.463764
 30
0.0
 10
535.587400
 20
144.031220
 30
0.0
 10
535.542200
 20
144.576684
 30
0.0
 10
535.412656
 20
145.305516
 30
0.0
 10
535.207848
 20
146.186028
 30
0.0
 10
534.936864
 20
147.186548
 30
0.0
 10
534.608784
 20
148.275396
 30
0.0
 10
534.232696
 20
149.420892
 30
0.0
 10
533.817672
 20
150.591348
 30
0.0
 10
533.372808
 20
151.755092
 30
0.0
 10
532.363800
 20
154.045908
 30
0.0
 10
531.085616
 20
156.341500
 30
0.0
 10
529.342240
 20
158.873716
 30
0.0
 10
526.937624
 20
161.874380
 30
0.0
 10
523.675768
 20
165.575324
 30
0.0
 10
519.360632
 20
170.208396
 30
0.0
 10
513.796200
 20
176.005412
 30
0.0
 10
506.786440
 20
183.198220
 30
0.0
 10
499.136384
 20
190.830932
 30
0.0
 10
492.149536
 20
197.388100
 30
0.0
 10
485.677912
 20
202.977156
 30
0.0
 10
479.573504
 20
207.705532
 30
0.0
 10
473.688336
 20
211.680660
 30
0.0
 10
467.874408
 20
215.009956
 30
0.0
 10
461.983744
 20
217.800860
 30
0.0
 10
455.868344
 20
220.160796
 30
0.0
 10
454.154992
 20
220.734044
 30
0.0
 10
452.624392
 20
221.184876
 30
0.0
 10
451.169152
 20
221.527772
 30
0.0
 10
449.681864
 20
221.777212
 30
0.0
 10
448.055128
 20
221.947692
 30
0.0
 10
446.181544
 20
222.053676
 30
0.0
 10
443.953720
 20
222.109676
 30
0.0
 10
441.264256
 20
222.130156
 30
0.0
 10
438.074992
 20
222.108236
 30
0.0
 10
435.359752
 20
222.007716
 30
0.0
 10
432.987048
 20
221.803100
 30
0.0
 10
430.825416
 20
221.468868
 30
0.0
 10
428.743368
 20
220.979508
 30
0.0
 10
426.609432
 20
220.309508
 30
0.0
 10
424.292144
 20
219.433348
 30
0.0
 10
421.660008
 20
218.325516
 30
0.0
 10
419.958144
 20
217.526684
 30
0.0
 10
418.105120
 20
216.551308
 30
0.0
 10
416.150776
 20
215.431044
 30
0.0
 10
414.144928
 20
214.197524
 30
0.0
 10
412.137416
 20
212.882396
 30
0.0
 10
410.178072
 20
211.517308
 30
0.0
 10
408.316712
 20
210.133900
 30
0.0
 10
406.603176
 20
208.763812
 30
0.0
 10
405.925280
 20
208.204540
 30
0.0
 10
405.279416
 20
207.682796
 30
0.0
 10
404.680680
 20
207.209988
 30
0.0
 10
404.144176
 20
206.797540
 30
0.0
 10
403.684992
 20
206.456868
 30
0.0
 10
403.318232
 20
206.199388
 30
0.0
 10
403.058984
 20
206.036532
 30
0.0
 10
402.922360
 20
205.979732
 30
0.0
 10
402.843720
 20
206.093628
 30
0.0
 10
402.750600
 20
206.420044
 30
0.0
 10
402.646472
 20
206.936100
 30
0.0
 10
402.534792
 20
207.618908
 30
0.0
 10
402.418992
 20
208.445580
 30
0.0
 10
402.302544
 20
209.393236
 30
0.0
 10
402.188880
 20
210.438972
 30
0.0
 10
402.081456
 20
211.559916
 30
0.0
 10
401.935872
 20
212.982124
 30
0.0
 10
401.712848
 20
214.891292
 30
0.0
 10
401.423488
 20
217.204004
 30
0.0
 10
401.078928
 20
219.836820
 30
0.0
 10
400.690264
 20
222.706316
 30
0.0
 10
400.268632
 20
225.729060
 30
0.0
 10
399.825144
 20
228.821628
 30
0.0
 10
399.370912
 20
231.900596
 30
0.0
 10
398.606192
 20
237.533268
 30
0.0
 10
397.974160
 20
243.248612
 30
0.0
 10
397.484408
 20
248.857388
 30
0.0
 10
397.146536
 20
254.170348
 30
0.0
 10
396.970136
 20
258.998252
 30
0.0
 10
396.964536
 20
263.151868
 30
0.0
 10
397.139880
 20
266.441932
 30
0.0
 10
397.505488
 20
268.679220
 30
0.0
 10
397.619008
 20
269.283452
 30
0.0
 10
397.561888
 20
269.881692
 30
0.0
 10
397.271592
 20
270.549236
 30
0.0
 10
396.685688
 20
271.361412
 30
0.0
 10
395.741704
 20
272.393508
 30
0.0
 10
394.377160
 20
273.720844
 30
0.0
 10
392.529600
 20
275.418724
 30
0.0
 10
390.136552
 20
277.562452
 30
0.0
 10
387.944800
 20
279.579020
 30
0.0
 10
384.727784
 20
282.630308
 30
0.0
 10
380.639736
 20
286.565860
 30
0.0
 10
375.834896
 20
291.235244
 30
0.0
 10
370.467504
 20
296.488004
 30
0.0
 10
364.691792
 20
302.173708
 30
0.0
 10
358.661992
 20
308.141900
 30
0.0
 10
352.532352
 20
314.242148
 30
0.0
 10
346.324968
 20
320.416868
 30
0.0
 10
340.072352
 20
326.598500
 30
0.0
 10
333.944376
 20
332.621636
 30
0.0
 10
328.110896
 20
338.320868
 30
0.0
 10
322.741768
 20
343.530788
 30
0.0
 10
318.006856
 20
348.085988
 30
0.0
 10
314.076016
 20
351.821052
 30
0.0
 10
311.119104
 20
354.570580
 30
0.0
 10
309.656480
 20
355.904892
 30
0.0
 10
308.193864
 20
357.239212
 30
0.0
 10
306.731240
 20
358.573524
 30
0.0
 10
305.268616
 20
359.907844
 30
0.0
 10
303.805992
 20
361.242156
 30
0.0
 10
302.343376
 20
362.576476
 30
0.0
 10
300.880752
 20
363.910788
 30
0.0
 10
299.418128
 20
365.245108
 30
0.0
 10
298.091392
 20
364.043812
 30
0.0
 10
296.764656
 20
362.842516
 30
0.0
 10
295.437920
 20
361.641220
 30
0.0
 10
294.111176
 20
360.439924
 30
0.0
 10
292.784440
 20
359.238636
 30
0.0
 10
291.457704
 20
358.037340
 30
0.0
 10
290.130968
 20
356.836044
 30
0.0
 10
288.804232
 20
355.634748
 30
0.0
 10
286.054784
 20
353.089084
 30
0.0
 10
282.296392
 20
349.525036
 30
0.0
 10
277.696648
 20
345.105660
 30
0.0
 10
272.423144
 20
339.993972
 30
0.0
 10
266.643488
 20
334.353028
 30
0.0
 10
260.525256
 20
328.345844
 30
0.0
 10
254.236048
 20
322.135468
 30
0.0
 10
247.943456
 20
315.884940
 30
0.0
 10
241.695536
 20
309.676092
 30
0.0
 10
235.534368
 20
303.585172
 30
0.0
 10
229.618568
 20
297.766860
 30
0.0
 10
224.106744
 20
292.375796
 30
0.0
 10
219.157512
 20
287.566652
 30
0.0
 10
214.929496
 20
283.494092
 30
0.0
 10
211.581296
 20
280.312764
 30
0.0
 10
209.271536
 20
278.177340
 30
0.0
 10
206.589360
 20
275.758244
 30
0.0
 10
204.553976
 20
273.882060
 30
0.0
 10
203.083720
 20
272.447532
 30
0.0
 10
202.096928
 20
271.353388
 30
0.0
 10
201.511952
 20
270.498372
 30
0.0
 10
201.247120
 20
269.781228
 30
0.0
 10
201.220800
 20
269.100684
 30
0.0
 10
201.351296
 20
268.355476
 30
0.0
 10
201.726664
 20
265.788340
 30
0.0
 10
201.904720
 20
262.390660
 30
0.0
 10
201.890320
 20
258.246876
 30
0.0
 10
201.688344
 20
253.441428
 30
0.0
 10
201.303648
 20
248.058748
 30
0.0
 10
200.741088
 20
242.183276
 30
0.0
 10
200.005536
 20
235.899444
 30
0.0
 10
199.101856
 20
229.291700
 30
0.0
 10
198.570320
 20
225.604620
 30
0.0
 10
198.074448
 20
222.061868
 30
0.0
 10
197.625096
 20
218.748356
 30
0.0
 10
197.233104
 20
215.748988
 30
0.0
 10
196.909328
 20
213.148660
 30
0.0
 10
196.664624
 20
211.032284
 30
0.0
 10
196.509848
 20
209.484764
 30
0.0
 10
196.455848
 20
208.591004
 30
0.0
 10
196.445768
 20
208.066452
 30
0.0
 10
196.416888
 20
207.577092
 30
0.0
 10
196.371208
 20
207.133636
 30
0.0
 10
196.310808
 20
206.746796
 30
0.0
 10
196.237688
 20
206.427268
 30
0.0
 10
196.153856
 20
206.185780
 30
0.0
 10
196.061336
 20
206.033028
 30
0.0
 10
195.962168
 20
205.979748
 30
0.0
 10
195.793832
 20
206.038068
 30
0.0
 10
195.503080
 20
206.205220
 30
0.0
 10
195.105840
 20
206.469484
 30
0.0
 10
194.618040
 20
206.819132
 30
0.0
 10
194.055592
 20
207.242452
 30
0.0
 10
193.434432
 20
207.727724
 30
0.0
 10
192.770480
 20
208.263228
 30
0.0
 10
192.079656
 20
208.837236
 30
0.0
 10
190.021712
 20
210.491036
 30
0.0
 10
187.841728
 20
212.088316
 30
0.0
 10
185.560264
 20
213.617020
 30
0.0
 10
183.197864
 20
215.065116
 30
0.0
 10
180.775088
 20
216.420556
 30
0.0
 10
178.312488
 20
217.671308
 30
0.0
 10
175.830616
 20
218.805316
 30
0.0
 10
173.350032
 20
219.810540
 30
0.0
 10
171.419464
 20
220.525684
 30
0.0
 10
169.782112
 20
221.075100
 30
0.0
 10
168.291872
 20
221.480596
 30
0.0
 10
166.802672
 20
221.764004
 30
0.0
 10
165.168424
 20
221.947132
 30
0.0
 10
163.243040
 20
222.051804
 30
0.0
 10
160.880440
 20
222.099804
 30
0.0
 10
157.934536
 20
222.113004
 30
0.0
 10
155.102608
 20
222.103084
 30
0.0
 10
152.781080
 20
222.057164
 30
0.0
 10
150.852096
 20
221.959932
 30
0.0
 10
149.197808
 20
221.796076
 30
0.0
 10
147.700352
 20
221.550268
 30
0.0
 10
146.241880
 20
221.207204
 30
0.0
 10
144.704544
 20
220.751580
 30
0.0
 10
142.970488
 20
220.168076
 30
0.0
 10
136.843976
 20
217.797500
 30
0.0
 10
130.947520
 20
215.000340
 30
0.0
 10
125.132056
 20
211.668380
 30
0.0
 10
119.248520
 20
207.693364
 30
0.0
 10
113.147840
 20
202.967076
 30
0.0
 10
106.680960
 20
197.381276
 30
0.0
 10
99.698816
 20
190.827732
 30
0.0
 10
92.052328
 20
183.198212
 30
0.0
 10
85.042576
 20
176.005412
 30
0.0
 10
79.478146
 20
170.208396
 30
0.0
 10
75.163014
 20
165.575332
 30
0.0
 10
71.901159
 20
161.874380
 30
0.0
 10
69.496555
 20
158.873716
 30
0.0
 10
67.753180
 20
156.341500
 30
0.0
 10
66.475009
 20
154.045900
 30
0.0
 10
65.466018
 20
151.755084
 30
0.0
 10
65.021140
 20
150.591340
 30
0.0
 10
64.606109
 20
149.420884
 30
0.0
 10
64.230008
 20
148.275388
 30
0.0
 10
63.901920
 20
147.186540
 30
0.0
 10
63.630930
 20
146.186020
 30
0.0
 10
63.426119
 20
145.305508
 30
0.0
 10
63.296571
 20
144.576676
 30
0.0
 10
63.251371
 20
144.031212
 30
0.0
 10
63.221019
 20
143.463756
 30
0.0
 10
63.134030
 20
142.671884
 30
0.0
 10
62.996505
 20
141.691708
 30
0.0
 10
62.814541
 20
140.559316
 30
0.0
 10
62.594240
 20
139.310820
 30
0.0
 10
62.341701
 20
137.982308
 30
0.0
 10
62.063023
 20
136.609892
 30
0.0
 10
61.764307
 20
135.229660
 30
0.0
 10
61.434557
 20
133.654204
 30
0.0
 10
61.150925
 20
132.089388
 30
0.0
 10
60.914959
 20
130.549348
 30
0.0
 10
60.728206
 20
129.048204
 30
0.0
 10
60.592214
 20
127.600100
 30
0.0
 10
60.508530
 20
126.219156
 30
0.0
 10
60.478698
 20
124.919508
 30
0.0
 10
60.504266
 20
123.715284
 30
0.0
 10
60.532642
 20
123.107564
 30
0.0
 10
60.561018
 20
122.499836
 30
0.0
 10
60.589394
 20
121.892116
 30
0.0
 10
60.617770
 20
121.284388
 30
0.0
 10
60.646146
 20
120.676668
 30
0.0
 10
60.674522
 20
120.068940
 30
0.0
 10
60.702898
 20
119.461220
 30
0.0
 10
60.731274
 20
118.853492
 30
0.0
 10
60.416262
 20
118.858292
 30
0.0
 10
60.101251
 20
118.863092
 30
0.0
 10
59.786241
 20
118.867892
 30
0.0
 10
59.471230
 20
118.872692
 30
0.0
 10
59.156218
 20
118.877492
 30
0.0
 10
58.841207
 20
118.882292
 30
0.0
 10
58.526197
 20
118.887092
 30
0.0
 10
58.211186
 20
118.891892
 30
0.0
 10
57.599836
 20
118.927732
 30
0.0
 10
56.826295
 20
119.014444
 30
0.0
 10
55.922023
 20
119.146316
 30
0.0
 10
54.918479
 20
119.317636
 30
0.0
 10
53.847123
 20
119.522700
 30
0.0
 10
52.739413
 20
119.755804
 30
0.0
 10
51.626809
 20
120.011236
 30
0.0
 10
50.540770
 20
120.283292
 30
0.0
 10
50.540790
 20
120.283308
 30
0.0
 10
50.540810
 20
120.283332
 30
0.0
 10
50.540830
 20
120.283348
 30
0.0
 10
50.540850
 20
120.283372
 30
0.0
 10
50.540870
 20
120.283388
 30
0.0
 10
50.540890
 20
120.283404
 30
0.0
 10
50.540910
 20
120.283428
 30
0.0
 10
50.540778
 20
120.286236
 30
0.0
  0
ENDSEC
  0
SECTION
  2
OBJECTS
  0
DICTIONARY
  5
C
330
0
100
AcDbDictionary
  3
ACAD_GROUP
350
D
  3
ACAD_MLINESTYLE
350
17
  0
DICTIONARY
  5
D
330
C
100
AcDbDictionary
  0
DICTIONARY
  5
1A
330
C
100
AcDbDictionary
  0
DICTIONARY
  5
17
330
C
100
AcDbDictionary
  3
STANDARD
350
18
  0
DICTIONARY
  5
19
330
C
100
AcDbDictionary
  0
ENDSEC
  0
EOF
