  0
SECTION
  2
HEADER
  9
$ACADVER
  1
AC1014
  9
$HANDSEED
  5
FFFF
  9
$MEASUREMENT
 70
     1
  0
ENDSEC
  0
SECTION
  2
TABLES
  0
TABLE
  2
VPORT
  5
8
330
0
100
AcDbSymbolTable
 70
     4
  0
VPORT
  5
2E
330
8
100
AcDbSymbolTableRecord
100
AcDbViewportTableRecord
  2
*ACTIVE
 70
     0
 10
0.0
 20
0.0
 11
1.0
 21
1.0
 12
210.0
 22
148.5
 13
0.0
 23
0.0
 14
10.0
 24
10.0
 15
10.0
 25
10.0
 16
0.0
 26
0.0
 36
1.0
 17
0.0
 27
0.0
 37
0.0
 40
341.0
 41
1.24
 42
50.0
 43
0.0
 44
0.0
 50
0.0
 51
0.0
 71
     0
 72
   100
 73
     1
 74
     3
 75
     0
 76
     0
 77
     0
 78
     0
  0
ENDTAB
  0
TABLE
  2
LTYPE
  5
5
330
0
100
AcDbSymbolTable
 70
     1
  0
LTYPE
  5
14
330
5
100
AcDbSymbolTableRecord
100
AcDbLinetypeTableRecord
  2
BYBLOCK
 70
     0
  3

 72
    65
 73
     0
 40
0.0
  0
LTYPE
  5
15
330
5
100
AcDbSymbolTableRecord
100
AcDbLinetypeTableRecord
  2
BYLAYER
 70
     0
  3

 72
    65
 73
     0
 40
0.0
  0
LTYPE
  5
16
330
5
100
AcDbSymbolTableRecord
100
AcDbLinetypeTableRecord
  2
CONTINUOUS
 70
     0
  3
Solid line
 72
    65
 73
     0
 40
0.0
  0
ENDTAB
  0
TABLE
  2
LAYER
  5
2
100
AcDbSymbolTable
 70
2
  0
LAYER
  5
50
100
AcDbSymbolTableRecord
100
AcDbLayerTableRecord
  2
0
 70
0
  6
CONTINUOUS
  0
LAYER
  5
51
100
AcDbSymbolTableRecord
100
AcDbLayerTableRecord
  2
Layer_1
 70
0
  6
CONTINUOUS
  0
ENDTAB
  0
TABLE
  2
STYLE
  5
3
330
0
100
AcDbSymbolTable
 70
     1
  0
STYLE
  5
11
330
3
100
AcDbSymbolTableRecord
100
AcDbTextStyleTableRecord
  2
STANDARD
 70
     0
 40
0.0
 41
1.0
 50
0.0
 71
     0
 42
2.5
  3
txt
  4

  0
ENDTAB
  0
TABLE
  2
VIEW
  5
6
330
0
100
AcDbSymbolTable
 70
     0
  0
ENDTAB
  0
TABLE
  2
UCS
  5
7
330
0
100
AcDbSymbolTable
 70
     0
  0
ENDTAB
  0
TABLE
  2
APPID
  5
9
330
0
100
AcDbSymbolTable
 70
     2
  0
APPID
  5
12
330
9
100
AcDbSymbolTableRecord
100
AcDbRegAppTableRecord
  2
ACAD
 70
     0
  0
ENDTAB
  0
TABLE
  2
DIMSTYLE
  5
A
330
0
100
AcDbSymbolTable
 70
     1
  0
DIMSTYLE
105
27
330
A
100
AcDbSymbolTableRecord
100
AcDbDimStyleTableRecord
  2
ISO-25
 70
     0
  3

  4

  5

  6

  7

 40
1.0
 41
2.5
 42
0.625
 43
3.75
 44
1.25
 45
0.0
 46
0.0
 47
0.0
 48
0.0
140
2.5
141
2.5
142
0.0
143
0.03937007874016
144
1.0
145
0.0
146
1.0
147
0.625
 71
     0
 72
     0
 73
     0
 74
     0
 75
     0
 76
     0
 77
     1
 78
     8
170
     0
171
     3
172
     1
173
     0
174
     0
175
     0
176
     0
177
     0
178
     0
270
     2
271
     2
272
     2
273
     2
274
     3
340
11
275
     0
280
     0
281
     0
282
     0
283
     0
284
     8
285
     0
286
     0
287
     3
288
     0
  0
ENDTAB
  0
TABLE
  2
BLOCK_RECORD
  5
1
330
0
100
AcDbSymbolTable
 70
     1
  0
BLOCK_RECORD
  5
1F
330
1
100
AcDbSymbolTableRecord
100
AcDbBlockTableRecord
  2
*MODEL_SPACE
  0
BLOCK_RECORD
  5
1B
330
1
100
AcDbSymbolTableRecord
100
AcDbBlockTableRecord
  2
*PAPER_SPACE
  0
ENDTAB
  0
ENDSEC
  0
SECTION
  2
BLOCKS
  0
BLOCK
  5
20
330
1F
100
AcDbEntity
  8
0
100
AcDbBlockBegin
  2
*MODEL_SPACE
 70
     0
 10
0.0
 20
0.0
 30
0.0
  3
*MODEL_SPACE
  1

  0
ENDBLK
  5
21
330
1F
100
AcDbEntity
  8
0
100
AcDbBlockEnd
  0
BLOCK
  5
1C
330
1B
100
AcDbEntity
 67
     1
  8
0
100
AcDbBlockBegin
  2
*PAPER_SPACE
  1

  0
ENDBLK
  5
1D
330
1B
100
AcDbEntity
 67
     1
  8
0
100
AcDbBlockEnd
  0
ENDSEC
  0
SECTION
  2
ENTITIES
  0
LWPOLYLINE
  5
100
100
AcDbEntity
  8
Layer_1
 62
7
100
AcDbPolyline
 90
185
 70
1
 10
-15.794462
 20
-62.004334
 30
0.0
 10
-17.784743
 20
-61.658442
 30
0.0
 10
-20.057077
 20
-61.122587
 30
0.0
 10
-22.643012
 20
-60.388442
 30
0.0
 10
-25.574105
 20
-59.447739
 30
0.0
 10
-30.041094
 20
-58.021783
 30
0.0
 10
-33.630368
 20
-57.173423
 30
0.0
 10
-37.591176
 20
-56.680889
 30
0.0
 10
-43.172761
 20
-56.322269
 30
0.0
 10
-46.408131
 20
-56.111957
 30
0.0
 10
-49.059146
 20
-55.830299
 30
0.0
 10
-51.675515
 20
-55.403354
 30
0.0
 10
-54.806952
 20
-54.757178
 30
0.0
 10
-60.433873
 20
-53.329472
 30
0.0
 10
-64.166854
 20
-51.871117
 30
0.0
 10
-66.237101
 20
-50.259741
 30
0.0
 10
-66.875804
 20
-48.373113
 30
0.0
 10
-66.730843
 20
-47.490350
 30
0.0
 10
-66.363001
 20
-46.518744
 30
0.0
 10
-65.872809
 20
-45.671344
 30
0.0
 10
-65.360812
 20
-45.161396
 30
0.0
 10
-64.956546
 20
-45.087002
 30
0.0
 10
-64.094467
 20
-45.016221
 30
0.0
 10
-62.901153
 20
-44.957124
 30
0.0
 10
-61.503182
 20
-44.917556
 30
0.0
 10
-59.815120
 20
-44.868788
 30
0.0
 10
-57.831953
 20
-44.784517
 30
0.0
 10
-55.800885
 20
-44.676623
 30
0.0
 10
-53.969133
 20
-44.556848
 30
0.0
 10
-50.353894
 20
-44.341597
 30
0.0
 10
-47.523270
 20
-44.291587
 30
0.0
 10
-45.398515
 20
-44.408004
 30
0.0
 10
-43.900903
 20
-44.691778
 30
0.0
 10
-42.924431
 20
-44.893229
 30
0.0
 10
-41.918532
 20
-44.738063
 30
0.0
 10
-40.467074
 20
-44.090137
 30
0.0
 10
-38.153907
 20
-42.813646
 30
0.0
 10
-36.267142
 20
-41.836790
 30
0.0
 10
-34.532203
 20
-41.334124
 30
0.0
 10
-32.213604
 20
-41.187848
 30
0.0
 10
-28.575864
 20
-41.280304
 30
0.0
 10
-27.192981
 20
-41.332798
 30
0.0
 10
-25.810101
 20
-41.385291
 30
0.0
 10
-24.427219
 20
-41.437813
 30
0.0
 10
-23.044336
 20
-41.490334
 30
0.0
 10
-23.079554
 20
-40.462876
 30
0.0
 10
-23.114776
 20
-39.435418
 30
0.0
 10
-23.149991
 20
-38.408016
 30
0.0
 10
-23.185212
 20
-37.380558
 30
0.0
 10
-23.161689
 20
-34.062302
 30
0.0
 10
-22.819220
 20
-31.072468
 30
0.0
 10
-22.116134
 20
-28.176444
 30
0.0
 10
-21.010771
 20
-25.139846
 30
0.0
 10
-18.971528
 20
-20.874594
 30
0.0
 10
-16.642348
 20
-17.122703
 30
0.0
 10
-14.165800
 20
-14.085625
 30
0.0
 10
-11.684465
 20
-11.964725
 30
0.0
 10
-6.916460
 20
-7.943736
 30
0.0
 10
-3.355459
 20
-3.014132
 30
0.0
 10
-1.126465
 20
2.596559
 30
0.0
 10
-0.354488
 20
8.660752
 30
0.0
 10
-0.639064
 20
12.483876
 30
0.0
 10
-1.562147
 20
15.722463
 30
0.0
 10
-3.224600
 20
18.615574
 30
0.0
 10
-5.727279
 20
21.402261
 30
0.0
 10
-6.609027
 20
22.249809
 30
0.0
 10
-7.405387
 20
23.030799
 30
0.0
 10
-8.028919
 20
23.658428
 30
0.0
 10
-8.392179
 20
24.046001
 30
0.0
 10
-8.813675
 20
24.416082
 30
0.0
 10
-9.595788
 20
24.996062
 30
0.0
 10
-10.626854
 20
25.706495
 30
0.0
 10
-11.795210
 20
26.467905
 30
0.0
 10
-17.910181
 20
30.921053
 30
0.0
 10
-22.900656
 20
35.735196
 30
0.0
 10
-26.519502
 20
40.631583
 30
0.0
 10
-28.519587
 20
45.331483
 30
0.0
 10
-28.971055
 20
48.005824
 30
0.0
 10
-28.928025
 20
50.692365
 30
0.0
 10
-28.351318
 20
53.754380
 30
0.0
 10
-27.201790
 20
57.555052
 30
0.0
 10
-25.400190
 20
61.939197
 30
0.0
 10
-23.302812
 20
65.386493
 30
0.0
 10
-20.991859
 20
67.787908
 30
0.0
 10
-18.549523
 20
69.034345
 30
0.0
 10
-17.672764
 20
69.232437
 30
0.0
 10
-17.082982
 20
69.229897
 30
0.0
 10
-16.544352
 20
68.973123
 30
0.0
 10
-15.821051
 20
68.407744
 30
0.0
 10
-14.718168
 20
67.230906
 30
0.0
 10
-14.092124
 20
65.731995
 30
0.0
 10
-13.864168
 20
63.573738
 30
0.0
 10
-13.955539
 20
60.418925
 30
0.0
 10
-14.039066
 20
58.486719
 30
0.0
 10
-14.041860
 20
56.864477
 30
0.0
 10
-13.964607
 20
55.577397
 30
0.0
 10
-13.807929
 20
54.650639
 30
0.0
 10
-12.395755
 20
51.284094
 30
0.0
 10
-9.892301
 20
48.313477
 30
0.0
 10
-5.978162
 20
45.448269
 30
0.0
 10
-0.333937
 20
42.398085
 30
0.0
 10
9.714432
 20
37.127766
 30
0.0
 10
16.922756
 20
32.417694
 30
0.0
 10
22.001210
 20
27.724333
 30
0.0
 10
25.659977
 20
22.504201
 30
0.0
 10
28.670552
 20
15.129187
 30
0.0
 10
29.832974
 20
7.271654
 30
0.0
 10
29.134460
 20
-0.634462
 30
0.0
 10
26.562246
 20
-8.155148
 30
0.0
 10
25.274579
 20
-10.521017
 30
0.0
 10
23.781401
 20
-12.691250
 30
0.0
 10
21.917390
 20
-14.880391
 30
0.0
 10
19.517221
 20
-17.303156
 30
0.0
 10
16.950185
 20
-19.851228
 30
0.0
 10
15.168929
 20
-21.880067
 30
0.0
 10
13.886217
 20
-23.755659
 30
0.0
 10
12.814803
 20
-25.844075
 30
0.0
 10
11.415552
 20
-29.403377
 30
0.0
 10
10.569320
 20
-32.769188
 30
0.0
 10
10.274876
 20
-35.948760
 30
0.0
 10
10.530996
 20
-38.949036
 30
0.0
 10
10.977937
 20
-40.860245
 30
0.0
 10
11.581419
 20
-42.163829
 30
0.0
 10
12.485101
 20
-43.070525
 30
0.0
 10
13.832652
 20
-43.791010
 30
0.0
 10
15.415624
 20
-44.329236
 30
0.0
 10
16.975080
 20
-44.528936
 30
0.0
 10
18.654252
 20
-44.392962
 30
0.0
 10
20.596374
 20
-43.924078
 30
0.0
 10
22.648897
 20
-43.485504
 30
0.0
 10
24.677068
 20
-43.461233
 30
0.0
 10
26.896914
 20
-43.870032
 30
0.0
 10
29.524452
 20
-44.731769
 30
0.0
 10
33.308513
 20
-46.032701
 30
0.0
 10
36.548125
 20
-46.712687
 30
0.0
 10
40.216054
 20
-46.892914
 30
0.0
 10
45.285059
 20
-46.694484
 30
0.0
 10
46.830222
 20
-46.606402
 30
0.0
 10
48.375383
 20
-46.518349
 30
0.0
 10
49.920553
 20
-46.430296
 30
0.0
 10
51.465714
 20
-46.342158
 30
0.0
 10
52.220266
 20
-46.545724
 30
0.0
 10
52.974815
 20
-46.749291
 30
0.0
 10
53.729370
 20
-46.952830
 30
0.0
 10
54.483920
 20
-47.156369
 30
0.0
 10
55.704556
 20
-47.472796
 30
0.0
 10
56.796906
 20
-47.732328
 30
0.0
 10
57.641684
 20
-47.908265
 30
0.0
 10
58.119597
 20
-47.973656
 30
0.0
 10
58.511098
 20
-48.034898
 30
0.0
 10
59.120597
 20
-48.199575
 30
0.0
 10
59.864735
 20
-48.442625
 30
0.0
 10
60.660158
 20
-48.738732
 30
0.0
 10
62.167939
 20
-49.524298
 30
0.0
 10
63.098750
 20
-50.468162
 30
0.0
 10
63.466065
 20
-51.591801
 30
0.0
 10
63.283360
 20
-52.916665
 30
0.0
 10
62.254488
 20
-54.547769
 30
0.0
 10
60.055023
 20
-55.612678
 30
0.0
 10
56.151740
 20
-56.261224
 30
0.0
 10
50.011428
 20
-56.643099
 30
0.0
 10
43.786780
 20
-56.947476
 30
0.0
 10
39.757463
 20
-57.387912
 30
0.0
 10
36.628648
 20
-58.189028
 30
0.0
 10
33.105510
 20
-59.575332
 30
0.0
 10
29.867101
 20
-60.866357
 30
0.0
 10
27.353236
 20
-61.614726
 30
0.0
 10
24.943297
 20
-61.957880
 30
0.0
 10
22.016680
 20
-62.033487
 30
0.0
 10
19.748004
 20
-61.983336
 30
0.0
 10
17.759423
 20
-61.807399
 30
0.0
 10
15.536276
 20
-61.439071
 30
0.0
 10
12.563894
 20
-60.811832
 30
0.0
 10
7.798250
 20
-59.900339
 30
0.0
 10
3.961104
 20
-59.592491
 30
0.0
 10
0.289763
 20
-59.887074
 30
0.0
 10
-3.978458
 20
-60.782678
 30
0.0
 10
-7.332040
 20
-61.493258
 30
0.0
 10
-10.552322
 20
-61.947551
 30
0.0
 10
-13.439665
 20
-62.125012
 30
0.0
 10
-15.794442
 20
-62.004926
 30
0.0
 10
-15.794442
 20
-62.004926
 30
0.0
 10
-15.794442
 20
-62.004926
 30
0.0
 10
-15.794442
 20
-62.004926
 30
0.0
 10
-15.794462
 20
-62.004334
 30
0.0
  0
ENDSEC
  0
SECTION
  2
OBJECTS
  0
DICTIONARY
  5
C
330
0
100
AcDbDictionary
  3
ACAD_GROUP
350
D
  3
ACAD_MLINESTYLE
350
17
  0
DICTIONARY
  5
D
330
C
100
AcDbDictionary
  0
DICTIONARY
  5
1A
330
C
100
AcDbDictionary
  0
DICTIONARY
  5
17
330
C
100
AcDbDictionary
  3
STANDARD
350
18
  0
DICTIONARY
  5
19
330
C
100
AcDbDictionary
  0
ENDSEC
  0
EOF
