  0
SECTION
  2
HEADER
  9
$ACADVER
  1
AC1014
  9
$HANDSEED
  5
FFFF
  9
$MEASUREMENT
 70
     1
  0
ENDSEC
  0
SECTION
  2
TABLES
  0
TABLE
  2
VPORT
  5
8
330
0
100
AcDbSymbolTable
 70
     4
  0
VPORT
  5
2E
330
8
100
AcDbSymbolTableRecord
100
AcDbViewportTableRecord
  2
*ACTIVE
 70
     0
 10
0.0
 20
0.0
 11
1.0
 21
1.0
 12
210.0
 22
148.5
 13
0.0
 23
0.0
 14
10.0
 24
10.0
 15
10.0
 25
10.0
 16
0.0
 26
0.0
 36
1.0
 17
0.0
 27
0.0
 37
0.0
 40
341.0
 41
1.24
 42
50.0
 43
0.0
 44
0.0
 50
0.0
 51
0.0
 71
     0
 72
   100
 73
     1
 74
     3
 75
     0
 76
     0
 77
     0
 78
     0
  0
ENDTAB
  0
TABLE
  2
LTYPE
  5
5
330
0
100
AcDbSymbolTable
 70
     1
  0
LTYPE
  5
14
330
5
100
AcDbSymbolTableRecord
100
AcDbLinetypeTableRecord
  2
BYBLOCK
 70
     0
  3

 72
    65
 73
     0
 40
0.0
  0
LTYPE
  5
15
330
5
100
AcDbSymbolTableRecord
100
AcDbLinetypeTableRecord
  2
BYLAYER
 70
     0
  3

 72
    65
 73
     0
 40
0.0
  0
LTYPE
  5
16
330
5
100
AcDbSymbolTableRecord
100
AcDbLinetypeTableRecord
  2
CONTINUOUS
 70
     0
  3
Solid line
 72
    65
 73
     0
 40
0.0
  0
ENDTAB
  0
TABLE
  2
LAYER
  5
2
100
AcDbSymbolTable
 70
1
  0
LAYER
  5
50
100
AcDbSymbolTableRecord
100
AcDbLayerTableRecord
  2
0
 70
0
  6
CONTINUOUS
  0
ENDTAB
  0
TABLE
  2
STYLE
  5
3
330
0
100
AcDbSymbolTable
 70
     1
  0
STYLE
  5
11
330
3
100
AcDbSymbolTableRecord
100
AcDbTextStyleTableRecord
  2
STANDARD
 70
     0
 40
0.0
 41
1.0
 50
0.0
 71
     0
 42
2.5
  3
txt
  4

  0
ENDTAB
  0
TABLE
  2
VIEW
  5
6
330
0
100
AcDbSymbolTable
 70
     0
  0
ENDTAB
  0
TABLE
  2
UCS
  5
7
330
0
100
AcDbSymbolTable
 70
     0
  0
ENDTAB
  0
TABLE
  2
APPID
  5
9
330
0
100
AcDbSymbolTable
 70
     2
  0
APPID
  5
12
330
9
100
AcDbSymbolTableRecord
100
AcDbRegAppTableRecord
  2
ACAD
 70
     0
  0
ENDTAB
  0
TABLE
  2
DIMSTYLE
  5
A
330
0
100
AcDbSymbolTable
 70
     1
  0
DIMSTYLE
105
27
330
A
100
AcDbSymbolTableRecord
100
AcDbDimStyleTableRecord
  2
ISO-25
 70
     0
  3

  4

  5

  6

  7

 40
1.0
 41
2.5
 42
0.625
 43
3.75
 44
1.25
 45
0.0
 46
0.0
 47
0.0
 48
0.0
140
2.5
141
2.5
142
0.0
143
0.03937007874016
144
1.0
145
0.0
146
1.0
147
0.625
 71
     0
 72
     0
 73
     0
 74
     0
 75
     0
 76
     0
 77
     1
 78
     8
170
     0
171
     3
172
     1
173
     0
174
     0
175
     0
176
     0
177
     0
178
     0
270
     2
271
     2
272
     2
273
     2
274
     3
340
11
275
     0
280
     0
281
     0
282
     0
283
     0
284
     8
285
     0
286
     0
287
     3
288
     0
  0
ENDTAB
  0
TABLE
  2
BLOCK_RECORD
  5
1
330
0
100
AcDbSymbolTable
 70
     1
  0
BLOCK_RECORD
  5
1F
330
1
100
AcDbSymbolTableRecord
100
AcDbBlockTableRecord
  2
*MODEL_SPACE
  0
BLOCK_RECORD
  5
1B
330
1
100
AcDbSymbolTableRecord
100
AcDbBlockTableRecord
  2
*PAPER_SPACE
  0
ENDTAB
  0
ENDSEC
  0
SECTION
  2
BLOCKS
  0
BLOCK
  5
20
330
1F
100
AcDbEntity
  8
0
100
AcDbBlockBegin
  2
*MODEL_SPACE
 70
     0
 10
0.0
 20
0.0
 30
0.0
  3
*MODEL_SPACE
  1

  0
ENDBLK
  5
21
330
1F
100
AcDbEntity
  8
0
100
AcDbBlockEnd
  0
BLOCK
  5
1C
330
1B
100
AcDbEntity
 67
     1
  8
0
100
AcDbBlockBegin
  2
*PAPER_SPACE
  1

  0
ENDBLK
  5
1D
330
1B
100
AcDbEntity
 67
     1
  8
0
100
AcDbBlockEnd
  0
ENDSEC
  0
SECTION
  2
ENTITIES
  0
LWPOLYLINE
  5
100
100
AcDbEntity
  8
0
 62
7
100
AcDbPolyline
 90
345
 70
0
 10
562.896832
 20
689.951840
 30
0.0
 10
562.277232
 20
691.159120
 30
0.0
 10
562.621496
 20
692.534320
 30
0.0
 10
563.905968
 20
694.035520
 30
0.0
 10
566.106984
 20
695.621040
 30
0.0
 10
570.051136
 20
697.956952
 30
0.0
 10
572.985184
 20
699.512888
 30
0.0
 10
575.327192
 20
700.489528
 30
0.0
 10
577.495248
 20
701.087560
 30
0.0
 10
578.705056
 20
701.399704
 30
0.0
 10
579.937912
 20
701.808024
 30
0.0
 10
581.049432
 20
702.259560
 30
0.0
 10
581.895248
 20
702.701400
 30
0.0
 10
582.725352
 20
703.138704
 30
0.0
 10
583.794080
 20
703.577904
 30
0.0
 10
584.963600
 20
703.967912
 30
0.0
 10
586.096064
 20
704.257680
 30
0.0
 10
588.146864
 20
705.081696
 30
0.0
 10
590.039016
 20
706.843008
 30
0.0
 10
592.032856
 20
709.861832
 30
0.0
 10
594.388696
 20
714.458400
 30
0.0
 10
595.603168
 20
716.848144
 30
0.0
 10
597.138368
 20
719.646400
 30
0.0
 10
598.797576
 20
722.504824
 30
0.0
 10
600.384056
 20
725.075040
 30
0.0
 10
601.283784
 20
726.475040
 30
0.0
 10
602.183504
 20
727.875040
 30
0.0
 10
603.083232
 20
729.275040
 30
0.0
 10
603.982960
 20
730.675040
 30
0.0
 10
603.884552
 20
733.775040
 30
0.0
 10
603.786144
 20
736.875040
 30
0.0
 10
603.687744
 20
739.975040
 30
0.0
 10
603.589336
 20
743.075040
 30
0.0
 10
603.395776
 20
748.214720
 30
0.0
 10
603.159736
 20
753.042400
 30
0.0
 10
602.911072
 20
757.016080
 30
0.0
 10
602.679624
 20
759.593720
 30
0.0
 10
602.496512
 20
761.673416
 30
0.0
 10
602.558912
 20
763.278256
 30
0.0
 10
602.891024
 20
764.586928
 30
0.0
 10
603.517056
 20
765.778128
 30
0.0
 10
604.345904
 20
767.946208
 30
0.0
 10
604.516232
 20
770.786640
 30
0.0
 10
604.037032
 20
774.119840
 30
0.0
 10
602.917288
 20
777.766240
 30
0.0
 10
602.161880
 20
779.309192
 30
0.0
 10
601.119440
 20
780.688360
 30
0.0
 10
599.728408
 20
781.971080
 30
0.0
 10
597.927208
 20
783.224696
 30
0.0
 10
596.035840
 20
784.470648
 30
0.0
 10
593.697640
 20
786.113152
 30
0.0
 10
591.209800
 20
787.938624
 30
0.0
 10
588.869528
 20
789.733496
 30
0.0
 10
586.285712
 20
791.627288
 30
0.0
 10
583.813992
 20
793.145320
 30
0.0
 10
581.442920
 20
794.293880
 30
0.0
 10
579.161088
 20
795.079264
 30
0.0
 10
576.640080
 20
795.815840
 30
0.0
 10
575.311760
 20
796.499592
 30
0.0
 10
574.794584
 20
797.473176
 30
0.0
 10
574.706984
 20
799.079264
 30
0.0
 10
574.779064
 20
800.560200
 30
0.0
 10
575.082496
 20
801.441072
 30
0.0
 10
575.748184
 20
801.903264
 30
0.0
 10
576.907008
 20
802.128176
 30
0.0
 10
578.429552
 20
802.500496
 30
0.0
 10
578.960968
 20
803.423872
 30
0.0
 10
578.513448
 20
805.305976
 30
0.0
 10
577.099192
 20
808.554480
 30
0.0
 10
575.742960
 20
811.654752
 30
0.0
 10
575.231424
 20
813.642432
 30
0.0
 10
575.529184
 20
815.085680
 30
0.0
 10
576.600848
 20
816.552632
 30
0.0
 10
577.988856
 20
817.856736
 30
0.0
 10
579.131032
 20
818.111040
 30
0.0
 10
580.211120
 20
817.266736
 30
0.0
 10
581.412896
 20
815.275040
 30
0.0
 10
582.180400
 20
813.952384
 30
0.0
 10
583.132896
 20
812.568792
 30
0.0
 10
584.149136
 20
811.288320
 30
0.0
 10
585.107888
 20
810.275040
 30
0.0
 10
586.038480
 20
809.267000
 30
0.0
 10
586.978056
 20
808.000800
 30
0.0
 10
587.817088
 20
806.638320
 30
0.0
 10
588.446032
 20
805.341448
 30
0.0
 10
590.046808
 20
802.737920
 30
0.0
 10
592.721048
 20
800.475496
 30
0.0
 10
596.685368
 20
798.413064
 30
0.0
 10
602.156408
 20
796.409480
 30
0.0
 10
604.789720
 20
795.580720
 30
0.0
 10
607.044168
 20
794.902032
 30
0.0
 10
608.680168
 20
794.443464
 30
0.0
 10
609.458136
 20
794.275040
 30
0.0
 10
609.899272
 20
795.513400
 30
0.0
 10
609.590088
 20
798.566312
 30
0.0
 10
608.702216
 20
802.440560
 30
0.0
 10
607.407296
 20
806.142904
 30
0.0
 10
606.529304
 20
807.979520
 30
0.0
 10
605.522760
 20
809.825272
 30
0.0
 10
604.511920
 20
811.465472
 30
0.0
 10
603.621016
 20
812.685440
 30
0.0
 10
602.581424
 20
814.152368
 30
0.0
 10
602.005760
 20
815.929144
 30
0.0
 10
601.759224
 20
818.773440
 30
0.0
 10
601.706984
 20
823.442952
 30
0.0
 10
601.839696
 20
828.901088
 30
0.0
 10
602.470808
 20
831.917328
 30
0.0
 10
603.949832
 20
833.204400
 30
0.0
 10
606.626248
 20
833.475040
 30
0.0
 10
608.268872
 20
833.105104
 30
0.0
 10
609.445616
 20
831.794672
 30
0.0
 10
610.315984
 20
829.242808
 30
0.0
 10
611.039488
 20
825.148560
 30
0.0
 10
611.461544
 20
822.882200
 30
0.0
 10
612.046456
 20
820.727096
 30
0.0
 10
612.730280
 20
818.884664
 30
0.0
 10
613.449088
 20
817.556352
 30
0.0
 10
615.329336
 20
814.469752
 30
0.0
 10
617.158416
 20
810.774848
 30
0.0
 10
618.545352
 20
807.338592
 30
0.0
 10
619.099168
 20
805.027944
 30
0.0
 10
619.189936
 20
804.268256
 30
0.0
 10
619.431648
 20
803.417392
 30
0.0
 10
619.787432
 20
802.579344
 30
0.0
 10
620.220416
 20
801.858144
 30
0.0
 10
621.485064
 20
800.926640
 30
0.0
 10
622.644520
 20
801.264904
 30
0.0
 10
623.384960
 20
802.597024
 30
0.0
 10
623.392960
 20
804.647080
 30
0.0
 10
623.297808
 20
806.831048
 30
0.0
 10
623.987688
 20
808.590568
 30
0.0
 10
625.482272
 20
809.953752
 30
0.0
 10
627.801224
 20
810.948720
 30
0.0
 10
629.197544
 20
811.507848
 30
0.0
 10
630.642560
 20
812.324096
 30
0.0
 10
631.965792
 20
813.287856
 30
0.0
 10
632.996760
 20
814.289488
 30
0.0
 10
633.991024
 20
815.306496
 30
0.0
 10
635.025920
 20
816.054944
 30
0.0
 10
636.070912
 20
816.517056
 30
0.0
 10
637.095448
 20
816.675040
 30
0.0
 10
639.387952
 20
816.310536
 30
0.0
 10
641.593088
 20
815.387120
 30
0.0
 10
643.252384
 20
814.159944
 30
0.0
 10
643.907368
 20
812.884152
 30
0.0
 10
643.570960
 20
812.041928
 30
0.0
 10
642.654984
 20
810.746552
 30
0.0
 10
641.299352
 20
809.174608
 30
0.0
 10
639.643944
 20
807.502680
 30
0.0
 10
638.578088
 20
806.494768
 30
0.0
 10
637.512232
 20
805.486848
 30
0.0
 10
636.446376
 20
804.478936
 30
0.0
 10
635.380520
 20
803.471016
 30
0.0
 10
635.431320
 20
802.271520
 30
0.0
 10
635.482120
 20
801.072024
 30
0.0
 10
635.532920
 20
799.872528
 30
0.0
 10
635.583800
 20
798.673032
 30
0.0
 10
635.667496
 20
796.636464
 30
0.0
 10
635.745096
 20
794.638200
 30
0.0
 10
635.807896
 20
792.907848
 30
0.0
 10
635.847256
 20
791.675040
 30
0.0
 10
636.348008
 20
789.881528
 30
0.0
 10
637.579816
 20
789.504184
 30
0.0
 10
639.343064
 20
790.501664
 30
0.0
 10
641.438120
 20
792.832640
 30
0.0
 10
642.469824
 20
794.410312
 30
0.0
 10
643.246848
 20
795.969072
 30
0.0
 10
643.736808
 20
797.431720
 30
0.0
 10
643.907328
 20
798.721008
 30
0.0
 10
644.065144
 20
799.936200
 30
0.0
 10
644.494824
 20
801.374088
 30
0.0
 10
645.130768
 20
802.854912
 30
0.0
 10
645.907328
 20
804.198928
 30
0.0
 10
646.683896
 20
805.392576
 30
0.0
 10
647.319832
 20
806.463968
 30
0.0
 10
647.749520
 20
807.295880
 30
0.0
 10
647.907328
 20
807.771120
 30
0.0
 10
648.063880
 20
808.160872
 30
0.0
 10
648.490128
 20
808.760056
 30
0.0
 10
649.120984
 20
809.486992
 30
0.0
 10
649.891336
 20
810.260016
 30
0.0
 10
651.146288
 20
811.731312
 30
0.0
 10
651.446648
 20
813.605912
 30
0.0
 10
650.707768
 20
816.877376
 30
0.0
 10
648.844968
 20
822.539304
 30
0.0
 10
648.310560
 20
824.105376
 30
0.0
 10
647.776144
 20
825.671440
 30
0.0
 10
647.241736
 20
827.237512
 30
0.0
 10
646.707328
 20
828.803576
 30
0.0
 10
647.268480
 20
829.287512
 30
0.0
 10
647.829632
 20
829.771440
 30
0.0
 10
648.390784
 20
830.255376
 30
0.0
 10
648.951936
 20
830.739304
 30
0.0
 10
649.867304
 20
831.490640
 30
0.0
 10
650.700336
 20
832.105408
 30
0.0
 10
651.359176
 20
832.520200
 30
0.0
 10
651.751936
 20
832.671608
 30
0.0
 10
652.209632
 20
832.198904
 30
0.0
 10
653.045272
 20
830.914032
 30
0.0
 10
654.139984
 20
829.013248
 30
0.0
 10
655.374888
 20
826.692816
 30
0.0
 10
656.141776
 20
825.198976
 30
0.0
 10
656.908664
 20
823.705144
 30
0.0
 10
657.675560
 20
822.211304
 30
0.0
 10
658.442448
 20
820.717464
 30
0.0
 10
659.916528
 20
821.712160
 30
0.0
 10
661.390600
 20
822.706856
 30
0.0
 10
662.864680
 20
823.701552
 30
0.0
 10
664.338760
 20
824.696248
 30
0.0
 10
666.689584
 20
826.241136
 30
0.0
 10
668.731584
 20
827.506272
 30
0.0
 10
670.245768
 20
828.361088
 30
0.0
 10
671.013136
 20
828.675040
 30
0.0
 10
672.151672
 20
828.020760
 30
0.0
 10
673.503624
 20
826.458808
 30
0.0
 10
674.633880
 20
824.590480
 30
0.0
 10
675.107328
 20
823.017080
 30
0.0
 10
674.840728
 20
822.265952
 30
0.0
 10
674.070928
 20
821.393528
 30
0.0
 10
672.842944
 20
820.440912
 30
0.0
 10
671.201784
 20
819.449232
 30
0.0
 10
668.242688
 20
817.546544
 30
0.0
 10
666.009936
 20
815.433112
 30
0.0
 10
664.452648
 20
813.048544
 30
0.0
 10
663.519936
 20
810.332432
 30
0.0
 10
663.007240
 20
808.852752
 30
0.0
 10
662.046304
 20
806.804600
 30
0.0
 10
660.774632
 20
804.458600
 30
0.0
 10
659.329720
 20
802.085352
 30
0.0
 10
657.456296
 20
799.063288
 30
0.0
 10
656.432816
 20
796.957104
 30
0.0
 10
656.078128
 20
795.267904
 30
0.0
 10
656.211056
 20
793.496784
 30
0.0
 10
656.284656
 20
790.997288
 30
0.0
 10
655.899800
 20
788.378272
 30
0.0
 10
655.210872
 20
786.313072
 30
0.0
 10
654.372224
 20
785.475040
 30
0.0
 10
653.852200
 20
785.192040
 30
0.0
 10
652.864032
 20
784.421496
 30
0.0
 10
651.549520
 20
783.281088
 30
0.0
 10
650.050480
 20
781.888504
 30
0.0
 10
648.358984
 20
780.144800
 30
0.0
 10
647.195248
 20
778.647208
 30
0.0
 10
646.523344
 20
777.340864
 30
0.0
 10
646.307360
 20
776.170896
 30
0.0
 10
646.104872
 20
775.068024
 30
0.0
 10
645.540832
 20
773.705216
 30
0.0
 10
644.680368
 20
772.213016
 30
0.0
 10
643.588632
 20
770.721976
 30
0.0
 10
639.584200
 20
764.789272
 30
0.0
 10
637.332584
 20
759.034368
 30
0.0
 10
636.901232
 20
753.735168
 30
0.0
 10
638.357584
 20
749.169576
 30
0.0
 10
638.770136
 20
748.470344
 30
0.0
 10
639.182696
 20
747.771120
 30
0.0
 10
639.595248
 20
747.071888
 30
0.0
 10
640.007808
 20
746.372656
 30
0.0
 10
639.501928
 20
744.771272
 30
0.0
 10
638.996048
 20
743.169888
 30
0.0
 10
638.490176
 20
741.568496
 30
0.0
 10
637.984296
 20
739.967112
 30
0.0
 10
636.234448
 20
733.510280
 30
0.0
 10
635.413448
 20
728.093264
 30
0.0
 10
635.512032
 20
723.588624
 30
0.0
 10
636.520904
 20
719.868880
 30
0.0
 10
638.310928
 20
716.923976
 30
0.0
 10
640.930016
 20
713.786744
 30
0.0
 10
643.594816
 20
711.292120
 30
0.0
 10
645.521976
 20
710.275040
 30
0.0
 10
646.166920
 20
710.059480
 30
0.0
 10
647.324168
 20
709.472568
 30
0.0
 10
648.829752
 20
708.603936
 30
0.0
 10
650.519664
 20
707.543216
 30
0.0
 10
652.638920
 20
706.301464
 30
0.0
 10
654.759592
 20
705.344840
 30
0.0
 10
656.907232
 20
704.663536
 30
0.0
 10
659.107360
 20
704.247760
 30
0.0
 10
663.655032
 20
703.409184
 30
0.0
 10
668.513976
 20
702.117224
 30
0.0
 10
672.838328
 20
700.628040
 30
0.0
 10
675.782240
 20
699.197800
 30
0.0
 10
676.840640
 20
698.589520
 30
0.0
 10
678.256672
 20
697.911120
 30
0.0
 10
679.845312
 20
697.245384
 30
0.0
 10
681.421512
 20
696.675080
 30
0.0
 10
683.180896
 20
695.998000
 30
0.0
 10
684.439400
 20
695.257760
 30
0.0
 10
685.293992
 20
694.380000
 30
0.0
 10
685.841624
 20
693.290640
 30
0.0
 10
686.286552
 20
691.568880
 30
0.0
 10
685.959224
 20
690.711840
 30
0.0
 10
684.665928
 20
690.604320
 30
0.0
 10
682.212944
 20
691.131040
 30
0.0
 10
676.470056
 20
691.971120
 30
0.0
 10
666.571928
 20
692.966080
 30
0.0
 10
655.867912
 20
693.815920
 30
0.0
 10
647.707360
 20
694.220800
 30
0.0
 10
645.903440
 20
694.186400
 30
0.0
 10
644.731656
 20
694.002880
 30
0.0
 10
644.097720
 20
693.641920
 30
0.0
 10
643.907360
 20
693.075040
 30
0.0
 10
643.728808
 20
692.516320
 30
0.0
 10
643.147880
 20
692.152720
 30
0.0
 10
642.096696
 20
691.961040
 30
0.0
 10
640.507360
 20
691.917840
 30
0.0
 10
636.359800
 20
692.150560
 30
0.0
 10
631.211328
 20
692.662800
 30
0.0
 10
626.430144
 20
693.296720
 30
0.0
 10
623.384480
 20
693.894160
 30
0.0
 10
622.529016
 20
694.063120
 30
0.0
 10
621.907760
 20
693.937920
 30
0.0
 10
621.454584
 20
693.482800
 30
0.0
 10
621.103376
 20
692.662160
 30
0.0
 10
620.653864
 20
691.703120
 30
0.0
 10
619.772688
 20
691.220240
 30
0.0
 10
617.987584
 20
691.108240
 30
0.0
 10
614.826248
 20
691.261680
 30
0.0
 10
612.139104
 20
691.354960
 30
0.0
 10
609.946320
 20
691.262160
 30
0.0
 10
608.200504
 20
690.978480
 30
0.0
 10
606.854240
 20
690.499360
 30
0.0
 10
605.810000
 20
690.083760
 30
0.0
 10
604.632336
 20
689.780720
 30
0.0
 10
603.465624
 20
689.618880
 30
0.0
 10
602.454240
 20
689.626880
 30
0.0
 10
601.360192
 20
689.856160
 30
0.0
 10
600.667768
 20
690.321920
 30
0.0
 10
600.269184
 20
691.152160
 30
0.0
 10
600.056672
 20
692.474880
 30
0.0
 10
599.683656
 20
694.238480
 30
0.0
 10
598.725064
 20
694.941520
 30
0.0
 10
596.752352
 20
694.643200
 30
0.0
 10
593.336976
 20
693.402720
 30
0.0
 10
591.142312
 20
692.635680
 30
0.0
 10
589.203608
 20
692.203280
 30
0.0
 10
587.327264
 20
692.077040
 30
0.0
 10
585.319656
 20
692.228640
 30
0.0
 10
583.440272
 20
692.357920
 30
0.0
 10
581.419312
 20
692.283520
 30
0.0
 10
579.348528
 20
692.012960
 30
0.0
 10
577.319656
 20
691.554160
 30
0.0
 10
572.967000
 20
690.577600
 30
0.0
 10
568.439704
 20
689.910320
 30
0.0
 10
564.746768
 20
689.664320
 30
0.0
 10
562.896832
 20
689.951840
 30
0.0
  0
ENDSEC
  0
SECTION
  2
OBJECTS
  0
DICTIONARY
  5
C
330
0
100
AcDbDictionary
  3
ACAD_GROUP
350
D
  3
ACAD_MLINESTYLE
350
17
  0
DICTIONARY
  5
D
330
C
100
AcDbDictionary
  0
DICTIONARY
  5
1A
330
C
100
AcDbDictionary
  0
DICTIONARY
  5
17
330
C
100
AcDbDictionary
  3
STANDARD
350
18
  0
DICTIONARY
  5
19
330
C
100
AcDbDictionary
  0
ENDSEC
  0
EOF
