  0
SECTION
  2
HEADER
  9
$ACADVER
  1
AC1014
  9
$HANDSEED
  5
FFFF
  9
$MEASUREMENT
 70
     1
  0
ENDSEC
  0
SECTION
  2
TABLES
  0
TABLE
  2
VPORT
  5
8
330
0
100
AcDbSymbolTable
 70
     4
  0
VPORT
  5
2E
330
8
100
AcDbSymbolTableRecord
100
AcDbViewportTableRecord
  2
*ACTIVE
 70
     0
 10
0.0
 20
0.0
 11
1.0
 21
1.0
 12
210.0
 22
148.5
 13
0.0
 23
0.0
 14
10.0
 24
10.0
 15
10.0
 25
10.0
 16
0.0
 26
0.0
 36
1.0
 17
0.0
 27
0.0
 37
0.0
 40
341.0
 41
1.24
 42
50.0
 43
0.0
 44
0.0
 50
0.0
 51
0.0
 71
     0
 72
   100
 73
     1
 74
     3
 75
     0
 76
     0
 77
     0
 78
     0
  0
ENDTAB
  0
TABLE
  2
LTYPE
  5
5
330
0
100
AcDbSymbolTable
 70
     1
  0
LTYPE
  5
14
330
5
100
AcDbSymbolTableRecord
100
AcDbLinetypeTableRecord
  2
BYBLOCK
 70
     0
  3

 72
    65
 73
     0
 40
0.0
  0
LTYPE
  5
15
330
5
100
AcDbSymbolTableRecord
100
AcDbLinetypeTableRecord
  2
BYLAYER
 70
     0
  3

 72
    65
 73
     0
 40
0.0
  0
LTYPE
  5
16
330
5
100
AcDbSymbolTableRecord
100
AcDbLinetypeTableRecord
  2
CONTINUOUS
 70
     0
  3
Solid line
 72
    65
 73
     0
 40
0.0
  0
ENDTAB
  0
TABLE
  2
LAYER
  5
2
100
AcDbSymbolTable
 70
2
  0
LAYER
  5
50
100
AcDbSymbolTableRecord
100
AcDbLayerTableRecord
  2
0
 70
0
  6
CONTINUOUS
  0
LAYER
  5
51
100
AcDbSymbolTableRecord
100
AcDbLayerTableRecord
  2
Layer_1
 70
0
  6
CONTINUOUS
  0
ENDTAB
  0
TABLE
  2
STYLE
  5
3
330
0
100
AcDbSymbolTable
 70
     1
  0
STYLE
  5
11
330
3
100
AcDbSymbolTableRecord
100
AcDbTextStyleTableRecord
  2
STANDARD
 70
     0
 40
0.0
 41
1.0
 50
0.0
 71
     0
 42
2.5
  3
txt
  4

  0
ENDTAB
  0
TABLE
  2
VIEW
  5
6
330
0
100
AcDbSymbolTable
 70
     0
  0
ENDTAB
  0
TABLE
  2
UCS
  5
7
330
0
100
AcDbSymbolTable
 70
     0
  0
ENDTAB
  0
TABLE
  2
APPID
  5
9
330
0
100
AcDbSymbolTable
 70
     2
  0
APPID
  5
12
330
9
100
AcDbSymbolTableRecord
100
AcDbRegAppTableRecord
  2
ACAD
 70
     0
  0
ENDTAB
  0
TABLE
  2
DIMSTYLE
  5
A
330
0
100
AcDbSymbolTable
 70
     1
  0
DIMSTYLE
105
27
330
A
100
AcDbSymbolTableRecord
100
AcDbDimStyleTableRecord
  2
ISO-25
 70
     0
  3

  4

  5

  6

  7

 40
1.0
 41
2.5
 42
0.625
 43
3.75
 44
1.25
 45
0.0
 46
0.0
 47
0.0
 48
0.0
140
2.5
141
2.5
142
0.0
143
0.03937007874016
144
1.0
145
0.0
146
1.0
147
0.625
 71
     0
 72
     0
 73
     0
 74
     0
 75
     0
 76
     0
 77
     1
 78
     8
170
     0
171
     3
172
     1
173
     0
174
     0
175
     0
176
     0
177
     0
178
     0
270
     2
271
     2
272
     2
273
     2
274
     3
340
11
275
     0
280
     0
281
     0
282
     0
283
     0
284
     8
285
     0
286
     0
287
     3
288
     0
  0
ENDTAB
  0
TABLE
  2
BLOCK_RECORD
  5
1
330
0
100
AcDbSymbolTable
 70
     1
  0
BLOCK_RECORD
  5
1F
330
1
100
AcDbSymbolTableRecord
100
AcDbBlockTableRecord
  2
*MODEL_SPACE
  0
BLOCK_RECORD
  5
1B
330
1
100
AcDbSymbolTableRecord
100
AcDbBlockTableRecord
  2
*PAPER_SPACE
  0
ENDTAB
  0
ENDSEC
  0
SECTION
  2
BLOCKS
  0
BLOCK
  5
20
330
1F
100
AcDbEntity
  8
0
100
AcDbBlockBegin
  2
*MODEL_SPACE
 70
     0
 10
0.0
 20
0.0
 30
0.0
  3
*MODEL_SPACE
  1

  0
ENDBLK
  5
21
330
1F
100
AcDbEntity
  8
0
100
AcDbBlockEnd
  0
BLOCK
  5
1C
330
1B
100
AcDbEntity
 67
     1
  8
0
100
AcDbBlockBegin
  2
*PAPER_SPACE
  1

  0
ENDBLK
  5
1D
330
1B
100
AcDbEntity
 67
     1
  8
0
100
AcDbBlockEnd
  0
ENDSEC
  0
SECTION
  2
ENTITIES
  0
LWPOLYLINE
  5
100
100
AcDbEntity
  8
Layer_1
 62
7
100
AcDbPolyline
 90
513
 70
0
 10
28.152038
 20
1.706994
 30
0.0
 10
25.726129
 20
2.291815
 30
0.0
 10
23.474920
 20
2.996355
 30
0.0
 10
21.328529
 20
3.859306
 30
0.0
 10
19.217072
 20
4.919304
 30
0.0
 10
17.070665
 20
6.215014
 30
0.0
 10
14.819425
 20
7.785101
 30
0.0
 10
12.393467
 20
9.668229
 30
0.0
 10
9.722908
 20
11.903062
 30
0.0
 10
8.829278
 20
12.682645
 30
0.0
 10
8.074245
 20
13.367626
 30
0.0
 10
7.434489
 20
13.983604
 30
0.0
 10
6.886693
 20
14.556233
 30
0.0
 10
6.407536
 20
15.111060
 30
0.0
 10
5.973700
 20
15.673712
 30
0.0
 10
5.561867
 20
16.269785
 30
0.0
 10
5.148718
 20
16.924879
 30
0.0
 10
3.911788
 20
19.168506
 30
0.0
 10
2.900567
 20
21.442433
 30
0.0
 10
2.122726
 20
23.706321
 30
0.0
 10
1.585940
 20
25.919832
 30
0.0
 10
1.297881
 20
28.042626
 30
0.0
 10
1.266222
 20
30.034361
 30
0.0
 10
1.498637
 20
31.854703
 30
0.0
 10
2.002798
 20
33.463310
 30
0.0
 10
3.192393
 20
35.464593
 30
0.0
 10
4.818511
 20
37.063710
 30
0.0
 10
6.811368
 20
38.245414
 30
0.0
 10
9.101181
 20
38.994462
 30
0.0
 10
11.618165
 20
39.295608
 30
0.0
 10
14.292538
 20
39.133601
 30
0.0
 10
17.054515
 20
38.493196
 30
0.0
 10
19.834312
 20
37.359151
 30
0.0
 10
20.858121
 20
36.810963
 30
0.0
 10
21.924071
 20
36.169184
 30
0.0
 10
23.046122
 20
35.423375
 30
0.0
 10
24.238233
 20
34.563102
 30
0.0
 10
25.514366
 20
33.577924
 30
0.0
 10
26.888478
 20
32.457403
 30
0.0
 10
28.374529
 20
31.191105
 30
0.0
 10
29.986481
 20
29.768592
 30
0.0
 10
32.285742
 20
27.753732
 30
0.0
 10
34.359556
 20
26.036573
 30
0.0
 10
36.252009
 20
24.588714
 30
0.0
 10
38.007188
 20
23.381754
 30
0.0
 10
39.669181
 20
22.387290
 30
0.0
 10
41.282072
 20
21.576923
 30
0.0
 10
42.889949
 20
20.922249
 30
0.0
 10
44.536896
 20
20.394866
 30
0.0
 10
46.307939
 20
20.013341
 30
0.0
 10
48.281463
 20
19.797399
 30
0.0
 10
50.410245
 20
19.743269
 30
0.0
 10
52.647074
 20
19.847180
 30
0.0
 10
54.944732
 20
20.105360
 30
0.0
 10
57.256003
 20
20.514043
 30
0.0
 10
59.533674
 20
21.069454
 30
0.0
 10
61.730526
 20
21.767827
 30
0.0
 10
63.015052
 20
22.260163
 30
0.0
 10
64.280717
 20
22.806325
 30
0.0
 10
65.514821
 20
23.399218
 30
0.0
 10
66.704670
 20
24.031748
 30
0.0
 10
67.837569
 20
24.696825
 30
0.0
 10
68.900822
 20
25.387352
 30
0.0
 10
69.881727
 20
26.096238
 30
0.0
 10
70.767592
 20
26.816393
 30
0.0
 10
71.064072
 20
27.080118
 30
0.0
 10
71.237038
 20
27.251565
 30
0.0
 10
71.280695
 20
27.328203
 30
0.0
 10
71.189246
 20
27.307516
 30
0.0
 10
70.956895
 20
27.186953
 30
0.0
 10
70.577848
 20
26.964001
 30
0.0
 10
70.046308
 20
26.636126
 30
0.0
 10
69.356481
 20
26.200801
 30
0.0
 10
68.561088
 20
25.727278
 30
0.0
 10
67.683086
 20
25.262376
 30
0.0
 10
66.740667
 20
24.813527
 30
0.0
 10
65.752012
 20
24.388170
 30
0.0
 10
64.735312
 20
23.993736
 30
0.0
 10
63.708751
 20
23.637662
 30
0.0
 10
62.690519
 20
23.327384
 30
0.0
 10
61.698799
 20
23.070333
 30
0.0
 10
61.037955
 20
22.928720
 30
0.0
 10
60.362002
 20
22.814225
 30
0.0
 10
59.634981
 20
22.724501
 30
0.0
 10
58.820936
 20
22.657191
 30
0.0
 10
57.883908
 20
22.609947
 30
0.0
 10
56.787943
 20
22.580412
 30
0.0
 10
55.497081
 20
22.566245
 30
0.0
 10
53.975370
 20
22.565116
 30
0.0
 10
49.993090
 20
22.657177
 30
0.0
 10
46.647224
 20
22.952864
 30
0.0
 10
43.795462
 20
23.517444
 30
0.0
 10
41.295489
 20
24.416177
 30
0.0
 10
39.004994
 20
25.714332
 30
0.0
 10
36.781658
 20
27.477171
 30
0.0
 10
34.483175
 20
29.769958
 30
0.0
 10
31.967229
 20
32.657955
 30
0.0
 10
31.708127
 20
32.968959
 30
0.0
 10
31.449021
 20
33.279965
 30
0.0
 10
31.189919
 20
33.590968
 30
0.0
 10
30.930813
 20
33.901974
 30
0.0
 10
30.671711
 20
34.212977
 30
0.0
 10
30.412605
 20
34.523980
 30
0.0
 10
30.153503
 20
34.834987
 30
0.0
 10
29.894397
 20
35.145990
 30
0.0
 10
30.133169
 20
35.361492
 30
0.0
 10
30.371943
 20
35.576991
 30
0.0
 10
30.610714
 20
35.792493
 30
0.0
 10
30.849488
 20
36.007995
 30
0.0
 10
31.088259
 20
36.223494
 30
0.0
 10
31.327031
 20
36.438997
 30
0.0
 10
31.565805
 20
36.654496
 30
0.0
 10
31.804576
 20
36.869998
 30
0.0
 10
33.345532
 20
38.385207
 30
0.0
 10
34.800760
 20
40.063560
 30
0.0
 10
36.154143
 20
41.877955
 30
0.0
 10
37.389562
 20
43.801299
 30
0.0
 10
38.490895
 20
45.806488
 30
0.0
 10
39.442029
 20
47.866423
 30
0.0
 10
40.226838
 20
49.954009
 30
0.0
 10
40.829210
 20
52.042146
 30
0.0
 10
41.504207
 20
55.276325
 30
0.0
 10
41.925390
 20
58.428598
 30
0.0
 10
42.089129
 20
61.549104
 30
0.0
 10
41.991796
 20
64.687979
 30
0.0
 10
41.629762
 20
67.895358
 30
0.0
 10
40.999399
 20
71.221387
 30
0.0
 10
40.097075
 20
74.716195
 30
0.0
 10
38.919161
 20
78.429924
 30
0.0
 10
38.291434
 20
80.200865
 30
0.0
 10
37.574017
 20
82.124134
 30
0.0
 10
36.797680
 20
84.124443
 30
0.0
 10
35.993194
 20
86.126502
 30
0.0
 10
35.191325
 20
88.055028
 30
0.0
 10
34.422839
 20
89.834730
 30
0.0
 10
33.718508
 20
91.390327
 30
0.0
 10
33.109098
 20
92.646527
 30
0.0
 10
33.031664
 20
92.798306
 30
0.0
 10
32.954234
 20
92.950088
 30
0.0
 10
32.876800
 20
93.101867
 30
0.0
 10
32.799370
 20
93.253646
 30
0.0
 10
32.721937
 20
93.405425
 30
0.0
 10
32.644503
 20
93.557207
 30
0.0
 10
32.567073
 20
93.708986
 30
0.0
 10
32.489640
 20
93.860765
 30
0.0
 10
32.571317
 20
93.835393
 30
0.0
 10
32.652995
 20
93.810022
 30
0.0
 10
32.734673
 20
93.784650
 30
0.0
 10
32.816351
 20
93.759278
 30
0.0
 10
32.898026
 20
93.733906
 30
0.0
 10
32.979704
 20
93.708535
 30
0.0
 10
33.061382
 20
93.683163
 30
0.0
 10
33.143060
 20
93.657791
 30
0.0
 10
34.121598
 20
93.280745
 30
0.0
 10
35.401575
 20
92.675869
 30
0.0
 10
36.915815
 20
91.881961
 30
0.0
 10
38.597143
 20
90.937818
 30
0.0
 10
40.378383
 20
89.882228
 30
0.0
 10
42.192358
 20
88.753996
 30
0.0
 10
43.971893
 20
87.591915
 30
0.0
 10
45.649814
 20
86.434779
 30
0.0
 10
47.906641
 20
84.760106
 30
0.0
 10
50.082100
 20
83.007128
 30
0.0
 10
52.166619
 20
81.185304
 30
0.0
 10
54.150635
 20
79.304085
 30
0.0
 10
56.024577
 20
77.372928
 30
0.0
 10
57.778876
 20
75.401287
 30
0.0
 10
59.403968
 20
73.398618
 30
0.0
 10
60.890283
 20
71.374374
 30
0.0
 10
62.496991
 20
68.998723
 30
0.0
 10
64.325333
 20
66.189853
 30
0.0
 10
66.236528
 20
63.174478
 30
0.0
 10
68.091789
 20
60.179310
 30
0.0
 10
69.752337
 20
57.431066
 30
0.0
 10
71.079388
 20
55.156463
 30
0.0
 10
71.934160
 20
53.582210
 30
0.0
 10
72.177870
 20
52.935024
 30
0.0
 10
72.103982
 20
52.891587
 30
0.0
 10
71.964663
 20
52.839548
 30
0.0
 10
71.767996
 20
52.780865
 30
0.0
 10
71.522062
 20
52.717501
 30
0.0
 10
71.234946
 20
52.651421
 30
0.0
 10
70.914728
 20
52.584588
 30
0.0
 10
70.569489
 20
52.518963
 30
0.0
 10
70.207316
 20
52.456507
 30
0.0
 10
69.984318
 20
52.420013
 30
0.0
 10
69.761317
 20
52.383519
 30
0.0
 10
69.538319
 20
52.347025
 30
0.0
 10
69.315322
 20
52.310534
 30
0.0
 10
69.092321
 20
52.274040
 30
0.0
 10
68.869323
 20
52.237545
 30
0.0
 10
68.646322
 20
52.201051
 30
0.0
 10
68.423324
 20
52.164557
 30
0.0
 10
68.364549
 20
52.297774
 30
0.0
 10
68.305773
 20
52.430995
 30
0.0
 10
68.246998
 20
52.564212
 30
0.0
 10
68.188222
 20
52.697429
 30
0.0
 10
68.129446
 20
52.830647
 30
0.0
 10
68.070671
 20
52.963867
 30
0.0
 10
68.011895
 20
53.097084
 30
0.0
 10
67.953120
 20
53.230302
 30
0.0
 10
67.671202
 20
53.786138
 30
0.0
 10
67.280925
 20
54.434761
 30
0.0
 10
66.803936
 20
55.147347
 30
0.0
 10
66.261863
 20
55.895078
 30
0.0
 10
65.676351
 20
56.649139
 30
0.0
 10
65.069034
 20
57.380707
 30
0.0
 10
64.461551
 20
58.060964
 30
0.0
 10
63.875542
 20
58.661095
 30
0.0
 10
63.731631
 20
58.800547
 30
0.0
 10
63.587720
 20
58.939999
 30
0.0
 10
63.443810
 20
59.079450
 30
0.0
 10
63.299902
 20
59.218902
 30
0.0
 10
63.155991
 20
59.358351
 30
0.0
 10
63.012080
 20
59.497802
 30
0.0
 10
62.868169
 20
59.637254
 30
0.0
 10
62.724259
 20
59.776706
 30
0.0
 10
62.724259
 20
59.265847
 30
0.0
 10
62.724259
 20
58.754988
 30
0.0
 10
62.724259
 20
58.244129
 30
0.0
 10
62.724259
 20
57.733273
 30
0.0
 10
62.724259
 20
57.222414
 30
0.0
 10
62.724259
 20
56.711555
 30
0.0
 10
62.724259
 20
56.200696
 30
0.0
 10
62.724259
 20
55.689837
 30
0.0
 10
62.724259
 20
55.178978
 30
0.0
 10
62.724259
 20
54.668119
 30
0.0
 10
62.724259
 20
54.157260
 30
0.0
 10
62.724259
 20
53.646404
 30
0.0
 10
62.724259
 20
53.135545
 30
0.0
 10
62.724259
 20
52.624687
 30
0.0
 10
62.724259
 20
52.113828
 30
0.0
 10
62.724259
 20
51.602969
 30
0.0
 10
62.192191
 20
51.503229
 30
0.0
 10
61.660123
 20
51.403486
 30
0.0
 10
61.128058
 20
51.303745
 30
0.0
 10
60.595990
 20
51.204005
 30
0.0
 10
60.063922
 20
51.104262
 30
0.0
 10
59.531854
 20
51.004522
 30
0.0
 10
58.999789
 20
50.904779
 30
0.0
 10
58.467721
 20
50.805039
 30
0.0
 10
57.935653
 20
50.705299
 30
0.0
 10
57.403585
 20
50.605556
 30
0.0
 10
56.871520
 20
50.505816
 30
0.0
 10
56.339452
 20
50.406076
 30
0.0
 10
55.807384
 20
50.306333
 30
0.0
 10
55.275316
 20
50.206592
 30
0.0
 10
54.743251
 20
50.106849
 30
0.0
 10
54.211183
 20
50.007109
 30
0.0
 10
54.452210
 20
49.845946
 30
0.0
 10
54.693233
 20
49.684783
 30
0.0
 10
54.934259
 20
49.523620
 30
0.0
 10
55.175285
 20
49.362457
 30
0.0
 10
55.416312
 20
49.201294
 30
0.0
 10
55.657335
 20
49.040131
 30
0.0
 10
55.898361
 20
48.878968
 30
0.0
 10
56.139388
 20
48.717805
 30
0.0
 10
56.565439
 20
48.428020
 30
0.0
 10
57.037746
 20
48.098147
 30
0.0
 10
57.540621
 20
47.739668
 30
0.0
 10
58.058377
 20
47.364059
 30
0.0
 10
58.575327
 20
46.982791
 30
0.0
 10
59.075777
 20
46.607345
 30
0.0
 10
59.544043
 20
46.249193
 30
0.0
 10
59.964433
 20
45.919815
 30
0.0
 10
60.558398
 20
45.442856
 30
0.0
 10
61.010772
 20
45.062652
 30
0.0
 10
61.338251
 20
44.755735
 30
0.0
 10
61.557518
 20
44.498651
 30
0.0
 10
61.685263
 20
44.267937
 30
0.0
 10
61.738177
 20
44.040133
 30
0.0
 10
61.732956
 20
43.791780
 30
0.0
 10
61.686273
 20
43.499418
 30
0.0
 10
61.570170
 20
42.970629
 30
0.0
 10
61.407401
 20
42.349605
 30
0.0
 10
61.198819
 20
41.638941
 30
0.0
 10
60.945276
 20
40.841234
 30
0.0
 10
60.647625
 20
39.959087
 30
0.0
 10
60.306718
 20
38.995095
 30
0.0
 10
59.923409
 20
37.951857
 30
0.0
 10
59.498549
 20
36.831974
 30
0.0
 10
59.295939
 20
36.297056
 30
0.0
 10
59.111428
 20
35.793515
 30
0.0
 10
58.948732
 20
35.332700
 30
0.0
 10
58.811569
 20
34.925947
 30
0.0
 10
58.703656
 20
34.584602
 30
0.0
 10
58.628706
 20
34.320010
 30
0.0
 10
58.590434
 20
34.143511
 30
0.0
 10
58.592692
 20
34.066450
 30
0.0
 10
58.641962
 20
34.066284
 30
0.0
 10
58.738807
 20
34.110164
 30
0.0
 10
58.877471
 20
34.193987
 30
0.0
 10
59.052198
 20
34.313640
 30
0.0
 10
59.257226
 20
34.465013
 30
0.0
 10
59.486800
 20
34.643998
 30
0.0
 10
59.735158
 20
34.846484
 30
0.0
 10
59.996547
 20
35.068365
 30
0.0
 10
60.322553
 20
35.342862
 30
0.0
 10
60.756106
 20
35.696148
 30
0.0
 10
61.278462
 20
36.113544
 30
0.0
 10
61.870884
 20
36.580364
 30
0.0
 10
62.514618
 20
37.081927
 30
0.0
 10
63.190933
 20
37.603550
 30
0.0
 10
63.881076
 20
38.130546
 30
0.0
 10
64.566312
 20
38.648235
 30
0.0
 10
64.976330
 20
38.956199
 30
0.0
 10
65.386351
 20
39.264162
 30
0.0
 10
65.796369
 20
39.572126
 30
0.0
 10
66.206387
 20
39.880093
 30
0.0
 10
66.616405
 20
40.188056
 30
0.0
 10
67.026426
 20
40.496020
 30
0.0
 10
67.436444
 20
40.803984
 30
0.0
 10
67.846462
 20
41.111947
 30
0.0
 10
67.993762
 20
41.065496
 30
0.0
 10
68.141065
 20
41.019048
 30
0.0
 10
68.288366
 20
40.972597
 30
0.0
 10
68.435669
 20
40.926149
 30
0.0
 10
68.582969
 20
40.879698
 30
0.0
 10
68.730269
 20
40.833247
 30
0.0
 10
68.877572
 20
40.786799
 30
0.0
 10
69.024873
 20
40.740348
 30
0.0
 10
69.680249
 20
40.511824
 30
0.0
 10
70.388697
 20
40.227438
 30
0.0
 10
71.113754
 20
39.905572
 30
0.0
 10
71.818954
 20
39.564605
 30
0.0
 10
72.467837
 20
39.222921
 30
0.0
 10
73.023939
 20
38.898908
 30
0.0
 10
73.450797
 20
38.610939
 30
0.0
 10
73.711951
 20
38.377403
 30
0.0
 10
73.982713
 20
38.086218
 30
0.0
 10
74.195977
 20
37.948188
 30
0.0
 10
74.356104
 20
37.978677
 30
0.0
 10
74.467455
 20
38.193053
 30
0.0
 10
74.534392
 20
38.606675
 30
0.0
 10
74.561288
 20
39.234910
 30
0.0
 10
74.552483
 20
40.093122
 30
0.0
 10
74.512353
 20
41.196676
 30
0.0
 10
74.487913
 20
41.847943
 30
0.0
 10
74.473858
 20
42.446376
 30
0.0
 10
74.469879
 20
42.979528
 30
0.0
 10
74.475636
 20
43.434955
 30
0.0
 10
74.490820
 20
43.800219
 30
0.0
 10
74.515119
 20
44.062869
 30
0.0
 10
74.548218
 20
44.210465
 30
0.0
 10
74.589792
 20
44.230559
 30
0.0
 10
74.844701
 20
43.846664
 30
0.0
 10
75.259271
 20
43.094005
 30
0.0
 10
75.784831
 20
42.072745
 30
0.0
 10
76.372709
 20
40.883040
 30
0.0
 10
76.974240
 20
39.625046
 30
0.0
 10
77.540750
 20
38.398925
 30
0.0
 10
78.023570
 20
37.304832
 30
0.0
 10
78.374034
 20
36.442925
 30
0.0
 10
78.699651
 20
35.541722
 30
0.0
 10
78.920758
 20
34.809688
 30
0.0
 10
79.031998
 20
34.205600
 30
0.0
 10
79.028019
 20
33.688236
 30
0.0
 10
78.903455
 20
33.216369
 30
0.0
 10
78.652949
 20
32.748772
 30
0.0
 10
78.271147
 20
32.244223
 30
0.0
 10
77.752691
 20
31.661496
 30
0.0
 10
77.334556
 20
31.208022
 30
0.0
 10
77.029491
 20
30.869615
 30
0.0
 10
76.833561
 20
30.637363
 30
0.0
 10
76.742829
 20
30.502348
 30
0.0
 10
76.753356
 20
30.455654
 30
0.0
 10
76.861221
 20
30.488369
 30
0.0
 10
77.062480
 20
30.591578
 30
0.0
 10
77.353197
 20
30.756365
 30
0.0
 10
77.597912
 20
30.915998
 30
0.0
 10
77.933838
 20
31.162866
 30
0.0
 10
78.345925
 20
31.484563
 30
0.0
 10
78.819124
 20
31.868684
 30
0.0
 10
79.338387
 20
32.302818
 30
0.0
 10
79.888667
 20
32.774561
 30
0.0
 10
80.454918
 20
33.271506
 30
0.0
 10
81.022086
 20
33.781248
 30
0.0
 10
82.582348
 20
35.155670
 30
0.0
 10
84.030416
 20
36.331896
 30
0.0
 10
85.389757
 20
37.323611
 30
0.0
 10
86.683842
 20
38.144502
 30
0.0
 10
87.936146
 20
38.808252
 30
0.0
 10
89.170137
 20
39.328546
 30
0.0
 10
90.409288
 20
39.719068
 30
0.0
 10
91.677069
 20
39.993504
 30
0.0
 10
92.524845
 20
40.104239
 30
0.0
 10
93.297101
 20
40.131982
 30
0.0
 10
93.997306
 20
40.075639
 30
0.0
 10
94.628916
 20
39.934155
 30
0.0
 10
95.195398
 20
39.706467
 30
0.0
 10
95.700215
 20
39.391504
 30
0.0
 10
96.146826
 20
38.988200
 30
0.0
 10
96.538694
 20
38.495491
 30
0.0
 10
96.731805
 20
38.196702
 30
0.0
 10
96.881696
 20
37.923463
 30
0.0
 10
96.991960
 20
37.657801
 30
0.0
 10
97.066185
 20
37.381757
 30
0.0
 10
97.107965
 20
37.077361
 30
0.0
 10
97.120891
 20
36.726643
 30
0.0
 10
97.108558
 20
36.311638
 30
0.0
 10
97.074544
 20
35.814380
 30
0.0
 10
96.768505
 20
33.967743
 30
0.0
 10
96.151051
 20
31.892295
 30
0.0
 10
95.262581
 20
29.664656
 30
0.0
 10
94.143508
 20
27.361457
 30
0.0
 10
92.834229
 20
25.059325
 30
0.0
 10
91.375151
 20
22.834886
 30
0.0
 10
89.806681
 20
20.764767
 30
0.0
 10
88.169222
 20
18.925592
 30
0.0
 10
86.280027
 20
17.092861
 30
0.0
 10
84.152585
 20
15.206677
 30
0.0
 10
81.855016
 20
13.317560
 30
0.0
 10
79.455439
 20
11.476060
 30
0.0
 10
77.021978
 20
9.732689
 30
0.0
 10
74.622745
 20
8.137964
 30
0.0
 10
72.325868
 20
6.742431
 30
0.0
 10
70.199462
 20
5.596609
 30
0.0
 10
69.005233
 20
5.014949
 30
0.0
 10
68.059052
 20
4.579142
 30
0.0
 10
67.373760
 20
4.292037
 30
0.0
 10
66.962195
 20
4.156373
 30
0.0
 10
66.837204
 20
4.174999
 30
0.0
 10
67.011629
 20
4.350711
 30
0.0
 10
67.498304
 20
4.686273
 30
0.0
 10
68.310074
 20
5.184508
 30
0.0
 10
69.876876
 20
6.172230
 30
0.0
 10
71.470198
 20
7.283677
 30
0.0
 10
73.041197
 20
8.477082
 30
0.0
 10
74.541022
 20
9.710562
 30
0.0
 10
75.920817
 20
10.942321
 30
0.0
 10
77.131740
 20
12.130533
 30
0.0
 10
78.124939
 20
13.233401
 30
0.0
 10
78.851562
 20
14.209072
 30
0.0
 10
79.013496
 20
14.465555
 30
0.0
 10
79.164569
 20
14.713403
 30
0.0
 10
79.301470
 20
14.946600
 30
0.0
 10
79.420892
 20
15.159080
 30
0.0
 10
79.519534
 20
15.344819
 30
0.0
 10
79.594083
 20
15.497777
 30
0.0
 10
79.641240
 20
15.611917
 30
0.0
 10
79.657694
 20
15.681202
 30
0.0
 10
79.631278
 20
15.707054
 30
0.0
 10
79.555566
 20
15.696696
 30
0.0
 10
79.435870
 20
15.652839
 30
0.0
 10
79.277495
 20
15.578163
 30
0.0
 10
79.085753
 20
15.475361
 30
0.0
 10
78.865953
 20
15.347127
 30
0.0
 10
78.623400
 20
15.196147
 30
0.0
 10
78.363405
 20
15.025117
 30
0.0
 10
77.734671
 20
14.634070
 30
0.0
 10
76.973805
 20
14.219062
 30
0.0
 10
76.089315
 20
13.783763
 30
0.0
 10
75.089718
 20
13.331897
 30
0.0
 10
73.983523
 20
12.867190
 30
0.0
 10
72.779247
 20
12.393339
 30
0.0
 10
71.485399
 20
11.914012
 30
0.0
 10
70.110491
 20
11.432965
 30
0.0
 10
68.120692
 20
10.786789
 30
0.0
 10
66.286922
 20
10.267472
 30
0.0
 10
64.519745
 20
9.862539
 30
0.0
 10
62.729708
 20
9.559404
 30
0.0
 10
60.827375
 20
9.345621
 30
0.0
 10
58.723299
 20
9.208602
 30
0.0
 10
56.328033
 20
9.135873
 30
0.0
 10
53.552138
 20
9.114989
 30
0.0
 10
51.792299
 20
9.122609
 30
0.0
 10
50.231178
 20
9.146598
 30
0.0
 10
48.810850
 20
9.190653
 30
0.0
 10
47.473376
 20
9.258330
 30
0.0
 10
46.160828
 20
9.353184
 30
0.0
 10
44.815272
 20
9.478717
 30
0.0
 10
43.378778
 20
9.638511
 30
0.0
 10
41.793408
 20
9.836151
 30
0.0
 10
39.580628
 20
10.112532
 30
0.0
 10
37.742862
 20
10.315280
 30
0.0
 10
36.225711
 20
10.445582
 30
0.0
 10
34.974781
 20
10.504510
 30
0.0
 10
33.935673
 20
10.493221
 30
0.0
 10
33.053994
 20
10.412872
 30
0.0
 10
32.275348
 20
10.264565
 30
0.0
 10
31.545335
 20
10.049455
 30
0.0
 10
30.844196
 20
9.764439
 30
0.0
 10
30.258755
 20
9.425885
 30
0.0
 10
29.784356
 20
9.026399
 30
0.0
 10
29.416350
 20
8.558588
 30
0.0
 10
29.150081
 20
8.014971
 30
0.0
 10
28.980903
 20
7.388184
 30
0.0
 10
28.904156
 20
6.670775
 30
0.0
 10
28.915191
 20
5.855350
 30
0.0
 10
28.953598
 20
5.379580
 30
0.0
 10
29.009382
 20
4.949784
 30
0.0
 10
29.086243
 20
4.554278
 30
0.0
 10
29.187874
 20
4.181293
 30
0.0
 10
29.317973
 20
3.819145
 30
0.0
 10
29.480233
 20
3.456095
 30
0.0
 10
29.678356
 20
3.080400
 30
0.0
 10
29.916033
 20
2.680350
 30
0.0
 10
30.088637
 20
2.391948
 30
0.0
 10
30.236202
 20
2.123808
 30
0.0
 10
30.356460
 20
1.881746
 30
0.0
 10
30.447147
 20
1.671519
 30
0.0
 10
30.505993
 20
1.498968
 30
0.0
 10
30.530744
 20
1.369908
 30
0.0
 10
30.519116
 20
1.290096
 30
0.0
 10
30.468838
 20
1.265260
 30
0.0
 10
30.359993
 20
1.278524
 30
0.0
 10
30.180503
 20
1.307339
 30
0.0
 10
29.939872
 20
1.349983
 30
0.0
 10
29.647600
 20
1.404650
 30
0.0
 10
29.313192
 20
1.469532
 30
0.0
 10
28.946148
 20
1.542797
 30
0.0
 10
28.555970
 20
1.622638
 30
0.0
 10
28.152038
 20
1.706994
 30
0.0
  0
ENDSEC
  0
SECTION
  2
OBJECTS
  0
DICTIONARY
  5
C
330
0
100
AcDbDictionary
  3
ACAD_GROUP
350
D
  3
ACAD_MLINESTYLE
350
17
  0
DICTIONARY
  5
D
330
C
100
AcDbDictionary
  0
DICTIONARY
  5
1A
330
C
100
AcDbDictionary
  0
DICTIONARY
  5
17
330
C
100
AcDbDictionary
  3
STANDARD
350
18
  0
DICTIONARY
  5
19
330
C
100
AcDbDictionary
  0
ENDSEC
  0
EOF
