  0
SECTION
  2
HEADER
  9
$ACADVER
  1
AC1014
  9
$HANDSEED
  5
FFFF
  9
$MEASUREMENT
 70
     1
  0
ENDSEC
  0
SECTION
  2
TABLES
  0
TABLE
  2
VPORT
  5
8
330
0
100
AcDbSymbolTable
 70
     4
  0
VPORT
  5
2E
330
8
100
AcDbSymbolTableRecord
100
AcDbViewportTableRecord
  2
*ACTIVE
 70
     0
 10
0.0
 20
0.0
 11
1.0
 21
1.0
 12
210.0
 22
148.5
 13
0.0
 23
0.0
 14
10.0
 24
10.0
 15
10.0
 25
10.0
 16
0.0
 26
0.0
 36
1.0
 17
0.0
 27
0.0
 37
0.0
 40
341.0
 41
1.24
 42
50.0
 43
0.0
 44
0.0
 50
0.0
 51
0.0
 71
     0
 72
   100
 73
     1
 74
     3
 75
     0
 76
     0
 77
     0
 78
     0
  0
ENDTAB
  0
TABLE
  2
LTYPE
  5
5
330
0
100
AcDbSymbolTable
 70
     1
  0
LTYPE
  5
14
330
5
100
AcDbSymbolTableRecord
100
AcDbLinetypeTableRecord
  2
BYBLOCK
 70
     0
  3

 72
    65
 73
     0
 40
0.0
  0
LTYPE
  5
15
330
5
100
AcDbSymbolTableRecord
100
AcDbLinetypeTableRecord
  2
BYLAYER
 70
     0
  3

 72
    65
 73
     0
 40
0.0
  0
LTYPE
  5
16
330
5
100
AcDbSymbolTableRecord
100
AcDbLinetypeTableRecord
  2
CONTINUOUS
 70
     0
  3
Solid line
 72
    65
 73
     0
 40
0.0
  0
ENDTAB
  0
TABLE
  2
LAYER
  5
2
100
AcDbSymbolTable
 70
2
  0
LAYER
  5
50
100
AcDbSymbolTableRecord
100
AcDbLayerTableRecord
  2
0
 70
0
  6
CONTINUOUS
  0
LAYER
  5
51
100
AcDbSymbolTableRecord
100
AcDbLayerTableRecord
  2
Layer_1
 70
0
  6
CONTINUOUS
  0
ENDTAB
  0
TABLE
  2
STYLE
  5
3
330
0
100
AcDbSymbolTable
 70
     1
  0
STYLE
  5
11
330
3
100
AcDbSymbolTableRecord
100
AcDbTextStyleTableRecord
  2
STANDARD
 70
     0
 40
0.0
 41
1.0
 50
0.0
 71
     0
 42
2.5
  3
txt
  4

  0
ENDTAB
  0
TABLE
  2
VIEW
  5
6
330
0
100
AcDbSymbolTable
 70
     0
  0
ENDTAB
  0
TABLE
  2
UCS
  5
7
330
0
100
AcDbSymbolTable
 70
     0
  0
ENDTAB
  0
TABLE
  2
APPID
  5
9
330
0
100
AcDbSymbolTable
 70
     2
  0
APPID
  5
12
330
9
100
AcDbSymbolTableRecord
100
AcDbRegAppTableRecord
  2
ACAD
 70
     0
  0
ENDTAB
  0
TABLE
  2
DIMSTYLE
  5
A
330
0
100
AcDbSymbolTable
 70
     1
  0
DIMSTYLE
105
27
330
A
100
AcDbSymbolTableRecord
100
AcDbDimStyleTableRecord
  2
ISO-25
 70
     0
  3

  4

  5

  6

  7

 40
1.0
 41
2.5
 42
0.625
 43
3.75
 44
1.25
 45
0.0
 46
0.0
 47
0.0
 48
0.0
140
2.5
141
2.5
142
0.0
143
0.03937007874016
144
1.0
145
0.0
146
1.0
147
0.625
 71
     0
 72
     0
 73
     0
 74
     0
 75
     0
 76
     0
 77
     1
 78
     8
170
     0
171
     3
172
     1
173
     0
174
     0
175
     0
176
     0
177
     0
178
     0
270
     2
271
     2
272
     2
273
     2
274
     3
340
11
275
     0
280
     0
281
     0
282
     0
283
     0
284
     8
285
     0
286
     0
287
     3
288
     0
  0
ENDTAB
  0
TABLE
  2
BLOCK_RECORD
  5
1
330
0
100
AcDbSymbolTable
 70
     1
  0
BLOCK_RECORD
  5
1F
330
1
100
AcDbSymbolTableRecord
100
AcDbBlockTableRecord
  2
*MODEL_SPACE
  0
BLOCK_RECORD
  5
1B
330
1
100
AcDbSymbolTableRecord
100
AcDbBlockTableRecord
  2
*PAPER_SPACE
  0
ENDTAB
  0
ENDSEC
  0
SECTION
  2
BLOCKS
  0
BLOCK
  5
20
330
1F
100
AcDbEntity
  8
0
100
AcDbBlockBegin
  2
*MODEL_SPACE
 70
     0
 10
0.0
 20
0.0
 30
0.0
  3
*MODEL_SPACE
  1

  0
ENDBLK
  5
21
330
1F
100
AcDbEntity
  8
0
100
AcDbBlockEnd
  0
BLOCK
  5
1C
330
1B
100
AcDbEntity
 67
     1
  8
0
100
AcDbBlockBegin
  2
*PAPER_SPACE
  1

  0
ENDBLK
  5
1D
330
1B
100
AcDbEntity
 67
     1
  8
0
100
AcDbBlockEnd
  0
ENDSEC
  0
SECTION
  2
ENTITIES
  0
LWPOLYLINE
  5
100
100
AcDbEntity
  8
Layer_1
 62
7
100
AcDbPolyline
 90
425
 70
0
 10
18.765771
 20
1.556429
 30
0.0
 10
17.908583
 20
1.946855
 30
0.0
 10
17.086544
 20
2.365362
 30
0.0
 10
16.305068
 20
2.808282
 30
0.0
 10
15.569556
 20
3.272058
 30
0.0
 10
14.885432
 20
3.753049
 30
0.0
 10
14.258102
 20
4.247700
 30
0.0
 10
13.692981
 20
4.752370
 30
0.0
 10
13.195478
 20
5.263474
 30
0.0
 10
12.756345
 20
5.769019
 30
0.0
 10
12.381864
 20
6.243829
 30
0.0
 10
12.060714
 20
6.709101
 30
0.0
 10
11.781565
 20
7.186056
 30
0.0
 10
11.533092
 20
7.695834
 30
0.0
 10
11.303969
 20
8.259602
 30
0.0
 10
11.082869
 20
8.898581
 30
0.0
 10
10.858466
 20
9.633911
 30
0.0
 10
10.758981
 20
9.959144
 30
0.0
 10
10.656627
 20
10.262561
 30
0.0
 10
10.554326
 20
10.537502
 30
0.0
 10
10.455000
 20
10.777362
 30
0.0
 10
10.361572
 20
10.975482
 30
0.0
 10
10.276965
 20
11.125201
 30
0.0
 10
10.204097
 20
11.219915
 30
0.0
 10
10.145906
 20
11.252963
 30
0.0
 10
9.948063
 20
11.085267
 30
0.0
 10
9.800390
 20
10.626966
 30
0.0
 10
9.704148
 20
9.945287
 30
0.0
 10
9.660600
 20
9.107397
 30
0.0
 10
9.671005
 20
8.180523
 30
0.0
 10
9.736629
 20
7.231861
 30
0.0
 10
9.858731
 20
6.328609
 30
0.0
 10
10.038576
 20
5.537963
 30
0.0
 10
10.083990
 20
5.256503
 30
0.0
 10
10.023392
 20
5.094197
 30
0.0
 10
9.862808
 20
5.048534
 30
0.0
 10
9.608277
 20
5.117057
 30
0.0
 10
9.265817
 20
5.297171
 30
0.0
 10
8.841436
 20
5.586364
 30
0.0
 10
8.341182
 20
5.982181
 30
0.0
 10
7.771074
 20
6.482110
 30
0.0
 10
7.384031
 20
6.851905
 30
0.0
 10
7.020966
 20
7.232087
 30
0.0
 10
6.681000
 20
7.623868
 30
0.0
 10
6.363250
 20
8.028462
 30
0.0
 10
6.066837
 20
8.446997
 30
0.0
 10
5.790864
 20
8.880660
 30
0.0
 10
5.534459
 20
9.330691
 30
0.0
 10
5.296747
 20
9.798221
 30
0.0
 10
5.032628
 20
10.365233
 30
0.0
 10
4.824951
 20
10.858332
 30
0.0
 10
4.667277
 20
11.307348
 30
0.0
 10
4.553174
 20
11.742083
 30
0.0
 10
4.476208
 20
12.192340
 30
0.0
 10
4.429946
 20
12.687894
 30
0.0
 10
4.407955
 20
13.258547
 30
0.0
 10
4.403798
 20
13.934131
 30
0.0
 10
4.414706
 20
14.427004
 30
0.0
 10
4.442897
 20
14.941712
 30
0.0
 10
4.486656
 20
15.464543
 30
0.0
 10
4.544265
 20
15.981814
 30
0.0
 10
4.614007
 20
16.479840
 30
0.0
 10
4.694166
 20
16.944934
 30
0.0
 10
4.783024
 20
17.363407
 30
0.0
 10
4.878864
 20
17.721573
 30
0.0
 10
4.970846
 20
18.030691
 30
0.0
 10
5.053100
 20
18.322627
 30
0.0
 10
5.124079
 20
18.590741
 30
0.0
 10
5.182237
 20
18.828386
 30
0.0
 10
5.226030
 20
19.028919
 30
0.0
 10
5.253911
 20
19.185697
 30
0.0
 10
5.264333
 20
19.292072
 30
0.0
 10
5.255745
 20
19.341407
 30
0.0
 10
5.105628
 20
19.339432
 30
0.0
 10
4.867948
 20
19.159642
 30
0.0
 10
4.567100
 20
18.835343
 30
0.0
 10
4.227514
 20
18.399948
 30
0.0
 10
3.873609
 20
17.886856
 30
0.0
 10
3.529806
 20
17.329465
 30
0.0
 10
3.220526
 20
16.761176
 30
0.0
 10
2.970188
 20
16.215392
 30
0.0
 10
2.834002
 20
15.891921
 30
0.0
 10
2.697138
 20
15.588447
 30
0.0
 10
2.563296
 20
15.311734
 30
0.0
 10
2.436169
 20
15.068546
 30
0.0
 10
2.319457
 20
14.865642
 30
0.0
 10
2.216858
 20
14.709785
 30
0.0
 10
2.132071
 20
14.607761
 30
0.0
 10
2.068782
 20
14.566303
 30
0.0
 10
2.010890
 20
14.600593
 30
0.0
 10
1.941554
 20
14.715599
 30
0.0
 10
1.863389
 20
14.902884
 30
0.0
 10
1.779007
 20
15.153980
 30
0.0
 10
1.691022
 20
15.460442
 30
0.0
 10
1.602048
 20
15.813816
 30
0.0
 10
1.514698
 20
16.205650
 30
0.0
 10
1.431586
 20
16.627488
 30
0.0
 10
1.331061
 20
17.213816
 30
0.0
 10
1.256961
 20
17.750865
 30
0.0
 10
1.208948
 20
18.255910
 30
0.0
 10
1.186689
 20
18.746226
 30
0.0
 10
1.189847
 20
19.239090
 30
0.0
 10
1.218087
 20
19.751772
 30
0.0
 10
1.271073
 20
20.301547
 30
0.0
 10
1.348469
 20
20.905691
 30
0.0
 10
1.500811
 20
21.820334
 30
0.0
 10
1.692605
 20
22.650358
 30
0.0
 10
1.931568
 20
23.412206
 30
0.0
 10
2.225416
 20
24.122308
 30
0.0
 10
2.581868
 20
24.797101
 30
0.0
 10
3.008641
 20
25.453022
 30
0.0
 10
3.513452
 20
26.106502
 30
0.0
 10
4.104019
 20
26.773980
 30
0.0
 10
4.353875
 20
27.044917
 30
0.0
 10
4.586969
 20
27.305061
 30
0.0
 10
4.798199
 20
27.548189
 30
0.0
 10
4.982464
 20
27.768083
 30
0.0
 10
5.134661
 20
27.958521
 30
0.0
 10
5.249690
 20
28.113277
 30
0.0
 10
5.322448
 20
28.226135
 30
0.0
 10
5.347834
 20
28.290871
 30
0.0
 10
5.319224
 20
28.313985
 30
0.0
 10
5.237229
 20
28.307494
 30
0.0
 10
5.107597
 20
28.273588
 30
0.0
 10
4.936076
 20
28.214398
 30
0.0
 10
4.728417
 20
28.132070
 30
0.0
 10
4.490370
 20
28.028752
 30
0.0
 10
4.227682
 20
27.906586
 30
0.0
 10
3.946104
 20
27.767719
 30
0.0
 10
3.661252
 20
27.625033
 30
0.0
 10
3.389180
 20
27.491920
 30
0.0
 10
3.136297
 20
27.371293
 30
0.0
 10
2.909008
 20
27.266063
 30
0.0
 10
2.713723
 20
27.179147
 30
0.0
 10
2.556847
 20
27.113457
 30
0.0
 10
2.444788
 20
27.071906
 30
0.0
 10
2.383953
 20
27.057399
 30
0.0
 10
2.306105
 20
27.241927
 30
0.0
 10
2.589738
 20
27.741726
 30
0.0
 10
3.160475
 20
28.476111
 30
0.0
 10
3.943936
 20
29.364402
 30
0.0
 10
4.865743
 20
30.325914
 30
0.0
 10
5.851517
 20
31.279963
 30
0.0
 10
6.826882
 20
32.145872
 30
0.0
 10
7.717456
 20
32.842955
 30
0.0
 10
8.038485
 20
33.081246
 30
0.0
 10
8.342367
 20
33.325820
 30
0.0
 10
8.622139
 20
33.569734
 30
0.0
 10
8.870835
 20
33.806038
 30
0.0
 10
9.081490
 20
34.027791
 30
0.0
 10
9.247140
 20
34.228048
 30
0.0
 10
9.360821
 20
34.399862
 30
0.0
 10
9.415565
 20
34.536288
 30
0.0
 10
9.446420
 20
34.717235
 30
0.0
 10
9.491632
 20
35.016647
 30
0.0
 10
9.549037
 20
35.418631
 30
0.0
 10
9.616470
 20
35.907298
 30
0.0
 10
9.691768
 20
36.466753
 30
0.0
 10
9.772767
 20
37.081106
 30
0.0
 10
9.857301
 20
37.734461
 30
0.0
 10
9.943207
 20
38.410931
 30
0.0
 10
10.066594
 20
39.333708
 30
0.0
 10
10.191499
 20
40.134338
 30
0.0
 10
10.324420
 20
40.837822
 30
0.0
 10
10.471854
 20
41.469162
 30
0.0
 10
10.640298
 20
42.053362
 30
0.0
 10
10.836251
 20
42.615424
 30
0.0
 10
11.066209
 20
43.180354
 30
0.0
 10
11.336671
 20
43.773153
 30
0.0
 10
11.984311
 20
45.041621
 30
0.0
 10
12.600226
 20
46.056165
 30
0.0
 10
13.188787
 20
46.819883
 30
0.0
 10
13.754357
 20
47.335859
 30
0.0
 10
14.301307
 20
47.607187
 30
0.0
 10
14.834000
 20
47.636959
 30
0.0
 10
15.356805
 20
47.428261
 30
0.0
 10
15.874088
 20
46.984185
 30
0.0
 10
16.033101
 20
46.793117
 30
0.0
 10
16.247486
 20
46.507802
 30
0.0
 10
16.507829
 20
46.142135
 30
0.0
 10
16.804715
 20
45.710022
 30
0.0
 10
17.128730
 20
45.225359
 30
0.0
 10
17.470459
 20
44.702051
 30
0.0
 10
17.820489
 20
44.153995
 30
0.0
 10
18.169404
 20
43.595091
 30
0.0
 10
18.795250
 20
42.596371
 30
0.0
 10
19.327138
 20
41.785180
 30
0.0
 10
19.775658
 20
41.149305
 30
0.0
 10
20.151406
 20
40.676532
 30
0.0
 10
20.464974
 20
40.354652
 30
0.0
 10
20.726954
 20
40.171448
 30
0.0
 10
20.947941
 20
40.114721
 30
0.0
 10
21.138528
 20
40.172294
 30
0.0
 10
21.353630
 20
40.369040
 30
0.0
 10
21.589536
 20
40.702601
 30
0.0
 10
21.843131
 20
41.165798
 30
0.0
 10
22.111344
 20
41.751381
 30
0.0
 10
22.391097
 20
42.452119
 30
0.0
 10
22.679306
 20
43.260782
 30
0.0
 10
22.972891
 20
44.170133
 30
0.0
 10
23.268773
 20
45.172942
 30
0.0
 10
23.432001
 20
45.725273
 30
0.0
 10
23.599662
 20
46.246453
 30
0.0
 10
23.766987
 20
46.724650
 30
0.0
 10
23.929207
 20
47.148043
 30
0.0
 10
24.081551
 20
47.504794
 30
0.0
 10
24.219250
 20
47.783080
 30
0.0
 10
24.337534
 20
47.971068
 30
0.0
 10
24.431636
 20
48.056934
 30
0.0
 10
24.910670
 20
48.040057
 30
0.0
 10
25.475804
 20
47.700643
 30
0.0
 10
26.089897
 20
47.093224
 30
0.0
 10
26.715815
 20
46.272319
 30
0.0
 10
27.316419
 20
45.292457
 30
0.0
 10
27.854574
 20
44.208162
 30
0.0
 10
28.293142
 20
43.073954
 30
0.0
 10
28.594987
 20
41.944359
 30
0.0
 10
28.638932
 20
41.723915
 30
0.0
 10
28.682880
 20
41.503469
 30
0.0
 10
28.726825
 20
41.283025
 30
0.0
 10
28.770772
 20
41.062578
 30
0.0
 10
28.814717
 20
40.842135
 30
0.0
 10
28.858665
 20
40.621688
 30
0.0
 10
28.902610
 20
40.401244
 30
0.0
 10
28.946557
 20
40.180798
 30
0.0
 10
29.385455
 20
39.952274
 30
0.0
 10
29.824356
 20
39.723747
 30
0.0
 10
30.263254
 20
39.495223
 30
0.0
 10
30.702154
 20
39.266700
 30
0.0
 10
31.141052
 20
39.038176
 30
0.0
 10
31.579953
 20
38.809649
 30
0.0
 10
32.018851
 20
38.581125
 30
0.0
 10
32.457752
 20
38.352599
 30
0.0
 10
33.875676
 20
37.589851
 30
0.0
 10
35.056745
 20
36.890578
 30
0.0
 10
36.042186
 20
36.216930
 30
0.0
 10
36.873240
 20
35.531065
 30
0.0
 10
37.591128
 20
34.795128
 30
0.0
 10
38.237090
 20
33.971274
 30
0.0
 10
38.852351
 20
33.021655
 30
0.0
 10
39.478151
 20
31.908427
 30
0.0
 10
40.142826
 20
30.721809
 30
0.0
 10
40.794540
 20
29.749164
 30
0.0
 10
41.527443
 20
28.923935
 30
0.0
 10
42.435690
 20
28.179571
 30
0.0
 10
43.613440
 20
27.449525
 30
0.0
 10
45.154853
 20
26.667244
 30
0.0
 10
47.154082
 20
25.766176
 30
0.0
 10
49.705286
 20
24.679773
 30
0.0
 10
50.489875
 20
24.343570
 30
0.0
 10
51.240165
 20
24.009659
 30
0.0
 10
51.938423
 20
23.686800
 30
0.0
 10
52.566920
 20
23.383747
 30
0.0
 10
53.107918
 20
23.109257
 30
0.0
 10
53.543689
 20
22.872086
 30
0.0
 10
53.856495
 20
22.680993
 30
0.0
 10
54.028611
 20
22.544734
 30
0.0
 10
54.169999
 20
22.379462
 30
0.0
 10
54.268308
 20
22.231857
 30
0.0
 10
54.322072
 20
22.085753
 30
0.0
 10
54.329833
 20
21.924985
 30
0.0
 10
54.290107
 20
21.733390
 30
0.0
 10
54.201441
 20
21.494808
 30
0.0
 10
54.062365
 20
21.193070
 30
0.0
 10
53.871411
 20
20.812013
 30
0.0
 10
53.704044
 20
20.524409
 30
0.0
 10
53.465900
 20
20.173556
 30
0.0
 10
53.168045
 20
19.773035
 30
0.0
 10
52.821561
 20
19.336426
 30
0.0
 10
52.437524
 20
18.877312
 30
0.0
 10
52.027012
 20
18.409272
 30
0.0
 10
51.601099
 20
17.945892
 30
0.0
 10
51.170863
 20
17.500748
 30
0.0
 10
50.753321
 20
17.075600
 30
0.0
 10
50.363789
 20
16.669519
 30
0.0
 10
50.010797
 20
16.292072
 30
0.0
 10
49.702867
 20
15.952824
 30
0.0
 10
49.448523
 20
15.661334
 30
0.0
 10
49.256298
 20
15.427168
 30
0.0
 10
49.134709
 20
15.259890
 30
0.0
 10
49.092285
 20
15.169065
 30
0.0
 10
48.985365
 20
14.934462
 30
0.0
 10
48.667165
 20
14.717571
 30
0.0
 10
48.141507
 20
14.519197
 30
0.0
 10
47.412222
 20
14.340071
 30
0.0
 10
46.483129
 20
14.181039
 30
0.0
 10
45.358064
 20
14.042806
 30
0.0
 10
44.040854
 20
13.926220
 30
0.0
 10
42.535320
 20
13.832014
 30
0.0
 10
41.196684
 20
13.759088
 30
0.0
 10
40.137893
 20
13.690480
 30
0.0
 10
39.319745
 20
13.619924
 30
0.0
 10
38.703042
 20
13.541100
 30
0.0
 10
38.248573
 20
13.447741
 30
0.0
 10
37.917149
 20
13.333497
 30
0.0
 10
37.669552
 20
13.192104
 30
0.0
 10
37.466601
 20
13.017211
 30
0.0
 10
37.233601
 20
12.707246
 30
0.0
 10
37.088437
 20
12.340018
 30
0.0
 10
37.029416
 20
11.927184
 30
0.0
 10
37.054844
 20
11.480257
 30
0.0
 10
37.163037
 20
11.010893
 30
0.0
 10
37.352301
 20
10.530692
 30
0.0
 10
37.620945
 20
10.051224
 30
0.0
 10
37.967271
 20
9.584090
 30
0.0
 10
38.193910
 20
9.311972
 30
0.0
 10
38.357858
 20
9.101744
 30
0.0
 10
38.460737
 20
8.941075
 30
0.0
 10
38.504165
 20
8.817518
 30
0.0
 10
38.489772
 20
8.718740
 30
0.0
 10
38.419146
 20
8.632296
 30
0.0
 10
38.293921
 20
8.545823
 30
0.0
 10
38.115717
 20
8.446904
 30
0.0
 10
37.980324
 20
8.386988
 30
0.0
 10
37.808739
 20
8.331080
 30
0.0
 10
37.607952
 20
8.280421
 30
0.0
 10
37.384971
 20
8.236197
 30
0.0
 10
37.146772
 20
8.199706
 30
0.0
 10
36.900361
 20
8.172048
 30
0.0
 10
36.652717
 20
8.154550
 30
0.0
 10
36.410847
 20
8.148623
 30
0.0
 10
35.945002
 20
8.131126
 30
0.0
 10
35.607772
 20
8.074427
 30
0.0
 10
35.398550
 20
7.972658
 30
0.0
 10
35.316714
 20
7.819834
 30
0.0
 10
35.361669
 20
7.609946
 30
0.0
 10
35.532805
 20
7.337009
 30
0.0
 10
35.829506
 20
6.995096
 30
0.0
 10
36.251182
 20
6.578141
 30
0.0
 10
36.449604
 20
6.388008
 30
0.0
 10
36.634717
 20
6.204846
 30
0.0
 10
36.802461
 20
6.033086
 30
0.0
 10
36.948802
 20
5.877101
 30
0.0
 10
37.069666
 20
5.741352
 30
0.0
 10
37.161019
 20
5.630270
 30
0.0
 10
37.218798
 20
5.548284
 30
0.0
 10
37.238949
 20
5.499770
 30
0.0
 10
37.145093
 20
5.387700
 30
0.0
 10
36.886414
 20
5.266655
 30
0.0
 10
36.497243
 20
5.144029
 30
0.0
 10
36.011912
 20
5.027104
 30
0.0
 10
35.464750
 20
4.923275
 30
0.0
 10
34.890095
 20
4.839822
 30
0.0
 10
34.322272
 20
4.784139
 30
0.0
 10
33.795618
 20
4.763537
 30
0.0
 10
33.499637
 20
4.769746
 30
0.0
 10
33.166522
 20
4.787808
 30
0.0
 10
32.807642
 20
4.816313
 30
0.0
 10
32.434347
 20
4.853848
 30
0.0
 10
32.058018
 20
4.899455
 30
0.0
 10
31.690023
 20
4.951808
 30
0.0
 10
31.341718
 20
5.009691
 30
0.0
 10
31.024478
 20
5.071837
 30
0.0
 10
30.730845
 20
5.130595
 30
0.0
 10
30.450217
 20
5.178714
 30
0.0
 10
30.189204
 20
5.215629
 30
0.0
 10
29.954441
 20
5.240747
 30
0.0
 10
29.752536
 20
5.253447
 30
0.0
 10
29.590117
 20
5.253447
 30
0.0
 10
29.473808
 20
5.239618
 30
0.0
 10
29.410214
 20
5.211960
 30
0.0
 10
29.387806
 20
5.079598
 30
0.0
 10
29.483680
 20
4.869709
 30
0.0
 10
29.680005
 20
4.600751
 30
0.0
 10
29.958945
 20
4.291069
 30
0.0
 10
30.302672
 20
3.959063
 30
0.0
 10
30.693329
 20
3.623049
 30
0.0
 10
31.113093
 20
3.301513
 30
0.0
 10
31.544133
 20
3.012772
 30
0.0
 10
31.783478
 20
2.859017
 30
0.0
 10
31.971528
 20
2.724453
 30
0.0
 10
32.109899
 20
2.606710
 30
0.0
 10
32.200218
 20
2.503417
 30
0.0
 10
32.244104
 20
2.412259
 30
0.0
 10
32.243257
 20
2.330866
 30
0.0
 10
32.199149
 20
2.256924
 30
0.0
 10
32.113469
 20
2.188034
 30
0.0
 10
31.770840
 20
2.067892
 30
0.0
 10
31.223853
 20
1.991381
 30
0.0
 10
30.519624
 20
1.957063
 30
0.0
 10
29.705272
 20
1.963554
 30
0.0
 10
28.827911
 20
2.009246
 30
0.0
 10
27.934655
 20
2.092755
 30
0.0
 10
27.072624
 20
2.212672
 30
0.0
 10
26.288934
 20
2.367527
 30
0.0
 10
25.483407
 20
2.571376
 30
0.0
 10
24.778964
 20
2.784736
 30
0.0
 10
24.146891
 20
3.022762
 30
0.0
 10
23.558471
 20
3.300469
 30
0.0
 10
22.984990
 20
3.632983
 30
0.0
 10
22.397733
 20
4.035376
 30
0.0
 10
21.767982
 20
4.522717
 30
0.0
 10
21.067025
 20
5.110106
 30
0.0
 10
20.734570
 20
5.389845
 30
0.0
 10
20.417650
 20
5.644042
 30
0.0
 10
20.123687
 20
5.867619
 30
0.0
 10
19.860101
 20
6.055494
 30
0.0
 10
19.634306
 20
6.202616
 30
0.0
 10
19.453737
 20
6.303878
 30
0.0
 10
19.325799
 20
6.354198
 30
0.0
 10
19.257918
 20
6.348554
 30
0.0
 10
19.204502
 20
6.168326
 30
0.0
 10
19.230291
 20
5.841795
 30
0.0
 10
19.324984
 20
5.400823
 30
0.0
 10
19.478271
 20
4.877301
 30
0.0
 10
19.679847
 20
4.303120
 30
0.0
 10
19.919407
 20
3.710143
 30
0.0
 10
20.186642
 20
3.130261
 30
0.0
 10
20.471249
 20
2.595365
 30
0.0
 10
20.841681
 20
1.923196
 30
0.0
 10
21.068413
 20
1.420022
 30
0.0
 10
21.139927
 20
1.078816
 30
0.0
 10
21.044689
 20
0.892577
 30
0.0
 10
20.771183
 20
0.854280
 30
0.0
 10
20.307896
 20
0.956896
 30
0.0
 10
19.643288
 20
1.193426
 30
0.0
 10
18.765852
 20
1.556872
 30
0.0
 10
18.765852
 20
1.556872
 30
0.0
 10
18.765852
 20
1.556872
 30
0.0
 10
18.765852
 20
1.556872
 30
0.0
 10
18.765852
 20
1.556872
 30
0.0
 10
18.765852
 20
1.556872
 30
0.0
 10
18.765852
 20
1.556844
 30
0.0
 10
18.765856
 20
1.556787
 30
0.0
 10
18.765771
 20
1.556429
 30
0.0
  0
ENDSEC
  0
SECTION
  2
OBJECTS
  0
DICTIONARY
  5
C
330
0
100
AcDbDictionary
  3
ACAD_GROUP
350
D
  3
ACAD_MLINESTYLE
350
17
  0
DICTIONARY
  5
D
330
C
100
AcDbDictionary
  0
DICTIONARY
  5
1A
330
C
100
AcDbDictionary
  0
DICTIONARY
  5
17
330
C
100
AcDbDictionary
  3
STANDARD
350
18
  0
DICTIONARY
  5
19
330
C
100
AcDbDictionary
  0
ENDSEC
  0
EOF
