<?xml version="1.0" encoding="UTF-8" standalone="no"?>
<!-- Created with Inkscape (http://www.inkscape.org/) -->

<svg
   xmlns:dc="http://purl.org/dc/elements/1.1/"
   xmlns:cc="http://creativecommons.org/ns#"
   xmlns:rdf="http://www.w3.org/1999/02/22-rdf-syntax-ns#"
   xmlns:svg="http://www.w3.org/2000/svg"
   xmlns="http://www.w3.org/2000/svg"
   xmlns:sodipodi="http://sodipodi.sourceforge.net/DTD/sodipodi-0.dtd"
   xmlns:inkscape="http://www.inkscape.org/namespaces/inkscape"
   width="210mm"
   height="297mm"
   viewBox="0 0 744.09448819 1052.3622047"
   id="svg2"
   version="1.1"
   inkscape:version="0.91 r13725"
   sodipodi:docname="zombie.svg">
  <defs
     id="defs4" />
  <sodipodi:namedview
     id="base"
     pagecolor="#ffffff"
     bordercolor="#666666"
     borderopacity="1.0"
     inkscape:pageopacity="0.0"
     inkscape:pageshadow="2"
     inkscape:zoom="1.979899"
     inkscape:cx="-166.08791"
     inkscape:cy="-31.24538"
     inkscape:document-units="px"
     inkscape:current-layer="layer1"
     showgrid="false"
     inkscape:window-width="2560"
     inkscape:window-height="1370"
     inkscape:window-x="0"
     inkscape:window-y="0"
     inkscape:window-maximized="1" />
  <metadata
     id="metadata7">
    <rdf:RDF>
      <cc:Work
         rdf:about="">
        <dc:format>image/svg+xml</dc:format>
        <dc:type
           rdf:resource="http://purl.org/dc/dcmitype/StillImage" />
        <dc:title></dc:title>
      </cc:Work>
    </rdf:RDF>
  </metadata>
  <g
     inkscape:label="Layer 1"
     inkscape:groupmode="layer"
     id="layer1">
    <path
       style="fill:#000000"
       d="m -24.502064,1154.6903 -0.2124,-0.813 -0.2124,-0.813 -0.2124,-0.8131 -0.2124,-0.813 -0.2124,-0.8131 -0.2124,-0.8129 -0.2124,-0.8132 -0.2124,-0.8129 -0.4797,0.7154 -0.4797,0.7155 -0.4797,0.7156 -0.4797,0.7156 -0.4797,0.7155 -0.4797,0.7155 -0.4797,0.7156 -0.4797,0.7155 -1.736277,2.244 -1.613742,1.3545 -1.501724,0.4579 -1.400219,-0.4456 -1.309219,-1.3562 -1.228711,-2.2735 -1.158706,-3.1982 -1.099202,-4.1296 -0.446174,-2.5504 -0.227963,-2.9337 -0.006,-3.3626 0.219659,-3.8373 0.449071,-4.3579 0.682218,-4.9243 0.919097,-5.5363 1.159711,-6.1941 0.973778,-5.3258 0.909739,-5.6639 0.825694,-5.8284 0.721643,-5.8194 0.597586,-5.6365 0.453524,-5.28 0.289455,-4.7498 0.105381,-4.0458 -0.0242,-5.5115 -0.140156,-4.3629 -0.323502,-3.4479 -0.574239,-2.7667 -0.892364,-2.3191 -1.277878,-2.1051 -1.730784,-2.125 -2.251077,-2.3783 -1.492972,-1.5862 -1.464905,-1.6771 -1.39962,-1.7173 -1.297118,-1.7066 -1.157397,-1.6452 -0.980459,-1.5329 -0.766304,-1.3698 -0.51493,-1.1559 -0.493505,-1.2064 -0.704831,-1.5147 -0.883253,-1.762 -1.028773,-1.9483 -1.141391,-2.0736 -1.221105,-2.138 -1.267916,-2.1414 -1.281826,-2.0838 -3.261553,-6.3711 -1.697859,-6.1055 -0.182766,-5.7201 1.283729,-5.21521 2.701622,-4.5907 4.070917,-3.84658 5.39161,-2.98293 6.663705,-1.99966 2.294294,-0.52655 2.321754,-0.65168 2.285431,-0.75106 2.185322,-0.82472 2.021428,-0.87261 1.79375,-0.8948 1.502285,-0.89123 1.147036,-0.86194 1.988348,-1.66647 1.688816,-1.19653 1.424572,-0.72738 1.195616,-0.25907 1.001946,0.20846 0.843565,0.67516 0.720472,1.14105 0.632665,1.60612 0.192006,2.20345 -0.641492,2.53731 -1.354296,2.72184 -1.946406,2.75701 -2.417819,2.64286 -2.768538,2.37937 -2.998563,1.96655 -3.107892,1.40437 -1.400796,0.48526 -1.342716,0.47205 -1.252685,0.44706 -1.1307,0.41041 -0.976763,0.36207 -0.790873,0.30205 -0.573031,0.23018 -0.323236,0.14672 -0.07969,0.20342 0.124975,0.3925 0.312655,0.55875 0.48335,0.70163 0.637056,0.82167 0.773779,0.91843 0.893513,0.99217 0.996264,1.0429 0.631488,0.6426 0.631487,0.6427 0.631488,0.6427 0.631487,0.6427 0.631488,0.6426 0.631487,0.6427 0.631488,0.6427 0.631487,0.6426 1.021038,-0.8171 1.021037,-0.8172 1.021038,-0.8171 1.021037,-0.8171 1.021038,-0.8171 1.021037,-0.8172 1.021038,-0.8171 1.021037,-0.8171 5.545347,-4.61523 4.679125,-4.29223 3.8519982,-4.02319 3.0639678,-3.80851 2.3150324,-3.64796 1.6051909,-3.54161 0.9344451,-3.48946 0.30279396,-3.4915 -0.07302,-2.74069 -0.300108,-2.30038 -0.6487561,-2.02813 -1.1189629,-1.92388 -1.710732,-1.98769 -2.4240617,-2.21952 -3.2589527,-2.61939 -4.215404,-3.18728 -7.09385,-5.62148 -4.510325,-4.33941 -1.959995,-3.03801 0.557142,-1.71732 3.041082,-0.37727 5.491829,0.98208 7.909381,2.36076 10.29373632,3.75876 4.32537908,1.7233 3.376244,1.49665 2.5987308,1.42908 1.9928358,1.52059 1.558563,1.77116 1.29591,2.18081 1.204876,2.74953 1.285461,3.47733 0.488625,1.37591 0.488625,1.37591 0.488625,1.3759 0.488625,1.37592 0.488625,1.3759 0.488625,1.37592 0.488625,1.3759 0.488625,1.37592 0.373375,-0.85037 0.373375,-0.85037 0.373375,-0.85037 0.373375,-0.85036 0.373375,-0.85037 0.373375,-0.85037 0.373375,-0.85037 0.373375,-0.85036 1.403343,-3.43763 0.90419,-2.95407 0.370307,-2.64688 -0.198302,-2.51602 -0.801644,-2.56151 -1.439717,-2.78335 -2.112521,-3.18153 -2.820056,-3.75605 -1.899292,-2.55167 -1.57809,-2.35873 -1.268928,-2.19494 -0.97181,-2.06034 -0.686732,-1.95486 -0.413696,-1.87855 -0.152702,-1.83141 0.09625,-1.8134 0.1008,-0.84398 0.1008,-0.84398 0.1008,-0.84398 0.1008,-0.84398 0.1008,-0.84398 0.1008,-0.84398 0.1008,-0.84397 0.1008,-0.84399 1.847513,2.11367 1.847512,2.11367 1.847513,2.11368 1.847512,2.11367 1.847513,2.11367 1.847512,2.11367 1.847513,2.11368 1.847512,2.11367 6.505862,7.55882 4.976795,6.122 3.563904,4.93982 2.267189,4.01224 1.086639,3.33928 0.02224,2.92097 -0.925984,2.75726 -1.75805,2.84819 -1.894307,2.8144 -1.137862,2.07214 -0.409374,1.32185 0.291157,0.56353 0.96373,-0.20285 1.608346,-0.97724 2.225004,-1.75966 2.813706,-2.55015 2.149484,-2.11548 1.62735,-1.86985 1.161212,-1.84256 0.751071,-2.03362 0.396924,-2.44303 0.09877,-3.07079 -0.143379,-3.9169 -0.329537,-4.98137 -0.278603,-4.4492 -0.118567,-3.67146 0.05972,-3.00561 0.256251,-2.45171 0.471032,-2.00969 0.704062,-1.67963 0.95534,-1.46145 1.224867,-1.35521 1.709471,-1.63891 1.343595,-0.98479 1.109891,-0.13019 1.00836,0.92488 1.039002,2.18042 1.201815,3.63644 1.496803,5.2929 1.923963,7.14986 1.938834,7.69094 1.279037,6.37435 0.589074,5.30876 -0.131054,4.49425 -0.881347,3.93073 -1.661804,3.61828 -2.472426,3.55685 -3.313214,3.74646 -1.971339,2.15345 -1.673483,2.01325 -1.373099,1.86853 -1.070193,1.71928 -0.764759,1.56549 -0.456801,1.40727 -0.146317,1.24444 0.166691,1.07708 0.131463,1.20829 -0.37673,1.3938 -0.931232,1.6314 -1.532038,1.9214 -2.179153,2.2635 -2.872574,2.6579 -3.612301,3.1045 -4.398335,3.6031 -3.623648,2.8904 -3.750406,2.9421 -3.768633,2.9118 -3.678331,2.7995 -3.479496,2.6054 -3.172133,2.3293 -2.756239,1.9711 -2.231814,1.531 -2.193521,1.5346 -1.9024648,1.4972 -1.6109718,1.4595 -1.319046,1.4211 -1.026682,1.3823 -0.733884,1.343 -0.44065,1.3032 -0.14698,1.2627 0.199035,1.4863 0.57044,2.3266 0.901846,3.0484 1.193254,3.6523 1.444663,4.138 1.6560746,4.5056 1.827486,4.7552 1.958901,4.8865 4.064092,10.4441 3.395601,9.8493 2.729589,9.2665 2.066056,8.6956 1.405001,8.1369 0.746425,7.5901 0.09033,7.0556 -0.563292,6.5328 -0.828141,4.9593 -0.94623,4.251 -0.996791,3.4077 -0.979826,2.4295 -0.895333,1.3165 -0.743315,0.069 -0.523769,-1.3143 -0.236695,-2.8321 -0.34168,-7.861 -0.692088,-8.5536 -0.972135,-8.7851 -1.181819,-8.555 -1.321141,-7.8631 -1.390101,-6.7101 -1.3887,-5.0953 -1.316936,-3.0191 -1.207212,-1.6962 -0.899185,-1.0411 -0.613921,-0.2804 -0.3514213,0.5853 -0.111685,1.5564 0.105287,2.6328 0.2994963,3.8142 0.470941,5.1012 0.520022,7.0109 0.157109,6.1629 -0.196227,5.2634 -0.539982,4.3123 -0.8741613,3.3094 -1.1987585,2.255 -1.5137798,1.1491 -1.819222,-0.01 -0.877254,-0.2058 -0.752387,-0.038 -0.629953,0.1309 -0.509956,0.3024 -0.392393,0.4761 -0.277266,0.6517 -0.164574,0.8297 -0.05432,1.0096 -0.07193,0.8818 -0.206166,0.8653 -0.32594101,0.8269 -0.431259,0.7665 -0.52212205,0.684 -0.59852802,0.5797 -0.66047792,0.4532 -0.7079721,0.3048 -0.7421889,0.3266 -0.758545,0.5158 -0.7535726,0.6784 -0.7272683,0.8147 -0.6796339,0.9248 -0.6106692,1.0083 -0.5203738,1.0655 -0.408748,1.0962 -1.7168539,4.0612 -2.1988837,3.1177 -2.504434,2.1349 -2.633504,1.1127 -2.586097,0.051 -2.36221,-1.0496 -1.961838,-2.1898 z"
       id="path3613"
       inkscape:connector-curvature="0"
       sodipodi:nodetypes="ccccccccccccccccccccccccccccccccccccccccccccccccccccccccccccccccccccccccccccccccccccccccccccccccccccccccccccccccccccccccccccccccccccccccccccccccccccccccccccccccccccccccccccccccccccccccccccccccccccccccccccccccccccccccccccccccccccccccccccccccccccccccccccccccccccccccccccccccccccccccccccccccccccccccccccccccccccccccccccccccccccccccccccccccccccccccccccccccccccccccccccccccc" />
  </g>
</svg>
