  0
SECTION
  2
HEADER
  9
$ACADVER
  1
AC1014
  9
$HANDSEED
  5
FFFF
  9
$MEASUREMENT
 70
     1
  0
ENDSEC
  0
SECTION
  2
TABLES
  0
TABLE
  2
VPORT
  5
8
330
0
100
AcDbSymbolTable
 70
     4
  0
VPORT
  5
2E
330
8
100
AcDbSymbolTableRecord
100
AcDbViewportTableRecord
  2
*ACTIVE
 70
     0
 10
0.0
 20
0.0
 11
1.0
 21
1.0
 12
210.0
 22
148.5
 13
0.0
 23
0.0
 14
10.0
 24
10.0
 15
10.0
 25
10.0
 16
0.0
 26
0.0
 36
1.0
 17
0.0
 27
0.0
 37
0.0
 40
341.0
 41
1.24
 42
50.0
 43
0.0
 44
0.0
 50
0.0
 51
0.0
 71
     0
 72
   100
 73
     1
 74
     3
 75
     0
 76
     0
 77
     0
 78
     0
  0
ENDTAB
  0
TABLE
  2
LTYPE
  5
5
330
0
100
AcDbSymbolTable
 70
     1
  0
LTYPE
  5
14
330
5
100
AcDbSymbolTableRecord
100
AcDbLinetypeTableRecord
  2
BYBLOCK
 70
     0
  3

 72
    65
 73
     0
 40
0.0
  0
LTYPE
  5
15
330
5
100
AcDbSymbolTableRecord
100
AcDbLinetypeTableRecord
  2
BYLAYER
 70
     0
  3

 72
    65
 73
     0
 40
0.0
  0
LTYPE
  5
16
330
5
100
AcDbSymbolTableRecord
100
AcDbLinetypeTableRecord
  2
CONTINUOUS
 70
     0
  3
Solid line
 72
    65
 73
     0
 40
0.0
  0
ENDTAB
  0
TABLE
  2
LAYER
  5
2
100
AcDbSymbolTable
 70
2
  0
LAYER
  5
50
100
AcDbSymbolTableRecord
100
AcDbLayerTableRecord
  2
0
 70
0
  6
CONTINUOUS
  0
LAYER
  5
51
100
AcDbSymbolTableRecord
100
AcDbLayerTableRecord
  2
Layer_1
 70
0
  6
CONTINUOUS
  0
ENDTAB
  0
TABLE
  2
STYLE
  5
3
330
0
100
AcDbSymbolTable
 70
     1
  0
STYLE
  5
11
330
3
100
AcDbSymbolTableRecord
100
AcDbTextStyleTableRecord
  2
STANDARD
 70
     0
 40
0.0
 41
1.0
 50
0.0
 71
     0
 42
2.5
  3
txt
  4

  0
ENDTAB
  0
TABLE
  2
VIEW
  5
6
330
0
100
AcDbSymbolTable
 70
     0
  0
ENDTAB
  0
TABLE
  2
UCS
  5
7
330
0
100
AcDbSymbolTable
 70
     0
  0
ENDTAB
  0
TABLE
  2
APPID
  5
9
330
0
100
AcDbSymbolTable
 70
     2
  0
APPID
  5
12
330
9
100
AcDbSymbolTableRecord
100
AcDbRegAppTableRecord
  2
ACAD
 70
     0
  0
ENDTAB
  0
TABLE
  2
DIMSTYLE
  5
A
330
0
100
AcDbSymbolTable
 70
     1
  0
DIMSTYLE
105
27
330
A
100
AcDbSymbolTableRecord
100
AcDbDimStyleTableRecord
  2
ISO-25
 70
     0
  3

  4

  5

  6

  7

 40
1.0
 41
2.5
 42
0.625
 43
3.75
 44
1.25
 45
0.0
 46
0.0
 47
0.0
 48
0.0
140
2.5
141
2.5
142
0.0
143
0.03937007874016
144
1.0
145
0.0
146
1.0
147
0.625
 71
     0
 72
     0
 73
     0
 74
     0
 75
     0
 76
     0
 77
     1
 78
     8
170
     0
171
     3
172
     1
173
     0
174
     0
175
     0
176
     0
177
     0
178
     0
270
     2
271
     2
272
     2
273
     2
274
     3
340
11
275
     0
280
     0
281
     0
282
     0
283
     0
284
     8
285
     0
286
     0
287
     3
288
     0
  0
ENDTAB
  0
TABLE
  2
BLOCK_RECORD
  5
1
330
0
100
AcDbSymbolTable
 70
     1
  0
BLOCK_RECORD
  5
1F
330
1
100
AcDbSymbolTableRecord
100
AcDbBlockTableRecord
  2
*MODEL_SPACE
  0
BLOCK_RECORD
  5
1B
330
1
100
AcDbSymbolTableRecord
100
AcDbBlockTableRecord
  2
*PAPER_SPACE
  0
ENDTAB
  0
ENDSEC
  0
SECTION
  2
BLOCKS
  0
BLOCK
  5
20
330
1F
100
AcDbEntity
  8
0
100
AcDbBlockBegin
  2
*MODEL_SPACE
 70
     0
 10
0.0
 20
0.0
 30
0.0
  3
*MODEL_SPACE
  1

  0
ENDBLK
  5
21
330
1F
100
AcDbEntity
  8
0
100
AcDbBlockEnd
  0
BLOCK
  5
1C
330
1B
100
AcDbEntity
 67
     1
  8
0
100
AcDbBlockBegin
  2
*PAPER_SPACE
  1

  0
ENDBLK
  5
1D
330
1B
100
AcDbEntity
 67
     1
  8
0
100
AcDbBlockEnd
  0
ENDSEC
  0
SECTION
  2
ENTITIES
  0
LWPOLYLINE
  5
100
100
AcDbEntity
  8
Layer_1
 62
7
100
AcDbPolyline
 90
369
 70
1
 10
-6.915027
 20
-28.879262
 30
0.0
 10
-6.974971
 20
-28.649816
 30
0.0
 10
-7.034915
 20
-28.420369
 30
0.0
 10
-7.094859
 20
-28.190894
 30
0.0
 10
-7.154803
 20
-27.961448
 30
0.0
 10
-7.214747
 20
-27.731973
 30
0.0
 10
-7.274691
 20
-27.502554
 30
0.0
 10
-7.334635
 20
-27.273051
 30
0.0
 10
-7.394579
 20
-27.043633
 30
0.0
 10
-7.529961
 20
-27.245534
 30
0.0
 10
-7.665343
 20
-27.447464
 30
0.0
 10
-7.800725
 20
-27.649423
 30
0.0
 10
-7.936107
 20
-27.851381
 30
0.0
 10
-8.071489
 20
-28.053311
 30
0.0
 10
-8.206871
 20
-28.255241
 30
0.0
 10
-8.342253
 20
-28.457199
 30
0.0
 10
-8.477635
 20
-28.659129
 30
0.0
 10
-8.967651
 20
-29.292436
 30
0.0
 10
-9.423085
 20
-29.674706
 30
0.0
 10
-9.846905
 20
-29.803935
 30
0.0
 10
-10.242078
 20
-29.678177
 30
0.0
 10
-10.611568
 20
-29.295427
 30
0.0
 10
-10.958338
 20
-28.653795
 30
0.0
 10
-11.285350
 20
-27.751192
 30
0.0
 10
-11.595570
 20
-26.585727
 30
0.0
 10
-11.721490
 20
-25.865948
 30
0.0
 10
-11.785826
 20
-25.037992
 30
0.0
 10
-11.787519
 20
-24.088992
 30
0.0
 10
-11.725527
 20
-23.006020
 30
0.0
 10
-11.598789
 20
-21.776124
 30
0.0
 10
-11.406252
 20
-20.386377
 30
0.0
 10
-11.146862
 20
-18.823910
 30
0.0
 10
-10.819566
 20
-17.075798
 30
0.0
 10
-10.544744
 20
-15.572739
 30
0.0
 10
-10.287996
 20
-13.974260
 30
0.0
 10
-10.054966
 20
-12.329356
 30
0.0
 10
-9.851303
 20
-10.686992
 30
0.0
 10
-9.682651
 20
-9.096247
 30
0.0
 10
-9.554656
 20
-7.606113
 30
0.0
 10
-9.472966
 20
-6.265614
 30
0.0
 10
-9.443225
 20
-5.123800
 30
0.0
 10
-9.450054
 20
-3.568332
 30
0.0
 10
-9.489610
 20
-2.337024
 30
0.0
 10
-9.580909
 20
-1.363950
 30
0.0
 10
-9.742972
 20
-0.583126
 30
0.0
 10
-9.994817
 20
0.071375
 30
0.0
 10
-10.355463
 20
0.665481
 30
0.0
 10
-10.843928
 20
1.265204
 30
0.0
 10
-11.479232
 20
1.936413
 30
0.0
 10
-11.900582
 20
2.384074
 30
0.0
 10
-12.314011
 20
2.857388
 30
0.0
 10
-12.709015
 20
3.342049
 30
0.0
 10
-13.075090
 20
3.823689
 30
0.0
 10
-13.401733
 20
4.288001
 30
0.0
 10
-13.678441
 20
4.720620
 30
0.0
 10
-13.894709
 20
5.107208
 30
0.0
 10
-14.040033
 20
5.433428
 30
0.0
 10
-14.179312
 20
5.773901
 30
0.0
 10
-14.378230
 20
6.201383
 30
0.0
 10
-14.627504
 20
6.698659
 30
0.0
 10
-14.917847
 20
7.248512
 30
0.0
 10
-15.239973
 20
7.833728
 30
0.0
 10
-15.584596
 20
8.437119
 30
0.0
 10
-15.942430
 20
9.041470
 30
0.0
 10
-16.304189
 20
9.629565
 30
0.0
 10
-17.224672
 20
11.427631
 30
0.0
 10
-17.703846
 20
13.150738
 30
0.0
 10
-17.755426
 20
14.765078
 30
0.0
 10
-17.393129
 20
16.236926
 30
0.0
 10
-16.630672
 20
17.532523
 30
0.0
 10
-15.481768
 20
18.618114
 30
0.0
 10
-13.960136
 20
19.459963
 30
0.0
 10
-12.079491
 20
20.024311
 30
0.0
 10
-11.431990
 20
20.172916
 30
0.0
 10
-10.776739
 20
20.356834
 30
0.0
 10
-10.131740
 20
20.568800
 30
0.0
 10
-9.514994
 20
20.801554
 30
0.0
 10
-8.944502
 20
21.047824
 30
0.0
 10
-8.438266
 20
21.300357
 30
0.0
 10
-8.014287
 20
21.551882
 30
0.0
 10
-7.690568
 20
21.795140
 30
0.0
 10
-7.129412
 20
22.265455
 30
0.0
 10
-6.652791
 20
22.603142
 30
0.0
 10
-6.250745
 20
22.808425
 30
0.0
 10
-5.913316
 20
22.881541
 30
0.0
 10
-5.630544
 20
22.822708
 30
0.0
 10
-5.392471
 20
22.632163
 30
0.0
 10
-5.189138
 20
22.310134
 30
0.0
 10
-5.010586
 20
21.856851
 30
0.0
 10
-4.956398
 20
21.234988
 30
0.0
 10
-5.137441
 20
20.518903
 30
0.0
 10
-5.519653
 20
19.750739
 30
0.0
 10
-6.068972
 20
18.972650
 30
0.0
 10
-6.751335
 20
18.226776
 30
0.0
 10
-7.532678
 20
17.555265
 30
0.0
 10
-8.378939
 20
17.000261
 30
0.0
 10
-9.256055
 20
16.603916
 30
0.0
 10
-9.651391
 20
16.466965
 30
0.0
 10
-10.030335
 20
16.333742
 30
0.0
 10
-10.383871
 20
16.207572
 30
0.0
 10
-10.702979
 20
16.091745
 30
0.0
 10
-10.978643
 20
15.989561
 30
0.0
 10
-11.201845
 20
15.904316
 30
0.0
 10
-11.363567
 20
15.839354
 30
0.0
 10
-11.454792
 20
15.797946
 30
0.0
 10
-11.477282
 20
15.740537
 30
0.0
 10
-11.442011
 20
15.629764
 30
0.0
 10
-11.353773
 20
15.472073
 30
0.0
 10
-11.217361
 20
15.274057
 30
0.0
 10
-11.037570
 20
15.042164
 30
0.0
 10
-10.819192
 20
14.782962
 30
0.0
 10
-10.567023
 20
14.502950
 30
0.0
 10
-10.285855
 20
14.208620
 30
0.0
 10
-10.107635
 20
14.027264
 30
0.0
 10
-9.929415
 20
13.845880
 30
0.0
 10
-9.751195
 20
13.664496
 30
0.0
 10
-9.572976
 20
13.483112
 30
0.0
 10
-9.394756
 20
13.301756
 30
0.0
 10
-9.216536
 20
13.120371
 30
0.0
 10
-9.038316
 20
12.938987
 30
0.0
 10
-8.860097
 20
12.757631
 30
0.0
 10
-8.571937
 20
12.988235
 30
0.0
 10
-8.283778
 20
13.218867
 30
0.0
 10
-7.995618
 20
13.449471
 30
0.0
 10
-7.707459
 20
13.680074
 30
0.0
 10
-7.419299
 20
13.910678
 30
0.0
 10
-7.131140
 20
14.141310
 30
0.0
 10
-6.842980
 20
14.371914
 30
0.0
 10
-6.554821
 20
14.602518
 30
0.0
 10
-4.989801
 20
15.905038
 30
0.0
 10
-3.669248
 20
17.116401
 30
0.0
 10
-2.582128
 20
18.251835
 30
0.0
 10
-1.717408
 20
19.326681
 30
0.0
 10
-1.064055
 20
20.356216
 30
0.0
 10
-0.611034
 20
21.355737
 30
0.0
 10
-0.347313
 20
22.340540
 30
0.0
 10
-0.261858
 20
23.325919
 30
0.0
 10
-0.282466
 20
24.099403
 30
0.0
 10
-0.367163
 20
24.748621
 30
0.0
 10
-0.550256
 20
25.321005
 30
0.0
 10
-0.866052
 20
25.863966
 30
0.0
 10
-1.348859
 20
26.424936
 30
0.0
 10
-2.032983
 20
27.051334
 30
0.0
 10
-2.952732
 20
27.790584
 30
0.0
 10
-4.142413
 20
28.690106
 30
0.0
 10
-6.144455
 20
30.276612
 30
0.0
 10
-7.417369
 20
31.501290
 30
0.0
 10
-7.970523
 20
32.358684
 30
0.0
 10
-7.813285
 20
32.843350
 30
0.0
 10
-6.955024
 20
32.949824
 30
0.0
 10
-5.405108
 20
32.672659
 30
0.0
 10
-3.172905
 20
32.006400
 30
0.0
 10
-0.267784
 20
30.945595
 30
0.0
 10
0.952934
 20
30.459241
 30
0.0
 10
1.905786
 20
30.036853
 30
0.0
 10
2.639205
 20
29.633535
 30
0.0
 10
3.201628
 20
29.204391
 30
0.0
 10
3.641489
 20
28.704530
 30
0.0
 10
4.007223
 20
28.089057
 30
0.0
 10
4.347266
 20
27.313079
 30
0.0
 10
4.710052
 20
26.331699
 30
0.0
 10
4.847953
 20
25.943386
 30
0.0
 10
4.985853
 20
25.555074
 30
0.0
 10
5.123754
 20
25.166764
 30
0.0
 10
5.261655
 20
24.778449
 30
0.0
 10
5.399556
 20
24.390140
 30
0.0
 10
5.537457
 20
24.001824
 30
0.0
 10
5.675358
 20
23.613515
 30
0.0
 10
5.813258
 20
23.225200
 30
0.0
 10
5.918633
 20
23.465193
 30
0.0
 10
6.024008
 20
23.705186
 30
0.0
 10
6.129383
 20
23.945180
 30
0.0
 10
6.234757
 20
24.185170
 30
0.0
 10
6.340132
 20
24.425163
 30
0.0
 10
6.445507
 20
24.665157
 30
0.0
 10
6.550882
 20
24.905150
 30
0.0
 10
6.656256
 20
25.145141
 30
0.0
 10
7.052311
 20
26.115316
 30
0.0
 10
7.307493
 20
26.949020
 30
0.0
 10
7.412002
 20
27.696029
 30
0.0
 10
7.356037
 20
28.406105
 30
0.0
 10
7.129795
 20
29.129020
 30
0.0
 10
6.723475
 20
29.914544
 30
0.0
 10
6.127275
 20
30.812442
 30
0.0
 10
5.331392
 20
31.872483
 30
0.0
 10
4.795370
 20
32.592621
 30
0.0
 10
4.349998
 20
33.258307
 30
0.0
 10
3.991878
 20
33.877768
 30
0.0
 10
3.717612
 20
34.459242
 30
0.0
 10
3.523801
 20
35.010946
 30
0.0
 10
3.407046
 20
35.541115
 30
0.0
 10
3.363951
 20
36.057980
 30
0.0
 10
3.391114
 20
36.569761
 30
0.0
 10
3.419562
 20
36.807951
 30
0.0
 10
3.448010
 20
37.046141
 30
0.0
 10
3.476458
 20
37.284331
 30
0.0
 10
3.504906
 20
37.522521
 30
0.0
 10
3.533354
 20
37.760711
 30
0.0
 10
3.561802
 20
37.998901
 30
0.0
 10
3.590250
 20
38.237088
 30
0.0
 10
3.618698
 20
38.475281
 30
0.0
 10
4.140108
 20
37.878756
 30
0.0
 10
4.661517
 20
37.282231
 30
0.0
 10
5.182926
 20
36.685704
 30
0.0
 10
5.704335
 20
36.089179
 30
0.0
 10
6.225744
 20
35.492655
 30
0.0
 10
6.747153
 20
34.896130
 30
0.0
 10
7.268562
 20
34.299603
 30
0.0
 10
7.789971
 20
33.703078
 30
0.0
 10
9.626070
 20
31.569811
 30
0.0
 10
11.030632
 20
29.842046
 30
0.0
 10
12.036445
 20
28.447919
 30
0.0
 10
12.676296
 20
27.315576
 30
0.0
 10
12.982970
 20
26.373157
 30
0.0
 10
12.989246
 20
25.548795
 30
0.0
 10
12.727913
 20
24.770634
 30
0.0
 10
12.231752
 20
23.966812
 30
0.0
 10
11.697137
 20
23.172526
 30
0.0
 10
11.376007
 20
22.587722
 30
0.0
 10
11.260472
 20
22.214666
 30
0.0
 10
11.342643
 20
22.055626
 30
0.0
 10
11.614629
 20
22.112874
 30
0.0
 10
12.068540
 20
22.388673
 30
0.0
 10
12.696486
 20
22.885288
 30
0.0
 10
13.490576
 20
23.604997
 30
0.0
 10
14.097209
 20
24.202033
 30
0.0
 10
14.556483
 20
24.729746
 30
0.0
 10
14.884203
 20
25.249758
 30
0.0
 10
15.096172
 20
25.823690
 30
0.0
 10
15.208192
 20
26.513168
 30
0.0
 10
15.236068
 20
27.379813
 30
0.0
 10
15.195603
 20
28.485249
 30
0.0
 10
15.102600
 20
29.891102
 30
0.0
 10
15.023972
 20
31.146765
 30
0.0
 10
14.990510
 20
32.182933
 30
0.0
 10
15.007364
 20
33.031183
 30
0.0
 10
15.079684
 20
33.723110
 30
0.0
 10
15.212620
 20
34.290289
 30
0.0
 10
15.411322
 20
34.764318
 30
0.0
 10
15.680940
 20
35.176772
 30
0.0
 10
16.026624
 20
35.559242
 30
0.0
 10
16.509075
 20
36.021779
 30
0.0
 10
16.888268
 20
36.299709
 30
0.0
 10
17.201503
 20
36.336451
 30
0.0
 10
17.486085
 20
36.075429
 30
0.0
 10
17.779314
 20
35.460066
 30
0.0
 10
18.118493
 20
34.433782
 30
0.0
 10
18.540924
 20
32.940008
 30
0.0
 10
19.083910
 20
30.922159
 30
0.0
 10
19.631092
 20
28.751605
 30
0.0
 10
19.992064
 20
26.952621
 30
0.0
 10
20.158314
 20
25.454371
 30
0.0
 10
20.121328
 20
24.185994
 30
0.0
 10
19.872592
 20
23.076655
 30
0.0
 10
19.403594
 20
22.055496
 30
0.0
 10
18.705820
 20
21.051674
 30
0.0
 10
17.770758
 20
19.994339
 30
0.0
 10
17.214402
 20
19.386588
 30
0.0
 10
16.742108
 20
18.818404
 30
0.0
 10
16.354589
 20
18.291063
 30
0.0
 10
16.052557
 20
17.805844
 30
0.0
 10
15.836725
 20
17.364028
 30
0.0
 10
15.707805
 20
16.966865
 30
0.0
 10
15.666511
 20
16.615657
 30
0.0
 10
15.713555
 20
16.311681
 30
0.0
 10
15.750657
 20
15.970675
 30
0.0
 10
15.644336
 20
15.577313
 30
0.0
 10
15.381521
 20
15.116896
 30
0.0
 10
14.949146
 20
14.574634
 30
0.0
 10
14.334141
 20
13.935824
 30
0.0
 10
13.523436
 20
13.185706
 30
0.0
 10
12.503965
 20
12.309547
 30
0.0
 10
11.262657
 20
11.292672
 30
0.0
 10
10.239983
 20
10.476937
 30
0.0
 10
9.181535
 20
9.646611
 30
0.0
 10
8.117943
 20
8.824836
 30
0.0
 10
7.079836
 20
8.034755
 30
0.0
 10
6.097845
 20
7.299453
 30
0.0
 10
5.202599
 20
6.642073
 30
0.0
 10
4.424727
 20
6.085785
 30
0.0
 10
3.794859
 20
5.653703
 30
0.0
 10
3.175799
 20
5.220604
 30
0.0
 10
2.638881
 20
4.798061
 30
0.0
 10
2.184229
 20
4.386158
 30
0.0
 10
1.811965
 20
3.985092
 30
0.0
 10
1.522213
 20
3.594976
 30
0.0
 10
1.315094
 20
3.215952
 30
0.0
 10
1.190733
 20
2.848160
 30
0.0
 10
1.149252
 20
2.491798
 30
0.0
 10
1.205424
 20
2.072331
 30
0.0
 10
1.366415
 20
1.415713
 30
0.0
 10
1.620936
 20
0.555386
 30
0.0
 10
1.957699
 20
-0.475374
 30
0.0
 10
2.365415
 20
-1.643209
 30
0.0
 10
2.832796
 20
-2.914790
 30
0.0
 10
3.348553
 20
-4.256813
 30
0.0
 10
3.901398
 20
-5.635892
 30
0.0
 10
5.048375
 20
-8.583449
 30
0.0
 10
6.006689
 20
-11.363140
 30
0.0
 10
6.777040
 20
-13.978352
 30
0.0
 10
7.360127
 20
-16.432444
 30
0.0
 10
7.756649
 20
-18.728858
 30
0.0
 10
7.967307
 20
-20.870953
 30
0.0
 10
7.992800
 20
-22.862200
 30
0.0
 10
7.833827
 20
-24.705901
 30
0.0
 10
7.600107
 20
-26.105526
 30
0.0
 10
7.333060
 20
-27.305253
 30
0.0
 10
7.051743
 20
-28.266981
 30
0.0
 10
6.775215
 20
-28.952640
 30
0.0
 10
6.522532
 20
-29.324186
 30
0.0
 10
6.312752
 20
-29.343659
 30
0.0
 10
6.164932
 20
-28.972734
 30
0.0
 10
6.098132
 20
-28.173453
 30
0.0
 10
6.001702
 20
-25.954904
 30
0.0
 10
5.806380
 20
-23.540888
 30
0.0
 10
5.532021
 20
-21.061538
 30
0.0
 10
5.198486
 20
-18.647126
 30
0.0
 10
4.825631
 20
-16.427985
 30
0.0
 10
4.433313
 20
-14.534246
 30
0.0
 10
4.041391
 20
-13.096239
 30
0.0
 10
3.669723
 20
-12.244182
 30
0.0
 10
3.329021
 20
-11.765476
 30
0.0
 10
3.075251
 20
-11.471655
 30
0.0
 10
2.901988
 20
-11.392520
 30
0.0
 10
2.802809
 20
-11.557704
 30
0.0
 10
2.771289
 20
-11.996955
 30
0.0
 10
2.801004
 20
-12.739990
 30
0.0
 10
2.885528
 20
-13.816442
 30
0.0
 10
3.018438
 20
-15.256114
 30
0.0
 10
3.165200
 20
-17.234745
 30
0.0
 10
3.209540
 20
-18.974053
 30
0.0
 10
3.154160
 20
-20.459501
 30
0.0
 10
3.001765
 20
-21.676528
 30
0.0
 10
2.755057
 20
-22.610514
 30
0.0
 10
2.416741
 20
-23.246925
 30
0.0
 10
1.989519
 20
-23.571227
 30
0.0
 10
1.476094
 20
-23.568405
 30
0.0
 10
1.228513
 20
-23.510323
 30
0.0
 10
1.016173
 20
-23.499599
 30
0.0
 10
0.838386
 20
-23.536542
 30
0.0
 10
0.694465
 20
-23.621886
 30
0.0
 10
0.583723
 20
-23.756252
 30
0.0
 10
0.505473
 20
-23.940176
 30
0.0
 10
0.459026
 20
-24.174336
 30
0.0
 10
0.443696
 20
-24.459267
 30
0.0
 10
0.423396
 20
-24.708131
 30
0.0
 10
0.365211
 20
-24.952338
 30
0.0
 10
0.273223
 20
-25.185707
 30
0.0
 10
0.151513
 20
-25.402031
 30
0.0
 10
0.004158
 20
-25.595071
 30
0.0
 10
-0.164760
 20
-25.758675
 30
0.0
 10
-0.351161
 20
-25.886578
 30
0.0
 10
-0.550967
 20
-25.972599
 30
0.0
 10
-0.760429
 20
-26.064773
 30
0.0
 10
-0.974507
 20
-26.210343
 30
0.0
 10
-1.187182
 20
-26.401803
 30
0.0
 10
-1.392434
 20
-26.631729
 30
0.0
 10
-1.584241
 20
-26.892728
 30
0.0
 10
-1.756586
 20
-27.177293
 30
0.0
 10
-1.903447
 20
-27.478001
 30
0.0
 10
-2.018805
 20
-27.787373
 30
0.0
 10
-2.503339
 20
-28.933534
 30
0.0
 10
-3.123913
 20
-29.813418
 30
0.0
 10
-3.830720
 20
-30.415934
 30
0.0
 10
-4.573953
 20
-30.729963
 30
0.0
 10
-5.303807
 20
-30.744356
 30
0.0
 10
-5.970475
 20
-30.448136
 30
0.0
 10
-6.524149
 20
-29.830126
 30
0.0
 10
-6.915027
 20
-28.879262
 30
0.0
  0
ENDSEC
  0
SECTION
  2
OBJECTS
  0
DICTIONARY
  5
C
330
0
100
AcDbDictionary
  3
ACAD_GROUP
350
D
  3
ACAD_MLINESTYLE
350
17
  0
DICTIONARY
  5
D
330
C
100
AcDbDictionary
  0
DICTIONARY
  5
1A
330
C
100
AcDbDictionary
  0
DICTIONARY
  5
17
330
C
100
AcDbDictionary
  3
STANDARD
350
18
  0
DICTIONARY
  5
19
330
C
100
AcDbDictionary
  0
ENDSEC
  0
EOF
